<?xml version="1.0" encoding="UTF-8"?>
<!--Generator: Apple Native CoreSVG 175-->
<!DOCTYPE svg
PUBLIC "-//W3C//DTD SVG 1.1//EN"
       "http://www.w3.org/Graphics/SVG/1.1/DTD/svg11.dtd">
<svg version="1.1" xmlns="http://www.w3.org/2000/svg" xmlns:xlink="http://www.w3.org/1999/xlink" width="3300" height="2200">
 <!--glyph: "uni10020A.medium", point size: 100.0, font version: "17.0d11e1", template writer version: "65.1"-->
 <g id="Notes">
  <rect height="2200" id="artboard" style="fill:white;opacity:1" width="3300" x="0" y="0"/>
  <line style="fill:none;stroke:black;opacity:1;stroke-width:0.5;" x1="263" x2="3036" y1="292" y2="292"/>
  <text style="stroke:none;fill:black;font-family:sans-serif;font-size:13;font-weight:bold;" transform="matrix(1 0 0 1 263 322)">Weight/Scale Variations</text>
  <text style="stroke:none;fill:black;font-family:sans-serif;font-size:13;text-anchor:middle;" transform="matrix(1 0 0 1 559.711 322)">Ultralight</text>
  <text style="stroke:none;fill:black;font-family:sans-serif;font-size:13;text-anchor:middle;" transform="matrix(1 0 0 1 856.422 322)">Thin</text>
  <text style="stroke:none;fill:black;font-family:sans-serif;font-size:13;text-anchor:middle;" transform="matrix(1 0 0 1 1153.13 322)">Light</text>
  <text style="stroke:none;fill:black;font-family:sans-serif;font-size:13;text-anchor:middle;" transform="matrix(1 0 0 1 1449.84 322)">Regular</text>
  <text style="stroke:none;fill:black;font-family:sans-serif;font-size:13;text-anchor:middle;" transform="matrix(1 0 0 1 1746.56 322)">Medium</text>
  <text style="stroke:none;fill:black;font-family:sans-serif;font-size:13;text-anchor:middle;" transform="matrix(1 0 0 1 2043.27 322)">Semibold</text>
  <text style="stroke:none;fill:black;font-family:sans-serif;font-size:13;text-anchor:middle;" transform="matrix(1 0 0 1 2339.98 322)">Bold</text>
  <text style="stroke:none;fill:black;font-family:sans-serif;font-size:13;text-anchor:middle;" transform="matrix(1 0 0 1 2636.69 322)">Heavy</text>
  <text style="stroke:none;fill:black;font-family:sans-serif;font-size:13;text-anchor:middle;" transform="matrix(1 0 0 1 2933.4 322)">Black</text>
  <line style="fill:none;stroke:black;opacity:1;stroke-width:0.5;" x1="263" x2="3036" y1="1903" y2="1903"/>
  <g transform="matrix(1 0 0 1 263 1933)">
   <path d="M9.24805 0.830078Q10.8691 0.830078 12.2949 0.214844Q13.7207-0.400391 14.8096-1.49414Q15.8984-2.58789 16.5186-4.01367Q17.1387-5.43945 17.1387-7.05078Q17.1387-8.66211 16.5186-10.0879Q15.8984-11.5137 14.8047-12.6074Q13.7109-13.7012 12.2852-14.3164Q10.8594-14.9316 9.23828-14.9316Q7.62695-14.9316 6.20117-14.3164Q4.77539-13.7012 3.69141-12.6074Q2.60742-11.5137 1.9873-10.0879Q1.36719-8.66211 1.36719-7.05078Q1.36719-5.43945 1.9873-4.01367Q2.60742-2.58789 3.69629-1.49414Q4.78516-0.400391 6.21094 0.214844Q7.63672 0.830078 9.24805 0.830078ZM9.24805-0.654297Q7.91992-0.654297 6.7627-1.14746Q5.60547-1.64062 4.73145-2.51953Q3.85742-3.39844 3.36426-4.56055Q2.87109-5.72266 2.87109-7.05078Q2.87109-8.37891 3.35938-9.54102Q3.84766-10.7031 4.72168-11.582Q5.5957-12.4609 6.75293-12.9541Q7.91016-13.4473 9.23828-13.4473Q10.5762-13.4473 11.7334-12.9541Q12.8906-12.4609 13.7695-11.582Q14.6484-10.7031 15.1465-9.54102Q15.6445-8.37891 15.6445-7.05078Q15.6445-5.72266 15.1514-4.56055Q14.6582-3.39844 13.7842-2.51953Q12.9102-1.64062 11.748-1.14746Q10.5859-0.654297 9.24805-0.654297ZM5.6543-7.05078Q5.6543-6.72852 5.85938-6.52832Q6.06445-6.32812 6.40625-6.32812L8.51562-6.32812L8.51562-4.20898Q8.51562-3.88672 8.71094-3.67676Q8.90625-3.4668 9.23828-3.4668Q9.56055-3.4668 9.77051-3.67676Q9.98047-3.88672 9.98047-4.20898L9.98047-6.32812L12.0898-6.32812Q12.4219-6.32812 12.627-6.52832Q12.832-6.72852 12.832-7.05078Q12.832-7.38281 12.627-7.58789Q12.4219-7.79297 12.0898-7.79297L9.98047-7.79297L9.98047-9.90234Q9.98047-10.2344 9.77051-10.4443Q9.56055-10.6543 9.23828-10.6543Q8.90625-10.6543 8.71094-10.4443Q8.51562-10.2344 8.51562-9.90234L8.51562-7.79297L6.40625-7.79297Q6.06445-7.79297 5.85938-7.58789Q5.6543-7.38281 5.6543-7.05078Z"/>
  </g>
  <g transform="matrix(1 0 0 1 281.867 1933)">
   <path d="M11.709 2.91016Q13.75 2.91016 15.5518 2.12891Q17.3535 1.34766 18.7305-0.0292969Q20.1074-1.40625 20.8887-3.20801Q21.6699-5.00977 21.6699-7.05078Q21.6699-9.0918 20.8887-10.8936Q20.1074-12.6953 18.7305-14.0723Q17.3535-15.4492 15.5469-16.2305Q13.7402-17.0117 11.6992-17.0117Q9.6582-17.0117 7.85645-16.2305Q6.05469-15.4492 4.68262-14.0723Q3.31055-12.6953 2.5293-10.8936Q1.74805-9.0918 1.74805-7.05078Q1.74805-5.00977 2.5293-3.20801Q3.31055-1.40625 4.6875-0.0292969Q6.06445 1.34766 7.86621 2.12891Q9.66797 2.91016 11.709 2.91016ZM11.709 1.25Q9.98047 1.25 8.47656 0.605469Q6.97266-0.0390625 5.83496-1.17676Q4.69727-2.31445 4.05762-3.81836Q3.41797-5.32227 3.41797-7.05078Q3.41797-8.7793 4.05762-10.2832Q4.69727-11.7871 5.83008-12.9297Q6.96289-14.0723 8.4668-14.7119Q9.9707-15.3516 11.6992-15.3516Q13.4277-15.3516 14.9316-14.7119Q16.4355-14.0723 17.5781-12.9297Q18.7207-11.7871 19.3652-10.2832Q20.0098-8.7793 20.0098-7.05078Q20.0098-5.32227 19.3701-3.81836Q18.7305-2.31445 17.5928-1.17676Q16.4551-0.0390625 14.9463 0.605469Q13.4375 1.25 11.709 1.25ZM7.17773-7.05078Q7.17773-6.69922 7.41211-6.47461Q7.64648-6.25 8.01758-6.25L10.8887-6.25L10.8887-3.36914Q10.8887-2.99805 11.1133-2.76855Q11.3379-2.53906 11.6895-2.53906Q12.0605-2.53906 12.29-2.76855Q12.5195-2.99805 12.5195-3.36914L12.5195-6.25L15.4004-6.25Q15.7715-6.25 16.001-6.47461Q16.2305-6.69922 16.2305-7.05078Q16.2305-7.42188 16.001-7.65137Q15.7715-7.88086 15.4004-7.88086L12.5195-7.88086L12.5195-10.752Q12.5195-11.1328 12.29-11.3623Q12.0605-11.5918 11.6895-11.5918Q11.3379-11.5918 11.1133-11.3574Q10.8887-11.123 10.8887-10.752L10.8887-7.88086L8.01758-7.88086Q7.63672-7.88086 7.40723-7.65137Q7.17773-7.42188 7.17773-7.05078Z"/>
  </g>
  <g transform="matrix(1 0 0 1 305.646 1933)">
   <path d="M14.9707 5.66406Q17.0605 5.66406 18.96 5.01465Q20.8594 4.36523 22.4512 3.19336Q24.043 2.02148 25.2197 0.429688Q26.3965-1.16211 27.0459-3.06641Q27.6953-4.9707 27.6953-7.05078Q27.6953-9.14062 27.0459-11.04Q26.3965-12.9395 25.2197-14.5312Q24.043-16.123 22.4512-17.2998Q20.8594-18.4766 18.9551-19.126Q17.0508-19.7754 14.9609-19.7754Q12.8711-19.7754 10.9717-19.126Q9.07227-18.4766 7.48535-17.2998Q5.89844-16.123 4.72168-14.5312Q3.54492-12.9395 2.90039-11.04Q2.25586-9.14062 2.25586-7.05078Q2.25586-4.9707 2.90527-3.06641Q3.55469-1.16211 4.72656 0.429688Q5.89844 2.02148 7.49023 3.19336Q9.08203 4.36523 10.9814 5.01465Q12.8809 5.66406 14.9707 5.66406ZM14.9707 3.84766Q13.1641 3.84766 11.5283 3.2959Q9.89258 2.74414 8.53516 1.74805Q7.17773 0.751953 6.17676-0.610352Q5.17578-1.97266 4.62891-3.6084Q4.08203-5.24414 4.08203-7.05078Q4.08203-8.86719 4.62891-10.5029Q5.17578-12.1387 6.17188-13.501Q7.16797-14.8633 8.52539-15.8594Q9.88281-16.8555 11.5186-17.4023Q13.1543-17.9492 14.9609-17.9492Q16.7773-17.9492 18.4131-17.4023Q20.0488-16.8555 21.4111-15.8594Q22.7734-14.8633 23.7695-13.501Q24.7656-12.1387 25.3174-10.5029Q25.8691-8.86719 25.8691-7.05078Q25.8789-5.24414 25.332-3.6084Q24.7852-1.97266 23.7842-0.610352Q22.7832 0.751953 21.4209 1.74805Q20.0586 2.74414 18.4229 3.2959Q16.7871 3.84766 14.9707 3.84766ZM9.19922-7.05078Q9.19922-6.66992 9.45801-6.4209Q9.7168-6.17188 10.1172-6.17188L14.0625-6.17188L14.0625-2.2168Q14.0625-1.81641 14.3115-1.55762Q14.5605-1.29883 14.9512-1.29883Q15.3516-1.29883 15.6104-1.55273Q15.8691-1.80664 15.8691-2.2168L15.8691-6.17188L19.8242-6.17188Q20.2246-6.17188 20.4785-6.4209Q20.7324-6.66992 20.7324-7.05078Q20.7324-7.46094 20.4785-7.71484Q20.2246-7.96875 19.8242-7.96875L15.8691-7.96875L15.8691-11.9141Q15.8691-12.3242 15.6104-12.583Q15.3516-12.8418 14.9512-12.8418Q14.5605-12.8418 14.3115-12.583Q14.0625-12.3242 14.0625-11.9141L14.0625-7.96875L10.1172-7.96875Q9.70703-7.96875 9.45312-7.71484Q9.19922-7.46094 9.19922-7.05078Z"/>
  </g>
  <text style="stroke:none;fill:black;font-family:sans-serif;font-size:13;font-weight:bold;" transform="matrix(1 0 0 1 263 1953)">Design Variations</text>
  <text style="stroke:none;fill:black;font-family:sans-serif;font-size:13;" transform="matrix(1 0 0 1 263 1971)">Symbols are supported in up to nine weights and three scales.</text>
  <text style="stroke:none;fill:black;font-family:sans-serif;font-size:13;" transform="matrix(1 0 0 1 263 1989)">For optimal layout with text and other symbols, vertically align</text>
  <text style="stroke:none;fill:black;font-family:sans-serif;font-size:13;" transform="matrix(1 0 0 1 263 2007)">symbols with the adjacent text.</text>
  <line style="fill:none;stroke:#00AEEF;stroke-width:0.5;opacity:1.0;" x1="776" x2="776" y1="1919" y2="1933"/>
  <g transform="matrix(1 0 0 1 776 1933)">
   <path d="M3.31055 0.15625Q3.70117 0.15625 3.91602-0.00976562Q4.13086-0.175781 4.26758-0.585938L5.52734-4.0332L11.2891-4.0332L12.5488-0.585938Q12.6855-0.175781 12.9004-0.00976562Q13.1152 0.15625 13.4961 0.15625Q13.8867 0.15625 14.1162-0.0585938Q14.3457-0.273438 14.3457-0.644531Q14.3457-0.869141 14.2383-1.17188L9.6582-13.3691Q9.48242-13.8184 9.17969-14.043Q8.87695-14.2676 8.4082-14.2676Q7.5-14.2676 7.17773-13.3789L2.59766-1.16211Q2.49023-0.859375 2.49023-0.634766Q2.49023-0.263672 2.70996-0.0537109Q2.92969 0.15625 3.31055 0.15625ZM6.00586-5.51758L8.37891-12.0898L8.42773-12.0898L10.8008-5.51758Z"/>
  </g>
  <line style="fill:none;stroke:#00AEEF;stroke-width:0.5;opacity:1.0;" x1="793.197" x2="793.197" y1="1919" y2="1933"/>
  <text style="stroke:none;fill:black;font-family:sans-serif;font-size:13;font-weight:bold;" transform="matrix(1 0 0 1 776 1953)">Margins</text>
  <text style="stroke:none;fill:black;font-family:sans-serif;font-size:13;" transform="matrix(1 0 0 1 776 1971)">Leading and trailing margins on the left and right side of each symbol</text>
  <text style="stroke:none;fill:black;font-family:sans-serif;font-size:13;" transform="matrix(1 0 0 1 776 1989)">can be adjusted by modifying the x-location of the margin guidelines.</text>
  <text style="stroke:none;fill:black;font-family:sans-serif;font-size:13;" transform="matrix(1 0 0 1 776 2007)">Modifications are automatically applied proportionally to all</text>
  <text style="stroke:none;fill:black;font-family:sans-serif;font-size:13;" transform="matrix(1 0 0 1 776 2025)">scales and weights.</text>
  <g transform="matrix(1 0 0 1 1289 1933)">
   <path d="M2.8418 1.86523L4.54102 3.57422Q5.18555 4.22852 5.90332 4.17969Q6.62109 4.13086 7.31445 3.35938L18.0078-8.42773L17.041-9.4043L6.42578 2.27539Q6.16211 2.57812 5.89355 2.61719Q5.625 2.65625 5.27344 2.30469L4.10156 1.14258Q3.75 0.791016 3.79395 0.522461Q3.83789 0.253906 4.14062-0.0195312L15.6152-10.8203L14.6387-11.7871L3.04688-0.898438Q2.30469-0.214844 2.25098 0.498047Q2.19727 1.21094 2.8418 1.86523ZM9.25781-16.3281Q8.94531-16.0254 8.90625-15.6348Q8.86719-15.2441 9.04297-14.9512Q9.21875-14.6777 9.55566-14.541Q9.89258-14.4043 10.3809-14.5215Q11.4746-14.7754 12.5977-14.7314Q13.7207-14.6875 14.7949-13.9844L14.209-12.5293Q13.9551-11.9043 14.0674-11.4404Q14.1797-10.9766 14.5801-10.5664L16.875-8.25195Q17.2363-7.88086 17.5781-7.82227Q17.9199-7.76367 18.3398-7.8418L19.4043-8.03711L20.0684-7.36328L20.0293-6.80664Q20-6.43555 20.1221-6.12305Q20.2441-5.81055 20.6055-5.44922L21.3672-4.70703Q21.7285-4.3457 22.1533-4.33105Q22.5781-4.31641 22.9297-4.66797L25.8398-7.58789Q26.1914-7.93945 26.1816-8.35449Q26.1719-8.76953 25.8105-9.13086L25.0391-9.89258Q24.6875-10.2539 24.3799-10.3857Q24.0723-10.5176 23.7109-10.4883L23.1348-10.4395L22.4902-11.0742L22.7344-12.1973Q22.832-12.6172 22.6953-12.9834Q22.5586-13.3496 22.1191-13.7891L19.9219-15.9766Q18.6719-17.2168 17.2607-17.8369Q15.8496-18.457 14.4189-18.4814Q12.9883-18.5059 11.665-17.959Q10.3418-17.4121 9.25781-16.3281ZM10.752-15.957Q11.6602-16.6211 12.7002-16.9043Q13.7402-17.1875 14.8047-17.085Q15.8691-16.9824 16.8701-16.5137Q17.8711-16.0449 18.7012-15.2051L21.1328-12.793Q21.3086-12.6172 21.3525-12.4512Q21.3965-12.2852 21.3379-12.0312L21.0156-10.5469L22.5195-9.0625L23.5059-9.12109Q23.6914-9.13086 23.7891-9.09668Q23.8867-9.0625 24.0332-8.91602L24.6094-8.33984L22.168-5.89844L21.5918-6.47461Q21.4453-6.62109 21.4062-6.71875Q21.3672-6.81641 21.377-7.01172L21.4453-7.98828L19.9512-9.47266L18.4277-9.21875Q18.1836-9.16992 18.042-9.2041Q17.9004-9.23828 17.7148-9.41406L15.7129-11.416Q15.5176-11.5918 15.4932-11.7529Q15.4688-11.9141 15.5859-12.1875L16.4648-14.2773Q15.293-15.3711 13.8281-15.791Q12.3633-16.2109 10.8398-15.7617Q10.7227-15.7324 10.6885-15.8057Q10.6543-15.8789 10.752-15.957Z"/>
  </g>
  <text style="stroke:none;fill:black;font-family:sans-serif;font-size:13;font-weight:bold;" transform="matrix(1 0 0 1 1289 1953)">Exporting</text>
  <text style="stroke:none;fill:black;font-family:sans-serif;font-size:13;" transform="matrix(1 0 0 1 1289 1971)">Symbols should be outlined when exporting to ensure the</text>
  <text style="stroke:none;fill:black;font-family:sans-serif;font-size:13;" transform="matrix(1 0 0 1 1289 1989)">design is preserved when submitting to Xcode.</text>
  <text id="template-version" style="stroke:none;fill:black;font-family:sans-serif;font-size:13;text-anchor:end;" transform="matrix(1 0 0 1 3036 1933)">Template v.3.0</text>
  <text style="stroke:none;fill:black;font-family:sans-serif;font-size:13;text-anchor:end;" transform="matrix(1 0 0 1 3036 1951)">Requires Xcode 13 or greater</text>
  <text id="descriptive-name" style="stroke:none;fill:black;font-family:sans-serif;font-size:13;text-anchor:end;" transform="matrix(1 0 0 1 3036 1969)">Generated from pencil</text>
  <text style="stroke:none;fill:black;font-family:sans-serif;font-size:13;text-anchor:end;" transform="matrix(1 0 0 1 3036 1987)">Typeset at 100 points</text>
  <text style="stroke:none;fill:black;font-family:sans-serif;font-size:13;" transform="matrix(1 0 0 1 263 726)">Small</text>
  <text style="stroke:none;fill:black;font-family:sans-serif;font-size:13;" transform="matrix(1 0 0 1 263 1156)">Medium</text>
  <text style="stroke:none;fill:black;font-family:sans-serif;font-size:13;" transform="matrix(1 0 0 1 263 1586)">Large</text>
 </g>
 <g id="Guides">
  <g id="H-reference" style="fill:#27AAE1;stroke:none;" transform="matrix(1 0 0 1 339 696)">
   <path d="M0.976562 0L3.66211 0L29.3457-67.1387L30.0293-67.1387L30.0293-70.459L28.125-70.459ZM11.6699-24.4629L46.9727-24.4629L46.2402-26.709L12.4512-26.709ZM55.127 0L57.7637 0L30.6152-70.459L29.4434-70.459L29.4434-67.1387Z"/>
  </g>
  <line id="Baseline-S" style="fill:none;stroke:#27AAE1;opacity:1;stroke-width:0.5;" x1="263" x2="3036" y1="696" y2="696"/>
  <line id="Capline-S" style="fill:none;stroke:#27AAE1;opacity:1;stroke-width:0.5;" x1="263" x2="3036" y1="625.541" y2="625.541"/>
  <g id="H-reference" style="fill:#27AAE1;stroke:none;" transform="matrix(1 0 0 1 339 1126)">
   <path d="M0.976562 0L3.66211 0L29.3457-67.1387L30.0293-67.1387L30.0293-70.459L28.125-70.459ZM11.6699-24.4629L46.9727-24.4629L46.2402-26.709L12.4512-26.709ZM55.127 0L57.7637 0L30.6152-70.459L29.4434-70.459L29.4434-67.1387Z"/>
  </g>
  <line id="Baseline-M" style="fill:none;stroke:#27AAE1;opacity:1;stroke-width:0.5;" x1="263" x2="3036" y1="1126" y2="1126"/>
  <line id="Capline-M" style="fill:none;stroke:#27AAE1;opacity:1;stroke-width:0.5;" x1="263" x2="3036" y1="1055.54" y2="1055.54"/>
  <g id="H-reference" style="fill:#27AAE1;stroke:none;" transform="matrix(1 0 0 1 339 1556)">
   <path d="M0.976562 0L3.66211 0L29.3457-67.1387L30.0293-67.1387L30.0293-70.459L28.125-70.459ZM11.6699-24.4629L46.9727-24.4629L46.2402-26.709L12.4512-26.709ZM55.127 0L57.7637 0L30.6152-70.459L29.4434-70.459L29.4434-67.1387Z"/>
  </g>
  <line id="Baseline-L" style="fill:none;stroke:#27AAE1;opacity:1;stroke-width:0.5;" x1="263" x2="3036" y1="1556" y2="1556"/>
  <line id="Capline-L" style="fill:none;stroke:#27AAE1;opacity:1;stroke-width:0.5;" x1="263" x2="3036" y1="1485.54" y2="1485.54"/>
  <line id="left-margin-Ultralight-S" style="fill:none;stroke:#00AEEF;stroke-width:0.5;opacity:1.0;" x1="520.722" x2="520.722" y1="600.785" y2="720.121"/>
  <line id="right-margin-Ultralight-S" style="fill:none;stroke:#00AEEF;stroke-width:0.5;opacity:1.0;" x1="598.7" x2="598.7" y1="600.785" y2="720.121"/>
  <line id="left-margin-Thin-S" style="fill:none;stroke:#00AEEF;stroke-width:0.5;opacity:1.0;" x1="817.36" x2="817.36" y1="600.785" y2="720.121"/>
  <line id="right-margin-Thin-S" style="fill:none;stroke:#00AEEF;stroke-width:0.5;opacity:1.0;" x1="895.485" x2="895.485" y1="600.785" y2="720.121"/>
  <line id="left-margin-Light-S" style="fill:none;stroke:#00AEEF;stroke-width:0.5;opacity:1.0;" x1="1113.92" x2="1113.92" y1="600.785" y2="720.121"/>
  <line id="right-margin-Light-S" style="fill:none;stroke:#00AEEF;stroke-width:0.5;opacity:1.0;" x1="1192.34" x2="1192.34" y1="600.785" y2="720.121"/>
  <line id="left-margin-Regular-S" style="fill:none;stroke:#00AEEF;stroke-width:0.5;opacity:1.0;" x1="1410.51" x2="1410.51" y1="600.785" y2="720.121"/>
  <line id="right-margin-Regular-S" style="fill:none;stroke:#00AEEF;stroke-width:0.5;opacity:1.0;" x1="1489.18" x2="1489.18" y1="600.785" y2="720.121"/>
  <line id="left-margin-Medium-S" style="fill:none;stroke:#00AEEF;stroke-width:0.5;opacity:1.0;" x1="1705.81" x2="1705.81" y1="600.785" y2="720.121"/>
  <line id="right-margin-Medium-S" style="fill:none;stroke:#00AEEF;stroke-width:0.5;opacity:1.0;" x1="1787.3" x2="1787.3" y1="600.785" y2="720.121"/>
  <line id="left-margin-Semibold-S" style="fill:none;stroke:#00AEEF;stroke-width:0.5;opacity:1.0;" x1="2001.42" x2="2001.42" y1="600.785" y2="720.121"/>
  <line id="right-margin-Semibold-S" style="fill:none;stroke:#00AEEF;stroke-width:0.5;opacity:1.0;" x1="2085.11" x2="2085.11" y1="600.785" y2="720.121"/>
  <line id="left-margin-Bold-S" style="fill:none;stroke:#00AEEF;stroke-width:0.5;opacity:1.0;" x1="2296.67" x2="2296.67" y1="600.785" y2="720.121"/>
  <line id="right-margin-Bold-S" style="fill:none;stroke:#00AEEF;stroke-width:0.5;opacity:1.0;" x1="2383.29" x2="2383.29" y1="600.785" y2="720.121"/>
  <line id="left-margin-Heavy-S" style="fill:none;stroke:#00AEEF;stroke-width:0.5;opacity:1.0;" x1="2591.3" x2="2591.3" y1="600.785" y2="720.121"/>
  <line id="right-margin-Heavy-S" style="fill:none;stroke:#00AEEF;stroke-width:0.5;opacity:1.0;" x1="2682.07" x2="2682.07" y1="600.785" y2="720.121"/>
  <line id="left-margin-Black-S" style="fill:none;stroke:#00AEEF;stroke-width:0.5;opacity:1.0;" x1="2886.13" x2="2886.13" y1="600.785" y2="720.121"/>
  <line id="right-margin-Black-S" style="fill:none;stroke:#00AEEF;stroke-width:0.5;opacity:1.0;" x1="2980.67" x2="2980.67" y1="600.785" y2="720.121"/>
  <line id="left-margin-Ultralight-M" style="fill:none;stroke:#00AEEF;stroke-width:0.5;opacity:1.0;" x1="509.98" x2="509.98" y1="1030.79" y2="1150.12"/>
  <line id="right-margin-Ultralight-M" style="fill:none;stroke:#00AEEF;stroke-width:0.5;opacity:1.0;" x1="609.443" x2="609.443" y1="1030.79" y2="1150.12"/>
  <line id="left-margin-Thin-M" style="fill:none;stroke:#00AEEF;stroke-width:0.5;opacity:1.0;" x1="806.593" x2="806.593" y1="1030.79" y2="1150.12"/>
  <line id="right-margin-Thin-M" style="fill:none;stroke:#00AEEF;stroke-width:0.5;opacity:1.0;" x1="906.251" x2="906.251" y1="1030.79" y2="1150.12"/>
  <line id="left-margin-Light-M" style="fill:none;stroke:#00AEEF;stroke-width:0.5;opacity:1.0;" x1="1103.13" x2="1103.13" y1="1030.79" y2="1150.12"/>
  <line id="right-margin-Light-M" style="fill:none;stroke:#00AEEF;stroke-width:0.5;opacity:1.0;" x1="1203.13" x2="1203.13" y1="1030.79" y2="1150.12"/>
  <line id="left-margin-Regular-M" style="fill:none;stroke:#00AEEF;stroke-width:0.5;opacity:1.0;" x1="1399.72" x2="1399.72" y1="1030.79" y2="1150.12"/>
  <line id="right-margin-Regular-M" style="fill:none;stroke:#00AEEF;stroke-width:0.5;opacity:1.0;" x1="1499.97" x2="1499.97" y1="1030.79" y2="1150.12"/>
  <line id="left-margin-Medium-M" style="fill:none;stroke:#00AEEF;stroke-width:0.5;opacity:1.0;" x1="1694.75" x2="1694.75" y1="1030.79" y2="1150.12"/>
  <line id="right-margin-Medium-M" style="fill:none;stroke:#00AEEF;stroke-width:0.5;opacity:1.0;" x1="1798.36" x2="1798.36" y1="1030.79" y2="1150.12"/>
  <line id="left-margin-Semibold-M" style="fill:none;stroke:#00AEEF;stroke-width:0.5;opacity:1.0;" x1="1990.17" x2="1990.17" y1="1030.79" y2="1150.12"/>
  <line id="right-margin-Semibold-M" style="fill:none;stroke:#00AEEF;stroke-width:0.5;opacity:1.0;" x1="2096.37" x2="2096.37" y1="1030.79" y2="1150.12"/>
  <line id="left-margin-Bold-M" style="fill:none;stroke:#00AEEF;stroke-width:0.5;opacity:1.0;" x1="2285.17" x2="2285.17" y1="1030.79" y2="1150.12"/>
  <line id="right-margin-Bold-M" style="fill:none;stroke:#00AEEF;stroke-width:0.5;opacity:1.0;" x1="2394.79" x2="2394.79" y1="1030.79" y2="1150.12"/>
  <line id="left-margin-Heavy-M" style="fill:none;stroke:#00AEEF;stroke-width:0.5;opacity:1.0;" x1="2579.41" x2="2579.41" y1="1030.79" y2="1150.12"/>
  <line id="right-margin-Heavy-M" style="fill:none;stroke:#00AEEF;stroke-width:0.5;opacity:1.0;" x1="2693.96" x2="2693.96" y1="1030.79" y2="1150.12"/>
  <line id="left-margin-Black-M" style="fill:none;stroke:#00AEEF;stroke-width:0.5;opacity:1.0;" x1="2873.93" x2="2873.93" y1="1030.79" y2="1150.12"/>
  <line id="right-margin-Black-M" style="fill:none;stroke:#00AEEF;stroke-width:0.5;opacity:1.0;" x1="2992.87" x2="2992.87" y1="1030.79" y2="1150.12"/>
  <line id="left-margin-Ultralight-L" style="fill:none;stroke:#00AEEF;stroke-width:0.5;opacity:1.0;" x1="495.624" x2="495.624" y1="1460.79" y2="1580.12"/>
  <line id="right-margin-Ultralight-L" style="fill:none;stroke:#00AEEF;stroke-width:0.5;opacity:1.0;" x1="623.798" x2="623.798" y1="1460.79" y2="1580.12"/>
  <line id="left-margin-Thin-L" style="fill:none;stroke:#00AEEF;stroke-width:0.5;opacity:1.0;" x1="792.213" x2="792.213" y1="1460.79" y2="1580.12"/>
  <line id="right-margin-Thin-L" style="fill:none;stroke:#00AEEF;stroke-width:0.5;opacity:1.0;" x1="920.631" x2="920.631" y1="1460.79" y2="1580.12"/>
  <line id="left-margin-Light-L" style="fill:none;stroke:#00AEEF;stroke-width:0.5;opacity:1.0;" x1="1088.73" x2="1088.73" y1="1460.79" y2="1580.12"/>
  <line id="right-margin-Light-L" style="fill:none;stroke:#00AEEF;stroke-width:0.5;opacity:1.0;" x1="1217.54" x2="1217.54" y1="1460.79" y2="1580.12"/>
  <line id="left-margin-Regular-L" style="fill:none;stroke:#00AEEF;stroke-width:0.5;opacity:1.0;" x1="1385.27" x2="1385.27" y1="1460.79" y2="1580.12"/>
  <line id="right-margin-Regular-L" style="fill:none;stroke:#00AEEF;stroke-width:0.5;opacity:1.0;" x1="1514.42" x2="1514.42" y1="1460.79" y2="1580.12"/>
  <line id="left-margin-Medium-L" style="fill:none;stroke:#00AEEF;stroke-width:0.5;opacity:1.0;" x1="1680.22" x2="1680.22" y1="1460.79" y2="1580.12"/>
  <line id="right-margin-Medium-L" style="fill:none;stroke:#00AEEF;stroke-width:0.5;opacity:1.0;" x1="1812.89" x2="1812.89" y1="1460.79" y2="1580.12"/>
  <line id="left-margin-Semibold-L" style="fill:none;stroke:#00AEEF;stroke-width:0.5;opacity:1.0;" x1="1975.59" x2="1975.59" y1="1460.79" y2="1580.12"/>
  <line id="right-margin-Semibold-L" style="fill:none;stroke:#00AEEF;stroke-width:0.5;opacity:1.0;" x1="2110.94" x2="2110.94" y1="1460.79" y2="1580.12"/>
  <line id="left-margin-Bold-L" style="fill:none;stroke:#00AEEF;stroke-width:0.5;opacity:1.0;" x1="2270.54" x2="2270.54" y1="1460.79" y2="1580.12"/>
  <line id="right-margin-Bold-L" style="fill:none;stroke:#00AEEF;stroke-width:0.5;opacity:1.0;" x1="2409.41" x2="2409.41" y1="1460.79" y2="1580.12"/>
  <line id="left-margin-Heavy-L" style="fill:none;stroke:#00AEEF;stroke-width:0.5;opacity:1.0;" x1="2564.69" x2="2564.69" y1="1460.79" y2="1580.12"/>
  <line id="right-margin-Heavy-L" style="fill:none;stroke:#00AEEF;stroke-width:0.5;opacity:1.0;" x1="2708.69" x2="2708.69" y1="1460.79" y2="1580.12"/>
  <line id="left-margin-Black-L" style="fill:none;stroke:#00AEEF;stroke-width:0.5;opacity:1.0;" x1="2859.11" x2="2859.11" y1="1460.79" y2="1580.12"/>
  <line id="right-margin-Black-L" style="fill:none;stroke:#00AEEF;stroke-width:0.5;opacity:1.0;" x1="3007.69" x2="3007.69" y1="1460.79" y2="1580.12"/>
 </g>
 <g id="Symbols">
  <g id="Black-L" transform="matrix(1 0 0 1 2859.11 1556)">
   <path d="M37.3047 17.4805L114.697-59.9609L98.6816-75.9766L21.3379 1.46484L14.7461 18.9941Q14.1602 20.5566 14.8438 21.8994Q15.5273 23.2422 16.8701 23.9014Q18.2129 24.5605 19.6289 24.0234ZM122.51-67.6758L130.957-76.123Q133.984-79.1504 134.082-82.5195Q134.18-85.8887 131.348-88.8184L127.686-92.5293Q124.805-95.459 121.362-95.2637Q117.92-95.0684 114.893-92.0898L106.445-83.7402Z"/>
  </g>
  <g id="Heavy-L" transform="matrix(1 0 0 1 2564.69 1556)">
   <path d="M35.7422 15.7715L111.523-59.9609L96.9238-74.5605L21.1914 1.17188L14.6973 17.7734Q14.209 19.0918 14.7949 20.2637Q15.3809 21.4355 16.5527 22.0215Q17.7246 22.6074 18.9941 22.168ZM118.701-67.0898L126.562-74.9023Q129.395-77.7344 129.492-80.8594Q129.59-83.9844 126.953-86.7188L123.779-89.9414Q121.094-92.6758 117.92-92.4805Q114.746-92.2852 111.914-89.502L104.053-81.7383Z"/>
  </g>
  <g id="Bold-L" transform="matrix(1 0 0 1 2270.54 1556)">
   <path d="M34.0332 13.916L107.959-60.0098L94.9219-73.0469L21.0449 0.878906L14.6973 16.3574Q14.2578 17.4805 14.7461 18.4814Q15.2344 19.4824 16.2109 19.9707Q17.1875 20.459 18.2617 20.0684ZM114.453-66.4062L121.631-73.5352Q124.268-76.2207 124.39-79.0527Q124.512-81.8848 122.07-84.375L119.385-87.0605Q116.943-89.5508 114.062-89.3555Q111.182-89.1602 108.545-86.5723L101.367-79.4922Z"/>
  </g>
  <g id="Semibold-L" transform="matrix(1 0 0 1 1975.59 1556)">
   <path d="M32.8613 12.5977L105.469-60.0098L93.5547-71.9238L20.9473 0.634766L14.6484 15.3809Q14.3066 16.3574 14.7217 17.2119Q15.1367 18.0664 15.9668 18.5059Q16.7969 18.9453 17.7246 18.6035ZM111.475-65.9668L118.213-72.6074Q120.752-75.0977 120.85-77.7344Q120.947-80.3711 118.652-82.7148L116.309-85.0586Q114.062-87.3535 111.377-87.1826Q108.691-87.0117 106.25-84.5703L99.4629-77.9297Z"/>
  </g>
  <g id="Medium-L" transform="matrix(1 0 0 1 1680.22 1556)">
   <path d="M31.9336 11.5723L103.613-60.0586L92.5293-71.1426L20.8496 0.439453L14.6484 14.6484Q14.3066 15.5273 14.6729 16.2842Q15.0391 17.041 15.7959 17.4072Q16.5527 17.7734 17.334 17.4805ZM109.277-65.5762L115.674-71.875Q118.066-74.3164 118.164-76.8066Q118.262-79.2969 116.113-81.4941L114.014-83.5449Q111.865-85.7422 109.351-85.5713Q106.836-85.4004 104.492-83.0566L98.0957-76.7578Z"/>
  </g>
  <g id="Regular-L" transform="matrix(1 0 0 1 1385.27 1556)">
   <path d="M30.7617 10.3027L101.172-60.0586L91.1621-70.0684L20.752 0.244141L14.5996 13.7207Q14.3555 14.4043 14.6484 15.0391Q14.9414 15.6738 15.5518 15.9912Q16.1621 16.3086 16.8457 16.0645ZM106.348-65.1367L112.305-70.9473Q114.551-73.2422 114.673-75.5371Q114.795-77.832 112.744-79.8828L111.035-81.5918Q109.033-83.5938 106.714-83.4229Q104.395-83.252 102.197-81.0547L96.2402-75.2441Z"/>
  </g>
  <g id="Light-L" transform="matrix(1 0 0 1 1088.73 1556)">
   <path d="M29.4434 10.6445L102.1-61.9629L93.5059-70.6055L20.8496 1.95312L14.5996 14.6973Q14.3555 15.2344 14.5996 15.7715Q14.8438 16.3086 15.3564 16.5771Q15.8691 16.8457 16.4551 16.6016ZM106.836-66.6504L112.207-71.875Q114.258-73.9746 114.355-76.001Q114.453-78.0273 112.598-79.9316L111.426-81.0547Q109.619-82.8613 107.544-82.6904Q105.469-82.5195 103.516-80.5664L98.1934-75.3418Z"/>
  </g>
  <g id="Thin-L" transform="matrix(1 0 0 1 792.213 1556)">
   <path d="M27.7344 11.0352L103.369-64.502L96.6309-71.2402L21.0449 4.19922L14.5508 15.918Q14.3555 16.3574 14.5508 16.748Q14.7461 17.1387 15.1123 17.3096Q15.4785 17.4805 15.918 17.2852ZM107.52-68.6035L112.061-73.0469Q113.867-74.9512 113.965-76.6357Q114.062-78.3203 112.402-79.9316L111.963-80.4199Q110.449-81.8848 108.691-81.7383Q106.934-81.5918 105.225-79.8828L100.732-75.4395Z"/>
  </g>
  <g id="Ultralight-L" transform="matrix(1 0 0 1 495.624 1556)">
   <path d="M26.8555 11.2793L104.004-65.8203L98.2422-71.6309L21.0938 5.32227L14.5508 16.6016Q14.3555 16.9434 14.502 17.2607Q14.6484 17.5781 14.9658 17.7246Q15.2832 17.8711 15.625 17.6758ZM107.861-69.6289L111.963-73.6816Q113.672-75.4395 113.745-76.9531Q113.818-78.4668 112.305-79.9805L112.256-80.0293Q110.84-81.3965 109.253-81.25Q107.666-81.1035 106.104-79.541L102.051-75.5371Z"/>
  </g>
  <g id="Black-M" transform="matrix(1 0 0 1 2873.93 1126)">
   <path d="M29.834 7.17773L91.9434-55.0293L78.8086-68.1641L16.6992-5.95703L11.4258 8.20312Q10.6934 10.2539 12.2559 11.7188Q13.8184 13.1836 15.625 12.5ZM98.3398-61.4258L105.225-68.2617Q107.666-70.7031 107.739-73.4619Q107.812-76.2207 105.469-78.5645L102.441-81.6406Q100.098-84.0332 97.29-83.8867Q94.4824-83.7402 92.041-81.3477L85.2051-74.5605Z"/>
  </g>
  <g id="Heavy-M" transform="matrix(1 0 0 1 2579.41 1126)">
   <path d="M28.6133 5.46875L88.623-54.6387L76.5625-66.6992L16.5039-6.5918L11.4258 6.78711Q10.7422 8.54492 12.1094 9.83887Q13.4766 11.1328 15.0879 10.5469ZM94.5312-60.498L100.928-66.8945Q103.223-69.1895 103.32-71.7529Q103.418-74.3164 101.221-76.5137L98.5352-79.248Q96.3379-81.4453 93.7256-81.2988Q91.1133-81.1523 88.8184-78.9062L82.4219-72.5586Z"/>
  </g>
  <g id="Bold-M" transform="matrix(1 0 0 1 2285.17 1126)">
   <path d="M27.1973 3.51562L84.9121-54.1992L74.0723-65.0879L16.3574-7.32422L11.377 5.17578Q10.8398 6.64062 11.9873 7.76367Q13.1348 8.88672 14.4531 8.34961ZM90.2344-59.5215L96.1426-65.332Q98.291-67.5293 98.3887-69.8486Q98.4863-72.168 96.4844-74.2188L94.1406-76.5625Q92.1387-78.6133 89.7705-78.4668Q87.4023-78.3203 85.2539-76.2207L79.3457-70.3613Z"/>
  </g>
  <g id="Semibold-M" transform="matrix(1 0 0 1 1990.17 1126)">
   <path d="M26.2207 2.19727L82.3242-53.9062L72.3145-63.916L16.2109-7.8125L11.377 4.05273Q10.8887 5.32227 11.8652 6.29883Q12.8418 7.27539 14.0137 6.83594ZM87.3047-58.7891L92.8223-64.2578Q94.873-66.3574 94.9707-68.5303Q95.0684-70.7031 93.1641-72.6074L91.0645-74.707Q89.209-76.6113 87.0117-76.4648Q84.8145-76.3184 82.7637-74.3164L77.1973-68.8477Z"/>
  </g>
  <g id="Medium-M" transform="matrix(1 0 0 1 1694.75 1126)">
   <path d="M25.4883 1.17188L80.3711-53.6621L70.9961-63.0859L16.1133-8.20312L11.3281 3.22266Q10.9375 4.3457 11.792 5.22461Q12.6465 6.10352 13.7207 5.71289ZM85.0586-58.252L90.332-63.4766Q92.2852-65.4785 92.3828-67.5293Q92.4805-69.5801 90.6738-71.3867L88.7695-73.291Q87.0117-75.0977 84.9121-74.9512Q82.8125-74.8047 80.8594-72.9004L75.5859-67.6758Z"/>
  </g>
  <g id="Regular-M" transform="matrix(1 0 0 1 1399.72 1126)">
   <path d="M24.5605-0.146484L77.832-53.3691L69.2871-61.9629L15.9668-8.69141L11.3281 2.14844Q10.9863 3.02734 11.6943 3.78418Q12.4023 4.54102 13.2812 4.19922ZM82.1289-57.5684L87.0605-62.4023Q88.916-64.3066 89.0137-66.2109Q89.1113-68.1152 87.4512-69.8242L85.791-71.4844Q84.1309-73.1445 82.2021-72.998Q80.2734-72.8516 78.418-71.0449L73.4863-66.1621Z"/>
  </g>
  <g id="Light-M" transform="matrix(1 0 0 1 1103.13 1126)">
   <path d="M23.3887 0.146484L78.7109-55.0781L71.4355-62.4023L16.1133-7.17773L11.3281 3.02734Q11.0352 3.75977 11.6211 4.37012Q12.207 4.98047 12.9395 4.6875ZM82.5684-58.8867L86.9629-63.2324Q88.6719-64.9414 88.7451-66.626Q88.8184-68.3105 87.3535-69.873L86.1816-70.9961Q84.668-72.5098 82.959-72.3633Q81.25-72.2168 79.5898-70.6055L75.2441-66.2598Z"/>
  </g>
  <g id="Thin-M" transform="matrix(1 0 0 1 806.593 1126)">
   <path d="M21.875 0.537109L79.834-57.373L74.2676-63.0371L16.2598-5.17578L11.3281 4.15039Q11.0352 4.73633 11.499 5.17578Q11.9629 5.61523 12.4512 5.32227ZM83.2031-60.6445L86.8652-64.3066Q88.3301-65.8203 88.4033-67.1875Q88.4766-68.5547 87.1582-69.873L86.6699-70.4102Q85.4492-71.6309 84.0088-71.5088Q82.5684-71.3867 81.2012-69.9707L77.5391-66.3574Z"/>
  </g>
  <g id="Ultralight-M" transform="matrix(1 0 0 1 509.98 1126)">
   <path d="M21.0938 0.732422L80.4199-58.5449L75.6836-63.3301L16.3574-4.15039L11.3281 4.73633Q11.084 5.22461 11.4502 5.56641Q11.8164 5.9082 12.2559 5.66406ZM83.4961-61.5723L86.8164-64.8438Q88.1836-66.2598 88.2324-67.4805Q88.2812-68.7012 87.1094-69.9219L86.9141-70.0684Q85.791-71.1914 84.4971-71.0693Q83.2031-70.9473 81.9824-69.6777L78.7109-66.4551Z"/>
  </g>
  <g id="Black-S" transform="matrix(1 0 0 1 2886.13 696)">
   <path d="M23.6816-1.46484L73.0957-50.9766L62.5488-61.5234L13.1348-12.0117L8.98438-0.732422Q8.34961 0.927734 9.64355 2.12402Q10.9375 3.32031 12.4023 2.7832ZM78.2715-56.1035L83.7402-61.5723Q85.6445-63.5254 85.7178-65.7227Q85.791-67.9199 83.9355-69.8242L81.4941-72.3145Q79.5898-74.2188 77.3438-74.0967Q75.0977-73.9746 73.1934-72.0703L67.7246-66.6504Z"/>
  </g>
  <g id="Heavy-S" transform="matrix(1 0 0 1 2591.3 696)">
   <path d="M22.7539-2.97852L70.1172-50.3906L60.3516-60.2051L12.9883-12.7441L8.98438-2.05078Q8.39844-0.634766 9.5459 0.439453Q10.6934 1.51367 11.9629 1.07422ZM74.9512-55.127L80.0781-60.3027Q81.8848-62.1582 81.958-64.209Q82.0312-66.2598 80.3223-68.0664L78.0762-70.3125Q76.2695-72.1191 74.1943-71.9971Q72.1191-71.875 70.2637-70.0684L65.1367-64.9414Z"/>
  </g>
  <g id="Bold-S" transform="matrix(1 0 0 1 2296.67 696)">
   <path d="M21.7285-4.6875L66.8457-49.8047L57.9102-58.7402L12.793-13.623L8.93555-3.56445Q8.49609-2.34375 9.44824-1.41602Q10.4004-0.488281 11.5234-0.878906ZM71.1914-54.1016L75.9766-58.8867Q77.7344-60.5957 77.8076-62.5Q77.8809-64.4043 76.2695-66.0645L74.2676-68.1152Q72.6074-69.7266 70.6787-69.6045Q68.75-69.4824 67.041-67.8223L62.207-63.0371Z"/>
  </g>
  <g id="Semibold-S" transform="matrix(1 0 0 1 2001.42 696)">
   <path d="M20.9961-5.81055L64.5508-49.3652L56.2012-57.7148L12.6465-14.1602L8.93555-4.54102Q8.49609-3.51562 9.32617-2.68555Q10.1562-1.85547 11.1816-2.19727ZM68.6035-53.3203L73.1445-57.8613Q74.8047-59.5215 74.8779-61.3281Q74.9512-63.1348 73.4375-64.6973L71.6309-66.5527Q70.0684-68.1152 68.2617-67.9932Q66.4551-67.8711 64.7461-66.2598L60.2051-61.7188Z"/>
  </g>
  <g id="Medium-S" transform="matrix(1 0 0 1 1705.81 696)">
   <path d="M20.459-6.68945L62.793-49.0234L54.8828-56.9336L12.5977-14.5996L8.88672-5.32227Q8.54492-4.44336 9.27734-3.68652Q10.0098-2.92969 10.9375-3.22266ZM66.6504-52.7832L70.9961-57.1289Q72.6074-58.7402 72.6807-60.4492Q72.7539-62.1582 71.3379-63.6719L69.6289-65.3809Q68.1152-66.8457 66.4062-66.7236Q64.6973-66.6016 63.0859-65.0391L58.6914-60.7422Z"/>
  </g>
  <g id="Regular-S" transform="matrix(1 0 0 1 1410.51 696)">
   <path d="M19.7754-7.86133L60.5469-48.584L53.2227-55.9082L12.4512-15.1855L8.88672-6.34766Q8.59375-5.61523 9.2041-4.95605Q9.81445-4.29688 10.5957-4.54102ZM64.1113-52.0508L68.2129-56.1523Q69.7754-57.666 69.8486-59.2773Q69.9219-60.8887 68.5547-62.3047L67.041-63.8672Q65.625-65.2344 64.0137-65.1123Q62.4023-64.9902 60.8398-63.5254L56.6895-59.4238Z"/>
  </g>
  <g id="Light-S" transform="matrix(1 0 0 1 1113.92 696)">
   <path d="M18.75-7.61719L61.2793-50.0977L55.127-56.3477L12.5488-13.8184L8.88672-5.61523Q8.64258-4.98047 9.13086-4.44336Q9.61914-3.90625 10.2539-4.10156ZM64.502-53.2227L68.1641-56.8848Q69.5801-58.252 69.6289-59.668Q69.6777-61.084 68.457-62.3535L67.3828-63.4277Q66.1133-64.6484 64.6973-64.5508Q63.2812-64.4531 61.9141-63.1348L58.252-59.5215Z"/>
  </g>
  <g id="Thin-S" transform="matrix(1 0 0 1 817.36 696)">
   <path d="M17.4316-7.27539L62.3047-52.1484L57.6172-56.8848L12.6953-12.0605L8.83789-4.58984Q8.64258-4.15039 9.00879-3.75977Q9.375-3.36914 9.86328-3.56445ZM65.0391-54.834L68.0664-57.8125Q69.2871-58.9844 69.3115-60.1562Q69.3359-61.3281 68.3105-62.3535L67.8223-62.8906Q66.7969-63.916 65.625-63.7939Q64.4531-63.6719 63.2812-62.5977L60.2539-59.6191Z"/>
  </g>
  <g id="Ultralight-S" transform="matrix(1 0 0 1 520.722 696)">
   <path d="M16.748-7.12891L62.793-53.1738L58.8867-57.1777L12.793-11.1328L8.83789-4.10156Q8.69141-3.71094 8.98438-3.41797Q9.27734-3.125 9.61914-3.27148ZM65.332-55.6152L68.0176-58.3008Q69.1406-59.375 69.165-60.4004Q69.1895-61.4258 68.2129-62.4023L68.0176-62.5977Q67.1387-63.5254 66.0889-63.4277Q65.0391-63.3301 64.0137-62.3047L61.3281-59.668Z"/>
  </g>
 </g>
</svg>
