<?xml version="1.0" encoding="UTF-8"?>
<!--Generator: Apple Native CoreSVG 149-->
<!DOCTYPE svg
PUBLIC "-//W3C//DTD SVG 1.1//EN"
       "http://www.w3.org/Graphics/SVG/1.1/DTD/svg11.dtd">
<svg version="1.1" xmlns="http://www.w3.org/2000/svg" xmlns:xlink="http://www.w3.org/1999/xlink" width="3300" height="2200">
 <!--glyph: "uni100187.medium", point size: 100.000000, font version: "Version 16.0d18e1", template writer version: "8"-->
 <g id="Notes">
  <rect height="2200" id="artboard" style="fill:white;opacity:1" width="3300" x="0" y="0"/>
  <line id="" style="fill:none;stroke:black;opacity:1;stroke-width:0.5;" x1="263" x2="3036" y1="292" y2="292"/>
  <text style="stroke:none;fill:black;font-family:-apple-system,&quot;SF Pro Display&quot;,&quot;SF Pro Text&quot;,Helvetica,sans-serif;font-weight:bold;" transform="matrix(1 0 0 1 263 322)">Weight/Scale Variations</text>
  <text style="stroke:none;fill:black;font-family:-apple-system,&quot;SF Pro Display&quot;,&quot;SF Pro Text&quot;,Helvetica,sans-serif;text-anchor:middle;" transform="matrix(1 0 0 1 559.711 322)">Ultralight</text>
  <text style="stroke:none;fill:black;font-family:-apple-system,&quot;SF Pro Display&quot;,&quot;SF Pro Text&quot;,Helvetica,sans-serif;text-anchor:middle;" transform="matrix(1 0 0 1 856.422 322)">Thin</text>
  <text style="stroke:none;fill:black;font-family:-apple-system,&quot;SF Pro Display&quot;,&quot;SF Pro Text&quot;,Helvetica,sans-serif;text-anchor:middle;" transform="matrix(1 0 0 1 1153.13 322)">Light</text>
  <text style="stroke:none;fill:black;font-family:-apple-system,&quot;SF Pro Display&quot;,&quot;SF Pro Text&quot;,Helvetica,sans-serif;text-anchor:middle;" transform="matrix(1 0 0 1 1449.84 322)">Regular</text>
  <text style="stroke:none;fill:black;font-family:-apple-system,&quot;SF Pro Display&quot;,&quot;SF Pro Text&quot;,Helvetica,sans-serif;text-anchor:middle;" transform="matrix(1 0 0 1 1746.56 322)">Medium</text>
  <text style="stroke:none;fill:black;font-family:-apple-system,&quot;SF Pro Display&quot;,&quot;SF Pro Text&quot;,Helvetica,sans-serif;text-anchor:middle;" transform="matrix(1 0 0 1 2043.27 322)">Semibold</text>
  <text style="stroke:none;fill:black;font-family:-apple-system,&quot;SF Pro Display&quot;,&quot;SF Pro Text&quot;,Helvetica,sans-serif;text-anchor:middle;" transform="matrix(1 0 0 1 2339.98 322)">Bold</text>
  <text style="stroke:none;fill:black;font-family:-apple-system,&quot;SF Pro Display&quot;,&quot;SF Pro Text&quot;,Helvetica,sans-serif;text-anchor:middle;" transform="matrix(1 0 0 1 2636.69 322)">Heavy</text>
  <text style="stroke:none;fill:black;font-family:-apple-system,&quot;SF Pro Display&quot;,&quot;SF Pro Text&quot;,Helvetica,sans-serif;text-anchor:middle;" transform="matrix(1 0 0 1 2933.4 322)">Black</text>
  <line id="" style="fill:none;stroke:black;opacity:1;stroke-width:0.5;" x1="263" x2="3036" y1="1903" y2="1903"/>
  <g id="" transform="matrix(1 0 0 1 263 1933)">
   <path d="M9.24805 0.830078C13.5547 0.830078 17.1387-2.74414 17.1387-7.05078C17.1387-11.3574 13.5449-14.9316 9.23828-14.9316C4.94141-14.9316 1.36719-11.3574 1.36719-7.05078C1.36719-2.74414 4.95117 0.830078 9.24805 0.830078ZM9.24805-0.654297C5.70312-0.654297 2.87109-3.49609 2.87109-7.05078C2.87109-10.6055 5.69336-13.4473 9.23828-13.4473C12.793-13.4473 15.6348-10.6055 15.6445-7.05078C15.6543-3.49609 12.8027-0.654297 9.24805-0.654297ZM6.39648-6.31836L8.50586-6.31836L8.50586-4.19922C8.50586-3.75977 8.79883-3.45703 9.22852-3.45703C9.67773-3.45703 9.9707-3.75977 9.9707-4.19922L9.9707-6.31836L12.0996-6.31836C12.5391-6.31836 12.8418-6.61133 12.8418-7.04102C12.8418-7.48047 12.5391-7.7832 12.0996-7.7832L9.9707-7.7832L9.9707-9.89258C9.9707-10.3418 9.67773-10.6445 9.22852-10.6445C8.79883-10.6445 8.50586-10.3418 8.50586-9.89258L8.50586-7.7832L6.39648-7.7832C5.94727-7.7832 5.64453-7.48047 5.64453-7.04102C5.64453-6.61133 5.94727-6.31836 6.39648-6.31836Z"/>
  </g>
  <g id="" transform="matrix(1 0 0 1 281.506 1933)">
   <path d="M11.709 2.91016C17.1582 2.91016 21.6699-1.61133 21.6699-7.05078C21.6699-12.5 17.1484-17.0117 11.6992-17.0117C6.25977-17.0117 1.74805-12.5 1.74805-7.05078C1.74805-1.61133 6.26953 2.91016 11.709 2.91016ZM11.709 1.25C7.09961 1.25 3.41797-2.44141 3.41797-7.05078C3.41797-11.6602 7.08984-15.3516 11.6992-15.3516C16.3086-15.3516 20-11.6602 20.0098-7.05078C20.0195-2.44141 16.3184 1.25 11.709 1.25ZM7.98828-6.23047L10.8789-6.23047L10.8789-3.32031C10.8789-2.83203 11.2109-2.5 11.6895-2.5C12.1777-2.5 12.5195-2.83203 12.5195-3.32031L12.5195-6.23047L15.4297-6.23047C15.918-6.23047 16.25-6.5625 16.25-7.04102C16.25-7.5293 15.918-7.87109 15.4297-7.87109L12.5195-7.87109L12.5195-10.7617C12.5195-11.2695 12.1777-11.6016 11.6895-11.6016C11.2109-11.6016 10.8789-11.2598 10.8789-10.7617L10.8789-7.87109L7.98828-7.87109C7.48047-7.87109 7.14844-7.5293 7.14844-7.04102C7.14844-6.5625 7.49023-6.23047 7.98828-6.23047Z"/>
  </g>
  <g id="" transform="matrix(1 0 0 1 304.924 1933)">
   <path d="M14.9707 5.66406C21.9336 5.66406 27.6953-0.0976562 27.6953-7.05078C27.6953-14.0137 21.9238-19.7754 14.9609-19.7754C8.00781-19.7754 2.25586-14.0137 2.25586-7.05078C2.25586-0.0976562 8.01758 5.66406 14.9707 5.66406ZM14.9707 3.84766C8.93555 3.84766 4.08203-1.01562 4.08203-7.05078C4.08203-13.0957 8.92578-17.9492 14.9609-17.9492C21.0059-17.9492 25.8594-13.0957 25.8691-7.05078C25.8789-1.01562 21.0156 3.84766 14.9707 3.84766ZM10.0586-6.14258L14.0625-6.14258L14.0625-2.12891C14.0625-1.5918 14.4336-1.2207 14.9512-1.2207C15.4883-1.2207 15.8594-1.5918 15.8594-2.12891L15.8594-6.14258L19.8828-6.14258C20.4102-6.14258 20.791-6.51367 20.791-7.03125C20.791-7.56836 20.4199-7.94922 19.8828-7.94922L15.8594-7.94922L15.8594-11.9531C15.8594-12.5098 15.4883-12.8809 14.9512-12.8809C14.4336-12.8809 14.0625-12.5 14.0625-11.9531L14.0625-7.94922L10.0586-7.94922C9.50195-7.94922 9.13086-7.56836 9.13086-7.03125C9.13086-6.51367 9.51172-6.14258 10.0586-6.14258Z"/>
  </g>
  <text style="stroke:none;fill:black;font-family:-apple-system,&quot;SF Pro Display&quot;,&quot;SF Pro Text&quot;,Helvetica,sans-serif;font-weight:bold;" transform="matrix(1 0 0 1 263 1953)">Design Variations</text>
  <text style="stroke:none;fill:black;font-family:-apple-system,&quot;SF Pro Display&quot;,&quot;SF Pro Text&quot;,Helvetica,sans-serif;" transform="matrix(1 0 0 1 263 1971)">Symbols are supported in up to nine weights and three scales.</text>
  <text style="stroke:none;fill:black;font-family:-apple-system,&quot;SF Pro Display&quot;,&quot;SF Pro Text&quot;,Helvetica,sans-serif;" transform="matrix(1 0 0 1 263 1989)">For optimal layout with text and other symbols, vertically align</text>
  <text style="stroke:none;fill:black;font-family:-apple-system,&quot;SF Pro Display&quot;,&quot;SF Pro Text&quot;,Helvetica,sans-serif;" transform="matrix(1 0 0 1 263 2007)">symbols with the adjacent text.</text>
  <line id="" style="fill:none;stroke:#00AEEF;stroke-width:0.5;opacity:1.0;" x1="776" x2="776" y1="1919" y2="1933"/>
  <g id="" transform="matrix(1 0 0 1 776 1933)">
   <path d="M3.31055 0.126953C3.82812 0.126953 4.08203-0.0683594 4.26758-0.605469L5.52734-4.0625L11.2891-4.0625L12.5488-0.605469C12.7344-0.0683594 12.9883 0.126953 13.4961 0.126953C14.0137 0.126953 14.3457-0.185547 14.3457-0.673828C14.3457-0.839844 14.3164-0.986328 14.2383-1.20117L9.6582-13.3887C9.43359-13.9941 9.0332-14.2871 8.4082-14.2871C7.80273-14.2871 7.39258-13.9941 7.17773-13.3984L2.59766-1.19141C2.51953-0.976562 2.49023-0.830078 2.49023-0.664062C2.49023-0.175781 2.80273 0.126953 3.31055 0.126953ZM6.00586-5.53711L8.37891-12.1094L8.42773-12.1094L10.8008-5.53711Z"/>
  </g>
  <line id="" style="fill:none;stroke:#00AEEF;stroke-width:0.5;opacity:1.0;" x1="792.836" x2="792.836" y1="1919" y2="1933"/>
  <text style="stroke:none;fill:black;font-family:-apple-system,&quot;SF Pro Display&quot;,&quot;SF Pro Text&quot;,Helvetica,sans-serif;font-weight:bold;" transform="matrix(1 0 0 1 776 1953)">Margins</text>
  <text style="stroke:none;fill:black;font-family:-apple-system,&quot;SF Pro Display&quot;,&quot;SF Pro Text&quot;,Helvetica,sans-serif;" transform="matrix(1 0 0 1 776 1971)">Leading and trailing margins on the left and right side of each symbol</text>
  <text style="stroke:none;fill:black;font-family:-apple-system,&quot;SF Pro Display&quot;,&quot;SF Pro Text&quot;,Helvetica,sans-serif;" transform="matrix(1 0 0 1 776 1989)">can be adjusted by modifying the x-location of the margin guidelines.</text>
  <text style="stroke:none;fill:black;font-family:-apple-system,&quot;SF Pro Display&quot;,&quot;SF Pro Text&quot;,Helvetica,sans-serif;" transform="matrix(1 0 0 1 776 2007)">Modifications are automatically applied proportionally to all</text>
  <text style="stroke:none;fill:black;font-family:-apple-system,&quot;SF Pro Display&quot;,&quot;SF Pro Text&quot;,Helvetica,sans-serif;" transform="matrix(1 0 0 1 776 2025)">scales and weights.</text>
  <g id="" transform="matrix(1 0 0 1 1289 1933)">
   <path d="M2.8418 1.86523L4.54102 3.57422C5.40039 4.44336 6.38672 4.38477 7.31445 3.35938L17.4902-7.85156C17.7539-7.76367 18.0273-7.7832 18.3398-7.8418L19.4043-8.03711L20.0684-7.36328L20.0293-6.80664C19.9902-6.30859 20.1172-5.92773 20.6055-5.44922L21.3672-4.70703C21.8457-4.22852 22.4609-4.19922 22.9297-4.66797L25.8398-7.58789C26.3086-8.05664 26.2891-8.65234 25.8105-9.13086L25.0391-9.89258C24.5605-10.3711 24.1895-10.5273 23.7109-10.4883L23.1348-10.4395L22.4902-11.0742L22.7344-12.1973C22.8613-12.7637 22.7051-13.2031 22.1191-13.7891L19.9219-15.9766C16.582-19.2969 12.1484-19.2188 9.25781-16.3281C8.83789-15.918 8.80859-15.3418 9.04297-14.9512C9.27734-14.5898 9.73633-14.3555 10.3809-14.5215C11.8457-14.8633 13.3691-14.9219 14.7949-13.9844L14.209-12.5293C14.0137-12.0508 13.9844-11.6504 14.1113-11.2891L3.04688-0.898438C2.06055 0.0195312 1.98242 0.996094 2.8418 1.86523ZM10.752-15.957C13.1836-17.7344 16.4746-17.4316 18.7012-15.2051L21.1328-12.793C21.3672-12.5586 21.4062-12.373 21.3379-12.0312L21.0156-10.5469L22.5195-9.0625L23.5059-9.12109C23.7598-9.13086 23.8379-9.11133 24.0332-8.91602L24.6094-8.33984L22.168-5.89844L21.5918-6.47461C21.3965-6.66992 21.3672-6.74805 21.377-7.01172L21.4453-7.98828L19.9512-9.47266L18.4277-9.21875C18.1055-9.15039 17.959-9.17969 17.7148-9.41406L15.7129-11.416C15.459-11.6504 15.4297-11.8164 15.5859-12.1875L16.4648-14.2773C14.9023-15.7324 12.8711-16.3574 10.8398-15.7617C10.6836-15.7227 10.625-15.8496 10.752-15.957ZM5.27344 2.30469L4.10156 1.14258C3.63281 0.683594 3.74023 0.341797 4.14062-0.0195312L14.9512-10.1953L16.416-8.71094L6.42578 2.27539C6.07422 2.67578 5.74219 2.77344 5.27344 2.30469Z"/>
  </g>
  <text style="stroke:none;fill:black;font-family:-apple-system,&quot;SF Pro Display&quot;,&quot;SF Pro Text&quot;,Helvetica,sans-serif;font-weight:bold;" transform="matrix(1 0 0 1 1289 1953)">Exporting</text>
  <text style="stroke:none;fill:black;font-family:-apple-system,&quot;SF Pro Display&quot;,&quot;SF Pro Text&quot;,Helvetica,sans-serif;" transform="matrix(1 0 0 1 1289 1971)">Symbols should be outlined when exporting to ensure the</text>
  <text style="stroke:none;fill:black;font-family:-apple-system,&quot;SF Pro Display&quot;,&quot;SF Pro Text&quot;,Helvetica,sans-serif;" transform="matrix(1 0 0 1 1289 1989)">design is preserved when submitting to Xcode.</text>
  <text id="template-version" style="stroke:none;fill:black;font-family:-apple-system,&quot;SF Pro Display&quot;,&quot;SF Pro Text&quot;,Helvetica,sans-serif;text-anchor:end;" transform="matrix(1 0 0 1 3036 1933)">Template v.2.0</text>
  <text style="stroke:none;fill:black;font-family:-apple-system,&quot;SF Pro Display&quot;,&quot;SF Pro Text&quot;,Helvetica,sans-serif;text-anchor:end;" transform="matrix(1 0 0 1 3036 1951)">Requires Xcode 12 or greater</text>
  <text style="stroke:none;fill:black;font-family:-apple-system,&quot;SF Pro Display&quot;,&quot;SF Pro Text&quot;,Helvetica,sans-serif;text-anchor:end;" transform="matrix(1 0 0 1 3036 1969)">Generated from chevron.up</text>
  <text style="stroke:none;fill:black;font-family:-apple-system,&quot;SF Pro Display&quot;,&quot;SF Pro Text&quot;,Helvetica,sans-serif;text-anchor:end;" transform="matrix(1 0 0 1 3036 1987)">Typeset at 100 points</text>
  <text style="stroke:none;fill:black;font-family:-apple-system,&quot;SF Pro Display&quot;,&quot;SF Pro Text&quot;,Helvetica,sans-serif;" transform="matrix(1 0 0 1 263 726)">Small</text>
  <text style="stroke:none;fill:black;font-family:-apple-system,&quot;SF Pro Display&quot;,&quot;SF Pro Text&quot;,Helvetica,sans-serif;" transform="matrix(1 0 0 1 263 1156)">Medium</text>
  <text style="stroke:none;fill:black;font-family:-apple-system,&quot;SF Pro Display&quot;,&quot;SF Pro Text&quot;,Helvetica,sans-serif;" transform="matrix(1 0 0 1 263 1586)">Large</text>
 </g>
 <g id="Guides">
  <g id="H-reference" style="fill:#27AAE1;stroke:none;" transform="matrix(1 0 0 1 339 696)">
   <path d="M0.976562 0L3.66211 0L12.9883-24.4629L45.752-24.4629L55.127 0L57.7637 0L30.6152-70.459L28.125-70.459ZM29.3457-67.1387L29.4434-67.1387L44.873-26.709L13.8672-26.709Z"/>
  </g>
  <line id="Baseline-S" style="fill:none;stroke:#27AAE1;opacity:1;stroke-width:0.5;" x1="263" x2="3036" y1="696" y2="696"/>
  <line id="Capline-S" style="fill:none;stroke:#27AAE1;opacity:1;stroke-width:0.5;" x1="263" x2="3036" y1="625.541" y2="625.541"/>
  <g id="H-reference" style="fill:#27AAE1;stroke:none;" transform="matrix(1 0 0 1 339 1126)">
   <path d="M0.976562 0L3.66211 0L12.9883-24.4629L45.752-24.4629L55.127 0L57.7637 0L30.6152-70.459L28.125-70.459ZM29.3457-67.1387L29.4434-67.1387L44.873-26.709L13.8672-26.709Z"/>
  </g>
  <line id="Baseline-M" style="fill:none;stroke:#27AAE1;opacity:1;stroke-width:0.5;" x1="263" x2="3036" y1="1126" y2="1126"/>
  <line id="Capline-M" style="fill:none;stroke:#27AAE1;opacity:1;stroke-width:0.5;" x1="263" x2="3036" y1="1055.54" y2="1055.54"/>
  <g id="H-reference" style="fill:#27AAE1;stroke:none;" transform="matrix(1 0 0 1 339 1556)">
   <path d="M0.976562 0L3.66211 0L12.9883-24.4629L45.752-24.4629L55.127 0L57.7637 0L30.6152-70.459L28.125-70.459ZM29.3457-67.1387L29.4434-67.1387L44.873-26.709L13.8672-26.709Z"/>
  </g>
  <line id="Baseline-L" style="fill:none;stroke:#27AAE1;opacity:1;stroke-width:0.5;" x1="263" x2="3036" y1="1556" y2="1556"/>
  <line id="Capline-L" style="fill:none;stroke:#27AAE1;opacity:1;stroke-width:0.5;" x1="263" x2="3036" y1="1485.54" y2="1485.54"/>
  <line id="left-margin" style="fill:none;stroke:#00AEEF;stroke-width:0.5;opacity:1.0;" x1="1394.99" x2="1394.99" y1="1030.79" y2="1150.12"/>
  <line id="right-margin" style="fill:none;stroke:#00AEEF;stroke-width:0.5;opacity:1.0;" x1="1504.7" x2="1504.7" y1="1030.79" y2="1150.12"/>
 </g>
 <g id="Symbols">
  <g id="Black-L" transform="matrix(1 0 0 1 2857.5 1556)">
   <path d="M19.6289-21.9238L65.1855-68.2129C68.5547-71.6309 71.875-73.1445 75.9277-73.1445C80.0781-73.0469 83.3008-71.582 86.6699-68.2129L132.129-21.9238C134.619-19.5312 135.742-16.6504 135.742-13.1348C135.742-6.05469 129.932-0.195312 122.998-0.195312C119.482-0.195312 116.162-1.61133 113.525-4.44336L76.0254-43.1641L38.3301-4.44336C35.6934-1.66016 32.373-0.195312 28.8086-0.195312C21.8262-0.195312 16.0645-6.05469 16.0645-13.1348C16.0645-16.5527 17.2363-19.4336 19.6289-21.9238Z"/>
  </g>
  <g id="Heavy-L" transform="matrix(1 0 0 1 2562.32 1556)">
   <path d="M19.1406-20.459L65.2832-67.627C68.1152-70.5078 70.9473-71.7773 74.3652-71.7773C77.8809-71.7285 80.6641-70.459 83.4473-67.627L129.59-20.459C131.689-18.3594 132.666-15.8691 132.666-12.8906C132.666-6.83594 127.734-1.85547 121.777-1.85547C118.799-1.85547 115.967-3.07617 113.721-5.41992L74.4629-46.0938L35.0586-5.41992C32.8125-3.125 29.9805-1.85547 26.9531-1.85547C20.9961-1.85547 16.0645-6.83594 16.0645-12.8906C16.0645-15.8203 17.0898-18.3105 19.1406-20.459Z"/>
  </g>
  <g id="Bold-L" transform="matrix(1 0 0 1 2267.32 1556)">
   <path d="M18.6035-18.75L65.4297-66.9922C67.627-69.2383 69.9219-70.2637 72.6562-70.2637C75.4395-70.2148 77.7344-69.1895 79.8828-66.9922L126.709-18.75C128.369-17.0898 129.248-15.0391 129.248-12.5977C129.248-7.66602 125.293-3.71094 120.41-3.71094C118.018-3.71094 115.723-4.6875 113.965-6.54297L72.7051-49.3164L31.3477-6.54297C29.5898-4.6875 27.3438-3.71094 24.8535-3.71094C20.0195-3.71094 16.0645-7.66602 16.0645-12.5977C16.0645-15.0391 16.9434-17.0898 18.6035-18.75Z"/>
  </g>
  <g id="Semibold-L" transform="matrix(1 0 0 1 1971.81 1556)">
   <path d="M18.2129-17.627L65.5273-66.5527C67.2852-68.3594 69.1895-69.2383 71.4355-69.2383C73.7305-69.1895 75.6836-68.3105 77.4414-66.5039L124.707-17.5781C126.123-16.2109 126.855-14.502 126.855-12.4512C126.855-8.30078 123.584-4.98047 119.482-4.98047C117.48-4.98047 115.527-5.76172 114.111-7.27539L71.4844-51.5625L28.8086-7.27539C27.3926-5.81055 25.4883-4.98047 23.4375-4.98047C19.3359-4.98047 16.0645-8.30078 16.0645-12.4512C16.0645-14.4531 16.8457-16.2109 18.2129-17.627Z"/>
  </g>
  <g id="Medium-L" transform="matrix(1 0 0 1 1676 1556)">
   <path d="M17.9199-16.748L65.5762-66.1621C67.041-67.6758 68.6523-68.4082 70.5566-68.4082C72.4609-68.4082 74.1699-67.627 75.5371-66.1621L123.242-16.6992C124.414-15.5273 125.049-14.0625 125.049-12.3047C125.049-8.74023 122.314-5.95703 118.75-5.95703C117.09-5.95703 115.381-6.64062 114.209-7.86133L70.6055-53.2227L26.9043-7.86133C25.7324-6.64062 24.0723-5.95703 22.3633-5.95703C18.8477-5.95703 16.0645-8.74023 16.0645-12.3047C16.0645-14.0625 16.748-15.5273 17.9199-16.748Z"/>
  </g>
  <g id="Regular-L" transform="matrix(1 0 0 1 1380.46 1556)">
   <path d="M17.5293-15.5762L65.6738-65.7227C66.6992-66.7969 67.9688-67.3828 69.3848-67.3828C70.8008-67.3828 72.1191-66.748 73.0957-65.7227L121.24-15.5762C122.168-14.6484 122.705-13.4766 122.705-12.1094C122.705-9.32617 120.605-7.22656 117.822-7.22656C116.553-7.22656 115.234-7.71484 114.355-8.64258L69.3848-55.4199L24.3652-8.64258C23.5352-7.71484 22.2656-7.22656 20.9473-7.22656C18.1641-7.22656 16.0645-9.32617 16.0645-12.1094C16.0645-13.4766 16.6504-14.6973 17.5293-15.5762Z"/>
  </g>
  <g id="Light-L" transform="matrix(1 0 0 1 1085.65 1556)">
   <path d="M17.2363-13.916L64.4531-64.4043C65.332-65.2832 66.3086-65.7715 67.4316-65.7715C68.6035-65.7715 69.6777-65.1855 70.459-64.3555L117.773-13.8672C118.457-13.1836 118.896-12.3535 118.896-11.2793C118.896-9.22852 117.285-7.66602 115.234-7.66602C114.258-7.66602 113.281-7.95898 112.598-8.69141L67.4805-56.7871L22.3145-8.69141C21.6797-7.95898 20.7031-7.66602 19.7266-7.66602C17.6758-7.66602 16.0645-9.22852 16.0645-11.2793C16.0645-12.3535 16.5527-13.2324 17.2363-13.916Z"/>
  </g>
  <g id="Thin-L" transform="matrix(1 0 0 1 791.481 1556)">
   <path d="M16.7969-11.7188L62.8906-62.5977C63.5254-63.2324 64.1113-63.6719 64.8926-63.6719C65.7227-63.6719 66.4062-63.1348 66.9922-62.5488L113.135-11.6699C113.525-11.1816 113.818-10.8398 113.818-10.2051C113.818-9.08203 112.939-8.20312 111.816-8.20312C111.279-8.20312 110.693-8.30078 110.303-8.74023L64.9902-58.6426L19.5312-8.74023C19.1895-8.30078 18.6035-8.20312 18.1152-8.20312C16.9922-8.20312 16.0645-9.08203 16.0645-10.2051C16.0645-10.8398 16.4062-11.2793 16.7969-11.7188Z"/>
  </g>
  <g id="Ultralight-L" transform="matrix(1 0 0 1 496.064 1556)">
   <path d="M16.6016-10.5957L62.0605-61.6699C62.5977-62.207 62.9883-62.5488 63.623-62.5488C64.2578-62.5488 64.6973-62.1094 65.2344-61.6211L110.791-10.498C111.035-10.1562 111.23-10.0586 111.23-9.66797C111.23-9.0332 110.693-8.44727 110.01-8.44727C109.717-8.44727 109.375-8.49609 109.082-8.74023L63.6719-59.6191L18.1152-8.74023C17.9688-8.49609 17.5781-8.44727 17.2852-8.44727C16.6016-8.44727 16.0645-9.0332 16.0645-9.66797C16.0645-10.0586 16.3574-10.2539 16.6016-10.5957Z"/>
  </g>
  <g id="Black-M" transform="matrix(1 0 0 1 2873.54 1126)">
   <path d="M15.7227-26.0742L49.707-60.8887C53.0273-64.1602 56.0547-65.5762 59.9121-65.5762C63.8184-65.5273 66.7969-64.1113 70.0684-60.8887L104.004-26.0742C106.299-23.7793 107.275-21.1914 107.275-17.9688C107.275-11.4746 101.904-6.05469 95.5566-6.05469C92.334-6.05469 89.3066-7.37305 86.7676-10.0586L60.0098-38.2324L33.0566-10.0586C30.5176-7.42188 27.4902-6.05469 24.2188-6.05469C17.8223-6.05469 12.4512-11.4746 12.4512-17.9688C12.4512-21.1426 13.5254-23.7305 15.7227-26.0742Z"/>
  </g>
  <g id="Heavy-M" transform="matrix(1 0 0 1 2578 1126)">
   <path d="M15.2832-24.8535L50.1465-60.5957C52.8809-63.3301 55.4688-64.502 58.6914-64.502C62.0117-64.4531 64.5508-63.2812 67.2852-60.5957L102.1-24.8535C104.053-22.9492 104.932-20.7031 104.932-17.9199C104.932-12.3535 100.391-7.76367 94.9219-7.76367C92.1387-7.76367 89.5508-8.88672 87.4512-11.1328L58.7891-41.0156L29.9805-11.1328C27.8809-8.93555 25.293-7.76367 22.4609-7.76367C16.9922-7.76367 12.4512-12.3535 12.4512-17.9199C12.4512-20.6543 13.3789-22.9004 15.2832-24.8535Z"/>
  </g>
  <g id="Bold-M" transform="matrix(1 0 0 1 2282.6 1126)">
   <path d="M14.7461-23.5352L50.6348-60.2539C52.7344-62.3535 54.834-63.3301 57.373-63.3301C59.9609-63.2812 62.0605-62.3535 64.1113-60.2539L100-23.4863C101.562-21.9727 102.295-20.1172 102.295-17.8711C102.295-13.3789 98.6328-9.66797 94.1895-9.66797C91.9922-9.66797 89.8438-10.5469 88.1836-12.3047L57.4219-44.1895L26.5625-12.3047C24.9023-10.5957 22.8027-9.66797 20.5566-9.66797C16.1133-9.66797 12.4512-13.3789 12.4512-17.8711C12.4512-20.0684 13.2324-21.9238 14.7461-23.5352Z"/>
  </g>
  <g id="Semibold-M" transform="matrix(1 0 0 1 1986.8 1126)">
   <path d="M14.4043-22.5586L50.9766-60.0586C52.6367-61.7188 54.3945-62.5 56.4453-62.5C58.5449-62.5 60.3516-61.6699 61.9629-60.0098L98.5352-22.5586C99.8047-21.2891 100.488-19.7266 100.488-17.8223C100.488-14.0625 97.4609-10.9863 93.7012-10.9863C91.8457-10.9863 90.0391-11.7188 88.7207-13.1348L56.4941-46.3379L24.2188-13.1348C22.8516-11.7676 21.1426-10.9863 19.2383-10.9863C15.4785-10.9863 12.4512-14.0625 12.4512-17.8223C12.4512-19.6777 13.1348-21.2891 14.4043-22.5586Z"/>
  </g>
  <g id="Medium-M" transform="matrix(1 0 0 1 1690.79 1126)">
   <path d="M14.1113-21.875L51.2695-59.8633C52.5391-61.2305 54.0527-61.8652 55.7617-61.8652C57.4707-61.8652 59.0332-61.1816 60.3027-59.8633L97.4121-21.875C98.4863-20.8008 99.0723-19.4336 99.0723-17.8223C99.0723-14.5508 96.5332-12.0117 93.3105-12.0117C91.748-12.0117 90.2344-12.5977 89.1113-13.7695L55.8105-47.998L22.4121-13.7695C21.3379-12.6465 19.8242-12.0117 18.2129-12.0117C14.9902-12.0117 12.4512-14.5508 12.4512-17.8223C12.4512-19.3848 13.0371-20.8008 14.1113-21.875Z"/>
  </g>
  <g id="Regular-M" transform="matrix(1 0 0 1 1394.99 1126)">
   <path d="M13.7695-20.9473L51.5625-59.6191C52.4414-60.5469 53.6133-61.084 54.8828-61.084C56.1035-61.084 57.3242-60.5469 58.1543-59.6191L95.9473-20.9473C96.7773-20.166 97.2656-19.043 97.2656-17.7734C97.2656-15.2344 95.3613-13.3301 92.8223-13.3301C91.6016-13.3301 90.4297-13.7695 89.6484-14.5996L54.8828-50.1465L20.0684-14.5996C19.3359-13.7695 18.1641-13.3301 16.8945-13.3301C14.3555-13.3301 12.4512-15.2344 12.4512-17.7734C12.4512-19.043 12.9395-20.166 13.7695-20.9473Z"/>
  </g>
  <g id="Light-M" transform="matrix(1 0 0 1 1099.98 1126)">
   <path d="M13.4766-19.4824L50.4883-58.4473C51.2207-59.1797 52.0996-59.6191 53.125-59.6191C54.1504-59.6191 55.0781-59.1797 55.8105-58.3984L92.8223-19.4336C93.457-18.7988 93.8477-18.0176 93.8477-17.041C93.8477-15.1367 92.3828-13.6719 90.4785-13.6719C89.5996-13.6719 88.6719-14.0137 88.0371-14.6484L53.1738-51.3184L18.2129-14.6484C17.627-14.0137 16.748-13.6719 15.8203-13.6719C13.916-13.6719 12.4512-15.1367 12.4512-17.041C12.4512-18.0176 12.8418-18.8477 13.4766-19.4824Z"/>
  </g>
  <g id="Thin-M" transform="matrix(1 0 0 1 805.543 1126)">
   <path d="M13.1348-17.4805L49.0723-56.8359C49.6094-57.373 50.1465-57.7148 50.8789-57.7148C51.5625-57.7148 52.1484-57.3242 52.6855-56.7871L88.6719-17.4316C89.0625-17.041 89.3066-16.6504 89.3066-16.0645C89.3066-14.9902 88.4766-14.1602 87.4023-14.1602C86.8652-14.1602 86.3281-14.3066 85.9863-14.6973L50.9277-52.9785L15.7227-14.6973C15.4297-14.3066 14.8926-14.1602 14.3555-14.1602C13.2812-14.1602 12.4512-14.9902 12.4512-16.0645C12.4512-16.6504 12.7441-17.0898 13.1348-17.4805Z"/>
  </g>
  <g id="Ultralight-M" transform="matrix(1 0 0 1 509.98 1126)">
   <path d="M12.9395-16.5039L48.3398-56.0059C48.7793-56.4453 49.1211-56.7383 49.707-56.7383C50.2441-56.7383 50.6348-56.3965 51.0742-55.957L86.5723-16.4062C86.8164-16.1133 87.0117-15.9668 87.0117-15.5762C87.0117-14.9414 86.4746-14.4043 85.791-14.4043C85.498-14.4043 85.1562-14.4531 84.9121-14.6973L49.7559-53.8086L14.4531-14.6973C14.3066-14.4531 13.916-14.4043 13.623-14.4043C12.9883-14.4043 12.4512-14.9414 12.4512-15.5762C12.4512-15.9668 12.6953-16.1621 12.9395-16.5039Z"/>
  </g>
  <g id="Black-S" transform="matrix(1 0 0 1 2886.55 696)">
   <path d="M12.3047-27.9785L39.0137-55.3223C41.5527-57.8613 43.8965-58.9355 46.875-58.9355C49.9023-58.8867 52.1973-57.8125 54.7363-55.3223L81.3965-27.9785C83.1543-26.2207 83.9355-24.2188 83.9355-21.7285C83.9355-16.6992 79.7852-12.5 74.8535-12.5C72.3633-12.5 70.0195-13.5254 68.0664-15.5762L46.9238-37.793L25.6836-15.5762C23.7305-13.5742 21.3867-12.5 18.8477-12.5C13.916-12.5 9.76562-16.6992 9.76562-21.7285C9.76562-24.1699 10.5957-26.1719 12.3047-27.9785Z"/>
  </g>
  <g id="Heavy-S" transform="matrix(1 0 0 1 2590.55 696)">
   <path d="M11.9629-27.1973L39.4531-55.2246C41.6016-57.373 43.6035-58.3008 46.1426-58.3008C48.7305-58.252 50.7324-57.3242 52.832-55.2246L80.2734-27.1973C81.7871-25.7324 82.5195-23.9258 82.5195-21.7773C82.5195-17.3828 78.9062-13.7695 74.6094-13.7695C72.4609-13.7695 70.4102-14.6484 68.75-16.4062L46.1914-39.7949L23.5352-16.4062C21.875-14.6973 19.873-13.7695 17.6758-13.7695C13.3301-13.7695 9.76562-17.3828 9.76562-21.7773C9.76562-23.9258 10.498-25.6836 11.9629-27.1973Z"/>
  </g>
  <g id="Bold-S" transform="matrix(1 0 0 1 2294.64 696)">
   <path d="M11.6211-26.3672L39.9902-55.127C41.6504-56.7871 43.3105-57.5684 45.3613-57.5684C47.4121-57.5195 49.0723-56.7871 50.7324-55.127L79.0527-26.3672C80.3223-25.1465 80.9082-23.6328 80.9082-21.8262C80.9082-18.1641 77.9785-15.1855 74.3652-15.1855C72.5586-15.1855 70.8496-15.918 69.5312-17.334L45.3613-42.041L21.1914-17.334C19.8242-15.918 18.1641-15.1855 16.3086-15.1855C12.6953-15.1855 9.76562-18.1641 9.76562-21.8262C9.76562-23.584 10.4004-25.0977 11.6211-26.3672Z"/>
  </g>
  <g id="Semibold-S" transform="matrix(1 0 0 1 1998.47 696)">
   <path d="M11.377-25.7812L40.332-55.0781C41.6504-56.3965 43.1152-57.0312 44.7754-57.0312C46.4844-57.0312 47.9492-56.3965 49.2676-55.0781L78.2227-25.7812C79.248-24.7559 79.834-23.3887 79.834-21.875C79.834-18.7012 77.2949-16.1621 74.1699-16.1621C72.6562-16.1621 71.1426-16.7969 70.0684-17.9199L44.8242-43.6035L19.5312-17.9199C18.4082-16.7969 16.9922-16.1621 15.3809-16.1621C12.2559-16.1621 9.76562-18.7012 9.76562-21.875C9.76562-23.3887 10.3027-24.7559 11.377-25.7812Z"/>
  </g>
  <g id="Medium-S" transform="matrix(1 0 0 1 1702.2 696)">
   <path d="M11.1816-25.3418L40.5762-55.0293C41.6992-56.1035 42.9688-56.6895 44.3848-56.6895C45.8008-56.6406 47.1191-56.1035 48.1445-55.0293L77.5391-25.3418C78.4668-24.4629 78.9551-23.2422 78.9551-21.875C78.9551-19.0918 76.8066-16.8945 74.0234-16.8945C72.7051-16.8945 71.3867-17.4316 70.459-18.4082L44.3848-44.7754L18.2617-18.4082C17.334-17.4316 16.0645-16.8945 14.6973-16.8945C11.9141-16.8945 9.76562-19.0918 9.76562-21.875C9.76562-23.2422 10.2539-24.4629 11.1816-25.3418Z"/>
  </g>
  <g id="Regular-S" transform="matrix(1 0 0 1 1406.02 696)">
   <path d="M10.9375-24.7559L40.9668-54.9316C41.6992-55.7617 42.7246-56.1523 43.8477-56.1523C44.9219-56.1523 45.9961-55.7617 46.7285-54.9316L76.709-24.7559C77.4414-24.0723 77.8809-23.0469 77.8809-21.9238C77.8809-19.6289 76.1719-17.8711 73.877-17.8711C72.8027-17.8711 71.6797-18.3105 70.9961-19.043L43.8477-46.3379L16.6504-19.043C15.9668-18.3105 14.9414-17.8711 13.8184-17.8711C11.5234-17.8711 9.76562-19.6289 9.76562-21.9238C9.76562-23.0469 10.2051-24.0723 10.9375-24.7559Z"/>
  </g>
  <g id="Light-S" transform="matrix(1 0 0 1 1110.82 696)">
   <path d="M10.6934-23.4375L39.9902-53.8574C40.625-54.541 41.4062-54.8828 42.2852-54.8828C43.1641-54.8828 44.043-54.4922 44.6289-53.8574L73.9258-23.4375C74.5117-22.8516 74.8535-22.1191 74.8535-21.2402C74.8535-19.5312 73.5352-18.2129 71.7773-18.2129C70.9961-18.2129 70.166-18.5059 69.5801-19.0918L42.334-47.3633L14.9902-19.0918C14.4531-18.5059 13.6719-18.2129 12.8418-18.2129C11.084-18.2129 9.76562-19.5312 9.76562-21.2402C9.76562-22.1191 10.1074-22.9004 10.6934-23.4375Z"/>
  </g>
  <g id="Thin-S" transform="matrix(1 0 0 1 816.115 696)">
   <path d="M10.3516-21.7285L38.7207-52.4414C39.209-52.9297 39.6973-53.2227 40.2832-53.2227C40.918-53.2227 41.4551-52.8809 41.8945-52.4414L70.2637-21.6797C70.6055-21.2891 70.8496-20.9473 70.8496-20.4102C70.8496-19.4336 70.0684-18.6035 69.043-18.6035C68.6035-18.6035 68.1152-18.75 67.7734-19.0918L40.332-48.8281L12.793-19.0918C12.5-18.75 12.0117-18.6035 11.5723-18.6035C10.5469-18.6035 9.76562-19.4336 9.76562-20.4102C9.76562-20.9473 10.0098-21.3379 10.3516-21.7285Z"/>
  </g>
  <g id="Ultralight-S" transform="matrix(1 0 0 1 520.429 696)">
   <path d="M10.2051-20.8008L38.0859-51.709C38.4277-52.0996 38.7695-52.3438 39.2578-52.3438C39.7461-52.3438 40.0879-52.0508 40.4785-51.6602L68.4082-20.752C68.6035-20.5078 68.7988-20.3125 68.7988-19.9707C68.7988-19.3359 68.2617-18.8477 67.6758-18.8477C67.3828-18.8477 67.041-18.8965 66.7969-19.1406L39.3066-49.5605L11.6699-19.1406C11.5234-18.8965 11.1816-18.8477 10.8887-18.8477C10.2539-18.8477 9.76562-19.3359 9.76562-19.9707C9.76562-20.3125 9.96094-20.5566 10.2051-20.8008Z"/>
  </g>
 </g>
</svg>
