<?xml version="1.0" encoding="UTF-8"?>
<!--Generator: Apple Native CoreSVG 175-->
<!DOCTYPE svg
PUBLIC "-//W3C//DTD SVG 1.1//EN"
       "http://www.w3.org/Graphics/SVG/1.1/DTD/svg11.dtd">
<svg version="1.1" xmlns="http://www.w3.org/2000/svg" xmlns:xlink="http://www.w3.org/1999/xlink" width="3300" height="2200">
 <!--glyph: "uni100187.medium", point size: 100.0, font version: "17.0d11e1", template writer version: "65.1"-->
 <g id="Notes">
  <rect height="2200" id="artboard" style="fill:white;opacity:1" width="3300" x="0" y="0"/>
  <line style="fill:none;stroke:black;opacity:1;stroke-width:0.5;" x1="263" x2="3036" y1="292" y2="292"/>
  <text style="stroke:none;fill:black;font-family:sans-serif;font-size:13;font-weight:bold;" transform="matrix(1 0 0 1 263 322)">Weight/Scale Variations</text>
  <text style="stroke:none;fill:black;font-family:sans-serif;font-size:13;text-anchor:middle;" transform="matrix(1 0 0 1 559.711 322)">Ultralight</text>
  <text style="stroke:none;fill:black;font-family:sans-serif;font-size:13;text-anchor:middle;" transform="matrix(1 0 0 1 856.422 322)">Thin</text>
  <text style="stroke:none;fill:black;font-family:sans-serif;font-size:13;text-anchor:middle;" transform="matrix(1 0 0 1 1153.13 322)">Light</text>
  <text style="stroke:none;fill:black;font-family:sans-serif;font-size:13;text-anchor:middle;" transform="matrix(1 0 0 1 1449.84 322)">Regular</text>
  <text style="stroke:none;fill:black;font-family:sans-serif;font-size:13;text-anchor:middle;" transform="matrix(1 0 0 1 1746.56 322)">Medium</text>
  <text style="stroke:none;fill:black;font-family:sans-serif;font-size:13;text-anchor:middle;" transform="matrix(1 0 0 1 2043.27 322)">Semibold</text>
  <text style="stroke:none;fill:black;font-family:sans-serif;font-size:13;text-anchor:middle;" transform="matrix(1 0 0 1 2339.98 322)">Bold</text>
  <text style="stroke:none;fill:black;font-family:sans-serif;font-size:13;text-anchor:middle;" transform="matrix(1 0 0 1 2636.69 322)">Heavy</text>
  <text style="stroke:none;fill:black;font-family:sans-serif;font-size:13;text-anchor:middle;" transform="matrix(1 0 0 1 2933.4 322)">Black</text>
  <line style="fill:none;stroke:black;opacity:1;stroke-width:0.5;" x1="263" x2="3036" y1="1903" y2="1903"/>
  <g transform="matrix(1 0 0 1 263 1933)">
   <path d="M9.24805 0.830078Q10.8691 0.830078 12.2949 0.214844Q13.7207-0.400391 14.8096-1.49414Q15.8984-2.58789 16.5186-4.01367Q17.1387-5.43945 17.1387-7.05078Q17.1387-8.66211 16.5186-10.0879Q15.8984-11.5137 14.8047-12.6074Q13.7109-13.7012 12.2852-14.3164Q10.8594-14.9316 9.23828-14.9316Q7.62695-14.9316 6.20117-14.3164Q4.77539-13.7012 3.69141-12.6074Q2.60742-11.5137 1.9873-10.0879Q1.36719-8.66211 1.36719-7.05078Q1.36719-5.43945 1.9873-4.01367Q2.60742-2.58789 3.69629-1.49414Q4.78516-0.400391 6.21094 0.214844Q7.63672 0.830078 9.24805 0.830078ZM9.24805-0.654297Q7.91992-0.654297 6.7627-1.14746Q5.60547-1.64062 4.73145-2.51953Q3.85742-3.39844 3.36426-4.56055Q2.87109-5.72266 2.87109-7.05078Q2.87109-8.37891 3.35938-9.54102Q3.84766-10.7031 4.72168-11.582Q5.5957-12.4609 6.75293-12.9541Q7.91016-13.4473 9.23828-13.4473Q10.5762-13.4473 11.7334-12.9541Q12.8906-12.4609 13.7695-11.582Q14.6484-10.7031 15.1465-9.54102Q15.6445-8.37891 15.6445-7.05078Q15.6445-5.72266 15.1514-4.56055Q14.6582-3.39844 13.7842-2.51953Q12.9102-1.64062 11.748-1.14746Q10.5859-0.654297 9.24805-0.654297ZM5.6543-7.05078Q5.6543-6.72852 5.85938-6.52832Q6.06445-6.32812 6.40625-6.32812L8.51562-6.32812L8.51562-4.20898Q8.51562-3.88672 8.71094-3.67676Q8.90625-3.4668 9.23828-3.4668Q9.56055-3.4668 9.77051-3.67676Q9.98047-3.88672 9.98047-4.20898L9.98047-6.32812L12.0898-6.32812Q12.4219-6.32812 12.627-6.52832Q12.832-6.72852 12.832-7.05078Q12.832-7.38281 12.627-7.58789Q12.4219-7.79297 12.0898-7.79297L9.98047-7.79297L9.98047-9.90234Q9.98047-10.2344 9.77051-10.4443Q9.56055-10.6543 9.23828-10.6543Q8.90625-10.6543 8.71094-10.4443Q8.51562-10.2344 8.51562-9.90234L8.51562-7.79297L6.40625-7.79297Q6.06445-7.79297 5.85938-7.58789Q5.6543-7.38281 5.6543-7.05078Z"/>
  </g>
  <g transform="matrix(1 0 0 1 281.867 1933)">
   <path d="M11.709 2.91016Q13.75 2.91016 15.5518 2.12891Q17.3535 1.34766 18.7305-0.0292969Q20.1074-1.40625 20.8887-3.20801Q21.6699-5.00977 21.6699-7.05078Q21.6699-9.0918 20.8887-10.8936Q20.1074-12.6953 18.7305-14.0723Q17.3535-15.4492 15.5469-16.2305Q13.7402-17.0117 11.6992-17.0117Q9.6582-17.0117 7.85645-16.2305Q6.05469-15.4492 4.68262-14.0723Q3.31055-12.6953 2.5293-10.8936Q1.74805-9.0918 1.74805-7.05078Q1.74805-5.00977 2.5293-3.20801Q3.31055-1.40625 4.6875-0.0292969Q6.06445 1.34766 7.86621 2.12891Q9.66797 2.91016 11.709 2.91016ZM11.709 1.25Q9.98047 1.25 8.47656 0.605469Q6.97266-0.0390625 5.83496-1.17676Q4.69727-2.31445 4.05762-3.81836Q3.41797-5.32227 3.41797-7.05078Q3.41797-8.7793 4.05762-10.2832Q4.69727-11.7871 5.83008-12.9297Q6.96289-14.0723 8.4668-14.7119Q9.9707-15.3516 11.6992-15.3516Q13.4277-15.3516 14.9316-14.7119Q16.4355-14.0723 17.5781-12.9297Q18.7207-11.7871 19.3652-10.2832Q20.0098-8.7793 20.0098-7.05078Q20.0098-5.32227 19.3701-3.81836Q18.7305-2.31445 17.5928-1.17676Q16.4551-0.0390625 14.9463 0.605469Q13.4375 1.25 11.709 1.25ZM7.17773-7.05078Q7.17773-6.69922 7.41211-6.47461Q7.64648-6.25 8.01758-6.25L10.8887-6.25L10.8887-3.36914Q10.8887-2.99805 11.1133-2.76855Q11.3379-2.53906 11.6895-2.53906Q12.0605-2.53906 12.29-2.76855Q12.5195-2.99805 12.5195-3.36914L12.5195-6.25L15.4004-6.25Q15.7715-6.25 16.001-6.47461Q16.2305-6.69922 16.2305-7.05078Q16.2305-7.42188 16.001-7.65137Q15.7715-7.88086 15.4004-7.88086L12.5195-7.88086L12.5195-10.752Q12.5195-11.1328 12.29-11.3623Q12.0605-11.5918 11.6895-11.5918Q11.3379-11.5918 11.1133-11.3574Q10.8887-11.123 10.8887-10.752L10.8887-7.88086L8.01758-7.88086Q7.63672-7.88086 7.40723-7.65137Q7.17773-7.42188 7.17773-7.05078Z"/>
  </g>
  <g transform="matrix(1 0 0 1 305.646 1933)">
   <path d="M14.9707 5.66406Q17.0605 5.66406 18.96 5.01465Q20.8594 4.36523 22.4512 3.19336Q24.043 2.02148 25.2197 0.429688Q26.3965-1.16211 27.0459-3.06641Q27.6953-4.9707 27.6953-7.05078Q27.6953-9.14062 27.0459-11.04Q26.3965-12.9395 25.2197-14.5312Q24.043-16.123 22.4512-17.2998Q20.8594-18.4766 18.9551-19.126Q17.0508-19.7754 14.9609-19.7754Q12.8711-19.7754 10.9717-19.126Q9.07227-18.4766 7.48535-17.2998Q5.89844-16.123 4.72168-14.5312Q3.54492-12.9395 2.90039-11.04Q2.25586-9.14062 2.25586-7.05078Q2.25586-4.9707 2.90527-3.06641Q3.55469-1.16211 4.72656 0.429688Q5.89844 2.02148 7.49023 3.19336Q9.08203 4.36523 10.9814 5.01465Q12.8809 5.66406 14.9707 5.66406ZM14.9707 3.84766Q13.1641 3.84766 11.5283 3.2959Q9.89258 2.74414 8.53516 1.74805Q7.17773 0.751953 6.17676-0.610352Q5.17578-1.97266 4.62891-3.6084Q4.08203-5.24414 4.08203-7.05078Q4.08203-8.86719 4.62891-10.5029Q5.17578-12.1387 6.17188-13.501Q7.16797-14.8633 8.52539-15.8594Q9.88281-16.8555 11.5186-17.4023Q13.1543-17.9492 14.9609-17.9492Q16.7773-17.9492 18.4131-17.4023Q20.0488-16.8555 21.4111-15.8594Q22.7734-14.8633 23.7695-13.501Q24.7656-12.1387 25.3174-10.5029Q25.8691-8.86719 25.8691-7.05078Q25.8789-5.24414 25.332-3.6084Q24.7852-1.97266 23.7842-0.610352Q22.7832 0.751953 21.4209 1.74805Q20.0586 2.74414 18.4229 3.2959Q16.7871 3.84766 14.9707 3.84766ZM9.19922-7.05078Q9.19922-6.66992 9.45801-6.4209Q9.7168-6.17188 10.1172-6.17188L14.0625-6.17188L14.0625-2.2168Q14.0625-1.81641 14.3115-1.55762Q14.5605-1.29883 14.9512-1.29883Q15.3516-1.29883 15.6104-1.55273Q15.8691-1.80664 15.8691-2.2168L15.8691-6.17188L19.8242-6.17188Q20.2246-6.17188 20.4785-6.4209Q20.7324-6.66992 20.7324-7.05078Q20.7324-7.46094 20.4785-7.71484Q20.2246-7.96875 19.8242-7.96875L15.8691-7.96875L15.8691-11.9141Q15.8691-12.3242 15.6104-12.583Q15.3516-12.8418 14.9512-12.8418Q14.5605-12.8418 14.3115-12.583Q14.0625-12.3242 14.0625-11.9141L14.0625-7.96875L10.1172-7.96875Q9.70703-7.96875 9.45312-7.71484Q9.19922-7.46094 9.19922-7.05078Z"/>
  </g>
  <text style="stroke:none;fill:black;font-family:sans-serif;font-size:13;font-weight:bold;" transform="matrix(1 0 0 1 263 1953)">Design Variations</text>
  <text style="stroke:none;fill:black;font-family:sans-serif;font-size:13;" transform="matrix(1 0 0 1 263 1971)">Symbols are supported in up to nine weights and three scales.</text>
  <text style="stroke:none;fill:black;font-family:sans-serif;font-size:13;" transform="matrix(1 0 0 1 263 1989)">For optimal layout with text and other symbols, vertically align</text>
  <text style="stroke:none;fill:black;font-family:sans-serif;font-size:13;" transform="matrix(1 0 0 1 263 2007)">symbols with the adjacent text.</text>
  <line style="fill:none;stroke:#00AEEF;stroke-width:0.5;opacity:1.0;" x1="776" x2="776" y1="1919" y2="1933"/>
  <g transform="matrix(1 0 0 1 776 1933)">
   <path d="M3.31055 0.15625Q3.70117 0.15625 3.91602-0.00976562Q4.13086-0.175781 4.26758-0.585938L5.52734-4.0332L11.2891-4.0332L12.5488-0.585938Q12.6855-0.175781 12.9004-0.00976562Q13.1152 0.15625 13.4961 0.15625Q13.8867 0.15625 14.1162-0.0585938Q14.3457-0.273438 14.3457-0.644531Q14.3457-0.869141 14.2383-1.17188L9.6582-13.3691Q9.48242-13.8184 9.17969-14.043Q8.87695-14.2676 8.4082-14.2676Q7.5-14.2676 7.17773-13.3789L2.59766-1.16211Q2.49023-0.859375 2.49023-0.634766Q2.49023-0.263672 2.70996-0.0537109Q2.92969 0.15625 3.31055 0.15625ZM6.00586-5.51758L8.37891-12.0898L8.42773-12.0898L10.8008-5.51758Z"/>
  </g>
  <line style="fill:none;stroke:#00AEEF;stroke-width:0.5;opacity:1.0;" x1="793.197" x2="793.197" y1="1919" y2="1933"/>
  <text style="stroke:none;fill:black;font-family:sans-serif;font-size:13;font-weight:bold;" transform="matrix(1 0 0 1 776 1953)">Margins</text>
  <text style="stroke:none;fill:black;font-family:sans-serif;font-size:13;" transform="matrix(1 0 0 1 776 1971)">Leading and trailing margins on the left and right side of each symbol</text>
  <text style="stroke:none;fill:black;font-family:sans-serif;font-size:13;" transform="matrix(1 0 0 1 776 1989)">can be adjusted by modifying the x-location of the margin guidelines.</text>
  <text style="stroke:none;fill:black;font-family:sans-serif;font-size:13;" transform="matrix(1 0 0 1 776 2007)">Modifications are automatically applied proportionally to all</text>
  <text style="stroke:none;fill:black;font-family:sans-serif;font-size:13;" transform="matrix(1 0 0 1 776 2025)">scales and weights.</text>
  <g transform="matrix(1 0 0 1 1289 1933)">
   <path d="M2.8418 1.86523L4.54102 3.57422Q5.18555 4.22852 5.90332 4.17969Q6.62109 4.13086 7.31445 3.35938L18.0078-8.42773L17.041-9.4043L6.42578 2.27539Q6.16211 2.57812 5.89355 2.61719Q5.625 2.65625 5.27344 2.30469L4.10156 1.14258Q3.75 0.791016 3.79395 0.522461Q3.83789 0.253906 4.14062-0.0195312L15.6152-10.8203L14.6387-11.7871L3.04688-0.898438Q2.30469-0.214844 2.25098 0.498047Q2.19727 1.21094 2.8418 1.86523ZM9.25781-16.3281Q8.94531-16.0254 8.90625-15.6348Q8.86719-15.2441 9.04297-14.9512Q9.21875-14.6777 9.55566-14.541Q9.89258-14.4043 10.3809-14.5215Q11.4746-14.7754 12.5977-14.7314Q13.7207-14.6875 14.7949-13.9844L14.209-12.5293Q13.9551-11.9043 14.0674-11.4404Q14.1797-10.9766 14.5801-10.5664L16.875-8.25195Q17.2363-7.88086 17.5781-7.82227Q17.9199-7.76367 18.3398-7.8418L19.4043-8.03711L20.0684-7.36328L20.0293-6.80664Q20-6.43555 20.1221-6.12305Q20.2441-5.81055 20.6055-5.44922L21.3672-4.70703Q21.7285-4.3457 22.1533-4.33105Q22.5781-4.31641 22.9297-4.66797L25.8398-7.58789Q26.1914-7.93945 26.1816-8.35449Q26.1719-8.76953 25.8105-9.13086L25.0391-9.89258Q24.6875-10.2539 24.3799-10.3857Q24.0723-10.5176 23.7109-10.4883L23.1348-10.4395L22.4902-11.0742L22.7344-12.1973Q22.832-12.6172 22.6953-12.9834Q22.5586-13.3496 22.1191-13.7891L19.9219-15.9766Q18.6719-17.2168 17.2607-17.8369Q15.8496-18.457 14.4189-18.4814Q12.9883-18.5059 11.665-17.959Q10.3418-17.4121 9.25781-16.3281ZM10.752-15.957Q11.6602-16.6211 12.7002-16.9043Q13.7402-17.1875 14.8047-17.085Q15.8691-16.9824 16.8701-16.5137Q17.8711-16.0449 18.7012-15.2051L21.1328-12.793Q21.3086-12.6172 21.3525-12.4512Q21.3965-12.2852 21.3379-12.0312L21.0156-10.5469L22.5195-9.0625L23.5059-9.12109Q23.6914-9.13086 23.7891-9.09668Q23.8867-9.0625 24.0332-8.91602L24.6094-8.33984L22.168-5.89844L21.5918-6.47461Q21.4453-6.62109 21.4062-6.71875Q21.3672-6.81641 21.377-7.01172L21.4453-7.98828L19.9512-9.47266L18.4277-9.21875Q18.1836-9.16992 18.042-9.2041Q17.9004-9.23828 17.7148-9.41406L15.7129-11.416Q15.5176-11.5918 15.4932-11.7529Q15.4688-11.9141 15.5859-12.1875L16.4648-14.2773Q15.293-15.3711 13.8281-15.791Q12.3633-16.2109 10.8398-15.7617Q10.7227-15.7324 10.6885-15.8057Q10.6543-15.8789 10.752-15.957Z"/>
  </g>
  <text style="stroke:none;fill:black;font-family:sans-serif;font-size:13;font-weight:bold;" transform="matrix(1 0 0 1 1289 1953)">Exporting</text>
  <text style="stroke:none;fill:black;font-family:sans-serif;font-size:13;" transform="matrix(1 0 0 1 1289 1971)">Symbols should be outlined when exporting to ensure the</text>
  <text style="stroke:none;fill:black;font-family:sans-serif;font-size:13;" transform="matrix(1 0 0 1 1289 1989)">design is preserved when submitting to Xcode.</text>
  <text id="template-version" style="stroke:none;fill:black;font-family:sans-serif;font-size:13;text-anchor:end;" transform="matrix(1 0 0 1 3036 1933)">Template v.3.0</text>
  <text style="stroke:none;fill:black;font-family:sans-serif;font-size:13;text-anchor:end;" transform="matrix(1 0 0 1 3036 1951)">Requires Xcode 13 or greater</text>
  <text id="descriptive-name" style="stroke:none;fill:black;font-family:sans-serif;font-size:13;text-anchor:end;" transform="matrix(1 0 0 1 3036 1969)">Generated from chevron.up</text>
  <text style="stroke:none;fill:black;font-family:sans-serif;font-size:13;text-anchor:end;" transform="matrix(1 0 0 1 3036 1987)">Typeset at 100 points</text>
  <text style="stroke:none;fill:black;font-family:sans-serif;font-size:13;" transform="matrix(1 0 0 1 263 726)">Small</text>
  <text style="stroke:none;fill:black;font-family:sans-serif;font-size:13;" transform="matrix(1 0 0 1 263 1156)">Medium</text>
  <text style="stroke:none;fill:black;font-family:sans-serif;font-size:13;" transform="matrix(1 0 0 1 263 1586)">Large</text>
 </g>
 <g id="Guides">
  <g id="H-reference" style="fill:#27AAE1;stroke:none;" transform="matrix(1 0 0 1 339 696)">
   <path d="M0.976562 0L3.66211 0L29.3457-67.1387L30.0293-67.1387L30.0293-70.459L28.125-70.459ZM11.6699-24.4629L46.9727-24.4629L46.2402-26.709L12.4512-26.709ZM55.127 0L57.7637 0L30.6152-70.459L29.4434-70.459L29.4434-67.1387Z"/>
  </g>
  <line id="Baseline-S" style="fill:none;stroke:#27AAE1;opacity:1;stroke-width:0.5;" x1="263" x2="3036" y1="696" y2="696"/>
  <line id="Capline-S" style="fill:none;stroke:#27AAE1;opacity:1;stroke-width:0.5;" x1="263" x2="3036" y1="625.541" y2="625.541"/>
  <g id="H-reference" style="fill:#27AAE1;stroke:none;" transform="matrix(1 0 0 1 339 1126)">
   <path d="M0.976562 0L3.66211 0L29.3457-67.1387L30.0293-67.1387L30.0293-70.459L28.125-70.459ZM11.6699-24.4629L46.9727-24.4629L46.2402-26.709L12.4512-26.709ZM55.127 0L57.7637 0L30.6152-70.459L29.4434-70.459L29.4434-67.1387Z"/>
  </g>
  <line id="Baseline-M" style="fill:none;stroke:#27AAE1;opacity:1;stroke-width:0.5;" x1="263" x2="3036" y1="1126" y2="1126"/>
  <line id="Capline-M" style="fill:none;stroke:#27AAE1;opacity:1;stroke-width:0.5;" x1="263" x2="3036" y1="1055.54" y2="1055.54"/>
  <g id="H-reference" style="fill:#27AAE1;stroke:none;" transform="matrix(1 0 0 1 339 1556)">
   <path d="M0.976562 0L3.66211 0L29.3457-67.1387L30.0293-67.1387L30.0293-70.459L28.125-70.459ZM11.6699-24.4629L46.9727-24.4629L46.2402-26.709L12.4512-26.709ZM55.127 0L57.7637 0L30.6152-70.459L29.4434-70.459L29.4434-67.1387Z"/>
  </g>
  <line id="Baseline-L" style="fill:none;stroke:#27AAE1;opacity:1;stroke-width:0.5;" x1="263" x2="3036" y1="1556" y2="1556"/>
  <line id="Capline-L" style="fill:none;stroke:#27AAE1;opacity:1;stroke-width:0.5;" x1="263" x2="3036" y1="1485.54" y2="1485.54"/>
  <line id="left-margin-Ultralight-S" style="fill:none;stroke:#00AEEF;stroke-width:0.5;opacity:1.0;" x1="520.429" x2="520.429" y1="600.785" y2="720.121"/>
  <line id="right-margin-Ultralight-S" style="fill:none;stroke:#00AEEF;stroke-width:0.5;opacity:1.0;" x1="598.993" x2="598.993" y1="600.785" y2="720.121"/>
  <line id="left-margin-Thin-S" style="fill:none;stroke:#00AEEF;stroke-width:0.5;opacity:1.0;" x1="816.115" x2="816.115" y1="600.785" y2="720.121"/>
  <line id="right-margin-Thin-S" style="fill:none;stroke:#00AEEF;stroke-width:0.5;opacity:1.0;" x1="896.73" x2="896.73" y1="600.785" y2="720.121"/>
  <line id="left-margin-Light-S" style="fill:none;stroke:#00AEEF;stroke-width:0.5;opacity:1.0;" x1="1110.82" x2="1110.82" y1="600.785" y2="720.121"/>
  <line id="right-margin-Light-S" style="fill:none;stroke:#00AEEF;stroke-width:0.5;opacity:1.0;" x1="1195.44" x2="1195.44" y1="600.785" y2="720.121"/>
  <line id="left-margin-Regular-S" style="fill:none;stroke:#00AEEF;stroke-width:0.5;opacity:1.0;" x1="1406.02" x2="1406.02" y1="600.785" y2="720.121"/>
  <line id="right-margin-Regular-S" style="fill:none;stroke:#00AEEF;stroke-width:0.5;opacity:1.0;" x1="1493.67" x2="1493.67" y1="600.785" y2="720.121"/>
  <line id="left-margin-Medium-S" style="fill:none;stroke:#00AEEF;stroke-width:0.5;opacity:1.0;" x1="1702.2" x2="1702.2" y1="600.785" y2="720.121"/>
  <line id="right-margin-Medium-S" style="fill:none;stroke:#00AEEF;stroke-width:0.5;opacity:1.0;" x1="1790.92" x2="1790.92" y1="600.785" y2="720.121"/>
  <line id="left-margin-Semibold-S" style="fill:none;stroke:#00AEEF;stroke-width:0.5;opacity:1.0;" x1="1998.49" x2="1998.49" y1="600.785" y2="720.121"/>
  <line id="right-margin-Semibold-S" style="fill:none;stroke:#00AEEF;stroke-width:0.5;opacity:1.0;" x1="2088.04" x2="2088.04" y1="600.785" y2="720.121"/>
  <line id="left-margin-Bold-S" style="fill:none;stroke:#00AEEF;stroke-width:0.5;opacity:1.0;" x1="2294.64" x2="2294.64" y1="600.785" y2="720.121"/>
  <line id="right-margin-Bold-S" style="fill:none;stroke:#00AEEF;stroke-width:0.5;opacity:1.0;" x1="2385.31" x2="2385.31" y1="600.785" y2="720.121"/>
  <line id="left-margin-Heavy-S" style="fill:none;stroke:#00AEEF;stroke-width:0.5;opacity:1.0;" x1="2590.55" x2="2590.55" y1="600.785" y2="720.121"/>
  <line id="right-margin-Heavy-S" style="fill:none;stroke:#00AEEF;stroke-width:0.5;opacity:1.0;" x1="2682.83" x2="2682.83" y1="600.785" y2="720.121"/>
  <line id="left-margin-Black-S" style="fill:none;stroke:#00AEEF;stroke-width:0.5;opacity:1.0;" x1="2886.55" x2="2886.55" y1="600.785" y2="720.121"/>
  <line id="right-margin-Black-S" style="fill:none;stroke:#00AEEF;stroke-width:0.5;opacity:1.0;" x1="2980.25" x2="2980.25" y1="600.785" y2="720.121"/>
  <line id="left-margin-Ultralight-M" style="fill:none;stroke:#00AEEF;stroke-width:0.5;opacity:1.0;" x1="509.98" x2="509.98" y1="1030.79" y2="1150.12"/>
  <line id="right-margin-Ultralight-M" style="fill:none;stroke:#00AEEF;stroke-width:0.5;opacity:1.0;" x1="609.443" x2="609.443" y1="1030.79" y2="1150.12"/>
  <line id="left-margin-Thin-M" style="fill:none;stroke:#00AEEF;stroke-width:0.5;opacity:1.0;" x1="805.543" x2="805.543" y1="1030.79" y2="1150.12"/>
  <line id="right-margin-Thin-M" style="fill:none;stroke:#00AEEF;stroke-width:0.5;opacity:1.0;" x1="907.301" x2="907.301" y1="1030.79" y2="1150.12"/>
  <line id="left-margin-Light-M" style="fill:none;stroke:#00AEEF;stroke-width:0.5;opacity:1.0;" x1="1099.98" x2="1099.98" y1="1030.79" y2="1150.12"/>
  <line id="right-margin-Light-M" style="fill:none;stroke:#00AEEF;stroke-width:0.5;opacity:1.0;" x1="1206.28" x2="1206.28" y1="1030.79" y2="1150.12"/>
  <line id="left-margin-Regular-M" style="fill:none;stroke:#00AEEF;stroke-width:0.5;opacity:1.0;" x1="1394.99" x2="1394.99" y1="1030.79" y2="1150.12"/>
  <line id="right-margin-Regular-M" style="fill:none;stroke:#00AEEF;stroke-width:0.5;opacity:1.0;" x1="1504.7" x2="1504.7" y1="1030.79" y2="1150.12"/>
  <line id="left-margin-Medium-M" style="fill:none;stroke:#00AEEF;stroke-width:0.5;opacity:1.0;" x1="1690.87" x2="1690.87" y1="1030.79" y2="1150.12"/>
  <line id="right-margin-Medium-M" style="fill:none;stroke:#00AEEF;stroke-width:0.5;opacity:1.0;" x1="1802.24" x2="1802.24" y1="1030.79" y2="1150.12"/>
  <line id="left-margin-Semibold-M" style="fill:none;stroke:#00AEEF;stroke-width:0.5;opacity:1.0;" x1="1986.94" x2="1986.94" y1="1030.79" y2="1150.12"/>
  <line id="right-margin-Semibold-M" style="fill:none;stroke:#00AEEF;stroke-width:0.5;opacity:1.0;" x1="2099.59" x2="2099.59" y1="1030.79" y2="1150.12"/>
  <line id="left-margin-Bold-M" style="fill:none;stroke:#00AEEF;stroke-width:0.5;opacity:1.0;" x1="2282.8" x2="2282.8" y1="1030.79" y2="1150.12"/>
  <line id="right-margin-Bold-M" style="fill:none;stroke:#00AEEF;stroke-width:0.5;opacity:1.0;" x1="2397.16" x2="2397.16" y1="1030.79" y2="1150.12"/>
  <line id="left-margin-Heavy-M" style="fill:none;stroke:#00AEEF;stroke-width:0.5;opacity:1.0;" x1="2578.29" x2="2578.29" y1="1030.79" y2="1150.12"/>
  <line id="right-margin-Heavy-M" style="fill:none;stroke:#00AEEF;stroke-width:0.5;opacity:1.0;" x1="2695.09" x2="2695.09" y1="1030.79" y2="1150.12"/>
  <line id="left-margin-Black-M" style="fill:none;stroke:#00AEEF;stroke-width:0.5;opacity:1.0;" x1="2873.9" x2="2873.9" y1="1030.79" y2="1150.12"/>
  <line id="right-margin-Black-M" style="fill:none;stroke:#00AEEF;stroke-width:0.5;opacity:1.0;" x1="2992.9" x2="2992.9" y1="1030.79" y2="1150.12"/>
  <line id="left-margin-Ultralight-L" style="fill:none;stroke:#00AEEF;stroke-width:0.5;opacity:1.0;" x1="496.064" x2="496.064" y1="1460.79" y2="1580.12"/>
  <line id="right-margin-Ultralight-L" style="fill:none;stroke:#00AEEF;stroke-width:0.5;opacity:1.0;" x1="623.359" x2="623.359" y1="1460.79" y2="1580.12"/>
  <line id="left-margin-Thin-L" style="fill:none;stroke:#00AEEF;stroke-width:0.5;opacity:1.0;" x1="791.481" x2="791.481" y1="1460.79" y2="1580.12"/>
  <line id="right-margin-Thin-L" style="fill:none;stroke:#00AEEF;stroke-width:0.5;opacity:1.0;" x1="921.364" x2="921.364" y1="1460.79" y2="1580.12"/>
  <line id="left-margin-Light-L" style="fill:none;stroke:#00AEEF;stroke-width:0.5;opacity:1.0;" x1="1085.65" x2="1085.65" y1="1460.79" y2="1580.12"/>
  <line id="right-margin-Light-L" style="fill:none;stroke:#00AEEF;stroke-width:0.5;opacity:1.0;" x1="1220.61" x2="1220.61" y1="1460.79" y2="1580.12"/>
  <line id="left-margin-Regular-L" style="fill:none;stroke:#00AEEF;stroke-width:0.5;opacity:1.0;" x1="1380.46" x2="1380.46" y1="1460.79" y2="1580.12"/>
  <line id="right-margin-Regular-L" style="fill:none;stroke:#00AEEF;stroke-width:0.5;opacity:1.0;" x1="1519.23" x2="1519.23" y1="1460.79" y2="1580.12"/>
  <line id="left-margin-Medium-L" style="fill:none;stroke:#00AEEF;stroke-width:0.5;opacity:1.0;" x1="1676" x2="1676" y1="1460.79" y2="1580.12"/>
  <line id="right-margin-Medium-L" style="fill:none;stroke:#00AEEF;stroke-width:0.5;opacity:1.0;" x1="1817.11" x2="1817.11" y1="1460.79" y2="1580.12"/>
  <line id="left-margin-Semibold-L" style="fill:none;stroke:#00AEEF;stroke-width:0.5;opacity:1.0;" x1="1971.81" x2="1971.81" y1="1460.79" y2="1580.12"/>
  <line id="right-margin-Semibold-L" style="fill:none;stroke:#00AEEF;stroke-width:0.5;opacity:1.0;" x1="2114.73" x2="2114.73" y1="1460.79" y2="1580.12"/>
  <line id="left-margin-Bold-L" style="fill:none;stroke:#00AEEF;stroke-width:0.5;opacity:1.0;" x1="2267.32" x2="2267.32" y1="1460.79" y2="1580.12"/>
  <line id="right-margin-Bold-L" style="fill:none;stroke:#00AEEF;stroke-width:0.5;opacity:1.0;" x1="2412.63" x2="2412.63" y1="1460.79" y2="1580.12"/>
  <line id="left-margin-Heavy-L" style="fill:none;stroke:#00AEEF;stroke-width:0.5;opacity:1.0;" x1="2562.32" x2="2562.32" y1="1460.79" y2="1580.12"/>
  <line id="right-margin-Heavy-L" style="fill:none;stroke:#00AEEF;stroke-width:0.5;opacity:1.0;" x1="2711.05" x2="2711.05" y1="1460.79" y2="1580.12"/>
  <line id="left-margin-Black-L" style="fill:none;stroke:#00AEEF;stroke-width:0.5;opacity:1.0;" x1="2857.5" x2="2857.5" y1="1460.79" y2="1580.12"/>
  <line id="right-margin-Black-L" style="fill:none;stroke:#00AEEF;stroke-width:0.5;opacity:1.0;" x1="3009.3" x2="3009.3" y1="1460.79" y2="1580.12"/>
 </g>
 <g id="Symbols">
  <g id="Black-L" transform="matrix(1 0 0 1 2857.5 1556)">
   <path d="M19.6289-21.9238Q17.8711-20.0684 16.9678-17.8955Q16.0645-15.7227 16.0645-13.1348Q16.0645-9.57031 17.7979-6.64062Q19.5312-3.71094 22.4365-1.95312Q25.3418-0.195312 28.8086-0.195312Q34.2285-0.195312 38.3301-4.44336L78.2227-45.459L73.8281-45.459L113.525-4.44336Q117.529-0.195312 122.998-0.195312Q126.465-0.195312 129.37-1.95312Q132.275-3.71094 134.009-6.64062Q135.742-9.57031 135.742-13.1348Q135.742-15.7715 134.863-17.9443Q133.984-20.1172 132.129-21.9238L86.6699-68.2129Q84.1309-70.752 81.5674-71.9238Q79.0039-73.0957 75.9277-73.1445Q72.9004-73.1445 70.3125-71.9727Q67.7246-70.8008 65.1855-68.2129Z"/>
  </g>
  <g id="Heavy-L" transform="matrix(1 0 0 1 2562.32 1556)">
   <path d="M19.1406-20.4102Q17.627-18.8477 16.8457-16.9678Q16.0645-15.0879 16.0645-12.8906Q16.0645-9.86328 17.5293-7.34863Q18.9941-4.83398 21.4844-3.34473Q23.9746-1.85547 26.9531-1.85547Q31.5918-1.85547 35.0098-5.41992L76.8555-48.5352L72.0703-48.5352L113.721-5.41992Q117.09-1.85547 121.777-1.85547Q124.756-1.85547 127.246-3.34473Q129.736-4.83398 131.201-7.34863Q132.666-9.86328 132.666-12.8906Q132.666-15.1367 131.909-17.0166Q131.152-18.8965 129.541-20.4102L83.4473-67.627Q81.3477-69.7266 79.1748-70.7275Q77.002-71.7285 74.3652-71.7773Q71.8262-71.7773 69.6289-70.7764Q67.4316-69.7754 65.2832-67.627Z"/>
  </g>
  <g id="Bold-L" transform="matrix(1 0 0 1 2267.32 1556)">
   <path d="M18.6035-18.75Q17.3828-17.5293 16.7236-15.9912Q16.0645-14.4531 16.0645-12.6465Q16.0645-10.1562 17.2607-8.1543Q18.457-6.15234 20.459-4.93164Q22.4609-3.71094 24.9023-3.71094Q28.6621-3.71094 31.3477-6.54297L75.3418-52.002L70.1172-52.002L113.965-6.54297Q116.602-3.71094 120.41-3.71094Q122.852-3.71094 124.854-4.93164Q126.855-6.15234 128.052-8.1543Q129.248-10.1562 129.248-12.6465Q129.248-14.4531 128.613-15.9912Q127.979-17.5293 126.709-18.75L79.8828-66.9922Q78.2715-68.6523 76.5137-69.458Q74.7559-70.2637 72.6562-70.2637Q70.6055-70.2637 68.8477-69.4824Q67.0898-68.7012 65.4297-66.9922Z"/>
  </g>
  <g id="Semibold-L" transform="matrix(1 0 0 1 1971.81 1556)">
   <path d="M18.2129-17.5781Q17.1875-16.5527 16.626-15.2588Q16.0645-13.9648 16.0645-12.4512Q16.0645-10.3516 17.041-8.69141Q18.0176-7.03125 19.7021-6.00586Q21.3867-4.98047 23.4375-4.98047Q26.6602-4.98047 28.8086-7.32422L74.2676-54.3945L68.75-54.3945L114.111-7.32422Q116.26-4.98047 119.482-4.98047Q121.533-4.98047 123.218-6.00586Q124.902-7.03125 125.879-8.69141Q126.855-10.3516 126.855-12.4512Q126.855-13.9648 126.318-15.2588Q125.781-16.5527 124.707-17.5781L77.3926-66.5039Q76.123-67.8711 74.6582-68.5303Q73.1934-69.1895 71.4844-69.2383Q69.7754-69.2383 68.3105-68.5791Q66.8457-67.9199 65.5273-66.5039Z"/>
  </g>
  <g id="Medium-L" transform="matrix(1 0 0 1 1676 1556)">
   <path d="M17.9199-16.6992Q17.041-15.8691 16.5527-14.7461Q16.0645-13.623 16.0645-12.3047Q16.0645-10.5469 16.8945-9.10645Q17.7246-7.66602 19.1406-6.81152Q20.5566-5.95703 22.3633-5.95703Q25.0977-5.95703 26.8555-7.91016L73.4375-56.2012L67.7246-56.2012L114.209-7.91016Q116.016-5.95703 118.75-5.95703Q120.557-5.95703 121.973-6.81152Q123.389-7.66602 124.219-9.10645Q125.049-10.5469 125.049-12.3047Q125.049-13.623 124.561-14.7217Q124.072-15.8203 123.193-16.6992L75.5371-66.1621Q74.4629-67.2852 73.2178-67.8467Q71.9727-68.4082 70.5566-68.4082Q69.1406-68.4082 67.9199-67.8711Q66.6992-67.334 65.5762-66.1621Z"/>
  </g>
  <g id="Regular-L" transform="matrix(1 0 0 1 1380.46 1556)">
   <path d="M17.5293-15.5762Q16.8457-14.9414 16.4551-14.0381Q16.0645-13.1348 16.0645-12.1094Q16.0645-10.7422 16.6992-9.64355Q17.334-8.54492 18.4326-7.88574Q19.5312-7.22656 20.9473-7.22656Q23.0957-7.22656 24.3652-8.64258L72.4121-58.5449L66.4062-58.5449L114.355-8.64258Q115.674-7.22656 117.822-7.22656Q119.238-7.22656 120.337-7.88574Q121.436-8.54492 122.07-9.64355Q122.705-10.7422 122.705-12.1094Q122.705-13.1348 122.314-14.0137Q121.924-14.8926 121.24-15.5762L73.0957-65.7227Q72.3633-66.5039 71.4111-66.9434Q70.459-67.3828 69.3848-67.3828Q68.3105-67.3828 67.3828-66.9678Q66.4551-66.5527 65.6738-65.7227Z"/>
  </g>
  <g id="Light-L" transform="matrix(1 0 0 1 1085.65 1556)">
   <path d="M17.2363-13.916Q16.6992-13.4277 16.3818-12.7441Q16.0645-12.0605 16.0645-11.2793Q16.0645-10.2539 16.5283-9.44824Q16.9922-8.64258 17.8223-8.12988Q18.6523-7.61719 19.7266-7.61719Q21.3867-7.61719 22.2656-8.69141L69.9707-59.4238L65.0391-59.4238L112.598-8.69141Q113.574-7.61719 115.234-7.61719Q116.26-7.61719 117.09-8.12988Q117.92-8.64258 118.408-9.44824Q118.896-10.2539 118.896-11.2793Q118.896-12.0605 118.579-12.6953Q118.262-13.3301 117.773-13.916L70.459-64.3555Q69.873-64.9902 69.1162-65.3809Q68.3594-65.7715 67.4805-65.7715Q66.6016-65.7715 65.8691-65.4053Q65.1367-65.0391 64.502-64.3555Z"/>
  </g>
  <g id="Thin-L" transform="matrix(1 0 0 1 791.481 1556)">
   <path d="M16.8457-11.7188Q16.5527-11.377 16.3086-11.0352Q16.0645-10.6934 16.0645-10.2051Q16.0645-9.66797 16.333-9.2041Q16.6016-8.74023 17.0654-8.44727Q17.5293-8.1543 18.1152-8.1543Q19.0918-8.1543 19.5312-8.69141L66.7969-60.5957L63.1836-60.5957L110.254-8.69141Q110.791-8.1543 111.768-8.1543Q112.354-8.1543 112.817-8.44727Q113.281-8.74023 113.55-9.2041Q113.818-9.66797 113.818-10.2051Q113.818-10.6934 113.623-11.0107Q113.428-11.3281 113.135-11.6699L66.9922-62.5Q66.5039-62.9883 66.0156-63.3301Q65.5273-63.6719 64.9414-63.6719Q64.3066-63.6719 63.8428-63.3789Q63.3789-63.0859 62.8906-62.5977Z"/>
  </g>
  <g id="Ultralight-L" transform="matrix(1 0 0 1 496.064 1556)">
   <path d="M16.6016-10.5957Q16.4551-10.3516 16.2598-10.1562Q16.0645-9.96094 16.0645-9.66797Q16.0645-9.32617 16.2109-9.08203Q16.3574-8.83789 16.6504-8.64258Q16.9434-8.44727 17.2852-8.44727Q17.9199-8.44727 18.1152-8.74023L65.1367-61.2305L62.2559-61.2305L109.082-8.74023Q109.375-8.44727 110.01-8.44727Q110.352-8.44727 110.62-8.64258Q110.889-8.83789 111.06-9.08203Q111.23-9.32617 111.23-9.66797Q111.23-9.96094 111.108-10.1074Q110.986-10.2539 110.791-10.5469L65.2344-61.5723Q64.8438-61.9629 64.4775-62.2559Q64.1113-62.5488 63.623-62.5488Q63.1348-62.5488 62.793-62.3047Q62.4512-62.0605 62.1094-61.6699Z"/>
  </g>
  <g id="Black-M" transform="matrix(1 0 0 1 2873.9 1126)">
   <path d="M15.5273-25.6348Q13.9648-24.0234 13.208-22.1436Q12.4512-20.2637 12.4512-18.0176Q12.4512-14.9414 13.9648-12.4023Q15.4785-9.86328 17.9932-8.3252Q20.5078-6.78711 23.5352-6.78711Q28.1738-6.78711 31.8359-10.498L60.9863-40.7715L58.252-40.7715L87.207-10.498Q90.7715-6.78711 95.459-6.78711Q98.4863-6.78711 101.001-8.3252Q103.516-9.86328 105.029-12.4023Q106.543-14.9414 106.543-18.0176Q106.543-22.5586 103.418-25.6348L69.043-60.8398Q66.748-63.0859 64.502-64.1357Q62.2559-65.1855 59.5215-65.2344Q54.3457-65.2344 50-60.8398Z"/>
  </g>
  <g id="Heavy-M" transform="matrix(1 0 0 1 2578.29 1126)">
   <path d="M15.1367-24.5117Q13.7695-23.1445 13.1104-21.5088Q12.4512-19.873 12.4512-17.9688Q12.4512-15.332 13.7451-13.1348Q15.0391-10.9375 17.1875-9.64355Q19.3359-8.34961 21.9727-8.34961Q25.9766-8.34961 29.0527-11.4746L60.1562-43.6035L56.8359-43.6035L87.793-11.4746Q90.7715-8.34961 94.8242-8.34961Q97.4609-8.34961 99.6094-9.64355Q101.758-10.9375 103.052-13.1348Q104.346-15.332 104.346-17.9688Q104.346-21.875 101.66-24.5117L66.4551-60.5469Q64.5508-62.4512 62.6465-63.3301Q60.7422-64.209 58.4473-64.2578Q54.0039-64.2578 50.3906-60.5469Z"/>
  </g>
  <g id="Bold-M" transform="matrix(1 0 0 1 2282.8 1126)">
   <path d="M14.6484-23.291Q13.5742-22.2168 13.0127-20.8496Q12.4512-19.4824 12.4512-17.9199Q12.4512-15.7227 13.501-13.9648Q14.5508-12.207 16.3086-11.1328Q18.0664-10.0586 20.2148-10.0586Q23.5352-10.0586 25.9766-12.5488L59.2285-46.7773L55.2734-46.7773L88.4277-12.5488Q90.8203-10.0586 94.1406-10.0586Q96.2891-10.0586 98.0469-11.1328Q99.8047-12.207 100.854-13.9648Q101.904-15.7227 101.904-17.9199Q101.904-21.1426 99.707-23.291L63.623-60.2539Q62.1582-61.7188 60.5957-62.4268Q59.0332-63.1348 57.2266-63.1836Q53.6621-63.1836 50.7812-60.2539Z"/>
  </g>
  <g id="Semibold-M" transform="matrix(1 0 0 1 1986.94 1126)">
   <path d="M14.3066-22.4609Q13.3789-21.5332 12.915-20.3613Q12.4512-19.1895 12.4512-17.8711Q12.4512-16.0156 13.3301-14.5264Q14.209-13.0371 15.6982-12.1338Q17.1875-11.2305 18.9941-11.2305Q21.8262-11.2305 23.8281-13.2812L58.5938-48.9746L54.1504-48.9746L88.8672-13.2812Q90.8203-11.2305 93.6523-11.2305Q95.5078-11.2305 96.9727-12.1338Q98.4375-13.0371 99.3164-14.5264Q100.195-16.0156 100.195-17.8711Q100.195-20.6055 98.3398-22.4609L61.6211-60.0098Q60.4492-61.1816 59.1553-61.792Q57.8613-62.4023 56.3477-62.4023Q53.3691-62.4023 51.0742-60.0098Z"/>
  </g>
  <g id="Medium-M" transform="matrix(1 0 0 1 1690.87 1126)">
   <path d="M14.0625-21.7773Q13.2812-20.9961 12.8662-19.9951Q12.4512-18.9941 12.4512-17.8223Q12.4512-16.2109 13.208-14.9414Q13.9648-13.6719 15.2344-12.915Q16.5039-12.1582 18.0664-12.1582Q20.5566-12.1582 22.168-13.8672L58.1055-50.6348L53.3203-50.6348L89.209-13.8672Q90.8691-12.1582 93.3105-12.1582Q94.873-12.1582 96.1426-12.915Q97.4121-13.6719 98.1689-14.9414Q98.9258-16.2109 98.9258-17.8223Q98.9258-20.2148 97.3145-21.7773L60.1074-59.8145Q59.1797-60.791 58.0811-61.3037Q56.9824-61.8164 55.7129-61.8164Q53.1738-61.8164 51.2695-59.8145Z"/>
  </g>
  <g id="Regular-M" transform="matrix(1 0 0 1 1394.99 1126)">
   <path d="M13.7695-20.9473Q13.1348-20.3613 12.793-19.5312Q12.4512-18.7012 12.4512-17.7734Q12.4512-16.5039 13.0371-15.5029Q13.623-14.502 14.624-13.916Q15.625-13.3301 16.8945-13.3301Q18.8965-13.3301 20.0684-14.5996L57.4707-52.7832L52.2461-52.7832L89.6484-14.5996Q90.8691-13.3301 92.8223-13.3301Q94.0918-13.3301 95.0928-13.916Q96.0938-14.502 96.6797-15.5029Q97.2656-16.5039 97.2656-17.7734Q97.2656-19.6777 95.9473-20.9473L58.1543-59.6191Q57.5195-60.3027 56.665-60.6934Q55.8105-61.084 54.8828-61.084Q52.9297-61.084 51.5625-59.6191Z"/>
  </g>
  <g id="Light-M" transform="matrix(1 0 0 1 1099.98 1126)">
   <path d="M13.4766-19.4824Q13.0371-18.9941 12.7441-18.3594Q12.4512-17.7246 12.4512-17.041Q12.4512-16.1133 12.8906-15.3564Q13.3301-14.5996 14.0869-14.1357Q14.8438-13.6719 15.8203-13.6719Q17.334-13.6719 18.2129-14.6484L55.3223-53.5645L51.0254-53.5645L88.0859-14.6484Q88.9648-13.6719 90.4785-13.6719Q91.4551-13.6719 92.2119-14.1357Q92.9688-14.5996 93.4082-15.3564Q93.8477-16.1133 93.8477-17.041Q93.8477-18.4082 92.8223-19.4336L55.8105-58.3984Q55.2734-58.9355 54.5898-59.2773Q53.9062-59.6191 53.1738-59.6191Q51.6602-59.6191 50.4883-58.3984Z"/>
  </g>
  <g id="Thin-M" transform="matrix(1 0 0 1 805.543 1126)">
   <path d="M13.1348-17.4805Q12.8418-17.1875 12.6465-16.8457Q12.4512-16.5039 12.4512-16.0645Q12.4512-15.5762 12.6953-15.1367Q12.9395-14.6973 13.3789-14.4287Q13.8184-14.1602 14.3555-14.1602Q15.332-14.1602 15.7227-14.6484L52.4414-54.6387L49.3652-54.6387L85.9863-14.6484Q86.4746-14.1602 87.3535-14.1602Q87.9395-14.1602 88.3545-14.4287Q88.7695-14.6973 89.0381-15.1367Q89.3066-15.5762 89.3066-16.0645Q89.3066-16.748 88.6719-17.4316L52.6855-56.7871Q52.2949-57.1777 51.8311-57.4463Q51.3672-57.7148 50.8789-57.7148Q49.9512-57.7148 49.0723-56.7871Z"/>
  </g>
  <g id="Ultralight-M" transform="matrix(1 0 0 1 509.98 1126)">
   <path d="M12.9395-16.5039Q12.793-16.2598 12.6221-16.04Q12.4512-15.8203 12.4512-15.5762Q12.4512-15.2832 12.5977-15.0146Q12.7441-14.7461 13.0371-14.5752Q13.3301-14.4043 13.623-14.4043Q14.2578-14.4043 14.502-14.6973L50.9766-55.1758L48.5352-55.1758L84.9121-14.6973Q85.2051-14.4043 85.791-14.4043Q86.1328-14.4043 86.4014-14.5752Q86.6699-14.7461 86.8408-15.0146Q87.0117-15.2832 87.0117-15.5762Q87.0117-15.8691 86.5234-16.4062L51.0742-55.957Q50.7324-56.25 50.415-56.4941Q50.0977-56.7383 49.707-56.7383Q49.0723-56.7383 48.3398-56.0059Z"/>
  </g>
  <g id="Black-S" transform="matrix(1 0 0 1 2886.55 696)">
   <path d="M12.3047-27.9785Q9.76562-25.293 9.76562-21.7285Q9.76562-17.9688 12.4512-15.2344Q15.1367-12.5 18.8477-12.5Q22.7051-12.5 25.6836-15.5762L47.9004-38.7695L45.9961-38.7695L68.0664-15.5762Q70.9961-12.5 74.8535-12.5Q78.5645-12.5 81.25-15.2344Q83.9355-17.9688 83.9355-21.7285Q83.9355-25.4395 81.3965-27.9785L54.7363-55.3223Q51.123-58.8867 46.875-58.9355Q42.627-58.9355 39.0137-55.3223Z"/>
  </g>
  <g id="Heavy-S" transform="matrix(1 0 0 1 2590.55 696)">
   <path d="M11.9629-27.1973Q9.76562-24.9023 9.76562-21.7773Q9.76562-18.5059 12.085-16.1377Q14.4043-13.7695 17.6758-13.7695Q21.0449-13.7695 23.5352-16.4062L47.4609-41.1133L44.9707-41.1133L68.75-16.4062Q71.2402-13.7695 74.6094-13.7695Q77.8809-13.7695 80.2002-16.1377Q82.5195-18.5059 82.5195-21.7773Q82.5195-25.0488 80.2734-27.1973L52.832-55.2246Q49.8047-58.252 46.1426-58.3008Q42.4805-58.3008 39.4531-55.2246Z"/>
  </g>
  <g id="Bold-S" transform="matrix(1 0 0 1 2294.64 696)">
   <path d="M11.6211-26.3672Q9.76562-24.5117 9.76562-21.8262Q9.76562-19.0918 11.6943-17.1387Q13.623-15.1855 16.3574-15.1855Q19.1406-15.1855 21.1914-17.334L47.0215-43.7012L43.7988-43.7012L69.5312-17.334Q71.5332-15.1855 74.3652-15.1855Q77.0996-15.1855 79.0039-17.1387Q80.9082-19.0918 80.9082-21.8262Q80.9082-24.5605 79.0527-26.3672L50.7324-55.127Q48.3887-57.5195 45.3613-57.5684Q42.3828-57.5684 39.9902-55.127Z"/>
  </g>
  <g id="Semibold-S" transform="matrix(1 0 0 1 1998.49 696)">
   <path d="M11.377-25.7812Q9.76562-24.1699 9.76562-21.875Q9.76562-19.4824 11.4014-17.8223Q13.0371-16.1621 15.4297-16.1621Q17.8223-16.1621 19.5312-17.9199L46.6797-45.5078L42.9688-45.5078L70.0684-17.9199Q71.7285-16.1621 74.1699-16.1621Q76.5137-16.1621 78.1494-17.8223Q79.7852-19.4824 79.7852-21.875Q79.7852-24.2188 78.2227-25.7812L49.2676-55.0781Q47.3633-57.0312 44.8242-57.0312Q42.2363-57.0312 40.332-55.0781Z"/>
  </g>
  <g id="Medium-S" transform="matrix(1 0 0 1 1702.2 696)">
   <path d="M11.1816-25.3418Q9.76562-23.9746 9.76562-21.875Q9.76562-19.7754 11.1816-18.335Q12.5977-16.8945 14.7461-16.8945Q16.8457-16.8945 18.2617-18.4082L46.4355-46.875L42.334-46.875L70.459-18.4082Q71.875-16.8945 74.0723-16.8945Q76.123-16.8945 77.5391-18.335Q78.9551-19.7754 78.9551-21.875Q78.9551-23.9746 77.5391-25.3418L48.1934-54.9805Q46.582-56.6406 44.3848-56.6406Q42.1875-56.6406 40.625-54.9805Z"/>
  </g>
  <g id="Regular-S" transform="matrix(1 0 0 1 1406.02 696)">
   <path d="M10.9375-24.7559Q9.76562-23.6816 9.76562-21.9238Q9.76562-20.166 10.9131-19.0186Q12.0605-17.8711 13.8184-17.8711Q15.5762-17.8711 16.6504-19.043L46.0938-48.6328L41.5527-48.6328L70.9961-19.043Q72.0703-17.8711 73.877-17.8711Q75.5859-17.8711 76.7334-19.0186Q77.8809-20.166 77.8809-21.9238Q77.8809-23.6816 76.709-24.7559L46.7285-54.9316Q45.6055-56.1523 43.8477-56.1523Q42.0898-56.1523 40.9668-54.9316Z"/>
  </g>
  <g id="Light-S" transform="matrix(1 0 0 1 1110.82 696)">
   <path d="M10.6934-23.4375Q9.76562-22.5586 9.76562-21.2891Q9.76562-19.9219 10.6445-19.0674Q11.5234-18.2129 12.8418-18.2129Q14.209-18.2129 14.9902-19.0918L44.1895-49.3164L40.4297-49.3164L69.5801-19.0918Q70.4102-18.2129 71.8262-18.2129Q73.0957-18.2129 73.9746-19.0674Q74.8535-19.9219 74.8535-21.2891Q74.8535-22.5586 73.9258-23.4375L44.6289-53.8574Q43.6523-54.8828 42.334-54.8828Q40.9668-54.8828 39.9902-53.8574Z"/>
  </g>
  <g id="Thin-S" transform="matrix(1 0 0 1 816.115 696)">
   <path d="M10.3516-21.6797Q9.76562-21.0449 9.76562-20.4102Q9.76562-19.6289 10.2783-19.1162Q10.791-18.6035 11.5723-18.6035Q12.3535-18.6035 12.8418-19.0918L41.6504-50.2441L38.9648-50.2441L67.7734-19.0918Q68.2617-18.6035 69.043-18.6035Q69.8242-18.6035 70.3369-19.1162Q70.8496-19.6289 70.8496-20.4102Q70.8496-21.0938 70.2637-21.6797L41.8945-52.3926Q41.1133-53.2227 40.2832-53.2227Q39.4531-53.2227 38.7695-52.4414Z"/>
  </g>
  <g id="Ultralight-S" transform="matrix(1 0 0 1 520.429 696)">
   <path d="M10.2051-20.8008Q9.76562-20.2637 9.76562-19.9707Q9.76562-19.4824 10.1074-19.165Q10.4492-18.8477 10.8887-18.8477Q11.4258-18.8477 11.7188-19.1406L40.332-50.7324L38.2324-50.7324L66.7969-19.1406Q67.1387-18.8477 67.6758-18.8477Q68.1152-18.8477 68.457-19.165Q68.7988-19.4824 68.7988-19.9707Q68.7988-20.3125 68.4082-20.752L40.4785-51.6602Q39.7949-52.3438 39.2578-52.3438Q38.6719-52.3438 38.0859-51.709Z"/>
  </g>
 </g>
</svg>
