<?xml version="1.0" encoding="UTF-8"?>
<!--Generator: Apple Native CoreSVG 175-->
<!DOCTYPE svg
PUBLIC "-//W3C//DTD SVG 1.1//EN"
       "http://www.w3.org/Graphics/SVG/1.1/DTD/svg11.dtd">
<svg version="1.1" xmlns="http://www.w3.org/2000/svg" xmlns:xlink="http://www.w3.org/1999/xlink" width="3300" height="2200">
 <!--glyph: "uni1003B8.medium", point size: 100.0, font version: "17.0d11e1", template writer version: "65.1"-->
 <style>.hierarchical-0:secondary {fill:#4D4D4D}
.hierarchical-1:primary {fill:#212121}

.SFSymbolsPreview212121 {fill:#212121;opacity:1.0}
.SFSymbolsPreview4D4D4D {fill:#4D4D4D;opacity:1.0}
</style>
 <g id="Notes">
  <rect height="2200" id="artboard" style="fill:white;opacity:1" width="3300" x="0" y="0"/>
  <line style="fill:none;stroke:black;opacity:1;stroke-width:0.5;" x1="263" x2="3036" y1="292" y2="292"/>
  <text style="stroke:none;fill:black;font-family:sans-serif;font-size:13;font-weight:bold;" transform="matrix(1 0 0 1 263 322)">Weight/Scale Variations</text>
  <text style="stroke:none;fill:black;font-family:sans-serif;font-size:13;text-anchor:middle;" transform="matrix(1 0 0 1 559.711 322)">Ultralight</text>
  <text style="stroke:none;fill:black;font-family:sans-serif;font-size:13;text-anchor:middle;" transform="matrix(1 0 0 1 856.422 322)">Thin</text>
  <text style="stroke:none;fill:black;font-family:sans-serif;font-size:13;text-anchor:middle;" transform="matrix(1 0 0 1 1153.13 322)">Light</text>
  <text style="stroke:none;fill:black;font-family:sans-serif;font-size:13;text-anchor:middle;" transform="matrix(1 0 0 1 1449.84 322)">Regular</text>
  <text style="stroke:none;fill:black;font-family:sans-serif;font-size:13;text-anchor:middle;" transform="matrix(1 0 0 1 1746.56 322)">Medium</text>
  <text style="stroke:none;fill:black;font-family:sans-serif;font-size:13;text-anchor:middle;" transform="matrix(1 0 0 1 2043.27 322)">Semibold</text>
  <text style="stroke:none;fill:black;font-family:sans-serif;font-size:13;text-anchor:middle;" transform="matrix(1 0 0 1 2339.98 322)">Bold</text>
  <text style="stroke:none;fill:black;font-family:sans-serif;font-size:13;text-anchor:middle;" transform="matrix(1 0 0 1 2636.69 322)">Heavy</text>
  <text style="stroke:none;fill:black;font-family:sans-serif;font-size:13;text-anchor:middle;" transform="matrix(1 0 0 1 2933.4 322)">Black</text>
  <line style="fill:none;stroke:black;opacity:1;stroke-width:0.5;" x1="263" x2="3036" y1="1903" y2="1903"/>
  <g transform="matrix(1 0 0 1 263 1933)">
   <path d="M9.24805 0.830078Q10.8691 0.830078 12.2949 0.214844Q13.7207-0.400391 14.8096-1.49414Q15.8984-2.58789 16.5186-4.01367Q17.1387-5.43945 17.1387-7.05078Q17.1387-8.66211 16.5186-10.0879Q15.8984-11.5137 14.8047-12.6074Q13.7109-13.7012 12.2852-14.3164Q10.8594-14.9316 9.23828-14.9316Q7.62695-14.9316 6.20117-14.3164Q4.77539-13.7012 3.69141-12.6074Q2.60742-11.5137 1.9873-10.0879Q1.36719-8.66211 1.36719-7.05078Q1.36719-5.43945 1.9873-4.01367Q2.60742-2.58789 3.69629-1.49414Q4.78516-0.400391 6.21094 0.214844Q7.63672 0.830078 9.24805 0.830078ZM9.24805-0.654297Q7.91992-0.654297 6.7627-1.14746Q5.60547-1.64062 4.73145-2.51953Q3.85742-3.39844 3.36426-4.56055Q2.87109-5.72266 2.87109-7.05078Q2.87109-8.37891 3.35938-9.54102Q3.84766-10.7031 4.72168-11.582Q5.5957-12.4609 6.75293-12.9541Q7.91016-13.4473 9.23828-13.4473Q10.5762-13.4473 11.7334-12.9541Q12.8906-12.4609 13.7695-11.582Q14.6484-10.7031 15.1465-9.54102Q15.6445-8.37891 15.6445-7.05078Q15.6445-5.72266 15.1514-4.56055Q14.6582-3.39844 13.7842-2.51953Q12.9102-1.64062 11.748-1.14746Q10.5859-0.654297 9.24805-0.654297ZM5.6543-7.05078Q5.6543-6.72852 5.85938-6.52832Q6.06445-6.32812 6.40625-6.32812L8.51562-6.32812L8.51562-4.20898Q8.51562-3.88672 8.71094-3.67676Q8.90625-3.4668 9.23828-3.4668Q9.56055-3.4668 9.77051-3.67676Q9.98047-3.88672 9.98047-4.20898L9.98047-6.32812L12.0898-6.32812Q12.4219-6.32812 12.627-6.52832Q12.832-6.72852 12.832-7.05078Q12.832-7.38281 12.627-7.58789Q12.4219-7.79297 12.0898-7.79297L9.98047-7.79297L9.98047-9.90234Q9.98047-10.2344 9.77051-10.4443Q9.56055-10.6543 9.23828-10.6543Q8.90625-10.6543 8.71094-10.4443Q8.51562-10.2344 8.51562-9.90234L8.51562-7.79297L6.40625-7.79297Q6.06445-7.79297 5.85938-7.58789Q5.6543-7.38281 5.6543-7.05078Z"/>
  </g>
  <g transform="matrix(1 0 0 1 281.867 1933)">
   <path d="M11.709 2.91016Q13.75 2.91016 15.5518 2.12891Q17.3535 1.34766 18.7305-0.0292969Q20.1074-1.40625 20.8887-3.20801Q21.6699-5.00977 21.6699-7.05078Q21.6699-9.0918 20.8887-10.8936Q20.1074-12.6953 18.7305-14.0723Q17.3535-15.4492 15.5469-16.2305Q13.7402-17.0117 11.6992-17.0117Q9.6582-17.0117 7.85645-16.2305Q6.05469-15.4492 4.68262-14.0723Q3.31055-12.6953 2.5293-10.8936Q1.74805-9.0918 1.74805-7.05078Q1.74805-5.00977 2.5293-3.20801Q3.31055-1.40625 4.6875-0.0292969Q6.06445 1.34766 7.86621 2.12891Q9.66797 2.91016 11.709 2.91016ZM11.709 1.25Q9.98047 1.25 8.47656 0.605469Q6.97266-0.0390625 5.83496-1.17676Q4.69727-2.31445 4.05762-3.81836Q3.41797-5.32227 3.41797-7.05078Q3.41797-8.7793 4.05762-10.2832Q4.69727-11.7871 5.83008-12.9297Q6.96289-14.0723 8.4668-14.7119Q9.9707-15.3516 11.6992-15.3516Q13.4277-15.3516 14.9316-14.7119Q16.4355-14.0723 17.5781-12.9297Q18.7207-11.7871 19.3652-10.2832Q20.0098-8.7793 20.0098-7.05078Q20.0098-5.32227 19.3701-3.81836Q18.7305-2.31445 17.5928-1.17676Q16.4551-0.0390625 14.9463 0.605469Q13.4375 1.25 11.709 1.25ZM7.17773-7.05078Q7.17773-6.69922 7.41211-6.47461Q7.64648-6.25 8.01758-6.25L10.8887-6.25L10.8887-3.36914Q10.8887-2.99805 11.1133-2.76855Q11.3379-2.53906 11.6895-2.53906Q12.0605-2.53906 12.29-2.76855Q12.5195-2.99805 12.5195-3.36914L12.5195-6.25L15.4004-6.25Q15.7715-6.25 16.001-6.47461Q16.2305-6.69922 16.2305-7.05078Q16.2305-7.42188 16.001-7.65137Q15.7715-7.88086 15.4004-7.88086L12.5195-7.88086L12.5195-10.752Q12.5195-11.1328 12.29-11.3623Q12.0605-11.5918 11.6895-11.5918Q11.3379-11.5918 11.1133-11.3574Q10.8887-11.123 10.8887-10.752L10.8887-7.88086L8.01758-7.88086Q7.63672-7.88086 7.40723-7.65137Q7.17773-7.42188 7.17773-7.05078Z"/>
  </g>
  <g transform="matrix(1 0 0 1 305.646 1933)">
   <path d="M14.9707 5.66406Q17.0605 5.66406 18.96 5.01465Q20.8594 4.36523 22.4512 3.19336Q24.043 2.02148 25.2197 0.429688Q26.3965-1.16211 27.0459-3.06641Q27.6953-4.9707 27.6953-7.05078Q27.6953-9.14062 27.0459-11.04Q26.3965-12.9395 25.2197-14.5312Q24.043-16.123 22.4512-17.2998Q20.8594-18.4766 18.9551-19.126Q17.0508-19.7754 14.9609-19.7754Q12.8711-19.7754 10.9717-19.126Q9.07227-18.4766 7.48535-17.2998Q5.89844-16.123 4.72168-14.5312Q3.54492-12.9395 2.90039-11.04Q2.25586-9.14062 2.25586-7.05078Q2.25586-4.9707 2.90527-3.06641Q3.55469-1.16211 4.72656 0.429688Q5.89844 2.02148 7.49023 3.19336Q9.08203 4.36523 10.9814 5.01465Q12.8809 5.66406 14.9707 5.66406ZM14.9707 3.84766Q13.1641 3.84766 11.5283 3.2959Q9.89258 2.74414 8.53516 1.74805Q7.17773 0.751953 6.17676-0.610352Q5.17578-1.97266 4.62891-3.6084Q4.08203-5.24414 4.08203-7.05078Q4.08203-8.86719 4.62891-10.5029Q5.17578-12.1387 6.17188-13.501Q7.16797-14.8633 8.52539-15.8594Q9.88281-16.8555 11.5186-17.4023Q13.1543-17.9492 14.9609-17.9492Q16.7773-17.9492 18.4131-17.4023Q20.0488-16.8555 21.4111-15.8594Q22.7734-14.8633 23.7695-13.501Q24.7656-12.1387 25.3174-10.5029Q25.8691-8.86719 25.8691-7.05078Q25.8789-5.24414 25.332-3.6084Q24.7852-1.97266 23.7842-0.610352Q22.7832 0.751953 21.4209 1.74805Q20.0586 2.74414 18.4229 3.2959Q16.7871 3.84766 14.9707 3.84766ZM9.19922-7.05078Q9.19922-6.66992 9.45801-6.4209Q9.7168-6.17188 10.1172-6.17188L14.0625-6.17188L14.0625-2.2168Q14.0625-1.81641 14.3115-1.55762Q14.5605-1.29883 14.9512-1.29883Q15.3516-1.29883 15.6104-1.55273Q15.8691-1.80664 15.8691-2.2168L15.8691-6.17188L19.8242-6.17188Q20.2246-6.17188 20.4785-6.4209Q20.7324-6.66992 20.7324-7.05078Q20.7324-7.46094 20.4785-7.71484Q20.2246-7.96875 19.8242-7.96875L15.8691-7.96875L15.8691-11.9141Q15.8691-12.3242 15.6104-12.583Q15.3516-12.8418 14.9512-12.8418Q14.5605-12.8418 14.3115-12.583Q14.0625-12.3242 14.0625-11.9141L14.0625-7.96875L10.1172-7.96875Q9.70703-7.96875 9.45312-7.71484Q9.19922-7.46094 9.19922-7.05078Z"/>
  </g>
  <text style="stroke:none;fill:black;font-family:sans-serif;font-size:13;font-weight:bold;" transform="matrix(1 0 0 1 263 1953)">Design Variations</text>
  <text style="stroke:none;fill:black;font-family:sans-serif;font-size:13;" transform="matrix(1 0 0 1 263 1971)">Symbols are supported in up to nine weights and three scales.</text>
  <text style="stroke:none;fill:black;font-family:sans-serif;font-size:13;" transform="matrix(1 0 0 1 263 1989)">For optimal layout with text and other symbols, vertically align</text>
  <text style="stroke:none;fill:black;font-family:sans-serif;font-size:13;" transform="matrix(1 0 0 1 263 2007)">symbols with the adjacent text.</text>
  <line style="fill:none;stroke:#00AEEF;stroke-width:0.5;opacity:1.0;" x1="776" x2="776" y1="1919" y2="1933"/>
  <g transform="matrix(1 0 0 1 776 1933)">
   <path d="M3.31055 0.15625Q3.70117 0.15625 3.91602-0.00976562Q4.13086-0.175781 4.26758-0.585938L5.52734-4.0332L11.2891-4.0332L12.5488-0.585938Q12.6855-0.175781 12.9004-0.00976562Q13.1152 0.15625 13.4961 0.15625Q13.8867 0.15625 14.1162-0.0585938Q14.3457-0.273438 14.3457-0.644531Q14.3457-0.869141 14.2383-1.17188L9.6582-13.3691Q9.48242-13.8184 9.17969-14.043Q8.87695-14.2676 8.4082-14.2676Q7.5-14.2676 7.17773-13.3789L2.59766-1.16211Q2.49023-0.859375 2.49023-0.634766Q2.49023-0.263672 2.70996-0.0537109Q2.92969 0.15625 3.31055 0.15625ZM6.00586-5.51758L8.37891-12.0898L8.42773-12.0898L10.8008-5.51758Z"/>
  </g>
  <line style="fill:none;stroke:#00AEEF;stroke-width:0.5;opacity:1.0;" x1="793.197" x2="793.197" y1="1919" y2="1933"/>
  <text style="stroke:none;fill:black;font-family:sans-serif;font-size:13;font-weight:bold;" transform="matrix(1 0 0 1 776 1953)">Margins</text>
  <text style="stroke:none;fill:black;font-family:sans-serif;font-size:13;" transform="matrix(1 0 0 1 776 1971)">Leading and trailing margins on the left and right side of each symbol</text>
  <text style="stroke:none;fill:black;font-family:sans-serif;font-size:13;" transform="matrix(1 0 0 1 776 1989)">can be adjusted by modifying the x-location of the margin guidelines.</text>
  <text style="stroke:none;fill:black;font-family:sans-serif;font-size:13;" transform="matrix(1 0 0 1 776 2007)">Modifications are automatically applied proportionally to all</text>
  <text style="stroke:none;fill:black;font-family:sans-serif;font-size:13;" transform="matrix(1 0 0 1 776 2025)">scales and weights.</text>
  <g transform="matrix(1 0 0 1 1289 1933)">
   <path d="M2.8418 1.86523L4.54102 3.57422Q5.18555 4.22852 5.90332 4.17969Q6.62109 4.13086 7.31445 3.35938L18.0078-8.42773L17.041-9.4043L6.42578 2.27539Q6.16211 2.57812 5.89355 2.61719Q5.625 2.65625 5.27344 2.30469L4.10156 1.14258Q3.75 0.791016 3.79395 0.522461Q3.83789 0.253906 4.14062-0.0195312L15.6152-10.8203L14.6387-11.7871L3.04688-0.898438Q2.30469-0.214844 2.25098 0.498047Q2.19727 1.21094 2.8418 1.86523ZM9.25781-16.3281Q8.94531-16.0254 8.90625-15.6348Q8.86719-15.2441 9.04297-14.9512Q9.21875-14.6777 9.55566-14.541Q9.89258-14.4043 10.3809-14.5215Q11.4746-14.7754 12.5977-14.7314Q13.7207-14.6875 14.7949-13.9844L14.209-12.5293Q13.9551-11.9043 14.0674-11.4404Q14.1797-10.9766 14.5801-10.5664L16.875-8.25195Q17.2363-7.88086 17.5781-7.82227Q17.9199-7.76367 18.3398-7.8418L19.4043-8.03711L20.0684-7.36328L20.0293-6.80664Q20-6.43555 20.1221-6.12305Q20.2441-5.81055 20.6055-5.44922L21.3672-4.70703Q21.7285-4.3457 22.1533-4.33105Q22.5781-4.31641 22.9297-4.66797L25.8398-7.58789Q26.1914-7.93945 26.1816-8.35449Q26.1719-8.76953 25.8105-9.13086L25.0391-9.89258Q24.6875-10.2539 24.3799-10.3857Q24.0723-10.5176 23.7109-10.4883L23.1348-10.4395L22.4902-11.0742L22.7344-12.1973Q22.832-12.6172 22.6953-12.9834Q22.5586-13.3496 22.1191-13.7891L19.9219-15.9766Q18.6719-17.2168 17.2607-17.8369Q15.8496-18.457 14.4189-18.4814Q12.9883-18.5059 11.665-17.959Q10.3418-17.4121 9.25781-16.3281ZM10.752-15.957Q11.6602-16.6211 12.7002-16.9043Q13.7402-17.1875 14.8047-17.085Q15.8691-16.9824 16.8701-16.5137Q17.8711-16.0449 18.7012-15.2051L21.1328-12.793Q21.3086-12.6172 21.3525-12.4512Q21.3965-12.2852 21.3379-12.0312L21.0156-10.5469L22.5195-9.0625L23.5059-9.12109Q23.6914-9.13086 23.7891-9.09668Q23.8867-9.0625 24.0332-8.91602L24.6094-8.33984L22.168-5.89844L21.5918-6.47461Q21.4453-6.62109 21.4062-6.71875Q21.3672-6.81641 21.377-7.01172L21.4453-7.98828L19.9512-9.47266L18.4277-9.21875Q18.1836-9.16992 18.042-9.2041Q17.9004-9.23828 17.7148-9.41406L15.7129-11.416Q15.5176-11.5918 15.4932-11.7529Q15.4688-11.9141 15.5859-12.1875L16.4648-14.2773Q15.293-15.3711 13.8281-15.791Q12.3633-16.2109 10.8398-15.7617Q10.7227-15.7324 10.6885-15.8057Q10.6543-15.8789 10.752-15.957Z"/>
  </g>
  <text style="stroke:none;fill:black;font-family:sans-serif;font-size:13;font-weight:bold;" transform="matrix(1 0 0 1 1289 1953)">Exporting</text>
  <text style="stroke:none;fill:black;font-family:sans-serif;font-size:13;" transform="matrix(1 0 0 1 1289 1971)">Symbols should be outlined when exporting to ensure the</text>
  <text style="stroke:none;fill:black;font-family:sans-serif;font-size:13;" transform="matrix(1 0 0 1 1289 1989)">design is preserved when submitting to Xcode.</text>
  <text id="template-version" style="stroke:none;fill:black;font-family:sans-serif;font-size:13;text-anchor:end;" transform="matrix(1 0 0 1 3036 1933)">Template v.3.0</text>
  <text style="stroke:none;fill:black;font-family:sans-serif;font-size:13;text-anchor:end;" transform="matrix(1 0 0 1 3036 1951)">Requires Xcode 13 or greater</text>
  <text id="descriptive-name" style="stroke:none;fill:black;font-family:sans-serif;font-size:13;text-anchor:end;" transform="matrix(1 0 0 1 3036 1969)">Generated from face.smiling</text>
  <text style="stroke:none;fill:black;font-family:sans-serif;font-size:13;text-anchor:end;" transform="matrix(1 0 0 1 3036 1987)">Typeset at 100 points</text>
  <text style="stroke:none;fill:black;font-family:sans-serif;font-size:13;" transform="matrix(1 0 0 1 263 726)">Small</text>
  <text style="stroke:none;fill:black;font-family:sans-serif;font-size:13;" transform="matrix(1 0 0 1 263 1156)">Medium</text>
  <text style="stroke:none;fill:black;font-family:sans-serif;font-size:13;" transform="matrix(1 0 0 1 263 1586)">Large</text>
 </g>
 <g id="Guides">
  <g id="H-reference" style="fill:#27AAE1;stroke:none;" transform="matrix(1 0 0 1 339 696)">
   <path d="M0.976562 0L3.66211 0L29.3457-67.1387L30.0293-67.1387L30.0293-70.459L28.125-70.459ZM11.6699-24.4629L46.9727-24.4629L46.2402-26.709L12.4512-26.709ZM55.127 0L57.7637 0L30.6152-70.459L29.4434-70.459L29.4434-67.1387Z"/>
  </g>
  <line id="Baseline-S" style="fill:none;stroke:#27AAE1;opacity:1;stroke-width:0.5;" x1="263" x2="3036" y1="696" y2="696"/>
  <line id="Capline-S" style="fill:none;stroke:#27AAE1;opacity:1;stroke-width:0.5;" x1="263" x2="3036" y1="625.541" y2="625.541"/>
  <g id="H-reference" style="fill:#27AAE1;stroke:none;" transform="matrix(1 0 0 1 339 1126)">
   <path d="M0.976562 0L3.66211 0L29.3457-67.1387L30.0293-67.1387L30.0293-70.459L28.125-70.459ZM11.6699-24.4629L46.9727-24.4629L46.2402-26.709L12.4512-26.709ZM55.127 0L57.7637 0L30.6152-70.459L29.4434-70.459L29.4434-67.1387Z"/>
  </g>
  <line id="Baseline-M" style="fill:none;stroke:#27AAE1;opacity:1;stroke-width:0.5;" x1="263" x2="3036" y1="1126" y2="1126"/>
  <line id="Capline-M" style="fill:none;stroke:#27AAE1;opacity:1;stroke-width:0.5;" x1="263" x2="3036" y1="1055.54" y2="1055.54"/>
  <g id="H-reference" style="fill:#27AAE1;stroke:none;" transform="matrix(1 0 0 1 339 1556)">
   <path d="M0.976562 0L3.66211 0L29.3457-67.1387L30.0293-67.1387L30.0293-70.459L28.125-70.459ZM11.6699-24.4629L46.9727-24.4629L46.2402-26.709L12.4512-26.709ZM55.127 0L57.7637 0L30.6152-70.459L29.4434-70.459L29.4434-67.1387Z"/>
  </g>
  <line id="Baseline-L" style="fill:none;stroke:#27AAE1;opacity:1;stroke-width:0.5;" x1="263" x2="3036" y1="1556" y2="1556"/>
  <line id="Capline-L" style="fill:none;stroke:#27AAE1;opacity:1;stroke-width:0.5;" x1="263" x2="3036" y1="1485.54" y2="1485.54"/>
  <line id="left-margin-Ultralight-S" style="fill:none;stroke:#00AEEF;stroke-width:0.5;opacity:1.0;" x1="515.644" x2="515.644" y1="600.785" y2="720.121"/>
  <line id="right-margin-Ultralight-S" style="fill:none;stroke:#00AEEF;stroke-width:0.5;opacity:1.0;" x1="603.778" x2="603.778" y1="600.785" y2="720.121"/>
  <line id="left-margin-Thin-S" style="fill:none;stroke:#00AEEF;stroke-width:0.5;opacity:1.0;" x1="811.867" x2="811.867" y1="600.785" y2="720.121"/>
  <line id="right-margin-Thin-S" style="fill:none;stroke:#00AEEF;stroke-width:0.5;opacity:1.0;" x1="900.978" x2="900.978" y1="600.785" y2="720.121"/>
  <line id="left-margin-Light-S" style="fill:none;stroke:#00AEEF;stroke-width:0.5;opacity:1.0;" x1="1107.6" x2="1107.6" y1="600.785" y2="720.121"/>
  <line id="right-margin-Light-S" style="fill:none;stroke:#00AEEF;stroke-width:0.5;opacity:1.0;" x1="1198.67" x2="1198.67" y1="600.785" y2="720.121"/>
  <line id="left-margin-Regular-S" style="fill:none;stroke:#00AEEF;stroke-width:0.5;opacity:1.0;" x1="1403.58" x2="1403.58" y1="600.785" y2="720.121"/>
  <line id="right-margin-Regular-S" style="fill:none;stroke:#00AEEF;stroke-width:0.5;opacity:1.0;" x1="1496.11" x2="1496.11" y1="600.785" y2="720.121"/>
  <line id="left-margin-Medium-S" style="fill:none;stroke:#00AEEF;stroke-width:0.5;opacity:1.0;" x1="1699.83" x2="1699.83" y1="600.785" y2="720.121"/>
  <line id="right-margin-Medium-S" style="fill:none;stroke:#00AEEF;stroke-width:0.5;opacity:1.0;" x1="1793.28" x2="1793.28" y1="600.785" y2="720.121"/>
  <line id="left-margin-Semibold-S" style="fill:none;stroke:#00AEEF;stroke-width:0.5;opacity:1.0;" x1="1996.2" x2="1996.2" y1="600.785" y2="720.121"/>
  <line id="right-margin-Semibold-S" style="fill:none;stroke:#00AEEF;stroke-width:0.5;opacity:1.0;" x1="2090.34" x2="2090.34" y1="600.785" y2="720.121"/>
  <line id="left-margin-Bold-S" style="fill:none;stroke:#00AEEF;stroke-width:0.5;opacity:1.0;" x1="2292.42" x2="2292.42" y1="600.785" y2="720.121"/>
  <line id="right-margin-Bold-S" style="fill:none;stroke:#00AEEF;stroke-width:0.5;opacity:1.0;" x1="2387.54" x2="2387.54" y1="600.785" y2="720.121"/>
  <line id="left-margin-Heavy-S" style="fill:none;stroke:#00AEEF;stroke-width:0.5;opacity:1.0;" x1="2588.47" x2="2588.47" y1="600.785" y2="720.121"/>
  <line id="right-margin-Heavy-S" style="fill:none;stroke:#00AEEF;stroke-width:0.5;opacity:1.0;" x1="2684.91" x2="2684.91" y1="600.785" y2="720.121"/>
  <line id="left-margin-Black-S" style="fill:none;stroke:#00AEEF;stroke-width:0.5;opacity:1.0;" x1="2884.57" x2="2884.57" y1="600.785" y2="720.121"/>
  <line id="right-margin-Black-S" style="fill:none;stroke:#00AEEF;stroke-width:0.5;opacity:1.0;" x1="2982.23" x2="2982.23" y1="600.785" y2="720.121"/>
  <line id="left-margin-Ultralight-M" style="fill:none;stroke:#00AEEF;stroke-width:0.5;opacity:1.0;" x1="503.632" x2="503.632" y1="1030.79" y2="1150.12"/>
  <line id="right-margin-Ultralight-M" style="fill:none;stroke:#00AEEF;stroke-width:0.5;opacity:1.0;" x1="615.79" x2="615.79" y1="1030.79" y2="1150.12"/>
  <line id="left-margin-Thin-M" style="fill:none;stroke:#00AEEF;stroke-width:0.5;opacity:1.0;" x1="799.782" x2="799.782" y1="1030.79" y2="1150.12"/>
  <line id="right-margin-Thin-M" style="fill:none;stroke:#00AEEF;stroke-width:0.5;opacity:1.0;" x1="913.063" x2="913.063" y1="1030.79" y2="1150.12"/>
  <line id="left-margin-Light-M" style="fill:none;stroke:#00AEEF;stroke-width:0.5;opacity:1.0;" x1="1095.42" x2="1095.42" y1="1030.79" y2="1150.12"/>
  <line id="right-margin-Light-M" style="fill:none;stroke:#00AEEF;stroke-width:0.5;opacity:1.0;" x1="1210.85" x2="1210.85" y1="1030.79" y2="1150.12"/>
  <line id="left-margin-Regular-M" style="fill:none;stroke:#00AEEF;stroke-width:0.5;opacity:1.0;" x1="1391.3" x2="1391.3" y1="1030.79" y2="1150.12"/>
  <line id="right-margin-Regular-M" style="fill:none;stroke:#00AEEF;stroke-width:0.5;opacity:1.0;" x1="1508.39" x2="1508.39" y1="1030.79" y2="1150.12"/>
  <line id="left-margin-Medium-M" style="fill:none;stroke:#00AEEF;stroke-width:0.5;opacity:1.0;" x1="1687.38" x2="1687.38" y1="1030.79" y2="1150.12"/>
  <line id="right-margin-Medium-M" style="fill:none;stroke:#00AEEF;stroke-width:0.5;opacity:1.0;" x1="1805.74" x2="1805.74" y1="1030.79" y2="1150.12"/>
  <line id="left-margin-Semibold-M" style="fill:none;stroke:#00AEEF;stroke-width:0.5;opacity:1.0;" x1="1983.6" x2="1983.6" y1="1030.79" y2="1150.12"/>
  <line id="right-margin-Semibold-M" style="fill:none;stroke:#00AEEF;stroke-width:0.5;opacity:1.0;" x1="2102.93" x2="2102.93" y1="1030.79" y2="1150.12"/>
  <line id="left-margin-Bold-M" style="fill:none;stroke:#00AEEF;stroke-width:0.5;opacity:1.0;" x1="2279.65" x2="2279.65" y1="1030.79" y2="1150.12"/>
  <line id="right-margin-Bold-M" style="fill:none;stroke:#00AEEF;stroke-width:0.5;opacity:1.0;" x1="2400.3" x2="2400.3" y1="1030.79" y2="1150.12"/>
  <line id="left-margin-Heavy-M" style="fill:none;stroke:#00AEEF;stroke-width:0.5;opacity:1.0;" x1="2575.43" x2="2575.43" y1="1030.79" y2="1150.12"/>
  <line id="right-margin-Heavy-M" style="fill:none;stroke:#00AEEF;stroke-width:0.5;opacity:1.0;" x1="2697.94" x2="2697.94" y1="1030.79" y2="1150.12"/>
  <line id="left-margin-Black-M" style="fill:none;stroke:#00AEEF;stroke-width:0.5;opacity:1.0;" x1="2871.32" x2="2871.32" y1="1030.79" y2="1150.12"/>
  <line id="right-margin-Black-M" style="fill:none;stroke:#00AEEF;stroke-width:0.5;opacity:1.0;" x1="2995.48" x2="2995.48" y1="1030.79" y2="1150.12"/>
  <line id="left-margin-Ultralight-L" style="fill:none;stroke:#00AEEF;stroke-width:0.5;opacity:1.0;" x1="487.592" x2="487.592" y1="1460.79" y2="1580.12"/>
  <line id="right-margin-Ultralight-L" style="fill:none;stroke:#00AEEF;stroke-width:0.5;opacity:1.0;" x1="631.83" x2="631.83" y1="1460.79" y2="1580.12"/>
  <line id="left-margin-Thin-L" style="fill:none;stroke:#00AEEF;stroke-width:0.5;opacity:1.0;" x1="783.693" x2="783.693" y1="1460.79" y2="1580.12"/>
  <line id="right-margin-Thin-L" style="fill:none;stroke:#00AEEF;stroke-width:0.5;opacity:1.0;" x1="929.152" x2="929.152" y1="1460.79" y2="1580.12"/>
  <line id="left-margin-Light-L" style="fill:none;stroke:#00AEEF;stroke-width:0.5;opacity:1.0;" x1="1079.18" x2="1079.18" y1="1460.79" y2="1580.12"/>
  <line id="right-margin-Light-L" style="fill:none;stroke:#00AEEF;stroke-width:0.5;opacity:1.0;" x1="1227.08" x2="1227.08" y1="1460.79" y2="1580.12"/>
  <line id="left-margin-Regular-L" style="fill:none;stroke:#00AEEF;stroke-width:0.5;opacity:1.0;" x1="1374.97" x2="1374.97" y1="1460.79" y2="1580.12"/>
  <line id="right-margin-Regular-L" style="fill:none;stroke:#00AEEF;stroke-width:0.5;opacity:1.0;" x1="1524.72" x2="1524.72" y1="1460.79" y2="1580.12"/>
  <line id="left-margin-Medium-L" style="fill:none;stroke:#00AEEF;stroke-width:0.5;opacity:1.0;" x1="1670.87" x2="1670.87" y1="1460.79" y2="1580.12"/>
  <line id="right-margin-Medium-L" style="fill:none;stroke:#00AEEF;stroke-width:0.5;opacity:1.0;" x1="1822.24" x2="1822.24" y1="1460.79" y2="1580.12"/>
  <line id="left-margin-Semibold-L" style="fill:none;stroke:#00AEEF;stroke-width:0.5;opacity:1.0;" x1="1966.97" x2="1966.97" y1="1460.79" y2="1580.12"/>
  <line id="right-margin-Semibold-L" style="fill:none;stroke:#00AEEF;stroke-width:0.5;opacity:1.0;" x1="2119.56" x2="2119.56" y1="1460.79" y2="1580.12"/>
  <line id="left-margin-Bold-L" style="fill:none;stroke:#00AEEF;stroke-width:0.5;opacity:1.0;" x1="2262.85" x2="2262.85" y1="1460.79" y2="1580.12"/>
  <line id="right-margin-Bold-L" style="fill:none;stroke:#00AEEF;stroke-width:0.5;opacity:1.0;" x1="2417.1" x2="2417.1" y1="1460.79" y2="1580.12"/>
  <line id="left-margin-Heavy-L" style="fill:none;stroke:#00AEEF;stroke-width:0.5;opacity:1.0;" x1="2558.39" x2="2558.39" y1="1460.79" y2="1580.12"/>
  <line id="right-margin-Heavy-L" style="fill:none;stroke:#00AEEF;stroke-width:0.5;opacity:1.0;" x1="2714.98" x2="2714.98" y1="1460.79" y2="1580.12"/>
  <line id="left-margin-Black-L" style="fill:none;stroke:#00AEEF;stroke-width:0.5;opacity:1.0;" x1="2854.05" x2="2854.05" y1="1460.79" y2="1580.12"/>
  <line id="right-margin-Black-L" style="fill:none;stroke:#00AEEF;stroke-width:0.5;opacity:1.0;" x1="3012.75" x2="3012.75" y1="1460.79" y2="1580.12"/>
 </g>
 <g id="Symbols">
  <g id="Black-L" transform="matrix(1 0 0 1 2854.05 1556)">
   <path class="hierarchical-0:secondary SFSymbolsPreview4D4D4D" d="M79.3457 32.8613Q90.5762 32.8613 100.757 29.3945Q110.938 25.9277 119.458 19.6777Q127.979 13.4277 134.229 4.90723Q140.479-3.61328 143.945-13.7939Q147.412-23.9746 147.412-35.2051Q147.412-46.4355 143.945-56.6162Q140.479-66.7969 134.204-75.3174Q127.93-83.8379 119.434-90.1123Q110.938-96.3867 100.732-99.8291Q90.5273-103.271 79.2969-103.271Q68.1152-103.271 57.9102-99.8291Q47.7051-96.3867 39.209-90.1123Q30.7129-83.8379 24.4385-75.3174Q18.1641-66.7969 14.7217-56.6162Q11.2793-46.4355 11.2793-35.2051Q11.2793-23.9746 14.7217-13.7939Q18.1641-3.61328 24.4385 4.90723Q30.7129 13.4277 39.2334 19.6777Q47.7539 25.9277 57.9346 29.3945Q68.1152 32.8613 79.3457 32.8613ZM79.3457 12.4023Q71.4355 12.4023 64.2822 10.0098Q57.1289 7.61719 51.1963 3.24707Q45.2637-1.12305 40.8936-7.08008Q36.5234-13.0371 34.1309-20.166Q31.7383-27.2949 31.7383-35.2051Q31.7383-43.1152 34.1309-50.2686Q36.5234-57.4219 40.8936-63.3545Q45.2637-69.2871 51.1963-73.6572Q57.1289-78.0273 64.2578-80.4199Q71.3867-82.8125 79.2969-82.8125Q87.207-82.8125 94.3604-80.4199Q101.514-78.0273 107.471-73.6572Q113.428-69.2871 117.798-63.3545Q122.168-57.4219 124.561-50.2686Q126.953-43.1152 126.953-35.2051Q126.953-27.2949 124.561-20.166Q122.168-13.0371 117.798-7.08008Q113.428-1.12305 107.495 3.24707Q101.562 7.61719 94.4092 10.0098Q87.2559 12.4023 79.3457 12.4023Z"/>
   <path class="hierarchical-1:primary SFSymbolsPreview212121" d="M79.2969-6.05469Q84.3262-6.05469 88.4521-7.4707Q92.5781-8.88672 95.5566-11.0352Q98.5352-13.1836 100.146-15.4053Q101.758-17.627 101.758-19.2383Q101.758-20.5078 100.708-21.0449Q99.6582-21.582 98.3887-21.0449Q94.7754-19.4824 90.4785-17.7979Q86.1816-16.1133 79.2969-16.1133Q72.4121-16.1133 68.0664-17.749Q63.7207-19.3848 60.2051-21.0449Q58.9355-21.6309 57.8857-21.0693Q56.8359-20.5078 56.8359-19.2383Q56.8359-17.627 58.4473-15.4053Q60.0586-13.1836 63.0127-11.0352Q65.9668-8.88672 70.0928-7.4707Q74.2188-6.05469 79.2969-6.05469ZM61.0352-41.1133Q63.9648-41.1133 66.1377-43.457Q68.3105-45.8008 68.3105-49.4141Q68.3105-53.125 66.1377-55.4688Q63.9648-57.8125 61.0352-57.8125Q58.1055-57.8125 55.9814-55.4688Q53.8574-53.125 53.8574-49.4141Q53.8574-45.8008 55.9814-43.457Q58.1055-41.1133 61.0352-41.1133ZM97.5098-41.1133Q100.439-41.1133 102.637-43.457Q104.834-45.8008 104.834-49.4141Q104.834-53.125 102.637-55.4688Q100.439-57.8125 97.5098-57.8125Q94.5801-57.8125 92.4561-55.4688Q90.332-53.125 90.332-49.4141Q90.332-45.8008 92.4561-43.457Q94.5801-41.1133 97.5098-41.1133Z"/>
  </g>
  <g id="Heavy-L" transform="matrix(1 0 0 1 2558.39 1556)">
   <path class="hierarchical-0:secondary SFSymbolsPreview4D4D4D" d="M78.2715 31.7871Q89.3555 31.7871 99.3652 28.3691Q109.375 24.9512 117.749 18.7988Q126.123 12.6465 132.3 4.24805Q138.477-4.15039 141.895-14.1602Q145.312-24.1699 145.312-35.2051Q145.312-46.2402 141.895-56.2744Q138.477-66.3086 132.3-74.6826Q126.123-83.0566 117.749-89.2578Q109.375-95.459 99.3408-98.8525Q89.3066-102.246 78.2227-102.246Q67.2363-102.246 57.2021-98.8525Q47.168-95.459 38.7939-89.2578Q30.4199-83.0566 24.2432-74.6826Q18.0664-66.3086 14.6729-56.2744Q11.2793-46.2402 11.2793-35.2051Q11.2793-24.1699 14.6729-14.1602Q18.0664-4.15039 24.2432 4.24805Q30.4199 12.6465 38.8184 18.7988Q47.2168 24.9512 57.2266 28.3691Q67.2363 31.7871 78.2715 31.7871ZM78.2715 14.0137Q70.1172 14.0137 62.7197 11.5479Q55.3223 9.08203 49.1943 4.56543Q43.0664 0.0488281 38.5498-6.12793Q34.0332-12.3047 31.543-19.6777Q29.0527-27.0508 29.0527-35.2051Q29.0527-43.4082 31.543-50.8057Q34.0332-58.2031 38.5254-64.3311Q43.0176-70.459 49.1699-74.9756Q55.3223-79.4922 62.6953-81.9824Q70.0684-84.4727 78.2227-84.4727Q86.4258-84.4727 93.8232-81.9824Q101.221-79.4922 107.373-74.9756Q113.525-70.459 118.042-64.3311Q122.559-58.2031 125.049-50.8057Q127.539-43.4082 127.539-35.2051Q127.539-27.0508 125.049-19.6777Q122.559-12.3047 118.042-6.12793Q113.525 0.0488281 107.397 4.56543Q101.27 9.08203 93.8721 11.5479Q86.4746 14.0137 78.2715 14.0137Z"/>
   <path class="hierarchical-1:primary SFSymbolsPreview212121" d="M78.2227-5.56641Q83.2031-5.56641 87.3047-6.98242Q91.4062-8.39844 94.3359-10.5225Q97.2656-12.6465 98.877-14.8438Q100.488-17.041 100.488-18.6523Q100.488-19.873 99.4873-20.3613Q98.4863-20.8496 97.3145-20.3613Q93.7988-18.6523 89.4531-16.9678Q85.1074-15.2832 78.2227-15.2832Q71.3379-15.2832 66.9434-16.9434Q62.5488-18.6035 59.1309-20.3613Q57.959-20.8984 56.958-20.3857Q55.957-19.873 55.957-18.6523Q55.957-17.041 57.5439-14.8438Q59.1309-12.6465 62.085-10.5225Q65.0391-8.39844 69.1162-6.98242Q73.1934-5.56641 78.2227-5.56641ZM59.8633-41.1133Q62.7441-41.1133 64.917-43.457Q67.0898-45.8008 67.0898-49.4141Q67.0898-53.0762 64.917-55.4443Q62.7441-57.8125 59.8633-57.8125Q56.9336-57.8125 54.8096-55.4443Q52.6855-53.0762 52.6855-49.4141Q52.6855-45.8008 54.8096-43.457Q56.9336-41.1133 59.8633-41.1133ZM96.582-41.1133Q99.4629-41.1133 101.66-43.457Q103.857-45.8008 103.857-49.4141Q103.857-53.0762 101.66-55.4443Q99.4629-57.8125 96.582-57.8125Q93.6523-57.8125 91.5283-55.4443Q89.4043-53.0762 89.4043-49.4141Q89.4043-45.8008 91.5283-43.457Q93.6523-41.1133 96.582-41.1133Z"/>
  </g>
  <g id="Bold-L" transform="matrix(1 0 0 1 2262.85 1556)">
   <path class="hierarchical-0:secondary SFSymbolsPreview4D4D4D" d="M77.0996 30.6152Q87.9395 30.6152 97.7783 27.2461Q107.617 23.877 115.869 17.8223Q124.121 11.7676 130.176 3.51562Q136.23-4.73633 139.6-14.5752Q142.969-24.4141 142.969-35.2539Q142.969-46.0938 139.6-55.9326Q136.23-65.7715 130.151-73.999Q124.072-82.2266 115.845-88.3057Q107.617-94.3848 97.7539-97.7295Q87.8906-101.074 77.0508-101.074Q66.2598-101.074 56.3965-97.7295Q46.5332-94.3848 38.3301-88.3057Q30.127-82.2266 24.0479-73.999Q17.9688-65.7715 14.624-55.9326Q11.2793-46.0938 11.2793-35.2539Q11.2793-24.4141 14.624-14.5752Q17.9688-4.73633 24.0479 3.51562Q30.127 11.7676 38.3545 17.8223Q46.582 23.877 56.4209 27.2461Q66.2598 30.6152 77.0996 30.6152ZM77.0996 15.8203Q68.6523 15.8203 60.9863 13.2568Q53.3203 10.6934 46.9482 6.00586Q40.5762 1.31836 35.8887-5.07812Q31.2012-11.4746 28.6377-19.1162Q26.0742-26.7578 26.0742-35.2539Q26.0742-43.75 28.6377-51.416Q31.2012-59.082 35.8887-65.4541Q40.5762-71.8262 46.9238-76.4893Q53.2715-81.1523 60.9375-83.7158Q68.6035-86.2793 77.0508-86.2793Q85.5469-86.2793 93.2129-83.7158Q100.879-81.1523 107.275-76.4893Q113.672-71.8262 118.335-65.4541Q122.998-59.082 125.586-51.416Q128.174-43.75 128.174-35.2539Q128.174-26.7578 125.61-19.1162Q123.047-11.4746 118.359-5.07812Q113.672 1.31836 107.3 6.00586Q100.928 10.6934 93.2617 13.2568Q85.5957 15.8203 77.0996 15.8203Z"/>
   <path class="hierarchical-1:primary SFSymbolsPreview212121" d="M77.0508-5.07812Q81.9824-5.07812 86.0352-6.46973Q90.0879-7.86133 93.0176-9.98535Q95.9473-12.1094 97.5342-14.2822Q99.1211-16.4551 99.1211-18.0176Q99.1211-19.1406 98.1934-19.6045Q97.2656-20.0684 96.1914-19.5801Q92.7734-17.7734 88.3545-16.04Q83.9355-14.3066 77.0508-14.3066Q70.2148-14.3066 65.7715-16.0156Q61.3281-17.7246 57.959-19.5801Q56.8848-20.0684 55.957-19.6045Q55.0293-19.1406 55.0293-18.0176Q55.0293-16.4551 56.6162-14.2822Q58.2031-12.1094 61.1084-9.98535Q64.0137-7.86133 68.0664-6.46973Q72.1191-5.07812 77.0508-5.07812ZM58.5449-41.0645Q61.4746-41.0645 63.6475-43.4326Q65.8203-45.8008 65.8203-49.4141Q65.8203-53.0762 63.6475-55.4443Q61.4746-57.8125 58.5449-57.8125Q55.6641-57.8125 53.54-55.4443Q51.416-53.0762 51.416-49.4141Q51.416-45.8008 53.54-43.4326Q55.6641-41.0645 58.5449-41.0645ZM95.5566-41.0645Q98.4375-41.0645 100.635-43.4326Q102.832-45.8008 102.832-49.4141Q102.832-53.0762 100.659-55.4443Q98.4863-57.8125 95.5566-57.8125Q92.6758-57.8125 90.5518-55.4443Q88.4277-53.0762 88.4277-49.4141Q88.4277-45.8008 90.5518-43.4326Q92.6758-41.0645 95.5566-41.0645Z"/>
  </g>
  <g id="Semibold-L" transform="matrix(1 0 0 1 1966.97 1556)">
   <path class="hierarchical-0:secondary SFSymbolsPreview4D4D4D" d="M76.2695 29.7852Q86.9629 29.7852 96.6797 26.4648Q106.396 23.1445 114.551 17.1631Q122.705 11.1816 128.687 3.02734Q134.668-5.12695 137.988-14.8438Q141.309-24.5605 141.309-35.2539Q141.309-45.9473 137.988-55.6641Q134.668-65.3809 128.662-73.5107Q122.656-81.6406 114.526-87.6465Q106.396-93.6523 96.6553-96.9727Q86.9141-100.293 76.2207-100.293Q65.5273-100.293 55.8105-96.9727Q46.0938-93.6523 37.9883-87.6465Q29.8828-81.6406 23.877-73.5107Q17.8711-65.3809 14.5752-55.6641Q11.2793-45.9473 11.2793-35.2539Q11.2793-24.5605 14.5996-14.8438Q17.9199-5.12695 23.9014 3.02734Q29.8828 11.1816 38.0127 17.1631Q46.1426 23.1445 55.8594 26.4648Q65.5762 29.7852 76.2695 29.7852ZM76.2695 17.041Q67.627 17.041 59.7656 14.4043Q51.9043 11.7676 45.3857 6.98242Q38.8672 2.19727 34.0576-4.3457Q29.248-10.8887 26.6357-18.7256Q24.0234-26.5625 24.0234-35.2539Q24.0234-43.9453 26.6357-51.8066Q29.248-59.668 34.0332-66.1865Q38.8184-72.7051 45.3369-77.4902Q51.8555-82.2754 59.7168-84.9121Q67.5781-87.5488 76.2207-87.5488Q84.9609-87.5488 92.7979-84.9121Q100.635-82.2754 107.178-77.4902Q113.721-72.7051 118.506-66.1865Q123.291-59.668 125.928-51.8066Q128.564-43.9453 128.564-35.2539Q128.613-26.5625 126.001-18.7256Q123.389-10.8887 118.579-4.3457Q113.77 2.19727 107.227 6.98242Q100.684 11.7676 92.8467 14.4043Q85.0098 17.041 76.2695 17.041Z"/>
   <path class="hierarchical-1:primary SFSymbolsPreview212121" d="M76.2207-4.6875Q81.1523-4.6875 85.1807-6.0791Q89.209-7.4707 92.0898-9.57031Q94.9707-11.6699 96.5576-13.8428Q98.1445-16.0156 98.1445-17.5293Q98.1445-18.6523 97.2656-19.0674Q96.3867-19.4824 95.4102-18.9941Q92.041-17.1387 87.5732-15.4053Q83.1055-13.6719 76.2207-13.6719Q69.4336-13.6719 64.9414-15.4053Q60.4492-17.1387 57.1289-18.9941Q56.1035-19.4824 55.249-19.0674Q54.3945-18.6523 54.3945-17.5293Q54.3945-16.0156 55.957-13.8428Q57.5195-11.6699 60.4248-9.57031Q63.3301-7.4707 67.3584-6.0791Q71.3867-4.6875 76.2207-4.6875ZM57.666-41.0645Q60.5469-41.0645 62.7197-43.4082Q64.8926-45.752 64.8926-49.3652Q64.8926-53.0273 62.7197-55.3955Q60.5469-57.7637 57.666-57.7637Q54.7852-57.7637 52.6611-55.3955Q50.5371-53.0273 50.5371-49.3652Q50.5371-45.752 52.6611-43.4082Q54.7852-41.0645 57.666-41.0645ZM94.873-41.0645Q97.7051-41.0645 99.9023-43.4082Q102.1-45.752 102.1-49.3652Q102.1-53.0273 99.9268-55.3955Q97.7539-57.7637 94.873-57.7637Q91.9434-57.7637 89.8193-55.3955Q87.6953-53.0273 87.6953-49.3652Q87.6953-45.752 89.8438-43.4082Q91.9922-41.0645 94.873-41.0645Z"/>
  </g>
  <g id="Medium-L" transform="matrix(1 0 0 1 1670.87 1556)">
   <path class="hierarchical-0:secondary SFSymbolsPreview4D4D4D" d="M75.6836 29.1504Q86.2305 29.1504 95.8496 25.8545Q105.469 22.5586 113.55 16.626Q121.631 10.6934 127.563 2.63672Q133.496-5.41992 136.792-15.0635Q140.088-24.707 140.088-35.2539Q140.088-45.8496 136.792-55.4688Q133.496-65.0879 127.539-73.1445Q121.582-81.2012 113.525-87.1582Q105.469-93.1152 95.8252-96.3867Q86.1816-99.6582 75.6348-99.6582Q65.0391-99.6582 55.4199-96.3867Q45.8008-93.1152 37.7441-87.1582Q29.6875-81.2012 23.7549-73.1445Q17.8223-65.0879 14.5508-55.4688Q11.2793-45.8496 11.2793-35.2539Q11.2793-24.707 14.5508-15.0635Q17.8223-5.41992 23.7549 2.63672Q29.6875 10.6934 37.7686 16.626Q45.8496 22.5586 55.4688 25.8545Q65.0879 29.1504 75.6836 29.1504ZM75.6836 18.0176Q66.8457 18.0176 58.8379 15.332Q50.8301 12.6465 44.2139 7.76367Q37.5977 2.88086 32.6904-3.78418Q27.7832-10.4492 25.1221-18.4326Q22.4609-26.416 22.4609-35.2539Q22.4609-44.1406 25.1221-52.124Q27.7832-60.1074 32.666-66.748Q37.5488-73.3887 44.165-78.2715Q50.7812-83.1543 58.7891-85.8154Q66.7969-88.4766 75.6348-88.4766Q84.4727-88.4766 92.4805-85.8154Q100.488-83.1543 107.129-78.2715Q113.77-73.3887 118.652-66.748Q123.535-60.1074 126.221-52.124Q128.906-44.1406 128.906-35.2539Q128.955-26.416 126.294-18.4326Q123.633-10.4492 118.726-3.78418Q113.818 2.88086 107.178 7.76367Q100.537 12.6465 92.5293 15.332Q84.5215 18.0176 75.6836 18.0176Z"/>
   <path class="hierarchical-1:primary SFSymbolsPreview212121" d="M75.6348-4.39453Q80.4688-4.39453 84.4727-5.78613Q88.4766-7.17773 91.3574-9.27734Q94.2383-11.377 95.8252-13.5254Q97.4121-15.6738 97.4121-17.1875Q97.4121-18.2617 96.5576-18.6523Q95.7031-19.043 94.7754-18.6035Q91.4551-16.6504 86.9629-14.8926Q82.4707-13.1348 75.6348-13.1348Q68.7988-13.1348 64.3066-14.8926Q59.8145-16.6504 56.4941-18.6035Q55.5176-19.0918 54.6875-18.6768Q53.8574-18.2617 53.8574-17.1875Q53.8574-15.6738 55.4199-13.5254Q56.9824-11.377 59.8633-9.27734Q62.7441-7.17773 66.748-5.78613Q70.752-4.39453 75.6348-4.39453ZM56.9336-41.0156Q59.8633-41.0156 62.0361-43.3838Q64.209-45.752 64.209-49.3652Q64.209-53.0273 62.0361-55.3955Q59.8633-57.7637 56.9336-57.7637Q54.1016-57.7637 51.9775-55.3955Q49.8535-53.0273 49.8535-49.3652Q49.8535-45.752 51.9775-43.3838Q54.1016-41.0156 56.9336-41.0156ZM94.2871-41.0156Q97.168-41.0156 99.3408-43.3838Q101.514-45.752 101.514-49.3652Q101.514-53.0273 99.3652-55.3955Q97.2168-57.7637 94.2871-57.7637Q91.4062-57.7637 89.2822-55.3955Q87.1582-53.0273 87.1582-49.3652Q87.1582-45.752 89.3066-43.3838Q91.4551-41.0156 94.2871-41.0156Z"/>
  </g>
  <g id="Regular-L" transform="matrix(1 0 0 1 1374.97 1556)">
   <path class="hierarchical-0:secondary SFSymbolsPreview4D4D4D" d="M74.8535 28.3203Q85.3027 28.3203 94.7998 25.0732Q104.297 21.8262 112.256 15.9668Q120.215 10.1074 126.099 2.14844Q131.982-5.81055 135.229-15.332Q138.477-24.8535 138.477-35.2539Q138.477-45.7031 135.229-55.2002Q131.982-64.6973 126.099-72.6562Q120.215-80.6152 112.256-86.499Q104.297-92.3828 94.7754-95.6299Q85.2539-98.877 74.8047-98.877Q64.3555-98.877 54.8584-95.6299Q45.3613-92.3828 37.4268-86.499Q29.4922-80.6152 23.6084-72.6562Q17.7246-64.6973 14.502-55.2002Q11.2793-45.7031 11.2793-35.2539Q11.2793-24.8535 14.5264-15.332Q17.7734-5.81055 23.6328 2.14844Q29.4922 10.1074 37.4512 15.9668Q45.4102 21.8262 54.9072 25.0732Q64.4043 28.3203 74.8535 28.3203ZM74.8535 19.2383Q65.8203 19.2383 57.6416 16.4795Q49.4629 13.7207 42.6758 8.74023Q35.8887 3.75977 30.8838-3.05176Q25.8789-9.86328 23.1445-18.042Q20.4102-26.2207 20.4102-35.2539Q20.4102-44.3359 23.1445-52.5146Q25.8789-60.6934 30.8594-67.5049Q35.8398-74.3164 42.627-79.2969Q49.4141-84.2773 57.5928-87.0117Q65.7715-89.7461 74.8047-89.7461Q83.8867-89.7461 92.0654-87.0117Q100.244-84.2773 107.056-79.2969Q113.867-74.3164 118.848-67.5049Q123.828-60.6934 126.587-52.5146Q129.346-44.3359 129.346-35.2539Q129.395-26.2207 126.66-18.042Q123.926-9.86328 118.921-3.05176Q113.916 3.75977 107.104 8.74023Q100.293 13.7207 92.1143 16.4795Q83.9355 19.2383 74.8535 19.2383Z"/>
   <path class="hierarchical-1:primary SFSymbolsPreview212121" d="M74.8047-4.05273Q79.6387-4.05273 83.6182-5.41992Q87.5977-6.78711 90.4541-8.88672Q93.3105-10.9863 94.873-13.1104Q96.4355-15.2344 96.4355-16.748Q96.4355-17.7734 95.6299-18.1396Q94.8242-18.5059 93.9941-18.0664Q90.7227-16.0156 86.1816-14.2578Q81.6406-12.5 74.8047-12.5Q68.0176-12.5 63.4766-14.2822Q58.9355-16.0645 55.6641-18.0664Q54.7852-18.5059 54.0039-18.1396Q53.2227-17.7734 53.2227-16.748Q53.2227-15.2344 54.7607-13.1104Q56.2988-10.9863 59.1797-8.88672Q62.0605-6.78711 66.04-5.41992Q70.0195-4.05273 74.8047-4.05273ZM56.0547-41.0156Q58.9355-41.0156 61.1084-43.3838Q63.2812-45.752 63.2812-49.3652Q63.2812-52.9785 61.1084-55.3711Q58.9355-57.7637 56.0547-57.7637Q53.2227-57.7637 51.0986-55.3711Q48.9746-52.9785 48.9746-49.3652Q48.9746-45.752 51.0986-43.3838Q53.2227-41.0156 56.0547-41.0156ZM93.6035-41.0156Q96.4355-41.0156 98.6084-43.3838Q100.781-45.752 100.781-49.3652Q100.781-52.9785 98.6328-55.3711Q96.4844-57.7637 93.6035-57.7637Q90.7227-57.7637 88.5986-55.3711Q86.4746-52.9785 86.4746-49.3652Q86.4746-45.752 88.623-43.3838Q90.7715-41.0156 93.6035-41.0156Z"/>
  </g>
  <g id="Light-L" transform="matrix(1 0 0 1 1079.18 1556)">
   <path class="hierarchical-0:secondary SFSymbolsPreview4D4D4D" d="M73.9258 27.3926Q84.2285 27.3926 93.6035 24.1943Q102.979 20.9961 110.815 15.2344Q118.652 9.47266 124.438 1.63574Q130.225-6.20117 133.423-15.5762Q136.621-24.9512 136.621-35.2539Q136.621-45.5566 133.423-54.9316Q130.225-64.3066 124.438-72.1436Q118.652-79.9805 110.815-85.7666Q102.979-91.5527 93.6035-94.751Q84.2285-97.9492 73.877-97.9492Q63.5742-97.9492 54.2236-94.751Q44.873-91.5527 37.0361-85.7666Q29.1992-79.9805 23.4131-72.1436Q17.627-64.3066 14.4531-54.9316Q11.2793-45.5566 11.2793-35.2539Q11.2793-24.9512 14.4775-15.5762Q17.6758-6.20117 23.4375 1.63574Q29.1992 9.47266 37.0361 15.2344Q44.873 20.9961 54.248 24.1943Q63.623 27.3926 73.9258 27.3926ZM73.9258 20.5078Q64.6973 20.5078 56.3232 17.6758Q47.9492 14.8438 40.9912 9.74121Q34.0332 4.63867 28.9307-2.31934Q23.8281-9.27734 21.0205-17.6514Q18.2129-26.0254 18.2129-35.2539Q18.2129-44.5312 21.0205-52.8809Q23.8281-61.2305 28.9307-68.2129Q34.0332-75.1953 40.9912-80.2979Q47.9492-85.4004 56.2988-88.208Q64.6484-91.0156 73.877-91.0156Q83.1543-91.0156 91.5283-88.208Q99.9023-85.4004 106.86-80.2979Q113.818-75.1953 118.945-68.2129Q124.072-61.2305 126.88-52.8809Q129.688-44.5312 129.688-35.2539Q129.736-26.0254 126.929-17.6514Q124.121-9.27734 118.994-2.31934Q113.867 4.63867 106.909 9.74121Q99.9512 14.8438 91.5771 17.6758Q83.2031 20.5078 73.9258 20.5078Z"/>
   <path class="hierarchical-1:primary SFSymbolsPreview212121" d="M73.9258-4.49219Q78.6133-4.49219 82.4707-5.85938Q86.3281-7.22656 89.1357-9.27734Q91.9434-11.3281 93.4814-13.4033Q95.0195-15.4785 95.0195-16.9434Q95.0195-17.7734 94.3604-18.042Q93.7012-18.3105 93.0664-17.9199Q90.0391-15.625 85.3516-13.8184Q80.6641-12.0117 73.9258-12.0117Q67.1875-12.0117 62.5244-13.8428Q57.8613-15.6738 54.7852-17.9199Q54.1504-18.3105 53.4912-18.042Q52.832-17.7734 52.832-16.9434Q52.832-15.4785 54.3457-13.4033Q55.8594-11.3281 58.6914-9.27734Q61.5234-7.22656 65.4053-5.85938Q69.2871-4.49219 73.9258-4.49219ZM55.0293-41.2109Q57.7148-41.2109 59.7656-43.5059Q61.8164-45.8008 61.8164-49.1699Q61.8164-52.5879 59.79-54.8828Q57.7637-57.1777 55.0293-57.1777Q52.3926-57.1777 50.3906-54.8828Q48.3887-52.5879 48.3887-49.1699Q48.3887-45.8008 50.3906-43.5059Q52.3926-41.2109 55.0293-41.2109ZM92.8223-41.2109Q95.459-41.2109 97.4854-43.5059Q99.5117-45.8008 99.5117-49.1699Q99.5117-52.5879 97.5098-54.8828Q95.5078-57.1777 92.8223-57.1777Q90.0879-57.1777 88.0859-54.8828Q86.084-52.5879 86.084-49.1699Q86.084-45.8008 88.1104-43.5059Q90.1367-41.2109 92.8223-41.2109Z"/>
  </g>
  <g id="Thin-L" transform="matrix(1 0 0 1 783.693 1556)">
   <path class="hierarchical-0:secondary SFSymbolsPreview4D4D4D" d="M72.7051 26.1719Q82.8613 26.1719 92.041 23.0469Q101.221 19.9219 108.911 14.2822Q116.602 8.64258 122.266 0.952148Q127.93-6.73828 131.055-15.9424Q134.18-25.1465 134.18-35.2539Q134.18-45.4102 131.055-54.5898Q127.93-63.7695 122.29-71.46Q116.65-79.1504 108.936-84.8145Q101.221-90.4785 92.0166-93.6035Q82.8125-96.7285 72.7051-96.7285Q62.5488-96.7285 53.3691-93.6035Q44.1895-90.4785 36.499-84.8145Q28.8086-79.1504 23.1689-71.46Q17.5293-63.7695 14.4043-54.5898Q11.2793-45.4102 11.2793-35.2539Q11.2793-25.1465 14.4043-15.9424Q17.5293-6.73828 23.1689 0.952148Q28.8086 8.64258 36.5234 14.2822Q44.2383 19.9219 53.418 23.0469Q62.5977 26.1719 72.7051 26.1719ZM72.7051 22.168Q63.2324 22.168 54.6143 19.2627Q45.9961 16.3574 38.8184 11.084Q31.6406 5.81055 26.3428-1.36719Q21.0449-8.54492 18.1641-17.1631Q15.2832-25.7812 15.2832-35.2539Q15.2832-44.7754 18.1641-53.3936Q21.0449-62.0117 26.3428-69.1895Q31.6406-76.3672 38.8184-81.6406Q45.9961-86.9141 54.5898-89.8193Q63.1836-92.7246 72.7051-92.7246Q82.2266-92.7246 90.8203-89.8193Q99.4141-86.9141 106.616-81.6406Q113.818-76.3672 119.092-69.1895Q124.365-62.0117 127.271-53.3936Q130.176-44.7754 130.176-35.2539Q130.176-25.7812 127.271-17.1631Q124.365-8.54492 119.092-1.36719Q113.818 5.81055 106.641 11.084Q99.4629 16.3574 90.8447 19.2627Q82.2266 22.168 72.7051 22.168Z"/>
   <path class="hierarchical-1:primary SFSymbolsPreview212121" d="M72.7539-5.12695Q77.1973-5.12695 80.9326-6.46973Q84.668-7.8125 87.4023-9.81445Q90.1367-11.8164 91.626-13.8184Q93.1152-15.8203 93.1152-17.1875Q93.1152-17.8223 92.627-17.9443Q92.1387-18.0664 91.7969-17.7246Q89.0625-15.1367 84.2285-13.2324Q79.3945-11.3281 72.7539-11.3281Q66.0645-11.3281 61.2549-13.2568Q56.4453-15.1855 53.6621-17.7246Q53.2715-18.0664 52.8076-17.9443Q52.3438-17.8223 52.3438-17.1875Q52.3438-15.8203 53.833-13.8184Q55.3223-11.8164 58.0322-9.81445Q60.7422-7.8125 64.502-6.46973Q68.2617-5.12695 72.7539-5.12695ZM53.7109-41.4551Q56.1035-41.4551 58.0078-43.6279Q59.9121-45.8008 59.9121-48.9258Q59.9121-52.0508 58.0322-54.2236Q56.1523-56.3965 53.7109-56.3965Q51.2695-56.3965 49.4385-54.2236Q47.6074-52.0508 47.6074-48.9258Q47.6074-45.8008 49.4385-43.6279Q51.2695-41.4551 53.7109-41.4551ZM91.748-41.4551Q94.1406-41.4551 95.9961-43.6279Q97.8516-45.8008 97.8516-48.9258Q97.8516-52.0508 96.0449-54.2236Q94.2383-56.3965 91.748-56.3965Q89.3066-56.3965 87.4268-54.2236Q85.5469-52.0508 85.5469-48.9258Q85.5469-45.8008 87.4512-43.6279Q89.3555-41.4551 91.748-41.4551Z"/>
  </g>
  <g id="Ultralight-L" transform="matrix(1 0 0 1 487.592 1556)">
   <path class="hierarchical-0:secondary SFSymbolsPreview4D4D4D" d="M72.0703 25.5371Q82.1289 25.5371 91.2354 22.4609Q100.342 19.3848 107.935 13.7939Q115.527 8.20312 121.143 0.585938Q126.758-7.03125 129.858-16.1133Q132.959-25.1953 132.959-35.2539Q132.959-45.3125 129.858-54.4189Q126.758-63.5254 121.167-71.1182Q115.576-78.7109 107.959-84.3262Q100.342-89.9414 91.2354-93.0176Q82.1289-96.0938 72.0703-96.0938Q62.0605-96.0938 52.9541-93.0176Q43.8477-89.9414 36.2305-84.3262Q28.6133-78.7109 23.0225-71.1182Q17.4316-63.5254 14.3555-54.4189Q11.2793-45.3125 11.2793-35.2539Q11.2793-25.1953 14.3555-16.1133Q17.4316-7.03125 23.0225 0.585938Q28.6133 8.20312 36.2305 13.7939Q43.8477 19.3848 52.9541 22.4609Q62.0605 25.5371 72.0703 25.5371ZM72.0703 23.0469Q62.4512 23.0469 53.7109 20.0928Q44.9707 17.1387 37.6709 11.792Q30.3711 6.44531 25.0244-0.854492Q19.6777-8.1543 16.7236-16.8945Q13.7695-25.6348 13.7695-35.2539Q13.7695-44.9219 16.7236-53.6377Q19.6777-62.3535 25.0244-69.6533Q30.3711-76.9531 37.6953-82.3242Q45.0195-87.6953 53.7354-90.6494Q62.4512-93.6035 72.0703-93.6035Q81.7383-93.6035 90.4785-90.6494Q99.2188-87.6953 106.494-82.3242Q113.77-76.9531 119.141-69.6533Q124.512-62.3535 127.466-53.6377Q130.42-44.9219 130.42-35.2539Q130.371-25.6348 127.441-16.8945Q124.512-8.1543 119.141-0.854492Q113.77 6.44531 106.494 11.792Q99.2188 17.1387 90.4785 20.0928Q81.7383 23.0469 72.0703 23.0469Z"/>
   <path class="hierarchical-1:primary SFSymbolsPreview212121" d="M72.1191-5.41992Q76.5137-5.41992 80.1758-6.7627Q83.8379-8.10547 86.5234-10.0586Q89.209-12.0117 90.6738-14.0137Q92.1387-16.0156 92.1387-17.2852Q92.1387-17.8223 91.7725-17.8711Q91.4062-17.9199 91.2109-17.627Q88.623-14.8926 83.6914-12.9395Q78.7598-10.9863 72.1191-10.9863Q65.5273-10.9863 60.6201-12.9639Q55.7129-14.9414 53.0762-17.627Q52.832-17.9199 52.4658-17.8711Q52.0996-17.8223 52.0996-17.2852Q52.0996-16.0156 53.5645-14.0137Q55.0293-12.0117 57.7148-10.0586Q60.4004-8.10547 64.0869-6.7627Q67.7734-5.41992 72.1191-5.41992ZM53.0273-41.6016Q55.3223-41.6016 57.1289-43.7256Q58.9355-45.8496 58.9355-48.8281Q58.9355-51.7578 57.1533-53.8818Q55.3711-56.0059 53.0273-56.0059Q50.6836-56.0059 48.9502-53.8818Q47.2168-51.7578 47.2168-48.8281Q47.2168-45.8496 48.9746-43.7256Q50.7324-41.6016 53.0273-41.6016ZM91.2109-41.6016Q93.5059-41.6016 95.2637-43.7256Q97.0215-45.8496 97.0215-48.8281Q97.0215-51.7578 95.3125-53.8818Q93.6035-56.0059 91.2109-56.0059Q88.8672-56.0059 87.085-53.8818Q85.3027-51.7578 85.3027-48.8281Q85.3027-45.8496 87.1094-43.7256Q88.916-41.6016 91.2109-41.6016Z"/>
  </g>
  <g id="Black-M" transform="matrix(1 0 0 1 2871.32 1126)">
   <path class="hierarchical-0:secondary SFSymbolsPreview4D4D4D" d="M62.0605 18.1152Q73.0957 18.1152 82.7637 13.9648Q92.4316 9.81445 99.7559 2.46582Q107.08-4.88281 111.255-14.5264Q115.43-24.1699 115.43-35.2051Q115.43-46.2402 111.255-55.8838Q107.08-65.5273 99.7559-72.876Q92.4316-80.2246 82.7637-84.375Q73.0957-88.5254 62.0605-88.5254Q51.0742-88.5254 41.4062-84.375Q31.7383-80.2246 24.3896-72.876Q17.041-65.5273 12.8906-55.8838Q8.74023-46.2402 8.74023-35.2051Q8.74023-24.1699 12.8906-14.5264Q17.041-4.88281 24.3896 2.46582Q31.7383 9.81445 41.4062 13.9648Q51.0742 18.1152 62.0605 18.1152ZM62.0605 0.732422Q54.6387 0.732422 48.1201-2.05078Q41.6016-4.83398 36.6455-9.76562Q31.6895-14.6973 28.9062-21.2158Q26.123-27.7344 26.123-35.2051Q26.123-42.6758 28.9062-49.1943Q31.6895-55.7129 36.6455-60.6445Q41.6016-65.5762 48.1201-68.3594Q54.6387-71.1426 62.0605-71.1426Q69.5312-71.1426 76.0498-68.3594Q82.5684-65.5762 87.5-60.6445Q92.4316-55.7129 95.2393-49.1943Q98.0469-42.6758 98.0469-35.2051Q98.0469-27.7344 95.2393-21.2158Q92.4316-14.6973 87.5-9.76562Q82.5684-4.83398 76.0498-2.05078Q69.5312 0.732422 62.0605 0.732422Z"/>
   <path class="hierarchical-1:primary SFSymbolsPreview212121" d="M62.0605-13.1836Q67.2852-13.1836 71.1914-15.0391Q75.0977-16.8945 77.2705-19.3115Q79.4434-21.7285 79.4434-23.4375Q79.4434-24.4141 78.6377-24.8047Q77.832-25.1953 76.8555-24.8047Q74.0234-23.584 70.7031-22.29Q67.3828-20.9961 62.0605-20.9961Q56.7383-20.9961 53.3691-22.2412Q50-23.4863 47.2656-24.8047Q46.2891-25.2441 45.4834-24.8291Q44.6777-24.4141 44.6777-23.4375Q44.6777-21.7285 46.8262-19.3115Q48.9746-16.8945 52.9053-15.0391Q56.8359-13.1836 62.0605-13.1836ZM47.9492-39.8926Q50.1465-39.8926 51.8066-41.6748Q53.4668-43.457 53.4668-46.1914Q53.4668-48.9746 51.8066-50.7568Q50.1465-52.5391 47.9492-52.5391Q45.752-52.5391 44.1406-50.7568Q42.5293-48.9746 42.5293-46.1914Q42.5293-43.457 44.1406-41.6748Q45.752-39.8926 47.9492-39.8926ZM76.123-39.8926Q78.2715-39.8926 79.9561-41.6748Q81.6406-43.457 81.6406-46.1914Q81.6406-48.9746 79.9561-50.7568Q78.2715-52.5391 76.123-52.5391Q73.877-52.5391 72.2656-50.7568Q70.6543-48.9746 70.6543-46.1914Q70.6543-43.457 72.2656-41.6748Q73.877-39.8926 76.123-39.8926Z"/>
  </g>
  <g id="Heavy-M" transform="matrix(1 0 0 1 2575.43 1126)">
   <path class="hierarchical-0:secondary SFSymbolsPreview4D4D4D" d="M61.2305 17.2852Q72.0703 17.2852 81.5918 13.1836Q91.1133 9.08203 98.3154 1.85547Q105.518-5.37109 109.644-14.8682Q113.77-24.3652 113.77-35.2051Q113.77-46.0449 109.644-55.542Q105.518-65.0391 98.3154-72.29Q91.1133-79.541 81.5918-83.6182Q72.0703-87.6953 61.2305-87.6953Q50.4395-87.6953 40.918-83.6182Q31.3965-79.541 24.1699-72.29Q16.9434-65.0391 12.8418-55.542Q8.74023-46.0449 8.74023-35.2051Q8.74023-24.3652 12.8418-14.8682Q16.9434-5.37109 24.1699 1.85547Q31.3965 9.08203 40.918 13.1836Q50.4395 17.2852 61.2305 17.2852ZM61.2305 2.05078Q53.5156 2.05078 46.7529-0.854492Q39.9902-3.75977 34.8633-8.8623Q29.7363-13.9648 26.8555-20.7275Q23.9746-27.4902 23.9746-35.2051Q23.9746-42.9688 26.8555-49.7314Q29.7363-56.4941 34.8633-61.5967Q39.9902-66.6992 46.7529-69.5801Q53.5156-72.4609 61.2305-72.4609Q68.9453-72.4609 75.708-69.5801Q82.4707-66.6992 87.5977-61.5967Q92.7246-56.4941 95.6299-49.7314Q98.5352-42.9688 98.5352-35.2051Q98.5352-27.4902 95.6299-20.7275Q92.7246-13.9648 87.6221-8.8623Q82.5195-3.75977 75.7568-0.854492Q68.9941 2.05078 61.2305 2.05078Z"/>
   <path class="hierarchical-1:primary SFSymbolsPreview212121" d="M61.1816-12.5977Q66.4062-12.5977 70.2881-14.4531Q74.1699-16.3086 76.3428-18.7256Q78.5156-21.1426 78.5156-22.8027Q78.5156-23.7793 77.7344-24.1455Q76.9531-24.5117 76.0254-24.1699Q73.1934-22.8516 69.8486-21.5576Q66.5039-20.2637 61.1816-20.2637Q55.8594-20.2637 52.4902-21.5332Q49.1211-22.8027 46.3867-24.1699Q45.459-24.5605 44.6777-24.1699Q43.8965-23.7793 43.8965-22.8027Q43.8965-21.1426 46.0449-18.7256Q48.1934-16.3086 52.0996-14.4531Q56.0059-12.5977 61.1816-12.5977ZM46.9727-39.8438Q49.2188-39.8438 50.9033-41.6504Q52.5879-43.457 52.5879-46.1914Q52.5879-49.0234 50.9033-50.8301Q49.2188-52.6367 46.9727-52.6367Q44.7754-52.6367 43.1396-50.8301Q41.5039-49.0234 41.5039-46.1914Q41.5039-43.457 43.1396-41.6504Q44.7754-39.8438 46.9727-39.8438ZM75.3418-39.8438Q77.5391-39.8438 79.248-41.6504Q80.957-43.457 80.957-46.1914Q80.957-49.0234 79.248-50.8301Q77.5391-52.6367 75.3418-52.6367Q73.0957-52.6367 71.46-50.8301Q69.8242-49.0234 69.8242-46.1914Q69.8242-43.457 71.46-41.6504Q73.0957-39.8438 75.3418-39.8438Z"/>
  </g>
  <g id="Bold-M" transform="matrix(1 0 0 1 2279.65 1126)">
   <path class="hierarchical-0:secondary SFSymbolsPreview4D4D4D" d="M60.3027 16.3574Q70.9473 16.3574 80.2734 12.3291Q89.5996 8.30078 96.7041 1.17188Q103.809-5.95703 107.861-15.2832Q111.914-24.6094 111.914-35.2539Q111.914-45.8496 107.861-55.1758Q103.809-64.502 96.7041-71.6309Q89.5996-78.7598 80.249-82.7881Q70.8984-86.8164 60.3027-86.8164Q49.707-86.8164 40.3564-82.7881Q31.0059-78.7598 23.9014-71.6309Q16.7969-64.502 12.7686-55.1758Q8.74023-45.8496 8.74023-35.2539Q8.74023-24.6094 12.7686-15.2832Q16.7969-5.95703 23.9258 1.17188Q31.0547 8.30078 40.3809 12.3291Q49.707 16.3574 60.3027 16.3574ZM60.3027 3.51562Q52.2949 3.51562 45.2637 0.488281Q38.2324-2.53906 32.9102-7.83691Q27.5879-13.1348 24.6094-20.166Q21.6309-27.1973 21.6309-35.2539Q21.6309-43.3105 24.6094-50.3174Q27.5879-57.3242 32.9102-62.6465Q38.2324-67.9688 45.2393-70.9717Q52.2461-73.9746 60.3027-73.9746Q68.3594-73.9746 75.3662-70.9717Q82.373-67.9688 87.6953-62.6465Q93.0176-57.3242 96.0449-50.3174Q99.0723-43.3105 99.0723-35.2539Q99.0723-27.1973 96.0693-20.166Q93.0664-13.1348 87.7441-7.83691Q82.4219-2.53906 75.3906 0.488281Q68.3594 3.51562 60.3027 3.51562Z"/>
   <path class="hierarchical-1:primary SFSymbolsPreview212121" d="M60.3027-12.0117Q65.4785-12.0117 69.3604-13.8428Q73.2422-15.6738 75.3906-18.0664Q77.5391-20.459 77.5391-22.1191Q77.5391-23.0469 76.7822-23.4131Q76.0254-23.7793 75.1465-23.4375Q72.4121-22.0703 69.0186-20.752Q65.625-19.4336 60.3027-19.4336Q54.9805-19.4336 51.5869-20.7275Q48.1934-22.0215 45.459-23.4375Q44.5801-23.8281 43.8477-23.4375Q43.1152-23.0469 43.1152-22.1191Q43.1152-20.459 45.2393-18.0664Q47.3633-15.6738 51.2695-13.8428Q55.1758-12.0117 60.3027-12.0117ZM45.9961-39.7461Q48.291-39.7461 50-41.5771Q51.709-43.4082 51.709-46.2402Q51.709-49.1211 50-50.9521Q48.291-52.7832 45.9961-52.7832Q43.75-52.7832 42.0898-50.9521Q40.4297-49.1211 40.4297-46.2402Q40.4297-43.4082 42.0898-41.5771Q43.75-39.7461 45.9961-39.7461ZM74.5605-39.7461Q76.8066-39.7461 78.54-41.5771Q80.2734-43.4082 80.2734-46.2402Q80.2734-49.1211 78.54-50.9521Q76.8066-52.7832 74.5605-52.7832Q72.3145-52.7832 70.6543-50.9521Q68.9941-49.1211 68.9941-46.2402Q68.9941-43.4082 70.6543-41.5771Q72.3145-39.7461 74.5605-39.7461Z"/>
  </g>
  <g id="Semibold-M" transform="matrix(1 0 0 1 1983.6 1126)">
   <path class="hierarchical-0:secondary SFSymbolsPreview4D4D4D" d="M59.668 15.6738Q70.1172 15.6738 79.3457 11.6943Q88.5742 7.71484 95.6055 0.683594Q102.637-6.34766 106.616-15.5518Q110.596-24.7559 110.596-35.2539Q110.596-45.7031 106.616-54.9072Q102.637-64.1113 95.6055-71.1426Q88.5742-78.1738 79.3457-82.1777Q70.1172-86.1816 59.6191-86.1816Q49.1699-86.1816 39.9658-82.1777Q30.7617-78.1738 23.7305-71.1426Q16.6992-64.1113 12.7197-54.9072Q8.74023-45.7031 8.74023-35.2539Q8.74023-24.7559 12.7197-15.5518Q16.6992-6.34766 23.7305 0.683594Q30.7617 7.71484 39.9902 11.6943Q49.2188 15.6738 59.668 15.6738ZM59.668 4.49219Q51.416 4.49219 44.2139 1.41602Q37.0117-1.66016 31.543-7.10449Q26.0742-12.5488 23.0225-19.751Q19.9707-26.9531 19.9707-35.2539Q19.9707-43.5059 23.0225-50.708Q26.0742-57.9102 31.5186-63.3789Q36.9629-68.8477 44.165-71.8994Q51.3672-74.9512 59.6191-74.9512Q67.9199-74.9512 75.1221-71.8994Q82.3242-68.8477 87.7686-63.3789Q93.2129-57.9102 96.3135-50.708Q99.4141-43.5059 99.4141-35.2539Q99.4141-26.9531 96.3379-19.751Q93.2617-12.5488 87.8174-7.10449Q82.373-1.66016 75.1465 1.41602Q67.9199 4.49219 59.668 4.49219Z"/>
   <path class="hierarchical-1:primary SFSymbolsPreview212121" d="M59.668-11.5723Q64.7949-11.5723 68.6523-13.4033Q72.5098-15.2344 74.6582-17.627Q76.8066-20.0195 76.8066-21.6309Q76.8066-22.5586 76.0742-22.9004Q75.3418-23.2422 74.4629-22.9004Q71.7773-21.5332 68.3838-20.1904Q64.9902-18.8477 59.668-18.8477Q54.3457-18.8477 50.9277-20.166Q47.5098-21.4844 44.7754-22.9004Q43.9453-23.291 43.2129-22.9248Q42.4805-22.5586 42.4805-21.6309Q42.4805-20.0195 44.6289-17.627Q46.7773-15.2344 50.6592-13.4033Q54.541-11.5723 59.668-11.5723ZM45.2637-39.6973Q47.5586-39.6973 49.292-41.5527Q51.0254-43.4082 51.0254-46.2402Q51.0254-49.1211 49.292-51.001Q47.5586-52.8809 45.2637-52.8809Q43.0176-52.8809 41.333-51.001Q39.6484-49.1211 39.6484-46.2402Q39.6484-43.4082 41.333-41.5527Q43.0176-39.6973 45.2637-39.6973ZM73.9746-39.6973Q76.2695-39.6973 78.0029-41.5527Q79.7363-43.4082 79.7363-46.2402Q79.7363-49.1211 78.0029-51.001Q76.2695-52.8809 73.9746-52.8809Q71.6797-52.8809 70.0195-51.001Q68.3594-49.1211 68.3594-46.2402Q68.3594-43.4082 70.0195-41.5527Q71.6797-39.6973 73.9746-39.6973Z"/>
  </g>
  <g id="Medium-M" transform="matrix(1 0 0 1 1687.38 1126)">
   <path class="hierarchical-0:secondary SFSymbolsPreview4D4D4D" d="M59.1797 15.1855Q69.5312 15.1855 78.6621 11.2305Q87.793 7.27539 94.751 0.317383Q101.709-6.64062 105.664-15.7715Q109.619-24.9023 109.619-35.2539Q109.619-45.6055 105.664-54.7363Q101.709-63.8672 94.751-70.8252Q87.793-77.7832 78.6377-81.7383Q69.4824-85.6934 59.1309-85.6934Q48.7793-85.6934 39.6484-81.7383Q30.5176-77.7832 23.584-70.8252Q16.6504-63.8672 12.6953-54.7363Q8.74023-45.6055 8.74023-35.2539Q8.74023-24.9023 12.6953-15.7715Q16.6504-6.64062 23.6084 0.317383Q30.5664 7.27539 39.6973 11.2305Q48.8281 15.1855 59.1797 15.1855ZM59.1797 5.27344Q50.7324 5.27344 43.4082 2.12402Q36.084-1.02539 30.5176-6.5918Q24.9512-12.1582 21.8262-19.4824Q18.7012-26.8066 18.7012-35.2539Q18.7012-43.7012 21.8262-51.0254Q24.9512-58.3496 30.4932-63.916Q36.0352-69.4824 43.3838-72.6074Q50.7324-75.7324 59.1309-75.7324Q67.5781-75.7324 74.9023-72.6074Q82.2266-69.4824 87.8174-63.916Q93.4082-58.3496 96.5576-51.0254Q99.707-43.7012 99.707-35.2539Q99.707-26.8066 96.582-19.4824Q93.457-12.1582 87.8906-6.5918Q82.3242-1.02539 74.9756 2.12402Q67.627 5.27344 59.1797 5.27344Z"/>
   <path class="hierarchical-1:primary SFSymbolsPreview212121" d="M59.1309-11.2305Q64.2578-11.2305 68.1152-13.0615Q71.9727-14.8926 74.1211-17.2607Q76.2695-19.6289 76.2695-21.2891Q76.2695-22.168 75.5371-22.5098Q74.8047-22.8516 73.9746-22.5098Q71.3379-21.0938 67.8955-19.7754Q64.4531-18.457 59.1309-18.457Q53.8086-18.457 50.3906-19.7754Q46.9727-21.0938 44.2871-22.5098Q43.457-22.9004 42.749-22.5342Q42.041-22.168 42.041-21.2891Q42.041-19.6289 44.165-17.2607Q46.2891-14.8926 50.1709-13.0615Q54.0527-11.2305 59.1309-11.2305ZM44.7266-39.6484Q47.0215-39.6484 48.7793-41.5039Q50.5371-43.3594 50.5371-46.2891Q50.5371-49.1699 48.7793-51.0498Q47.0215-52.9297 44.7266-52.9297Q42.4316-52.9297 40.7471-51.0498Q39.0625-49.1699 39.0625-46.2891Q39.0625-43.3594 40.7471-41.5039Q42.4316-39.6484 44.7266-39.6484ZM73.5352-39.6484Q75.8301-39.6484 77.5879-41.5039Q79.3457-43.3594 79.3457-46.2891Q79.3457-49.1699 77.5879-51.0498Q75.8301-52.9297 73.5352-52.9297Q71.2402-52.9297 69.5557-51.0498Q67.8711-49.1699 67.8711-46.2891Q67.8711-43.3594 69.5557-41.5039Q71.2402-39.6484 73.5352-39.6484Z"/>
  </g>
  <g id="Regular-M" transform="matrix(1 0 0 1 1391.3 1126)">
   <path class="hierarchical-0:secondary SFSymbolsPreview4D4D4D" d="M58.5449 14.5508Q68.75 14.5508 77.7588 10.6445Q86.7676 6.73828 93.6523-0.146484Q100.537-7.03125 104.443-16.04Q108.35-25.0488 108.35-35.2539Q108.35-45.459 104.443-54.4678Q100.537-63.4766 93.6523-70.3613Q86.7676-77.2461 77.7344-81.1523Q68.7012-85.0586 58.4961-85.0586Q48.291-85.0586 39.2822-81.1523Q30.2734-77.2461 23.4131-70.3613Q16.5527-63.4766 12.6465-54.4678Q8.74023-45.459 8.74023-35.2539Q8.74023-25.0488 12.6465-16.04Q16.5527-7.03125 23.4375-0.146484Q30.3223 6.73828 39.3311 10.6445Q48.3398 14.5508 58.5449 14.5508ZM58.5449 6.25Q49.9023 6.25 42.3828 3.02734Q34.8633-0.195312 29.1748-5.88379Q23.4863-11.5723 20.2881-19.0918Q17.0898-26.6113 17.0898-35.2539Q17.0898-43.8965 20.2881-51.416Q23.4863-58.9355 29.1504-64.6484Q34.8145-70.3613 42.334-73.5596Q49.8535-76.7578 58.4961-76.7578Q67.1387-76.7578 74.6582-73.5596Q82.1777-70.3613 87.8906-64.6484Q93.6035-58.9355 96.8262-51.416Q100.049-43.8965 100.049-35.2539Q100.049-26.6113 96.8506-19.0918Q93.6523-11.5723 87.9639-5.88379Q82.2754-0.195312 74.7314 3.02734Q67.1875 6.25 58.5449 6.25Z"/>
   <path class="hierarchical-1:primary SFSymbolsPreview212121" d="M58.4961-10.791Q63.5742-10.791 67.4316-12.6221Q71.2891-14.4531 73.4131-16.8213Q75.5371-19.1895 75.5371-20.8008Q75.5371-21.6797 74.8291-22.0215Q74.1211-22.3633 73.3398-22.0215Q70.7031-20.5566 67.2607-19.2139Q63.8184-17.8711 58.4961-17.8711Q53.1738-17.8711 49.7314-19.2139Q46.2891-20.5566 43.6035-22.0215Q42.8223-22.3633 42.1387-22.0215Q41.4551-21.6797 41.4551-20.8008Q41.4551-19.1895 43.5791-16.8213Q45.7031-14.4531 49.5605-12.6221Q53.418-10.791 58.4961-10.791ZM43.9941-39.5996Q46.3379-39.5996 48.0957-41.4795Q49.8535-43.3594 49.8535-46.2891Q49.8535-49.2188 48.0957-51.123Q46.3379-53.0273 43.9941-53.0273Q41.6992-53.0273 39.9902-51.123Q38.2812-49.2188 38.2812-46.2891Q38.2812-43.3594 39.9902-41.4795Q41.6992-39.5996 43.9941-39.5996ZM72.9492-39.5996Q75.293-39.5996 77.0508-41.4795Q78.8086-43.3594 78.8086-46.2891Q78.8086-49.2188 77.0508-51.123Q75.293-53.0273 72.9492-53.0273Q70.6543-53.0273 68.9453-51.123Q67.2363-49.2188 67.2363-46.2891Q67.2363-43.3594 68.9453-41.4795Q70.6543-39.5996 72.9492-39.5996Z"/>
  </g>
  <g id="Light-M" transform="matrix(1 0 0 1 1095.42 1126)">
   <path class="hierarchical-0:secondary SFSymbolsPreview4D4D4D" d="M57.7148 13.7207Q67.7734 13.7207 76.6357 9.8877Q85.498 6.05469 92.2607-0.708008Q99.0234-7.4707 102.856-16.333Q106.689-25.1953 106.689-35.2539Q106.689-45.3125 102.856-54.1748Q99.0234-63.0371 92.2607-69.7998Q85.498-76.5625 76.6113-80.3955Q67.7246-84.2285 57.666-84.2285Q47.6074-84.2285 38.7451-80.3955Q29.8828-76.5625 23.1445-69.7998Q16.4062-63.0371 12.5732-54.1748Q8.74023-45.3125 8.74023-35.2539Q8.74023-25.1953 12.5732-16.333Q16.4062-7.4707 23.1689-0.708008Q29.9316 6.05469 38.7939 9.8877Q47.6562 13.7207 57.7148 13.7207ZM57.7148 7.37305Q48.877 7.37305 41.1377 4.07715Q33.3984 0.78125 27.5391-5.07812Q21.6797-10.9375 18.3838-18.6768Q15.0879-26.416 15.0879-35.2539Q15.0879-44.0918 18.3838-51.8311Q21.6797-59.5703 27.5391-65.4541Q33.3984-71.3379 41.1133-74.6338Q48.8281-77.9297 57.666-77.9297Q66.5527-77.9297 74.2676-74.6338Q81.9824-71.3379 87.8662-65.4541Q93.75-59.5703 97.0703-51.8311Q100.391-44.0918 100.391-35.2539Q100.391-26.416 97.0703-18.6768Q93.75-10.9375 87.915-5.07812Q82.0801 0.78125 74.3408 4.07715Q66.6016 7.37305 57.7148 7.37305Z"/>
   <path class="hierarchical-1:primary SFSymbolsPreview212121" d="M57.666-11.1816Q62.5977-11.1816 66.333-12.9883Q70.0684-14.7949 72.168-17.1143Q74.2676-19.4336 74.2676-20.9473Q74.2676-21.6797 73.6816-21.9238Q73.0957-22.168 72.5098-21.875Q70.0684-20.2148 66.5039-18.8232Q62.9395-17.4316 57.666-17.4316Q52.3926-17.4316 48.8525-18.8232Q45.3125-20.2148 42.8223-21.875Q42.2363-22.168 41.6748-21.9238Q41.1133-21.6797 41.1133-20.9473Q41.1133-19.4336 43.1885-17.1143Q45.2637-14.7949 49.0234-12.9883Q52.7832-11.1816 57.666-11.1816ZM43.0664-39.7949Q45.2637-39.7949 46.8994-41.6016Q48.5352-43.4082 48.5352-46.1426Q48.5352-48.877 46.8994-50.6836Q45.2637-52.4902 43.0664-52.4902Q40.918-52.4902 39.3311-50.6836Q37.7441-48.877 37.7441-46.1426Q37.7441-43.4082 39.3555-41.6016Q40.9668-39.7949 43.0664-39.7949ZM72.2168-39.7949Q74.4141-39.7949 76.0498-41.6016Q77.6855-43.4082 77.6855-46.1426Q77.6855-48.877 76.0498-50.6836Q74.4141-52.4902 72.2168-52.4902Q70.0684-52.4902 68.4814-50.6836Q66.8945-48.877 66.8945-46.1426Q66.8945-43.4082 68.5059-41.6016Q70.1172-39.7949 72.2168-39.7949Z"/>
  </g>
  <g id="Thin-M" transform="matrix(1 0 0 1 799.782 1126)">
   <path class="hierarchical-0:secondary SFSymbolsPreview4D4D4D" d="M56.5918 12.5977Q66.5039 12.5977 75.1709 8.88672Q83.8379 5.17578 90.4297-1.44043Q97.0215-8.05664 100.781-16.7236Q104.541-25.3906 104.541-35.2539Q104.541-45.1172 100.781-53.7842Q97.0215-62.4512 90.4297-69.0674Q83.8379-75.6836 75.1709-79.3945Q66.5039-83.1055 56.5918-83.1055Q46.7285-83.1055 38.0615-79.3945Q29.3945-75.6836 22.8271-69.0674Q16.2598-62.4512 12.5-53.7842Q8.74023-45.1172 8.74023-35.2539Q8.74023-25.3906 12.4756-16.7236Q16.2109-8.05664 22.8027-1.44043Q29.3945 5.17578 38.0859 8.88672Q46.7773 12.5977 56.5918 12.5977ZM56.5918 8.88672Q47.4609 8.88672 39.4775 5.44434Q31.4941 2.00195 25.415-4.05273Q19.3359-10.1074 15.918-18.1152Q12.5-26.123 12.5-35.2539Q12.5-44.3848 15.918-52.3926Q19.3359-60.4004 25.415-66.4795Q31.4941-72.5586 39.4775-76.001Q47.4609-79.4434 56.5918-79.4434Q65.7715-79.4434 73.7549-76.001Q81.7383-72.5586 87.8174-66.4795Q93.8965-60.4004 97.3389-52.3926Q100.781-44.3848 100.781-35.2539Q100.781-26.123 97.3633-18.1152Q93.9453-10.1074 87.8662-4.05273Q81.7871 2.00195 73.7793 5.44434Q65.7715 8.88672 56.5918 8.88672Z"/>
   <path class="hierarchical-1:primary SFSymbolsPreview212121" d="M56.5918-11.7188Q61.2793-11.7188 64.8926-13.501Q68.5059-15.2832 70.5322-17.5293Q72.5586-19.7754 72.5586-21.1914Q72.5586-21.7285 72.1436-21.8262Q71.7285-21.9238 71.4355-21.7285Q69.2383-19.7754 65.5029-18.3105Q61.7676-16.8457 56.5918-16.8457Q51.416-16.8457 47.7295-18.335Q44.043-19.8242 41.7969-21.7285Q41.4551-21.9238 41.0645-21.8262Q40.6738-21.7285 40.6738-21.1914Q40.6738-19.7754 42.7002-17.5293Q44.7266-15.2832 48.3398-13.501Q51.9531-11.7188 56.5918-11.7188ZM41.8945-40.0391Q43.8477-40.0391 45.3369-41.7236Q46.8262-43.4082 46.8262-45.8984Q46.8262-48.3887 45.3613-50.0977Q43.8965-51.8066 41.8945-51.8066Q39.9414-51.8066 38.501-50.0977Q37.0605-48.3887 37.0605-45.8984Q37.0605-43.4082 38.5254-41.7236Q39.9902-40.0391 41.8945-40.0391ZM71.2891-40.0391Q73.2422-40.0391 74.707-41.7236Q76.1719-43.4082 76.1719-45.8984Q76.1719-48.3887 74.7314-50.0977Q73.291-51.8066 71.2891-51.8066Q69.3848-51.8066 67.9199-50.0977Q66.4551-48.3887 66.4551-45.8984Q66.4551-43.4082 67.9199-41.7236Q69.3848-40.0391 71.2891-40.0391Z"/>
  </g>
  <g id="Ultralight-M" transform="matrix(1 0 0 1 503.632 1126)">
   <path class="hierarchical-0:secondary SFSymbolsPreview4D4D4D" d="M56.0547 12.0605Q65.8203 12.0605 74.3896 8.37402Q82.959 4.6875 89.4775-1.83105Q95.9961-8.34961 99.707-16.9189Q103.418-25.4883 103.418-35.2539Q103.418-45.0195 99.707-53.5889Q95.9961-62.1582 89.4775-68.6768Q82.959-75.1953 74.3896-78.8818Q65.8203-82.5684 56.0547-82.5684Q46.2891-82.5684 37.7197-78.8818Q29.1504-75.1953 22.6562-68.6768Q16.1621-62.1582 12.4512-53.5889Q8.74023-45.0195 8.74023-35.2539Q8.74023-25.4883 12.4268-16.9189Q16.1133-8.34961 22.6318-1.83105Q29.1504 4.6875 37.7197 8.37402Q46.2891 12.0605 56.0547 12.0605ZM56.0547 9.66797Q46.7773 9.66797 38.6475 6.17676Q30.5176 2.68555 24.3164-3.49121Q18.1152-9.66797 14.624-17.8223Q11.1328-25.9766 11.1328-35.2539Q11.1328-44.5312 14.624-52.6855Q18.1152-60.8398 24.3164-67.041Q30.5176-73.2422 38.6475-76.7334Q46.7773-80.2246 56.0547-80.2246Q65.3809-80.2246 73.5107-76.7334Q81.6406-73.2422 87.8174-67.041Q93.9941-60.8398 97.5098-52.6855Q101.025-44.5312 101.025-35.2539Q101.025-25.9766 97.5098-17.8223Q93.9941-9.66797 87.8174-3.49121Q81.6406 2.68555 73.5107 6.17676Q65.3809 9.66797 56.0547 9.66797Z"/>
   <path class="hierarchical-1:primary SFSymbolsPreview212121" d="M56.0059-12.0117Q60.5957-12.0117 64.1113-13.7695Q67.627-15.5273 69.6533-17.749Q71.6797-19.9707 71.6797-21.2891Q71.6797-21.7285 71.3379-21.7773Q70.9961-21.8262 70.8008-21.6309Q68.75-19.5801 64.9658-18.0664Q61.1816-16.5527 56.0059-16.5527Q50.8789-16.5527 47.1191-18.0664Q43.3594-19.5801 41.2598-21.6309Q41.0156-21.8262 40.7227-21.7773Q40.4297-21.7285 40.4297-21.2891Q40.4297-19.9707 42.4316-17.749Q44.4336-15.5273 47.9492-13.7695Q51.4648-12.0117 56.0059-12.0117ZM41.2598-40.1367Q43.1152-40.1367 44.5312-41.7969Q45.9473-43.457 45.9473-45.8008Q45.9473-48.1445 44.5312-49.7803Q43.1152-51.416 41.2598-51.416Q39.4043-51.416 38.0371-49.7803Q36.6699-48.1445 36.6699-45.8008Q36.6699-43.457 38.0615-41.7969Q39.4531-40.1367 41.2598-40.1367ZM70.8008-40.1367Q72.6562-40.1367 74.0234-41.7969Q75.3906-43.457 75.3906-45.8008Q75.3906-48.1445 74.0479-49.7803Q72.7051-51.416 70.8008-51.416Q68.9453-51.416 67.5537-49.7803Q66.1621-48.1445 66.1621-45.8008Q66.1621-43.457 67.5781-41.7969Q68.9941-40.1367 70.8008-40.1367Z"/>
  </g>
  <g id="Black-S" transform="matrix(1 0 0 1 2884.57 696)">
   <path class="hierarchical-0:secondary SFSymbolsPreview4D4D4D" d="M48.8281 6.78711Q57.5195 6.78711 65.1123 3.51562Q72.7051 0.244141 78.4912-5.54199Q84.2773-11.3281 87.5488-18.9209Q90.8203-26.5137 90.8203-35.2051Q90.8203-43.8965 87.5488-51.4893Q84.2773-59.082 78.4912-64.8682Q72.7051-70.6543 65.1123-73.9258Q57.5195-77.1973 48.8281-77.1973Q40.1367-77.1973 32.5439-73.9258Q24.9512-70.6543 19.165-64.8682Q13.3789-59.082 10.1074-51.4893Q6.83594-43.8965 6.83594-35.2051Q6.83594-26.5137 10.1074-18.9209Q13.3789-11.3281 19.165-5.54199Q24.9512 0.244141 32.5439 3.51562Q40.1367 6.78711 48.8281 6.78711ZM48.8281-7.37305Q43.0664-7.37305 38.0127-9.5459Q32.959-11.7188 29.1504-15.5273Q25.3418-19.3359 23.1689-24.3896Q20.9961-29.4434 20.9961-35.2051Q20.9961-40.9668 23.1689-46.0205Q25.3418-51.0742 29.1504-54.8828Q32.959-58.6914 38.0127-60.8643Q43.0664-63.0371 48.8281-63.0371Q54.5898-63.0371 59.6436-60.8643Q64.6973-58.6914 68.5059-54.8828Q72.3145-51.0742 74.4873-46.0205Q76.6602-40.9668 76.6602-35.2051Q76.6602-29.4434 74.4873-24.3896Q72.3145-19.3359 68.5059-15.5273Q64.6973-11.7188 59.6436-9.5459Q54.5898-7.37305 48.8281-7.37305Z"/>
   <path class="hierarchical-1:primary SFSymbolsPreview212121" d="M48.8281-18.1641Q52.9297-18.1641 55.9814-19.6289Q59.0332-21.0938 60.7422-22.9736Q62.4512-24.8535 62.4512-26.1719Q62.4512-26.9531 61.8164-27.2705Q61.1816-27.5879 60.4004-27.2461Q58.2031-26.3184 55.6152-25.293Q53.0273-24.2676 48.8281-24.2676Q44.6777-24.2676 42.041-25.2441Q39.4043-26.2207 37.2559-27.2461Q36.4746-27.6367 35.8398-27.2949Q35.2051-26.9531 35.2051-26.1719Q35.2051-24.8535 36.9141-22.9736Q38.623-21.0938 41.6748-19.6289Q44.7266-18.1641 48.8281-18.1641ZM37.793-38.916Q39.502-38.916 40.7959-40.3076Q42.0898-41.6992 42.0898-43.7988Q42.0898-45.9473 40.7959-47.3389Q39.502-48.7305 37.793-48.7305Q36.084-48.7305 34.8389-47.3389Q33.5938-45.9473 33.5938-43.7988Q33.5938-41.6992 34.8389-40.3076Q36.084-38.916 37.793-38.916ZM59.8145-38.916Q61.5234-38.916 62.8174-40.3076Q64.1113-41.6992 64.1113-43.7988Q64.1113-45.9473 62.8174-47.3389Q61.5234-48.7305 59.8145-48.7305Q58.0566-48.7305 56.8115-47.3389Q55.5664-45.9473 55.5664-43.7988Q55.5664-41.6992 56.8115-40.3076Q58.0566-38.916 59.8145-38.916Z"/>
  </g>
  <g id="Heavy-S" transform="matrix(1 0 0 1 2588.47 696)">
   <path class="hierarchical-0:secondary SFSymbolsPreview4D4D4D" d="M48.1934 6.15234Q56.7871 6.15234 64.2578 2.92969Q71.7285-0.292969 77.4414-6.00586Q83.1543-11.7188 86.377-19.1895Q89.5996-26.6602 89.5996-35.2051Q89.5996-43.75 86.377-51.2451Q83.1543-58.7402 77.4414-64.4531Q71.7285-70.166 64.2334-73.3887Q56.7383-76.6113 48.1934-76.6113Q39.6484-76.6113 32.1777-73.3887Q24.707-70.166 18.9941-64.4531Q13.2812-58.7402 10.0586-51.2451Q6.83594-43.75 6.83594-35.2051Q6.83594-26.6602 10.0586-19.1895Q13.2812-11.7188 18.9941-6.00586Q24.707-0.292969 32.2021 2.92969Q39.6973 6.15234 48.1934 6.15234ZM48.1934-6.39648Q42.2363-6.39648 37.0117-8.64258Q31.7871-10.8887 27.8564-14.8438Q23.9258-18.7988 21.6797-24.0234Q19.4336-29.248 19.4336-35.2051Q19.4336-41.1621 21.6553-46.4111Q23.877-51.6602 27.832-55.5908Q31.7871-59.5215 37.0117-61.7676Q42.2363-64.0137 48.1934-64.0137Q54.1992-64.0137 59.4238-61.7676Q64.6484-59.5215 68.5791-55.5908Q72.5098-51.6602 74.7803-46.4111Q77.0508-41.1621 77.0508-35.2051Q77.0508-29.248 74.8047-24.0234Q72.5586-18.7988 68.6035-14.8438Q64.6484-10.8887 59.4238-8.64258Q54.1992-6.39648 48.1934-6.39648Z"/>
   <path class="hierarchical-1:primary SFSymbolsPreview212121" d="M48.2422-17.627Q52.3438-17.627 55.3955-19.0918Q58.4473-20.5566 60.1562-22.4365Q61.8652-24.3164 61.8652-25.6348Q61.8652-26.416 61.2305-26.7334Q60.5957-27.0508 59.8145-26.709Q57.6172-25.7324 55.0293-24.707Q52.4414-23.6816 48.2422-23.6816Q44.043-23.6816 41.4062-24.6826Q38.7695-25.6836 36.6211-26.709Q35.8887-27.0508 35.2539-26.7334Q34.6191-26.416 34.6191-25.6348Q34.6191-24.3164 36.3281-22.4365Q38.0371-20.5566 41.0889-19.0918Q44.1406-17.627 48.2422-17.627ZM37.1094-38.8184Q38.8672-38.8184 40.21-40.2588Q41.5527-41.6992 41.5527-43.8477Q41.5527-46.0449 40.21-47.4609Q38.8672-48.877 37.1094-48.877Q35.3516-48.877 34.082-47.4609Q32.8125-46.0449 32.8125-43.8477Q32.8125-41.6992 34.082-40.2588Q35.3516-38.8184 37.1094-38.8184ZM59.2773-38.8184Q61.0352-38.8184 62.3535-40.2588Q63.6719-41.6992 63.6719-43.8477Q63.6719-46.0449 62.3535-47.4609Q61.0352-48.877 59.2773-48.877Q57.4707-48.877 56.2012-47.4609Q54.9316-46.0449 54.9316-43.8477Q54.9316-41.6992 56.2012-40.2588Q57.4707-38.8184 59.2773-38.8184Z"/>
  </g>
  <g id="Bold-S" transform="matrix(1 0 0 1 2292.42 696)">
   <path class="hierarchical-0:secondary SFSymbolsPreview4D4D4D" d="M47.5586 5.46875Q55.957 5.46875 63.3057 2.29492Q70.6543-0.878906 76.2695-6.51855Q81.8848-12.1582 85.083-19.5068Q88.2812-26.8555 88.2812-35.2539Q88.2812-43.6035 85.083-50.9766Q81.8848-58.3496 76.2695-63.9648Q70.6543-69.5801 63.2812-72.7539Q55.9082-75.9277 47.5098-75.9277Q39.1602-75.9277 31.7871-72.7539Q24.4141-69.5801 18.8232-63.9648Q13.2324-58.3496 10.0342-50.9766Q6.83594-43.6035 6.83594-35.2539Q6.83594-26.8555 10.0342-19.5068Q13.2324-12.1582 18.8477-6.51855Q24.4629-0.878906 31.8115 2.29492Q39.1602 5.46875 47.5586 5.46875ZM47.5586-5.32227Q41.3574-5.32227 35.9375-7.6416Q30.5176-9.96094 26.416-14.0625Q22.3145-18.1641 19.9951-23.6084Q17.6758-29.0527 17.6758-35.2539Q17.6758-41.4551 19.9951-46.875Q22.3145-52.2949 26.3916-56.3965Q30.4688-60.498 35.8887-62.8174Q41.3086-65.1367 47.5098-65.1367Q53.7598-65.1367 59.1797-62.8174Q64.5996-60.498 68.7012-56.3965Q72.8027-52.2949 75.1221-46.875Q77.4414-41.4551 77.4414-35.2539Q77.4414-29.0527 75.1221-23.6084Q72.8027-18.1641 68.7256-14.0625Q64.6484-9.96094 59.2041-7.6416Q53.7598-5.32227 47.5586-5.32227Z"/>
   <path class="hierarchical-1:primary SFSymbolsPreview212121" d="M47.5586-17.041Q51.6602-17.041 54.7119-18.5059Q57.7637-19.9707 59.4727-21.8506Q61.1816-23.7305 61.1816-25.0488Q61.1816-25.7812 60.5469-26.0986Q59.9121-26.416 59.1797-26.123Q56.9824-25.1465 54.3701-24.1211Q51.7578-23.0957 47.5586-23.0957Q43.3594-23.0957 40.7227-24.0967Q38.0859-25.0977 35.9375-26.123Q35.2051-26.4648 34.5703-26.123Q33.9355-25.7812 33.9355-25.0488Q33.9355-23.7305 35.6445-21.8506Q37.3535-19.9707 40.4053-18.5059Q43.457-17.041 47.5586-17.041ZM36.377-38.7695Q38.1836-38.7695 39.5508-40.21Q40.918-41.6504 40.918-43.8965Q40.918-46.1914 39.5508-47.6318Q38.1836-49.0723 36.377-49.0723Q34.5703-49.0723 33.252-47.6318Q31.9336-46.1914 31.9336-43.8965Q31.9336-41.6504 33.252-40.21Q34.5703-38.7695 36.377-38.7695ZM58.6914-38.7695Q60.498-38.7695 61.8652-40.21Q63.2324-41.6504 63.2324-43.8965Q63.2324-46.1914 61.8652-47.6318Q60.498-49.0723 58.6914-49.0723Q56.8848-49.0723 55.5664-47.6318Q54.248-46.1914 54.248-43.8965Q54.248-41.6504 55.5664-40.21Q56.8848-38.7695 58.6914-38.7695Z"/>
  </g>
  <g id="Semibold-S" transform="matrix(1 0 0 1 1996.2 696)">
   <path class="hierarchical-0:secondary SFSymbolsPreview4D4D4D" d="M47.0703 4.98047Q55.3711 4.98047 62.6465 1.85547Q69.9219-1.26953 75.4639-6.86035Q81.0059-12.4512 84.1553-19.7266Q87.3047-27.002 87.3047-35.2539Q87.3047-43.5059 84.1553-50.7812Q81.0059-58.0566 75.4395-63.623Q69.873-69.1895 62.5977-72.3389Q55.3223-75.4883 47.0215-75.4883Q38.7695-75.4883 31.4941-72.3389Q24.2188-69.1895 18.6768-63.623Q13.1348-58.0566 9.98535-50.7812Q6.83594-43.5059 6.83594-35.2539Q6.83594-27.002 9.98535-19.7266Q13.1348-12.4512 18.7012-6.86035Q24.2676-1.26953 31.543 1.85547Q38.8184 4.98047 47.0703 4.98047ZM47.0703-4.58984Q40.7227-4.58984 35.1562-6.95801Q29.5898-9.32617 25.3906-13.5254Q21.1914-17.7246 18.8232-23.291Q16.4551-28.8574 16.4551-35.2539Q16.4551-41.6016 18.8232-47.168Q21.1914-52.7344 25.3662-56.9336Q29.541-61.1328 35.1074-63.5254Q40.6738-65.918 47.0215-65.918Q53.418-65.918 58.9844-63.5254Q64.5508-61.1328 68.75-56.9336Q72.9492-52.7344 75.3418-47.168Q77.7344-41.6016 77.7344-35.2539Q77.7344-28.8574 75.3662-23.291Q72.998-17.7246 68.7988-13.5254Q64.5996-9.32617 59.0332-6.95801Q53.4668-4.58984 47.0703-4.58984Z"/>
   <path class="hierarchical-1:primary SFSymbolsPreview212121" d="M47.0215-16.6016Q51.123-16.6016 54.1748-18.0664Q57.2266-19.5312 58.9355-21.4111Q60.6445-23.291 60.6445-24.6094Q60.6445-25.3418 60.0098-25.6592Q59.375-25.9766 58.6914-25.6836Q56.4941-24.707 53.8574-23.6816Q51.2207-22.6562 47.0215-22.6562Q42.8711-22.6562 40.2344-23.6572Q37.5977-24.6582 35.4004-25.6836Q34.668-26.0254 34.0576-25.6836Q33.4473-25.3418 33.4473-24.6094Q33.4473-23.291 35.1318-21.4111Q36.8164-19.5312 39.8926-18.0664Q42.9688-16.6016 47.0215-16.6016ZM35.8398-38.6719Q37.6953-38.6719 39.0869-40.1611Q40.4785-41.6504 40.4785-43.8965Q40.4785-46.2402 39.0869-47.7295Q37.6953-49.2188 35.8398-49.2188Q33.9844-49.2188 32.6416-47.7295Q31.2988-46.2402 31.2988-43.8965Q31.2988-41.6504 32.6416-40.1611Q33.9844-38.6719 35.8398-38.6719ZM58.2031-38.6719Q60.1074-38.6719 61.4746-40.1611Q62.8418-41.6504 62.8418-43.8965Q62.8418-46.2402 61.4746-47.7295Q60.1074-49.2188 58.2031-49.2188Q56.3965-49.2188 55.0537-47.7295Q53.7109-46.2402 53.7109-43.8965Q53.7109-41.6504 55.0537-40.1611Q56.3965-38.6719 58.2031-38.6719Z"/>
  </g>
  <g id="Medium-S" transform="matrix(1 0 0 1 1699.83 696)">
   <path class="hierarchical-0:secondary SFSymbolsPreview4D4D4D" d="M46.7285 4.63867Q54.9316 4.63867 62.1338 1.51367Q69.3359-1.61133 74.8535-7.12891Q80.3711-12.6465 83.4961-19.8486Q86.6211-27.0508 86.6211-35.2539Q86.6211-43.4082 83.4961-50.6348Q80.3711-57.8613 74.8291-63.3789Q69.2871-68.8965 62.085-71.9971Q54.8828-75.0977 46.6797-75.0977Q38.4766-75.0977 31.2744-71.9971Q24.0723-68.8965 18.5791-63.3789Q13.0859-57.8613 9.96094-50.6348Q6.83594-43.4082 6.83594-35.2539Q6.83594-27.0508 9.96094-19.8486Q13.0859-12.6465 18.6035-7.12891Q24.1211-1.61133 31.3232 1.51367Q38.5254 4.63867 46.7285 4.63867ZM46.7285-4.00391Q40.2344-4.00391 34.5703-6.4209Q28.9062-8.83789 24.6338-13.1348Q20.3613-17.4316 17.9443-23.0957Q15.5273-28.7598 15.5273-35.2539Q15.5273-41.748 17.9199-47.4121Q20.3125-53.0762 24.585-57.373Q28.8574-61.6699 34.5215-64.0869Q40.1855-66.5039 46.6797-66.5039Q53.1738-66.5039 58.8379-64.0869Q64.502-61.6699 68.7988-57.373Q73.0957-53.0762 75.5127-47.4121Q77.9297-41.748 77.9297-35.2539Q77.9297-28.7598 75.5127-23.0957Q73.0957-17.4316 68.8477-13.1348Q64.5996-8.83789 58.9111-6.4209Q53.2227-4.00391 46.7285-4.00391Z"/>
   <path class="hierarchical-1:primary SFSymbolsPreview212121" d="M46.6309-16.2598Q50.7324-16.2598 53.7842-17.7246Q56.8359-19.1895 58.5449-21.0693Q60.2539-22.9492 60.2539-24.2676Q60.2539-25.0488 59.6191-25.3662Q58.9844-25.6836 58.3008-25.3418Q56.1523-24.3652 53.4912-23.3398Q50.8301-22.3145 46.6309-22.3145Q42.4316-22.3145 39.7949-23.3154Q37.1582-24.3164 35.0098-25.3418Q34.2773-25.6836 33.667-25.3662Q33.0566-25.0488 33.0566-24.2676Q33.0566-22.9492 34.7412-21.0693Q36.4258-19.1895 39.502-17.7246Q42.5781-16.2598 46.6309-16.2598ZM35.4004-38.623Q37.2559-38.623 38.6719-40.1123Q40.0879-41.6016 40.0879-43.8965Q40.0879-46.2891 38.6719-47.7783Q37.2559-49.2676 35.4004-49.2676Q33.5449-49.2676 32.1777-47.7783Q30.8105-46.2891 30.8105-43.8965Q30.8105-41.6016 32.1777-40.1123Q33.5449-38.623 35.4004-38.623ZM57.8613-38.623Q59.7656-38.623 61.1572-40.1123Q62.5488-41.6016 62.5488-43.8965Q62.5488-46.2891 61.1572-47.7783Q59.7656-49.2676 57.8613-49.2676Q56.0547-49.2676 54.6875-47.7783Q53.3203-46.2891 53.3203-43.8965Q53.3203-41.6016 54.6875-40.1123Q56.0547-38.623 57.8613-38.623Z"/>
  </g>
  <g id="Regular-S" transform="matrix(1 0 0 1 1403.58 696)">
   <path class="hierarchical-0:secondary SFSymbolsPreview4D4D4D" d="M46.2402 4.15039Q54.3457 4.15039 61.4746 1.07422Q68.6035-2.00195 74.0479-7.4707Q79.4922-12.9395 82.5928-20.0684Q85.6934-27.1973 85.6934-35.2539Q85.6934-43.3105 82.5928-50.4395Q79.4922-57.5684 74.0234-63.0371Q68.5547-68.5059 61.4258-71.582Q54.2969-74.6582 46.1914-74.6582Q38.1348-74.6582 31.0059-71.582Q23.877-68.5059 18.457-63.0371Q13.0371-57.5684 9.93652-50.4395Q6.83594-43.3105 6.83594-35.2539Q6.83594-27.1973 9.93652-20.0684Q13.0371-12.9395 18.4814-7.4707Q23.9258-2.00195 31.0547 1.07422Q38.1836 4.15039 46.2402 4.15039ZM46.2402-3.27148Q39.5996-3.27148 33.8135-5.7373Q28.0273-8.20312 23.6572-12.5977Q19.2871-16.9922 16.8213-22.8027Q14.3555-28.6133 14.3555-35.2539Q14.3555-41.8945 16.7969-47.7051Q19.2383-53.5156 23.6084-57.9102Q27.9785-62.3047 33.7646-64.7705Q39.5508-67.2363 46.1914-67.2363Q52.8809-67.2363 58.667-64.7705Q64.4531-62.3047 68.8477-57.9102Q73.2422-53.5156 75.7324-47.7051Q78.2227-41.8945 78.2227-35.2539Q78.2227-28.6133 75.7568-22.8027Q73.291-16.9922 68.9209-12.5977Q64.5508-8.20312 58.7402-5.7373Q52.9297-3.27148 46.2402-3.27148Z"/>
   <path class="hierarchical-1:primary SFSymbolsPreview212121" d="M46.1914-15.8691Q50.293-15.8691 53.3447-17.334Q56.3965-18.7988 58.1055-20.6787Q59.8145-22.5586 59.8145-23.877Q59.8145-24.6094 59.1797-24.9268Q58.5449-25.2441 57.8613-24.9512Q55.7129-23.9258 53.0518-22.9004Q50.3906-21.875 46.1914-21.875Q41.9922-21.875 39.3555-22.9004Q36.7188-23.9258 34.5215-24.9512Q33.8379-25.2441 33.2275-24.9268Q32.6172-24.6094 32.6172-23.877Q32.6172-22.5586 34.3018-20.6787Q35.9863-18.7988 39.0625-17.334Q42.1387-15.8691 46.1914-15.8691ZM34.9121-38.5742Q36.8164-38.5742 38.2568-40.0879Q39.6973-41.6016 39.6973-43.9453Q39.6973-46.3867 38.2568-47.9004Q36.8164-49.4141 34.9121-49.4141Q33.0078-49.4141 31.6162-47.9004Q30.2246-46.3867 30.2246-43.9453Q30.2246-41.6016 31.6162-40.0879Q33.0078-38.5742 34.9121-38.5742ZM57.4707-38.5742Q59.4238-38.5742 60.8398-40.0879Q62.2559-41.6016 62.2559-43.9453Q62.2559-46.3867 60.8398-47.9004Q59.4238-49.4141 57.4707-49.4141Q55.6152-49.4141 54.2236-47.9004Q52.832-46.3867 52.832-43.9453Q52.832-41.6016 54.2236-40.0879Q55.6152-38.5742 57.4707-38.5742Z"/>
  </g>
  <g id="Light-S" transform="matrix(1 0 0 1 1107.6 696)">
   <path class="hierarchical-0:secondary SFSymbolsPreview4D4D4D" d="M45.5078 3.41797Q53.4668 3.41797 60.4736 0.415039Q67.4805-2.58789 72.8271-7.95898Q78.1738-13.3301 81.2012-20.3125Q84.2285-27.2949 84.2285-35.2539Q84.2285-43.2129 81.2012-50.1953Q78.1738-57.1777 72.8027-62.5488Q67.4316-67.9199 60.4492-70.9229Q53.4668-73.9258 45.459-73.9258Q37.5488-73.9258 30.542-70.9229Q23.5352-67.9199 18.2129-62.5488Q12.8906-57.1777 9.86328-50.1953Q6.83594-43.2129 6.83594-35.2539Q6.83594-27.2949 9.86328-20.3125Q12.8906-13.3301 18.2373-7.95898Q23.584-2.58789 30.5908 0.415039Q37.5977 3.41797 45.5078 3.41797ZM45.5078-2.29492Q38.6719-2.29492 32.6904-4.83398Q26.709-7.37305 22.1924-11.9141Q17.6758-16.4551 15.1367-22.4365Q12.5977-28.418 12.5977-35.2539Q12.5977-42.0898 15.1367-48.0713Q17.6758-54.0527 22.1924-58.5938Q26.709-63.1348 32.666-65.6738Q38.623-68.2129 45.459-68.2129Q52.3438-68.2129 58.3252-65.6738Q64.3066-63.1348 68.8232-58.5938Q73.3398-54.0527 75.9277-48.0713Q78.5156-42.0898 78.5156-35.2539Q78.5156-28.418 75.9521-22.4365Q73.3887-16.4551 68.8721-11.9141Q64.3555-7.37305 58.374-4.83398Q52.3926-2.29492 45.5078-2.29492Z"/>
   <path class="hierarchical-1:primary SFSymbolsPreview212121" d="M45.459-16.2598Q49.4141-16.2598 52.3682-17.7002Q55.3223-19.1406 56.9824-20.9473Q58.6426-22.7539 58.6426-24.0234Q58.6426-24.6094 58.1299-24.8535Q57.6172-25.0977 57.0801-24.8535Q55.127-23.6328 52.3682-22.5586Q49.6094-21.4844 45.459-21.4844Q41.3086-21.4844 38.5742-22.5586Q35.8398-23.6328 33.8379-24.8535Q33.3008-25.0977 32.7881-24.8535Q32.2754-24.6094 32.2754-24.0234Q32.2754-22.7539 33.9355-20.9473Q35.5957-19.1406 38.5742-17.7002Q41.5527-16.2598 45.459-16.2598ZM34.082-38.7207Q35.8398-38.7207 37.1826-40.1855Q38.5254-41.6504 38.5254-43.7988Q38.5254-46.0449 37.1826-47.4854Q35.8398-48.9258 34.082-48.9258Q32.3242-48.9258 31.0303-47.4854Q29.7363-46.0449 29.7363-43.7988Q29.7363-41.6504 31.0303-40.1855Q32.3242-38.7207 34.082-38.7207ZM56.8359-38.7207Q58.5938-38.7207 59.9121-40.1855Q61.2305-41.6504 61.2305-43.7988Q61.2305-46.0449 59.9365-47.4854Q58.6426-48.9258 56.8359-48.9258Q55.0781-48.9258 53.7842-47.4854Q52.4902-46.0449 52.4902-43.7988Q52.4902-41.6504 53.8086-40.1855Q55.127-38.7207 56.8359-38.7207Z"/>
  </g>
  <g id="Thin-S" transform="matrix(1 0 0 1 811.867 696)">
   <path class="hierarchical-0:secondary SFSymbolsPreview4D4D4D" d="M44.5312 2.44141Q52.3438 2.44141 59.1553-0.488281Q65.9668-3.41797 71.1914-8.64258Q76.416-13.8672 79.3457-20.6787Q82.2754-27.4902 82.2754-35.2539Q82.2754-43.0176 79.3457-49.8291Q76.416-56.6406 71.1914-61.8652Q65.9668-67.0898 59.1553-70.0195Q52.3438-72.9492 44.5312-72.9492Q36.7676-72.9492 29.9316-70.0195Q23.0957-67.0898 17.9199-61.8652Q12.7441-56.6406 9.79004-49.8291Q6.83594-43.0176 6.83594-35.2539Q6.83594-27.4902 9.79004-20.6787Q12.7441-13.8672 17.9199-8.64258Q23.0957-3.41797 29.9316-0.488281Q36.7676 2.44141 44.5312 2.44141ZM44.5312-0.927734Q37.4512-0.927734 31.2256-3.58887Q25-6.25 20.2881-10.9619Q15.5762-15.6738 12.915-21.9238Q10.2539-28.1738 10.2539-35.2539Q10.2539-42.334 12.915-48.584Q15.5762-54.834 20.2881-59.5459Q25-64.2578 31.2256-66.9189Q37.4512-69.5801 44.5312-69.5801Q51.6602-69.5801 57.8857-66.9189Q64.1113-64.2578 68.8232-59.5459Q73.5352-54.834 76.1963-48.584Q78.8574-42.334 78.8574-35.2539Q78.8574-28.1738 76.1963-21.9238Q73.5352-15.6738 68.8232-10.9619Q64.1113-6.25 57.8857-3.58887Q51.6602-0.927734 44.5312-0.927734Z"/>
   <path class="hierarchical-1:primary SFSymbolsPreview212121" d="M44.5312-16.748Q48.291-16.748 51.123-18.1396Q53.9551-19.5312 55.5664-21.2891Q57.1777-23.0469 57.1777-24.1699Q57.1777-24.6582 56.8115-24.7803Q56.4453-24.9023 56.1523-24.6582Q54.3945-23.2422 51.5137-22.0947Q48.6328-20.9473 44.5312-20.9473Q40.4785-20.9473 37.5977-22.0947Q34.7168-23.2422 32.959-24.6582Q32.6172-24.9023 32.2754-24.7803Q31.9336-24.6582 31.9336-24.1699Q31.9336-23.0469 33.5205-21.2891Q35.1074-19.5312 37.9639-18.1396Q40.8203-16.748 44.5312-16.748ZM33.0566-38.916Q34.6191-38.916 35.8154-40.2832Q37.0117-41.6504 37.0117-43.6523Q37.0117-45.6055 35.8154-46.9727Q34.6191-48.3398 33.0566-48.3398Q31.4941-48.3398 30.3223-46.9727Q29.1504-45.6055 29.1504-43.6523Q29.1504-41.6504 30.3223-40.2832Q31.4941-38.916 33.0566-38.916ZM56.0547-38.916Q57.6172-38.916 58.7891-40.2832Q59.9609-41.6504 59.9609-43.6523Q59.9609-45.6055 58.8135-46.9727Q57.666-48.3398 56.0547-48.3398Q54.4922-48.3398 53.2959-46.9727Q52.0996-45.6055 52.0996-43.6523Q52.0996-41.6504 53.2959-40.2832Q54.4922-38.916 56.0547-38.916Z"/>
  </g>
  <g id="Ultralight-S" transform="matrix(1 0 0 1 515.644 696)">
   <path class="hierarchical-0:secondary SFSymbolsPreview4D4D4D" d="M44.043 1.95312Q51.7578 1.95312 58.4717-0.927734Q65.1855-3.80859 70.3369-8.95996Q75.4883-14.1113 78.3936-20.8252Q81.2988-27.5391 81.2988-35.2539Q81.2988-42.9688 78.3936-49.6826Q75.4883-56.3965 70.3369-61.5479Q65.1855-66.6992 58.4717-69.5801Q51.7578-72.4609 44.043-72.4609Q36.377-72.4609 29.6387-69.5801Q22.9004-66.6992 17.7734-61.5479Q12.6465-56.3965 9.74121-49.6826Q6.83594-42.9688 6.83594-35.2539Q6.83594-27.5391 9.74121-20.8252Q12.6465-14.1113 17.7734-8.95996Q22.9004-3.80859 29.6387-0.927734Q36.377 1.95312 44.043 1.95312ZM44.043-0.292969Q36.8164-0.292969 30.4688-3.00293Q24.1211-5.71289 19.3115-10.5225Q14.502-15.332 11.7676-21.6797Q9.0332-28.0273 9.0332-35.2539Q9.0332-42.4805 11.7676-48.8281Q14.502-55.1758 19.3115-59.9854Q24.1211-64.7949 30.4688-67.5049Q36.8164-70.2148 44.043-70.2148Q51.2695-70.2148 57.6416-67.5049Q64.0137-64.7949 68.7988-59.9854Q73.584-55.1758 76.3184-48.8281Q79.0527-42.4805 79.0527-35.2539Q79.0527-28.0273 76.3428-21.6797Q73.6328-15.332 68.8232-10.5225Q64.0137-5.71289 57.666-3.00293Q51.3184-0.292969 44.043-0.292969Z"/>
   <path class="hierarchical-1:primary SFSymbolsPreview212121" d="M44.043-16.9922Q47.6562-16.9922 50.4395-18.3838Q53.2227-19.7754 54.7852-21.4844Q56.3477-23.1934 56.3477-24.2676Q56.3477-24.6582 56.0791-24.7314Q55.8105-24.8047 55.6152-24.6094Q53.9551-22.998 51.001-21.8262Q48.0469-20.6543 44.043-20.6543Q39.9902-20.6543 37.0605-21.8262Q34.1309-22.998 32.4707-24.6094Q32.2266-24.8047 31.958-24.7314Q31.6895-24.6582 31.6895-24.2676Q31.6895-23.1934 33.2764-21.4844Q34.8633-19.7754 37.6221-18.3838Q40.3809-16.9922 44.043-16.9922ZM32.5195-39.0137Q33.9355-39.0137 35.0586-40.3564Q36.1816-41.6992 36.1816-43.5547Q36.1816-45.4102 35.0586-46.7041Q33.9355-47.998 32.5195-47.998Q31.0059-47.998 29.9072-46.7041Q28.8086-45.4102 28.8086-43.5547Q28.8086-41.6992 29.9072-40.3564Q31.0059-39.0137 32.5195-39.0137ZM55.6152-39.0137Q57.0312-39.0137 58.1299-40.3564Q59.2285-41.6992 59.2285-43.5547Q59.2285-45.4102 58.1543-46.7041Q57.0801-47.998 55.6152-47.998Q54.1016-47.998 52.9785-46.7041Q51.8555-45.4102 51.8555-43.5547Q51.8555-41.6992 53.0029-40.3564Q54.1504-39.0137 55.6152-39.0137Z"/>
  </g>
 </g>
</svg>
