<?xml version="1.0" encoding="UTF-8"?>
<!--Generator: Apple Native CoreSVG 149-->
<!DOCTYPE svg
PUBLIC "-//W3C//DTD SVG 1.1//EN"
       "http://www.w3.org/Graphics/SVG/1.1/DTD/svg11.dtd">
<svg version="1.1" xmlns="http://www.w3.org/2000/svg" xmlns:xlink="http://www.w3.org/1999/xlink" width="3300" height="2200">
 <!--glyph: "uni1003B8.medium", point size: 100.000000, font version: "Version 16.0d18e1", template writer version: "8"-->
 <g id="Notes">
  <rect height="2200" id="artboard" style="fill:white;opacity:1" width="3300" x="0" y="0"/>
  <line id="" style="fill:none;stroke:black;opacity:1;stroke-width:0.5;" x1="263" x2="3036" y1="292" y2="292"/>
  <text style="stroke:none;fill:black;font-family:-apple-system,&quot;SF Pro Display&quot;,&quot;SF Pro Text&quot;,Helvetica,sans-serif;font-weight:bold;" transform="matrix(1 0 0 1 263 322)">Weight/Scale Variations</text>
  <text style="stroke:none;fill:black;font-family:-apple-system,&quot;SF Pro Display&quot;,&quot;SF Pro Text&quot;,Helvetica,sans-serif;text-anchor:middle;" transform="matrix(1 0 0 1 559.711 322)">Ultralight</text>
  <text style="stroke:none;fill:black;font-family:-apple-system,&quot;SF Pro Display&quot;,&quot;SF Pro Text&quot;,Helvetica,sans-serif;text-anchor:middle;" transform="matrix(1 0 0 1 856.422 322)">Thin</text>
  <text style="stroke:none;fill:black;font-family:-apple-system,&quot;SF Pro Display&quot;,&quot;SF Pro Text&quot;,Helvetica,sans-serif;text-anchor:middle;" transform="matrix(1 0 0 1 1153.13 322)">Light</text>
  <text style="stroke:none;fill:black;font-family:-apple-system,&quot;SF Pro Display&quot;,&quot;SF Pro Text&quot;,Helvetica,sans-serif;text-anchor:middle;" transform="matrix(1 0 0 1 1449.84 322)">Regular</text>
  <text style="stroke:none;fill:black;font-family:-apple-system,&quot;SF Pro Display&quot;,&quot;SF Pro Text&quot;,Helvetica,sans-serif;text-anchor:middle;" transform="matrix(1 0 0 1 1746.56 322)">Medium</text>
  <text style="stroke:none;fill:black;font-family:-apple-system,&quot;SF Pro Display&quot;,&quot;SF Pro Text&quot;,Helvetica,sans-serif;text-anchor:middle;" transform="matrix(1 0 0 1 2043.27 322)">Semibold</text>
  <text style="stroke:none;fill:black;font-family:-apple-system,&quot;SF Pro Display&quot;,&quot;SF Pro Text&quot;,Helvetica,sans-serif;text-anchor:middle;" transform="matrix(1 0 0 1 2339.98 322)">Bold</text>
  <text style="stroke:none;fill:black;font-family:-apple-system,&quot;SF Pro Display&quot;,&quot;SF Pro Text&quot;,Helvetica,sans-serif;text-anchor:middle;" transform="matrix(1 0 0 1 2636.69 322)">Heavy</text>
  <text style="stroke:none;fill:black;font-family:-apple-system,&quot;SF Pro Display&quot;,&quot;SF Pro Text&quot;,Helvetica,sans-serif;text-anchor:middle;" transform="matrix(1 0 0 1 2933.4 322)">Black</text>
  <line id="" style="fill:none;stroke:black;opacity:1;stroke-width:0.5;" x1="263" x2="3036" y1="1903" y2="1903"/>
  <g id="" transform="matrix(1 0 0 1 263 1933)">
   <path d="M9.24805 0.830078C13.5547 0.830078 17.1387-2.74414 17.1387-7.05078C17.1387-11.3574 13.5449-14.9316 9.23828-14.9316C4.94141-14.9316 1.36719-11.3574 1.36719-7.05078C1.36719-2.74414 4.95117 0.830078 9.24805 0.830078ZM9.24805-0.654297C5.70312-0.654297 2.87109-3.49609 2.87109-7.05078C2.87109-10.6055 5.69336-13.4473 9.23828-13.4473C12.793-13.4473 15.6348-10.6055 15.6445-7.05078C15.6543-3.49609 12.8027-0.654297 9.24805-0.654297ZM6.39648-6.31836L8.50586-6.31836L8.50586-4.19922C8.50586-3.75977 8.79883-3.45703 9.22852-3.45703C9.67773-3.45703 9.9707-3.75977 9.9707-4.19922L9.9707-6.31836L12.0996-6.31836C12.5391-6.31836 12.8418-6.61133 12.8418-7.04102C12.8418-7.48047 12.5391-7.7832 12.0996-7.7832L9.9707-7.7832L9.9707-9.89258C9.9707-10.3418 9.67773-10.6445 9.22852-10.6445C8.79883-10.6445 8.50586-10.3418 8.50586-9.89258L8.50586-7.7832L6.39648-7.7832C5.94727-7.7832 5.64453-7.48047 5.64453-7.04102C5.64453-6.61133 5.94727-6.31836 6.39648-6.31836Z"/>
  </g>
  <g id="" transform="matrix(1 0 0 1 281.506 1933)">
   <path d="M11.709 2.91016C17.1582 2.91016 21.6699-1.61133 21.6699-7.05078C21.6699-12.5 17.1484-17.0117 11.6992-17.0117C6.25977-17.0117 1.74805-12.5 1.74805-7.05078C1.74805-1.61133 6.26953 2.91016 11.709 2.91016ZM11.709 1.25C7.09961 1.25 3.41797-2.44141 3.41797-7.05078C3.41797-11.6602 7.08984-15.3516 11.6992-15.3516C16.3086-15.3516 20-11.6602 20.0098-7.05078C20.0195-2.44141 16.3184 1.25 11.709 1.25ZM7.98828-6.23047L10.8789-6.23047L10.8789-3.32031C10.8789-2.83203 11.2109-2.5 11.6895-2.5C12.1777-2.5 12.5195-2.83203 12.5195-3.32031L12.5195-6.23047L15.4297-6.23047C15.918-6.23047 16.25-6.5625 16.25-7.04102C16.25-7.5293 15.918-7.87109 15.4297-7.87109L12.5195-7.87109L12.5195-10.7617C12.5195-11.2695 12.1777-11.6016 11.6895-11.6016C11.2109-11.6016 10.8789-11.2598 10.8789-10.7617L10.8789-7.87109L7.98828-7.87109C7.48047-7.87109 7.14844-7.5293 7.14844-7.04102C7.14844-6.5625 7.49023-6.23047 7.98828-6.23047Z"/>
  </g>
  <g id="" transform="matrix(1 0 0 1 304.924 1933)">
   <path d="M14.9707 5.66406C21.9336 5.66406 27.6953-0.0976562 27.6953-7.05078C27.6953-14.0137 21.9238-19.7754 14.9609-19.7754C8.00781-19.7754 2.25586-14.0137 2.25586-7.05078C2.25586-0.0976562 8.01758 5.66406 14.9707 5.66406ZM14.9707 3.84766C8.93555 3.84766 4.08203-1.01562 4.08203-7.05078C4.08203-13.0957 8.92578-17.9492 14.9609-17.9492C21.0059-17.9492 25.8594-13.0957 25.8691-7.05078C25.8789-1.01562 21.0156 3.84766 14.9707 3.84766ZM10.0586-6.14258L14.0625-6.14258L14.0625-2.12891C14.0625-1.5918 14.4336-1.2207 14.9512-1.2207C15.4883-1.2207 15.8594-1.5918 15.8594-2.12891L15.8594-6.14258L19.8828-6.14258C20.4102-6.14258 20.791-6.51367 20.791-7.03125C20.791-7.56836 20.4199-7.94922 19.8828-7.94922L15.8594-7.94922L15.8594-11.9531C15.8594-12.5098 15.4883-12.8809 14.9512-12.8809C14.4336-12.8809 14.0625-12.5 14.0625-11.9531L14.0625-7.94922L10.0586-7.94922C9.50195-7.94922 9.13086-7.56836 9.13086-7.03125C9.13086-6.51367 9.51172-6.14258 10.0586-6.14258Z"/>
  </g>
  <text style="stroke:none;fill:black;font-family:-apple-system,&quot;SF Pro Display&quot;,&quot;SF Pro Text&quot;,Helvetica,sans-serif;font-weight:bold;" transform="matrix(1 0 0 1 263 1953)">Design Variations</text>
  <text style="stroke:none;fill:black;font-family:-apple-system,&quot;SF Pro Display&quot;,&quot;SF Pro Text&quot;,Helvetica,sans-serif;" transform="matrix(1 0 0 1 263 1971)">Symbols are supported in up to nine weights and three scales.</text>
  <text style="stroke:none;fill:black;font-family:-apple-system,&quot;SF Pro Display&quot;,&quot;SF Pro Text&quot;,Helvetica,sans-serif;" transform="matrix(1 0 0 1 263 1989)">For optimal layout with text and other symbols, vertically align</text>
  <text style="stroke:none;fill:black;font-family:-apple-system,&quot;SF Pro Display&quot;,&quot;SF Pro Text&quot;,Helvetica,sans-serif;" transform="matrix(1 0 0 1 263 2007)">symbols with the adjacent text.</text>
  <line id="" style="fill:none;stroke:#00AEEF;stroke-width:0.5;opacity:1.0;" x1="776" x2="776" y1="1919" y2="1933"/>
  <g id="" transform="matrix(1 0 0 1 776 1933)">
   <path d="M3.31055 0.126953C3.82812 0.126953 4.08203-0.0683594 4.26758-0.605469L5.52734-4.0625L11.2891-4.0625L12.5488-0.605469C12.7344-0.0683594 12.9883 0.126953 13.4961 0.126953C14.0137 0.126953 14.3457-0.185547 14.3457-0.673828C14.3457-0.839844 14.3164-0.986328 14.2383-1.20117L9.6582-13.3887C9.43359-13.9941 9.0332-14.2871 8.4082-14.2871C7.80273-14.2871 7.39258-13.9941 7.17773-13.3984L2.59766-1.19141C2.51953-0.976562 2.49023-0.830078 2.49023-0.664062C2.49023-0.175781 2.80273 0.126953 3.31055 0.126953ZM6.00586-5.53711L8.37891-12.1094L8.42773-12.1094L10.8008-5.53711Z"/>
  </g>
  <line id="" style="fill:none;stroke:#00AEEF;stroke-width:0.5;opacity:1.0;" x1="792.836" x2="792.836" y1="1919" y2="1933"/>
  <text style="stroke:none;fill:black;font-family:-apple-system,&quot;SF Pro Display&quot;,&quot;SF Pro Text&quot;,Helvetica,sans-serif;font-weight:bold;" transform="matrix(1 0 0 1 776 1953)">Margins</text>
  <text style="stroke:none;fill:black;font-family:-apple-system,&quot;SF Pro Display&quot;,&quot;SF Pro Text&quot;,Helvetica,sans-serif;" transform="matrix(1 0 0 1 776 1971)">Leading and trailing margins on the left and right side of each symbol</text>
  <text style="stroke:none;fill:black;font-family:-apple-system,&quot;SF Pro Display&quot;,&quot;SF Pro Text&quot;,Helvetica,sans-serif;" transform="matrix(1 0 0 1 776 1989)">can be adjusted by modifying the x-location of the margin guidelines.</text>
  <text style="stroke:none;fill:black;font-family:-apple-system,&quot;SF Pro Display&quot;,&quot;SF Pro Text&quot;,Helvetica,sans-serif;" transform="matrix(1 0 0 1 776 2007)">Modifications are automatically applied proportionally to all</text>
  <text style="stroke:none;fill:black;font-family:-apple-system,&quot;SF Pro Display&quot;,&quot;SF Pro Text&quot;,Helvetica,sans-serif;" transform="matrix(1 0 0 1 776 2025)">scales and weights.</text>
  <g id="" transform="matrix(1 0 0 1 1289 1933)">
   <path d="M2.8418 1.86523L4.54102 3.57422C5.40039 4.44336 6.38672 4.38477 7.31445 3.35938L17.4902-7.85156C17.7539-7.76367 18.0273-7.7832 18.3398-7.8418L19.4043-8.03711L20.0684-7.36328L20.0293-6.80664C19.9902-6.30859 20.1172-5.92773 20.6055-5.44922L21.3672-4.70703C21.8457-4.22852 22.4609-4.19922 22.9297-4.66797L25.8398-7.58789C26.3086-8.05664 26.2891-8.65234 25.8105-9.13086L25.0391-9.89258C24.5605-10.3711 24.1895-10.5273 23.7109-10.4883L23.1348-10.4395L22.4902-11.0742L22.7344-12.1973C22.8613-12.7637 22.7051-13.2031 22.1191-13.7891L19.9219-15.9766C16.582-19.2969 12.1484-19.2188 9.25781-16.3281C8.83789-15.918 8.80859-15.3418 9.04297-14.9512C9.27734-14.5898 9.73633-14.3555 10.3809-14.5215C11.8457-14.8633 13.3691-14.9219 14.7949-13.9844L14.209-12.5293C14.0137-12.0508 13.9844-11.6504 14.1113-11.2891L3.04688-0.898438C2.06055 0.0195312 1.98242 0.996094 2.8418 1.86523ZM10.752-15.957C13.1836-17.7344 16.4746-17.4316 18.7012-15.2051L21.1328-12.793C21.3672-12.5586 21.4062-12.373 21.3379-12.0312L21.0156-10.5469L22.5195-9.0625L23.5059-9.12109C23.7598-9.13086 23.8379-9.11133 24.0332-8.91602L24.6094-8.33984L22.168-5.89844L21.5918-6.47461C21.3965-6.66992 21.3672-6.74805 21.377-7.01172L21.4453-7.98828L19.9512-9.47266L18.4277-9.21875C18.1055-9.15039 17.959-9.17969 17.7148-9.41406L15.7129-11.416C15.459-11.6504 15.4297-11.8164 15.5859-12.1875L16.4648-14.2773C14.9023-15.7324 12.8711-16.3574 10.8398-15.7617C10.6836-15.7227 10.625-15.8496 10.752-15.957ZM5.27344 2.30469L4.10156 1.14258C3.63281 0.683594 3.74023 0.341797 4.14062-0.0195312L14.9512-10.1953L16.416-8.71094L6.42578 2.27539C6.07422 2.67578 5.74219 2.77344 5.27344 2.30469Z"/>
  </g>
  <text style="stroke:none;fill:black;font-family:-apple-system,&quot;SF Pro Display&quot;,&quot;SF Pro Text&quot;,Helvetica,sans-serif;font-weight:bold;" transform="matrix(1 0 0 1 1289 1953)">Exporting</text>
  <text style="stroke:none;fill:black;font-family:-apple-system,&quot;SF Pro Display&quot;,&quot;SF Pro Text&quot;,Helvetica,sans-serif;" transform="matrix(1 0 0 1 1289 1971)">Symbols should be outlined when exporting to ensure the</text>
  <text style="stroke:none;fill:black;font-family:-apple-system,&quot;SF Pro Display&quot;,&quot;SF Pro Text&quot;,Helvetica,sans-serif;" transform="matrix(1 0 0 1 1289 1989)">design is preserved when submitting to Xcode.</text>
  <text id="template-version" style="stroke:none;fill:black;font-family:-apple-system,&quot;SF Pro Display&quot;,&quot;SF Pro Text&quot;,Helvetica,sans-serif;text-anchor:end;" transform="matrix(1 0 0 1 3036 1933)">Template v.2.0</text>
  <text style="stroke:none;fill:black;font-family:-apple-system,&quot;SF Pro Display&quot;,&quot;SF Pro Text&quot;,Helvetica,sans-serif;text-anchor:end;" transform="matrix(1 0 0 1 3036 1951)">Requires Xcode 12 or greater</text>
  <text style="stroke:none;fill:black;font-family:-apple-system,&quot;SF Pro Display&quot;,&quot;SF Pro Text&quot;,Helvetica,sans-serif;text-anchor:end;" transform="matrix(1 0 0 1 3036 1969)">Generated from face.smiling</text>
  <text style="stroke:none;fill:black;font-family:-apple-system,&quot;SF Pro Display&quot;,&quot;SF Pro Text&quot;,Helvetica,sans-serif;text-anchor:end;" transform="matrix(1 0 0 1 3036 1987)">Typeset at 100 points</text>
  <text style="stroke:none;fill:black;font-family:-apple-system,&quot;SF Pro Display&quot;,&quot;SF Pro Text&quot;,Helvetica,sans-serif;" transform="matrix(1 0 0 1 263 726)">Small</text>
  <text style="stroke:none;fill:black;font-family:-apple-system,&quot;SF Pro Display&quot;,&quot;SF Pro Text&quot;,Helvetica,sans-serif;" transform="matrix(1 0 0 1 263 1156)">Medium</text>
  <text style="stroke:none;fill:black;font-family:-apple-system,&quot;SF Pro Display&quot;,&quot;SF Pro Text&quot;,Helvetica,sans-serif;" transform="matrix(1 0 0 1 263 1586)">Large</text>
 </g>
 <g id="Guides">
  <g id="H-reference" style="fill:#27AAE1;stroke:none;" transform="matrix(1 0 0 1 339 696)">
   <path d="M0.976562 0L3.66211 0L12.9883-24.4629L45.752-24.4629L55.127 0L57.7637 0L30.6152-70.459L28.125-70.459ZM29.3457-67.1387L29.4434-67.1387L44.873-26.709L13.8672-26.709Z"/>
  </g>
  <line id="Baseline-S" style="fill:none;stroke:#27AAE1;opacity:1;stroke-width:0.5;" x1="263" x2="3036" y1="696" y2="696"/>
  <line id="Capline-S" style="fill:none;stroke:#27AAE1;opacity:1;stroke-width:0.5;" x1="263" x2="3036" y1="625.541" y2="625.541"/>
  <g id="H-reference" style="fill:#27AAE1;stroke:none;" transform="matrix(1 0 0 1 339 1126)">
   <path d="M0.976562 0L3.66211 0L12.9883-24.4629L45.752-24.4629L55.127 0L57.7637 0L30.6152-70.459L28.125-70.459ZM29.3457-67.1387L29.4434-67.1387L44.873-26.709L13.8672-26.709Z"/>
  </g>
  <line id="Baseline-M" style="fill:none;stroke:#27AAE1;opacity:1;stroke-width:0.5;" x1="263" x2="3036" y1="1126" y2="1126"/>
  <line id="Capline-M" style="fill:none;stroke:#27AAE1;opacity:1;stroke-width:0.5;" x1="263" x2="3036" y1="1055.54" y2="1055.54"/>
  <g id="H-reference" style="fill:#27AAE1;stroke:none;" transform="matrix(1 0 0 1 339 1556)">
   <path d="M0.976562 0L3.66211 0L12.9883-24.4629L45.752-24.4629L55.127 0L57.7637 0L30.6152-70.459L28.125-70.459ZM29.3457-67.1387L29.4434-67.1387L44.873-26.709L13.8672-26.709Z"/>
  </g>
  <line id="Baseline-L" style="fill:none;stroke:#27AAE1;opacity:1;stroke-width:0.5;" x1="263" x2="3036" y1="1556" y2="1556"/>
  <line id="Capline-L" style="fill:none;stroke:#27AAE1;opacity:1;stroke-width:0.5;" x1="263" x2="3036" y1="1485.54" y2="1485.54"/>
  <line id="left-margin" style="fill:none;stroke:#00AEEF;stroke-width:0.5;opacity:1.0;" x1="1391.3" x2="1391.3" y1="1030.79" y2="1150.12"/>
  <line id="right-margin" style="fill:none;stroke:#00AEEF;stroke-width:0.5;opacity:1.0;" x1="1508.39" x2="1508.39" y1="1030.79" y2="1150.12"/>
 </g>
 <g id="Symbols">
  <g id="Black-L" transform="matrix(1 0 0 1 2854.05 1556)">
   <path d="M79.3457 32.8613C116.748 32.8613 147.412 2.19727 147.412-35.2051C147.412-72.6074 116.748-103.271 79.2969-103.271C41.8945-103.271 11.2793-72.6074 11.2793-35.2051C11.2793 2.19727 41.9434 32.8613 79.3457 32.8613ZM79.3457 12.4023C52.9785 12.4023 31.7383-8.83789 31.7383-35.2051C31.7383-61.5723 52.9297-82.8125 79.2969-82.8125C105.664-82.8125 126.953-61.5723 126.953-35.2051C127.002-8.83789 105.713 12.4023 79.3457 12.4023ZM61.1328-41.0156C64.9414-41.0156 68.2617-44.3848 68.2617-49.0723C68.2617-53.8574 64.9414-57.2266 61.1328-57.2266C57.3242-57.2266 54.1992-53.8574 54.1992-49.0723C54.1992-44.3848 57.3242-41.0156 61.1328-41.0156ZM97.5586-41.0156C101.318-41.0156 104.688-44.3848 104.688-49.0723C104.688-53.8574 101.318-57.2266 97.5586-57.2266C93.7012-57.2266 90.5273-53.8574 90.5273-49.0723C90.5273-44.3848 93.7012-41.0156 97.5586-41.0156ZM56.8359-19.2383C56.8359-14.8926 65.8203-6.05469 79.2969-6.05469C92.7734-6.05469 101.758-14.8926 101.758-19.2383C101.758-20.9473 100.098-21.7773 98.4375-21.0449C93.6035-18.9453 88.5254-16.1133 79.2969-16.1133C70.1172-16.1133 64.9414-18.7988 60.2051-21.0449C58.5449-21.8262 56.8359-20.9473 56.8359-19.2383Z"/>
  </g>
  <g id="Heavy-L" transform="matrix(1 0 0 1 2558.39 1556)">
   <path d="M78.2715 31.7871C115.088 31.7871 145.312 1.5625 145.312-35.2051C145.312-72.0215 115.039-102.246 78.2715-102.246C41.4551-102.246 11.2793-72.0215 11.2793-35.2051C11.2793 1.5625 41.5039 31.7871 78.2715 31.7871ZM78.2715 14.0137C51.0254 14.0137 29.0527-7.95898 29.0527-35.2051C29.0527-62.5 50.9766-84.4727 78.2715-84.4727C105.518-84.4727 127.49-62.5 127.539-35.2051C127.539-7.95898 105.566 14.0137 78.2715 14.0137ZM60.0586-41.0645C63.8184-41.0645 67.041-44.3848 67.041-49.0234C67.041-53.7109 63.8184-57.0312 60.0586-57.0312C56.2988-57.0312 53.2227-53.7109 53.2227-49.0234C53.2227-44.3848 56.2988-41.0645 60.0586-41.0645ZM96.582-41.0645C100.293-41.0645 103.516-44.3848 103.516-49.0234C103.516-53.7109 100.293-57.0312 96.582-57.0312C92.7734-57.0312 89.6973-53.7109 89.6973-49.0234C89.6973-44.3848 92.7734-41.0645 96.582-41.0645ZM56.0059-18.6523C56.0059-14.4043 64.8926-5.56641 78.2715-5.56641C91.5527-5.56641 100.537-14.4043 100.537-18.6523C100.537-20.2637 98.9258-21.0449 97.3633-20.3613C92.6758-18.0664 87.4023-15.2832 78.2715-15.2832C69.0918-15.2832 63.7695-18.0176 59.1309-20.3613C57.6172-21.0938 56.0059-20.2637 56.0059-18.6523Z"/>
  </g>
  <g id="Bold-L" transform="matrix(1 0 0 1 2262.88 1556)">
   <path d="M77.0996 30.5664C113.232 30.5664 142.92 0.878906 142.92-35.2539C142.92-71.3379 113.184-101.074 77.0508-101.074C40.9668-101.074 11.2793-71.3379 11.2793-35.2539C11.2793 0.878906 41.0156 30.5664 77.0996 30.5664ZM77.0996 15.8203C48.8281 15.8203 26.0742-6.98242 26.0742-35.2539C26.0742-63.5254 48.7793-86.2793 77.0508-86.2793C105.371-86.2793 128.125-63.5254 128.174-35.2539C128.174-6.98242 105.371 15.8203 77.0996 15.8203ZM58.8379-41.1621C62.5488-41.1621 65.6738-44.4336 65.6738-48.9746C65.6738-53.5645 62.5488-56.8359 58.8379-56.8359C55.1758-56.8359 52.1484-53.5645 52.1484-48.9746C52.1484-44.4336 55.1758-41.1621 58.8379-41.1621ZM95.459-41.1621C99.1211-41.1621 102.295-44.4336 102.295-48.9746C102.295-53.5645 99.1211-56.8359 95.459-56.8359C91.748-56.8359 88.7207-53.5645 88.7207-48.9746C88.7207-44.4336 91.748-41.1621 95.459-41.1621ZM55.0293-18.0176C55.0293-13.8184 63.8672-5.0293 77.0508-5.0293C90.2344-5.0293 99.1211-13.8184 99.1211-18.0176C99.1211-19.5312 97.6074-20.2148 96.1914-19.5312C91.6016-17.1387 86.2305-14.3066 77.0508-14.3066C67.9199-14.3066 62.4512-17.0898 57.959-19.5312C56.543-20.2637 55.0293-19.5312 55.0293-18.0176Z"/>
  </g>
  <g id="Semibold-L" transform="matrix(1 0 0 1 1966.97 1556)">
   <path d="M76.2695 29.7363C111.914 29.7363 141.309 0.390625 141.309-35.2539C141.309-70.8984 111.865-100.244 76.2695-100.244C40.625-100.244 11.2793-70.8984 11.2793-35.2539C11.2793 0.390625 40.6738 29.7363 76.2695 29.7363ZM76.2695 17.041C47.3145 17.041 24.0234-6.25 24.0234-35.2539C24.0234-64.209 47.2656-87.5488 76.2695-87.5488C105.225-87.5488 128.564-64.209 128.613-35.2539C128.662-6.25 105.273 17.041 76.2695 17.041ZM58.0078-41.2109C61.6699-41.2109 64.7461-44.4336 64.7461-48.9258C64.7461-53.4668 61.6699-56.6895 58.0078-56.6895C54.3945-56.6895 51.416-53.4668 51.416-48.9258C51.416-44.4336 54.3945-41.2109 58.0078-41.2109ZM94.6777-41.2109C98.3398-41.2109 101.416-44.4336 101.416-48.9258C101.416-53.4668 98.3398-56.6895 94.6777-56.6895C91.0645-56.6895 88.0371-53.4668 88.0371-48.9258C88.0371-44.4336 91.0645-41.2109 94.6777-41.2109ZM54.3457-17.5781C54.3457-13.4277 63.1836-4.6875 76.2695-4.6875C89.3066-4.6875 98.1445-13.4277 98.1445-17.5781C98.1445-18.9941 96.6797-19.6289 95.4102-18.9941C90.918-16.5039 85.3516-13.623 76.2695-13.623C67.1387-13.623 61.5723-16.4551 57.1289-18.9941C55.8105-19.6777 54.3457-18.9941 54.3457-17.5781Z"/>
  </g>
  <g id="Medium-L" transform="matrix(1 0 0 1 1670.87 1556)">
   <path d="M75.6836 29.1504C110.938 29.1504 140.088 0 140.088-35.2539C140.088-70.5078 110.889-99.6582 75.6348-99.6582C40.3809-99.6582 11.2793-70.5078 11.2793-35.2539C11.2793 0 40.3809 29.1504 75.6836 29.1504ZM75.6836 18.0176C46.1426 18.0176 22.4609-5.76172 22.4609-35.2539C22.4609-64.7461 46.1426-88.5254 75.6348-88.5254C105.127-88.5254 128.906-64.7461 128.906-35.2539C128.955-5.76172 105.176 18.0176 75.6836 18.0176ZM57.373-41.2109C60.9863-41.2109 64.0137-44.4336 64.0137-48.9258C64.0137-53.3691 60.9863-56.5918 57.373-56.5918C53.7598-56.5918 50.8301-53.3691 50.8301-48.9258C50.8301-44.4336 53.7598-41.2109 57.373-41.2109ZM94.0918-41.2109C97.7051-41.2109 100.732-44.4336 100.732-48.9258C100.732-53.3691 97.7051-56.5918 94.0918-56.5918C90.5273-56.5918 87.5488-53.3691 87.5488-48.9258C87.5488-44.4336 90.5273-41.2109 94.0918-41.2109ZM53.8574-17.1875C53.8574-13.1348 62.6465-4.39453 75.6348-4.39453C88.5742-4.39453 97.4121-13.1348 97.4121-17.1875C97.4121-18.6035 95.9961-19.1895 94.7754-18.6035C90.3809-16.0156 84.7168-13.1348 75.6348-13.1348C66.5039-13.1348 60.8887-16.0156 56.4941-18.6035C55.2246-19.2383 53.8574-18.6035 53.8574-17.1875Z"/>
  </g>
  <g id="Regular-L" transform="matrix(1 0 0 1 1374.97 1556)">
   <path d="M74.8535 28.3203C109.668 28.3203 138.477-0.488281 138.477-35.2539C138.477-70.0684 109.619-98.877 74.8047-98.877C40.0391-98.877 11.2793-70.0684 11.2793-35.2539C11.2793-0.488281 40.0879 28.3203 74.8535 28.3203ZM74.8535 19.2383C44.6777 19.2383 20.4102-5.07812 20.4102-35.2539C20.4102-65.4785 44.6289-89.7461 74.8047-89.7461C105.029-89.7461 129.297-65.4785 129.346-35.2539C129.395-5.07812 105.078 19.2383 74.8535 19.2383ZM56.543-41.2598C60.1562-41.2598 63.0859-44.4336 63.0859-48.877C63.0859-53.2715 60.1562-56.4453 56.543-56.4453C52.9785-56.4453 50.0977-53.2715 50.0977-48.877C50.0977-44.4336 52.9785-41.2598 56.543-41.2598ZM93.3594-41.2598C96.9238-41.2598 99.9023-44.4336 99.9023-48.877C99.9023-53.2715 96.9238-56.4453 93.3594-56.4453C89.7949-56.4453 86.9141-53.2715 86.9141-48.877C86.9141-44.4336 89.7949-41.2598 93.3594-41.2598ZM53.2227-16.748C53.2227-12.7441 61.9629-4.05273 74.8047-4.05273C87.6953-4.05273 96.4355-12.7441 96.4355-16.748C96.4355-18.0664 95.1172-18.6523 93.9941-18.0664C89.6484-15.332 83.9355-12.5 74.8047-12.5C65.7227-12.5 60.0098-15.3809 55.6641-18.0664C54.541-18.6523 53.2227-18.0664 53.2227-16.748Z"/>
  </g>
  <g id="Light-L" transform="matrix(1 0 0 1 1079.18 1556)">
   <path d="M73.9258 27.3926C108.301 27.3926 136.621-0.927734 136.621-35.2539C136.621-69.6289 108.252-97.9492 73.9258-97.9492C39.5508-97.9492 11.2793-69.6289 11.2793-35.2539C11.2793-0.927734 39.5996 27.3926 73.9258 27.3926ZM73.9258 20.5078C43.1152 20.5078 18.2129-4.44336 18.2129-35.2539C18.2129-66.1133 43.0664-91.0156 73.9258-91.0156C104.736-91.0156 129.688-66.1133 129.736-35.2539C129.736-4.44336 104.785 20.5078 73.9258 20.5078ZM55.5664-41.6504C58.9844-41.6504 61.7676-44.6777 61.7676-48.877C61.7676-53.0273 58.9844-56.0547 55.5664-56.0547C52.2461-56.0547 49.5117-53.0273 49.5117-48.877C49.5117-44.6777 52.2461-41.6504 55.5664-41.6504ZM92.3828-41.6504C95.8008-41.6504 98.5352-44.6777 98.5352-48.877C98.5352-53.0273 95.8008-56.0547 92.3828-56.0547C89.0137-56.0547 86.2793-53.0273 86.2793-48.877C86.2793-44.6777 89.0137-41.6504 92.3828-41.6504ZM52.832-16.9434C52.832-13.0859 61.4258-4.49219 73.9258-4.49219C86.377-4.49219 95.0195-13.0859 95.0195-16.9434C95.0195-18.0176 93.8965-18.4082 93.0176-17.9199C89.0137-14.8926 82.9102-11.9629 73.9258-11.9629C64.8926-11.9629 58.8867-14.9414 54.7852-17.9199C53.9062-18.4082 52.832-18.0176 52.832-16.9434Z"/>
  </g>
  <g id="Thin-L" transform="matrix(1 0 0 1 783.693 1556)">
   <path d="M72.7051 26.1719C106.494 26.1719 134.18-1.51367 134.18-35.2539C134.18-69.043 106.494-96.7285 72.7051-96.7285C38.9648-96.7285 11.2793-69.043 11.2793-35.2539C11.2793-1.51367 38.9648 26.1719 72.7051 26.1719ZM72.7051 22.168C41.0156 22.168 15.2832-3.56445 15.2832-35.2539C15.2832-66.9922 41.0156-92.7246 72.7051-92.7246C104.395-92.7246 130.176-66.9922 130.176-35.2539C130.176-3.56445 104.443 22.168 72.7051 22.168ZM54.2969-42.1387C57.5195-42.1387 60.0098-45.0195 60.0098-48.877C60.0098-52.7344 57.5195-55.5664 54.2969-55.5664C51.2207-55.5664 48.7305-52.7344 48.7305-48.877C48.7305-45.0195 51.2207-42.1387 54.2969-42.1387ZM91.0645-42.1387C94.2871-42.1387 96.7773-45.0195 96.7773-48.877C96.7773-52.7344 94.2871-55.5664 91.0645-55.5664C87.9395-55.5664 85.498-52.7344 85.498-48.877C85.498-45.0195 87.9395-42.1387 91.0645-42.1387ZM52.3438-17.1875C52.3438-13.5742 60.7422-5.12695 72.7051-5.12695C84.668-5.12695 93.0664-13.5742 93.0664-17.1875C93.0664-17.9688 92.2852-18.1152 91.7969-17.7246C88.1348-14.2578 81.5918-11.3281 72.7051-11.3281C63.8184-11.3281 57.373-14.3555 53.6621-17.7246C53.125-18.1152 52.3438-17.9688 52.3438-17.1875Z"/>
  </g>
  <g id="Ultralight-L" transform="matrix(1 0 0 1 487.616 1556)">
   <path d="M72.1191 25.5371C105.566 25.5371 132.91-1.80664 132.91-35.2539C132.91-68.75 105.566-96.0938 72.1191-96.0938C38.623-96.0938 11.2793-68.75 11.2793-35.2539C11.2793-1.80664 38.623 25.5371 72.1191 25.5371ZM72.1191 23.0469C39.9414 23.0469 13.7695-3.125 13.7695-35.2539C13.7695-67.4316 39.9414-93.6035 72.1191-93.6035C104.248-93.6035 130.42-67.4316 130.42-35.2539C130.42-3.125 104.248 23.0469 72.1191 23.0469ZM53.6621-42.3828C56.7383-42.3828 59.082-45.166 59.082-48.877C59.082-52.5391 56.7383-55.3223 53.6621-55.3223C50.6836-55.3223 48.3398-52.5391 48.3398-48.877C48.3398-45.166 50.6836-42.3828 53.6621-42.3828ZM90.4297-42.3828C93.5059-42.3828 95.8496-45.166 95.8496-48.877C95.8496-52.5391 93.5059-55.3223 90.4297-55.3223C87.4023-55.3223 85.0586-52.5391 85.0586-48.877C85.0586-45.166 87.4023-42.3828 90.4297-42.3828ZM52.0996-17.334C52.0996-13.8184 60.4004-5.41992 72.1191-5.41992C83.7891-5.41992 92.0898-13.8184 92.0898-17.334C92.0898-17.9688 91.4551-17.9688 91.1621-17.627C87.6953-13.9648 80.9082-10.9863 72.1191-10.9863C63.2812-10.9863 56.5918-14.0625 53.0762-17.627C52.7344-17.9688 52.0996-17.9688 52.0996-17.334Z"/>
  </g>
  <g id="Black-M" transform="matrix(1 0 0 1 2870.97 1126)">
   <path d="M62.4023 18.457C91.9922 18.457 116.113-5.61523 116.113-35.2051C116.113-64.7949 91.9922-88.8672 62.4023-88.8672C32.8125-88.8672 8.74023-64.7949 8.74023-35.2051C8.74023-5.61523 32.8125 18.457 62.4023 18.457ZM62.4023 0.195312C42.8711 0.195312 27.002-15.625 27.002-35.2051C27.002-54.7363 42.8711-70.6055 62.4023-70.6055C81.9824-70.6055 97.8027-54.7363 97.8027-35.2051C97.8027-15.625 81.9824 0.195312 62.4023 0.195312ZM48.3398-39.8438C51.2695-39.8438 53.8086-42.4316 53.8086-46.0449C53.8086-49.707 51.2695-52.3438 48.3398-52.3438C45.4102-52.3438 42.9688-49.707 42.9688-46.0449C42.9688-42.4316 45.4102-39.8438 48.3398-39.8438ZM76.416-39.8438C79.2969-39.8438 81.9336-42.4316 81.9336-46.0449C81.9336-49.707 79.2969-52.3438 76.416-52.3438C73.4375-52.3438 70.9961-49.707 70.9961-46.0449C70.9961-42.4316 73.4375-39.8438 76.416-39.8438ZM45.0195-23.7305C45.0195-20.3613 51.9531-13.5254 62.4023-13.5254C72.8027-13.5254 79.7852-20.3613 79.7852-23.7305C79.7852-25.0488 78.5156-25.6836 77.1973-25.0977C73.4375-23.4863 69.5312-21.2891 62.4023-21.2891C55.3223-21.2891 51.2695-23.3887 47.6562-25.0977C46.3379-25.7324 45.0195-25.0488 45.0195-23.7305Z"/>
  </g>
  <g id="Heavy-M" transform="matrix(1 0 0 1 2575.19 1126)">
   <path d="M61.5234 17.5293C90.5273 17.5293 114.258-6.20117 114.258-35.2051C114.258-64.2578 90.5273-87.9883 61.4746-87.9883C32.4707-87.9883 8.74023-64.2578 8.74023-35.2051C8.74023-6.20117 32.4707 17.5293 61.5234 17.5293ZM61.5234 1.61133C41.1133 1.61133 24.6582-14.8438 24.6582-35.2051C24.6582-55.6152 41.1133-72.0703 61.4746-72.0703C81.8848-72.0703 98.3398-55.6152 98.3398-35.2051C98.3398-14.8438 81.8848 1.61133 61.5234 1.61133ZM47.4121-39.7949C50.293-39.7949 52.832-42.3828 52.832-45.9961C52.832-49.6582 50.293-52.2461 47.4121-52.2461C44.4824-52.2461 42.0898-49.6582 42.0898-45.9961C42.0898-42.3828 44.4824-39.7949 47.4121-39.7949ZM75.5859-39.7949C78.4668-39.7949 81.0547-42.3828 81.0547-45.9961C81.0547-49.6582 78.4668-52.2461 75.5859-52.2461C72.6562-52.2461 70.2148-49.6582 70.2148-45.9961C70.2148-42.3828 72.6562-39.7949 75.5859-39.7949ZM44.1895-23.0469C44.1895-19.7266 51.0742-12.8906 61.4746-12.8906C71.8262-12.8906 78.8086-19.7266 78.8086-23.0469C78.8086-24.3164 77.5391-24.9023 76.2695-24.3652C72.6074-22.7051 68.6035-20.5078 61.4746-20.5078C54.3945-20.5078 50.293-22.6074 46.6797-24.3652C45.459-24.9512 44.1895-24.3164 44.1895-23.0469Z"/>
  </g>
  <g id="Bold-M" transform="matrix(1 0 0 1 2279.5 1126)">
   <path d="M60.498 16.5039C88.8672 16.5039 112.207-6.83594 112.207-35.2051C112.207-63.623 88.8672-86.9629 60.4492-86.9629C32.0312-86.9629 8.74023-63.623 8.74023-35.2051C8.74023-6.83594 32.0801 16.5039 60.498 16.5039ZM60.498 3.22266C39.1602 3.22266 22.0703-13.916 22.0703-35.2051C22.0703-56.543 39.1602-73.6816 60.4492-73.6816C81.7383-73.6816 98.9258-56.543 98.9258-35.2051C98.9746-13.916 81.7871 3.22266 60.498 3.22266ZM46.3379-39.7461C49.2676-39.7461 51.709-42.334 51.709-45.8984C51.709-49.5605 49.2676-52.0996 46.3379-52.0996C43.457-52.0996 41.0645-49.5605 41.0645-45.8984C41.0645-42.334 43.457-39.7461 46.3379-39.7461ZM74.6582-39.7461C77.5391-39.7461 80.0293-42.334 80.0293-45.8984C80.0293-49.5605 77.5391-52.0996 74.6582-52.0996C71.7285-52.0996 69.3359-49.5605 69.3359-45.8984C69.3359-42.334 71.7285-39.7461 74.6582-39.7461ZM43.2129-22.2656C43.2129-18.9941 50.1465-12.1582 60.4492-12.1582C70.752-12.1582 77.6855-18.9941 77.6855-22.2656C77.6855-23.4863 76.4648-24.0723 75.293-23.5352C71.6309-21.7773 67.5781-19.5801 60.4492-19.5801C53.3691-19.5801 49.2188-21.7285 45.6543-23.5352C44.4824-24.1211 43.2129-23.4863 43.2129-22.2656Z"/>
  </g>
  <g id="Semibold-M" transform="matrix(1 0 0 1 1983.5 1126)">
   <path d="M59.7656 15.8203C87.7441 15.8203 110.791-7.27539 110.791-35.2539C110.791-63.2324 87.6953-86.2793 59.7656-86.2793C31.7871-86.2793 8.74023-63.2324 8.74023-35.2539C8.74023-7.27539 31.7871 15.8203 59.7656 15.8203ZM59.7656 4.3457C37.8418 4.3457 20.2637-13.3301 20.2637-35.2539C20.2637-57.1777 37.793-74.8047 59.7656-74.8047C81.6895-74.8047 99.3164-57.1777 99.3652-35.2539C99.3652-13.3301 81.6895 4.3457 59.7656 4.3457ZM45.6543-39.7461C48.5352-39.7461 50.9766-42.2852 50.9766-45.8984C50.9766-49.4629 48.5352-52.0508 45.6543-52.0508C42.7734-52.0508 40.3809-49.4629 40.3809-45.8984C40.3809-42.2852 42.7734-39.7461 45.6543-39.7461ZM74.0234-39.7461C76.9043-39.7461 79.3457-42.2852 79.3457-45.8984C79.3457-49.4629 76.9043-52.0508 74.0234-52.0508C71.1426-52.0508 68.75-49.4629 68.75-45.8984C68.75-42.2852 71.1426-39.7461 74.0234-39.7461ZM42.5781-21.7285C42.5781-18.457 49.4629-11.6699 59.7656-11.6699C70.0195-11.6699 76.9043-18.457 76.9043-21.7285C76.9043-22.9492 75.7324-23.5352 74.5605-22.998C70.9961-21.1914 66.8457-18.9941 59.7656-18.9941C52.6367-18.9941 48.4863-21.1426 44.9219-22.998C43.7988-23.5352 42.5781-22.9492 42.5781-21.7285Z"/>
  </g>
  <g id="Medium-M" transform="matrix(1 0 0 1 1687.3 1126)">
   <path d="M59.2285 15.2344C86.9141 15.2344 109.766-7.61719 109.766-35.2539C109.766-62.8906 86.8652-85.7422 59.1797-85.7422C31.543-85.7422 8.74023-62.8906 8.74023-35.2539C8.74023-7.61719 31.5918 15.2344 59.2285 15.2344ZM59.2285 5.17578C36.8164 5.17578 18.8965-12.8418 18.8965-35.2539C18.8965-57.666 36.8164-75.6348 59.1797-75.6348C81.5918-75.6348 99.6094-57.666 99.6582-35.2539C99.707-12.8418 81.6406 5.17578 59.2285 5.17578ZM45.0684-39.7461C47.9492-39.7461 50.3906-42.2852 50.3906-45.8496C50.3906-49.4141 47.9492-51.9531 45.0684-51.9531C42.2363-51.9531 39.8438-49.4141 39.8438-45.8496C39.8438-42.2852 42.2363-39.7461 45.0684-39.7461ZM73.5352-39.7461C76.416-39.7461 78.8574-42.2852 78.8574-45.8496C78.8574-49.4141 76.416-51.9531 73.5352-51.9531C70.6543-51.9531 68.3105-49.4141 68.3105-45.8496C68.3105-42.2852 70.6543-39.7461 73.5352-39.7461ZM42.0898-21.3379C42.0898-18.0664 48.9746-11.2793 59.1797-11.2793C69.4336-11.2793 76.3184-18.0664 76.3184-21.3379C76.3184-22.5098 75.1465-23.0957 74.0723-22.5586C70.5078-20.7031 66.3086-18.5059 59.1797-18.5059C52.0996-18.5059 47.9004-20.7031 44.3359-22.5586C43.2617-23.0957 42.0898-22.5098 42.0898-21.3379Z"/>
  </g>
  <g id="Regular-M" transform="matrix(1 0 0 1 1391.3 1126)">
   <path d="M58.5449 14.5508C85.791 14.5508 108.35-8.05664 108.35-35.2539C108.35-62.5 85.7422-85.0586 58.4961-85.0586C31.2988-85.0586 8.74023-62.5 8.74023-35.2539C8.74023-8.05664 31.3477 14.5508 58.5449 14.5508ZM58.5449 6.25C35.498 6.25 17.0898-12.207 17.0898-35.2539C17.0898-58.3008 35.4492-76.7578 58.4961-76.7578C81.543-76.7578 100-58.3008 100.049-35.2539C100.098-12.207 81.5918 6.25 58.5449 6.25ZM44.3848-39.6973C47.2656-39.6973 49.6582-42.2363 49.6582-45.8008C49.6582-49.3652 47.2656-51.9043 44.3848-51.9043C41.5039-51.9043 39.1602-49.3652 39.1602-45.8008C39.1602-42.2363 41.5039-39.6973 44.3848-39.6973ZM72.9004-39.6973C75.7812-39.6973 78.1738-42.2363 78.1738-45.8008C78.1738-49.3652 75.7812-51.9043 72.9004-51.9043C70.0684-51.9043 67.6758-49.3652 67.6758-45.8008C67.6758-42.2363 70.0684-39.6973 72.9004-39.6973ZM41.4551-20.8008C41.4551-17.5781 48.291-10.791 58.4961-10.791C68.7012-10.791 75.5371-17.5781 75.5371-20.8008C75.5371-21.9727 74.4141-22.5098 73.3887-22.0215C69.8242-20.0684 65.5762-17.8711 58.4961-17.8711C51.416-17.8711 47.168-20.1172 43.6523-22.0215C42.5781-22.5098 41.4551-21.9727 41.4551-20.8008Z"/>
  </g>
  <g id="Light-M" transform="matrix(1 0 0 1 1095.42 1126)">
   <path d="M57.7148 13.7207C84.5215 13.7207 106.689-8.44727 106.689-35.2539C106.689-62.1094 84.5215-84.2285 57.666-84.2285C30.8594-84.2285 8.74023-62.1094 8.74023-35.2539C8.74023-8.44727 30.9082 13.7207 57.7148 13.7207ZM57.7148 7.37305C34.082 7.37305 15.0879-11.6699 15.0879-35.2539C15.0879-58.8867 34.082-77.9297 57.666-77.9297C81.2988-77.9297 100.342-58.8867 100.391-35.2539C100.391-11.6699 81.3477 7.37305 57.7148 7.37305ZM43.5059-40.0391C46.2402-40.0391 48.4375-42.4316 48.4375-45.8008C48.4375-49.1211 46.2402-51.5625 43.5059-51.5625C40.8203-51.5625 38.623-49.1211 38.623-45.8008C38.623-42.4316 40.8203-40.0391 43.5059-40.0391ZM72.0215-40.0391C74.7559-40.0391 76.9531-42.4316 76.9531-45.8008C76.9531-49.1211 74.7559-51.5625 72.0215-51.5625C69.3359-51.5625 67.1387-49.1211 67.1387-45.8008C67.1387-42.4316 69.3359-40.0391 72.0215-40.0391ZM41.1133-20.9961C41.1133-17.9199 47.8516-11.2305 57.666-11.2305C67.5293-11.2305 74.2676-17.9199 74.2676-20.9961C74.2676-21.9238 73.3398-22.3145 72.5098-21.875C69.2871-19.6777 64.6973-17.4316 57.666-17.4316C50.6836-17.4316 46.1426-19.7266 42.8711-21.875C42.041-22.3145 41.1133-21.9238 41.1133-20.9961Z"/>
  </g>
  <g id="Thin-M" transform="matrix(1 0 0 1 799.806 1126)">
   <path d="M56.6406 12.5977C82.9102 12.5977 104.492-8.98438 104.492-35.2539C104.492-61.5723 82.9102-83.1543 56.5918-83.1543C30.3223-83.1543 8.74023-61.5723 8.74023-35.2539C8.74023-8.98438 30.3223 12.5977 56.6406 12.5977ZM56.6406 8.88672C32.2266 8.88672 12.4512-10.8887 12.4512-35.2539C12.4512-59.6191 32.2266-79.4434 56.5918-79.4434C81.0059-79.4434 100.781-59.6191 100.781-35.2539C100.781-10.8887 81.0059 8.88672 56.6406 8.88672ZM42.3828-40.4785C44.873-40.4785 46.875-42.7246 46.875-45.8008C46.875-48.877 44.873-51.123 42.3828-51.123C39.8926-51.123 37.9395-48.877 37.9395-45.8008C37.9395-42.7246 39.8926-40.4785 42.3828-40.4785ZM70.8496-40.4785C73.3887-40.4785 75.3906-42.7246 75.3906-45.8008C75.3906-48.877 73.3887-51.123 70.8496-51.123C68.4082-51.123 66.4062-48.877 66.4062-45.8008C66.4062-42.7246 68.4082-40.4785 70.8496-40.4785ZM40.6738-21.1914C40.6738-18.3594 47.2168-11.7676 56.5918-11.7676C65.9668-11.7676 72.5586-18.3594 72.5586-21.1914C72.5586-21.875 71.875-22.0703 71.3867-21.6797C68.5059-19.1406 63.5254-16.8457 56.5918-16.8457C49.707-16.8457 44.7754-19.1895 41.7969-21.6797C41.3574-22.0703 40.6738-21.875 40.6738-21.1914Z"/>
  </g>
  <g id="Ultralight-M" transform="matrix(1 0 0 1 503.656 1126)">
   <path d="M56.0547 12.0605C82.0801 12.0605 103.369-9.22852 103.369-35.2539C103.369-61.2793 82.0801-82.5684 56.0547-82.5684C30.0293-82.5684 8.74023-61.2793 8.74023-35.2539C8.74023-9.22852 30.0293 12.0605 56.0547 12.0605ZM56.0547 9.66797C31.2988 9.66797 11.1328-10.498 11.1328-35.2539C11.1328-60.0586 31.2988-80.1758 56.0547-80.1758C80.8594-80.1758 100.977-60.0586 100.977-35.2539C100.977-10.498 80.8594 9.66797 56.0547 9.66797ZM41.7969-40.7227C44.1895-40.7227 46.0449-42.8711 46.0449-45.8008C46.0449-48.7305 44.1895-50.8789 41.7969-50.8789C39.4043-50.8789 37.5488-48.7305 37.5488-45.8008C37.5488-42.8711 39.4043-40.7227 41.7969-40.7227ZM70.2637-40.7227C72.7051-40.7227 74.5605-42.8711 74.5605-45.8008C74.5605-48.7305 72.7051-50.8789 70.2637-50.8789C67.9199-50.8789 66.0645-48.7305 66.0645-45.8008C66.0645-42.8711 67.9199-40.7227 70.2637-40.7227ZM40.4297-21.2891C40.4297-18.5547 46.9238-12.0605 56.0547-12.0605C65.1855-12.0605 71.6797-18.5547 71.6797-21.2891C71.6797-21.875 71.1426-21.9238 70.8496-21.582C68.1152-18.8477 62.8906-16.5527 56.0547-16.5527C49.2188-16.5527 44.0918-18.8965 41.3086-21.582C41.0156-21.9238 40.4297-21.875 40.4297-21.2891Z"/>
  </g>
  <g id="Black-S" transform="matrix(1 0 0 1 2884.57 696)">
   <path d="M48.8281 6.78711C71.9727 6.78711 90.8203-12.0605 90.8203-35.2051C90.8203-58.3496 71.9727-77.1973 48.8281-77.1973C25.6836-77.1973 6.83594-58.3496 6.83594-35.2051C6.83594-12.0605 25.6836 6.78711 48.8281 6.78711ZM48.8281-7.37305C33.4473-7.37305 20.9961-19.8242 20.9961-35.2051C20.9961-50.5859 33.4473-63.0371 48.8281-63.0371C64.209-63.0371 76.6602-50.5859 76.6602-35.2051C76.6602-19.8242 64.209-7.37305 48.8281-7.37305ZM37.793-38.8184C40.0879-38.8184 42.0898-40.8691 42.0898-43.7012C42.0898-46.582 40.0879-48.6328 37.793-48.6328C35.498-48.6328 33.5938-46.582 33.5938-43.7012C33.5938-40.8691 35.498-38.8184 37.793-38.8184ZM59.8145-38.8184C62.0605-38.8184 64.1113-40.8691 64.1113-43.7012C64.1113-46.582 62.0605-48.6328 59.8145-48.6328C57.4707-48.6328 55.5664-46.582 55.5664-43.7012C55.5664-40.8691 57.4707-38.8184 59.8145-38.8184ZM35.2051-26.1719C35.2051-23.5352 40.625-18.1641 48.8281-18.1641C56.9824-18.1641 62.4512-23.5352 62.4512-26.1719C62.4512-27.1973 61.4258-27.6855 60.4004-27.2461C57.4707-25.9766 54.3945-24.2676 48.8281-24.2676C43.2617-24.2676 40.0879-25.8789 37.2559-27.2461C36.2305-27.7344 35.2051-27.1973 35.2051-26.1719Z"/>
  </g>
  <g id="Heavy-S" transform="matrix(1 0 0 1 2588.47 696)">
   <path d="M48.2422 6.15234C70.9961 6.15234 89.5996-12.4512 89.5996-35.2051C89.5996-57.959 70.9961-76.6113 48.1934-76.6113C25.4395-76.6113 6.83594-57.959 6.83594-35.2051C6.83594-12.4512 25.4395 6.15234 48.2422 6.15234ZM48.2422-6.39648C32.2754-6.39648 19.4336-19.2871 19.4336-35.2051C19.4336-51.1719 32.2754-64.0137 48.1934-64.0137C64.1602-64.0137 77.002-51.1719 77.0508-35.2051C77.0508-19.2871 64.1602-6.39648 48.2422-6.39648ZM37.1582-38.7695C39.4531-38.7695 41.4551-40.8203 41.4551-43.6523C41.4551-46.5332 39.4531-48.584 37.1582-48.584C34.8633-48.584 32.959-46.5332 32.959-43.6523C32.959-40.8203 34.8633-38.7695 37.1582-38.7695ZM59.2773-38.7695C61.5234-38.7695 63.5742-40.8203 63.5742-43.6523C63.5742-46.5332 61.5234-48.584 59.2773-48.584C56.9336-48.584 55.0293-46.5332 55.0293-43.6523C55.0293-40.8203 56.9336-38.7695 59.2773-38.7695ZM34.5703-25.6348C34.5703-22.998 40.0391-17.627 48.1934-17.627C56.3477-17.627 61.8164-22.998 61.8164-25.6348C61.8164-26.6602 60.791-27.1484 59.8145-26.709C56.8848-25.3906 53.8086-23.6816 48.1934-23.6816C42.627-23.6816 39.4531-25.3418 36.6211-26.709C35.5957-27.1973 34.5703-26.6602 34.5703-25.6348Z"/>
  </g>
  <g id="Bold-S" transform="matrix(1 0 0 1 2292.44 696)">
   <path d="M47.5586 5.46875C69.873 5.46875 88.2324-12.8906 88.2324-35.2539C88.2324-57.5684 69.873-75.9277 47.5098-75.9277C25.1953-75.9277 6.83594-57.5684 6.83594-35.2539C6.83594-12.8906 25.1953 5.46875 47.5586 5.46875ZM47.5586-5.32227C30.957-5.32227 17.6758-18.6523 17.6758-35.2539C17.6758-51.8066 30.957-65.1367 47.5098-65.1367C64.1113-65.1367 77.4414-51.8066 77.4414-35.2539C77.4414-18.6523 64.1113-5.32227 47.5586-5.32227ZM36.4746-38.7207C38.7695-38.7207 40.7715-40.7227 40.7715-43.6035C40.7715-46.4844 38.7695-48.5352 36.4746-48.5352C34.1797-48.5352 32.2754-46.4844 32.2754-43.6035C32.2754-40.7227 34.1797-38.7207 36.4746-38.7207ZM58.6914-38.7207C60.9375-38.7207 62.9883-40.7227 62.9883-43.6035C62.9883-46.4844 60.9375-48.5352 58.6914-48.5352C56.3477-48.5352 54.4434-46.4844 54.4434-43.6035C54.4434-40.7227 56.3477-38.7207 58.6914-38.7207ZM33.8867-25C33.8867-22.4121 39.3555-17.041 47.5098-17.041C55.6641-17.041 61.1328-22.4121 61.1328-25C61.1328-26.0254 60.1074-26.5137 59.1309-26.0742C56.25-24.7559 53.125-23.0469 47.5098-23.0469C41.9434-23.0469 38.7695-24.707 35.8887-26.0742C34.9121-26.5625 33.8867-26.0254 33.8867-25Z"/>
  </g>
  <g id="Semibold-S" transform="matrix(1 0 0 1 1996.2 696)">
   <path d="M47.0703 4.98047C69.0918 4.98047 87.3047-13.1836 87.3047-35.2539C87.3047-57.2754 69.0918-75.4883 47.0215-75.4883C25-75.4883 6.83594-57.2754 6.83594-35.2539C6.83594-13.1836 25.0488 4.98047 47.0703 4.98047ZM47.0703-4.58984C30.0781-4.58984 16.4551-18.2129 16.4551-35.2539C16.4551-52.2461 30.0293-65.8691 47.0215-65.8691C64.0625-65.8691 77.6855-52.2461 77.7344-35.2539C77.7344-18.2129 64.0625-4.58984 47.0703-4.58984ZM35.9863-38.6719C38.3301-38.6719 40.2832-40.6738 40.2832-43.5547C40.2832-46.4355 38.3301-48.4863 35.9863-48.4863C33.6914-48.4863 31.7871-46.4355 31.7871-43.5547C31.7871-40.6738 33.6914-38.6719 35.9863-38.6719ZM58.252-38.6719C60.5469-38.6719 62.5488-40.6738 62.5488-43.5547C62.5488-46.4355 60.5469-48.4863 58.252-48.4863C55.9082-48.4863 54.0039-46.4355 54.0039-43.5547C54.0039-40.6738 55.9082-38.6719 58.252-38.6719ZM33.4473-24.6094C33.4473-21.9727 38.8672-16.6016 47.0215-16.6016C55.1758-16.6016 60.6445-21.9727 60.6445-24.6094C60.6445-25.5859 59.668-26.123 58.6914-25.6836C55.7617-24.3164 52.6367-22.6074 47.0215-22.6074C41.4551-22.6074 38.2812-24.3164 35.4004-25.6836C34.4238-26.123 33.4473-25.5859 33.4473-24.6094Z"/>
  </g>
  <g id="Medium-S" transform="matrix(1 0 0 1 1699.83 696)">
   <path d="M46.7285 4.63867C68.5547 4.63867 86.6211-13.4277 86.6211-35.2539C86.6211-57.0801 68.5059-75.1465 46.6797-75.1465C24.8535-75.1465 6.83594-57.0801 6.83594-35.2539C6.83594-13.4277 24.9023 4.63867 46.7285 4.63867ZM46.7285-4.00391C29.3945-4.00391 15.5273-17.9199 15.5273-35.2539C15.5273-52.5879 29.3457-66.4551 46.6797-66.4551C64.0137-66.4551 77.8809-52.5879 77.9297-35.2539C77.9785-17.9199 64.0625-4.00391 46.7285-4.00391ZM35.6445-38.623C37.9395-38.623 39.9414-40.6738 39.9414-43.5547C39.9414-46.4355 37.9395-48.4863 35.6445-48.4863C33.3496-48.4863 31.3965-46.4355 31.3965-43.5547C31.3965-40.6738 33.3496-38.623 35.6445-38.623ZM57.959-38.623C60.2539-38.623 62.2559-40.6738 62.2559-43.5547C62.2559-46.4355 60.2539-48.4863 57.959-48.4863C55.6152-48.4863 53.7109-46.4355 53.7109-43.5547C53.7109-40.6738 55.6152-38.623 57.959-38.623ZM33.0566-24.2676C33.0566-21.6797 38.5254-16.3086 46.6797-16.3086C54.834-16.3086 60.3027-21.6797 60.3027-24.2676C60.3027-25.293 59.2773-25.7812 58.3496-25.3418C55.4199-24.0234 52.2949-22.2656 46.6797-22.2656C41.0645-22.2656 37.9395-23.9746 35.0586-25.3418C34.082-25.7812 33.0566-25.293 33.0566-24.2676Z"/>
  </g>
  <g id="Regular-S" transform="matrix(1 0 0 1 1403.58 696)">
   <path d="M46.2402 4.15039C67.7734 4.15039 85.6934-13.7207 85.6934-35.2539C85.6934-56.7871 67.7246-74.6582 46.1914-74.6582C24.707-74.6582 6.83594-56.7871 6.83594-35.2539C6.83594-13.7207 24.7559 4.15039 46.2402 4.15039ZM46.2402-3.27148C28.5156-3.27148 14.3555-17.4805 14.3555-35.2539C14.3555-53.0273 28.4668-67.2363 46.1914-67.2363C63.9648-67.2363 78.1738-53.0273 78.2227-35.2539C78.2715-17.4805 64.0137-3.27148 46.2402-3.27148ZM35.1562-38.5742C37.5-38.5742 39.4531-40.625 39.4531-43.5059C39.4531-46.3867 37.5-48.4375 35.1562-48.4375C32.8613-48.4375 30.9082-46.3867 30.9082-43.5059C30.9082-40.625 32.8613-38.5742 35.1562-38.5742ZM57.5195-38.5742C59.8633-38.5742 61.8164-40.625 61.8164-43.5059C61.8164-46.3867 59.8633-48.4375 57.5195-48.4375C55.2246-48.4375 53.2715-46.3867 53.2715-43.5059C53.2715-40.625 55.2246-38.5742 57.5195-38.5742ZM32.6172-23.877C32.6172-21.2402 38.0859-15.8691 46.1914-15.8691C54.3457-15.8691 59.8145-21.2402 59.8145-23.877C59.8145-24.8535 58.8379-25.3418 57.8613-24.9512C54.9805-23.584 51.8066-21.875 46.1914-21.875C40.625-21.875 37.4512-23.584 34.5703-24.9512C33.5938-25.3418 32.6172-24.8535 32.6172-23.877Z"/>
  </g>
  <g id="Light-S" transform="matrix(1 0 0 1 1107.6 696)">
   <path d="M45.5078 3.41797C66.6992 3.41797 84.2285-14.0625 84.2285-35.2539C84.2285-56.4453 66.6504-73.9258 45.5078-73.9258C24.3164-73.9258 6.83594-56.4453 6.83594-35.2539C6.83594-14.0625 24.3652 3.41797 45.5078 3.41797ZM45.5078-2.29492C27.2461-2.29492 12.5977-16.9922 12.5977-35.2539C12.5977-53.5156 27.1973-68.2129 45.5078-68.2129C63.7695-68.2129 78.4668-53.5156 78.5156-35.2539C78.5156-16.9922 63.8184-2.29492 45.5078-2.29492ZM34.4238-38.8672C36.5723-38.8672 38.4277-40.8203 38.4277-43.5059C38.4277-46.1914 36.5723-48.1445 34.4238-48.1445C32.2266-48.1445 30.4688-46.1914 30.4688-43.5059C30.4688-40.8203 32.2266-38.8672 34.4238-38.8672ZM56.7383-38.8672C58.9355-38.8672 60.7422-40.8203 60.7422-43.5059C60.7422-46.1914 58.9355-48.1445 56.7383-48.1445C54.5898-48.1445 52.7832-46.1914 52.7832-43.5059C52.7832-40.8203 54.5898-38.8672 56.7383-38.8672ZM32.3242-24.0234C32.3242-21.5332 37.6465-16.2598 45.5078-16.2598C53.3203-16.2598 58.6426-21.5332 58.6426-24.0234C58.6426-24.8047 57.8613-25.1953 57.1289-24.8047C54.4922-23.1934 51.0254-21.4355 45.5078-21.4355C39.9414-21.4355 36.5234-23.2422 33.8379-24.8047C33.1543-25.1953 32.3242-24.8047 32.3242-24.0234Z"/>
  </g>
  <g id="Thin-S" transform="matrix(1 0 0 1 811.867 696)">
   <path d="M44.5801 2.49023C65.2832 2.49023 82.2754-14.5508 82.2754-35.2539C82.2754-55.957 65.2344-72.998 44.5312-72.998C23.8281-72.998 6.83594-55.957 6.83594-35.2539C6.83594-14.5508 23.877 2.49023 44.5801 2.49023ZM44.5801-0.927734C25.5859-0.927734 10.2539-16.3086 10.2539-35.2539C10.2539-54.1992 25.5859-69.5801 44.5312-69.5801C63.5254-69.5801 78.8574-54.1992 78.8574-35.2539C78.8574-16.3086 63.5254-0.927734 44.5801-0.927734ZM33.3984-39.2578C35.4004-39.2578 37.0117-41.0645 37.0117-43.5059C37.0117-45.9473 35.4004-47.7539 33.3984-47.7539C31.4453-47.7539 29.834-45.9473 29.834-43.5059C29.834-41.0645 31.4453-39.2578 33.3984-39.2578ZM55.7129-39.2578C57.7637-39.2578 59.3262-41.0645 59.3262-43.5059C59.3262-45.9473 57.7637-47.7539 55.7129-47.7539C53.7598-47.7539 52.1484-45.9473 52.1484-43.5059C52.1484-41.0645 53.7598-39.2578 55.7129-39.2578ZM31.9336-24.1699C31.9336-21.9238 37.1094-16.748 44.5312-16.748C52.002-16.748 57.1777-21.9238 57.1777-24.1699C57.1777-24.8047 56.5918-24.9512 56.1523-24.6582C53.8086-22.7051 50-20.9473 44.5312-20.9473C39.1113-20.9473 35.3516-22.7539 32.959-24.6582C32.5195-24.9512 31.9336-24.8047 31.9336-24.1699Z"/>
  </g>
  <g id="Ultralight-S" transform="matrix(1 0 0 1 515.644 696)">
   <path d="M44.043 1.95312C64.502 1.95312 81.2988-14.7949 81.2988-35.2539C81.2988-55.7129 64.502-72.4609 44.043-72.4609C23.584-72.4609 6.83594-55.7129 6.83594-35.2539C6.83594-14.7949 23.584 1.95312 44.043 1.95312ZM44.043-0.244141C24.7559-0.244141 9.08203-15.9668 9.08203-35.2539C9.08203-54.541 24.7559-70.2637 44.043-70.2637C63.3789-70.2637 79.0527-54.541 79.0527-35.2539C79.0527-15.9668 63.3789-0.244141 44.043-0.244141ZM32.8613-39.4531C34.8145-39.4531 36.2793-41.1621 36.2793-43.5059C36.2793-45.8496 34.8145-47.5586 32.8613-47.5586C31.0059-47.5586 29.4922-45.8496 29.4922-43.5059C29.4922-41.1621 31.0059-39.4531 32.8613-39.4531ZM55.1758-39.4531C57.1289-39.4531 58.5938-41.1621 58.5938-43.5059C58.5938-45.8496 57.1289-47.5586 55.1758-47.5586C53.3203-47.5586 51.8555-45.8496 51.8555-43.5059C51.8555-41.1621 53.3203-39.4531 55.1758-39.4531ZM31.7383-24.3164C31.7383-22.1191 36.8164-16.9922 44.043-16.9922C51.2695-16.9922 56.3965-22.1191 56.3965-24.3164C56.3965-24.7559 55.9082-24.8535 55.6152-24.5605C53.4668-22.4609 49.4629-20.6543 44.043-20.6543C38.6719-20.6543 34.7168-22.5098 32.4707-24.5605C32.1777-24.8535 31.7383-24.7559 31.7383-24.3164Z"/>
  </g>
 </g>
</svg>
