<?xml version="1.0" encoding="UTF-8"?>
<!--Generator: Apple Native CoreSVG 149-->
<!DOCTYPE svg
PUBLIC "-//W3C//DTD SVG 1.1//EN"
       "http://www.w3.org/Graphics/SVG/1.1/DTD/svg11.dtd">
<svg version="1.1" xmlns="http://www.w3.org/2000/svg" xmlns:xlink="http://www.w3.org/1999/xlink" width="3300" height="2200">
 <!--glyph: "uni10064C.medium", point size: 100.000000, font version: "Version 16.0d18e1", template writer version: "8"-->
 <g id="Notes">
  <rect height="2200" id="artboard" style="fill:white;opacity:1" width="3300" x="0" y="0"/>
  <line id="" style="fill:none;stroke:black;opacity:1;stroke-width:0.5;" x1="263" x2="3036" y1="292" y2="292"/>
  <text style="stroke:none;fill:black;font-family:-apple-system,&quot;SF Pro Display&quot;,&quot;SF Pro Text&quot;,Helvetica,sans-serif;font-weight:bold;" transform="matrix(1 0 0 1 263 322)">Weight/Scale Variations</text>
  <text style="stroke:none;fill:black;font-family:-apple-system,&quot;SF Pro Display&quot;,&quot;SF Pro Text&quot;,Helvetica,sans-serif;text-anchor:middle;" transform="matrix(1 0 0 1 559.711 322)">Ultralight</text>
  <text style="stroke:none;fill:black;font-family:-apple-system,&quot;SF Pro Display&quot;,&quot;SF Pro Text&quot;,Helvetica,sans-serif;text-anchor:middle;" transform="matrix(1 0 0 1 856.422 322)">Thin</text>
  <text style="stroke:none;fill:black;font-family:-apple-system,&quot;SF Pro Display&quot;,&quot;SF Pro Text&quot;,Helvetica,sans-serif;text-anchor:middle;" transform="matrix(1 0 0 1 1153.13 322)">Light</text>
  <text style="stroke:none;fill:black;font-family:-apple-system,&quot;SF Pro Display&quot;,&quot;SF Pro Text&quot;,Helvetica,sans-serif;text-anchor:middle;" transform="matrix(1 0 0 1 1449.84 322)">Regular</text>
  <text style="stroke:none;fill:black;font-family:-apple-system,&quot;SF Pro Display&quot;,&quot;SF Pro Text&quot;,Helvetica,sans-serif;text-anchor:middle;" transform="matrix(1 0 0 1 1746.56 322)">Medium</text>
  <text style="stroke:none;fill:black;font-family:-apple-system,&quot;SF Pro Display&quot;,&quot;SF Pro Text&quot;,Helvetica,sans-serif;text-anchor:middle;" transform="matrix(1 0 0 1 2043.27 322)">Semibold</text>
  <text style="stroke:none;fill:black;font-family:-apple-system,&quot;SF Pro Display&quot;,&quot;SF Pro Text&quot;,Helvetica,sans-serif;text-anchor:middle;" transform="matrix(1 0 0 1 2339.98 322)">Bold</text>
  <text style="stroke:none;fill:black;font-family:-apple-system,&quot;SF Pro Display&quot;,&quot;SF Pro Text&quot;,Helvetica,sans-serif;text-anchor:middle;" transform="matrix(1 0 0 1 2636.69 322)">Heavy</text>
  <text style="stroke:none;fill:black;font-family:-apple-system,&quot;SF Pro Display&quot;,&quot;SF Pro Text&quot;,Helvetica,sans-serif;text-anchor:middle;" transform="matrix(1 0 0 1 2933.4 322)">Black</text>
  <line id="" style="fill:none;stroke:black;opacity:1;stroke-width:0.5;" x1="263" x2="3036" y1="1903" y2="1903"/>
  <g id="" transform="matrix(1 0 0 1 263 1933)">
   <path d="M9.24805 0.830078C13.5547 0.830078 17.1387-2.74414 17.1387-7.05078C17.1387-11.3574 13.5449-14.9316 9.23828-14.9316C4.94141-14.9316 1.36719-11.3574 1.36719-7.05078C1.36719-2.74414 4.95117 0.830078 9.24805 0.830078ZM9.24805-0.654297C5.70312-0.654297 2.87109-3.49609 2.87109-7.05078C2.87109-10.6055 5.69336-13.4473 9.23828-13.4473C12.793-13.4473 15.6348-10.6055 15.6445-7.05078C15.6543-3.49609 12.8027-0.654297 9.24805-0.654297ZM6.39648-6.31836L8.50586-6.31836L8.50586-4.19922C8.50586-3.75977 8.79883-3.45703 9.22852-3.45703C9.67773-3.45703 9.9707-3.75977 9.9707-4.19922L9.9707-6.31836L12.0996-6.31836C12.5391-6.31836 12.8418-6.61133 12.8418-7.04102C12.8418-7.48047 12.5391-7.7832 12.0996-7.7832L9.9707-7.7832L9.9707-9.89258C9.9707-10.3418 9.67773-10.6445 9.22852-10.6445C8.79883-10.6445 8.50586-10.3418 8.50586-9.89258L8.50586-7.7832L6.39648-7.7832C5.94727-7.7832 5.64453-7.48047 5.64453-7.04102C5.64453-6.61133 5.94727-6.31836 6.39648-6.31836Z"/>
  </g>
  <g id="" transform="matrix(1 0 0 1 281.506 1933)">
   <path d="M11.709 2.91016C17.1582 2.91016 21.6699-1.61133 21.6699-7.05078C21.6699-12.5 17.1484-17.0117 11.6992-17.0117C6.25977-17.0117 1.74805-12.5 1.74805-7.05078C1.74805-1.61133 6.26953 2.91016 11.709 2.91016ZM11.709 1.25C7.09961 1.25 3.41797-2.44141 3.41797-7.05078C3.41797-11.6602 7.08984-15.3516 11.6992-15.3516C16.3086-15.3516 20-11.6602 20.0098-7.05078C20.0195-2.44141 16.3184 1.25 11.709 1.25ZM7.98828-6.23047L10.8789-6.23047L10.8789-3.32031C10.8789-2.83203 11.2109-2.5 11.6895-2.5C12.1777-2.5 12.5195-2.83203 12.5195-3.32031L12.5195-6.23047L15.4297-6.23047C15.918-6.23047 16.25-6.5625 16.25-7.04102C16.25-7.5293 15.918-7.87109 15.4297-7.87109L12.5195-7.87109L12.5195-10.7617C12.5195-11.2695 12.1777-11.6016 11.6895-11.6016C11.2109-11.6016 10.8789-11.2598 10.8789-10.7617L10.8789-7.87109L7.98828-7.87109C7.48047-7.87109 7.14844-7.5293 7.14844-7.04102C7.14844-6.5625 7.49023-6.23047 7.98828-6.23047Z"/>
  </g>
  <g id="" transform="matrix(1 0 0 1 304.924 1933)">
   <path d="M14.9707 5.66406C21.9336 5.66406 27.6953-0.0976562 27.6953-7.05078C27.6953-14.0137 21.9238-19.7754 14.9609-19.7754C8.00781-19.7754 2.25586-14.0137 2.25586-7.05078C2.25586-0.0976562 8.01758 5.66406 14.9707 5.66406ZM14.9707 3.84766C8.93555 3.84766 4.08203-1.01562 4.08203-7.05078C4.08203-13.0957 8.92578-17.9492 14.9609-17.9492C21.0059-17.9492 25.8594-13.0957 25.8691-7.05078C25.8789-1.01562 21.0156 3.84766 14.9707 3.84766ZM10.0586-6.14258L14.0625-6.14258L14.0625-2.12891C14.0625-1.5918 14.4336-1.2207 14.9512-1.2207C15.4883-1.2207 15.8594-1.5918 15.8594-2.12891L15.8594-6.14258L19.8828-6.14258C20.4102-6.14258 20.791-6.51367 20.791-7.03125C20.791-7.56836 20.4199-7.94922 19.8828-7.94922L15.8594-7.94922L15.8594-11.9531C15.8594-12.5098 15.4883-12.8809 14.9512-12.8809C14.4336-12.8809 14.0625-12.5 14.0625-11.9531L14.0625-7.94922L10.0586-7.94922C9.50195-7.94922 9.13086-7.56836 9.13086-7.03125C9.13086-6.51367 9.51172-6.14258 10.0586-6.14258Z"/>
  </g>
  <text style="stroke:none;fill:black;font-family:-apple-system,&quot;SF Pro Display&quot;,&quot;SF Pro Text&quot;,Helvetica,sans-serif;font-weight:bold;" transform="matrix(1 0 0 1 263 1953)">Design Variations</text>
  <text style="stroke:none;fill:black;font-family:-apple-system,&quot;SF Pro Display&quot;,&quot;SF Pro Text&quot;,Helvetica,sans-serif;" transform="matrix(1 0 0 1 263 1971)">Symbols are supported in up to nine weights and three scales.</text>
  <text style="stroke:none;fill:black;font-family:-apple-system,&quot;SF Pro Display&quot;,&quot;SF Pro Text&quot;,Helvetica,sans-serif;" transform="matrix(1 0 0 1 263 1989)">For optimal layout with text and other symbols, vertically align</text>
  <text style="stroke:none;fill:black;font-family:-apple-system,&quot;SF Pro Display&quot;,&quot;SF Pro Text&quot;,Helvetica,sans-serif;" transform="matrix(1 0 0 1 263 2007)">symbols with the adjacent text.</text>
  <line id="" style="fill:none;stroke:#00AEEF;stroke-width:0.5;opacity:1.0;" x1="776" x2="776" y1="1919" y2="1933"/>
  <g id="" transform="matrix(1 0 0 1 776 1933)">
   <path d="M3.31055 0.126953C3.82812 0.126953 4.08203-0.0683594 4.26758-0.605469L5.52734-4.0625L11.2891-4.0625L12.5488-0.605469C12.7344-0.0683594 12.9883 0.126953 13.4961 0.126953C14.0137 0.126953 14.3457-0.185547 14.3457-0.673828C14.3457-0.839844 14.3164-0.986328 14.2383-1.20117L9.6582-13.3887C9.43359-13.9941 9.0332-14.2871 8.4082-14.2871C7.80273-14.2871 7.39258-13.9941 7.17773-13.3984L2.59766-1.19141C2.51953-0.976562 2.49023-0.830078 2.49023-0.664062C2.49023-0.175781 2.80273 0.126953 3.31055 0.126953ZM6.00586-5.53711L8.37891-12.1094L8.42773-12.1094L10.8008-5.53711Z"/>
  </g>
  <line id="" style="fill:none;stroke:#00AEEF;stroke-width:0.5;opacity:1.0;" x1="792.836" x2="792.836" y1="1919" y2="1933"/>
  <text style="stroke:none;fill:black;font-family:-apple-system,&quot;SF Pro Display&quot;,&quot;SF Pro Text&quot;,Helvetica,sans-serif;font-weight:bold;" transform="matrix(1 0 0 1 776 1953)">Margins</text>
  <text style="stroke:none;fill:black;font-family:-apple-system,&quot;SF Pro Display&quot;,&quot;SF Pro Text&quot;,Helvetica,sans-serif;" transform="matrix(1 0 0 1 776 1971)">Leading and trailing margins on the left and right side of each symbol</text>
  <text style="stroke:none;fill:black;font-family:-apple-system,&quot;SF Pro Display&quot;,&quot;SF Pro Text&quot;,Helvetica,sans-serif;" transform="matrix(1 0 0 1 776 1989)">can be adjusted by modifying the x-location of the margin guidelines.</text>
  <text style="stroke:none;fill:black;font-family:-apple-system,&quot;SF Pro Display&quot;,&quot;SF Pro Text&quot;,Helvetica,sans-serif;" transform="matrix(1 0 0 1 776 2007)">Modifications are automatically applied proportionally to all</text>
  <text style="stroke:none;fill:black;font-family:-apple-system,&quot;SF Pro Display&quot;,&quot;SF Pro Text&quot;,Helvetica,sans-serif;" transform="matrix(1 0 0 1 776 2025)">scales and weights.</text>
  <g id="" transform="matrix(1 0 0 1 1289 1933)">
   <path d="M2.8418 1.86523L4.54102 3.57422C5.40039 4.44336 6.38672 4.38477 7.31445 3.35938L17.4902-7.85156C17.7539-7.76367 18.0273-7.7832 18.3398-7.8418L19.4043-8.03711L20.0684-7.36328L20.0293-6.80664C19.9902-6.30859 20.1172-5.92773 20.6055-5.44922L21.3672-4.70703C21.8457-4.22852 22.4609-4.19922 22.9297-4.66797L25.8398-7.58789C26.3086-8.05664 26.2891-8.65234 25.8105-9.13086L25.0391-9.89258C24.5605-10.3711 24.1895-10.5273 23.7109-10.4883L23.1348-10.4395L22.4902-11.0742L22.7344-12.1973C22.8613-12.7637 22.7051-13.2031 22.1191-13.7891L19.9219-15.9766C16.582-19.2969 12.1484-19.2188 9.25781-16.3281C8.83789-15.918 8.80859-15.3418 9.04297-14.9512C9.27734-14.5898 9.73633-14.3555 10.3809-14.5215C11.8457-14.8633 13.3691-14.9219 14.7949-13.9844L14.209-12.5293C14.0137-12.0508 13.9844-11.6504 14.1113-11.2891L3.04688-0.898438C2.06055 0.0195312 1.98242 0.996094 2.8418 1.86523ZM10.752-15.957C13.1836-17.7344 16.4746-17.4316 18.7012-15.2051L21.1328-12.793C21.3672-12.5586 21.4062-12.373 21.3379-12.0312L21.0156-10.5469L22.5195-9.0625L23.5059-9.12109C23.7598-9.13086 23.8379-9.11133 24.0332-8.91602L24.6094-8.33984L22.168-5.89844L21.5918-6.47461C21.3965-6.66992 21.3672-6.74805 21.377-7.01172L21.4453-7.98828L19.9512-9.47266L18.4277-9.21875C18.1055-9.15039 17.959-9.17969 17.7148-9.41406L15.7129-11.416C15.459-11.6504 15.4297-11.8164 15.5859-12.1875L16.4648-14.2773C14.9023-15.7324 12.8711-16.3574 10.8398-15.7617C10.6836-15.7227 10.625-15.8496 10.752-15.957ZM5.27344 2.30469L4.10156 1.14258C3.63281 0.683594 3.74023 0.341797 4.14062-0.0195312L14.9512-10.1953L16.416-8.71094L6.42578 2.27539C6.07422 2.67578 5.74219 2.77344 5.27344 2.30469Z"/>
  </g>
  <text style="stroke:none;fill:black;font-family:-apple-system,&quot;SF Pro Display&quot;,&quot;SF Pro Text&quot;,Helvetica,sans-serif;font-weight:bold;" transform="matrix(1 0 0 1 1289 1953)">Exporting</text>
  <text style="stroke:none;fill:black;font-family:-apple-system,&quot;SF Pro Display&quot;,&quot;SF Pro Text&quot;,Helvetica,sans-serif;" transform="matrix(1 0 0 1 1289 1971)">Symbols should be outlined when exporting to ensure the</text>
  <text style="stroke:none;fill:black;font-family:-apple-system,&quot;SF Pro Display&quot;,&quot;SF Pro Text&quot;,Helvetica,sans-serif;" transform="matrix(1 0 0 1 1289 1989)">design is preserved when submitting to Xcode.</text>
  <text id="template-version" style="stroke:none;fill:black;font-family:-apple-system,&quot;SF Pro Display&quot;,&quot;SF Pro Text&quot;,Helvetica,sans-serif;text-anchor:end;" transform="matrix(1 0 0 1 3036 1933)">Template v.2.0</text>
  <text style="stroke:none;fill:black;font-family:-apple-system,&quot;SF Pro Display&quot;,&quot;SF Pro Text&quot;,Helvetica,sans-serif;text-anchor:end;" transform="matrix(1 0 0 1 3036 1951)">Requires Xcode 12 or greater</text>
  <text style="stroke:none;fill:black;font-family:-apple-system,&quot;SF Pro Display&quot;,&quot;SF Pro Text&quot;,Helvetica,sans-serif;text-anchor:end;" transform="matrix(1 0 0 1 3036 1969)">Generated from face.smiling.fill</text>
  <text style="stroke:none;fill:black;font-family:-apple-system,&quot;SF Pro Display&quot;,&quot;SF Pro Text&quot;,Helvetica,sans-serif;text-anchor:end;" transform="matrix(1 0 0 1 3036 1987)">Typeset at 100 points</text>
  <text style="stroke:none;fill:black;font-family:-apple-system,&quot;SF Pro Display&quot;,&quot;SF Pro Text&quot;,Helvetica,sans-serif;" transform="matrix(1 0 0 1 263 726)">Small</text>
  <text style="stroke:none;fill:black;font-family:-apple-system,&quot;SF Pro Display&quot;,&quot;SF Pro Text&quot;,Helvetica,sans-serif;" transform="matrix(1 0 0 1 263 1156)">Medium</text>
  <text style="stroke:none;fill:black;font-family:-apple-system,&quot;SF Pro Display&quot;,&quot;SF Pro Text&quot;,Helvetica,sans-serif;" transform="matrix(1 0 0 1 263 1586)">Large</text>
 </g>
 <g id="Guides">
  <g id="H-reference" style="fill:#27AAE1;stroke:none;" transform="matrix(1 0 0 1 339 696)">
   <path d="M0.976562 0L3.66211 0L12.9883-24.4629L45.752-24.4629L55.127 0L57.7637 0L30.6152-70.459L28.125-70.459ZM29.3457-67.1387L29.4434-67.1387L44.873-26.709L13.8672-26.709Z"/>
  </g>
  <line id="Baseline-S" style="fill:none;stroke:#27AAE1;opacity:1;stroke-width:0.5;" x1="263" x2="3036" y1="696" y2="696"/>
  <line id="Capline-S" style="fill:none;stroke:#27AAE1;opacity:1;stroke-width:0.5;" x1="263" x2="3036" y1="625.541" y2="625.541"/>
  <g id="H-reference" style="fill:#27AAE1;stroke:none;" transform="matrix(1 0 0 1 339 1126)">
   <path d="M0.976562 0L3.66211 0L12.9883-24.4629L45.752-24.4629L55.127 0L57.7637 0L30.6152-70.459L28.125-70.459ZM29.3457-67.1387L29.4434-67.1387L44.873-26.709L13.8672-26.709Z"/>
  </g>
  <line id="Baseline-M" style="fill:none;stroke:#27AAE1;opacity:1;stroke-width:0.5;" x1="263" x2="3036" y1="1126" y2="1126"/>
  <line id="Capline-M" style="fill:none;stroke:#27AAE1;opacity:1;stroke-width:0.5;" x1="263" x2="3036" y1="1055.54" y2="1055.54"/>
  <g id="H-reference" style="fill:#27AAE1;stroke:none;" transform="matrix(1 0 0 1 339 1556)">
   <path d="M0.976562 0L3.66211 0L12.9883-24.4629L45.752-24.4629L55.127 0L57.7637 0L30.6152-70.459L28.125-70.459ZM29.3457-67.1387L29.4434-67.1387L44.873-26.709L13.8672-26.709Z"/>
  </g>
  <line id="Baseline-L" style="fill:none;stroke:#27AAE1;opacity:1;stroke-width:0.5;" x1="263" x2="3036" y1="1556" y2="1556"/>
  <line id="Capline-L" style="fill:none;stroke:#27AAE1;opacity:1;stroke-width:0.5;" x1="263" x2="3036" y1="1485.54" y2="1485.54"/>
  <line id="left-margin" style="fill:none;stroke:#00AEEF;stroke-width:0.5;opacity:1.0;" x1="1391.3" x2="1391.3" y1="1030.79" y2="1150.12"/>
  <line id="right-margin" style="fill:none;stroke:#00AEEF;stroke-width:0.5;opacity:1.0;" x1="1508.39" x2="1508.39" y1="1030.79" y2="1150.12"/>
 </g>
 <g id="Symbols">
  <g id="Black-L" transform="matrix(1 0 0 1 2854.05 1556)">
   <path d="M79.3457 32.8613C116.748 32.8613 147.412 2.19727 147.412-35.2051C147.412-72.6074 116.748-103.271 79.2969-103.271C41.8945-103.271 11.2793-72.6074 11.2793-35.2051C11.2793 2.19727 41.9434 32.8613 79.3457 32.8613ZM59.6191-41.748C55.4688-41.748 52.0508-45.459 52.0508-50.5859C52.0508-55.7617 55.4688-59.4238 59.6191-59.4238C63.7207-59.4238 67.2852-55.7617 67.2852-50.5859C67.2852-45.459 63.7207-41.748 59.6191-41.748ZM99.1211-41.748C94.9219-41.748 91.5039-45.459 91.5039-50.5859C91.5039-55.7617 94.9219-59.4238 99.1211-59.4238C103.174-59.4238 106.836-55.7617 106.836-50.5859C106.836-45.459 103.174-41.748 99.1211-41.748ZM54.9316-18.2129C54.9316-20.0684 56.7871-20.9961 58.5938-20.166C63.7207-17.7246 69.3359-14.8438 79.2969-14.8438C89.3066-14.8438 94.8242-17.8223 100.049-20.166C101.807-20.9473 103.711-20.0684 103.711-18.2129C103.711-13.4766 93.8965-3.90625 79.2969-3.90625C64.6484-3.90625 54.9316-13.4766 54.9316-18.2129Z"/>
  </g>
  <g id="Heavy-L" transform="matrix(1 0 0 1 2558.39 1556)">
   <path d="M78.2715 31.7871C115.088 31.7871 145.312 1.5625 145.312-35.2051C145.312-72.0215 115.039-102.246 78.2715-102.246C41.4551-102.246 11.2793-72.0215 11.2793-35.2051C11.2793 1.5625 41.5039 31.7871 78.2715 31.7871ZM58.7891-41.6992C54.7363-41.6992 51.416-45.3125 51.416-50.293C51.416-55.3223 54.7363-58.8867 58.7891-58.8867C62.793-58.8867 66.2109-55.3223 66.2109-50.293C66.2109-45.3125 62.793-41.6992 58.7891-41.6992ZM97.8516-41.6992C93.7988-41.6992 90.4785-45.3125 90.4785-50.293C90.4785-55.3223 93.7988-58.8867 97.8516-58.8867C101.855-58.8867 105.322-55.3223 105.322-50.293C105.322-45.3125 101.855-41.6992 97.8516-41.6992ZM54.3945-17.7734C54.3945-19.5312 56.1035-20.3613 57.7637-19.5801C62.7441-17.0898 68.4082-14.1602 78.2715-14.1602C88.0859-14.1602 93.6523-17.1875 98.7305-19.5801C100.342-20.3125 102.148-19.5312 102.148-17.7734C102.148-13.1836 92.5293-3.75977 78.2715-3.75977C63.9648-3.75977 54.3945-13.1836 54.3945-17.7734Z"/>
  </g>
  <g id="Bold-L" transform="matrix(1 0 0 1 2262.88 1556)">
   <path d="M77.0996 30.5664C113.232 30.5664 142.92 0.878906 142.92-35.2539C142.92-71.3379 113.184-101.074 77.0508-101.074C40.9668-101.074 11.2793-71.3379 11.2793-35.2539C11.2793 0.878906 41.0156 30.5664 77.0996 30.5664ZM57.8613-41.6504C53.9551-41.6504 50.7324-45.1172 50.7324-49.9512C50.7324-54.834 53.9551-58.252 57.8613-58.252C61.7676-58.252 65.0391-54.834 65.0391-49.9512C65.0391-45.1172 61.7676-41.6504 57.8613-41.6504ZM96.4355-41.6504C92.5293-41.6504 89.3555-45.1172 89.3555-49.9512C89.3555-54.834 92.5293-58.252 96.4355-58.252C100.342-58.252 103.662-54.834 103.662-49.9512C103.662-45.1172 100.342-41.6504 96.4355-41.6504ZM53.8086-17.334C53.8086-18.8965 55.3711-19.6777 56.8848-18.9453C61.7188-16.4062 67.3828-13.4766 77.0508-13.4766C86.7188-13.4766 92.3828-16.4062 97.2656-18.9453C98.7305-19.6289 100.342-18.8965 100.342-17.334C100.342-12.8906 90.9668-3.61328 77.0508-3.61328C63.1348-3.61328 53.8086-12.8906 53.8086-17.334Z"/>
  </g>
  <g id="Semibold-L" transform="matrix(1 0 0 1 1966.97 1556)">
   <path d="M76.2695 29.7363C111.914 29.7363 141.309 0.390625 141.309-35.2539C141.309-70.8984 111.865-100.244 76.2695-100.244C40.625-100.244 11.2793-70.8984 11.2793-35.2539C11.2793 0.390625 40.6738 29.7363 76.2695 29.7363ZM57.2266-41.6016C53.418-41.6016 50.293-45.0195 50.293-49.707C50.293-54.4922 53.418-57.8613 57.2266-57.8613C61.0352-57.8613 64.209-54.4922 64.209-49.707C64.209-45.0195 61.0352-41.6016 57.2266-41.6016ZM95.5078-41.6016C91.6504-41.6016 88.5742-45.0195 88.5742-49.707C88.5742-54.4922 91.6504-57.8613 95.5078-57.8613C99.3164-57.8613 102.539-54.4922 102.539-49.707C102.539-45.0195 99.3164-41.6016 95.5078-41.6016ZM53.3691-16.9922C53.3691-18.5059 54.8828-19.1895 56.25-18.5059C60.9375-15.918 66.6992-12.9395 76.2695-12.9395C85.791-12.9395 91.5039-15.918 96.2402-18.5059C97.6074-19.1895 99.1211-18.5059 99.1211-16.9922C99.1211-12.6465 89.8926-3.51562 76.2695-3.51562C62.5977-3.51562 53.3691-12.6465 53.3691-16.9922Z"/>
  </g>
  <g id="Medium-L" transform="matrix(1 0 0 1 1670.87 1556)">
   <path d="M75.6836 29.1504C110.938 29.1504 140.088 0 140.088-35.2539C140.088-70.5078 110.889-99.6582 75.6348-99.6582C40.3809-99.6582 11.2793-70.5078 11.2793-35.2539C11.2793 0 40.3809 29.1504 75.6836 29.1504ZM56.7383-41.5527C52.9785-41.5527 49.9023-44.9219 49.9023-49.5117C49.9023-54.1992 52.9785-57.5684 56.7383-57.5684C60.498-57.5684 63.623-54.1992 63.623-49.5117C63.623-44.9219 60.498-41.5527 56.7383-41.5527ZM94.7754-41.5527C91.0156-41.5527 87.9883-44.9219 87.9883-49.5117C87.9883-54.1992 91.0156-57.5684 94.7754-57.5684C98.4863-57.5684 101.66-54.1992 101.66-49.5117C101.66-44.9219 98.4863-41.5527 94.7754-41.5527ZM53.0762-16.748C53.0762-18.2129 54.4922-18.8477 55.7617-18.1641C60.4004-15.5273 66.1621-12.5977 75.6348-12.5977C85.1074-12.5977 90.8691-15.5273 95.459-18.1641C96.7285-18.7988 98.1934-18.2129 98.1934-16.748C98.1934-12.5 89.0625-3.4668 75.6348-3.4668C62.1582-3.4668 53.0762-12.5 53.0762-16.748Z"/>
  </g>
  <g id="Regular-L" transform="matrix(1 0 0 1 1374.97 1556)">
   <path d="M74.8535 28.3203C109.668 28.3203 138.477-0.488281 138.477-35.2539C138.477-70.0684 109.619-98.877 74.8047-98.877C40.0391-98.877 11.2793-70.0684 11.2793-35.2539C11.2793-0.488281 40.0879 28.3203 74.8535 28.3203ZM56.1035-41.5039C52.4414-41.5039 49.4629-44.7754 49.4629-49.3164C49.4629-53.8574 52.4414-57.1289 56.1035-57.1289C59.7656-57.1289 62.793-53.8574 62.793-49.3164C62.793-44.7754 59.7656-41.5039 56.1035-41.5039ZM93.7988-41.5039C90.1367-41.5039 87.207-44.7754 87.207-49.3164C87.207-53.8574 90.1367-57.1289 93.7988-57.1289C97.4609-57.1289 100.537-53.8574 100.537-49.3164C100.537-44.7754 97.4609-41.5039 93.7988-41.5039ZM52.6367-16.4062C52.6367-17.7734 53.9551-18.3594 55.1758-17.7734C59.668-15.0391 65.4785-12.0605 74.8047-12.0605C84.1797-12.0605 89.9902-14.9902 94.4824-17.7734C95.6055-18.3594 96.9727-17.7734 96.9727-16.4062C96.9727-12.3047 88.0371-3.36914 74.8047-3.36914C61.6211-3.36914 52.6367-12.3047 52.6367-16.4062Z"/>
  </g>
  <g id="Light-L" transform="matrix(1 0 0 1 1079.18 1556)">
   <path d="M73.9258 27.3926C108.301 27.3926 136.621-0.927734 136.621-35.2539C136.621-69.6289 108.252-97.9492 73.9258-97.9492C39.5508-97.9492 11.2793-69.6289 11.2793-35.2539C11.2793-0.927734 39.5996 27.3926 73.9258 27.3926ZM55.3223-41.7969C51.9043-41.7969 49.1211-44.873 49.1211-49.1211C49.1211-53.418 51.9043-56.4941 55.3223-56.4941C58.7891-56.4941 61.5723-53.418 61.5723-49.1211C61.5723-44.873 58.7891-41.7969 55.3223-41.7969ZM92.627-41.7969C89.209-41.7969 86.4746-44.873 86.4746-49.1211C86.4746-53.418 89.209-56.4941 92.627-56.4941C96.1426-56.4941 98.9258-53.418 98.9258-49.1211C98.9258-44.873 96.1426-41.7969 92.627-41.7969ZM52.4902-16.748C52.4902-17.8711 53.5645-18.2617 54.4922-17.7246C58.6426-14.7461 64.7461-11.7188 73.9258-11.7188C83.0566-11.7188 89.209-14.6973 93.3594-17.7246C94.1895-18.2617 95.3125-17.8711 95.3125-16.748C95.3125-12.8418 86.6211-4.05273 73.9258-4.05273C61.2305-4.05273 52.4902-12.8418 52.4902-16.748Z"/>
  </g>
  <g id="Thin-L" transform="matrix(1 0 0 1 783.693 1556)">
   <path d="M72.7051 26.1719C106.494 26.1719 134.18-1.51367 134.18-35.2539C134.18-69.043 106.494-96.7285 72.7051-96.7285C38.9648-96.7285 11.2793-69.043 11.2793-35.2539C11.2793-1.51367 38.9648 26.1719 72.7051 26.1719ZM54.248-42.1875C51.123-42.1875 48.6328-45.0195 48.6328-48.9258C48.6328-52.7832 51.123-55.6641 54.248-55.6641C57.4707-55.6641 59.9609-52.7832 59.9609-48.9258C59.9609-45.0195 57.4707-42.1875 54.248-42.1875ZM91.1133-42.1875C87.9883-42.1875 85.498-45.0195 85.498-48.9258C85.498-52.7832 87.9883-55.6641 91.1133-55.6641C94.3359-55.6641 96.8262-52.7832 96.8262-48.9258C96.8262-45.0195 94.3359-42.1875 91.1133-42.1875ZM52.2949-17.1387C52.2949-17.9688 53.0762-18.1152 53.5645-17.6758C57.3242-14.3066 63.8184-11.2793 72.7051-11.2793C81.6406-11.2793 88.1836-14.2578 91.8457-17.6758C92.334-18.1152 93.1641-17.9688 93.1641-17.1387C93.1641-13.5254 84.7168-5.0293 72.7051-5.0293C60.6934-5.0293 52.2949-13.5254 52.2949-17.1387Z"/>
  </g>
  <g id="Ultralight-L" transform="matrix(1 0 0 1 487.616 1556)">
   <path d="M72.1191 25.5371C105.566 25.5371 132.91-1.80664 132.91-35.2539C132.91-68.75 105.566-96.0938 72.1191-96.0938C38.623-96.0938 11.2793-68.75 11.2793-35.2539C11.2793-1.80664 38.623 25.5371 72.1191 25.5371ZM53.7109-42.334C50.7324-42.334 48.3887-45.1172 48.3887-48.8281C48.3887-52.4902 50.7324-55.2734 53.7109-55.2734C56.7871-55.2734 59.1309-52.4902 59.1309-48.8281C59.1309-45.1172 56.7871-42.334 53.7109-42.334ZM90.3809-42.334C87.3535-42.334 85.0098-45.1172 85.0098-48.8281C85.0098-52.4902 87.3535-55.2734 90.3809-55.2734C93.4082-55.2734 95.752-52.4902 95.752-48.8281C95.752-45.1172 93.4082-42.334 90.3809-42.334ZM52.1484-17.334C52.1484-18.0176 52.832-18.0176 53.125-17.627C56.6406-14.1113 63.3301-11.0352 72.1191-11.0352C80.9082-11.0352 87.6465-14.0137 91.1133-17.627C91.4062-18.0176 92.041-18.0176 92.041-17.334C92.041-13.916 83.7402-5.51758 72.1191-5.51758C60.4492-5.51758 52.1484-13.916 52.1484-17.334Z"/>
  </g>
  <g id="Black-M" transform="matrix(1 0 0 1 2870.97 1126)">
   <path d="M62.4023 18.457C91.9922 18.457 116.113-5.61523 116.113-35.2051C116.113-64.7949 91.9922-88.8672 62.4023-88.8672C32.8125-88.8672 8.74023-64.7949 8.74023-35.2051C8.74023-5.61523 32.8125 18.457 62.4023 18.457ZM46.875-40.5273C43.6523-40.5273 40.9668-43.457 40.9668-47.4609C40.9668-51.5137 43.6523-54.3457 46.875-54.3457C50.0977-54.3457 52.9297-51.5137 52.9297-47.4609C52.9297-43.457 50.0977-40.5273 46.875-40.5273ZM77.8809-40.5273C74.5605-40.5273 71.875-43.457 71.875-47.4609C71.875-51.5137 74.5605-54.3457 77.8809-54.3457C81.0547-54.3457 83.9355-51.5137 83.9355-47.4609C83.9355-43.457 81.0547-40.5273 77.8809-40.5273ZM43.2129-22.8027C43.2129-24.2188 44.6777-25 46.1426-24.2676C50.1465-22.3633 54.541-20.1172 62.4023-20.1172C70.2637-20.1172 74.5605-22.4609 78.7109-24.2676C80.127-24.9023 81.6406-24.2188 81.6406-22.8027C81.6406-19.043 73.877-11.4746 62.4023-11.4746C50.8789-11.4746 43.2129-19.043 43.2129-22.8027Z"/>
  </g>
  <g id="Heavy-M" transform="matrix(1 0 0 1 2575.19 1126)">
   <path d="M61.5234 17.5293C90.5273 17.5293 114.258-6.20117 114.258-35.2051C114.258-64.2578 90.5273-87.9883 61.4746-87.9883C32.4707-87.9883 8.74023-64.2578 8.74023-35.2051C8.74023-6.20117 32.4707 17.5293 61.5234 17.5293ZM46.1914-40.3809C43.0176-40.3809 40.3809-43.2617 40.3809-47.168C40.3809-51.123 43.0176-53.9551 46.1914-53.9551C49.3652-53.9551 52.0996-51.123 52.0996-47.168C52.0996-43.2617 49.3652-40.3809 46.1914-40.3809ZM76.8066-40.3809C73.584-40.3809 70.9473-43.2617 70.9473-47.168C70.9473-51.123 73.584-53.9551 76.8066-53.9551C79.9316-53.9551 82.7148-51.123 82.7148-47.168C82.7148-43.2617 79.9316-40.3809 76.8066-40.3809ZM42.6758-22.2656C42.6758-23.6328 44.0918-24.3164 45.4102-23.6816C49.3652-21.7285 53.7598-19.4824 61.4746-19.4824C69.2383-19.4824 73.5352-21.8262 77.5391-23.6816C78.9062-24.2676 80.3223-23.6328 80.3223-22.2656C80.3223-18.6035 72.7539-11.1816 61.4746-11.1816C50.1953-11.1816 42.6758-18.6035 42.6758-22.2656Z"/>
  </g>
  <g id="Bold-M" transform="matrix(1 0 0 1 2279.5 1126)">
   <path d="M60.498 16.5039C88.8672 16.5039 112.207-6.83594 112.207-35.2051C112.207-63.623 88.8672-86.9629 60.4492-86.9629C32.0312-86.9629 8.74023-63.623 8.74023-35.2051C8.74023-6.83594 32.0801 16.5039 60.498 16.5039ZM45.4102-40.2344C42.2852-40.2344 39.7461-43.0176 39.7461-46.8262C39.7461-50.7324 42.2852-53.4668 45.4102-53.4668C48.4863-53.4668 51.123-50.7324 51.123-46.8262C51.123-43.0176 48.4863-40.2344 45.4102-40.2344ZM75.6348-40.2344C72.4609-40.2344 69.9219-43.0176 69.9219-46.8262C69.9219-50.7324 72.4609-53.4668 75.6348-53.4668C78.7109-53.4668 81.3965-50.7324 81.3965-46.8262C81.3965-43.0176 78.7109-40.2344 75.6348-40.2344ZM42.041-21.6309C42.041-22.9492 43.3594-23.584 44.6289-22.998C48.4863-21.0449 52.832-18.7988 60.4492-18.7988C68.0664-18.7988 72.3633-21.0938 76.2695-22.998C77.5391-23.584 78.8574-22.9492 78.8574-21.6309C78.8574-18.1152 71.4844-10.791 60.4492-10.791C49.4141-10.791 42.041-18.1152 42.041-21.6309Z"/>
  </g>
  <g id="Semibold-M" transform="matrix(1 0 0 1 1983.5 1126)">
   <path d="M59.7656 15.8203C87.7441 15.8203 110.791-7.27539 110.791-35.2539C110.791-63.2324 87.6953-86.2793 59.7656-86.2793C31.7871-86.2793 8.74023-63.2324 8.74023-35.2539C8.74023-7.27539 31.7871 15.8203 59.7656 15.8203ZM44.873-40.1367C41.8457-40.1367 39.3066-42.8711 39.3066-46.6309C39.3066-50.4395 41.8457-53.125 44.873-53.125C47.9004-53.125 50.4883-50.4395 50.4883-46.6309C50.4883-42.8711 47.9004-40.1367 44.873-40.1367ZM74.8047-40.1367C71.7285-40.1367 69.2383-42.8711 69.2383-46.6309C69.2383-50.4395 71.7285-53.125 74.8047-53.125C77.832-53.125 80.4199-50.4395 80.4199-46.6309C80.4199-42.8711 77.832-40.1367 74.8047-40.1367ZM41.6504-21.1914C41.6504-22.4609 42.8711-23.0957 44.0918-22.5098C47.8516-20.6055 52.2461-18.3105 59.7656-18.3105C67.2363-18.3105 71.582-20.6055 75.3906-22.5098C76.5625-23.0957 77.8809-22.4609 77.8809-21.1914C77.8809-17.7246 70.5566-10.5469 59.7656-10.5469C48.877-10.5469 41.6504-17.7246 41.6504-21.1914Z"/>
  </g>
  <g id="Medium-M" transform="matrix(1 0 0 1 1687.3 1126)">
   <path d="M59.2285 15.2344C86.9141 15.2344 109.766-7.61719 109.766-35.2539C109.766-62.8906 86.8652-85.7422 59.1797-85.7422C31.543-85.7422 8.74023-62.8906 8.74023-35.2539C8.74023-7.61719 31.5918 15.2344 59.2285 15.2344ZM44.4824-40.0391C41.4551-40.0391 38.9648-42.7246 38.9648-46.4355C38.9648-50.2441 41.4551-52.8809 44.4824-52.8809C47.4609-52.8809 50-50.2441 50-46.4355C50-42.7246 47.4609-40.0391 44.4824-40.0391ZM74.1699-40.0391C71.1426-40.0391 68.7012-42.7246 68.7012-46.4355C68.7012-50.2441 71.1426-52.8809 74.1699-52.8809C77.1484-52.8809 79.7363-50.2441 79.7363-46.4355C79.7363-42.7246 77.1484-40.0391 74.1699-40.0391ZM41.3086-20.8984C41.3086-22.1191 42.5293-22.7051 43.7012-22.168C47.4121-20.2148 51.7578-17.9688 59.1797-17.9688C66.6504-17.9688 70.9961-20.2637 74.707-22.168C75.8301-22.7051 77.0996-22.1191 77.0996-20.8984C77.0996-17.4805 69.9219-10.3516 59.1797-10.3516C48.4863-10.3516 41.3086-17.4805 41.3086-20.8984Z"/>
  </g>
  <g id="Regular-M" transform="matrix(1 0 0 1 1391.3 1126)">
   <path d="M58.5449 14.5508C85.791 14.5508 108.35-8.05664 108.35-35.2539C108.35-62.5 85.7422-85.0586 58.4961-85.0586C31.2988-85.0586 8.74023-62.5 8.74023-35.2539C8.74023-8.05664 31.3477 14.5508 58.5449 14.5508ZM43.9453-39.9414C40.9668-39.9414 38.5254-42.5781 38.5254-46.2402C38.5254-49.9512 40.9668-52.5391 43.9453-52.5391C46.9238-52.5391 49.3652-49.9512 49.3652-46.2402C49.3652-42.5781 46.9238-39.9414 43.9453-39.9414ZM73.3398-39.9414C70.4102-39.9414 67.9688-42.5781 67.9688-46.2402C67.9688-49.9512 70.4102-52.5391 73.3398-52.5391C76.3184-52.5391 78.8086-49.9512 78.8086-46.2402C78.8086-42.5781 76.3184-39.9414 73.3398-39.9414ZM40.918-20.459C40.918-21.6797 42.041-22.2168 43.1641-21.7285C46.8262-19.7754 51.1719-17.4805 58.4961-17.4805C65.8203-17.4805 70.166-19.7266 73.877-21.7285C74.9023-22.2168 76.0742-21.6797 76.0742-20.459C76.0742-17.1387 69.043-10.1074 58.4961-10.1074C47.9492-10.1074 40.918-17.1387 40.918-20.459Z"/>
  </g>
  <g id="Light-M" transform="matrix(1 0 0 1 1095.42 1126)">
   <path d="M57.7148 13.7207C84.5215 13.7207 106.689-8.44727 106.689-35.2539C106.689-62.1094 84.5215-84.2285 57.666-84.2285C30.8594-84.2285 8.74023-62.1094 8.74023-35.2539C8.74023-8.44727 30.9082 13.7207 57.7148 13.7207ZM43.2129-40.1855C40.4785-40.1855 38.2324-42.6758 38.2324-46.0938C38.2324-49.5117 40.4785-52.002 43.2129-52.002C45.9961-52.002 48.2422-49.5117 48.2422-46.0938C48.2422-42.6758 45.9961-40.1855 43.2129-40.1855ZM72.3145-40.1855C69.5801-40.1855 67.334-42.6758 67.334-46.0938C67.334-49.5117 69.5801-52.002 72.3145-52.002C75.0977-52.002 77.3926-49.5117 77.3926-46.0938C77.3926-42.6758 75.0977-40.1855 72.3145-40.1855ZM40.7715-20.752C40.7715-21.7285 41.6992-22.1191 42.5293-21.6797C45.8984-19.4824 50.4883-17.1875 57.666-17.1875C64.8438-17.1875 69.4824-19.4336 72.8516-21.6797C73.6328-22.1191 74.6094-21.7285 74.6094-20.752C74.6094-17.627 67.7734-10.7422 57.666-10.7422C47.6074-10.7422 40.7715-17.627 40.7715-20.752Z"/>
  </g>
  <g id="Thin-M" transform="matrix(1 0 0 1 799.806 1126)">
   <path d="M56.6406 12.5977C82.9102 12.5977 104.492-8.98438 104.492-35.2539C104.492-61.5723 82.9102-83.1543 56.5918-83.1543C30.3223-83.1543 8.74023-61.5723 8.74023-35.2539C8.74023-8.98438 30.3223 12.5977 56.6406 12.5977ZM42.2852-40.5273C39.7949-40.5273 37.793-42.8223 37.793-45.8984C37.793-48.9746 39.7949-51.2695 42.2852-51.2695C44.8242-51.2695 46.8262-48.9746 46.8262-45.8984C46.8262-42.8223 44.8242-40.5273 42.2852-40.5273ZM70.9473-40.5273C68.457-40.5273 66.5039-42.8223 66.5039-45.8984C66.5039-48.9746 68.457-51.2695 70.9473-51.2695C73.4863-51.2695 75.4883-48.9746 75.4883-45.8984C75.4883-42.8223 73.4863-40.5273 70.9473-40.5273ZM40.5762-21.1426C40.5762-21.8262 41.2598-21.9727 41.6992-21.6309C44.7266-19.0918 49.6582-16.748 56.5918-16.748C63.5742-16.748 68.5547-19.043 71.4844-21.6309C71.9727-21.9727 72.6562-21.8262 72.6562-21.1426C72.6562-18.2617 66.0645-11.6211 56.5918-11.6211C47.168-11.6211 40.5762-18.2617 40.5762-21.1426Z"/>
  </g>
  <g id="Ultralight-M" transform="matrix(1 0 0 1 503.656 1126)">
   <path d="M56.0547 12.0605C82.0801 12.0605 103.369-9.22852 103.369-35.2539C103.369-61.2793 82.0801-82.5684 56.0547-82.5684C30.0293-82.5684 8.74023-61.2793 8.74023-35.2539C8.74023-9.22852 30.0293 12.0605 56.0547 12.0605ZM41.7969-40.6738C39.4531-40.6738 37.5977-42.8711 37.5977-45.8008C37.5977-48.6816 39.4531-50.8789 41.7969-50.8789C44.2383-50.8789 46.0938-48.6816 46.0938-45.8008C46.0938-42.8711 44.2383-40.6738 41.7969-40.6738ZM70.2637-40.6738C67.9199-40.6738 66.0645-42.8711 66.0645-45.8008C66.0645-48.6816 67.9199-50.8789 70.2637-50.8789C72.6562-50.8789 74.5605-48.6816 74.5605-45.8008C74.5605-42.8711 72.6562-40.6738 70.2637-40.6738ZM40.4785-21.3379C40.4785-21.875 41.0156-21.9238 41.3086-21.6309C44.0918-18.8965 49.2188-16.5527 56.0547-16.5527C62.8906-16.5527 68.1152-18.8477 70.8008-21.6309C71.1426-21.9238 71.6797-21.875 71.6797-21.3379C71.6797-18.6035 65.1855-12.0605 56.0547-12.0605C46.9238-12.0605 40.4785-18.6035 40.4785-21.3379Z"/>
  </g>
  <g id="Black-S" transform="matrix(1 0 0 1 2884.57 696)">
   <path d="M48.8281 6.78711C71.9727 6.78711 90.8203-12.0605 90.8203-35.2051C90.8203-58.3496 71.9727-77.1973 48.8281-77.1973C25.6836-77.1973 6.83594-58.3496 6.83594-35.2051C6.83594-12.0605 25.6836 6.78711 48.8281 6.78711ZM36.6699-39.3555C34.1309-39.3555 32.0312-41.6504 32.0312-44.7754C32.0312-47.9492 34.1309-50.1953 36.6699-50.1953C39.209-50.1953 41.4062-47.9492 41.4062-44.7754C41.4062-41.6504 39.209-39.3555 36.6699-39.3555ZM60.9375-39.3555C58.3496-39.3555 56.25-41.6504 56.25-44.7754C56.25-47.9492 58.3496-50.1953 60.9375-50.1953C63.4277-50.1953 65.6738-47.9492 65.6738-44.7754C65.6738-41.6504 63.4277-39.3555 60.9375-39.3555ZM33.7891-25.4395C33.7891-26.5625 34.9609-27.1484 36.084-26.6113C39.209-25.0977 42.6758-23.3398 48.8281-23.3398C54.9805-23.3398 58.3496-25.1953 61.5723-26.6113C62.6953-27.0996 63.8672-26.5625 63.8672-25.4395C63.8672-22.5098 57.8125-16.6016 48.8281-16.6016C39.7949-16.6016 33.7891-22.5098 33.7891-25.4395Z"/>
  </g>
  <g id="Heavy-S" transform="matrix(1 0 0 1 2588.47 696)">
   <path d="M48.2422 6.15234C70.9961 6.15234 89.5996-12.4512 89.5996-35.2051C89.5996-57.959 70.9961-76.6113 48.1934-76.6113C25.4395-76.6113 6.83594-57.959 6.83594-35.2051C6.83594-12.4512 25.4395 6.15234 48.2422 6.15234ZM36.2305-39.209C33.6914-39.209 31.6406-41.5039 31.6406-44.5801C31.6406-47.7051 33.6914-49.9512 36.2305-49.9512C38.7207-49.9512 40.8691-47.7051 40.8691-44.5801C40.8691-41.5039 38.7207-39.209 36.2305-39.209ZM60.2539-39.209C57.666-39.209 55.6152-41.5039 55.6152-44.5801C55.6152-47.7051 57.666-49.9512 60.2539-49.9512C62.6953-49.9512 64.8926-47.7051 64.8926-44.5801C64.8926-41.5039 62.6953-39.209 60.2539-39.209ZM33.3984-25C33.3984-26.0742 34.5215-26.6602 35.5957-26.1719C38.7207-24.6582 42.1387-22.9004 48.1934-22.9004C54.2969-22.9004 57.6172-24.7559 60.791-26.1719C61.8652-26.6113 63.0371-26.0742 63.0371-25C63.0371-22.1191 57.0801-16.2598 48.1934-16.2598C39.3066-16.2598 33.3984-22.1191 33.3984-25Z"/>
  </g>
  <g id="Bold-S" transform="matrix(1 0 0 1 2292.44 696)">
   <path d="M47.5586 5.46875C69.873 5.46875 88.2324-12.8906 88.2324-35.2539C88.2324-57.5684 69.873-75.9277 47.5098-75.9277C25.1953-75.9277 6.83594-57.5684 6.83594-35.2539C6.83594-12.8906 25.1953 5.46875 47.5586 5.46875ZM35.6934-39.0625C33.252-39.0625 31.2012-41.3086 31.2012-44.3359C31.2012-47.4609 33.252-49.6582 35.6934-49.6582C38.1836-49.6582 40.2832-47.4609 40.2832-44.3359C40.2832-41.3086 38.1836-39.0625 35.6934-39.0625ZM59.4238-39.0625C56.9336-39.0625 54.8828-41.3086 54.8828-44.3359C54.8828-47.4609 56.9336-49.6582 59.4238-49.6582C61.9141-49.6582 64.0625-47.4609 64.0625-44.3359C64.0625-41.3086 61.9141-39.0625 59.4238-39.0625ZM32.959-24.4629C32.959-25.5859 34.0332-26.123 35.1074-25.6348C38.1836-24.1699 41.5039-22.4121 47.5098-22.4121C53.5156-22.4121 56.8359-24.2188 59.9609-25.6348C60.9863-26.0742 62.1094-25.5859 62.1094-24.4629C62.1094-21.6797 56.25-15.918 47.5098-15.918C38.7695-15.918 32.959-21.6797 32.959-24.4629Z"/>
  </g>
  <g id="Semibold-S" transform="matrix(1 0 0 1 1996.2 696)">
   <path d="M47.0703 4.98047C69.0918 4.98047 87.3047-13.1836 87.3047-35.2539C87.3047-57.2754 69.0918-75.4883 47.0215-75.4883C25-75.4883 6.83594-57.2754 6.83594-35.2539C6.83594-13.1836 25.0488 4.98047 47.0703 4.98047ZM35.3516-38.9648C32.9102-38.9648 30.8594-41.1621 30.8594-44.1895C30.8594-47.2656 32.9102-49.4141 35.3516-49.4141C37.793-49.4141 39.8926-47.2656 39.8926-44.1895C39.8926-41.1621 37.793-38.9648 35.3516-38.9648ZM58.8867-38.9648C56.4453-38.9648 54.3945-41.1621 54.3945-44.1895C54.3945-47.2656 56.4453-49.4141 58.8867-49.4141C61.3281-49.4141 63.4766-47.2656 63.4766-44.1895C63.4766-41.1621 61.3281-38.9648 58.8867-38.9648ZM32.6172-24.1211C32.6172-25.1953 33.6914-25.7324 34.7168-25.293C37.793-23.8281 41.1133-22.0703 47.0215-22.0703C52.9785-22.0703 56.2988-23.877 59.375-25.293C60.3516-25.7324 61.4258-25.1953 61.4258-24.1211C61.4258-21.3379 55.6641-15.6738 47.0215-15.6738C38.3789-15.6738 32.6172-21.3379 32.6172-24.1211Z"/>
  </g>
  <g id="Medium-S" transform="matrix(1 0 0 1 1699.83 696)">
   <path d="M46.7285 4.63867C68.5547 4.63867 86.6211-13.4277 86.6211-35.2539C86.6211-57.0801 68.5059-75.1465 46.6797-75.1465C24.8535-75.1465 6.83594-57.0801 6.83594-35.2539C6.83594-13.4277 24.9023 4.63867 46.7285 4.63867ZM35.1074-38.916C32.666-38.916 30.6152-41.0645 30.6152-44.0918C30.6152-47.1191 32.666-49.2676 35.1074-49.2676C37.5488-49.2676 39.5996-47.1191 39.5996-44.0918C39.5996-41.0645 37.5488-38.916 35.1074-38.916ZM58.4961-38.916C56.0547-38.916 54.0527-41.0645 54.0527-44.0918C54.0527-47.1191 56.0547-49.2676 58.4961-49.2676C60.8887-49.2676 62.9883-47.1191 62.9883-44.0918C62.9883-41.0645 60.8887-38.916 58.4961-38.916ZM32.4219-23.877C32.4219-24.9512 33.4473-25.4395 34.4238-25C37.5-23.584 40.7715-21.8262 46.6797-21.8262C52.5879-21.8262 55.8594-23.584 58.9355-25C59.9121-25.4395 60.9375-24.9512 60.9375-23.877C60.9375-21.1426 55.2246-15.4785 46.6797-15.4785C38.0859-15.4785 32.4219-21.1426 32.4219-23.877Z"/>
  </g>
  <g id="Regular-S" transform="matrix(1 0 0 1 1403.58 696)">
   <path d="M46.2402 4.15039C67.7734 4.15039 85.6934-13.7207 85.6934-35.2539C85.6934-56.7871 67.7246-74.6582 46.1914-74.6582C24.707-74.6582 6.83594-56.7871 6.83594-35.2539C6.83594-13.7207 24.7559 4.15039 46.2402 4.15039ZM34.7656-38.8184C32.3242-38.8184 30.3223-40.918 30.3223-43.9453C30.3223-46.9727 32.3242-49.0723 34.7656-49.0723C37.1582-49.0723 39.209-46.9727 39.209-43.9453C39.209-40.918 37.1582-38.8184 34.7656-38.8184ZM57.959-38.8184C55.5176-38.8184 53.5645-40.918 53.5645-43.9453C53.5645-46.9727 55.5176-49.0723 57.959-49.0723C60.3516-49.0723 62.4023-46.9727 62.4023-43.9453C62.4023-40.918 60.3516-38.8184 57.959-38.8184ZM32.1289-23.5352C32.1289-24.5605 33.1055-25.0977 34.082-24.6582C37.1094-23.2422 40.3809-21.4844 46.1914-21.4844C52.0508-21.4844 55.3223-23.2422 58.3496-24.6582C59.2773-25.0977 60.3027-24.5605 60.3027-23.5352C60.3027-20.8496 54.6875-15.2344 46.1914-15.2344C37.7441-15.2344 32.1289-20.8496 32.1289-23.5352Z"/>
  </g>
  <g id="Light-S" transform="matrix(1 0 0 1 1107.6 696)">
   <path d="M45.5078 3.41797C66.6992 3.41797 84.2285-14.0625 84.2285-35.2539C84.2285-56.4453 66.6504-73.9258 45.5078-73.9258C24.3164-73.9258 6.83594-56.4453 6.83594-35.2539C6.83594-14.0625 24.3652 3.41797 45.5078 3.41797ZM34.1309-39.0137C31.8848-39.0137 30.0293-41.0156 30.0293-43.7988C30.0293-46.582 31.8848-48.584 34.1309-48.584C36.377-48.584 38.2324-46.582 38.2324-43.7988C38.2324-41.0156 36.377-39.0137 34.1309-39.0137ZM57.0312-39.0137C54.7852-39.0137 52.9785-41.0156 52.9785-43.7988C52.9785-46.582 54.7852-48.584 57.0312-48.584C59.2773-48.584 61.1816-46.582 61.1816-43.7988C61.1816-41.0156 59.2773-39.0137 57.0312-39.0137ZM31.9824-23.7793C31.9824-24.6094 32.8125-25 33.5449-24.6094C36.3281-22.998 39.7949-21.1914 45.5078-21.1914C51.1719-21.1914 54.6875-22.998 57.4219-24.6094C58.1543-25 59.0332-24.6094 59.0332-23.7793C59.0332-21.2402 53.5645-15.8203 45.5078-15.8203C37.4512-15.8203 31.9824-21.2402 31.9824-23.7793Z"/>
  </g>
  <g id="Thin-S" transform="matrix(1 0 0 1 811.867 696)">
   <path d="M44.5801 2.49023C65.2832 2.49023 82.2754-14.5508 82.2754-35.2539C82.2754-55.957 65.2344-72.998 44.5312-72.998C23.8281-72.998 6.83594-55.957 6.83594-35.2539C6.83594-14.5508 23.877 2.49023 44.5801 2.49023ZM33.3008-39.3066C31.2988-39.3066 29.6875-41.1133 29.6875-43.6035C29.6875-46.0938 31.2988-47.9492 33.3008-47.9492C35.3516-47.9492 36.9629-46.0938 36.9629-43.6035C36.9629-41.1133 35.3516-39.3066 33.3008-39.3066ZM55.8594-39.3066C53.8574-39.3066 52.2461-41.1133 52.2461-43.6035C52.2461-46.0938 53.8574-47.9492 55.8594-47.9492C57.8613-47.9492 59.5215-46.0938 59.5215-43.6035C59.5215-41.1133 57.8613-39.3066 55.8594-39.3066ZM31.7871-24.1211C31.7871-24.707 32.373-24.9023 32.8125-24.6094C35.2539-22.6562 39.0625-20.8496 44.5312-20.8496C50.0488-20.8496 53.9062-22.6562 56.25-24.6094C56.6895-24.9023 57.2754-24.707 57.2754-24.1211C57.2754-21.8262 52.0508-16.5527 44.5312-16.5527C37.0117-16.5527 31.7871-21.8262 31.7871-24.1211Z"/>
  </g>
  <g id="Ultralight-S" transform="matrix(1 0 0 1 515.644 696)">
   <path d="M44.043 1.95312C64.502 1.95312 81.2988-14.7949 81.2988-35.2539C81.2988-55.7129 64.502-72.4609 44.043-72.4609C23.584-72.4609 6.83594-55.7129 6.83594-35.2539C6.83594-14.7949 23.584 1.95312 44.043 1.95312ZM32.8613-39.4531C30.957-39.4531 29.4922-41.2109 29.4922-43.5059C29.4922-45.8496 30.957-47.6074 32.8613-47.6074C34.8145-47.6074 36.2793-45.8496 36.2793-43.5059C36.2793-41.2109 34.8145-39.4531 32.8613-39.4531ZM55.2246-39.4531C53.3203-39.4531 51.8555-41.2109 51.8555-43.5059C51.8555-45.8496 53.3203-47.6074 55.2246-47.6074C57.1289-47.6074 58.6426-45.8496 58.6426-43.5059C58.6426-41.2109 57.1289-39.4531 55.2246-39.4531ZM31.6895-24.2676C31.6895-24.7559 32.1777-24.8047 32.4707-24.5605C34.7168-22.5098 38.6719-20.6543 44.043-20.6543C49.4629-20.6543 53.4668-22.4609 55.6641-24.5605C55.957-24.8047 56.3965-24.7559 56.3965-24.2676C56.3965-22.1191 51.3184-16.9434 44.043-16.9434C36.8164-16.9434 31.6895-22.1191 31.6895-24.2676Z"/>
  </g>
 </g>
</svg>
