<?xml version="1.0" encoding="UTF-8"?>
<!--Generator: Apple Native CoreSVG 175-->
<!DOCTYPE svg
PUBLIC "-//W3C//DTD SVG 1.1//EN"
       "http://www.w3.org/Graphics/SVG/1.1/DTD/svg11.dtd">
<svg version="1.1" xmlns="http://www.w3.org/2000/svg" xmlns:xlink="http://www.w3.org/1999/xlink" width="3300" height="2200">
 <!--glyph: "uni10064C.medium", point size: 100.0, font version: "17.0d11e1", template writer version: "65.1"-->
 <style>.hierarchical-0:tertiary {fill:#8E8E8E}
.hierarchical-1:primary {fill:#212121}

.SFSymbolsPreview212121 {fill:#212121;opacity:1.0}
.SFSymbolsPreview8E8E8E {fill:#8E8E8E;opacity:1.0}
</style>
 <g id="Notes">
  <rect height="2200" id="artboard" style="fill:white;opacity:1" width="3300" x="0" y="0"/>
  <line style="fill:none;stroke:black;opacity:1;stroke-width:0.5;" x1="263" x2="3036" y1="292" y2="292"/>
  <text style="stroke:none;fill:black;font-family:sans-serif;font-size:13;font-weight:bold;" transform="matrix(1 0 0 1 263 322)">Weight/Scale Variations</text>
  <text style="stroke:none;fill:black;font-family:sans-serif;font-size:13;text-anchor:middle;" transform="matrix(1 0 0 1 559.711 322)">Ultralight</text>
  <text style="stroke:none;fill:black;font-family:sans-serif;font-size:13;text-anchor:middle;" transform="matrix(1 0 0 1 856.422 322)">Thin</text>
  <text style="stroke:none;fill:black;font-family:sans-serif;font-size:13;text-anchor:middle;" transform="matrix(1 0 0 1 1153.13 322)">Light</text>
  <text style="stroke:none;fill:black;font-family:sans-serif;font-size:13;text-anchor:middle;" transform="matrix(1 0 0 1 1449.84 322)">Regular</text>
  <text style="stroke:none;fill:black;font-family:sans-serif;font-size:13;text-anchor:middle;" transform="matrix(1 0 0 1 1746.56 322)">Medium</text>
  <text style="stroke:none;fill:black;font-family:sans-serif;font-size:13;text-anchor:middle;" transform="matrix(1 0 0 1 2043.27 322)">Semibold</text>
  <text style="stroke:none;fill:black;font-family:sans-serif;font-size:13;text-anchor:middle;" transform="matrix(1 0 0 1 2339.98 322)">Bold</text>
  <text style="stroke:none;fill:black;font-family:sans-serif;font-size:13;text-anchor:middle;" transform="matrix(1 0 0 1 2636.69 322)">Heavy</text>
  <text style="stroke:none;fill:black;font-family:sans-serif;font-size:13;text-anchor:middle;" transform="matrix(1 0 0 1 2933.4 322)">Black</text>
  <line style="fill:none;stroke:black;opacity:1;stroke-width:0.5;" x1="263" x2="3036" y1="1903" y2="1903"/>
  <g transform="matrix(1 0 0 1 263 1933)">
   <path d="M9.24805 0.830078Q10.8691 0.830078 12.2949 0.214844Q13.7207-0.400391 14.8096-1.49414Q15.8984-2.58789 16.5186-4.01367Q17.1387-5.43945 17.1387-7.05078Q17.1387-8.66211 16.5186-10.0879Q15.8984-11.5137 14.8047-12.6074Q13.7109-13.7012 12.2852-14.3164Q10.8594-14.9316 9.23828-14.9316Q7.62695-14.9316 6.20117-14.3164Q4.77539-13.7012 3.69141-12.6074Q2.60742-11.5137 1.9873-10.0879Q1.36719-8.66211 1.36719-7.05078Q1.36719-5.43945 1.9873-4.01367Q2.60742-2.58789 3.69629-1.49414Q4.78516-0.400391 6.21094 0.214844Q7.63672 0.830078 9.24805 0.830078ZM9.24805-0.654297Q7.91992-0.654297 6.7627-1.14746Q5.60547-1.64062 4.73145-2.51953Q3.85742-3.39844 3.36426-4.56055Q2.87109-5.72266 2.87109-7.05078Q2.87109-8.37891 3.35938-9.54102Q3.84766-10.7031 4.72168-11.582Q5.5957-12.4609 6.75293-12.9541Q7.91016-13.4473 9.23828-13.4473Q10.5762-13.4473 11.7334-12.9541Q12.8906-12.4609 13.7695-11.582Q14.6484-10.7031 15.1465-9.54102Q15.6445-8.37891 15.6445-7.05078Q15.6445-5.72266 15.1514-4.56055Q14.6582-3.39844 13.7842-2.51953Q12.9102-1.64062 11.748-1.14746Q10.5859-0.654297 9.24805-0.654297ZM5.6543-7.05078Q5.6543-6.72852 5.85938-6.52832Q6.06445-6.32812 6.40625-6.32812L8.51562-6.32812L8.51562-4.20898Q8.51562-3.88672 8.71094-3.67676Q8.90625-3.4668 9.23828-3.4668Q9.56055-3.4668 9.77051-3.67676Q9.98047-3.88672 9.98047-4.20898L9.98047-6.32812L12.0898-6.32812Q12.4219-6.32812 12.627-6.52832Q12.832-6.72852 12.832-7.05078Q12.832-7.38281 12.627-7.58789Q12.4219-7.79297 12.0898-7.79297L9.98047-7.79297L9.98047-9.90234Q9.98047-10.2344 9.77051-10.4443Q9.56055-10.6543 9.23828-10.6543Q8.90625-10.6543 8.71094-10.4443Q8.51562-10.2344 8.51562-9.90234L8.51562-7.79297L6.40625-7.79297Q6.06445-7.79297 5.85938-7.58789Q5.6543-7.38281 5.6543-7.05078Z"/>
  </g>
  <g transform="matrix(1 0 0 1 281.867 1933)">
   <path d="M11.709 2.91016Q13.75 2.91016 15.5518 2.12891Q17.3535 1.34766 18.7305-0.0292969Q20.1074-1.40625 20.8887-3.20801Q21.6699-5.00977 21.6699-7.05078Q21.6699-9.0918 20.8887-10.8936Q20.1074-12.6953 18.7305-14.0723Q17.3535-15.4492 15.5469-16.2305Q13.7402-17.0117 11.6992-17.0117Q9.6582-17.0117 7.85645-16.2305Q6.05469-15.4492 4.68262-14.0723Q3.31055-12.6953 2.5293-10.8936Q1.74805-9.0918 1.74805-7.05078Q1.74805-5.00977 2.5293-3.20801Q3.31055-1.40625 4.6875-0.0292969Q6.06445 1.34766 7.86621 2.12891Q9.66797 2.91016 11.709 2.91016ZM11.709 1.25Q9.98047 1.25 8.47656 0.605469Q6.97266-0.0390625 5.83496-1.17676Q4.69727-2.31445 4.05762-3.81836Q3.41797-5.32227 3.41797-7.05078Q3.41797-8.7793 4.05762-10.2832Q4.69727-11.7871 5.83008-12.9297Q6.96289-14.0723 8.4668-14.7119Q9.9707-15.3516 11.6992-15.3516Q13.4277-15.3516 14.9316-14.7119Q16.4355-14.0723 17.5781-12.9297Q18.7207-11.7871 19.3652-10.2832Q20.0098-8.7793 20.0098-7.05078Q20.0098-5.32227 19.3701-3.81836Q18.7305-2.31445 17.5928-1.17676Q16.4551-0.0390625 14.9463 0.605469Q13.4375 1.25 11.709 1.25ZM7.17773-7.05078Q7.17773-6.69922 7.41211-6.47461Q7.64648-6.25 8.01758-6.25L10.8887-6.25L10.8887-3.36914Q10.8887-2.99805 11.1133-2.76855Q11.3379-2.53906 11.6895-2.53906Q12.0605-2.53906 12.29-2.76855Q12.5195-2.99805 12.5195-3.36914L12.5195-6.25L15.4004-6.25Q15.7715-6.25 16.001-6.47461Q16.2305-6.69922 16.2305-7.05078Q16.2305-7.42188 16.001-7.65137Q15.7715-7.88086 15.4004-7.88086L12.5195-7.88086L12.5195-10.752Q12.5195-11.1328 12.29-11.3623Q12.0605-11.5918 11.6895-11.5918Q11.3379-11.5918 11.1133-11.3574Q10.8887-11.123 10.8887-10.752L10.8887-7.88086L8.01758-7.88086Q7.63672-7.88086 7.40723-7.65137Q7.17773-7.42188 7.17773-7.05078Z"/>
  </g>
  <g transform="matrix(1 0 0 1 305.646 1933)">
   <path d="M14.9707 5.66406Q17.0605 5.66406 18.96 5.01465Q20.8594 4.36523 22.4512 3.19336Q24.043 2.02148 25.2197 0.429688Q26.3965-1.16211 27.0459-3.06641Q27.6953-4.9707 27.6953-7.05078Q27.6953-9.14062 27.0459-11.04Q26.3965-12.9395 25.2197-14.5312Q24.043-16.123 22.4512-17.2998Q20.8594-18.4766 18.9551-19.126Q17.0508-19.7754 14.9609-19.7754Q12.8711-19.7754 10.9717-19.126Q9.07227-18.4766 7.48535-17.2998Q5.89844-16.123 4.72168-14.5312Q3.54492-12.9395 2.90039-11.04Q2.25586-9.14062 2.25586-7.05078Q2.25586-4.9707 2.90527-3.06641Q3.55469-1.16211 4.72656 0.429688Q5.89844 2.02148 7.49023 3.19336Q9.08203 4.36523 10.9814 5.01465Q12.8809 5.66406 14.9707 5.66406ZM14.9707 3.84766Q13.1641 3.84766 11.5283 3.2959Q9.89258 2.74414 8.53516 1.74805Q7.17773 0.751953 6.17676-0.610352Q5.17578-1.97266 4.62891-3.6084Q4.08203-5.24414 4.08203-7.05078Q4.08203-8.86719 4.62891-10.5029Q5.17578-12.1387 6.17188-13.501Q7.16797-14.8633 8.52539-15.8594Q9.88281-16.8555 11.5186-17.4023Q13.1543-17.9492 14.9609-17.9492Q16.7773-17.9492 18.4131-17.4023Q20.0488-16.8555 21.4111-15.8594Q22.7734-14.8633 23.7695-13.501Q24.7656-12.1387 25.3174-10.5029Q25.8691-8.86719 25.8691-7.05078Q25.8789-5.24414 25.332-3.6084Q24.7852-1.97266 23.7842-0.610352Q22.7832 0.751953 21.4209 1.74805Q20.0586 2.74414 18.4229 3.2959Q16.7871 3.84766 14.9707 3.84766ZM9.19922-7.05078Q9.19922-6.66992 9.45801-6.4209Q9.7168-6.17188 10.1172-6.17188L14.0625-6.17188L14.0625-2.2168Q14.0625-1.81641 14.3115-1.55762Q14.5605-1.29883 14.9512-1.29883Q15.3516-1.29883 15.6104-1.55273Q15.8691-1.80664 15.8691-2.2168L15.8691-6.17188L19.8242-6.17188Q20.2246-6.17188 20.4785-6.4209Q20.7324-6.66992 20.7324-7.05078Q20.7324-7.46094 20.4785-7.71484Q20.2246-7.96875 19.8242-7.96875L15.8691-7.96875L15.8691-11.9141Q15.8691-12.3242 15.6104-12.583Q15.3516-12.8418 14.9512-12.8418Q14.5605-12.8418 14.3115-12.583Q14.0625-12.3242 14.0625-11.9141L14.0625-7.96875L10.1172-7.96875Q9.70703-7.96875 9.45312-7.71484Q9.19922-7.46094 9.19922-7.05078Z"/>
  </g>
  <text style="stroke:none;fill:black;font-family:sans-serif;font-size:13;font-weight:bold;" transform="matrix(1 0 0 1 263 1953)">Design Variations</text>
  <text style="stroke:none;fill:black;font-family:sans-serif;font-size:13;" transform="matrix(1 0 0 1 263 1971)">Symbols are supported in up to nine weights and three scales.</text>
  <text style="stroke:none;fill:black;font-family:sans-serif;font-size:13;" transform="matrix(1 0 0 1 263 1989)">For optimal layout with text and other symbols, vertically align</text>
  <text style="stroke:none;fill:black;font-family:sans-serif;font-size:13;" transform="matrix(1 0 0 1 263 2007)">symbols with the adjacent text.</text>
  <line style="fill:none;stroke:#00AEEF;stroke-width:0.5;opacity:1.0;" x1="776" x2="776" y1="1919" y2="1933"/>
  <g transform="matrix(1 0 0 1 776 1933)">
   <path d="M3.31055 0.15625Q3.70117 0.15625 3.91602-0.00976562Q4.13086-0.175781 4.26758-0.585938L5.52734-4.0332L11.2891-4.0332L12.5488-0.585938Q12.6855-0.175781 12.9004-0.00976562Q13.1152 0.15625 13.4961 0.15625Q13.8867 0.15625 14.1162-0.0585938Q14.3457-0.273438 14.3457-0.644531Q14.3457-0.869141 14.2383-1.17188L9.6582-13.3691Q9.48242-13.8184 9.17969-14.043Q8.87695-14.2676 8.4082-14.2676Q7.5-14.2676 7.17773-13.3789L2.59766-1.16211Q2.49023-0.859375 2.49023-0.634766Q2.49023-0.263672 2.70996-0.0537109Q2.92969 0.15625 3.31055 0.15625ZM6.00586-5.51758L8.37891-12.0898L8.42773-12.0898L10.8008-5.51758Z"/>
  </g>
  <line style="fill:none;stroke:#00AEEF;stroke-width:0.5;opacity:1.0;" x1="793.197" x2="793.197" y1="1919" y2="1933"/>
  <text style="stroke:none;fill:black;font-family:sans-serif;font-size:13;font-weight:bold;" transform="matrix(1 0 0 1 776 1953)">Margins</text>
  <text style="stroke:none;fill:black;font-family:sans-serif;font-size:13;" transform="matrix(1 0 0 1 776 1971)">Leading and trailing margins on the left and right side of each symbol</text>
  <text style="stroke:none;fill:black;font-family:sans-serif;font-size:13;" transform="matrix(1 0 0 1 776 1989)">can be adjusted by modifying the x-location of the margin guidelines.</text>
  <text style="stroke:none;fill:black;font-family:sans-serif;font-size:13;" transform="matrix(1 0 0 1 776 2007)">Modifications are automatically applied proportionally to all</text>
  <text style="stroke:none;fill:black;font-family:sans-serif;font-size:13;" transform="matrix(1 0 0 1 776 2025)">scales and weights.</text>
  <g transform="matrix(1 0 0 1 1289 1933)">
   <path d="M2.8418 1.86523L4.54102 3.57422Q5.18555 4.22852 5.90332 4.17969Q6.62109 4.13086 7.31445 3.35938L18.0078-8.42773L17.041-9.4043L6.42578 2.27539Q6.16211 2.57812 5.89355 2.61719Q5.625 2.65625 5.27344 2.30469L4.10156 1.14258Q3.75 0.791016 3.79395 0.522461Q3.83789 0.253906 4.14062-0.0195312L15.6152-10.8203L14.6387-11.7871L3.04688-0.898438Q2.30469-0.214844 2.25098 0.498047Q2.19727 1.21094 2.8418 1.86523ZM9.25781-16.3281Q8.94531-16.0254 8.90625-15.6348Q8.86719-15.2441 9.04297-14.9512Q9.21875-14.6777 9.55566-14.541Q9.89258-14.4043 10.3809-14.5215Q11.4746-14.7754 12.5977-14.7314Q13.7207-14.6875 14.7949-13.9844L14.209-12.5293Q13.9551-11.9043 14.0674-11.4404Q14.1797-10.9766 14.5801-10.5664L16.875-8.25195Q17.2363-7.88086 17.5781-7.82227Q17.9199-7.76367 18.3398-7.8418L19.4043-8.03711L20.0684-7.36328L20.0293-6.80664Q20-6.43555 20.1221-6.12305Q20.2441-5.81055 20.6055-5.44922L21.3672-4.70703Q21.7285-4.3457 22.1533-4.33105Q22.5781-4.31641 22.9297-4.66797L25.8398-7.58789Q26.1914-7.93945 26.1816-8.35449Q26.1719-8.76953 25.8105-9.13086L25.0391-9.89258Q24.6875-10.2539 24.3799-10.3857Q24.0723-10.5176 23.7109-10.4883L23.1348-10.4395L22.4902-11.0742L22.7344-12.1973Q22.832-12.6172 22.6953-12.9834Q22.5586-13.3496 22.1191-13.7891L19.9219-15.9766Q18.6719-17.2168 17.2607-17.8369Q15.8496-18.457 14.4189-18.4814Q12.9883-18.5059 11.665-17.959Q10.3418-17.4121 9.25781-16.3281ZM10.752-15.957Q11.6602-16.6211 12.7002-16.9043Q13.7402-17.1875 14.8047-17.085Q15.8691-16.9824 16.8701-16.5137Q17.8711-16.0449 18.7012-15.2051L21.1328-12.793Q21.3086-12.6172 21.3525-12.4512Q21.3965-12.2852 21.3379-12.0312L21.0156-10.5469L22.5195-9.0625L23.5059-9.12109Q23.6914-9.13086 23.7891-9.09668Q23.8867-9.0625 24.0332-8.91602L24.6094-8.33984L22.168-5.89844L21.5918-6.47461Q21.4453-6.62109 21.4062-6.71875Q21.3672-6.81641 21.377-7.01172L21.4453-7.98828L19.9512-9.47266L18.4277-9.21875Q18.1836-9.16992 18.042-9.2041Q17.9004-9.23828 17.7148-9.41406L15.7129-11.416Q15.5176-11.5918 15.4932-11.7529Q15.4688-11.9141 15.5859-12.1875L16.4648-14.2773Q15.293-15.3711 13.8281-15.791Q12.3633-16.2109 10.8398-15.7617Q10.7227-15.7324 10.6885-15.8057Q10.6543-15.8789 10.752-15.957Z"/>
  </g>
  <text style="stroke:none;fill:black;font-family:sans-serif;font-size:13;font-weight:bold;" transform="matrix(1 0 0 1 1289 1953)">Exporting</text>
  <text style="stroke:none;fill:black;font-family:sans-serif;font-size:13;" transform="matrix(1 0 0 1 1289 1971)">Symbols should be outlined when exporting to ensure the</text>
  <text style="stroke:none;fill:black;font-family:sans-serif;font-size:13;" transform="matrix(1 0 0 1 1289 1989)">design is preserved when submitting to Xcode.</text>
  <text id="template-version" style="stroke:none;fill:black;font-family:sans-serif;font-size:13;text-anchor:end;" transform="matrix(1 0 0 1 3036 1933)">Template v.3.0</text>
  <text style="stroke:none;fill:black;font-family:sans-serif;font-size:13;text-anchor:end;" transform="matrix(1 0 0 1 3036 1951)">Requires Xcode 13 or greater</text>
  <text id="descriptive-name" style="stroke:none;fill:black;font-family:sans-serif;font-size:13;text-anchor:end;" transform="matrix(1 0 0 1 3036 1969)">Generated from face.smiling.fill</text>
  <text style="stroke:none;fill:black;font-family:sans-serif;font-size:13;text-anchor:end;" transform="matrix(1 0 0 1 3036 1987)">Typeset at 100 points</text>
  <text style="stroke:none;fill:black;font-family:sans-serif;font-size:13;" transform="matrix(1 0 0 1 263 726)">Small</text>
  <text style="stroke:none;fill:black;font-family:sans-serif;font-size:13;" transform="matrix(1 0 0 1 263 1156)">Medium</text>
  <text style="stroke:none;fill:black;font-family:sans-serif;font-size:13;" transform="matrix(1 0 0 1 263 1586)">Large</text>
 </g>
 <g id="Guides">
  <g id="H-reference" style="fill:#27AAE1;stroke:none;" transform="matrix(1 0 0 1 339 696)">
   <path d="M0.976562 0L3.66211 0L29.3457-67.1387L30.0293-67.1387L30.0293-70.459L28.125-70.459ZM11.6699-24.4629L46.9727-24.4629L46.2402-26.709L12.4512-26.709ZM55.127 0L57.7637 0L30.6152-70.459L29.4434-70.459L29.4434-67.1387Z"/>
  </g>
  <line id="Baseline-S" style="fill:none;stroke:#27AAE1;opacity:1;stroke-width:0.5;" x1="263" x2="3036" y1="696" y2="696"/>
  <line id="Capline-S" style="fill:none;stroke:#27AAE1;opacity:1;stroke-width:0.5;" x1="263" x2="3036" y1="625.541" y2="625.541"/>
  <g id="H-reference" style="fill:#27AAE1;stroke:none;" transform="matrix(1 0 0 1 339 1126)">
   <path d="M0.976562 0L3.66211 0L29.3457-67.1387L30.0293-67.1387L30.0293-70.459L28.125-70.459ZM11.6699-24.4629L46.9727-24.4629L46.2402-26.709L12.4512-26.709ZM55.127 0L57.7637 0L30.6152-70.459L29.4434-70.459L29.4434-67.1387Z"/>
  </g>
  <line id="Baseline-M" style="fill:none;stroke:#27AAE1;opacity:1;stroke-width:0.5;" x1="263" x2="3036" y1="1126" y2="1126"/>
  <line id="Capline-M" style="fill:none;stroke:#27AAE1;opacity:1;stroke-width:0.5;" x1="263" x2="3036" y1="1055.54" y2="1055.54"/>
  <g id="H-reference" style="fill:#27AAE1;stroke:none;" transform="matrix(1 0 0 1 339 1556)">
   <path d="M0.976562 0L3.66211 0L29.3457-67.1387L30.0293-67.1387L30.0293-70.459L28.125-70.459ZM11.6699-24.4629L46.9727-24.4629L46.2402-26.709L12.4512-26.709ZM55.127 0L57.7637 0L30.6152-70.459L29.4434-70.459L29.4434-67.1387Z"/>
  </g>
  <line id="Baseline-L" style="fill:none;stroke:#27AAE1;opacity:1;stroke-width:0.5;" x1="263" x2="3036" y1="1556" y2="1556"/>
  <line id="Capline-L" style="fill:none;stroke:#27AAE1;opacity:1;stroke-width:0.5;" x1="263" x2="3036" y1="1485.54" y2="1485.54"/>
  <line id="left-margin-Ultralight-S" style="fill:none;stroke:#00AEEF;stroke-width:0.5;opacity:1.0;" x1="515.644" x2="515.644" y1="600.785" y2="720.121"/>
  <line id="right-margin-Ultralight-S" style="fill:none;stroke:#00AEEF;stroke-width:0.5;opacity:1.0;" x1="603.778" x2="603.778" y1="600.785" y2="720.121"/>
  <line id="left-margin-Thin-S" style="fill:none;stroke:#00AEEF;stroke-width:0.5;opacity:1.0;" x1="811.867" x2="811.867" y1="600.785" y2="720.121"/>
  <line id="right-margin-Thin-S" style="fill:none;stroke:#00AEEF;stroke-width:0.5;opacity:1.0;" x1="900.978" x2="900.978" y1="600.785" y2="720.121"/>
  <line id="left-margin-Light-S" style="fill:none;stroke:#00AEEF;stroke-width:0.5;opacity:1.0;" x1="1107.6" x2="1107.6" y1="600.785" y2="720.121"/>
  <line id="right-margin-Light-S" style="fill:none;stroke:#00AEEF;stroke-width:0.5;opacity:1.0;" x1="1198.67" x2="1198.67" y1="600.785" y2="720.121"/>
  <line id="left-margin-Regular-S" style="fill:none;stroke:#00AEEF;stroke-width:0.5;opacity:1.0;" x1="1403.58" x2="1403.58" y1="600.785" y2="720.121"/>
  <line id="right-margin-Regular-S" style="fill:none;stroke:#00AEEF;stroke-width:0.5;opacity:1.0;" x1="1496.11" x2="1496.11" y1="600.785" y2="720.121"/>
  <line id="left-margin-Medium-S" style="fill:none;stroke:#00AEEF;stroke-width:0.5;opacity:1.0;" x1="1699.83" x2="1699.83" y1="600.785" y2="720.121"/>
  <line id="right-margin-Medium-S" style="fill:none;stroke:#00AEEF;stroke-width:0.5;opacity:1.0;" x1="1793.28" x2="1793.28" y1="600.785" y2="720.121"/>
  <line id="left-margin-Semibold-S" style="fill:none;stroke:#00AEEF;stroke-width:0.5;opacity:1.0;" x1="1996.2" x2="1996.2" y1="600.785" y2="720.121"/>
  <line id="right-margin-Semibold-S" style="fill:none;stroke:#00AEEF;stroke-width:0.5;opacity:1.0;" x1="2090.34" x2="2090.34" y1="600.785" y2="720.121"/>
  <line id="left-margin-Bold-S" style="fill:none;stroke:#00AEEF;stroke-width:0.5;opacity:1.0;" x1="2292.42" x2="2292.42" y1="600.785" y2="720.121"/>
  <line id="right-margin-Bold-S" style="fill:none;stroke:#00AEEF;stroke-width:0.5;opacity:1.0;" x1="2387.54" x2="2387.54" y1="600.785" y2="720.121"/>
  <line id="left-margin-Heavy-S" style="fill:none;stroke:#00AEEF;stroke-width:0.5;opacity:1.0;" x1="2588.47" x2="2588.47" y1="600.785" y2="720.121"/>
  <line id="right-margin-Heavy-S" style="fill:none;stroke:#00AEEF;stroke-width:0.5;opacity:1.0;" x1="2684.91" x2="2684.91" y1="600.785" y2="720.121"/>
  <line id="left-margin-Black-S" style="fill:none;stroke:#00AEEF;stroke-width:0.5;opacity:1.0;" x1="2884.57" x2="2884.57" y1="600.785" y2="720.121"/>
  <line id="right-margin-Black-S" style="fill:none;stroke:#00AEEF;stroke-width:0.5;opacity:1.0;" x1="2982.23" x2="2982.23" y1="600.785" y2="720.121"/>
  <line id="left-margin-Ultralight-M" style="fill:none;stroke:#00AEEF;stroke-width:0.5;opacity:1.0;" x1="503.632" x2="503.632" y1="1030.79" y2="1150.12"/>
  <line id="right-margin-Ultralight-M" style="fill:none;stroke:#00AEEF;stroke-width:0.5;opacity:1.0;" x1="615.79" x2="615.79" y1="1030.79" y2="1150.12"/>
  <line id="left-margin-Thin-M" style="fill:none;stroke:#00AEEF;stroke-width:0.5;opacity:1.0;" x1="799.782" x2="799.782" y1="1030.79" y2="1150.12"/>
  <line id="right-margin-Thin-M" style="fill:none;stroke:#00AEEF;stroke-width:0.5;opacity:1.0;" x1="913.063" x2="913.063" y1="1030.79" y2="1150.12"/>
  <line id="left-margin-Light-M" style="fill:none;stroke:#00AEEF;stroke-width:0.5;opacity:1.0;" x1="1095.42" x2="1095.42" y1="1030.79" y2="1150.12"/>
  <line id="right-margin-Light-M" style="fill:none;stroke:#00AEEF;stroke-width:0.5;opacity:1.0;" x1="1210.85" x2="1210.85" y1="1030.79" y2="1150.12"/>
  <line id="left-margin-Regular-M" style="fill:none;stroke:#00AEEF;stroke-width:0.5;opacity:1.0;" x1="1391.3" x2="1391.3" y1="1030.79" y2="1150.12"/>
  <line id="right-margin-Regular-M" style="fill:none;stroke:#00AEEF;stroke-width:0.5;opacity:1.0;" x1="1508.39" x2="1508.39" y1="1030.79" y2="1150.12"/>
  <line id="left-margin-Medium-M" style="fill:none;stroke:#00AEEF;stroke-width:0.5;opacity:1.0;" x1="1687.38" x2="1687.38" y1="1030.79" y2="1150.12"/>
  <line id="right-margin-Medium-M" style="fill:none;stroke:#00AEEF;stroke-width:0.5;opacity:1.0;" x1="1805.74" x2="1805.74" y1="1030.79" y2="1150.12"/>
  <line id="left-margin-Semibold-M" style="fill:none;stroke:#00AEEF;stroke-width:0.5;opacity:1.0;" x1="1983.6" x2="1983.6" y1="1030.79" y2="1150.12"/>
  <line id="right-margin-Semibold-M" style="fill:none;stroke:#00AEEF;stroke-width:0.5;opacity:1.0;" x1="2102.93" x2="2102.93" y1="1030.79" y2="1150.12"/>
  <line id="left-margin-Bold-M" style="fill:none;stroke:#00AEEF;stroke-width:0.5;opacity:1.0;" x1="2279.65" x2="2279.65" y1="1030.79" y2="1150.12"/>
  <line id="right-margin-Bold-M" style="fill:none;stroke:#00AEEF;stroke-width:0.5;opacity:1.0;" x1="2400.3" x2="2400.3" y1="1030.79" y2="1150.12"/>
  <line id="left-margin-Heavy-M" style="fill:none;stroke:#00AEEF;stroke-width:0.5;opacity:1.0;" x1="2575.43" x2="2575.43" y1="1030.79" y2="1150.12"/>
  <line id="right-margin-Heavy-M" style="fill:none;stroke:#00AEEF;stroke-width:0.5;opacity:1.0;" x1="2697.94" x2="2697.94" y1="1030.79" y2="1150.12"/>
  <line id="left-margin-Black-M" style="fill:none;stroke:#00AEEF;stroke-width:0.5;opacity:1.0;" x1="2871.32" x2="2871.32" y1="1030.79" y2="1150.12"/>
  <line id="right-margin-Black-M" style="fill:none;stroke:#00AEEF;stroke-width:0.5;opacity:1.0;" x1="2995.48" x2="2995.48" y1="1030.79" y2="1150.12"/>
  <line id="left-margin-Ultralight-L" style="fill:none;stroke:#00AEEF;stroke-width:0.5;opacity:1.0;" x1="487.592" x2="487.592" y1="1460.79" y2="1580.12"/>
  <line id="right-margin-Ultralight-L" style="fill:none;stroke:#00AEEF;stroke-width:0.5;opacity:1.0;" x1="631.83" x2="631.83" y1="1460.79" y2="1580.12"/>
  <line id="left-margin-Thin-L" style="fill:none;stroke:#00AEEF;stroke-width:0.5;opacity:1.0;" x1="783.693" x2="783.693" y1="1460.79" y2="1580.12"/>
  <line id="right-margin-Thin-L" style="fill:none;stroke:#00AEEF;stroke-width:0.5;opacity:1.0;" x1="929.152" x2="929.152" y1="1460.79" y2="1580.12"/>
  <line id="left-margin-Light-L" style="fill:none;stroke:#00AEEF;stroke-width:0.5;opacity:1.0;" x1="1079.18" x2="1079.18" y1="1460.79" y2="1580.12"/>
  <line id="right-margin-Light-L" style="fill:none;stroke:#00AEEF;stroke-width:0.5;opacity:1.0;" x1="1227.08" x2="1227.08" y1="1460.79" y2="1580.12"/>
  <line id="left-margin-Regular-L" style="fill:none;stroke:#00AEEF;stroke-width:0.5;opacity:1.0;" x1="1374.97" x2="1374.97" y1="1460.79" y2="1580.12"/>
  <line id="right-margin-Regular-L" style="fill:none;stroke:#00AEEF;stroke-width:0.5;opacity:1.0;" x1="1524.72" x2="1524.72" y1="1460.79" y2="1580.12"/>
  <line id="left-margin-Medium-L" style="fill:none;stroke:#00AEEF;stroke-width:0.5;opacity:1.0;" x1="1670.87" x2="1670.87" y1="1460.79" y2="1580.12"/>
  <line id="right-margin-Medium-L" style="fill:none;stroke:#00AEEF;stroke-width:0.5;opacity:1.0;" x1="1822.24" x2="1822.24" y1="1460.79" y2="1580.12"/>
  <line id="left-margin-Semibold-L" style="fill:none;stroke:#00AEEF;stroke-width:0.5;opacity:1.0;" x1="1966.97" x2="1966.97" y1="1460.79" y2="1580.12"/>
  <line id="right-margin-Semibold-L" style="fill:none;stroke:#00AEEF;stroke-width:0.5;opacity:1.0;" x1="2119.56" x2="2119.56" y1="1460.79" y2="1580.12"/>
  <line id="left-margin-Bold-L" style="fill:none;stroke:#00AEEF;stroke-width:0.5;opacity:1.0;" x1="2262.85" x2="2262.85" y1="1460.79" y2="1580.12"/>
  <line id="right-margin-Bold-L" style="fill:none;stroke:#00AEEF;stroke-width:0.5;opacity:1.0;" x1="2417.1" x2="2417.1" y1="1460.79" y2="1580.12"/>
  <line id="left-margin-Heavy-L" style="fill:none;stroke:#00AEEF;stroke-width:0.5;opacity:1.0;" x1="2558.39" x2="2558.39" y1="1460.79" y2="1580.12"/>
  <line id="right-margin-Heavy-L" style="fill:none;stroke:#00AEEF;stroke-width:0.5;opacity:1.0;" x1="2714.98" x2="2714.98" y1="1460.79" y2="1580.12"/>
  <line id="left-margin-Black-L" style="fill:none;stroke:#00AEEF;stroke-width:0.5;opacity:1.0;" x1="2854.05" x2="2854.05" y1="1460.79" y2="1580.12"/>
  <line id="right-margin-Black-L" style="fill:none;stroke:#00AEEF;stroke-width:0.5;opacity:1.0;" x1="3012.75" x2="3012.75" y1="1460.79" y2="1580.12"/>
 </g>
 <g id="Symbols">
  <g id="Black-L" transform="matrix(1 0 0 1 2854.05 1556)">
   <path class="hierarchical-0:tertiary SFSymbolsPreview8E8E8E" d="M79.3457 32.8613Q90.5762 32.8613 100.757 29.3945Q110.938 25.9277 119.458 19.6777Q127.979 13.4277 134.229 4.90723Q140.479-3.61328 143.945-13.7939Q147.412-23.9746 147.412-35.2051Q147.412-46.4355 143.945-56.6162Q140.479-66.7969 134.204-75.3174Q127.93-83.8379 119.434-90.1123Q110.938-96.3867 100.732-99.8291Q90.5273-103.271 79.2969-103.271Q68.1152-103.271 57.9102-99.8291Q47.7051-96.3867 39.209-90.1123Q30.7129-83.8379 24.4385-75.3174Q18.1641-66.7969 14.7217-56.6162Q11.2793-46.4355 11.2793-35.2051Q11.2793-23.9746 14.7217-13.7939Q18.1641-3.61328 24.4385 4.90723Q30.7129 13.4277 39.2334 19.6777Q47.7539 25.9277 57.9346 29.3945Q68.1152 32.8613 79.3457 32.8613Z"/>
   <path class="hierarchical-1:primary SFSymbolsPreview212121" d="M79.3945-4.24805Q73.9746-4.24805 69.5312-5.76172Q65.0879-7.27539 61.9141-9.57031Q58.7402-11.8652 57.0312-14.2578Q55.3223-16.6504 55.3223-18.4082Q55.3223-19.7754 56.4697-20.3369Q57.6172-20.8984 58.9355-20.3125Q62.6953-18.5059 67.3584-16.7725Q72.0215-15.0391 79.3945-15.0391Q84.2773-15.0391 87.915-15.8936Q91.5527-16.748 94.3848-17.9688Q97.2168-19.1895 99.8047-20.3125Q101.172-20.8496 102.295-20.3125Q103.418-19.7754 103.418-18.4082Q103.418-16.6504 101.709-14.2578Q100-11.8652 96.8262-9.57031Q93.6523-7.27539 89.2334-5.76172Q84.8145-4.24805 79.3945-4.24805ZM98.877-41.748Q95.7031-41.748 93.4326-44.2627Q91.1621-46.7773 91.1621-50.6348Q91.1621-54.5898 93.4326-57.1289Q95.7031-59.668 98.877-59.668Q101.953-59.668 104.321-57.1289Q106.689-54.5898 106.689-50.6348Q106.689-46.7773 104.321-44.2627Q101.953-41.748 98.877-41.748ZM59.8633-41.748Q56.7383-41.748 54.4678-44.2627Q52.1973-46.7773 52.1973-50.6348Q52.1973-54.5898 54.4678-57.1289Q56.7383-59.668 59.8633-59.668Q62.9395-59.668 65.3076-57.1289Q67.6758-54.5898 67.6758-50.6348Q67.6758-46.7773 65.3076-44.2627Q62.9395-41.748 59.8633-41.748Z"/>
  </g>
  <g id="Heavy-L" transform="matrix(1 0 0 1 2558.39 1556)">
   <path class="hierarchical-0:tertiary SFSymbolsPreview8E8E8E" d="M78.2715 31.7871Q89.3555 31.7871 99.3652 28.3691Q109.375 24.9512 117.749 18.7988Q126.123 12.6465 132.3 4.24805Q138.477-4.15039 141.895-14.1602Q145.312-24.1699 145.312-35.2051Q145.312-46.2402 141.895-56.2744Q138.477-66.3086 132.3-74.6826Q126.123-83.0566 117.749-89.2578Q109.375-95.459 99.3408-98.8525Q89.3066-102.246 78.2227-102.246Q67.2363-102.246 57.2021-98.8525Q47.168-95.459 38.7939-89.2578Q30.4199-83.0566 24.2432-74.6826Q18.0664-66.3086 14.6729-56.2744Q11.2793-46.2402 11.2793-35.2051Q11.2793-24.1699 14.6729-14.1602Q18.0664-4.15039 24.2432 4.24805Q30.4199 12.6465 38.8184 18.7988Q47.2168 24.9512 57.2266 28.3691Q67.2363 31.7871 78.2715 31.7871Z"/>
   <path class="hierarchical-1:primary SFSymbolsPreview212121" d="M78.3203-4.05273Q72.998-4.05273 68.6279-5.54199Q64.2578-7.03125 61.1572-9.27734Q58.0566-11.5234 56.3721-13.8672Q54.6875-16.2109 54.6875-17.9199Q54.6875-19.2383 55.7617-19.751Q56.8359-20.2637 58.0566-19.7266Q61.7188-17.8711 66.3574-16.0889Q70.9961-14.3066 78.3203-14.3066Q83.1543-14.3066 86.7676-15.1855Q90.3809-16.0645 93.2129-17.3096Q96.0449-18.5547 98.5352-19.7266Q99.7559-20.2148 100.83-19.7266Q101.904-19.2383 101.904-17.9199Q101.904-16.2109 100.22-13.8672Q98.5352-11.5234 95.4102-9.27734Q92.2852-7.03125 87.9395-5.54199Q83.5938-4.05273 78.3203-4.05273ZM97.7051-41.6504Q94.6289-41.6504 92.3584-44.1406Q90.0879-46.6309 90.0879-50.4395Q90.0879-54.3457 92.334-56.8604Q94.5801-59.375 97.7051-59.375Q100.781-59.375 103.101-56.8604Q105.42-54.3457 105.42-50.4395Q105.42-46.6309 103.101-44.1406Q100.781-41.6504 97.7051-41.6504ZM58.8379-41.6504Q55.7617-41.6504 53.5156-44.1406Q51.2695-46.6309 51.2695-50.4395Q51.2695-54.3457 53.5156-56.8604Q55.7617-59.375 58.8379-59.375Q61.9141-59.375 64.2334-56.8604Q66.5527-54.3457 66.5527-50.4395Q66.5527-46.6309 64.2334-44.1406Q61.9141-41.6504 58.8379-41.6504Z"/>
  </g>
  <g id="Bold-L" transform="matrix(1 0 0 1 2262.85 1556)">
   <path class="hierarchical-0:tertiary SFSymbolsPreview8E8E8E" d="M77.0996 30.6152Q87.9395 30.6152 97.7783 27.2461Q107.617 23.877 115.869 17.8223Q124.121 11.7676 130.176 3.51562Q136.23-4.73633 139.6-14.5752Q142.969-24.4141 142.969-35.2539Q142.969-46.0938 139.6-55.9326Q136.23-65.7715 130.151-73.999Q124.072-82.2266 115.845-88.3057Q107.617-94.3848 97.7539-97.7295Q87.8906-101.074 77.0508-101.074Q66.2598-101.074 56.3965-97.7295Q46.5332-94.3848 38.3301-88.3057Q30.127-82.2266 24.0479-73.999Q17.9688-65.7715 14.624-55.9326Q11.2793-46.0938 11.2793-35.2539Q11.2793-24.4141 14.624-14.5752Q17.9688-4.73633 24.0479 3.51562Q30.127 11.7676 38.3545 17.8223Q46.582 23.877 56.4209 27.2461Q66.2598 30.6152 77.0996 30.6152Z"/>
   <path class="hierarchical-1:primary SFSymbolsPreview212121" d="M77.1484-3.80859Q71.9727-3.80859 67.7002-5.27344Q63.4277-6.73828 60.376-8.95996Q57.3242-11.1816 55.6641-13.4766Q54.0039-15.7715 54.0039-17.4316Q54.0039-18.6035 55.0049-19.0918Q56.0059-19.5801 57.0801-19.043Q60.6445-17.1387 65.3076-15.332Q69.9707-13.5254 77.1484-13.5254Q81.9336-13.5254 85.5469-14.4043Q89.1602-15.2832 91.9678-16.5527Q94.7754-17.8223 97.168-19.043Q98.291-19.5312 99.2676-19.0674Q100.244-18.6035 100.244-17.4316Q100.244-15.7715 98.584-13.4766Q96.9238-11.1816 93.8721-8.95996Q90.8203-6.73828 86.5723-5.27344Q82.3242-3.80859 77.1484-3.80859ZM96.4844-41.5039Q93.457-41.5039 91.2109-43.9697Q88.9648-46.4355 88.9648-50.2441Q88.9648-54.1016 91.1865-56.5918Q93.4082-59.082 96.4844-59.082Q99.5117-59.082 101.807-56.5918Q104.102-54.1016 104.102-50.2441Q104.102-46.4355 101.807-43.9697Q99.5117-41.5039 96.4844-41.5039ZM57.7637-41.5039Q54.7363-41.5039 52.5146-43.9697Q50.293-46.4355 50.293-50.2441Q50.293-54.1016 52.5146-56.5918Q54.7363-59.082 57.7637-59.082Q60.791-59.082 63.0859-56.5918Q65.3809-54.1016 65.3809-50.2441Q65.3809-46.4355 63.0859-43.9697Q60.791-41.5039 57.7637-41.5039Z"/>
  </g>
  <g id="Semibold-L" transform="matrix(1 0 0 1 1966.97 1556)">
   <path class="hierarchical-0:tertiary SFSymbolsPreview8E8E8E" d="M76.2695 29.7852Q86.9629 29.7852 96.6797 26.4648Q106.396 23.1445 114.551 17.1631Q122.705 11.1816 128.687 3.02734Q134.668-5.12695 137.988-14.8438Q141.309-24.5605 141.309-35.2539Q141.309-45.9473 137.988-55.6641Q134.668-65.3809 128.662-73.5107Q122.656-81.6406 114.526-87.6465Q106.396-93.6523 96.6553-96.9727Q86.9141-100.293 76.2207-100.293Q65.5273-100.293 55.8105-96.9727Q46.0938-93.6523 37.9883-87.6465Q29.8828-81.6406 23.877-73.5107Q17.8711-65.3809 14.5752-55.6641Q11.2793-45.9473 11.2793-35.2539Q11.2793-24.5605 14.5996-14.8438Q17.9199-5.12695 23.9014 3.02734Q29.8828 11.1816 38.0127 17.1631Q46.1426 23.1445 55.8594 26.4648Q65.5762 29.7852 76.2695 29.7852Z"/>
   <path class="hierarchical-1:primary SFSymbolsPreview212121" d="M76.2695-3.66211Q71.1914-3.66211 66.9922-5.10254Q62.793-6.54297 59.79-8.71582Q56.7871-10.8887 55.1514-13.1592Q53.5156-15.4297 53.5156-17.041Q53.5156-18.1641 54.4434-18.6035Q55.3711-19.043 56.3965-18.6035Q59.8633-16.6016 64.5264-14.7949Q69.1895-12.9883 76.2695-12.9883Q81.0547-12.9883 84.6436-13.8428Q88.2324-14.6973 91.04-15.9912Q93.8477-17.2852 96.1914-18.6035Q97.2168-19.043 98.1201-18.6035Q99.0234-18.1641 99.0234-17.041Q99.0234-15.4297 97.4121-13.1592Q95.8008-10.8887 92.7734-8.71582Q89.7461-6.54297 85.5713-5.10254Q81.3965-3.66211 76.2695-3.66211ZM95.5566-41.4062Q92.5781-41.4062 90.3564-43.8477Q88.1348-46.2891 88.1348-50.0488Q88.1348-53.9062 90.3564-56.3721Q92.5781-58.8379 95.5566-58.8379Q98.584-58.8379 100.854-56.3721Q103.125-53.9062 103.125-50.0488Q103.125-46.2891 100.854-43.8477Q98.584-41.4062 95.5566-41.4062ZM56.9824-41.4062Q54.0039-41.4062 51.8066-43.8477Q49.6094-46.2891 49.6094-50.0488Q49.6094-53.9062 51.8066-56.3721Q54.0039-58.8379 56.9824-58.8379Q60.0098-58.8379 62.2803-56.3721Q64.5508-53.9062 64.5508-50.0488Q64.5508-46.2891 62.2559-43.8477Q59.9609-41.4062 56.9824-41.4062Z"/>
  </g>
  <g id="Medium-L" transform="matrix(1 0 0 1 1670.87 1556)">
   <path class="hierarchical-0:tertiary SFSymbolsPreview8E8E8E" d="M75.6836 29.1504Q86.2305 29.1504 95.8496 25.8545Q105.469 22.5586 113.55 16.626Q121.631 10.6934 127.563 2.63672Q133.496-5.41992 136.792-15.0635Q140.088-24.707 140.088-35.2539Q140.088-45.8496 136.792-55.4688Q133.496-65.0879 127.539-73.1445Q121.582-81.2012 113.525-87.1582Q105.469-93.1152 95.8252-96.3867Q86.1816-99.6582 75.6348-99.6582Q65.0391-99.6582 55.4199-96.3867Q45.8008-93.1152 37.7441-87.1582Q29.6875-81.2012 23.7549-73.1445Q17.8223-65.0879 14.5508-55.4688Q11.2793-45.8496 11.2793-35.2539Q11.2793-24.707 14.5508-15.0635Q17.8223-5.41992 23.7549 2.63672Q29.6875 10.6934 37.7686 16.626Q45.8496 22.5586 55.4688 25.8545Q65.0879 29.1504 75.6836 29.1504Z"/>
   <path class="hierarchical-1:primary SFSymbolsPreview212121" d="M75.6836-3.51562Q70.6543-3.51562 66.5283-4.95605Q62.4023-6.39648 59.4238-8.54492Q56.4453-10.6934 54.8096-12.9395Q53.1738-15.1855 53.1738-16.748Q53.1738-17.8711 54.0527-18.2861Q54.9316-18.7012 55.9082-18.2129Q59.375-16.2109 64.0137-14.3799Q68.6523-12.5488 75.6836-12.5488Q80.4199-12.5488 84.0088-13.4277Q87.5977-14.3066 90.4053-15.6006Q93.2129-16.8945 95.5078-18.2129Q96.4355-18.7012 97.3145-18.2861Q98.1934-17.8711 98.1934-16.748Q98.1934-15.1855 96.582-12.9395Q94.9707-10.6934 91.9678-8.54492Q88.9648-6.39648 84.8633-4.95605Q80.7617-3.51562 75.6836-3.51562ZM94.9219-41.3574Q91.9922-41.3574 89.7949-43.7988Q87.5977-46.2402 87.5977-49.9512Q87.5977-53.7598 89.7705-56.2012Q91.9434-58.6426 94.9219-58.6426Q97.9492-58.6426 100.195-56.2012Q102.441-53.7598 102.441-49.9512Q102.441-46.2402 100.195-43.7988Q97.9492-41.3574 94.9219-41.3574ZM56.4453-41.3574Q53.4668-41.3574 51.2695-43.7988Q49.0723-46.2402 49.0723-49.9512Q49.0723-53.7598 51.2695-56.2012Q53.4668-58.6426 56.4453-58.6426Q59.4238-58.6426 61.6699-56.2012Q63.916-53.7598 63.916-49.9512Q63.916-46.2402 61.6455-43.7988Q59.375-41.3574 56.4453-41.3574Z"/>
  </g>
  <g id="Regular-L" transform="matrix(1 0 0 1 1374.97 1556)">
   <path class="hierarchical-0:tertiary SFSymbolsPreview8E8E8E" d="M74.8535 28.3203Q85.3027 28.3203 94.7998 25.0732Q104.297 21.8262 112.256 15.9668Q120.215 10.1074 126.099 2.14844Q131.982-5.81055 135.229-15.332Q138.477-24.8535 138.477-35.2539Q138.477-45.7031 135.229-55.2002Q131.982-64.6973 126.099-72.6562Q120.215-80.6152 112.256-86.499Q104.297-92.3828 94.7754-95.6299Q85.2539-98.877 74.8047-98.877Q64.3555-98.877 54.8584-95.6299Q45.3613-92.3828 37.4268-86.499Q29.4922-80.6152 23.6084-72.6562Q17.7246-64.6973 14.502-55.2002Q11.2793-45.7031 11.2793-35.2539Q11.2793-24.8535 14.5264-15.332Q17.7734-5.81055 23.6328 2.14844Q29.4922 10.1074 37.4512 15.9668Q45.4102 21.8262 54.9072 25.0732Q64.4043 28.3203 74.8535 28.3203Z"/>
   <path class="hierarchical-1:primary SFSymbolsPreview212121" d="M74.8535-3.36914Q69.9219-3.36914 65.8447-4.78516Q61.7676-6.20117 58.8379-8.3252Q55.9082-10.4492 54.2969-12.6465Q52.6855-14.8438 52.6855-16.4062Q52.6855-17.4316 53.5156-17.8223Q54.3457-18.2129 55.2246-17.7734Q58.5938-15.7227 63.2324-13.8672Q67.8711-12.0117 74.8535-12.0117Q79.541-12.0117 83.1299-12.8906Q86.7188-13.7695 89.502-15.0879Q92.2852-16.4062 94.5312-17.7734Q95.3613-18.2129 96.1914-17.8223Q97.0215-17.4316 97.0215-16.4062Q97.0215-14.8438 95.4346-12.6465Q93.8477-10.4492 90.8936-8.3252Q87.9395-6.20117 83.8867-4.78516Q79.834-3.36914 74.8535-3.36914ZM94.043-41.2598Q91.1621-41.2598 88.9648-43.6768Q86.7676-46.0938 86.7676-49.8047Q86.7676-53.5645 88.9404-56.0059Q91.1133-58.4473 94.043-58.4473Q97.0215-58.4473 99.2432-56.0059Q101.465-53.5645 101.465-49.8047Q101.465-46.0938 99.2432-43.6768Q97.0215-41.2598 94.043-41.2598ZM55.6641-41.2598Q52.7344-41.2598 50.5615-43.6768Q48.3887-46.0938 48.3887-49.8047Q48.3887-53.5645 50.5615-56.0059Q52.7344-58.4473 55.6641-58.4473Q58.6426-58.4473 60.8643-56.0059Q63.0859-53.5645 63.0859-49.8047Q63.0859-46.0938 60.8398-43.6768Q58.5938-41.2598 55.6641-41.2598Z"/>
  </g>
  <g id="Light-L" transform="matrix(1 0 0 1 1079.18 1556)">
   <path class="hierarchical-0:tertiary SFSymbolsPreview8E8E8E" d="M73.9258 27.3926Q84.2285 27.3926 93.6035 24.1943Q102.979 20.9961 110.815 15.2344Q118.652 9.47266 124.438 1.63574Q130.225-6.20117 133.423-15.5762Q136.621-24.9512 136.621-35.2539Q136.621-45.5566 133.423-54.9316Q130.225-64.3066 124.438-72.1436Q118.652-79.9805 110.815-85.7666Q102.979-91.5527 93.6035-94.751Q84.2285-97.9492 73.877-97.9492Q63.5742-97.9492 54.2236-94.751Q44.873-91.5527 37.0361-85.7666Q29.1992-79.9805 23.4131-72.1436Q17.627-64.3066 14.4531-54.9316Q11.2793-45.5566 11.2793-35.2539Q11.2793-24.9512 14.4775-15.5762Q17.6758-6.20117 23.4375 1.63574Q29.1992 9.47266 37.0361 15.2344Q44.873 20.9961 54.248 24.1943Q63.623 27.3926 73.9258 27.3926Z"/>
   <path class="hierarchical-1:primary SFSymbolsPreview212121" d="M73.877-4.10156Q69.1406-4.10156 65.21-5.46875Q61.2793-6.83594 58.4473-8.91113Q55.6152-10.9863 54.0527-13.1104Q52.4902-15.2344 52.4902-16.748Q52.4902-17.5781 53.1494-17.8467Q53.8086-18.1152 54.4922-17.7246Q57.6172-15.4785 62.3291-13.5742Q67.041-11.6699 73.877-11.6699Q78.4668-11.6699 82.1045-12.5488Q85.7422-13.4277 88.5254-14.8193Q91.3086-16.2109 93.3594-17.7246Q93.9941-18.1152 94.6533-17.8467Q95.3125-17.5781 95.3125-16.748Q95.3125-15.2344 93.7744-13.1104Q92.2363-10.9863 89.3799-8.91113Q86.5234-6.83594 82.5928-5.46875Q78.6621-4.10156 73.877-4.10156ZM93.0664-41.3574Q90.3809-41.3574 88.3057-43.6768Q86.2305-45.9961 86.2305-49.4629Q86.2305-52.9297 88.2568-55.2734Q90.2832-57.6172 93.0664-57.6172Q95.8008-57.6172 97.8516-55.2734Q99.9023-52.9297 99.9023-49.4629Q99.9023-45.9961 97.8516-43.6768Q95.8008-41.3574 93.0664-41.3574ZM54.7363-41.3574Q52.0508-41.3574 50.0244-43.6768Q47.998-45.9961 47.998-49.4629Q47.998-52.9297 50-55.2734Q52.002-57.6172 54.7363-57.6172Q57.5195-57.6172 59.5947-55.2734Q61.6699-52.9297 61.6699-49.4629Q61.6699-45.9961 59.5703-43.6768Q57.4707-41.3574 54.7363-41.3574Z"/>
  </g>
  <g id="Thin-L" transform="matrix(1 0 0 1 783.693 1556)">
   <path class="hierarchical-0:tertiary SFSymbolsPreview8E8E8E" d="M72.7051 26.1719Q82.8613 26.1719 92.041 23.0469Q101.221 19.9219 108.911 14.2822Q116.602 8.64258 122.266 0.952148Q127.93-6.73828 131.055-15.9424Q134.18-25.1465 134.18-35.2539Q134.18-45.4102 131.055-54.5898Q127.93-63.7695 122.29-71.46Q116.65-79.1504 108.936-84.8145Q101.221-90.4785 92.0166-93.6035Q82.8125-96.7285 72.7051-96.7285Q62.5488-96.7285 53.3691-93.6035Q44.1895-90.4785 36.499-84.8145Q28.8086-79.1504 23.1689-71.46Q17.5293-63.7695 14.4043-54.5898Q11.2793-45.4102 11.2793-35.2539Q11.2793-25.1465 14.4043-15.9424Q17.5293-6.73828 23.1689 0.952148Q28.8086 8.64258 36.5234 14.2822Q44.2383 19.9219 53.418 23.0469Q62.5977 26.1719 72.7051 26.1719Z"/>
   <path class="hierarchical-1:primary SFSymbolsPreview212121" d="M72.6562-5.0293Q68.1641-5.0293 64.4043-6.37207Q60.6445-7.71484 57.9346-9.7168Q55.2246-11.7188 53.7109-13.7451Q52.1973-15.7715 52.1973-17.1387Q52.1973-17.7246 52.6611-17.8711Q53.125-18.0176 53.5156-17.6758Q56.2988-15.1367 61.1328-13.1836Q65.9668-11.2305 72.6562-11.2305Q77.0996-11.2305 80.7617-12.1338Q84.4238-13.0371 87.207-14.502Q89.9902-15.9668 91.7969-17.6758Q92.1875-18.0176 92.6514-17.8711Q93.1152-17.7246 93.1152-17.1387Q93.1152-15.7715 91.6016-13.7451Q90.0879-11.7188 87.3779-9.7168Q84.668-7.71484 80.9326-6.37207Q77.1973-5.0293 72.6562-5.0293ZM91.748-41.5039Q89.3066-41.5039 87.4268-43.7012Q85.5469-45.8984 85.5469-48.9746Q85.5469-52.0996 87.3779-54.2969Q89.209-56.4941 91.748-56.4941Q94.2383-56.4941 96.0449-54.2969Q97.8516-52.0996 97.8516-48.9746Q97.8516-45.8984 95.9961-43.7012Q94.1406-41.5039 91.748-41.5039ZM53.5645-41.5039Q51.123-41.5039 49.292-43.7012Q47.4609-45.8984 47.4609-48.9746Q47.4609-52.0996 49.2676-54.2969Q51.0742-56.4941 53.5645-56.4941Q56.0547-56.4941 57.9346-54.2969Q59.8145-52.0996 59.8145-48.9746Q59.8145-45.8984 57.9102-43.7012Q56.0059-41.5039 53.5645-41.5039Z"/>
  </g>
  <g id="Ultralight-L" transform="matrix(1 0 0 1 487.592 1556)">
   <path class="hierarchical-0:tertiary SFSymbolsPreview8E8E8E" d="M72.0703 25.5371Q82.1289 25.5371 91.2354 22.4609Q100.342 19.3848 107.935 13.7939Q115.527 8.20312 121.143 0.585938Q126.758-7.03125 129.858-16.1133Q132.959-25.1953 132.959-35.2539Q132.959-45.3125 129.858-54.4189Q126.758-63.5254 121.167-71.1182Q115.576-78.7109 107.959-84.3262Q100.342-89.9414 91.2354-93.0176Q82.1289-96.0938 72.0703-96.0938Q62.0605-96.0938 52.9541-93.0176Q43.8477-89.9414 36.2305-84.3262Q28.6133-78.7109 23.0225-71.1182Q17.4316-63.5254 14.3555-54.4189Q11.2793-45.3125 11.2793-35.2539Q11.2793-25.1953 14.3555-16.1133Q17.4316-7.03125 23.0225 0.585938Q28.6133 8.20312 36.2305 13.7939Q43.8477 19.3848 52.9541 22.4609Q62.0605 25.5371 72.0703 25.5371Z"/>
   <path class="hierarchical-1:primary SFSymbolsPreview212121" d="M72.0215-5.51758Q67.6758-5.51758 64.0137-6.83594Q60.3516-8.1543 57.6904-10.1074Q55.0293-12.0605 53.5645-14.0625Q52.0996-16.0645 52.0996-17.3828Q52.0996-17.8223 52.4658-17.8711Q52.832-17.9199 53.0273-17.627Q55.7129-14.9902 60.5957-13.0127Q65.4785-11.0352 72.0215-11.0352Q76.416-11.0352 80.1025-11.9141Q83.7891-12.793 86.5723-14.3066Q89.3555-15.8203 91.0645-17.627Q91.2598-17.9199 91.626-17.8711Q91.9922-17.8223 91.9922-17.3828Q91.9922-16.0645 90.5273-14.0625Q89.0625-12.0605 86.4014-10.1074Q83.7402-8.1543 80.0781-6.83594Q76.416-5.51758 72.0215-5.51758ZM91.1133-41.6016Q88.8184-41.6016 87.0361-43.7012Q85.2539-45.8008 85.2539-48.7793Q85.2539-51.6602 86.9873-53.7842Q88.7207-55.9082 91.1133-55.9082Q93.457-55.9082 95.1416-53.7842Q96.8262-51.6602 96.8262-48.7793Q96.8262-45.8008 95.0928-43.7012Q93.3594-41.6016 91.1133-41.6016ZM52.9785-41.6016Q50.6836-41.6016 48.9502-43.7012Q47.2168-45.8008 47.2168-48.7793Q47.2168-51.6602 48.9258-53.7842Q50.6348-55.9082 52.9785-55.9082Q55.3223-55.9082 57.1045-53.7842Q58.8867-51.6602 58.8867-48.7793Q58.8867-45.8008 57.0801-43.7012Q55.2734-41.6016 52.9785-41.6016Z"/>
  </g>
  <g id="Black-M" transform="matrix(1 0 0 1 2871.32 1126)">
   <path class="hierarchical-0:tertiary SFSymbolsPreview8E8E8E" d="M62.0605 18.1152Q73.0957 18.1152 82.7637 13.9648Q92.4316 9.81445 99.7559 2.46582Q107.08-4.88281 111.255-14.5264Q115.43-24.1699 115.43-35.2051Q115.43-46.2402 111.255-55.8838Q107.08-65.5273 99.7559-72.876Q92.4316-80.2246 82.7637-84.375Q73.0957-88.5254 62.0605-88.5254Q51.0742-88.5254 41.4062-84.375Q31.7383-80.2246 24.3896-72.876Q17.041-65.5273 12.8906-55.8838Q8.74023-46.2402 8.74023-35.2051Q8.74023-24.1699 12.8906-14.5264Q17.041-4.88281 24.3896 2.46582Q31.7383 9.81445 41.4062 13.9648Q51.0742 18.1152 62.0605 18.1152Z"/>
   <path class="hierarchical-1:primary SFSymbolsPreview212121" d="M62.0605-11.6211Q56.3965-11.6211 52.1729-13.623Q47.9492-15.625 45.6055-18.2373Q43.2617-20.8496 43.2617-22.7051Q43.2617-23.7793 44.165-24.2188Q45.0684-24.6582 46.1426-24.1699Q49.0234-22.7539 52.6611-21.4111Q56.2988-20.0684 62.0605-20.0684Q67.7734-20.0684 71.3623-21.4844Q74.9512-22.9004 77.9785-24.1699Q79.0039-24.6094 79.9072-24.1943Q80.8105-23.7793 80.8105-22.7051Q80.8105-20.8496 78.4668-18.2373Q76.123-15.625 71.8994-13.623Q67.6758-11.6211 62.0605-11.6211ZM77.1484-40.4297Q74.707-40.4297 72.998-42.3584Q71.2891-44.2871 71.2891-47.2168Q71.2891-50.2441 72.998-52.1729Q74.707-54.1016 77.1484-54.1016Q79.541-54.1016 81.3477-52.1729Q83.1543-50.2441 83.1543-47.2168Q83.1543-44.2871 81.3477-42.3584Q79.541-40.4297 77.1484-40.4297ZM46.875-40.4297Q44.4824-40.4297 42.749-42.3584Q41.0156-44.2871 41.0156-47.2168Q41.0156-50.2441 42.749-52.1729Q44.4824-54.1016 46.875-54.1016Q49.2188-54.1016 51.0254-52.1729Q52.832-50.2441 52.832-47.2168Q52.832-44.2871 51.0254-42.3584Q49.2188-40.4297 46.875-40.4297Z"/>
  </g>
  <g id="Heavy-M" transform="matrix(1 0 0 1 2575.43 1126)">
   <path class="hierarchical-0:tertiary SFSymbolsPreview8E8E8E" d="M61.2305 17.2852Q72.0703 17.2852 81.5918 13.1836Q91.1133 9.08203 98.3154 1.85547Q105.518-5.37109 109.644-14.8682Q113.77-24.3652 113.77-35.2051Q113.77-46.0449 109.644-55.542Q105.518-65.0391 98.3154-72.29Q91.1133-79.541 81.5918-83.6182Q72.0703-87.6953 61.2305-87.6953Q50.4395-87.6953 40.918-83.6182Q31.3965-79.541 24.1699-72.29Q16.9434-65.0391 12.8418-55.542Q8.74023-46.0449 8.74023-35.2051Q8.74023-24.3652 12.8418-14.8682Q16.9434-5.37109 24.1699 1.85547Q31.3965 9.08203 40.918 13.1836Q50.4395 17.2852 61.2305 17.2852Z"/>
   <path class="hierarchical-1:primary SFSymbolsPreview212121" d="M61.2305-11.2793Q55.6641-11.2793 51.5137-13.2568Q47.3633-15.2344 45.0439-17.7979Q42.7246-20.3613 42.7246-22.168Q42.7246-23.1934 43.5791-23.6084Q44.4336-24.0234 45.459-23.584Q48.3398-22.168 51.9531-20.8008Q55.5664-19.4336 61.2305-19.4336Q66.8945-19.4336 70.4834-20.8496Q74.0723-22.2656 77.0508-23.584Q77.9785-24.0234 78.8574-23.6084Q79.7363-23.1934 79.7363-22.168Q79.7363-20.3613 77.417-17.7979Q75.0977-15.2344 70.9473-13.2568Q66.7969-11.2793 61.2305-11.2793ZM76.3184-40.2832Q73.877-40.2832 72.1436-42.2119Q70.4102-44.1406 70.4102-47.1191Q70.4102-50.1465 72.1436-52.0752Q73.877-54.0039 76.3184-54.0039Q78.7109-54.0039 80.5176-52.0752Q82.3242-50.1465 82.3242-47.1191Q82.3242-44.1406 80.5176-42.2119Q78.7109-40.2832 76.3184-40.2832ZM46.1426-40.2832Q43.75-40.2832 41.9922-42.2119Q40.2344-44.1406 40.2344-47.1191Q40.2344-50.1465 41.9922-52.0752Q43.75-54.0039 46.1426-54.0039Q48.4863-54.0039 50.293-52.0752Q52.0996-50.1465 52.0996-47.1191Q52.0996-44.1406 50.293-42.2119Q48.4863-40.2832 46.1426-40.2832Z"/>
  </g>
  <g id="Bold-M" transform="matrix(1 0 0 1 2279.65 1126)">
   <path class="hierarchical-0:tertiary SFSymbolsPreview8E8E8E" d="M60.3027 16.3574Q70.9473 16.3574 80.2734 12.3291Q89.5996 8.30078 96.7041 1.17188Q103.809-5.95703 107.861-15.2832Q111.914-24.6094 111.914-35.2539Q111.914-45.8496 107.861-55.1758Q103.809-64.502 96.7041-71.6309Q89.5996-78.7598 80.249-82.7881Q70.8984-86.8164 60.3027-86.8164Q49.707-86.8164 40.3564-82.7881Q31.0059-78.7598 23.9014-71.6309Q16.7969-64.502 12.7686-55.1758Q8.74023-45.8496 8.74023-35.2539Q8.74023-24.6094 12.7686-15.2832Q16.7969-5.95703 23.9258 1.17188Q31.0547 8.30078 40.3809 12.3291Q49.707 16.3574 60.3027 16.3574Z"/>
   <path class="hierarchical-1:primary SFSymbolsPreview212121" d="M60.3516-10.8887Q54.8828-10.8887 50.7812-12.8418Q46.6797-14.7949 44.4092-17.3096Q42.1387-19.8242 42.1387-21.582Q42.1387-22.6074 42.9443-22.998Q43.75-23.3887 44.6777-22.9492Q47.5098-21.5332 51.0986-20.1416Q54.6875-18.75 60.3516-18.75Q65.918-18.75 69.5068-20.166Q73.0957-21.582 75.9766-22.9492Q76.8555-23.3398 77.6855-22.9736Q78.5156-22.6074 78.5156-21.582Q78.5156-19.8242 76.2451-17.3096Q73.9746-14.7949 69.873-12.8418Q65.7715-10.8887 60.3516-10.8887ZM75.3418-40.1367Q72.9492-40.1367 71.1914-42.0654Q69.4336-43.9941 69.4336-46.9727Q69.4336-50.0488 71.167-51.9775Q72.9004-53.9062 75.3418-53.9062Q77.7344-53.9062 79.541-51.9775Q81.3477-50.0488 81.3477-46.9727Q81.3477-43.9941 79.541-42.0654Q77.7344-40.1367 75.3418-40.1367ZM45.2637-40.1367Q42.9199-40.1367 41.1621-42.0654Q39.4043-43.9941 39.4043-46.9727Q39.4043-50.0488 41.1377-51.9775Q42.8711-53.9062 45.2637-53.9062Q47.6562-53.9062 49.4629-51.9775Q51.2695-50.0488 51.2695-46.9727Q51.2695-43.9941 49.4629-42.0654Q47.6562-40.1367 45.2637-40.1367Z"/>
  </g>
  <g id="Semibold-M" transform="matrix(1 0 0 1 1983.6 1126)">
   <path class="hierarchical-0:tertiary SFSymbolsPreview8E8E8E" d="M59.668 15.6738Q70.1172 15.6738 79.3457 11.6943Q88.5742 7.71484 95.6055 0.683594Q102.637-6.34766 106.616-15.5518Q110.596-24.7559 110.596-35.2539Q110.596-45.7031 106.616-54.9072Q102.637-64.1113 95.6055-71.1426Q88.5742-78.1738 79.3457-82.1777Q70.1172-86.1816 59.6191-86.1816Q49.1699-86.1816 39.9658-82.1777Q30.7617-78.1738 23.7305-71.1426Q16.6992-64.1113 12.7197-54.9072Q8.74023-45.7031 8.74023-35.2539Q8.74023-24.7559 12.7197-15.5518Q16.6992-6.34766 23.7305 0.683594Q30.7617 7.71484 39.9902 11.6943Q49.2188 15.6738 59.668 15.6738Z"/>
   <path class="hierarchical-1:primary SFSymbolsPreview212121" d="M59.668-10.5957Q54.248-10.5957 50.2197-12.5244Q46.1914-14.4531 43.9209-16.9434Q41.6504-19.4336 41.6504-21.1914Q41.6504-22.168 42.4316-22.5342Q43.2129-22.9004 44.0918-22.5098Q46.9238-21.0449 50.4883-19.6533Q54.0527-18.2617 59.668-18.2617Q65.1855-18.2617 68.7744-19.6533Q72.3633-21.0449 75.1953-22.5098Q76.0254-22.9004 76.8066-22.5342Q77.5879-22.168 77.5879-21.1914Q77.5879-19.4336 75.3418-16.9434Q73.0957-14.4531 69.043-12.5244Q64.9902-10.5957 59.668-10.5957ZM74.6094-40.0391Q72.2168-40.0391 70.459-41.9678Q68.7012-43.8965 68.7012-46.875Q68.7012-49.9512 70.459-51.9043Q72.2168-53.8574 74.6094-53.8574Q77.0508-53.8574 78.8574-51.9043Q80.6641-49.9512 80.6641-46.875Q80.6641-43.8965 78.833-41.9678Q77.002-40.0391 74.6094-40.0391ZM44.6289-40.0391Q42.2852-40.0391 40.5029-41.9678Q38.7207-43.8965 38.7207-46.875Q38.7207-49.9512 40.4785-51.9043Q42.2363-53.8574 44.6289-53.8574Q47.0703-53.8574 48.877-51.9043Q50.6836-49.9512 50.6836-46.875Q50.6836-43.8965 48.8525-41.9678Q47.0215-40.0391 44.6289-40.0391Z"/>
  </g>
  <g id="Medium-M" transform="matrix(1 0 0 1 1687.38 1126)">
   <path class="hierarchical-0:tertiary SFSymbolsPreview8E8E8E" d="M59.1797 15.1855Q69.5312 15.1855 78.6621 11.2305Q87.793 7.27539 94.751 0.317383Q101.709-6.64062 105.664-15.7715Q109.619-24.9023 109.619-35.2539Q109.619-45.6055 105.664-54.7363Q101.709-63.8672 94.751-70.8252Q87.793-77.7832 78.6377-81.7383Q69.4824-85.6934 59.1309-85.6934Q48.7793-85.6934 39.6484-81.7383Q30.5176-77.7832 23.584-70.8252Q16.6504-63.8672 12.6953-54.7363Q8.74023-45.6055 8.74023-35.2539Q8.74023-24.9023 12.6953-15.7715Q16.6504-6.64062 23.6084 0.317383Q30.5664 7.27539 39.6973 11.2305Q48.8281 15.1855 59.1797 15.1855Z"/>
   <path class="hierarchical-1:primary SFSymbolsPreview212121" d="M59.1797-10.4004Q53.8086-10.4004 49.8047-12.3047Q45.8008-14.209 43.5547-16.6992Q41.3086-19.1895 41.3086-20.8496Q41.3086-21.8262 42.0898-22.1924Q42.8711-22.5586 43.7012-22.168Q46.4844-20.7031 50.0488-19.3115Q53.6133-17.9199 59.1797-17.9199Q64.6973-17.9199 68.2617-19.3115Q71.8262-20.7031 74.6094-22.168Q75.4395-22.5098 76.1963-22.168Q76.9531-21.8262 76.9531-20.8496Q76.9531-19.1895 74.7314-16.6992Q72.5098-14.209 68.4814-12.3047Q64.4531-10.4004 59.1797-10.4004ZM74.0723-39.9414Q71.7285-39.9414 69.9463-41.8701Q68.1641-43.7988 68.1641-46.8262Q68.1641-49.9023 69.9219-51.8311Q71.6797-53.7598 74.0723-53.7598Q76.5137-53.7598 78.3203-51.8311Q80.127-49.9023 80.127-46.8262Q80.127-43.7988 78.2959-41.8701Q76.4648-39.9414 74.0723-39.9414ZM44.1895-39.9414Q41.8457-39.9414 40.0635-41.8701Q38.2812-43.7988 38.2812-46.8262Q38.2812-49.9023 40.0391-51.8311Q41.7969-53.7598 44.1895-53.7598Q46.582-53.7598 48.3887-51.8311Q50.1953-49.9023 50.1953-46.8262Q50.1953-43.7988 48.3887-41.8701Q46.582-39.9414 44.1895-39.9414Z"/>
  </g>
  <g id="Regular-M" transform="matrix(1 0 0 1 1391.3 1126)">
   <path class="hierarchical-0:tertiary SFSymbolsPreview8E8E8E" d="M58.5449 14.5508Q68.75 14.5508 77.7588 10.6445Q86.7676 6.73828 93.6523-0.146484Q100.537-7.03125 104.443-16.04Q108.35-25.0488 108.35-35.2539Q108.35-45.459 104.443-54.4678Q100.537-63.4766 93.6523-70.3613Q86.7676-77.2461 77.7344-81.1523Q68.7012-85.0586 58.4961-85.0586Q48.291-85.0586 39.2822-81.1523Q30.2734-77.2461 23.4131-70.3613Q16.5527-63.4766 12.6465-54.4678Q8.74023-45.459 8.74023-35.2539Q8.74023-25.0488 12.6465-16.04Q16.5527-7.03125 23.4375-0.146484Q30.3223 6.73828 39.3311 10.6445Q48.3398 14.5508 58.5449 14.5508Z"/>
   <path class="hierarchical-1:primary SFSymbolsPreview212121" d="M58.5449-10.1074Q53.2715-10.1074 49.3164-12.0117Q45.3613-13.916 43.1396-16.3574Q40.918-18.7988 40.918-20.459Q40.918-21.3867 41.6504-21.7285Q42.3828-22.0703 43.1641-21.7285Q45.9473-20.2637 49.4873-18.8477Q53.0273-17.4316 58.5449-17.4316Q64.0137-17.4316 67.5781-18.8232Q71.1426-20.2148 73.877-21.7285Q74.6582-22.0703 75.3906-21.7285Q76.123-21.3867 76.123-20.459Q76.123-18.7988 73.9258-16.3574Q71.7285-13.916 67.749-12.0117Q63.7695-10.1074 58.5449-10.1074ZM73.4375-39.8438Q71.0938-39.8438 69.2871-41.7725Q67.4805-43.7012 67.4805-46.7285Q67.4805-49.8047 69.2627-51.7578Q71.0449-53.7109 73.4375-53.7109Q75.8789-53.7109 77.6855-51.7578Q79.4922-49.8047 79.4922-46.7285Q79.4922-43.7012 77.6611-41.7725Q75.8301-39.8438 73.4375-39.8438ZM43.6035-39.8438Q41.2598-39.8438 39.4775-41.7725Q37.6953-43.7012 37.6953-46.7285Q37.6953-49.8047 39.4531-51.7578Q41.2109-53.7109 43.6035-53.7109Q46.0449-53.7109 47.8516-51.7578Q49.6582-49.8047 49.6582-46.7285Q49.6582-43.7012 47.8271-41.7725Q45.9961-39.8438 43.6035-39.8438Z"/>
  </g>
  <g id="Light-M" transform="matrix(1 0 0 1 1095.42 1126)">
   <path class="hierarchical-0:tertiary SFSymbolsPreview8E8E8E" d="M57.7148 13.7207Q67.7734 13.7207 76.6357 9.8877Q85.498 6.05469 92.2607-0.708008Q99.0234-7.4707 102.856-16.333Q106.689-25.1953 106.689-35.2539Q106.689-45.3125 102.856-54.1748Q99.0234-63.0371 92.2607-69.7998Q85.498-76.5625 76.6113-80.3955Q67.7246-84.2285 57.666-84.2285Q47.6074-84.2285 38.7451-80.3955Q29.8828-76.5625 23.1445-69.7998Q16.4062-63.0371 12.5732-54.1748Q8.74023-45.3125 8.74023-35.2539Q8.74023-25.1953 12.5732-16.333Q16.4062-7.4707 23.1689-0.708008Q29.9316 6.05469 38.7939 9.8877Q47.6562 13.7207 57.7148 13.7207Z"/>
   <path class="hierarchical-1:primary SFSymbolsPreview212121" d="M57.7148-10.7422Q52.6855-10.7422 48.877-12.5977Q45.0684-14.4531 42.9199-16.8213Q40.7715-19.1895 40.7715-20.752Q40.7715-21.4844 41.3574-21.7285Q41.9434-21.9727 42.5293-21.6797Q45.1172-20.0195 48.7305-18.5791Q52.3438-17.1387 57.7148-17.1387Q63.0859-17.1387 66.7236-18.5547Q70.3613-19.9707 72.8516-21.6797Q73.4375-21.9727 74.0479-21.7285Q74.6582-21.4844 74.6582-20.752Q74.6582-19.1895 72.5098-16.8213Q70.3613-14.4531 66.5527-12.5977Q62.7441-10.7422 57.7148-10.7422ZM72.5586-39.9414Q70.4102-39.9414 68.7256-41.7725Q67.041-43.6035 67.041-46.3867Q67.041-49.2188 68.7012-51.0986Q70.3613-52.9785 72.5586-52.9785Q74.8047-52.9785 76.4648-51.0986Q78.125-49.2188 78.125-46.3867Q78.125-43.6035 76.4404-41.7725Q74.7559-39.9414 72.5586-39.9414ZM42.8223-39.9414Q40.6738-39.9414 39.0137-41.7725Q37.3535-43.6035 37.3535-46.3867Q37.3535-49.2188 38.9893-51.0986Q40.625-52.9785 42.8223-52.9785Q45.0684-52.9785 46.7529-51.0986Q48.4375-49.2188 48.4375-46.3867Q48.4375-43.6035 46.7285-41.7725Q45.0195-39.9414 42.8223-39.9414Z"/>
  </g>
  <g id="Thin-M" transform="matrix(1 0 0 1 799.782 1126)">
   <path class="hierarchical-0:tertiary SFSymbolsPreview8E8E8E" d="M56.5918 12.5977Q66.5039 12.5977 75.1709 8.88672Q83.8379 5.17578 90.4297-1.44043Q97.0215-8.05664 100.781-16.7236Q104.541-25.3906 104.541-35.2539Q104.541-45.1172 100.781-53.7842Q97.0215-62.4512 90.4297-69.0674Q83.8379-75.6836 75.1709-79.3945Q66.5039-83.1055 56.5918-83.1055Q46.7285-83.1055 38.0615-79.3945Q29.3945-75.6836 22.8271-69.0674Q16.2598-62.4512 12.5-53.7842Q8.74023-45.1172 8.74023-35.2539Q8.74023-25.3906 12.4756-16.7236Q16.2109-8.05664 22.8027-1.44043Q29.3945 5.17578 38.0859 8.88672Q46.7773 12.5977 56.5918 12.5977Z"/>
   <path class="hierarchical-1:primary SFSymbolsPreview212121" d="M56.5918-11.6211Q51.9043-11.6211 48.291-13.4033Q44.6777-15.1855 42.627-17.4316Q40.5762-19.6777 40.5762-21.1426Q40.5762-21.6797 40.9668-21.7773Q41.3574-21.875 41.6992-21.6309Q43.9941-19.7266 47.7051-18.2373Q51.416-16.748 56.5918-16.748Q61.8164-16.748 65.5518-18.2129Q69.2871-19.6777 71.4844-21.6309Q71.8262-21.875 72.2412-21.7773Q72.6562-21.6797 72.6562-21.1426Q72.6562-19.6777 70.6055-17.4316Q68.5547-15.1855 64.9414-13.4033Q61.3281-11.6211 56.5918-11.6211ZM71.3867-40.0391Q69.4824-40.0391 67.9688-41.7725Q66.4551-43.5059 66.4551-45.9961Q66.4551-48.4863 67.9443-50.2197Q69.4336-51.9531 71.3867-51.9531Q73.4375-51.9531 74.8779-50.2197Q76.3184-48.4863 76.3184-45.9961Q76.3184-43.5059 74.8535-41.7725Q73.3887-40.0391 71.3867-40.0391ZM41.7969-40.0391Q39.8926-40.0391 38.4033-41.7725Q36.9141-43.5059 36.9141-45.9961Q36.9141-48.4863 38.3789-50.2197Q39.8438-51.9531 41.7969-51.9531Q43.7988-51.9531 45.2881-50.2197Q46.7773-48.4863 46.7773-45.9961Q46.7773-43.5059 45.2637-41.7725Q43.75-40.0391 41.7969-40.0391Z"/>
  </g>
  <g id="Ultralight-M" transform="matrix(1 0 0 1 503.632 1126)">
   <path class="hierarchical-0:tertiary SFSymbolsPreview8E8E8E" d="M56.0547 12.0605Q65.8203 12.0605 74.3896 8.37402Q82.959 4.6875 89.4775-1.83105Q95.9961-8.34961 99.707-16.9189Q103.418-25.4883 103.418-35.2539Q103.418-45.0195 99.707-53.5889Q95.9961-62.1582 89.4775-68.6768Q82.959-75.1953 74.3896-78.8818Q65.8203-82.5684 56.0547-82.5684Q46.2891-82.5684 37.7197-78.8818Q29.1504-75.1953 22.6562-68.6768Q16.1621-62.1582 12.4512-53.5889Q8.74023-45.0195 8.74023-35.2539Q8.74023-25.4883 12.4268-16.9189Q16.1133-8.34961 22.6318-1.83105Q29.1504 4.6875 37.7197 8.37402Q46.2891 12.0605 56.0547 12.0605Z"/>
   <path class="hierarchical-1:primary SFSymbolsPreview212121" d="M56.0547-12.0605Q51.5137-12.0605 47.998-13.7939Q44.4824-15.5273 42.4805-17.7246Q40.4785-19.9219 40.4785-21.3379Q40.4785-21.7285 40.7959-21.7773Q41.1133-21.8262 41.3086-21.582Q43.4082-19.5801 47.1924-18.0664Q50.9766-16.5527 56.0547-16.5527Q61.2305-16.5527 65.0146-18.042Q68.7988-19.5312 70.8008-21.582Q71.0449-21.8262 71.3623-21.7773Q71.6797-21.7285 71.6797-21.3379Q71.6797-19.9219 69.6777-17.7246Q67.6758-15.5273 64.1602-13.7939Q60.6445-12.0605 56.0547-12.0605ZM70.8496-40.1367Q69.043-40.1367 67.627-41.7725Q66.2109-43.4082 66.2109-45.752Q66.2109-48.0957 67.6025-49.7803Q68.9941-51.4648 70.8496-51.4648Q72.7051-51.4648 74.0723-49.7803Q75.4395-48.0957 75.4395-45.752Q75.4395-43.4082 74.0479-41.7725Q72.6562-40.1367 70.8496-40.1367ZM41.3086-40.1367Q39.502-40.1367 38.1104-41.7725Q36.7188-43.4082 36.7188-45.752Q36.7188-48.0957 38.0859-49.7803Q39.4531-51.4648 41.3086-51.4648Q43.1641-51.4648 44.5557-49.7803Q45.9473-48.0957 45.9473-45.752Q45.9473-43.4082 44.5312-41.7725Q43.1152-40.1367 41.3086-40.1367Z"/>
  </g>
  <g id="Black-S" transform="matrix(1 0 0 1 2884.57 696)">
   <path class="hierarchical-0:tertiary SFSymbolsPreview8E8E8E" d="M48.8281 6.78711Q57.5195 6.78711 65.1123 3.51562Q72.7051 0.244141 78.4912-5.54199Q84.2773-11.3281 87.5488-18.9209Q90.8203-26.5137 90.8203-35.2051Q90.8203-43.8965 87.5488-51.4893Q84.2773-59.082 78.4912-64.8682Q72.7051-70.6543 65.1123-73.9258Q57.5195-77.1973 48.8281-77.1973Q40.1367-77.1973 32.5439-73.9258Q24.9512-70.6543 19.165-64.8682Q13.3789-59.082 10.1074-51.4893Q6.83594-43.8965 6.83594-35.2051Q6.83594-26.5137 10.1074-18.9209Q13.3789-11.3281 19.165-5.54199Q24.9512 0.244141 32.5439 3.51562Q40.1367 6.78711 48.8281 6.78711Z"/>
   <path class="hierarchical-1:primary SFSymbolsPreview212121" d="M48.8281-16.8945Q44.3848-16.8945 41.0645-18.457Q37.7441-20.0195 35.9131-22.0947Q34.082-24.1699 34.082-25.5859Q34.082-26.416 34.79-26.7822Q35.498-27.1484 36.3281-26.7578Q38.623-25.6348 41.4795-24.585Q44.3359-23.5352 48.8281-23.5352Q53.3203-23.5352 56.1279-24.6338Q58.9355-25.7324 61.3281-26.7578Q62.1582-27.0996 62.8662-26.7578Q63.5742-26.416 63.5742-25.5859Q63.5742-24.1699 61.7188-22.0947Q59.8633-20.0195 56.5674-18.457Q53.2715-16.8945 48.8281-16.8945ZM60.6934-39.3555Q58.7891-39.3555 57.4463-40.8691Q56.1035-42.3828 56.1035-44.6289Q56.1035-46.9727 57.4463-48.4863Q58.7891-50 60.6934-50Q62.5488-50 63.9404-48.4863Q65.332-46.9727 65.332-44.6289Q65.332-42.3828 63.9404-40.8691Q62.5488-39.3555 60.6934-39.3555ZM36.9141-39.3555Q35.0586-39.3555 33.7158-40.8691Q32.373-42.3828 32.373-44.6289Q32.373-46.9727 33.7158-48.4863Q35.0586-50 36.9141-50Q38.7695-50 40.1611-48.4863Q41.5527-46.9727 41.5527-44.6289Q41.5527-42.3828 40.1611-40.8691Q38.7695-39.3555 36.9141-39.3555Z"/>
  </g>
  <g id="Heavy-S" transform="matrix(1 0 0 1 2588.47 696)">
   <path class="hierarchical-0:tertiary SFSymbolsPreview8E8E8E" d="M48.1934 6.15234Q56.7871 6.15234 64.2578 2.92969Q71.7285-0.292969 77.4414-6.00586Q83.1543-11.7188 86.377-19.1895Q89.5996-26.6602 89.5996-35.2051Q89.5996-43.75 86.377-51.2451Q83.1543-58.7402 77.4414-64.4531Q71.7285-70.166 64.2334-73.3887Q56.7383-76.6113 48.1934-76.6113Q39.6484-76.6113 32.1777-73.3887Q24.707-70.166 18.9941-64.4531Q13.2812-58.7402 10.0586-51.2451Q6.83594-43.75 6.83594-35.2051Q6.83594-26.6602 10.0586-19.1895Q13.2812-11.7188 18.9941-6.00586Q24.707-0.292969 32.2021 2.92969Q39.6973 6.15234 48.1934 6.15234Z"/>
   <path class="hierarchical-1:primary SFSymbolsPreview212121" d="M48.2422-16.5039Q43.8477-16.5039 40.5518-18.0664Q37.2559-19.6289 35.4492-21.6553Q33.6426-23.6816 33.6426-25.0977Q33.6426-25.9277 34.3262-26.2695Q35.0098-26.6113 35.8398-26.2695Q38.0859-25.1465 40.918-24.0967Q43.75-23.0469 48.2422-23.0469Q52.6855-23.0469 55.4688-24.1455Q58.252-25.2441 60.6445-26.2695Q61.4258-26.6113 62.1338-26.2695Q62.8418-25.9277 62.8418-25.0977Q62.8418-23.6816 61.0107-21.6553Q59.1797-19.6289 55.9082-18.0664Q52.6367-16.5039 48.2422-16.5039ZM60.0586-39.209Q58.1543-39.209 56.7871-40.7471Q55.4199-42.2852 55.4199-44.5801Q55.4199-46.9727 56.7871-48.4863Q58.1543-50 60.0586-50Q61.9629-50 63.3545-48.4863Q64.7461-46.9727 64.7461-44.5801Q64.7461-42.2852 63.3545-40.7471Q61.9629-39.209 60.0586-39.209ZM36.377-39.209Q34.4727-39.209 33.1055-40.7471Q31.7383-42.2852 31.7383-44.5801Q31.7383-46.9727 33.1055-48.4863Q34.4727-50 36.377-50Q38.2324-50 39.6484-48.4863Q41.0645-46.9727 41.0645-44.5801Q41.0645-42.2852 39.6484-40.7471Q38.2324-39.209 36.377-39.209Z"/>
  </g>
  <g id="Bold-S" transform="matrix(1 0 0 1 2292.42 696)">
   <path class="hierarchical-0:tertiary SFSymbolsPreview8E8E8E" d="M47.5586 5.46875Q55.957 5.46875 63.3057 2.29492Q70.6543-0.878906 76.2695-6.51855Q81.8848-12.1582 85.083-19.5068Q88.2812-26.8555 88.2812-35.2539Q88.2812-43.6035 85.083-50.9766Q81.8848-58.3496 76.2695-63.9648Q70.6543-69.5801 63.2812-72.7539Q55.9082-75.9277 47.5098-75.9277Q39.1602-75.9277 31.7871-72.7539Q24.4141-69.5801 18.8232-63.9648Q13.2324-58.3496 10.0342-50.9766Q6.83594-43.6035 6.83594-35.2539Q6.83594-26.8555 10.0342-19.5068Q13.2324-12.1582 18.8477-6.51855Q24.4629-0.878906 31.8115 2.29492Q39.1602 5.46875 47.5586 5.46875Z"/>
   <path class="hierarchical-1:primary SFSymbolsPreview212121" d="M47.5586-16.0645Q43.2129-16.0645 39.9658-17.6025Q36.7188-19.1406 34.9365-21.167Q33.1543-23.1934 33.1543-24.5605Q33.1543-25.3906 33.8135-25.7324Q34.4727-26.0742 35.2539-25.7324Q37.5488-24.6094 40.3564-23.5596Q43.1641-22.5098 47.5586-22.5098Q52.002-22.5098 54.7852-23.584Q57.5684-24.6582 59.8633-25.7324Q60.6445-26.0254 61.3281-25.708Q62.0117-25.3906 62.0117-24.5605Q62.0117-23.1934 60.2051-21.167Q58.3984-19.1406 55.1514-17.6025Q51.9043-16.0645 47.5586-16.0645ZM59.375-39.0625Q57.4219-39.0625 56.0303-40.625Q54.6387-42.1875 54.6387-44.5312Q54.6387-46.9727 56.0303-48.5107Q57.4219-50.0488 59.375-50.0488Q61.2793-50.0488 62.7197-48.5107Q64.1602-46.9727 64.1602-44.5312Q64.1602-42.1875 62.7197-40.625Q61.2793-39.0625 59.375-39.0625ZM35.7422-39.0625Q33.8379-39.0625 32.4463-40.625Q31.0547-42.1875 31.0547-44.5312Q31.0547-46.9727 32.4463-48.5107Q33.8379-50.0488 35.7422-50.0488Q37.6953-50.0488 39.1357-48.5107Q40.5762-46.9727 40.5762-44.5312Q40.5762-42.1875 39.1357-40.625Q37.6953-39.0625 35.7422-39.0625Z"/>
  </g>
  <g id="Semibold-S" transform="matrix(1 0 0 1 1996.2 696)">
   <path class="hierarchical-0:tertiary SFSymbolsPreview8E8E8E" d="M47.0703 4.98047Q55.3711 4.98047 62.6465 1.85547Q69.9219-1.26953 75.4639-6.86035Q81.0059-12.4512 84.1553-19.7266Q87.3047-27.002 87.3047-35.2539Q87.3047-43.5059 84.1553-50.7812Q81.0059-58.0566 75.4395-63.623Q69.873-69.1895 62.5977-72.3389Q55.3223-75.4883 47.0215-75.4883Q38.7695-75.4883 31.4941-72.3389Q24.2188-69.1895 18.6768-63.623Q13.1348-58.0566 9.98535-50.7812Q6.83594-43.5059 6.83594-35.2539Q6.83594-27.002 9.98535-19.7266Q13.1348-12.4512 18.7012-6.86035Q24.2676-1.26953 31.543 1.85547Q38.8184 4.98047 47.0703 4.98047Z"/>
   <path class="hierarchical-1:primary SFSymbolsPreview212121" d="M47.0703-15.7715Q42.7734-15.7715 39.5508-17.2852Q36.3281-18.7988 34.5459-20.8008Q32.7637-22.8027 32.7637-24.1699Q32.7637-25 33.4229-25.3174Q34.082-25.6348 34.8633-25.3418Q37.1094-24.2188 39.8926-23.1689Q42.6758-22.1191 47.0703-22.1191Q51.5137-22.1191 54.2725-23.1934Q57.0312-24.2676 59.3262-25.3418Q60.0586-25.6348 60.7178-25.3174Q61.377-25 61.377-24.1699Q61.377-22.8027 59.5947-20.8008Q57.8125-18.7988 54.5898-17.2852Q51.3672-15.7715 47.0703-15.7715ZM58.8379-38.9648Q56.8848-38.9648 55.4688-40.5273Q54.0527-42.0898 54.0527-44.4824Q54.0527-46.9238 55.4688-48.4863Q56.8848-50.0488 58.8379-50.0488Q60.791-50.0488 62.2314-48.4863Q63.6719-46.9238 63.6719-44.4824Q63.6719-42.0898 62.2314-40.5273Q60.791-38.9648 58.8379-38.9648ZM35.3027-38.9648Q33.3984-38.9648 31.9824-40.5273Q30.5664-42.0898 30.5664-44.4824Q30.5664-46.9238 31.9824-48.4863Q33.3984-50.0488 35.3027-50.0488Q37.2559-50.0488 38.7207-48.4863Q40.1855-46.9238 40.1855-44.4824Q40.1855-42.0898 38.7207-40.5273Q37.2559-38.9648 35.3027-38.9648Z"/>
  </g>
  <g id="Medium-S" transform="matrix(1 0 0 1 1699.83 696)">
   <path class="hierarchical-0:tertiary SFSymbolsPreview8E8E8E" d="M46.7285 4.63867Q54.9316 4.63867 62.1338 1.51367Q69.3359-1.61133 74.8535-7.12891Q80.3711-12.6465 83.4961-19.8486Q86.6211-27.0508 86.6211-35.2539Q86.6211-43.4082 83.4961-50.6348Q80.3711-57.8613 74.8291-63.3789Q69.2871-68.8965 62.085-71.9971Q54.8828-75.0977 46.6797-75.0977Q38.4766-75.0977 31.2744-71.9971Q24.0723-68.8965 18.5791-63.3789Q13.0859-57.8613 9.96094-50.6348Q6.83594-43.4082 6.83594-35.2539Q6.83594-27.0508 9.96094-19.8486Q13.0859-12.6465 18.6035-7.12891Q24.1211-1.61133 31.3232 1.51367Q38.5254 4.63867 46.7285 4.63867Z"/>
   <path class="hierarchical-1:primary SFSymbolsPreview212121" d="M46.7285-15.5273Q42.4316-15.5273 39.2334-17.041Q36.0352-18.5547 34.2529-20.5322Q32.4707-22.5098 32.4707-23.9258Q32.4707-24.707 33.1299-25.0244Q33.7891-25.3418 34.5215-25.0488Q36.8164-23.9746 39.5752-22.9004Q42.334-21.8262 46.7285-21.8262Q51.123-21.8262 53.8818-22.9004Q56.6406-23.9746 58.8867-25.0488Q59.668-25.3418 60.3027-25.0244Q60.9375-24.707 60.9375-23.9258Q60.9375-22.5098 59.1553-20.5322Q57.373-18.5547 54.1992-17.041Q51.0254-15.5273 46.7285-15.5273ZM58.4473-38.8672Q56.543-38.8672 55.0781-40.4541Q53.6133-42.041 53.6133-44.4336Q53.6133-46.9238 55.0781-48.5107Q56.543-50.0977 58.4473-50.0977Q60.4492-50.0977 61.8896-48.5107Q63.3301-46.9238 63.3301-44.4336Q63.3301-42.041 61.8896-40.4541Q60.4492-38.8672 58.4473-38.8672ZM34.9609-38.8672Q33.0078-38.8672 31.5918-40.4541Q30.1758-42.041 30.1758-44.4336Q30.1758-46.9238 31.5918-48.5107Q33.0078-50.0977 34.9609-50.0977Q36.9629-50.0977 38.4277-48.5107Q39.8926-46.9238 39.8926-44.4336Q39.8926-42.041 38.4277-40.4541Q36.9629-38.8672 34.9609-38.8672Z"/>
  </g>
  <g id="Regular-S" transform="matrix(1 0 0 1 1403.58 696)">
   <path class="hierarchical-0:tertiary SFSymbolsPreview8E8E8E" d="M46.2402 4.15039Q54.3457 4.15039 61.4746 1.07422Q68.6035-2.00195 74.0479-7.4707Q79.4922-12.9395 82.5928-20.0684Q85.6934-27.1973 85.6934-35.2539Q85.6934-43.3105 82.5928-50.4395Q79.4922-57.5684 74.0234-63.0371Q68.5547-68.5059 61.4258-71.582Q54.2969-74.6582 46.1914-74.6582Q38.1348-74.6582 31.0059-71.582Q23.877-68.5059 18.457-63.0371Q13.0371-57.5684 9.93652-50.4395Q6.83594-43.3105 6.83594-35.2539Q6.83594-27.1973 9.93652-20.0684Q13.0371-12.9395 18.4814-7.4707Q23.9258-2.00195 31.0547 1.07422Q38.1836 4.15039 46.2402 4.15039Z"/>
   <path class="hierarchical-1:primary SFSymbolsPreview212121" d="M46.2402-15.2344Q41.9922-15.2344 38.8184-16.748Q35.6445-18.2617 33.8867-20.2148Q32.1289-22.168 32.1289-23.5352Q32.1289-24.3164 32.7637-24.6338Q33.3984-24.9512 34.1309-24.6582Q36.377-23.584 39.1357-22.5098Q41.8945-21.4355 46.2402-21.4355Q50.6348-21.4355 53.3691-22.5098Q56.1035-23.584 58.3496-24.6582Q59.082-24.9512 59.7168-24.6338Q60.3516-24.3164 60.3516-23.5352Q60.3516-22.168 58.5938-20.2148Q56.8359-18.2617 53.6621-16.748Q50.4883-15.2344 46.2402-15.2344ZM57.959-38.7695Q56.0059-38.7695 54.541-40.3564Q53.0762-41.9434 53.0762-44.3848Q53.0762-46.9238 54.541-48.5107Q56.0059-50.0977 57.959-50.0977Q59.9609-50.0977 61.4258-48.5107Q62.8906-46.9238 62.8906-44.3848Q62.8906-41.9434 61.4258-40.3564Q59.9609-38.7695 57.959-38.7695ZM34.5215-38.7695Q32.5684-38.7695 31.1279-40.3564Q29.6875-41.9434 29.6875-44.3848Q29.6875-46.9238 31.1279-48.5107Q32.5684-50.0977 34.5215-50.0977Q36.5234-50.0977 38.0127-48.5107Q39.502-46.9238 39.502-44.3848Q39.502-41.9434 38.0127-40.3564Q36.5234-38.7695 34.5215-38.7695Z"/>
  </g>
  <g id="Light-S" transform="matrix(1 0 0 1 1107.6 696)">
   <path class="hierarchical-0:tertiary SFSymbolsPreview8E8E8E" d="M45.5078 3.41797Q53.4668 3.41797 60.4736 0.415039Q67.4805-2.58789 72.8271-7.95898Q78.1738-13.3301 81.2012-20.3125Q84.2285-27.2949 84.2285-35.2539Q84.2285-43.2129 81.2012-50.1953Q78.1738-57.1777 72.8027-62.5488Q67.4316-67.9199 60.4492-70.9229Q53.4668-73.9258 45.459-73.9258Q37.5488-73.9258 30.542-70.9229Q23.5352-67.9199 18.2129-62.5488Q12.8906-57.1777 9.86328-50.1953Q6.83594-43.2129 6.83594-35.2539Q6.83594-27.2949 9.86328-20.3125Q12.8906-13.3301 18.2373-7.95898Q23.584-2.58789 30.5908 0.415039Q37.5977 3.41797 45.5078 3.41797Z"/>
   <path class="hierarchical-1:primary SFSymbolsPreview212121" d="M45.5078-15.8203Q41.4551-15.8203 38.4033-17.2852Q35.3516-18.75 33.667-20.6299Q31.9824-22.5098 31.9824-23.7793Q31.9824-24.4141 32.4951-24.6582Q33.0078-24.9023 33.5449-24.6094Q35.5957-23.3887 38.4277-22.29Q41.2598-21.1914 45.5078-21.1914Q49.8047-21.1914 52.5879-22.29Q55.3711-23.3887 57.4219-24.6094Q58.0078-24.9023 58.5205-24.6582Q59.0332-24.4141 59.0332-23.7793Q59.0332-22.5098 57.3242-20.6299Q55.6152-18.75 52.5879-17.2852Q49.5605-15.8203 45.5078-15.8203ZM57.1777-38.8672Q55.3711-38.8672 54.0283-40.3564Q52.6855-41.8457 52.6855-44.0918Q52.6855-46.4355 54.0283-47.9248Q55.3711-49.4141 57.1777-49.4141Q58.9844-49.4141 60.3271-47.9248Q61.6699-46.4355 61.6699-44.0918Q61.6699-41.8457 60.3271-40.3564Q58.9844-38.8672 57.1777-38.8672ZM33.8379-38.8672Q32.0312-38.8672 30.7129-40.3564Q29.3945-41.8457 29.3945-44.0918Q29.3945-46.4355 30.7129-47.9248Q32.0312-49.4141 33.8379-49.4141Q35.6445-49.4141 37.0117-47.9248Q38.3789-46.4355 38.3789-44.0918Q38.3789-41.8457 37.0117-40.3564Q35.6445-38.8672 33.8379-38.8672Z"/>
  </g>
  <g id="Thin-S" transform="matrix(1 0 0 1 811.867 696)">
   <path class="hierarchical-0:tertiary SFSymbolsPreview8E8E8E" d="M44.5312 2.44141Q52.3438 2.44141 59.1553-0.488281Q65.9668-3.41797 71.1914-8.64258Q76.416-13.8672 79.3457-20.6787Q82.2754-27.4902 82.2754-35.2539Q82.2754-43.0176 79.3457-49.8291Q76.416-56.6406 71.1914-61.8652Q65.9668-67.0898 59.1553-70.0195Q52.3438-72.9492 44.5312-72.9492Q36.7676-72.9492 29.9316-70.0195Q23.0957-67.0898 17.9199-61.8652Q12.7441-56.6406 9.79004-49.8291Q6.83594-43.0176 6.83594-35.2539Q6.83594-27.4902 9.79004-20.6787Q12.7441-13.8672 17.9199-8.64258Q23.0957-3.41797 29.9316-0.488281Q36.7676 2.44141 44.5312 2.44141Z"/>
   <path class="hierarchical-1:primary SFSymbolsPreview212121" d="M44.5312-16.5527Q40.7715-16.5527 37.8906-17.9688Q35.0098-19.3848 33.3984-21.167Q31.7871-22.9492 31.7871-24.1211Q31.7871-24.5605 32.1289-24.6826Q32.4707-24.8047 32.8125-24.6094Q34.6191-23.1445 37.5244-21.9971Q40.4297-20.8496 44.5312-20.8496Q48.6816-20.8496 51.5625-21.9971Q54.4434-23.1445 56.25-24.6094Q56.5918-24.8047 56.9336-24.6826Q57.2754-24.5605 57.2754-24.1211Q57.2754-22.9492 55.6396-21.167Q54.0039-19.3848 51.1475-17.9688Q48.291-16.5527 44.5312-16.5527ZM56.1523-38.9648Q54.5898-38.9648 53.3691-40.3564Q52.1484-41.748 52.1484-43.75Q52.1484-45.752 53.3691-47.1436Q54.5898-48.5352 56.1523-48.5352Q57.7637-48.5352 58.9355-47.1436Q60.1074-45.752 60.1074-43.75Q60.1074-41.748 58.9111-40.3564Q57.7148-38.9648 56.1523-38.9648ZM32.9102-38.9648Q31.3477-38.9648 30.1758-40.3564Q29.0039-41.748 29.0039-43.75Q29.0039-45.752 30.1758-47.1436Q31.3477-48.5352 32.9102-48.5352Q34.5215-48.5352 35.7178-47.1436Q36.9141-45.752 36.9141-43.75Q36.9141-41.748 35.6934-40.3564Q34.4727-38.9648 32.9102-38.9648Z"/>
  </g>
  <g id="Ultralight-S" transform="matrix(1 0 0 1 515.644 696)">
   <path class="hierarchical-0:tertiary SFSymbolsPreview8E8E8E" d="M44.043 1.95312Q51.7578 1.95312 58.4717-0.927734Q65.1855-3.80859 70.3369-8.95996Q75.4883-14.1113 78.3936-20.8252Q81.2988-27.5391 81.2988-35.2539Q81.2988-42.9688 78.3936-49.6826Q75.4883-56.3965 70.3369-61.5479Q65.1855-66.6992 58.4717-69.5801Q51.7578-72.4609 44.043-72.4609Q36.377-72.4609 29.6387-69.5801Q22.9004-66.6992 17.7734-61.5479Q12.6465-56.3965 9.74121-49.6826Q6.83594-42.9688 6.83594-35.2539Q6.83594-27.5391 9.74121-20.8252Q12.6465-14.1113 17.7734-8.95996Q22.9004-3.80859 29.6387-0.927734Q36.377 1.95312 44.043 1.95312Z"/>
   <path class="hierarchical-1:primary SFSymbolsPreview212121" d="M43.9941-16.9434Q40.3809-16.9434 37.5977-18.335Q34.8145-19.7266 33.2275-21.4355Q31.6406-23.1445 31.6406-24.2676Q31.6406-24.6582 31.9336-24.707Q32.2266-24.7559 32.4219-24.5605Q34.082-22.998 37.0361-21.8262Q39.9902-20.6543 43.9941-20.6543Q48.0957-20.6543 51.0254-21.8262Q53.9551-22.998 55.6152-24.5605Q55.8594-24.7559 56.1279-24.707Q56.3965-24.6582 56.3965-24.2676Q56.3965-23.1445 54.7852-21.4355Q53.1738-19.7266 50.415-18.335Q47.6562-16.9434 43.9941-16.9434ZM55.5664-39.0625Q54.1504-39.0625 53.0273-40.3564Q51.9043-41.6504 51.9043-43.5547Q51.9043-45.4102 53.0273-46.7285Q54.1504-48.0469 55.5664-48.0469Q57.0801-48.0469 58.1787-46.7285Q59.2773-45.4102 59.2773-43.5547Q59.2773-41.6504 58.1543-40.3564Q57.0312-39.0625 55.5664-39.0625ZM32.4219-39.0625Q30.957-39.0625 29.8584-40.3564Q28.7598-41.6504 28.7598-43.5547Q28.7598-45.4102 29.8584-46.7285Q30.957-48.0469 32.4219-48.0469Q33.9355-48.0469 35.0586-46.7285Q36.1816-45.4102 36.1816-43.5547Q36.1816-41.6504 35.0342-40.3564Q33.8867-39.0625 32.4219-39.0625Z"/>
  </g>
 </g>
</svg>
