<?xml version="1.0" encoding="UTF-8"?>
<!--Generator: Apple Native CoreSVG 175-->
<!DOCTYPE svg
PUBLIC "-//W3C//DTD SVG 1.1//EN"
       "http://www.w3.org/Graphics/SVG/1.1/DTD/svg11.dtd">
<svg version="1.1" xmlns="http://www.w3.org/2000/svg" xmlns:xlink="http://www.w3.org/1999/xlink" width="3300" height="2200">
 <!--glyph: "uni10019E.medium", point size: 100.0, font version: "17.0d11e1", template writer version: "65.1"-->
 <g id="Notes">
  <rect height="2200" id="artboard" style="fill:white;opacity:1" width="3300" x="0" y="0"/>
  <line style="fill:none;stroke:black;opacity:1;stroke-width:0.5;" x1="263" x2="3036" y1="292" y2="292"/>
  <text style="stroke:none;fill:black;font-family:sans-serif;font-size:13;font-weight:bold;" transform="matrix(1 0 0 1 263 322)">Weight/Scale Variations</text>
  <text style="stroke:none;fill:black;font-family:sans-serif;font-size:13;text-anchor:middle;" transform="matrix(1 0 0 1 559.711 322)">Ultralight</text>
  <text style="stroke:none;fill:black;font-family:sans-serif;font-size:13;text-anchor:middle;" transform="matrix(1 0 0 1 856.422 322)">Thin</text>
  <text style="stroke:none;fill:black;font-family:sans-serif;font-size:13;text-anchor:middle;" transform="matrix(1 0 0 1 1153.13 322)">Light</text>
  <text style="stroke:none;fill:black;font-family:sans-serif;font-size:13;text-anchor:middle;" transform="matrix(1 0 0 1 1449.84 322)">Regular</text>
  <text style="stroke:none;fill:black;font-family:sans-serif;font-size:13;text-anchor:middle;" transform="matrix(1 0 0 1 1746.56 322)">Medium</text>
  <text style="stroke:none;fill:black;font-family:sans-serif;font-size:13;text-anchor:middle;" transform="matrix(1 0 0 1 2043.27 322)">Semibold</text>
  <text style="stroke:none;fill:black;font-family:sans-serif;font-size:13;text-anchor:middle;" transform="matrix(1 0 0 1 2339.98 322)">Bold</text>
  <text style="stroke:none;fill:black;font-family:sans-serif;font-size:13;text-anchor:middle;" transform="matrix(1 0 0 1 2636.69 322)">Heavy</text>
  <text style="stroke:none;fill:black;font-family:sans-serif;font-size:13;text-anchor:middle;" transform="matrix(1 0 0 1 2933.4 322)">Black</text>
  <line style="fill:none;stroke:black;opacity:1;stroke-width:0.5;" x1="263" x2="3036" y1="1903" y2="1903"/>
  <g transform="matrix(1 0 0 1 263 1933)">
   <path d="M9.24805 0.830078Q10.8691 0.830078 12.2949 0.214844Q13.7207-0.400391 14.8096-1.49414Q15.8984-2.58789 16.5186-4.01367Q17.1387-5.43945 17.1387-7.05078Q17.1387-8.66211 16.5186-10.0879Q15.8984-11.5137 14.8047-12.6074Q13.7109-13.7012 12.2852-14.3164Q10.8594-14.9316 9.23828-14.9316Q7.62695-14.9316 6.20117-14.3164Q4.77539-13.7012 3.69141-12.6074Q2.60742-11.5137 1.9873-10.0879Q1.36719-8.66211 1.36719-7.05078Q1.36719-5.43945 1.9873-4.01367Q2.60742-2.58789 3.69629-1.49414Q4.78516-0.400391 6.21094 0.214844Q7.63672 0.830078 9.24805 0.830078ZM9.24805-0.654297Q7.91992-0.654297 6.7627-1.14746Q5.60547-1.64062 4.73145-2.51953Q3.85742-3.39844 3.36426-4.56055Q2.87109-5.72266 2.87109-7.05078Q2.87109-8.37891 3.35938-9.54102Q3.84766-10.7031 4.72168-11.582Q5.5957-12.4609 6.75293-12.9541Q7.91016-13.4473 9.23828-13.4473Q10.5762-13.4473 11.7334-12.9541Q12.8906-12.4609 13.7695-11.582Q14.6484-10.7031 15.1465-9.54102Q15.6445-8.37891 15.6445-7.05078Q15.6445-5.72266 15.1514-4.56055Q14.6582-3.39844 13.7842-2.51953Q12.9102-1.64062 11.748-1.14746Q10.5859-0.654297 9.24805-0.654297ZM5.6543-7.05078Q5.6543-6.72852 5.85938-6.52832Q6.06445-6.32812 6.40625-6.32812L8.51562-6.32812L8.51562-4.20898Q8.51562-3.88672 8.71094-3.67676Q8.90625-3.4668 9.23828-3.4668Q9.56055-3.4668 9.77051-3.67676Q9.98047-3.88672 9.98047-4.20898L9.98047-6.32812L12.0898-6.32812Q12.4219-6.32812 12.627-6.52832Q12.832-6.72852 12.832-7.05078Q12.832-7.38281 12.627-7.58789Q12.4219-7.79297 12.0898-7.79297L9.98047-7.79297L9.98047-9.90234Q9.98047-10.2344 9.77051-10.4443Q9.56055-10.6543 9.23828-10.6543Q8.90625-10.6543 8.71094-10.4443Q8.51562-10.2344 8.51562-9.90234L8.51562-7.79297L6.40625-7.79297Q6.06445-7.79297 5.85938-7.58789Q5.6543-7.38281 5.6543-7.05078Z"/>
  </g>
  <g transform="matrix(1 0 0 1 281.867 1933)">
   <path d="M11.709 2.91016Q13.75 2.91016 15.5518 2.12891Q17.3535 1.34766 18.7305-0.0292969Q20.1074-1.40625 20.8887-3.20801Q21.6699-5.00977 21.6699-7.05078Q21.6699-9.0918 20.8887-10.8936Q20.1074-12.6953 18.7305-14.0723Q17.3535-15.4492 15.5469-16.2305Q13.7402-17.0117 11.6992-17.0117Q9.6582-17.0117 7.85645-16.2305Q6.05469-15.4492 4.68262-14.0723Q3.31055-12.6953 2.5293-10.8936Q1.74805-9.0918 1.74805-7.05078Q1.74805-5.00977 2.5293-3.20801Q3.31055-1.40625 4.6875-0.0292969Q6.06445 1.34766 7.86621 2.12891Q9.66797 2.91016 11.709 2.91016ZM11.709 1.25Q9.98047 1.25 8.47656 0.605469Q6.97266-0.0390625 5.83496-1.17676Q4.69727-2.31445 4.05762-3.81836Q3.41797-5.32227 3.41797-7.05078Q3.41797-8.7793 4.05762-10.2832Q4.69727-11.7871 5.83008-12.9297Q6.96289-14.0723 8.4668-14.7119Q9.9707-15.3516 11.6992-15.3516Q13.4277-15.3516 14.9316-14.7119Q16.4355-14.0723 17.5781-12.9297Q18.7207-11.7871 19.3652-10.2832Q20.0098-8.7793 20.0098-7.05078Q20.0098-5.32227 19.3701-3.81836Q18.7305-2.31445 17.5928-1.17676Q16.4551-0.0390625 14.9463 0.605469Q13.4375 1.25 11.709 1.25ZM7.17773-7.05078Q7.17773-6.69922 7.41211-6.47461Q7.64648-6.25 8.01758-6.25L10.8887-6.25L10.8887-3.36914Q10.8887-2.99805 11.1133-2.76855Q11.3379-2.53906 11.6895-2.53906Q12.0605-2.53906 12.29-2.76855Q12.5195-2.99805 12.5195-3.36914L12.5195-6.25L15.4004-6.25Q15.7715-6.25 16.001-6.47461Q16.2305-6.69922 16.2305-7.05078Q16.2305-7.42188 16.001-7.65137Q15.7715-7.88086 15.4004-7.88086L12.5195-7.88086L12.5195-10.752Q12.5195-11.1328 12.29-11.3623Q12.0605-11.5918 11.6895-11.5918Q11.3379-11.5918 11.1133-11.3574Q10.8887-11.123 10.8887-10.752L10.8887-7.88086L8.01758-7.88086Q7.63672-7.88086 7.40723-7.65137Q7.17773-7.42188 7.17773-7.05078Z"/>
  </g>
  <g transform="matrix(1 0 0 1 305.646 1933)">
   <path d="M14.9707 5.66406Q17.0605 5.66406 18.96 5.01465Q20.8594 4.36523 22.4512 3.19336Q24.043 2.02148 25.2197 0.429688Q26.3965-1.16211 27.0459-3.06641Q27.6953-4.9707 27.6953-7.05078Q27.6953-9.14062 27.0459-11.04Q26.3965-12.9395 25.2197-14.5312Q24.043-16.123 22.4512-17.2998Q20.8594-18.4766 18.9551-19.126Q17.0508-19.7754 14.9609-19.7754Q12.8711-19.7754 10.9717-19.126Q9.07227-18.4766 7.48535-17.2998Q5.89844-16.123 4.72168-14.5312Q3.54492-12.9395 2.90039-11.04Q2.25586-9.14062 2.25586-7.05078Q2.25586-4.9707 2.90527-3.06641Q3.55469-1.16211 4.72656 0.429688Q5.89844 2.02148 7.49023 3.19336Q9.08203 4.36523 10.9814 5.01465Q12.8809 5.66406 14.9707 5.66406ZM14.9707 3.84766Q13.1641 3.84766 11.5283 3.2959Q9.89258 2.74414 8.53516 1.74805Q7.17773 0.751953 6.17676-0.610352Q5.17578-1.97266 4.62891-3.6084Q4.08203-5.24414 4.08203-7.05078Q4.08203-8.86719 4.62891-10.5029Q5.17578-12.1387 6.17188-13.501Q7.16797-14.8633 8.52539-15.8594Q9.88281-16.8555 11.5186-17.4023Q13.1543-17.9492 14.9609-17.9492Q16.7773-17.9492 18.4131-17.4023Q20.0488-16.8555 21.4111-15.8594Q22.7734-14.8633 23.7695-13.501Q24.7656-12.1387 25.3174-10.5029Q25.8691-8.86719 25.8691-7.05078Q25.8789-5.24414 25.332-3.6084Q24.7852-1.97266 23.7842-0.610352Q22.7832 0.751953 21.4209 1.74805Q20.0586 2.74414 18.4229 3.2959Q16.7871 3.84766 14.9707 3.84766ZM9.19922-7.05078Q9.19922-6.66992 9.45801-6.4209Q9.7168-6.17188 10.1172-6.17188L14.0625-6.17188L14.0625-2.2168Q14.0625-1.81641 14.3115-1.55762Q14.5605-1.29883 14.9512-1.29883Q15.3516-1.29883 15.6104-1.55273Q15.8691-1.80664 15.8691-2.2168L15.8691-6.17188L19.8242-6.17188Q20.2246-6.17188 20.4785-6.4209Q20.7324-6.66992 20.7324-7.05078Q20.7324-7.46094 20.4785-7.71484Q20.2246-7.96875 19.8242-7.96875L15.8691-7.96875L15.8691-11.9141Q15.8691-12.3242 15.6104-12.583Q15.3516-12.8418 14.9512-12.8418Q14.5605-12.8418 14.3115-12.583Q14.0625-12.3242 14.0625-11.9141L14.0625-7.96875L10.1172-7.96875Q9.70703-7.96875 9.45312-7.71484Q9.19922-7.46094 9.19922-7.05078Z"/>
  </g>
  <text style="stroke:none;fill:black;font-family:sans-serif;font-size:13;font-weight:bold;" transform="matrix(1 0 0 1 263 1953)">Design Variations</text>
  <text style="stroke:none;fill:black;font-family:sans-serif;font-size:13;" transform="matrix(1 0 0 1 263 1971)">Symbols are supported in up to nine weights and three scales.</text>
  <text style="stroke:none;fill:black;font-family:sans-serif;font-size:13;" transform="matrix(1 0 0 1 263 1989)">For optimal layout with text and other symbols, vertically align</text>
  <text style="stroke:none;fill:black;font-family:sans-serif;font-size:13;" transform="matrix(1 0 0 1 263 2007)">symbols with the adjacent text.</text>
  <line style="fill:none;stroke:#00AEEF;stroke-width:0.5;opacity:1.0;" x1="776" x2="776" y1="1919" y2="1933"/>
  <g transform="matrix(1 0 0 1 776 1933)">
   <path d="M3.31055 0.15625Q3.70117 0.15625 3.91602-0.00976562Q4.13086-0.175781 4.26758-0.585938L5.52734-4.0332L11.2891-4.0332L12.5488-0.585938Q12.6855-0.175781 12.9004-0.00976562Q13.1152 0.15625 13.4961 0.15625Q13.8867 0.15625 14.1162-0.0585938Q14.3457-0.273438 14.3457-0.644531Q14.3457-0.869141 14.2383-1.17188L9.6582-13.3691Q9.48242-13.8184 9.17969-14.043Q8.87695-14.2676 8.4082-14.2676Q7.5-14.2676 7.17773-13.3789L2.59766-1.16211Q2.49023-0.859375 2.49023-0.634766Q2.49023-0.263672 2.70996-0.0537109Q2.92969 0.15625 3.31055 0.15625ZM6.00586-5.51758L8.37891-12.0898L8.42773-12.0898L10.8008-5.51758Z"/>
  </g>
  <line style="fill:none;stroke:#00AEEF;stroke-width:0.5;opacity:1.0;" x1="793.197" x2="793.197" y1="1919" y2="1933"/>
  <text style="stroke:none;fill:black;font-family:sans-serif;font-size:13;font-weight:bold;" transform="matrix(1 0 0 1 776 1953)">Margins</text>
  <text style="stroke:none;fill:black;font-family:sans-serif;font-size:13;" transform="matrix(1 0 0 1 776 1971)">Leading and trailing margins on the left and right side of each symbol</text>
  <text style="stroke:none;fill:black;font-family:sans-serif;font-size:13;" transform="matrix(1 0 0 1 776 1989)">can be adjusted by modifying the x-location of the margin guidelines.</text>
  <text style="stroke:none;fill:black;font-family:sans-serif;font-size:13;" transform="matrix(1 0 0 1 776 2007)">Modifications are automatically applied proportionally to all</text>
  <text style="stroke:none;fill:black;font-family:sans-serif;font-size:13;" transform="matrix(1 0 0 1 776 2025)">scales and weights.</text>
  <g transform="matrix(1 0 0 1 1289 1933)">
   <path d="M2.8418 1.86523L4.54102 3.57422Q5.18555 4.22852 5.90332 4.17969Q6.62109 4.13086 7.31445 3.35938L18.0078-8.42773L17.041-9.4043L6.42578 2.27539Q6.16211 2.57812 5.89355 2.61719Q5.625 2.65625 5.27344 2.30469L4.10156 1.14258Q3.75 0.791016 3.79395 0.522461Q3.83789 0.253906 4.14062-0.0195312L15.6152-10.8203L14.6387-11.7871L3.04688-0.898438Q2.30469-0.214844 2.25098 0.498047Q2.19727 1.21094 2.8418 1.86523ZM9.25781-16.3281Q8.94531-16.0254 8.90625-15.6348Q8.86719-15.2441 9.04297-14.9512Q9.21875-14.6777 9.55566-14.541Q9.89258-14.4043 10.3809-14.5215Q11.4746-14.7754 12.5977-14.7314Q13.7207-14.6875 14.7949-13.9844L14.209-12.5293Q13.9551-11.9043 14.0674-11.4404Q14.1797-10.9766 14.5801-10.5664L16.875-8.25195Q17.2363-7.88086 17.5781-7.82227Q17.9199-7.76367 18.3398-7.8418L19.4043-8.03711L20.0684-7.36328L20.0293-6.80664Q20-6.43555 20.1221-6.12305Q20.2441-5.81055 20.6055-5.44922L21.3672-4.70703Q21.7285-4.3457 22.1533-4.33105Q22.5781-4.31641 22.9297-4.66797L25.8398-7.58789Q26.1914-7.93945 26.1816-8.35449Q26.1719-8.76953 25.8105-9.13086L25.0391-9.89258Q24.6875-10.2539 24.3799-10.3857Q24.0723-10.5176 23.7109-10.4883L23.1348-10.4395L22.4902-11.0742L22.7344-12.1973Q22.832-12.6172 22.6953-12.9834Q22.5586-13.3496 22.1191-13.7891L19.9219-15.9766Q18.6719-17.2168 17.2607-17.8369Q15.8496-18.457 14.4189-18.4814Q12.9883-18.5059 11.665-17.959Q10.3418-17.4121 9.25781-16.3281ZM10.752-15.957Q11.6602-16.6211 12.7002-16.9043Q13.7402-17.1875 14.8047-17.085Q15.8691-16.9824 16.8701-16.5137Q17.8711-16.0449 18.7012-15.2051L21.1328-12.793Q21.3086-12.6172 21.3525-12.4512Q21.3965-12.2852 21.3379-12.0312L21.0156-10.5469L22.5195-9.0625L23.5059-9.12109Q23.6914-9.13086 23.7891-9.09668Q23.8867-9.0625 24.0332-8.91602L24.6094-8.33984L22.168-5.89844L21.5918-6.47461Q21.4453-6.62109 21.4062-6.71875Q21.3672-6.81641 21.377-7.01172L21.4453-7.98828L19.9512-9.47266L18.4277-9.21875Q18.1836-9.16992 18.042-9.2041Q17.9004-9.23828 17.7148-9.41406L15.7129-11.416Q15.5176-11.5918 15.4932-11.7529Q15.4688-11.9141 15.5859-12.1875L16.4648-14.2773Q15.293-15.3711 13.8281-15.791Q12.3633-16.2109 10.8398-15.7617Q10.7227-15.7324 10.6885-15.8057Q10.6543-15.8789 10.752-15.957Z"/>
  </g>
  <text style="stroke:none;fill:black;font-family:sans-serif;font-size:13;font-weight:bold;" transform="matrix(1 0 0 1 1289 1953)">Exporting</text>
  <text style="stroke:none;fill:black;font-family:sans-serif;font-size:13;" transform="matrix(1 0 0 1 1289 1971)">Symbols should be outlined when exporting to ensure the</text>
  <text style="stroke:none;fill:black;font-family:sans-serif;font-size:13;" transform="matrix(1 0 0 1 1289 1989)">design is preserved when submitting to Xcode.</text>
  <text id="template-version" style="stroke:none;fill:black;font-family:sans-serif;font-size:13;text-anchor:end;" transform="matrix(1 0 0 1 3036 1933)">Template v.3.0</text>
  <text style="stroke:none;fill:black;font-family:sans-serif;font-size:13;text-anchor:end;" transform="matrix(1 0 0 1 3036 1951)">Requires Xcode 13 or greater</text>
  <text id="descriptive-name" style="stroke:none;fill:black;font-family:sans-serif;font-size:13;text-anchor:end;" transform="matrix(1 0 0 1 3036 1969)">Generated from shift.fill</text>
  <text style="stroke:none;fill:black;font-family:sans-serif;font-size:13;text-anchor:end;" transform="matrix(1 0 0 1 3036 1987)">Typeset at 100 points</text>
  <text style="stroke:none;fill:black;font-family:sans-serif;font-size:13;" transform="matrix(1 0 0 1 263 726)">Small</text>
  <text style="stroke:none;fill:black;font-family:sans-serif;font-size:13;" transform="matrix(1 0 0 1 263 1156)">Medium</text>
  <text style="stroke:none;fill:black;font-family:sans-serif;font-size:13;" transform="matrix(1 0 0 1 263 1586)">Large</text>
 </g>
 <g id="Guides">
  <g id="H-reference" style="fill:#27AAE1;stroke:none;" transform="matrix(1 0 0 1 339 696)">
   <path d="M0.976562 0L3.66211 0L29.3457-67.1387L30.0293-67.1387L30.0293-70.459L28.125-70.459ZM11.6699-24.4629L46.9727-24.4629L46.2402-26.709L12.4512-26.709ZM55.127 0L57.7637 0L30.6152-70.459L29.4434-70.459L29.4434-67.1387Z"/>
  </g>
  <line id="Baseline-S" style="fill:none;stroke:#27AAE1;opacity:1;stroke-width:0.5;" x1="263" x2="3036" y1="696" y2="696"/>
  <line id="Capline-S" style="fill:none;stroke:#27AAE1;opacity:1;stroke-width:0.5;" x1="263" x2="3036" y1="625.541" y2="625.541"/>
  <g id="H-reference" style="fill:#27AAE1;stroke:none;" transform="matrix(1 0 0 1 339 1126)">
   <path d="M0.976562 0L3.66211 0L29.3457-67.1387L30.0293-67.1387L30.0293-70.459L28.125-70.459ZM11.6699-24.4629L46.9727-24.4629L46.2402-26.709L12.4512-26.709ZM55.127 0L57.7637 0L30.6152-70.459L29.4434-70.459L29.4434-67.1387Z"/>
  </g>
  <line id="Baseline-M" style="fill:none;stroke:#27AAE1;opacity:1;stroke-width:0.5;" x1="263" x2="3036" y1="1126" y2="1126"/>
  <line id="Capline-M" style="fill:none;stroke:#27AAE1;opacity:1;stroke-width:0.5;" x1="263" x2="3036" y1="1055.54" y2="1055.54"/>
  <g id="H-reference" style="fill:#27AAE1;stroke:none;" transform="matrix(1 0 0 1 339 1556)">
   <path d="M0.976562 0L3.66211 0L29.3457-67.1387L30.0293-67.1387L30.0293-70.459L28.125-70.459ZM11.6699-24.4629L46.9727-24.4629L46.2402-26.709L12.4512-26.709ZM55.127 0L57.7637 0L30.6152-70.459L29.4434-70.459L29.4434-67.1387Z"/>
  </g>
  <line id="Baseline-L" style="fill:none;stroke:#27AAE1;opacity:1;stroke-width:0.5;" x1="263" x2="3036" y1="1556" y2="1556"/>
  <line id="Capline-L" style="fill:none;stroke:#27AAE1;opacity:1;stroke-width:0.5;" x1="263" x2="3036" y1="1485.54" y2="1485.54"/>
  <line id="left-margin-Ultralight-S" style="fill:none;stroke:#00AEEF;stroke-width:0.5;opacity:1.0;" x1="511.347" x2="511.347" y1="600.785" y2="720.121"/>
  <line id="right-margin-Ultralight-S" style="fill:none;stroke:#00AEEF;stroke-width:0.5;opacity:1.0;" x1="608.075" x2="608.075" y1="600.785" y2="720.121"/>
  <line id="left-margin-Thin-S" style="fill:none;stroke:#00AEEF;stroke-width:0.5;opacity:1.0;" x1="807.887" x2="807.887" y1="600.785" y2="720.121"/>
  <line id="right-margin-Thin-S" style="fill:none;stroke:#00AEEF;stroke-width:0.5;opacity:1.0;" x1="904.957" x2="904.957" y1="600.785" y2="720.121"/>
  <line id="left-margin-Light-S" style="fill:none;stroke:#00AEEF;stroke-width:0.5;opacity:1.0;" x1="1104.31" x2="1104.31" y1="600.785" y2="720.121"/>
  <line id="right-margin-Light-S" style="fill:none;stroke:#00AEEF;stroke-width:0.5;opacity:1.0;" x1="1201.96" x2="1201.96" y1="600.785" y2="720.121"/>
  <line id="left-margin-Regular-S" style="fill:none;stroke:#00AEEF;stroke-width:0.5;opacity:1.0;" x1="1400.77" x2="1400.77" y1="600.785" y2="720.121"/>
  <line id="right-margin-Regular-S" style="fill:none;stroke:#00AEEF;stroke-width:0.5;opacity:1.0;" x1="1498.92" x2="1498.92" y1="600.785" y2="720.121"/>
  <line id="left-margin-Medium-S" style="fill:none;stroke:#00AEEF;stroke-width:0.5;opacity:1.0;" x1="1696.85" x2="1696.85" y1="600.785" y2="720.121"/>
  <line id="right-margin-Medium-S" style="fill:none;stroke:#00AEEF;stroke-width:0.5;opacity:1.0;" x1="1796.26" x2="1796.26" y1="600.785" y2="720.121"/>
  <line id="left-margin-Semibold-S" style="fill:none;stroke:#00AEEF;stroke-width:0.5;opacity:1.0;" x1="1993.07" x2="1993.07" y1="600.785" y2="720.121"/>
  <line id="right-margin-Semibold-S" style="fill:none;stroke:#00AEEF;stroke-width:0.5;opacity:1.0;" x1="2093.46" x2="2093.46" y1="600.785" y2="720.121"/>
  <line id="left-margin-Bold-S" style="fill:none;stroke:#00AEEF;stroke-width:0.5;opacity:1.0;" x1="2289.15" x2="2289.15" y1="600.785" y2="720.121"/>
  <line id="right-margin-Bold-S" style="fill:none;stroke:#00AEEF;stroke-width:0.5;opacity:1.0;" x1="2390.81" x2="2390.81" y1="600.785" y2="720.121"/>
  <line id="left-margin-Heavy-S" style="fill:none;stroke:#00AEEF;stroke-width:0.5;opacity:1.0;" x1="2584.93" x2="2584.93" y1="600.785" y2="720.121"/>
  <line id="right-margin-Heavy-S" style="fill:none;stroke:#00AEEF;stroke-width:0.5;opacity:1.0;" x1="2688.45" x2="2688.45" y1="600.785" y2="720.121"/>
  <line id="left-margin-Black-S" style="fill:none;stroke:#00AEEF;stroke-width:0.5;opacity:1.0;" x1="2880.81" x2="2880.81" y1="600.785" y2="720.121"/>
  <line id="right-margin-Black-S" style="fill:none;stroke:#00AEEF;stroke-width:0.5;opacity:1.0;" x1="2985.99" x2="2985.99" y1="600.785" y2="720.121"/>
  <line id="left-margin-Ultralight-M" style="fill:none;stroke:#00AEEF;stroke-width:0.5;opacity:1.0;" x1="498.041" x2="498.041" y1="1030.79" y2="1150.12"/>
  <line id="right-margin-Ultralight-M" style="fill:none;stroke:#00AEEF;stroke-width:0.5;opacity:1.0;" x1="621.381" x2="621.381" y1="1030.79" y2="1150.12"/>
  <line id="left-margin-Thin-M" style="fill:none;stroke:#00AEEF;stroke-width:0.5;opacity:1.0;" x1="794.557" x2="794.557" y1="1030.79" y2="1150.12"/>
  <line id="right-margin-Thin-M" style="fill:none;stroke:#00AEEF;stroke-width:0.5;opacity:1.0;" x1="918.287" x2="918.287" y1="1030.79" y2="1150.12"/>
  <line id="left-margin-Light-M" style="fill:none;stroke:#00AEEF;stroke-width:0.5;opacity:1.0;" x1="1090.93" x2="1090.93" y1="1030.79" y2="1150.12"/>
  <line id="right-margin-Light-M" style="fill:none;stroke:#00AEEF;stroke-width:0.5;opacity:1.0;" x1="1215.34" x2="1215.34" y1="1030.79" y2="1150.12"/>
  <line id="left-margin-Regular-M" style="fill:none;stroke:#00AEEF;stroke-width:0.5;opacity:1.0;" x1="1387.37" x2="1387.37" y1="1030.79" y2="1150.12"/>
  <line id="right-margin-Regular-M" style="fill:none;stroke:#00AEEF;stroke-width:0.5;opacity:1.0;" x1="1512.32" x2="1512.32" y1="1030.79" y2="1150.12"/>
  <line id="left-margin-Medium-M" style="fill:none;stroke:#00AEEF;stroke-width:0.5;opacity:1.0;" x1="1683.32" x2="1683.32" y1="1030.79" y2="1150.12"/>
  <line id="right-margin-Medium-M" style="fill:none;stroke:#00AEEF;stroke-width:0.5;opacity:1.0;" x1="1809.79" x2="1809.79" y1="1030.79" y2="1150.12"/>
  <line id="left-margin-Semibold-M" style="fill:none;stroke:#00AEEF;stroke-width:0.5;opacity:1.0;" x1="1979.42" x2="1979.42" y1="1030.79" y2="1150.12"/>
  <line id="right-margin-Semibold-M" style="fill:none;stroke:#00AEEF;stroke-width:0.5;opacity:1.0;" x1="2107.11" x2="2107.11" y1="1030.79" y2="1150.12"/>
  <line id="left-margin-Bold-M" style="fill:none;stroke:#00AEEF;stroke-width:0.5;opacity:1.0;" x1="2275.35" x2="2275.35" y1="1030.79" y2="1150.12"/>
  <line id="right-margin-Bold-M" style="fill:none;stroke:#00AEEF;stroke-width:0.5;opacity:1.0;" x1="2404.6" x2="2404.6" y1="1030.79" y2="1150.12"/>
  <line id="left-margin-Heavy-M" style="fill:none;stroke:#00AEEF;stroke-width:0.5;opacity:1.0;" x1="2570.94" x2="2570.94" y1="1030.79" y2="1150.12"/>
  <line id="right-margin-Heavy-M" style="fill:none;stroke:#00AEEF;stroke-width:0.5;opacity:1.0;" x1="2702.44" x2="2702.44" y1="1030.79" y2="1150.12"/>
  <line id="left-margin-Black-M" style="fill:none;stroke:#00AEEF;stroke-width:0.5;opacity:1.0;" x1="2866.65" x2="2866.65" y1="1030.79" y2="1150.12"/>
  <line id="right-margin-Black-M" style="fill:none;stroke:#00AEEF;stroke-width:0.5;opacity:1.0;" x1="3000.15" x2="3000.15" y1="1030.79" y2="1150.12"/>
  <line id="left-margin-Ultralight-L" style="fill:none;stroke:#00AEEF;stroke-width:0.5;opacity:1.0;" x1="480.17" x2="480.17" y1="1460.79" y2="1580.12"/>
  <line id="right-margin-Ultralight-L" style="fill:none;stroke:#00AEEF;stroke-width:0.5;opacity:1.0;" x1="639.252" x2="639.252" y1="1460.79" y2="1580.12"/>
  <line id="left-margin-Thin-L" style="fill:none;stroke:#00AEEF;stroke-width:0.5;opacity:1.0;" x1="776.686" x2="776.686" y1="1460.79" y2="1580.12"/>
  <line id="right-margin-Thin-L" style="fill:none;stroke:#00AEEF;stroke-width:0.5;opacity:1.0;" x1="936.159" x2="936.159" y1="1460.79" y2="1580.12"/>
  <line id="left-margin-Light-L" style="fill:none;stroke:#00AEEF;stroke-width:0.5;opacity:1.0;" x1="1073.01" x2="1073.01" y1="1460.79" y2="1580.12"/>
  <line id="right-margin-Light-L" style="fill:none;stroke:#00AEEF;stroke-width:0.5;opacity:1.0;" x1="1233.26" x2="1233.26" y1="1460.79" y2="1580.12"/>
  <line id="left-margin-Regular-L" style="fill:none;stroke:#00AEEF;stroke-width:0.5;opacity:1.0;" x1="1369.42" x2="1369.42" y1="1460.79" y2="1580.12"/>
  <line id="right-margin-Regular-L" style="fill:none;stroke:#00AEEF;stroke-width:0.5;opacity:1.0;" x1="1530.26" x2="1530.26" y1="1460.79" y2="1580.12"/>
  <line id="left-margin-Medium-L" style="fill:none;stroke:#00AEEF;stroke-width:0.5;opacity:1.0;" x1="1665.31" x2="1665.31" y1="1460.79" y2="1580.12"/>
  <line id="right-margin-Medium-L" style="fill:none;stroke:#00AEEF;stroke-width:0.5;opacity:1.0;" x1="1827.81" x2="1827.81" y1="1460.79" y2="1580.12"/>
  <line id="left-margin-Semibold-L" style="fill:none;stroke:#00AEEF;stroke-width:0.5;opacity:1.0;" x1="1961.36" x2="1961.36" y1="1460.79" y2="1580.12"/>
  <line id="right-margin-Semibold-L" style="fill:none;stroke:#00AEEF;stroke-width:0.5;opacity:1.0;" x1="2125.18" x2="2125.18" y1="1460.79" y2="1580.12"/>
  <line id="left-margin-Bold-L" style="fill:none;stroke:#00AEEF;stroke-width:0.5;opacity:1.0;" x1="2257.21" x2="2257.21" y1="1460.79" y2="1580.12"/>
  <line id="right-margin-Bold-L" style="fill:none;stroke:#00AEEF;stroke-width:0.5;opacity:1.0;" x1="2422.74" x2="2422.74" y1="1460.79" y2="1580.12"/>
  <line id="left-margin-Heavy-L" style="fill:none;stroke:#00AEEF;stroke-width:0.5;opacity:1.0;" x1="2552.7" x2="2552.7" y1="1460.79" y2="1580.12"/>
  <line id="right-margin-Heavy-L" style="fill:none;stroke:#00AEEF;stroke-width:0.5;opacity:1.0;" x1="2720.67" x2="2720.67" y1="1460.79" y2="1580.12"/>
  <line id="left-margin-Black-L" style="fill:none;stroke:#00AEEF;stroke-width:0.5;opacity:1.0;" x1="2848.32" x2="2848.32" y1="1460.79" y2="1580.12"/>
  <line id="right-margin-Black-L" style="fill:none;stroke:#00AEEF;stroke-width:0.5;opacity:1.0;" x1="3018.48" x2="3018.48" y1="1460.79" y2="1580.12"/>
 </g>
 <g id="Symbols">
  <g id="Black-L" transform="matrix(1 0 0 1 2848.32 1556)">
   <path d="M64.0137 26.7578L106.152 26.7578Q114.307 26.7578 118.823 22.1924Q123.34 17.627 123.34 9.57031L123.34-15.2344L145.215-15.2344Q150.635-15.2344 153.955-18.1152Q157.275-20.9961 157.275-25.8301Q157.275-28.8574 155.981-31.1279Q154.688-33.3984 151.709-36.4258L94.873-94.1895Q92.6758-96.3867 90.21-97.5586Q87.7441-98.7305 85.0586-98.7305Q82.4219-98.7305 79.9316-97.5586Q77.4414-96.3867 75.293-94.1895L18.457-36.4258Q15.4297-33.3008 14.1602-31.1035Q12.8906-28.9062 12.8906-25.8301Q12.8906-20.9961 16.2109-18.1152Q19.5312-15.2344 24.9023-15.2344L46.8262-15.2344L46.8262 9.57031Q46.8262 17.627 51.3184 22.1924Q55.8105 26.7578 64.0137 26.7578Z"/>
  </g>
  <g id="Heavy-L" transform="matrix(1 0 0 1 2552.7 1556)">
   <path d="M63.1348 25.6836L104.834 25.6836Q112.5 25.6836 116.724 21.4111Q120.947 17.1387 120.947 9.61914L120.947-16.2598L143.945-16.2598Q148.877-16.2598 151.978-18.9209Q155.078-21.582 155.078-26.0254Q155.078-28.8086 153.882-30.9082Q152.686-33.0078 150-35.6934L93.2129-93.1641Q91.1133-95.3125 88.7939-96.4355Q86.4746-97.5586 83.9844-97.5586Q81.4941-97.5586 79.1748-96.4355Q76.8555-95.3125 74.7559-93.1641L17.9688-35.6934Q15.2344-32.9102 14.0625-30.8838Q12.8906-28.8574 12.8906-26.0254Q12.8906-21.582 15.9912-18.9209Q19.0918-16.2598 23.9746-16.2598L47.0215-16.2598L47.0215 9.61914Q47.0215 17.1387 51.2207 21.4111Q55.4199 25.6836 63.1348 25.6836Z"/>
  </g>
  <g id="Bold-L" transform="matrix(1 0 0 1 2257.21 1556)">
   <path d="M62.1094 24.5117L103.418 24.5117Q110.498 24.5117 114.38 20.5322Q118.262 16.5527 118.262 9.66797L118.262-17.3828L142.529-17.3828Q146.973-17.3828 149.805-19.7998Q152.637-22.2168 152.637-26.2207Q152.637-28.7598 151.538-30.6885Q150.439-32.6172 148.145-34.9121L91.4062-92.0898Q89.3555-94.1406 87.207-95.1904Q85.0586-96.2402 82.7637-96.2402Q80.4688-96.2402 78.3203-95.1904Q76.1719-94.1406 74.1211-92.0898L17.3828-34.9121Q15.0391-32.5195 13.9648-30.6396Q12.8906-28.7598 12.8906-26.2207Q12.8906-22.2168 15.7227-19.7998Q18.5547-17.3828 22.998-17.3828L47.2656-17.3828L47.2656 9.66797Q47.2656 16.5527 51.1475 20.5322Q55.0293 24.5117 62.1094 24.5117Z"/>
  </g>
  <g id="Semibold-L" transform="matrix(1 0 0 1 1961.36 1556)">
   <path d="M61.4258 23.6816L102.393 23.6816Q109.082 23.6816 112.72 19.9219Q116.357 16.1621 116.357 9.7168L116.357-18.1641L141.504-18.1641Q145.605-18.1641 148.267-20.3857Q150.928-22.6074 150.928-26.3672Q150.928-28.7109 149.902-30.4932Q148.877-32.2754 146.826-34.375L90.1367-91.3086Q88.1348-93.3105 86.1084-94.3115Q84.082-95.3125 81.8848-95.3125Q79.7363-95.3125 77.7344-94.3115Q75.7324-93.3105 73.6816-91.3086L16.9922-34.375Q14.8926-32.2266 13.8916-30.4688Q12.8906-28.7109 12.8906-26.3672Q12.8906-22.6074 15.5518-20.3857Q18.2129-18.1641 22.2656-18.1641L47.4121-18.1641L47.4121 9.7168Q47.4121 16.1621 51.0498 19.9219Q54.6875 23.6816 61.4258 23.6816Z"/>
  </g>
  <g id="Medium-L" transform="matrix(1 0 0 1 1665.31 1556)">
   <path d="M60.8887 23.0469L101.611 23.0469Q108.008 23.0469 111.499 19.458Q114.99 15.8691 114.99 9.7168L114.99-18.75L140.771-18.75Q144.58-18.75 147.095-20.8496Q149.609-22.9492 149.609-26.4648Q149.609-28.6621 148.633-30.3711Q147.656-32.0801 145.801-33.9355L89.209-90.7227Q87.207-92.7246 85.2783-93.6768Q83.3496-94.6289 81.25-94.6289Q79.1992-94.6289 77.2705-93.6768Q75.3418-92.7246 73.3887-90.7227L16.6992-33.9355Q14.7949-32.0312 13.8428-30.3467Q12.8906-28.6621 12.8906-26.4648Q12.8906-22.9492 15.4053-20.8496Q17.9199-18.75 21.7285-18.75L47.5586-18.75L47.5586 9.7168Q47.5586 15.8691 51.0254 19.458Q54.4922 23.0469 60.8887 23.0469Z"/>
  </g>
  <g id="Regular-L" transform="matrix(1 0 0 1 1369.42 1556)">
   <path d="M60.2051 22.2168L100.635 22.2168Q106.641 22.2168 109.888 18.8477Q113.135 15.4785 113.135 9.76562L113.135-19.5312L139.795-19.5312Q143.262-19.5312 145.605-21.46Q147.949-23.3887 147.949-26.6113Q147.949-28.6133 147.046-30.2002Q146.143-31.7871 144.531-33.3984L87.9395-89.9414Q85.9863-91.8945 84.1797-92.7979Q82.373-93.7012 80.4199-93.7012Q78.5156-93.7012 76.709-92.7979Q74.9023-91.8945 72.9492-89.9414L16.3086-33.3984Q14.6484-31.7383 13.7695-30.1758Q12.8906-28.6133 12.8906-26.6113Q12.8906-23.3887 15.2344-21.46Q17.5781-19.5312 21.0449-19.5312L47.7051-19.5312L47.7051 9.76562Q47.7051 15.4785 50.9521 18.8477Q54.1992 22.2168 60.2051 22.2168Z"/>
  </g>
  <g id="Light-L" transform="matrix(1 0 0 1 1073.01 1556)">
   <path d="M58.8867 21.4355L101.367 21.4355Q106.592 21.4355 109.546 18.4082Q112.5 15.3809 112.5 10.3516L112.5-20.4102L140.576-20.4102Q143.506-20.4102 145.435-22.0215Q147.363-23.6328 147.363-26.3672Q147.363-28.0273 146.606-29.3945Q145.85-30.7617 144.434-32.1777L87.207-89.4531Q85.1074-91.5527 83.4717-92.3584Q81.8359-93.1641 80.127-93.1641Q78.4668-93.1641 76.8311-92.3584Q75.1953-91.5527 73.0469-89.4531L15.8203-32.1777Q14.4043-30.7617 13.6475-29.3945Q12.8906-28.0273 12.8906-26.3672Q12.8906-23.6328 14.8193-22.0215Q16.748-20.4102 19.6777-20.4102L47.7539-20.4102L47.7539 10.3516Q47.7539 15.3809 50.708 18.4082Q53.6621 21.4355 58.8867 21.4355Z"/>
  </g>
  <g id="Thin-L" transform="matrix(1 0 0 1 776.686 1556)">
   <path d="M57.1777 20.3613L102.344 20.3613Q106.494 20.3613 109.058 17.7979Q111.621 15.2344 111.621 11.084L111.621-21.5332L141.602-21.5332Q143.848-21.5332 145.215-22.7539Q146.582-23.9746 146.582-26.0254Q146.582-27.2949 146.021-28.3691Q145.459-29.4434 144.336-30.5664L86.2305-88.7695Q83.9355-91.1133 82.5195-91.7969Q81.1035-92.4805 79.7363-92.4805Q78.418-92.4805 76.9775-91.7969Q75.5371-91.1133 73.2422-88.7695L15.1367-30.5664Q14.0625-29.4434 13.4766-28.3691Q12.8906-27.2949 12.8906-26.0254Q12.8906-23.9746 14.2578-22.7539Q15.625-21.5332 17.8711-21.5332L47.8516-21.5332L47.8516 11.084Q47.8516 15.2344 50.415 17.7979Q52.9785 20.3613 57.1777 20.3613Z"/>
  </g>
  <g id="Ultralight-L" transform="matrix(1 0 0 1 480.17 1556)">
   <path d="M56.2988 19.8242L102.832 19.8242Q106.445 19.8242 108.813 17.4805Q111.182 15.1367 111.182 11.4746L111.182-22.1191L142.139-22.1191Q144.043-22.1191 145.117-23.1445Q146.191-24.1699 146.191-25.8301Q146.191-26.9043 145.703-27.832Q145.215-28.7598 144.238-29.7363L85.7422-88.4277Q83.3496-90.918 82.0557-91.5039Q80.7617-92.0898 79.541-92.0898Q78.3691-92.0898 77.0508-91.5039Q75.7324-90.918 73.291-88.4277L14.7949-29.7363Q13.8672-28.8086 13.3789-27.8564Q12.8906-26.9043 12.8906-25.8301Q12.8906-24.1699 13.9893-23.1445Q15.0879-22.1191 16.9434-22.1191L47.9004-22.1191L47.9004 11.4746Q47.9004 15.1367 50.2441 17.4805Q52.5879 19.8242 56.2988 19.8242Z"/>
  </g>
  <g id="Black-M" transform="matrix(1 0 0 1 2866.65 1126)">
   <path d="M49.9023 13.4277L83.5938 13.4277Q90.0879 13.4277 93.75 9.76562Q97.4121 6.10352 97.4121-0.341797L97.4121-19.1895L113.867-19.1895Q118.262-19.1895 120.898-21.4844Q123.535-23.7793 123.535-27.6855Q123.535-30.127 122.51-31.958Q121.484-33.7891 118.945-36.377L74.6582-81.6406Q72.8516-83.3984 70.8496-84.3262Q68.8477-85.2539 66.748-85.2539Q64.5996-85.2539 62.6221-84.3262Q60.6445-83.3984 58.8379-81.6406L14.502-36.377Q12.0117-33.7402 10.9863-31.958Q9.96094-30.1758 9.96094-27.6855Q9.96094-23.7793 12.5977-21.4844Q15.2344-19.1895 19.5801-19.1895L36.084-19.1895L36.084-0.341797Q36.084 6.10352 39.7217 9.76562Q43.3594 13.4277 49.9023 13.4277Z"/>
  </g>
  <g id="Heavy-M" transform="matrix(1 0 0 1 2570.94 1126)">
   <path d="M49.3164 12.5488L82.1777 12.5488Q88.3301 12.5488 91.7725 9.10645Q95.2148 5.66406 95.2148-0.439453L95.2148-19.9707L112.451-19.9707Q116.504-19.9707 119.019-22.1191Q121.533-24.2676 121.533-27.9297Q121.533-30.1758 120.557-31.9092Q119.58-33.6426 117.334-35.9375L73.1934-80.7617Q71.4844-82.4219 69.6045-83.3252Q67.7246-84.2285 65.7227-84.2285Q63.7207-84.2285 61.8652-83.3252Q60.0098-82.4219 58.252-80.7617L14.1113-35.9375Q11.8652-33.5938 10.9131-31.9092Q9.96094-30.2246 9.96094-27.9297Q9.96094-24.2676 12.4512-22.1191Q14.9414-19.9707 18.9941-19.9707L36.2793-19.9707L36.2793-0.439453Q36.2793 5.66406 39.6973 9.10645Q43.1152 12.5488 49.3164 12.5488Z"/>
  </g>
  <g id="Bold-M" transform="matrix(1 0 0 1 2275.35 1126)">
   <path d="M48.6816 11.6211L80.5664 11.6211Q86.377 11.6211 89.5508 8.37402Q92.7246 5.12695 92.7246-0.537109L92.7246-20.8984L110.889-20.8984Q114.551-20.8984 116.919-22.876Q119.287-24.8535 119.287-28.2227Q119.287-30.2734 118.359-31.8848Q117.432-33.4961 115.527-35.4492L71.582-79.7852Q69.9707-81.3965 68.2373-82.2266Q66.5039-83.0566 64.5996-83.0566Q62.7441-83.0566 61.0107-82.2266Q59.2773-81.3965 57.666-79.7852L13.7207-35.4492Q11.7676-33.3984 10.8643-31.8604Q9.96094-30.3223 9.96094-28.2227Q9.96094-24.8535 12.3047-22.876Q14.6484-20.8984 18.3105-20.8984L36.5234-20.8984L36.5234-0.537109Q36.5234 5.12695 39.6729 8.37402Q42.8223 11.6211 48.6816 11.6211Z"/>
  </g>
  <g id="Semibold-M" transform="matrix(1 0 0 1 1979.42 1126)">
   <path d="M48.1934 10.9375L79.4434 10.9375Q85.0098 10.9375 88.0127 7.86133Q91.0156 4.78516 91.0156-0.585938L91.0156-21.4844L109.766-21.4844Q113.184-21.4844 115.454-23.3643Q117.725-25.2441 117.725-28.3691Q117.725-30.3223 116.846-31.8359Q115.967-33.3496 114.258-35.0586L70.459-79.0527Q68.9453-80.6152 67.2852-81.4453Q65.625-82.2754 63.8184-82.2754Q62.0117-82.2754 60.376-81.4453Q58.7402-80.6152 57.2266-79.0527L13.3789-35.0586Q11.6211-33.252 10.791-31.7871Q9.96094-30.3223 9.96094-28.3691Q9.96094-25.2441 12.207-23.3643Q14.4531-21.4844 17.8711-21.4844L36.6699-21.4844L36.6699-0.585938Q36.6699 4.78516 39.6484 7.86133Q42.627 10.9375 48.1934 10.9375Z"/>
  </g>
  <g id="Medium-M" transform="matrix(1 0 0 1 1683.32 1126)">
   <path d="M47.8516 10.4004L78.6133 10.4004Q83.9844 10.4004 86.8652 7.44629Q89.7461 4.49219 89.7461-0.634766L89.7461-21.9727L108.936-21.9727Q112.158-21.9727 114.331-23.7549Q116.504-25.5371 116.504-28.5156Q116.504-30.3711 115.674-31.8115Q114.844-33.252 113.281-34.8145L69.6289-78.5645Q68.1152-80.0781 66.5283-80.8594Q64.9414-81.6406 63.2324-81.6406Q61.5234-81.6406 59.9365-80.8594Q58.3496-80.0781 56.8848-78.5645L13.1836-34.8145Q11.5723-33.2031 10.7666-31.7871Q9.96094-30.3711 9.96094-28.5156Q9.96094-25.5371 12.1094-23.7549Q14.2578-21.9727 17.4805-21.9727L36.7676-21.9727L36.7676-0.634766Q36.7676 4.49219 39.624 7.44629Q42.4805 10.4004 47.8516 10.4004Z"/>
  </g>
  <g id="Regular-M" transform="matrix(1 0 0 1 1387.37 1126)">
   <path d="M47.4121 9.76562L77.5391 9.76562Q82.666 9.76562 85.3516 6.95801Q88.0371 4.15039 88.0371-0.683594L88.0371-22.5586L107.861-22.5586Q110.84-22.5586 112.915-24.2432Q114.99-25.9277 114.99-28.7109Q114.99-30.4199 114.185-31.7871Q113.379-33.1543 112.061-34.4727L68.5059-77.8809Q67.0898-79.3457 65.6006-80.1025Q64.1113-80.8594 62.4512-80.8594Q60.8398-80.8594 59.3506-80.1025Q57.8613-79.3457 56.4453-77.8809L12.8906-34.4727Q11.4746-33.0566 10.7178-31.7383Q9.96094-30.4199 9.96094-28.7109Q9.96094-25.9277 12.0117-24.2432Q14.0625-22.5586 17.041-22.5586L36.9141-22.5586L36.9141-0.683594Q36.9141 4.15039 39.5996 6.95801Q42.2852 9.76562 47.4121 9.76562Z"/>
  </g>
  <g id="Light-M" transform="matrix(1 0 0 1 1090.93 1126)">
   <path d="M46.2402 9.0332L78.1738 9.0332Q82.6172 9.0332 85.0342 6.54297Q87.4512 4.05273 87.4512-0.146484L87.4512-23.3398L108.545-23.3398Q111.084-23.3398 112.769-24.7559Q114.453-26.1719 114.453-28.4668Q114.453-29.8828 113.77-31.0547Q113.086-32.2266 111.963-33.3984L67.8711-77.4414Q66.3086-79.0527 64.9658-79.7119Q63.623-80.3711 62.207-80.3711Q60.791-80.3711 59.4482-79.7119Q58.1055-79.0527 56.543-77.4414L12.4512-33.3984Q11.2305-32.1777 10.5957-31.0303Q9.96094-29.8828 9.96094-28.4668Q9.96094-26.1719 11.6455-24.7559Q13.3301-23.3398 15.8203-23.3398L36.9629-23.3398L36.9629-0.146484Q36.9629 4.05273 39.3799 6.54297Q41.7969 9.0332 46.2402 9.0332Z"/>
  </g>
  <g id="Thin-M" transform="matrix(1 0 0 1 794.557 1126)">
   <path d="M44.6777 8.05664L79.0527 8.05664Q82.5195 8.05664 84.5947 6.00586Q86.6699 3.95508 86.6699 0.488281L86.6699-24.3652L109.473-24.3652Q111.377-24.3652 112.573-25.415Q113.77-26.4648 113.77-28.1738Q113.77-29.248 113.257-30.1514Q112.744-31.0547 111.865-31.9336L67.041-76.8555Q65.2832-78.6621 64.1357-79.1992Q62.9883-79.7363 61.8652-79.7363Q60.7422-79.7363 59.5947-79.1992Q58.4473-78.6621 56.6895-76.8555L11.8652-31.9336Q10.9375-31.0059 10.4492-30.127Q9.96094-29.248 9.96094-28.1738Q9.96094-26.4648 11.1572-25.415Q12.3535-24.3652 14.209-24.3652L37.0605-24.3652L37.0605 0.488281Q37.0605 3.95508 39.1357 6.00586Q41.2109 8.05664 44.6777 8.05664Z"/>
  </g>
  <g id="Ultralight-M" transform="matrix(1 0 0 1 498.041 1126)">
   <path d="M43.8477 7.56836L79.4922 7.56836Q82.4707 7.56836 84.375 5.71289Q86.2793 3.85742 86.2793 0.878906L86.2793-24.8535L109.961-24.8535Q111.523-24.8535 112.451-25.7324Q113.379-26.6113 113.379-28.0273Q113.379-28.8574 112.964-29.6387Q112.549-30.4199 111.768-31.2012L66.6016-76.5625Q64.7461-78.418 63.6963-78.9062Q62.6465-79.3945 61.6699-79.3945Q60.6934-79.3945 59.6436-78.9062Q58.5938-78.418 56.7871-76.5625L11.5723-31.2012Q10.791-30.4199 10.376-29.6387Q9.96094-28.8574 9.96094-28.0273Q9.96094-26.6113 10.8887-25.7324Q11.8164-24.8535 13.3789-24.8535L37.1094-24.8535L37.1094 0.878906Q37.1094 3.85742 38.9893 5.71289Q40.8691 7.56836 43.8477 7.56836Z"/>
  </g>
  <g id="Black-S" transform="matrix(1 0 0 1 2880.81 696)">
   <path d="M39.209 3.125L65.9668 3.125Q71.1426 3.125 74.0479 0.219727Q76.9531-2.68555 76.9531-7.86133L76.9531-22.4609L89.6973-22.4609Q93.2129-22.4609 95.2881-24.292Q97.3633-26.123 97.3633-29.248Q97.3633-31.2012 96.5576-32.6416Q95.752-34.082 93.7012-36.1816L58.8867-71.8262Q57.4707-73.2422 55.8838-73.9746Q54.2969-74.707 52.5879-74.707Q50.9277-74.707 49.3164-73.9746Q47.7051-73.2422 46.2891-71.8262L11.4746-36.1816Q9.42383-34.082 8.61816-32.666Q7.8125-31.25 7.8125-29.248Q7.8125-26.123 9.8877-24.292Q11.9629-22.4609 15.4785-22.4609L28.2227-22.4609L28.2227-7.86133Q28.2227-2.68555 31.1279 0.219727Q34.0332 3.125 39.209 3.125Z"/>
  </g>
  <g id="Heavy-S" transform="matrix(1 0 0 1 2584.93 696)">
   <path d="M38.8672 2.49023L64.6484 2.49023Q69.6289 2.49023 72.3877-0.292969Q75.1465-3.07617 75.1465-8.00781L75.1465-23.0469L88.3789-23.0469Q91.6992-23.0469 93.7012-24.7803Q95.7031-26.5137 95.7031-29.4922Q95.7031-31.3477 94.9219-32.7148Q94.1406-34.082 92.334-35.9375L57.7148-71.1426Q56.3965-72.4609 54.9072-73.1689Q53.418-73.877 51.7578-73.877Q50.1465-73.877 48.6328-73.1689Q47.1191-72.4609 45.8008-71.1426L11.2305-35.9375Q9.375-34.082 8.59375-32.7148Q7.8125-31.3477 7.8125-29.4922Q7.8125-26.5137 9.81445-24.7803Q11.8164-23.0469 15.1367-23.0469L28.3691-23.0469L28.3691-8.00781Q28.3691-3.07617 31.1279-0.292969Q33.8867 2.49023 38.8672 2.49023Z"/>
  </g>
  <g id="Bold-S" transform="matrix(1 0 0 1 2289.15 696)">
   <path d="M38.4766 1.75781L63.2324 1.75781Q67.9688 1.75781 70.5322-0.878906Q73.0957-3.51562 73.0957-8.1543L73.0957-23.6816L86.9629-23.6816Q89.9902-23.6816 91.9189-25.3418Q93.8477-27.002 93.8477-29.7363Q93.8477-31.4941 93.1152-32.7881Q92.3828-34.082 90.7715-35.6934L56.4453-70.3613Q55.2246-71.582 53.8086-72.2656Q52.3926-72.9492 50.8301-72.9492Q49.3164-72.9492 47.9004-72.2656Q46.4844-71.582 45.2148-70.3613L10.9375-35.6934Q9.27734-34.0332 8.54492-32.7637Q7.8125-31.4941 7.8125-29.7363Q7.8125-27.002 9.76562-25.3418Q11.7188-23.6816 14.7461-23.6816L28.5645-23.6816L28.5645-8.1543Q28.5645-3.51562 31.1279-0.878906Q33.6914 1.75781 38.4766 1.75781Z"/>
  </g>
  <g id="Semibold-S" transform="matrix(1 0 0 1 1993.07 696)">
   <path d="M38.1836 1.26953L62.207 1.26953Q66.7969 1.26953 69.2383-1.26953Q71.6797-3.80859 71.6797-8.25195L71.6797-24.1211L85.9375-24.1211Q88.8184-24.1211 90.6982-25.708Q92.5781-27.2949 92.5781-29.9316Q92.5781-31.5918 91.8457-32.8125Q91.1133-34.0332 89.6973-35.498L55.5664-69.8242Q54.3945-70.9961 53.0518-71.6553Q51.709-72.3145 50.1953-72.3145Q48.7305-72.3145 47.3633-71.6553Q45.9961-70.9961 44.8242-69.8242L10.6934-35.498Q9.22852-34.0332 8.52051-32.8125Q7.8125-31.5918 7.8125-29.9316Q7.8125-27.2949 9.69238-25.708Q11.5723-24.1211 14.4531-24.1211L28.7109-24.1211L28.7109-8.25195Q28.7109-3.80859 31.1279-1.26953Q33.5449 1.26953 38.1836 1.26953Z"/>
  </g>
  <g id="Medium-S" transform="matrix(1 0 0 1 1696.85 696)">
   <path d="M37.9883 0.878906L61.4258 0.878906Q65.918 0.878906 68.2617-1.58691Q70.6055-4.05273 70.6055-8.30078L70.6055-24.4629L85.1562-24.4629Q87.9395-24.4629 89.7705-26.001Q91.6016-27.5391 91.6016-30.0293Q91.6016-31.6406 90.8936-32.8369Q90.1855-34.0332 88.916-35.4004L54.8828-69.4336Q53.8086-70.5078 52.4902-71.167Q51.1719-71.8262 49.707-71.8262Q48.291-71.8262 46.9727-71.167Q45.6543-70.5078 44.5312-69.4336L10.5469-35.4004Q9.17969-33.9844 8.49609-32.8125Q7.8125-31.6406 7.8125-30.0293Q7.8125-27.5391 9.66797-26.001Q11.5234-24.4629 14.2578-24.4629L28.7598-24.4629L28.7598-8.30078Q28.7598-4.05273 31.1279-1.58691Q33.4961 0.878906 37.9883 0.878906Z"/>
  </g>
  <g id="Regular-S" transform="matrix(1 0 0 1 1400.77 696)">
   <path d="M37.6953 0.390625L60.4492 0.390625Q64.7949 0.390625 67.0166-1.97754Q69.2383-4.3457 69.2383-8.39844L69.2383-24.9023L84.1797-24.9023Q86.7676-24.9023 88.5498-26.3672Q90.332-27.832 90.332-30.2246Q90.332-31.7383 89.6484-32.8857Q88.9648-34.0332 87.8418-35.2051L54.0039-68.8965Q52.9785-69.9219 51.7334-70.5566Q50.4883-71.1914 49.0723-71.1914Q47.7051-71.1914 46.46-70.5566Q45.2148-69.9219 44.1406-68.8965L10.3516-35.2051Q9.13086-33.9844 8.47168-32.8613Q7.8125-31.7383 7.8125-30.2246Q7.8125-27.832 9.61914-26.3672Q11.4258-24.9023 13.9648-24.9023L28.9062-24.9023L28.9062-8.39844Q28.9062-4.3457 31.1279-1.97754Q33.3496 0.390625 37.6953 0.390625Z"/>
  </g>
  <g id="Light-S" transform="matrix(1 0 0 1 1104.31 696)">
   <path d="M36.6699-0.244141L61.0352-0.244141Q64.7461-0.244141 66.7236-2.34375Q68.7012-4.44336 68.7012-7.95898L68.7012-25.5859L84.8145-25.5859Q86.9629-25.5859 88.4033-26.8066Q89.8438-28.0273 89.8438-30.0293Q89.8438-31.2988 89.2822-32.2754Q88.7207-33.252 87.7441-34.2285L53.418-68.5059Q52.2949-69.6777 51.1719-70.2148Q50.0488-70.752 48.8281-70.752Q47.6562-70.752 46.5576-70.2148Q45.459-69.6777 44.2383-68.5059L9.96094-34.2285Q8.93555-33.2031 8.37402-32.251Q7.8125-31.2988 7.8125-30.0293Q7.8125-28.0273 9.27734-26.8066Q10.7422-25.5859 12.8906-25.5859L28.9551-25.5859L28.9551-7.95898Q28.9551-4.44336 30.957-2.34375Q32.959-0.244141 36.6699-0.244141Z"/>
  </g>
  <g id="Thin-S" transform="matrix(1 0 0 1 807.887 696)">
   <path d="M35.3027-1.12305L61.7676-1.12305Q64.6973-1.12305 66.3818-2.83203Q68.0664-4.54102 68.0664-7.32422L68.0664-26.5137L85.6445-26.5137Q87.207-26.5137 88.2324-27.3926Q89.2578-28.2715 89.2578-29.7852Q89.2578-30.6641 88.8184-31.4209Q88.3789-32.1777 87.6465-32.959L52.6855-67.9688Q51.3672-69.3359 50.415-69.7754Q49.4629-70.2148 48.5352-70.2148Q47.6074-70.2148 46.6797-69.7754Q45.752-69.3359 44.3848-67.9688L9.42383-32.959Q8.64258-32.1777 8.22754-31.4209Q7.8125-30.6641 7.8125-29.7852Q7.8125-28.2715 8.83789-27.3926Q9.86328-26.5137 11.4258-26.5137L29.0039-26.5137L29.0039-7.32422Q29.0039-4.54102 30.7129-2.83203Q32.4219-1.12305 35.3027-1.12305Z"/>
  </g>
  <g id="Ultralight-S" transform="matrix(1 0 0 1 511.347 696)">
   <path d="M34.6191-1.5625L62.1582-1.5625Q64.6484-1.5625 66.1621-3.07617Q67.6758-4.58984 67.6758-7.03125L67.6758-27.002L86.0352-27.002Q87.3535-27.002 88.1348-27.71Q88.916-28.418 88.916-29.6387Q88.916-30.3711 88.5742-31.0059Q88.2324-31.6406 87.5977-32.2754L52.2949-67.6758Q50.8789-69.1406 50.0244-69.5312Q49.1699-69.9219 48.3887-69.9219Q47.5586-69.9219 46.7285-69.5312Q45.8984-69.1406 44.4824-67.6758L9.13086-32.2754Q8.49609-31.6406 8.1543-31.0059Q7.8125-30.3711 7.8125-29.6387Q7.8125-28.418 8.61816-27.71Q9.42383-27.002 10.6934-27.002L29.0527-27.002L29.0527-7.03125Q29.0527-4.58984 30.5908-3.07617Q32.1289-1.5625 34.6191-1.5625Z"/>
  </g>
 </g>
</svg>
