<?xml version="1.0" encoding="UTF-8"?>
<!--Generator: Apple Native CoreSVG 175-->
<!DOCTYPE svg
PUBLIC "-//W3C//DTD SVG 1.1//EN"
       "http://www.w3.org/Graphics/SVG/1.1/DTD/svg11.dtd">
<svg version="1.1" xmlns="http://www.w3.org/2000/svg" xmlns:xlink="http://www.w3.org/1999/xlink" width="3300" height="2200">
 <!--glyph: "uni100142.medium", point size: 100.0, font version: "17.0d11e1", template writer version: "65.1"-->
 <g id="Notes">
  <rect height="2200" id="artboard" style="fill:white;opacity:1" width="3300" x="0" y="0"/>
  <line style="fill:none;stroke:black;opacity:1;stroke-width:0.5;" x1="263" x2="3036" y1="292" y2="292"/>
  <text style="stroke:none;fill:black;font-family:sans-serif;font-size:13;font-weight:bold;" transform="matrix(1 0 0 1 263 322)">Weight/Scale Variations</text>
  <text style="stroke:none;fill:black;font-family:sans-serif;font-size:13;text-anchor:middle;" transform="matrix(1 0 0 1 559.711 322)">Ultralight</text>
  <text style="stroke:none;fill:black;font-family:sans-serif;font-size:13;text-anchor:middle;" transform="matrix(1 0 0 1 856.422 322)">Thin</text>
  <text style="stroke:none;fill:black;font-family:sans-serif;font-size:13;text-anchor:middle;" transform="matrix(1 0 0 1 1153.13 322)">Light</text>
  <text style="stroke:none;fill:black;font-family:sans-serif;font-size:13;text-anchor:middle;" transform="matrix(1 0 0 1 1449.84 322)">Regular</text>
  <text style="stroke:none;fill:black;font-family:sans-serif;font-size:13;text-anchor:middle;" transform="matrix(1 0 0 1 1746.56 322)">Medium</text>
  <text style="stroke:none;fill:black;font-family:sans-serif;font-size:13;text-anchor:middle;" transform="matrix(1 0 0 1 2043.27 322)">Semibold</text>
  <text style="stroke:none;fill:black;font-family:sans-serif;font-size:13;text-anchor:middle;" transform="matrix(1 0 0 1 2339.98 322)">Bold</text>
  <text style="stroke:none;fill:black;font-family:sans-serif;font-size:13;text-anchor:middle;" transform="matrix(1 0 0 1 2636.69 322)">Heavy</text>
  <text style="stroke:none;fill:black;font-family:sans-serif;font-size:13;text-anchor:middle;" transform="matrix(1 0 0 1 2933.4 322)">Black</text>
  <line style="fill:none;stroke:black;opacity:1;stroke-width:0.5;" x1="263" x2="3036" y1="1903" y2="1903"/>
  <g transform="matrix(1 0 0 1 263 1933)">
   <path d="M9.24805 0.830078Q10.8691 0.830078 12.2949 0.214844Q13.7207-0.400391 14.8096-1.49414Q15.8984-2.58789 16.5186-4.01367Q17.1387-5.43945 17.1387-7.05078Q17.1387-8.66211 16.5186-10.0879Q15.8984-11.5137 14.8047-12.6074Q13.7109-13.7012 12.2852-14.3164Q10.8594-14.9316 9.23828-14.9316Q7.62695-14.9316 6.20117-14.3164Q4.77539-13.7012 3.69141-12.6074Q2.60742-11.5137 1.9873-10.0879Q1.36719-8.66211 1.36719-7.05078Q1.36719-5.43945 1.9873-4.01367Q2.60742-2.58789 3.69629-1.49414Q4.78516-0.400391 6.21094 0.214844Q7.63672 0.830078 9.24805 0.830078ZM9.24805-0.654297Q7.91992-0.654297 6.7627-1.14746Q5.60547-1.64062 4.73145-2.51953Q3.85742-3.39844 3.36426-4.56055Q2.87109-5.72266 2.87109-7.05078Q2.87109-8.37891 3.35938-9.54102Q3.84766-10.7031 4.72168-11.582Q5.5957-12.4609 6.75293-12.9541Q7.91016-13.4473 9.23828-13.4473Q10.5762-13.4473 11.7334-12.9541Q12.8906-12.4609 13.7695-11.582Q14.6484-10.7031 15.1465-9.54102Q15.6445-8.37891 15.6445-7.05078Q15.6445-5.72266 15.1514-4.56055Q14.6582-3.39844 13.7842-2.51953Q12.9102-1.64062 11.748-1.14746Q10.5859-0.654297 9.24805-0.654297ZM5.6543-7.05078Q5.6543-6.72852 5.85938-6.52832Q6.06445-6.32812 6.40625-6.32812L8.51562-6.32812L8.51562-4.20898Q8.51562-3.88672 8.71094-3.67676Q8.90625-3.4668 9.23828-3.4668Q9.56055-3.4668 9.77051-3.67676Q9.98047-3.88672 9.98047-4.20898L9.98047-6.32812L12.0898-6.32812Q12.4219-6.32812 12.627-6.52832Q12.832-6.72852 12.832-7.05078Q12.832-7.38281 12.627-7.58789Q12.4219-7.79297 12.0898-7.79297L9.98047-7.79297L9.98047-9.90234Q9.98047-10.2344 9.77051-10.4443Q9.56055-10.6543 9.23828-10.6543Q8.90625-10.6543 8.71094-10.4443Q8.51562-10.2344 8.51562-9.90234L8.51562-7.79297L6.40625-7.79297Q6.06445-7.79297 5.85938-7.58789Q5.6543-7.38281 5.6543-7.05078Z"/>
  </g>
  <g transform="matrix(1 0 0 1 281.867 1933)">
   <path d="M11.709 2.91016Q13.75 2.91016 15.5518 2.12891Q17.3535 1.34766 18.7305-0.0292969Q20.1074-1.40625 20.8887-3.20801Q21.6699-5.00977 21.6699-7.05078Q21.6699-9.0918 20.8887-10.8936Q20.1074-12.6953 18.7305-14.0723Q17.3535-15.4492 15.5469-16.2305Q13.7402-17.0117 11.6992-17.0117Q9.6582-17.0117 7.85645-16.2305Q6.05469-15.4492 4.68262-14.0723Q3.31055-12.6953 2.5293-10.8936Q1.74805-9.0918 1.74805-7.05078Q1.74805-5.00977 2.5293-3.20801Q3.31055-1.40625 4.6875-0.0292969Q6.06445 1.34766 7.86621 2.12891Q9.66797 2.91016 11.709 2.91016ZM11.709 1.25Q9.98047 1.25 8.47656 0.605469Q6.97266-0.0390625 5.83496-1.17676Q4.69727-2.31445 4.05762-3.81836Q3.41797-5.32227 3.41797-7.05078Q3.41797-8.7793 4.05762-10.2832Q4.69727-11.7871 5.83008-12.9297Q6.96289-14.0723 8.4668-14.7119Q9.9707-15.3516 11.6992-15.3516Q13.4277-15.3516 14.9316-14.7119Q16.4355-14.0723 17.5781-12.9297Q18.7207-11.7871 19.3652-10.2832Q20.0098-8.7793 20.0098-7.05078Q20.0098-5.32227 19.3701-3.81836Q18.7305-2.31445 17.5928-1.17676Q16.4551-0.0390625 14.9463 0.605469Q13.4375 1.25 11.709 1.25ZM7.17773-7.05078Q7.17773-6.69922 7.41211-6.47461Q7.64648-6.25 8.01758-6.25L10.8887-6.25L10.8887-3.36914Q10.8887-2.99805 11.1133-2.76855Q11.3379-2.53906 11.6895-2.53906Q12.0605-2.53906 12.29-2.76855Q12.5195-2.99805 12.5195-3.36914L12.5195-6.25L15.4004-6.25Q15.7715-6.25 16.001-6.47461Q16.2305-6.69922 16.2305-7.05078Q16.2305-7.42188 16.001-7.65137Q15.7715-7.88086 15.4004-7.88086L12.5195-7.88086L12.5195-10.752Q12.5195-11.1328 12.29-11.3623Q12.0605-11.5918 11.6895-11.5918Q11.3379-11.5918 11.1133-11.3574Q10.8887-11.123 10.8887-10.752L10.8887-7.88086L8.01758-7.88086Q7.63672-7.88086 7.40723-7.65137Q7.17773-7.42188 7.17773-7.05078Z"/>
  </g>
  <g transform="matrix(1 0 0 1 305.646 1933)">
   <path d="M14.9707 5.66406Q17.0605 5.66406 18.96 5.01465Q20.8594 4.36523 22.4512 3.19336Q24.043 2.02148 25.2197 0.429688Q26.3965-1.16211 27.0459-3.06641Q27.6953-4.9707 27.6953-7.05078Q27.6953-9.14062 27.0459-11.04Q26.3965-12.9395 25.2197-14.5312Q24.043-16.123 22.4512-17.2998Q20.8594-18.4766 18.9551-19.126Q17.0508-19.7754 14.9609-19.7754Q12.8711-19.7754 10.9717-19.126Q9.07227-18.4766 7.48535-17.2998Q5.89844-16.123 4.72168-14.5312Q3.54492-12.9395 2.90039-11.04Q2.25586-9.14062 2.25586-7.05078Q2.25586-4.9707 2.90527-3.06641Q3.55469-1.16211 4.72656 0.429688Q5.89844 2.02148 7.49023 3.19336Q9.08203 4.36523 10.9814 5.01465Q12.8809 5.66406 14.9707 5.66406ZM14.9707 3.84766Q13.1641 3.84766 11.5283 3.2959Q9.89258 2.74414 8.53516 1.74805Q7.17773 0.751953 6.17676-0.610352Q5.17578-1.97266 4.62891-3.6084Q4.08203-5.24414 4.08203-7.05078Q4.08203-8.86719 4.62891-10.5029Q5.17578-12.1387 6.17188-13.501Q7.16797-14.8633 8.52539-15.8594Q9.88281-16.8555 11.5186-17.4023Q13.1543-17.9492 14.9609-17.9492Q16.7773-17.9492 18.4131-17.4023Q20.0488-16.8555 21.4111-15.8594Q22.7734-14.8633 23.7695-13.501Q24.7656-12.1387 25.3174-10.5029Q25.8691-8.86719 25.8691-7.05078Q25.8789-5.24414 25.332-3.6084Q24.7852-1.97266 23.7842-0.610352Q22.7832 0.751953 21.4209 1.74805Q20.0586 2.74414 18.4229 3.2959Q16.7871 3.84766 14.9707 3.84766ZM9.19922-7.05078Q9.19922-6.66992 9.45801-6.4209Q9.7168-6.17188 10.1172-6.17188L14.0625-6.17188L14.0625-2.2168Q14.0625-1.81641 14.3115-1.55762Q14.5605-1.29883 14.9512-1.29883Q15.3516-1.29883 15.6104-1.55273Q15.8691-1.80664 15.8691-2.2168L15.8691-6.17188L19.8242-6.17188Q20.2246-6.17188 20.4785-6.4209Q20.7324-6.66992 20.7324-7.05078Q20.7324-7.46094 20.4785-7.71484Q20.2246-7.96875 19.8242-7.96875L15.8691-7.96875L15.8691-11.9141Q15.8691-12.3242 15.6104-12.583Q15.3516-12.8418 14.9512-12.8418Q14.5605-12.8418 14.3115-12.583Q14.0625-12.3242 14.0625-11.9141L14.0625-7.96875L10.1172-7.96875Q9.70703-7.96875 9.45312-7.71484Q9.19922-7.46094 9.19922-7.05078Z"/>
  </g>
  <text style="stroke:none;fill:black;font-family:sans-serif;font-size:13;font-weight:bold;" transform="matrix(1 0 0 1 263 1953)">Design Variations</text>
  <text style="stroke:none;fill:black;font-family:sans-serif;font-size:13;" transform="matrix(1 0 0 1 263 1971)">Symbols are supported in up to nine weights and three scales.</text>
  <text style="stroke:none;fill:black;font-family:sans-serif;font-size:13;" transform="matrix(1 0 0 1 263 1989)">For optimal layout with text and other symbols, vertically align</text>
  <text style="stroke:none;fill:black;font-family:sans-serif;font-size:13;" transform="matrix(1 0 0 1 263 2007)">symbols with the adjacent text.</text>
  <line style="fill:none;stroke:#00AEEF;stroke-width:0.5;opacity:1.0;" x1="776" x2="776" y1="1919" y2="1933"/>
  <g transform="matrix(1 0 0 1 776 1933)">
   <path d="M3.31055 0.15625Q3.70117 0.15625 3.91602-0.00976562Q4.13086-0.175781 4.26758-0.585938L5.52734-4.0332L11.2891-4.0332L12.5488-0.585938Q12.6855-0.175781 12.9004-0.00976562Q13.1152 0.15625 13.4961 0.15625Q13.8867 0.15625 14.1162-0.0585938Q14.3457-0.273438 14.3457-0.644531Q14.3457-0.869141 14.2383-1.17188L9.6582-13.3691Q9.48242-13.8184 9.17969-14.043Q8.87695-14.2676 8.4082-14.2676Q7.5-14.2676 7.17773-13.3789L2.59766-1.16211Q2.49023-0.859375 2.49023-0.634766Q2.49023-0.263672 2.70996-0.0537109Q2.92969 0.15625 3.31055 0.15625ZM6.00586-5.51758L8.37891-12.0898L8.42773-12.0898L10.8008-5.51758Z"/>
  </g>
  <line style="fill:none;stroke:#00AEEF;stroke-width:0.5;opacity:1.0;" x1="793.197" x2="793.197" y1="1919" y2="1933"/>
  <text style="stroke:none;fill:black;font-family:sans-serif;font-size:13;font-weight:bold;" transform="matrix(1 0 0 1 776 1953)">Margins</text>
  <text style="stroke:none;fill:black;font-family:sans-serif;font-size:13;" transform="matrix(1 0 0 1 776 1971)">Leading and trailing margins on the left and right side of each symbol</text>
  <text style="stroke:none;fill:black;font-family:sans-serif;font-size:13;" transform="matrix(1 0 0 1 776 1989)">can be adjusted by modifying the x-location of the margin guidelines.</text>
  <text style="stroke:none;fill:black;font-family:sans-serif;font-size:13;" transform="matrix(1 0 0 1 776 2007)">Modifications are automatically applied proportionally to all</text>
  <text style="stroke:none;fill:black;font-family:sans-serif;font-size:13;" transform="matrix(1 0 0 1 776 2025)">scales and weights.</text>
  <g transform="matrix(1 0 0 1 1289 1933)">
   <path d="M2.8418 1.86523L4.54102 3.57422Q5.18555 4.22852 5.90332 4.17969Q6.62109 4.13086 7.31445 3.35938L18.0078-8.42773L17.041-9.4043L6.42578 2.27539Q6.16211 2.57812 5.89355 2.61719Q5.625 2.65625 5.27344 2.30469L4.10156 1.14258Q3.75 0.791016 3.79395 0.522461Q3.83789 0.253906 4.14062-0.0195312L15.6152-10.8203L14.6387-11.7871L3.04688-0.898438Q2.30469-0.214844 2.25098 0.498047Q2.19727 1.21094 2.8418 1.86523ZM9.25781-16.3281Q8.94531-16.0254 8.90625-15.6348Q8.86719-15.2441 9.04297-14.9512Q9.21875-14.6777 9.55566-14.541Q9.89258-14.4043 10.3809-14.5215Q11.4746-14.7754 12.5977-14.7314Q13.7207-14.6875 14.7949-13.9844L14.209-12.5293Q13.9551-11.9043 14.0674-11.4404Q14.1797-10.9766 14.5801-10.5664L16.875-8.25195Q17.2363-7.88086 17.5781-7.82227Q17.9199-7.76367 18.3398-7.8418L19.4043-8.03711L20.0684-7.36328L20.0293-6.80664Q20-6.43555 20.1221-6.12305Q20.2441-5.81055 20.6055-5.44922L21.3672-4.70703Q21.7285-4.3457 22.1533-4.33105Q22.5781-4.31641 22.9297-4.66797L25.8398-7.58789Q26.1914-7.93945 26.1816-8.35449Q26.1719-8.76953 25.8105-9.13086L25.0391-9.89258Q24.6875-10.2539 24.3799-10.3857Q24.0723-10.5176 23.7109-10.4883L23.1348-10.4395L22.4902-11.0742L22.7344-12.1973Q22.832-12.6172 22.6953-12.9834Q22.5586-13.3496 22.1191-13.7891L19.9219-15.9766Q18.6719-17.2168 17.2607-17.8369Q15.8496-18.457 14.4189-18.4814Q12.9883-18.5059 11.665-17.959Q10.3418-17.4121 9.25781-16.3281ZM10.752-15.957Q11.6602-16.6211 12.7002-16.9043Q13.7402-17.1875 14.8047-17.085Q15.8691-16.9824 16.8701-16.5137Q17.8711-16.0449 18.7012-15.2051L21.1328-12.793Q21.3086-12.6172 21.3525-12.4512Q21.3965-12.2852 21.3379-12.0312L21.0156-10.5469L22.5195-9.0625L23.5059-9.12109Q23.6914-9.13086 23.7891-9.09668Q23.8867-9.0625 24.0332-8.91602L24.6094-8.33984L22.168-5.89844L21.5918-6.47461Q21.4453-6.62109 21.4062-6.71875Q21.3672-6.81641 21.377-7.01172L21.4453-7.98828L19.9512-9.47266L18.4277-9.21875Q18.1836-9.16992 18.042-9.2041Q17.9004-9.23828 17.7148-9.41406L15.7129-11.416Q15.5176-11.5918 15.4932-11.7529Q15.4688-11.9141 15.5859-12.1875L16.4648-14.2773Q15.293-15.3711 13.8281-15.791Q12.3633-16.2109 10.8398-15.7617Q10.7227-15.7324 10.6885-15.8057Q10.6543-15.8789 10.752-15.957Z"/>
  </g>
  <text style="stroke:none;fill:black;font-family:sans-serif;font-size:13;font-weight:bold;" transform="matrix(1 0 0 1 1289 1953)">Exporting</text>
  <text style="stroke:none;fill:black;font-family:sans-serif;font-size:13;" transform="matrix(1 0 0 1 1289 1971)">Symbols should be outlined when exporting to ensure the</text>
  <text style="stroke:none;fill:black;font-family:sans-serif;font-size:13;" transform="matrix(1 0 0 1 1289 1989)">design is preserved when submitting to Xcode.</text>
  <text id="template-version" style="stroke:none;fill:black;font-family:sans-serif;font-size:13;text-anchor:end;" transform="matrix(1 0 0 1 3036 1933)">Template v.3.0</text>
  <text style="stroke:none;fill:black;font-family:sans-serif;font-size:13;text-anchor:end;" transform="matrix(1 0 0 1 3036 1951)">Requires Xcode 13 or greater</text>
  <text id="descriptive-name" style="stroke:none;fill:black;font-family:sans-serif;font-size:13;text-anchor:end;" transform="matrix(1 0 0 1 3036 1969)">Generated from arrow.right.to.line</text>
  <text style="stroke:none;fill:black;font-family:sans-serif;font-size:13;text-anchor:end;" transform="matrix(1 0 0 1 3036 1987)">Typeset at 100 points</text>
  <text style="stroke:none;fill:black;font-family:sans-serif;font-size:13;" transform="matrix(1 0 0 1 263 726)">Small</text>
  <text style="stroke:none;fill:black;font-family:sans-serif;font-size:13;" transform="matrix(1 0 0 1 263 1156)">Medium</text>
  <text style="stroke:none;fill:black;font-family:sans-serif;font-size:13;" transform="matrix(1 0 0 1 263 1586)">Large</text>
 </g>
 <g id="Guides">
  <g id="H-reference" style="fill:#27AAE1;stroke:none;" transform="matrix(1 0 0 1 339 696)">
   <path d="M0.976562 0L3.66211 0L29.3457-67.1387L30.0293-67.1387L30.0293-70.459L28.125-70.459ZM11.6699-24.4629L46.9727-24.4629L46.2402-26.709L12.4512-26.709ZM55.127 0L57.7637 0L30.6152-70.459L29.4434-70.459L29.4434-67.1387Z"/>
  </g>
  <line id="Baseline-S" style="fill:none;stroke:#27AAE1;opacity:1;stroke-width:0.5;" x1="263" x2="3036" y1="696" y2="696"/>
  <line id="Capline-S" style="fill:none;stroke:#27AAE1;opacity:1;stroke-width:0.5;" x1="263" x2="3036" y1="625.541" y2="625.541"/>
  <g id="H-reference" style="fill:#27AAE1;stroke:none;" transform="matrix(1 0 0 1 339 1126)">
   <path d="M0.976562 0L3.66211 0L29.3457-67.1387L30.0293-67.1387L30.0293-70.459L28.125-70.459ZM11.6699-24.4629L46.9727-24.4629L46.2402-26.709L12.4512-26.709ZM55.127 0L57.7637 0L30.6152-70.459L29.4434-70.459L29.4434-67.1387Z"/>
  </g>
  <line id="Baseline-M" style="fill:none;stroke:#27AAE1;opacity:1;stroke-width:0.5;" x1="263" x2="3036" y1="1126" y2="1126"/>
  <line id="Capline-M" style="fill:none;stroke:#27AAE1;opacity:1;stroke-width:0.5;" x1="263" x2="3036" y1="1055.54" y2="1055.54"/>
  <g id="H-reference" style="fill:#27AAE1;stroke:none;" transform="matrix(1 0 0 1 339 1556)">
   <path d="M0.976562 0L3.66211 0L29.3457-67.1387L30.0293-67.1387L30.0293-70.459L28.125-70.459ZM11.6699-24.4629L46.9727-24.4629L46.2402-26.709L12.4512-26.709ZM55.127 0L57.7637 0L30.6152-70.459L29.4434-70.459L29.4434-67.1387Z"/>
  </g>
  <line id="Baseline-L" style="fill:none;stroke:#27AAE1;opacity:1;stroke-width:0.5;" x1="263" x2="3036" y1="1556" y2="1556"/>
  <line id="Capline-L" style="fill:none;stroke:#27AAE1;opacity:1;stroke-width:0.5;" x1="263" x2="3036" y1="1485.54" y2="1485.54"/>
  <line id="left-margin-Ultralight-S" style="fill:none;stroke:#00AEEF;stroke-width:0.5;opacity:1.0;" x1="513.544" x2="513.544" y1="600.785" y2="720.121"/>
  <line id="right-margin-Ultralight-S" style="fill:none;stroke:#00AEEF;stroke-width:0.5;opacity:1.0;" x1="605.878" x2="605.878" y1="600.785" y2="720.121"/>
  <line id="left-margin-Thin-S" style="fill:none;stroke:#00AEEF;stroke-width:0.5;opacity:1.0;" x1="809.376" x2="809.376" y1="600.785" y2="720.121"/>
  <line id="right-margin-Thin-S" style="fill:none;stroke:#00AEEF;stroke-width:0.5;opacity:1.0;" x1="903.468" x2="903.468" y1="600.785" y2="720.121"/>
  <line id="left-margin-Light-S" style="fill:none;stroke:#00AEEF;stroke-width:0.5;opacity:1.0;" x1="1104.38" x2="1104.38" y1="600.785" y2="720.121"/>
  <line id="right-margin-Light-S" style="fill:none;stroke:#00AEEF;stroke-width:0.5;opacity:1.0;" x1="1201.89" x2="1201.89" y1="600.785" y2="720.121"/>
  <line id="left-margin-Regular-S" style="fill:none;stroke:#00AEEF;stroke-width:0.5;opacity:1.0;" x1="1399.8" x2="1399.8" y1="600.785" y2="720.121"/>
  <line id="right-margin-Regular-S" style="fill:none;stroke:#00AEEF;stroke-width:0.5;opacity:1.0;" x1="1499.89" x2="1499.89" y1="600.785" y2="720.121"/>
  <line id="left-margin-Medium-S" style="fill:none;stroke:#00AEEF;stroke-width:0.5;opacity:1.0;" x1="1695.7" x2="1695.7" y1="600.785" y2="720.121"/>
  <line id="right-margin-Medium-S" style="fill:none;stroke:#00AEEF;stroke-width:0.5;opacity:1.0;" x1="1797.41" x2="1797.41" y1="600.785" y2="720.121"/>
  <line id="left-margin-Semibold-S" style="fill:none;stroke:#00AEEF;stroke-width:0.5;opacity:1.0;" x1="1991.8" x2="1991.8" y1="600.785" y2="720.121"/>
  <line id="right-margin-Semibold-S" style="fill:none;stroke:#00AEEF;stroke-width:0.5;opacity:1.0;" x1="2094.73" x2="2094.73" y1="600.785" y2="720.121"/>
  <line id="left-margin-Bold-S" style="fill:none;stroke:#00AEEF;stroke-width:0.5;opacity:1.0;" x1="2287.68" x2="2287.68" y1="600.785" y2="720.121"/>
  <line id="right-margin-Bold-S" style="fill:none;stroke:#00AEEF;stroke-width:0.5;opacity:1.0;" x1="2392.27" x2="2392.27" y1="600.785" y2="720.121"/>
  <line id="left-margin-Heavy-S" style="fill:none;stroke:#00AEEF;stroke-width:0.5;opacity:1.0;" x1="2583.22" x2="2583.22" y1="600.785" y2="720.121"/>
  <line id="right-margin-Heavy-S" style="fill:none;stroke:#00AEEF;stroke-width:0.5;opacity:1.0;" x1="2690.16" x2="2690.16" y1="600.785" y2="720.121"/>
  <line id="left-margin-Black-S" style="fill:none;stroke:#00AEEF;stroke-width:0.5;opacity:1.0;" x1="2878.88" x2="2878.88" y1="600.785" y2="720.121"/>
  <line id="right-margin-Black-S" style="fill:none;stroke:#00AEEF;stroke-width:0.5;opacity:1.0;" x1="2987.92" x2="2987.92" y1="600.785" y2="720.121"/>
  <line id="left-margin-Ultralight-M" style="fill:none;stroke:#00AEEF;stroke-width:0.5;opacity:1.0;" x1="501.117" x2="501.117" y1="1030.79" y2="1150.12"/>
  <line id="right-margin-Ultralight-M" style="fill:none;stroke:#00AEEF;stroke-width:0.5;opacity:1.0;" x1="618.305" x2="618.305" y1="1030.79" y2="1150.12"/>
  <line id="left-margin-Thin-M" style="fill:none;stroke:#00AEEF;stroke-width:0.5;opacity:1.0;" x1="796.852" x2="796.852" y1="1030.79" y2="1150.12"/>
  <line id="right-margin-Thin-M" style="fill:none;stroke:#00AEEF;stroke-width:0.5;opacity:1.0;" x1="915.993" x2="915.993" y1="1030.79" y2="1150.12"/>
  <line id="left-margin-Light-M" style="fill:none;stroke:#00AEEF;stroke-width:0.5;opacity:1.0;" x1="1091.63" x2="1091.63" y1="1030.79" y2="1150.12"/>
  <line id="right-margin-Light-M" style="fill:none;stroke:#00AEEF;stroke-width:0.5;opacity:1.0;" x1="1214.63" x2="1214.63" y1="1030.79" y2="1150.12"/>
  <line id="left-margin-Regular-M" style="fill:none;stroke:#00AEEF;stroke-width:0.5;opacity:1.0;" x1="1386.88" x2="1386.88" y1="1030.79" y2="1150.12"/>
  <line id="right-margin-Regular-M" style="fill:none;stroke:#00AEEF;stroke-width:0.5;opacity:1.0;" x1="1512.81" x2="1512.81" y1="1030.79" y2="1150.12"/>
  <line id="left-margin-Medium-M" style="fill:none;stroke:#00AEEF;stroke-width:0.5;opacity:1.0;" x1="1682.49" x2="1682.49" y1="1030.79" y2="1150.12"/>
  <line id="right-margin-Medium-M" style="fill:none;stroke:#00AEEF;stroke-width:0.5;opacity:1.0;" x1="1810.62" x2="1810.62" y1="1030.79" y2="1150.12"/>
  <line id="left-margin-Semibold-M" style="fill:none;stroke:#00AEEF;stroke-width:0.5;opacity:1.0;" x1="1978.35" x2="1978.35" y1="1030.79" y2="1150.12"/>
  <line id="right-margin-Semibold-M" style="fill:none;stroke:#00AEEF;stroke-width:0.5;opacity:1.0;" x1="2108.18" x2="2108.18" y1="1030.79" y2="1150.12"/>
  <line id="left-margin-Bold-M" style="fill:none;stroke:#00AEEF;stroke-width:0.5;opacity:1.0;" x1="2273.94" x2="2273.94" y1="1030.79" y2="1150.12"/>
  <line id="right-margin-Bold-M" style="fill:none;stroke:#00AEEF;stroke-width:0.5;opacity:1.0;" x1="2406.02" x2="2406.02" y1="1030.79" y2="1150.12"/>
  <line id="left-margin-Heavy-M" style="fill:none;stroke:#00AEEF;stroke-width:0.5;opacity:1.0;" x1="2569.01" x2="2569.01" y1="1030.79" y2="1150.12"/>
  <line id="right-margin-Heavy-M" style="fill:none;stroke:#00AEEF;stroke-width:0.5;opacity:1.0;" x1="2704.36" x2="2704.36" y1="1030.79" y2="1150.12"/>
  <line id="left-margin-Black-M" style="fill:none;stroke:#00AEEF;stroke-width:0.5;opacity:1.0;" x1="2864.28" x2="2864.28" y1="1030.79" y2="1150.12"/>
  <line id="right-margin-Black-M" style="fill:none;stroke:#00AEEF;stroke-width:0.5;opacity:1.0;" x1="3002.52" x2="3002.52" y1="1030.79" y2="1150.12"/>
  <line id="left-margin-Ultralight-L" style="fill:none;stroke:#00AEEF;stroke-width:0.5;opacity:1.0;" x1="484.54" x2="484.54" y1="1460.79" y2="1580.12"/>
  <line id="right-margin-Ultralight-L" style="fill:none;stroke:#00AEEF;stroke-width:0.5;opacity:1.0;" x1="634.882" x2="634.882" y1="1460.79" y2="1580.12"/>
  <line id="left-margin-Thin-L" style="fill:none;stroke:#00AEEF;stroke-width:0.5;opacity:1.0;" x1="780.153" x2="780.153" y1="1460.79" y2="1580.12"/>
  <line id="right-margin-Thin-L" style="fill:none;stroke:#00AEEF;stroke-width:0.5;opacity:1.0;" x1="932.692" x2="932.692" y1="1460.79" y2="1580.12"/>
  <line id="left-margin-Light-L" style="fill:none;stroke:#00AEEF;stroke-width:0.5;opacity:1.0;" x1="1074.72" x2="1074.72" y1="1460.79" y2="1580.12"/>
  <line id="right-margin-Light-L" style="fill:none;stroke:#00AEEF;stroke-width:0.5;opacity:1.0;" x1="1231.55" x2="1231.55" y1="1460.79" y2="1580.12"/>
  <line id="left-margin-Regular-L" style="fill:none;stroke:#00AEEF;stroke-width:0.5;opacity:1.0;" x1="1369.79" x2="1369.79" y1="1460.79" y2="1580.12"/>
  <line id="right-margin-Regular-L" style="fill:none;stroke:#00AEEF;stroke-width:0.5;opacity:1.0;" x1="1529.9" x2="1529.9" y1="1460.79" y2="1580.12"/>
  <line id="left-margin-Medium-L" style="fill:none;stroke:#00AEEF;stroke-width:0.5;opacity:1.0;" x1="1665.09" x2="1665.09" y1="1460.79" y2="1580.12"/>
  <line id="right-margin-Medium-L" style="fill:none;stroke:#00AEEF;stroke-width:0.5;opacity:1.0;" x1="1828.03" x2="1828.03" y1="1460.79" y2="1580.12"/>
  <line id="left-margin-Semibold-L" style="fill:none;stroke:#00AEEF;stroke-width:0.5;opacity:1.0;" x1="1960.72" x2="1960.72" y1="1460.79" y2="1580.12"/>
  <line id="right-margin-Semibold-L" style="fill:none;stroke:#00AEEF;stroke-width:0.5;opacity:1.0;" x1="2125.81" x2="2125.81" y1="1460.79" y2="1580.12"/>
  <line id="left-margin-Bold-L" style="fill:none;stroke:#00AEEF;stroke-width:0.5;opacity:1.0;" x1="2256.02" x2="2256.02" y1="1460.79" y2="1580.12"/>
  <line id="right-margin-Bold-L" style="fill:none;stroke:#00AEEF;stroke-width:0.5;opacity:1.0;" x1="2423.94" x2="2423.94" y1="1460.79" y2="1580.12"/>
  <line id="left-margin-Heavy-L" style="fill:none;stroke:#00AEEF;stroke-width:0.5;opacity:1.0;" x1="2550.68" x2="2550.68" y1="1460.79" y2="1580.12"/>
  <line id="right-margin-Heavy-L" style="fill:none;stroke:#00AEEF;stroke-width:0.5;opacity:1.0;" x1="2722.7" x2="2722.7" y1="1460.79" y2="1580.12"/>
  <line id="left-margin-Black-L" style="fill:none;stroke:#00AEEF;stroke-width:0.5;opacity:1.0;" x1="2845.53" x2="2845.53" y1="1460.79" y2="1580.12"/>
  <line id="right-margin-Black-L" style="fill:none;stroke:#00AEEF;stroke-width:0.5;opacity:1.0;" x1="3021.27" x2="3021.27" y1="1460.79" y2="1580.12"/>
 </g>
 <g id="Symbols">
  <g id="Black-L" transform="matrix(1 0 0 1 2845.53 1556)">
   <path d="M85.8398 16.2598Q90.4297 16.2598 94.043 12.6953L134.521-27.6855Q136.035-29.1992 136.938-31.4941Q137.842-33.7891 137.842-36.084Q137.842-38.3789 136.938-40.6738Q136.035-42.9688 134.521-44.4824L94.043-84.9121Q90.4297-88.4766 85.8398-88.4766Q80.957-88.4766 77.9297-85.376Q74.9023-82.2754 74.9023-77.6855Q74.9023-75.0488 75.9521-73.0469Q77.002-71.0449 78.6133-69.4824L91.8945-56.2012L111.475-39.8926L116.357-46.2891L89.5508-47.5098L28.0762-47.5098Q22.6562-47.5098 19.3604-44.3604Q16.0645-41.2109 16.0645-36.084Q16.0645-30.957 19.3604-27.8076Q22.6562-24.6582 28.0762-24.6582L89.5508-24.6582L116.357-25.8789L111.475-32.2754L91.8945-15.9668L78.6133-2.73438Q77.002-1.17188 75.9521 0.830078Q74.9023 2.83203 74.9023 5.46875Q74.9023 10.0586 77.9297 13.1592Q80.957 16.2598 85.8398 16.2598ZM148.73 16.2598Q153.271 16.2598 156.47 13.1104Q159.668 9.96094 159.668 5.41992L159.668-77.5879Q159.668-82.1777 156.47-85.3271Q153.271-88.4766 148.73-88.4766Q144.189-88.4766 141.016-85.3271Q137.842-82.1777 137.842-77.5879L137.842 5.41992Q137.842 9.96094 141.016 13.1104Q144.189 16.2598 148.73 16.2598Z"/>
  </g>
  <g id="Heavy-L" transform="matrix(1 0 0 1 2550.68 1556)">
   <path d="M86.1816 14.9414Q90.1367 14.9414 93.2617 11.8652L134.131-28.9551Q135.498-30.2734 136.279-32.2266Q137.061-34.1797 137.061-36.1816Q137.061-38.1836 136.279-40.1367Q135.498-42.0898 134.131-43.457L93.2617-84.2773Q90.1367-87.3535 86.1816-87.3535Q81.9824-87.3535 79.3457-84.6924Q76.709-82.0312 76.709-78.0273Q76.709-75.8301 77.5879-74.0723Q78.4668-72.3145 79.834-70.9961L94.043-56.7383L114.307-39.4043L118.262-44.9707L93.6035-46.0449L26.3672-46.0449Q21.7285-46.0449 18.8965-43.3105Q16.0645-40.5762 16.0645-36.1816Q16.0645-31.7871 18.8965-29.0527Q21.7285-26.3184 26.3672-26.3184L93.6035-26.3184L118.262-27.3926L114.307-32.959L94.043-15.625L79.834-1.41602Q78.4668-0.0976562 77.5879 1.63574Q76.709 3.36914 76.709 5.61523Q76.709 9.61914 79.3457 12.2803Q81.9824 14.9414 86.1816 14.9414ZM146.484 14.9414Q150.439 14.9414 153.198 12.2314Q155.957 9.52148 155.957 5.56641L155.957-77.9297Q155.957-81.9336 153.198-84.6436Q150.439-87.3535 146.484-87.3535Q142.529-87.3535 139.795-84.6436Q137.061-81.9336 137.061-77.9297L137.061 5.56641Q137.061 9.52148 139.795 12.2314Q142.529 14.9414 146.484 14.9414Z"/>
  </g>
  <g id="Bold-L" transform="matrix(1 0 0 1 2256.02 1556)">
   <path d="M86.5723 13.5254Q89.7949 13.5254 92.3828 10.9863L133.74-30.3711Q134.912-31.4941 135.547-33.0811Q136.182-34.668 136.182-36.3281Q136.182-37.9395 135.547-39.5508Q134.912-41.1621 133.74-42.2852L92.3828-83.6426Q89.7949-86.1328 86.5723-86.1328Q83.1055-86.1328 80.9326-83.9355Q78.7598-81.7383 78.7598-78.4668Q78.7598-76.6602 79.4434-75.2197Q80.127-73.7793 81.25-72.6562L96.4844-57.373L117.432-38.8672L120.41-43.5059L98.1445-44.3848L24.4141-44.3848Q20.7031-44.3848 18.3838-42.1631Q16.0645-39.9414 16.0645-36.3281Q16.0645-32.7148 18.3838-30.4688Q20.7031-28.2227 24.4141-28.2227L98.1445-28.2227L120.41-29.1504L117.432-33.7402L96.4844-15.2832L81.25 0.0488281Q80.127 1.12305 79.4434 2.56348Q78.7598 4.00391 78.7598 5.81055Q78.7598 9.08203 80.9326 11.3037Q83.1055 13.5254 86.5723 13.5254ZM143.994 13.5254Q147.314 13.5254 149.585 11.3037Q151.855 9.08203 151.855 5.76172L151.855-78.3203Q151.855-81.6895 149.585-83.9111Q147.314-86.1328 143.994-86.1328Q140.674-86.1328 138.428-83.9111Q136.182-81.6895 136.182-78.3203L136.182 5.76172Q136.182 9.08203 138.428 11.3037Q140.674 13.5254 143.994 13.5254Z"/>
  </g>
  <g id="Semibold-L" transform="matrix(1 0 0 1 1960.72 1556)">
   <path d="M86.8164 12.5Q89.5508 12.5 91.7969 10.3516L133.398-31.2988Q134.473-32.2754 135.034-33.6426Q135.596-35.0098 135.596-36.377Q135.596-37.793 135.034-39.1357Q134.473-40.4785 133.398-41.5039L91.7969-83.1543Q89.5508-85.3027 86.8164-85.3027Q83.8867-85.3027 82.0068-83.4229Q80.127-81.543 80.127-78.7109Q80.127-77.2461 80.6885-76.001Q81.25-74.7559 82.2266-73.8281L98.1445-57.7637L119.58-38.4766L121.875-42.4805L101.221-43.2617L23.0957-43.2617Q19.9707-43.2617 18.0176-41.3574Q16.0645-39.4531 16.0645-36.377Q16.0645-33.3496 18.0176-31.4453Q19.9707-29.541 23.0957-29.541L101.221-29.541L121.875-30.3223L119.58-34.2285L98.1445-14.9902L82.2266 1.02539Q81.25 1.9043 80.6885 3.17383Q80.127 4.44336 80.127 5.95703Q80.127 8.74023 82.0068 10.6201Q83.8867 12.5 86.8164 12.5ZM142.285 12.5Q145.117 12.5 147.07 10.6201Q149.023 8.74023 149.023 5.9082L149.023-78.5645Q149.023-81.4941 147.07-83.3984Q145.117-85.3027 142.285-85.3027Q139.404-85.3027 137.476-83.3984Q135.547-81.4941 135.547-78.5645L135.547 5.9082Q135.547 8.74023 137.476 10.6201Q139.404 12.5 142.285 12.5Z"/>
  </g>
  <g id="Medium-L" transform="matrix(1 0 0 1 1665.09 1556)">
   <path d="M87.0117 11.7188Q89.4043 11.7188 91.3086 9.91211L133.203-32.0312Q134.131-32.9102 134.619-34.082Q135.107-35.2539 135.107-36.4258Q135.107-37.6465 134.619-38.7939Q134.131-39.9414 133.203-40.8691L91.3086-82.8125Q89.4043-84.6191 87.0117-84.6191Q84.4727-84.6191 82.8369-83.0078Q81.2012-81.3965 81.2012-78.9062Q81.2012-77.6855 81.665-76.5869Q82.1289-75.4883 82.959-74.707L99.3652-58.1055L121.24-38.2324L122.949-41.748L103.613-42.3828L22.0703-42.3828Q19.4336-42.3828 17.749-40.7471Q16.0645-39.1113 16.0645-36.4258Q16.0645-33.8379 17.749-32.1777Q19.4336-30.5176 22.0703-30.5176L103.613-30.5176L122.949-31.2012L121.24-34.6191L99.3652-14.7949L82.959 1.80664Q82.1289 2.53906 81.665 3.6377Q81.2012 4.73633 81.2012 6.00586Q81.2012 8.44727 82.8369 10.083Q84.4727 11.7188 87.0117 11.7188ZM140.967 11.7188Q143.457 11.7188 145.166 10.1074Q146.875 8.49609 146.875 5.95703L146.875-78.8086Q146.875-81.3477 145.166-82.9834Q143.457-84.6191 140.967-84.6191Q138.428-84.6191 136.743-82.9834Q135.059-81.3477 135.059-78.8086L135.059 5.95703Q135.059 8.49609 136.743 10.1074Q138.428 11.7188 140.967 11.7188Z"/>
  </g>
  <g id="Regular-L" transform="matrix(1 0 0 1 1369.79 1556)">
   <path d="M87.2559 10.7422Q89.1602 10.7422 90.7227 9.27734L132.91-33.0078Q133.74-33.7402 134.131-34.6436Q134.521-35.5469 134.521-36.5234Q134.521-37.5 134.131-38.4033Q133.74-39.3066 132.91-40.0879L90.7227-82.3242Q89.1602-83.7891 87.2559-83.7891Q85.2539-83.7891 83.9111-82.4951Q82.5684-81.2012 82.5684-79.1992Q82.5684-78.2715 82.9102-77.3682Q83.252-76.4648 83.8867-75.8301L101.025-58.4961L123.389-37.8418L124.414-40.7227L106.689-41.2598L20.752-41.2598Q18.7012-41.2598 17.3828-39.9414Q16.0645-38.623 16.0645-36.5234Q16.0645-34.4727 17.3828-33.1299Q18.7012-31.7871 20.752-31.7871L106.689-31.7871L124.414-32.373L123.389-35.1562L101.025-14.5508L83.8867 2.7832Q83.252 3.36914 82.9102 4.27246Q82.5684 5.17578 82.5684 6.15234Q82.5684 8.10547 83.9111 9.42383Q85.2539 10.7422 87.2559 10.7422ZM139.258 10.7422Q141.309 10.7422 142.676 9.44824Q144.043 8.1543 144.043 6.10352L144.043-79.0527Q144.043-81.1523 142.676-82.4707Q141.309-83.7891 139.258-83.7891Q137.158-83.7891 135.815-82.4707Q134.473-81.1523 134.473-79.0527L134.473 6.10352Q134.473 8.1543 135.815 9.44824Q137.158 10.7422 139.258 10.7422Z"/>
  </g>
  <g id="Light-L" transform="matrix(1 0 0 1 1074.72 1556)">
   <path d="M87.207 9.91211Q88.623 9.91211 89.7949 8.83789L132.471-34.0332Q133.105-34.5703 133.398-35.2295Q133.691-35.8887 133.691-36.6699Q133.691-37.4023 133.398-38.0615Q133.105-38.7207 132.471-39.3066L89.7949-82.1289Q88.623-83.252 87.207-83.252Q85.6934-83.252 84.6924-82.2754Q83.6914-81.2988 83.6914-79.7852Q83.6914-79.0527 83.9355-78.3691Q84.1797-77.6855 84.668-77.2461L105.908-55.8594L125.049-37.8418L125.781-39.7949L109.473-40.1855L19.5801-40.1855Q18.0664-40.1855 17.0654-39.209Q16.0645-38.2324 16.0645-36.6699Q16.0645-35.1074 17.0654-34.1064Q18.0664-33.1055 19.5801-33.1055L109.473-33.1055L125.781-33.5449L125.049-35.4492L105.908-17.4805L84.668 3.90625Q84.1797 4.3457 83.9355 5.0293Q83.6914 5.71289 83.6914 6.49414Q83.6914 7.91016 84.6924 8.91113Q85.6934 9.91211 87.207 9.91211ZM137.207 9.91211Q138.721 9.91211 139.746 8.93555Q140.771 7.95898 140.771 6.44531L140.771-79.6875Q140.771-81.25 139.746-82.251Q138.721-83.252 137.207-83.252Q135.596-83.252 134.595-82.251Q133.594-81.25 133.594-79.6875L133.594 6.44531Q133.594 7.95898 134.595 8.93555Q135.596 9.91211 137.207 9.91211Z"/>
  </g>
  <g id="Thin-L" transform="matrix(1 0 0 1 780.153 1556)">
   <path d="M87.207 8.83789Q87.9883 8.83789 88.623 8.20312L131.934-35.4004Q132.275-35.6934 132.422-36.0352Q132.568-36.377 132.568-36.8164Q132.568-37.2559 132.422-37.6221Q132.275-37.9883 131.934-38.2812L88.623-81.8848Q87.9883-82.5195 87.207-82.5195Q86.2793-82.5195 85.7178-81.958Q85.1562-81.3965 85.1562-80.5664Q85.1562-80.127 85.3027-79.7363Q85.4492-79.3457 85.6934-79.1016L112.402-52.3438L127.246-37.8418L127.637-38.5742L113.135-38.7695L18.0176-38.7695Q17.2363-38.7695 16.6504-38.2324Q16.0645-37.6953 16.0645-36.8164Q16.0645-35.9863 16.6504-35.4248Q17.2363-34.8633 18.0176-34.8633L113.135-34.8633L127.637-35.1074L127.246-35.8398L112.402-21.2891L85.6934 5.41992Q85.4492 5.66406 85.3027 6.0791Q85.1562 6.49414 85.1562 6.93359Q85.1562 7.66602 85.7178 8.25195Q86.2793 8.83789 87.207 8.83789ZM134.424 8.83789Q135.303 8.83789 135.889 8.27637Q136.475 7.71484 136.475 6.83594L136.475-80.5176Q136.475-81.3477 135.889-81.9336Q135.303-82.5195 134.424-82.5195Q133.594-82.5195 133.008-81.9336Q132.422-81.3477 132.422-80.5176L132.422 6.83594Q132.422 7.71484 133.008 8.27637Q133.594 8.83789 134.424 8.83789Z"/>
  </g>
  <g id="Ultralight-L" transform="matrix(1 0 0 1 484.54 1556)">
   <path d="M87.1582 8.30078Q87.5977 8.30078 87.9883 7.91016L131.641-36.084Q131.836-36.2793 131.909-36.4502Q131.982-36.6211 131.982-36.9141Q131.982-37.1582 131.909-37.3779Q131.836-37.5977 131.641-37.793L87.9883-81.7871Q87.5977-82.1777 87.1582-82.1777Q86.5723-82.1777 86.2549-81.8115Q85.9375-81.4453 85.9375-80.957Q85.9375-80.6641 86.0107-80.4199Q86.084-80.1758 86.1816-80.0293L115.674-50.5371L128.369-37.8418L128.564-37.9395L114.99-38.0371L17.1875-38.0371Q16.7969-38.0371 16.4307-37.7197Q16.0645-37.4023 16.0645-36.9141Q16.0645-36.4258 16.4307-36.1084Q16.7969-35.791 17.1875-35.791L114.99-35.791L128.564-35.9375L128.369-36.0352L115.674-23.291L86.1816 6.20117Q86.084 6.29883 86.0107 6.56738Q85.9375 6.83594 85.9375 7.12891Q85.9375 7.56836 86.2549 7.93457Q86.5723 8.30078 87.1582 8.30078ZM133.057 8.30078Q133.545 8.30078 133.911 7.93457Q134.277 7.56836 134.277 7.08008L134.277-80.9082Q134.277-81.3965 133.911-81.7871Q133.545-82.1777 133.057-82.1777Q132.52-82.1777 132.178-81.7871Q131.836-81.3965 131.836-80.9082L131.836 7.08008Q131.836 7.56836 132.178 7.93457Q132.52 8.30078 133.057 8.30078Z"/>
  </g>
  <g id="Black-M" transform="matrix(1 0 0 1 2864.28 1126)">
   <path d="M66.2598 5.51758Q70.166 5.51758 73.2422 2.44141L104.443-28.6621Q105.713-29.9316 106.47-31.9092Q107.227-33.8867 107.227-35.8398Q107.227-37.793 106.47-39.7705Q105.713-41.748 104.443-43.0176L73.2422-74.2188Q70.166-77.2461 66.2598-77.2461Q62.0605-77.2461 59.4482-74.585Q56.8359-71.9238 56.8359-68.0176Q56.8359-65.7227 57.7881-64.0137Q58.7402-62.3047 60.1074-60.9863L71.0449-50.1465L84.5703-39.2578L89.0137-44.6289L66.8457-45.6543L22.8027-45.6543Q18.1152-45.6543 15.2832-42.9688Q12.4512-40.2832 12.4512-35.8398Q12.4512-31.3965 15.2832-28.7109Q18.1152-26.0254 22.8027-26.0254L66.8457-26.0254L89.0137-27.0508L84.5703-32.4219L71.0449-21.5332L60.1074-10.7422Q58.7402-9.42383 57.7881-7.71484Q56.8359-6.00586 56.8359-3.71094Q56.8359 0.195312 59.4482 2.85645Q62.0605 5.51758 66.2598 5.51758ZM116.504 5.51758Q120.312 5.51758 123.047 2.80762Q125.781 0.0976562 125.781-3.75977L125.781-67.9688Q125.781-71.8262 123.047-74.5361Q120.312-77.2461 116.504-77.2461Q112.646-77.2461 109.937-74.5361Q107.227-71.8262 107.227-67.9688L107.227-3.75977Q107.227 0.0976562 109.937 2.80762Q112.646 5.51758 116.504 5.51758Z"/>
  </g>
  <g id="Heavy-M" transform="matrix(1 0 0 1 2569.01 1126)">
   <path d="M66.6016 4.39453Q69.9707 4.39453 72.6562 1.75781L104.15-29.6875Q105.322-30.8105 105.981-32.5195Q106.641-34.2285 106.641-35.9375Q106.641-37.5977 105.981-39.3066Q105.322-41.0156 104.15-42.1875L72.6562-73.6328Q69.9707-76.2695 66.6016-76.2695Q62.9395-76.2695 60.6689-73.9746Q58.3984-71.6797 58.3984-68.2617Q58.3984-66.3086 59.1797-64.7949Q59.9609-63.2812 61.1328-62.1582L72.0703-51.2207L86.9629-38.7695L90.5762-43.5547L70.2148-44.4336L21.3867-44.4336Q17.334-44.4336 14.8926-42.0898Q12.4512-39.7461 12.4512-35.9375Q12.4512-32.0801 14.8926-29.7363Q17.334-27.3926 21.3867-27.3926L70.2148-27.3926L90.5762-28.2715L86.9629-33.0566L72.0703-20.6055L61.1328-9.7168Q59.9609-8.59375 59.1797-7.08008Q58.3984-5.56641 58.3984-3.61328Q58.3984-0.195312 60.6689 2.09961Q62.9395 4.39453 66.6016 4.39453ZM114.746 4.39453Q118.115 4.39453 120.508 2.05078Q122.9-0.292969 122.9-3.66211L122.9-68.1641Q122.9-71.582 120.508-73.9258Q118.115-76.2695 114.746-76.2695Q111.377-76.2695 109.009-73.9258Q106.641-71.582 106.641-68.1641L106.641-3.66211Q106.641-0.292969 109.009 2.05078Q111.377 4.39453 114.746 4.39453Z"/>
  </g>
  <g id="Bold-M" transform="matrix(1 0 0 1 2273.94 1126)">
   <path d="M66.9434 3.17383Q69.7754 3.17383 72.0215 0.976562L103.857-30.8105Q104.883-31.7871 105.444-33.1787Q106.006-34.5703 106.006-36.0352Q106.006-37.4512 105.444-38.8428Q104.883-40.2344 103.857-41.2598L72.0215-73.0469Q69.7754-75.2441 66.9434-75.2441Q63.9648-75.2441 62.0361-73.3154Q60.1074-71.3867 60.1074-68.5059Q60.1074-66.9434 60.7422-65.6738Q61.377-64.4043 62.3535-63.4277L73.291-52.4902L89.6484-38.2812L92.334-42.334L73.9746-43.1152L19.7754-43.1152Q16.5039-43.1152 14.4775-41.1621Q12.4512-39.209 12.4512-36.0352Q12.4512-32.8613 14.4775-30.8838Q16.5039-28.9062 19.7754-28.9062L73.9746-28.9062L92.334-29.6875L89.6484-33.7402L73.291-19.5801L62.3535-8.59375Q61.377-7.66602 60.7422-6.39648Q60.1074-5.12695 60.1074-3.56445Q60.1074-0.683594 62.0361 1.24512Q63.9648 3.17383 66.9434 3.17383ZM112.793 3.17383Q115.674 3.17383 117.651 1.2207Q119.629-0.732422 119.629-3.56445L119.629-68.4082Q119.629-71.2891 117.651-73.2666Q115.674-75.2441 112.793-75.2441Q109.912-75.2441 107.959-73.2666Q106.006-71.2891 106.006-68.4082L106.006-3.56445Q106.006-0.732422 107.959 1.2207Q109.912 3.17383 112.793 3.17383Z"/>
  </g>
  <g id="Semibold-M" transform="matrix(1 0 0 1 1978.35 1126)">
   <path d="M67.1875 2.34375Q69.6289 2.34375 71.582 0.439453L103.662-31.543Q104.541-32.4219 105.029-33.6182Q105.518-34.8145 105.518-36.084Q105.518-37.3047 105.029-38.501Q104.541-39.6973 103.662-40.5762L71.582-72.6074Q69.6289-74.4629 67.1875-74.4629Q64.6484-74.4629 62.9639-72.8027Q61.2793-71.1426 61.2793-68.7012Q61.2793-67.334 61.792-66.2354Q62.3047-65.1367 63.1348-64.3066L74.0723-53.3203L91.4551-37.8906L93.5547-41.4551L76.5625-42.1387L18.6523-42.1387Q15.8691-42.1387 14.1602-40.4541Q12.4512-38.7695 12.4512-36.084Q12.4512-33.3496 14.1602-31.6406Q15.8691-29.9316 18.6523-29.9316L76.5625-29.9316L93.5547-30.6641L91.4551-34.1797L74.0723-18.8477L63.1348-7.8125Q62.3047-6.98242 61.792-5.88379Q61.2793-4.78516 61.2793-3.4668Q61.2793-0.976562 62.9639 0.683594Q64.6484 2.34375 67.1875 2.34375ZM111.426 2.34375Q113.965 2.34375 115.674 0.65918Q117.383-1.02539 117.383-3.51562L117.383-68.5547Q117.383-71.0938 115.674-72.7783Q113.965-74.4629 111.426-74.4629Q108.936-74.4629 107.227-72.7783Q105.518-71.0938 105.518-68.5547L105.518-3.51562Q105.518-1.02539 107.227 0.65918Q108.936 2.34375 111.426 2.34375Z"/>
  </g>
  <g id="Medium-M" transform="matrix(1 0 0 1 1682.49 1126)">
   <path d="M67.3828 1.66016Q69.5312 1.66016 71.2402 0.0488281L103.467-32.1289Q104.297-32.959 104.736-33.9844Q105.176-35.0098 105.176-36.1328Q105.176-37.207 104.736-38.2324Q104.297-39.2578 103.467-40.0879L71.2402-72.2656Q69.5312-73.9258 67.3828-73.9258Q65.1367-73.9258 63.6719-72.4609Q62.207-70.9961 62.207-68.7988Q62.207-67.6758 62.6221-66.6992Q63.0371-65.7227 63.7695-64.9902L74.707-53.9551L92.8711-37.5977L94.4824-40.8203L78.5156-41.4551L17.8223-41.4551Q15.4297-41.4551 13.9404-39.9658Q12.4512-38.4766 12.4512-36.1328Q12.4512-33.7402 13.9404-32.251Q15.4297-30.7617 17.8223-30.7617L78.5156-30.7617L94.4824-31.3965L92.8711-34.5215L74.707-18.3105L63.7695-7.22656Q63.0371-6.49414 62.6221-5.51758Q62.207-4.54102 62.207-3.41797Q62.207-1.2207 63.6719 0.219727Q65.1367 1.66016 67.3828 1.66016ZM110.4 1.66016Q112.646 1.66016 114.16 0.219727Q115.674-1.2207 115.674-3.41797L115.674-68.7012Q115.674-70.9473 114.16-72.4365Q112.646-73.9258 110.4-73.9258Q108.154-73.9258 106.665-72.4365Q105.176-70.9473 105.176-68.7012L105.176-3.41797Q105.176-1.2207 106.665 0.219727Q108.154 1.66016 110.4 1.66016Z"/>
  </g>
  <g id="Regular-M" transform="matrix(1 0 0 1 1386.88 1126)">
   <path d="M67.627 0.830078Q69.3848 0.830078 70.8008-0.488281L103.271-32.9102Q104.004-33.5938 104.37-34.4238Q104.736-35.2539 104.736-36.1816Q104.736-37.0605 104.37-37.8906Q104.004-38.7207 103.271-39.4531L70.8008-71.8262Q69.3848-73.1934 67.627-73.1934Q65.8203-73.1934 64.5996-71.9971Q63.3789-70.8008 63.3789-68.9941Q63.3789-68.1152 63.6719-67.2852Q63.9648-66.4551 64.5508-65.8691L75.4883-54.7852L94.6777-37.2559L95.6543-39.9902L81.1035-40.5273L16.748-40.5273Q14.8438-40.5273 13.6475-39.3066Q12.4512-38.0859 12.4512-36.1816Q12.4512-34.2773 13.6475-33.0322Q14.8438-31.7871 16.748-31.7871L81.1035-31.7871L95.6543-32.3242L94.6777-35.0098L75.4883-17.5781L64.5508-6.44531Q63.9648-5.85938 63.6719-5.0293Q63.3789-4.19922 63.3789-3.36914Q63.3789-1.51367 64.5996-0.341797Q65.8203 0.830078 67.627 0.830078ZM109.082 0.830078Q110.986 0.830078 112.231-0.341797Q113.477-1.51367 113.477-3.36914L113.477-68.8477Q113.477-70.752 112.231-71.9727Q110.986-73.1934 109.082-73.1934Q107.178-73.1934 105.957-71.9727Q104.736-70.752 104.736-68.8477L104.736-3.36914Q104.736-1.51367 105.957-0.341797Q107.178 0.830078 109.082 0.830078Z"/>
  </g>
  <g id="Light-M" transform="matrix(1 0 0 1 1091.63 1126)">
   <path d="M67.5781 0.0976562Q68.9453 0.0976562 70.0195-0.878906L102.881-33.8379Q103.418-34.3262 103.711-34.9609Q104.004-35.5957 104.004-36.2793Q104.004-36.9629 103.711-37.5732Q103.418-38.1836 102.881-38.7695L70.0195-71.6797Q68.9453-72.7051 67.5781-72.7051Q66.2109-72.7051 65.2832-71.8018Q64.3555-70.8984 64.3555-69.5312Q64.3555-68.8477 64.5752-68.2129Q64.7949-67.5781 65.2344-67.1387L79.8828-52.3926L96.1914-37.2559L96.875-39.1602L83.5938-39.5508L15.6738-39.5508Q14.2578-39.5508 13.3545-38.6475Q12.4512-37.7441 12.4512-36.2793Q12.4512-34.8633 13.3545-33.9111Q14.2578-32.959 15.6738-32.959L83.5938-32.959L96.875-33.3984L96.1914-35.2539L79.8828-20.166L65.2344-5.41992Q64.7949-4.98047 64.5752-4.3457Q64.3555-3.71094 64.3555-3.07617Q64.3555-1.66016 65.2832-0.78125Q66.2109 0.0976562 67.5781 0.0976562ZM107.227 0.0976562Q108.691 0.0976562 109.619-0.805664Q110.547-1.70898 110.547-3.07617L110.547-69.3848Q110.547-70.8496 109.619-71.7773Q108.691-72.7051 107.227-72.7051Q105.811-72.7051 104.883-71.7773Q103.955-70.8496 103.955-69.3848L103.955-3.07617Q103.955-1.70898 104.883-0.805664Q105.811 0.0976562 107.227 0.0976562Z"/>
  </g>
  <g id="Thin-M" transform="matrix(1 0 0 1 796.852 1126)">
   <path d="M67.5781-0.878906Q68.3105-0.878906 68.9453-1.41602L102.393-35.0586Q102.686-35.3516 102.832-35.6934Q102.979-36.0352 102.979-36.4258Q102.979-36.8652 102.832-37.207Q102.686-37.5488 102.393-37.8418L68.9453-71.4355Q68.3105-72.0215 67.5781-72.0215Q66.748-72.0215 66.2354-71.5088Q65.7227-70.9961 65.7227-70.2148Q65.7227-69.8242 65.8203-69.4336Q65.918-69.043 66.1621-68.7988L85.6934-49.2676L98.1445-37.2559L98.4863-38.0859L86.8652-38.2812L14.3066-38.2812Q13.5254-38.2812 12.9883-37.7686Q12.4512-37.2559 12.4512-36.4258Q12.4512-35.6445 12.9883-35.1074Q13.5254-34.5703 14.3066-34.5703L86.8652-34.5703L98.4863-34.7656L98.1445-35.5957L85.6934-23.6328L66.1621-4.05273Q65.918-3.80859 65.8203-3.44238Q65.7227-3.07617 65.7227-2.68555Q65.7227-1.9043 66.2354-1.3916Q66.748-0.878906 67.5781-0.878906ZM104.785-0.878906Q105.615-0.878906 106.152-1.41602Q106.689-1.95312 106.689-2.68555L106.689-70.1172Q106.689-70.9473 106.152-71.4844Q105.615-72.0215 104.785-72.0215Q103.955-72.0215 103.418-71.4844Q102.881-70.9473 102.881-70.1172L102.881-2.68555Q102.881-1.95312 103.418-1.41602Q103.955-0.878906 104.785-0.878906Z"/>
  </g>
  <g id="Ultralight-M" transform="matrix(1 0 0 1 501.117 1126)">
   <path d="M67.5293-1.36719Q68.0176-1.36719 68.4082-1.66016L102.148-35.6934Q102.295-35.8398 102.393-36.0352Q102.49-36.2305 102.49-36.5234Q102.49-36.7676 102.393-36.9629Q102.295-37.1582 102.148-37.3535L68.4082-71.3379Q68.0176-71.6797 67.5293-71.6797Q66.9922-71.6797 66.6748-71.3623Q66.3574-71.0449 66.3574-70.6055Q66.3574-70.3125 66.4307-70.0684Q66.5039-69.8242 66.6504-69.6777L88.6719-47.6562L99.1699-37.2559L99.3164-37.5488L88.5742-37.5977L13.5742-37.5977Q13.1348-37.5977 12.793-37.3047Q12.4512-37.0117 12.4512-36.5234Q12.4512-36.0352 12.793-35.6934Q13.1348-35.3516 13.5742-35.3516L88.5742-35.3516L99.3164-35.498L99.1699-35.791L88.6719-25.3906L66.6504-3.36914Q66.5039-3.22266 66.4307-2.97852Q66.3574-2.73438 66.3574-2.44141Q66.3574-2.00195 66.6748-1.68457Q66.9922-1.36719 67.5293-1.36719ZM103.564-1.36719Q104.053-1.36719 104.395-1.70898Q104.736-2.05078 104.736-2.49023L104.736-70.459Q104.736-70.9961 104.395-71.3379Q104.053-71.6797 103.564-71.6797Q103.027-71.6797 102.686-71.3379Q102.344-70.9961 102.344-70.459L102.344-2.49023Q102.344-2.05078 102.686-1.70898Q103.027-1.36719 103.564-1.36719Z"/>
  </g>
  <g id="Black-S" transform="matrix(1 0 0 1 2878.88 696)">
   <path d="M51.8066-3.02734Q55.0293-3.02734 57.5195-5.51758L81.8848-29.834Q84.1309-32.0801 84.1309-35.6934Q84.1309-39.3066 81.8848-41.5527L57.5195-65.918Q55.0293-68.4082 51.8066-68.4082Q48.3887-68.4082 46.2646-66.2354Q44.1406-64.0625 44.1406-60.8887Q44.1406-58.9844 44.9219-57.6172Q45.7031-56.25 46.8262-55.127L55.6152-46.4355L65.625-38.5254L69.3359-42.8711L51.5137-43.7012L18.2617-43.7012Q14.4043-43.7012 12.085-41.5039Q9.76562-39.3066 9.76562-35.6934Q9.76562-32.0801 12.085-29.8828Q14.4043-27.6855 18.2617-27.6855L51.5137-27.6855L69.3359-28.5156L65.625-32.8613L55.6152-24.9512L46.8262-16.3086Q45.7031-15.2344 44.9219-13.8428Q44.1406-12.4512 44.1406-10.5469Q44.1406-7.37305 46.2646-5.2002Q48.3887-3.02734 51.8066-3.02734ZM91.6992-3.02734Q94.8242-3.02734 97.0459-5.24902Q99.2676-7.4707 99.2676-10.5957L99.2676-60.8398Q99.2676-64.0137 97.0459-66.2109Q94.8242-68.4082 91.6992-68.4082Q88.5742-68.4082 86.3525-66.2109Q84.1309-64.0137 84.1309-60.8398L84.1309-10.5957Q84.1309-7.4707 86.3525-5.24902Q88.5742-3.02734 91.6992-3.02734Z"/>
  </g>
  <g id="Heavy-S" transform="matrix(1 0 0 1 2583.22 696)">
   <path d="M52.0996-3.85742Q54.9316-3.85742 57.1289-6.05469L81.6895-30.5664Q83.7402-32.5684 83.7402-35.7422Q83.7402-38.916 81.6895-40.918L57.1289-65.4785Q54.9316-67.627 52.0996-67.627Q49.1211-67.627 47.2168-65.7227Q45.3125-63.8184 45.3125-61.0352Q45.3125-59.375 45.9717-58.1543Q46.6309-56.9336 47.6562-55.957L55.957-47.6562L67.4805-38.1348L70.5078-42.041L54.0527-42.7734L17.1875-42.7734Q13.8184-42.7734 11.792-40.8447Q9.76562-38.916 9.76562-35.7422Q9.76562-32.5684 11.792-30.6396Q13.8184-28.7109 17.1875-28.7109L54.0527-28.7109L70.5078-29.4434L67.4805-33.3496L55.957-23.8281L47.6562-15.5762Q46.6309-14.5996 45.9717-13.3789Q45.3125-12.1582 45.3125-10.498Q45.3125-7.71484 47.2168-5.78613Q49.1211-3.85742 52.0996-3.85742ZM90.4297-3.85742Q93.2129-3.85742 95.1904-5.81055Q97.168-7.76367 97.168-10.5469L97.168-60.9375Q97.168-63.7695 95.1904-65.6982Q93.2129-67.627 90.4297-67.627Q87.6465-67.627 85.6934-65.6982Q83.7402-63.7695 83.7402-60.9375L83.7402-10.5469Q83.7402-7.76367 85.6934-5.81055Q87.6465-3.85742 90.4297-3.85742Z"/>
  </g>
  <g id="Bold-S" transform="matrix(1 0 0 1 2287.68 696)">
   <path d="M52.4414-4.83398Q54.834-4.83398 56.6895-6.68945L81.4941-31.3965Q83.3008-33.1543 83.3008-35.791Q83.3008-38.4277 81.4941-40.2344L56.6895-64.9414Q54.834-66.7969 52.4414-66.7969Q49.9023-66.7969 48.291-65.1855Q46.6797-63.5742 46.6797-61.1816Q46.6797-59.8145 47.1924-58.7646Q47.7051-57.7148 48.5352-56.8848L56.3477-49.0723L69.5801-37.6953L71.875-41.1133L56.9336-41.7969L15.9668-41.7969Q13.1836-41.7969 11.4746-40.1367Q9.76562-38.4766 9.76562-35.791Q9.76562-33.1543 11.4746-31.4941Q13.1836-29.834 15.9668-29.834L56.9336-29.834L71.875-30.4688L69.5801-33.9355L56.3477-22.5586L48.5352-14.7461Q47.7051-13.9648 47.1924-12.8906Q46.6797-11.8164 46.6797-10.498Q46.6797-8.05664 48.291-6.44531Q49.9023-4.83398 52.4414-4.83398ZM89.0625-4.83398Q91.4551-4.83398 93.1396-6.46973Q94.8242-8.10547 94.8242-10.498L94.8242-61.084Q94.8242-63.5254 93.1396-65.1611Q91.4551-66.7969 89.0625-66.7969Q86.6211-66.7969 84.9609-65.1611Q83.3008-63.5254 83.3008-61.084L83.3008-10.498Q83.3008-8.10547 84.9609-6.46973Q86.6211-4.83398 89.0625-4.83398Z"/>
  </g>
  <g id="Semibold-S" transform="matrix(1 0 0 1 1991.8 696)">
   <path d="M52.6367-5.46875Q54.7363-5.46875 56.3965-7.08008L81.3477-31.9824Q83.0078-33.5449 83.0078-35.8398Q83.0078-38.0859 81.3477-39.6973L56.3965-64.5996Q54.7363-66.2109 52.6367-66.2109Q50.4395-66.2109 48.999-64.7949Q47.5586-63.3789 47.5586-61.2793Q47.5586-60.1074 47.998-59.1797Q48.4375-58.252 49.1699-57.5195L56.5918-50L70.9961-37.3535L72.7539-40.4785L58.8867-41.0645L15.1367-41.0645Q12.6953-41.0645 11.2305-39.624Q9.76562-38.1836 9.76562-35.8398Q9.76562-33.4961 11.2305-32.0557Q12.6953-30.6152 15.1367-30.6152L58.8867-30.6152L72.7539-31.2012L70.9961-34.2773L56.5918-21.6309L49.1699-14.1602Q48.4375-13.4766 47.998-12.5244Q47.5586-11.5723 47.5586-10.4492Q47.5586-8.30078 48.999-6.88477Q50.4395-5.46875 52.6367-5.46875ZM88.0859-5.46875Q90.2344-5.46875 91.6992-6.90918Q93.1641-8.34961 93.1641-10.4492L93.1641-61.1816Q93.1641-63.3301 91.6992-64.7705Q90.2344-66.2109 88.0859-66.2109Q85.8887-66.2109 84.4238-64.7705Q82.959-63.3301 82.959-61.1816L82.959-10.4492Q82.959-8.34961 84.4238-6.90918Q85.8887-5.46875 88.0859-5.46875Z"/>
  </g>
  <g id="Medium-S" transform="matrix(1 0 0 1 1695.7 696)">
   <path d="M52.832-5.95703Q54.6875-5.95703 56.1523-7.42188L81.25-32.373Q82.7637-33.8379 82.7637-35.8398Q82.7637-37.8418 81.25-39.3555L56.1523-64.3066Q54.6875-65.7715 52.832-65.7715Q50.8789-65.7715 49.5605-64.502Q48.2422-63.2324 48.2422-61.3281Q48.2422-60.3516 48.6084-59.4971Q48.9746-58.6426 49.6094-58.0078L56.7871-50.7324L72.0703-37.1094L73.4375-39.9902L60.4004-40.5273L14.502-40.5273Q12.3535-40.5273 11.0596-39.2334Q9.76562-37.9395 9.76562-35.8398Q9.76562-33.7891 11.0596-32.4951Q12.3535-31.2012 14.502-31.2012L60.4004-31.2012L73.4375-31.7383L72.0703-34.5703L56.7871-20.9961L49.6094-13.7695Q48.9746-13.1348 48.6084-12.2803Q48.2422-11.4258 48.2422-10.4492Q48.2422-8.49609 49.5605-7.22656Q50.8789-5.95703 52.832-5.95703ZM87.3535-5.95703Q89.3066-5.95703 90.625-7.22656Q91.9434-8.49609 91.9434-10.4492L91.9434-61.2305Q91.9434-63.2324 90.625-64.502Q89.3066-65.7715 87.3535-65.7715Q85.3516-65.7715 84.0332-64.502Q82.7148-63.2324 82.7148-61.2305L82.7148-10.4492Q82.7148-8.49609 84.0332-7.22656Q85.3516-5.95703 87.3535-5.95703Z"/>
  </g>
  <g id="Regular-S" transform="matrix(1 0 0 1 1399.8 696)">
   <path d="M53.0273-6.5918Q54.5898-6.5918 55.8594-7.8125L81.1035-32.959Q82.4707-34.2285 82.4707-35.8887Q82.4707-37.5488 81.1035-38.8672L55.8594-63.9648Q54.5898-65.1855 53.0273-65.1855Q51.416-65.1855 50.293-64.1113Q49.1699-63.0371 49.1699-61.4258Q49.1699-60.6445 49.4385-59.9121Q49.707-59.1797 50.2441-58.6426L57.0312-51.6602L73.4863-36.8164L74.3652-39.3555L62.3535-39.8438L13.6719-39.8438Q11.9141-39.8438 10.8398-38.7451Q9.76562-37.6465 9.76562-35.8887Q9.76562-34.1797 10.8398-33.0811Q11.9141-31.9824 13.6719-31.9824L62.3535-31.9824L74.3652-32.4219L73.4863-34.9609L57.0312-20.1172L50.2441-13.1836Q49.707-12.6465 49.4385-11.9141Q49.1699-11.1816 49.1699-10.4004Q49.1699-8.74023 50.293-7.66602Q51.416-6.5918 53.0273-6.5918ZM86.377-6.5918Q88.0859-6.5918 89.209-7.66602Q90.332-8.74023 90.332-10.4004L90.332-61.3281Q90.332-63.0371 89.209-64.1113Q88.0859-65.1855 86.377-65.1855Q84.668-65.1855 83.5449-64.1113Q82.4219-63.0371 82.4219-61.3281L82.4219-10.4004Q82.4219-8.74023 83.5449-7.66602Q84.668-6.5918 86.377-6.5918Z"/>
  </g>
  <g id="Light-S" transform="matrix(1 0 0 1 1104.38 696)">
   <path d="M52.9785-7.22656Q54.1992-7.22656 55.127-8.1543L80.7617-33.7891Q81.7871-34.7656 81.7871-35.9863Q81.7871-37.2559 80.7617-38.2324L55.127-63.8184Q54.1992-64.7461 52.9785-64.7461Q51.7578-64.7461 50.9033-63.9404Q50.0488-63.1348 50.0488-61.9141Q50.0488-61.2793 50.2441-60.7178Q50.4395-60.1562 50.8789-59.7656L60.9375-49.5605L74.8047-36.8164L75.4395-38.623L64.5508-39.0137L12.7441-39.0137Q11.4258-39.0137 10.5957-38.1592Q9.76562-37.3047 9.76562-35.9863Q9.76562-34.7168 10.5957-33.8867Q11.4258-33.0566 12.7441-33.0566L64.5508-33.0566L75.4395-33.3496L74.8047-35.1562L60.9375-22.4121L50.8789-12.2559Q50.4395-11.8652 50.2441-11.3037Q50.0488-10.7422 50.0488-10.1562Q50.0488-8.88672 50.9033-8.05664Q51.7578-7.22656 52.9785-7.22656ZM84.7656-7.22656Q86.0352-7.22656 86.8896-8.05664Q87.7441-8.88672 87.7441-10.1562L87.7441-61.8164Q87.7441-63.0859 86.8896-63.916Q86.0352-64.7461 84.7656-64.7461Q83.4473-64.7461 82.5928-63.916Q81.7383-63.0859 81.7383-61.8164L81.7383-10.1562Q81.7383-8.88672 82.5928-8.05664Q83.4473-7.22656 84.7656-7.22656Z"/>
  </g>
  <g id="Thin-S" transform="matrix(1 0 0 1 809.376 696)">
   <path d="M52.9785-8.10547Q53.6621-8.10547 54.1992-8.64258L80.3223-34.8633Q80.9082-35.4004 80.9082-36.1328Q80.9082-36.8652 80.3223-37.4023L54.1992-63.6719Q53.6621-64.1602 52.9785-64.1602Q52.1973-64.1602 51.709-63.6963Q51.2207-63.2324 51.2207-62.5Q51.2207-62.1094 51.3428-61.792Q51.4648-61.4746 51.709-61.2305L66.0645-46.8262L76.5625-36.8164L76.9043-37.6465L67.4316-37.8906L11.4746-37.8906Q10.7422-37.8906 10.2539-37.4023Q9.76562-36.9141 9.76562-36.1328Q9.76562-35.3516 10.2539-34.8877Q10.7422-34.4238 11.4746-34.4238L67.4316-34.4238L76.9043-34.6191L76.5625-35.4492L66.0645-25.4395L51.709-11.084Q51.4648-10.8398 51.3428-10.498Q51.2207-10.1562 51.2207-9.81445Q51.2207-9.08203 51.709-8.59375Q52.1973-8.10547 52.9785-8.10547ZM82.5684-8.10547Q83.3008-8.10547 83.8135-8.59375Q84.3262-9.08203 84.3262-9.81445L84.3262-62.4512Q84.3262-63.1836 83.8135-63.6719Q83.3008-64.1602 82.5684-64.1602Q81.8359-64.1602 81.3232-63.6719Q80.8105-63.1836 80.8105-62.4512L80.8105-9.81445Q80.8105-9.08203 81.3232-8.59375Q81.8359-8.10547 82.5684-8.10547Z"/>
  </g>
  <g id="Ultralight-S" transform="matrix(1 0 0 1 513.544 696)">
   <path d="M52.9297-8.54492Q53.3691-8.54492 53.7109-8.88672L80.127-35.4004Q80.4199-35.791 80.4199-36.2305Q80.4199-36.6699 80.127-37.0117L53.7109-63.5742Q53.3691-63.8672 52.9297-63.8672Q52.3926-63.8672 52.0996-63.5742Q51.8066-63.2812 51.8066-62.8418Q51.8066-62.5488 51.8799-62.3291Q51.9531-62.1094 52.0996-62.0117L68.7012-45.4102L77.4414-36.8164L77.6367-37.1582L68.9453-37.3047L10.8398-37.3047Q10.4004-37.3047 10.083-36.9873Q9.76562-36.6699 9.76562-36.2305Q9.76562-35.7422 10.083-35.4492Q10.4004-35.1562 10.8398-35.1562L68.9453-35.1562L77.6367-35.2539L77.4414-35.5957L68.7012-27.002L52.0996-10.4492Q51.9531-10.3516 51.8799-10.1074Q51.8066-9.86328 51.8066-9.61914Q51.8066-9.17969 52.0996-8.8623Q52.3926-8.54492 52.9297-8.54492ZM81.4941-8.54492Q81.9336-8.54492 82.251-8.8623Q82.5684-9.17969 82.5684-9.66797L82.5684-62.793Q82.5684-63.2324 82.251-63.5498Q81.9336-63.8672 81.4941-63.8672Q81.0059-63.8672 80.6641-63.5498Q80.3223-63.2324 80.3223-62.793L80.3223-9.66797Q80.3223-9.17969 80.6641-8.8623Q81.0059-8.54492 81.4941-8.54492Z"/>
  </g>
 </g>
</svg>
