<?xml version="1.0" encoding="UTF-8"?>
<!--Generator: Apple Native CoreSVG 175-->
<!DOCTYPE svg
PUBLIC "-//W3C//DTD SVG 1.1//EN"
       "http://www.w3.org/Graphics/SVG/1.1/DTD/svg11.dtd">
<svg version="1.1" xmlns="http://www.w3.org/2000/svg" xmlns:xlink="http://www.w3.org/1999/xlink" width="3300" height="2200">
 <!--glyph: "uni10019B.medium", point size: 100.0, font version: "17.0d11e1", template writer version: "65.1"-->
 <style>.multicolor-0:systemRedColor {fill:#FF3B30;opacity:1.0}

.hierarchical-0:secondary {fill:#4D4D4D}
.hierarchical-1:primary {fill:#212121}

.SFSymbolsPreviewFF3B30 {fill:#FF3B30;opacity:1.0}
</style>
 <g id="Notes">
  <rect height="2200" id="artboard" style="fill:white;opacity:1" width="3300" x="0" y="0"/>
  <line style="fill:none;stroke:black;opacity:1;stroke-width:0.5;" x1="263" x2="3036" y1="292" y2="292"/>
  <text style="stroke:none;fill:black;font-family:sans-serif;font-size:13;font-weight:bold;" transform="matrix(1 0 0 1 263 322)">Weight/Scale Variations</text>
  <text style="stroke:none;fill:black;font-family:sans-serif;font-size:13;text-anchor:middle;" transform="matrix(1 0 0 1 559.711 322)">Ultralight</text>
  <text style="stroke:none;fill:black;font-family:sans-serif;font-size:13;text-anchor:middle;" transform="matrix(1 0 0 1 856.422 322)">Thin</text>
  <text style="stroke:none;fill:black;font-family:sans-serif;font-size:13;text-anchor:middle;" transform="matrix(1 0 0 1 1153.13 322)">Light</text>
  <text style="stroke:none;fill:black;font-family:sans-serif;font-size:13;text-anchor:middle;" transform="matrix(1 0 0 1 1449.84 322)">Regular</text>
  <text style="stroke:none;fill:black;font-family:sans-serif;font-size:13;text-anchor:middle;" transform="matrix(1 0 0 1 1746.56 322)">Medium</text>
  <text style="stroke:none;fill:black;font-family:sans-serif;font-size:13;text-anchor:middle;" transform="matrix(1 0 0 1 2043.27 322)">Semibold</text>
  <text style="stroke:none;fill:black;font-family:sans-serif;font-size:13;text-anchor:middle;" transform="matrix(1 0 0 1 2339.98 322)">Bold</text>
  <text style="stroke:none;fill:black;font-family:sans-serif;font-size:13;text-anchor:middle;" transform="matrix(1 0 0 1 2636.69 322)">Heavy</text>
  <text style="stroke:none;fill:black;font-family:sans-serif;font-size:13;text-anchor:middle;" transform="matrix(1 0 0 1 2933.4 322)">Black</text>
  <line style="fill:none;stroke:black;opacity:1;stroke-width:0.5;" x1="263" x2="3036" y1="1903" y2="1903"/>
  <g transform="matrix(1 0 0 1 263 1933)">
   <path d="M9.24805 0.830078Q10.8691 0.830078 12.2949 0.214844Q13.7207-0.400391 14.8096-1.49414Q15.8984-2.58789 16.5186-4.01367Q17.1387-5.43945 17.1387-7.05078Q17.1387-8.66211 16.5186-10.0879Q15.8984-11.5137 14.8047-12.6074Q13.7109-13.7012 12.2852-14.3164Q10.8594-14.9316 9.23828-14.9316Q7.62695-14.9316 6.20117-14.3164Q4.77539-13.7012 3.69141-12.6074Q2.60742-11.5137 1.9873-10.0879Q1.36719-8.66211 1.36719-7.05078Q1.36719-5.43945 1.9873-4.01367Q2.60742-2.58789 3.69629-1.49414Q4.78516-0.400391 6.21094 0.214844Q7.63672 0.830078 9.24805 0.830078ZM9.24805-0.654297Q7.91992-0.654297 6.7627-1.14746Q5.60547-1.64062 4.73145-2.51953Q3.85742-3.39844 3.36426-4.56055Q2.87109-5.72266 2.87109-7.05078Q2.87109-8.37891 3.35938-9.54102Q3.84766-10.7031 4.72168-11.582Q5.5957-12.4609 6.75293-12.9541Q7.91016-13.4473 9.23828-13.4473Q10.5762-13.4473 11.7334-12.9541Q12.8906-12.4609 13.7695-11.582Q14.6484-10.7031 15.1465-9.54102Q15.6445-8.37891 15.6445-7.05078Q15.6445-5.72266 15.1514-4.56055Q14.6582-3.39844 13.7842-2.51953Q12.9102-1.64062 11.748-1.14746Q10.5859-0.654297 9.24805-0.654297ZM5.6543-7.05078Q5.6543-6.72852 5.85938-6.52832Q6.06445-6.32812 6.40625-6.32812L8.51562-6.32812L8.51562-4.20898Q8.51562-3.88672 8.71094-3.67676Q8.90625-3.4668 9.23828-3.4668Q9.56055-3.4668 9.77051-3.67676Q9.98047-3.88672 9.98047-4.20898L9.98047-6.32812L12.0898-6.32812Q12.4219-6.32812 12.627-6.52832Q12.832-6.72852 12.832-7.05078Q12.832-7.38281 12.627-7.58789Q12.4219-7.79297 12.0898-7.79297L9.98047-7.79297L9.98047-9.90234Q9.98047-10.2344 9.77051-10.4443Q9.56055-10.6543 9.23828-10.6543Q8.90625-10.6543 8.71094-10.4443Q8.51562-10.2344 8.51562-9.90234L8.51562-7.79297L6.40625-7.79297Q6.06445-7.79297 5.85938-7.58789Q5.6543-7.38281 5.6543-7.05078Z"/>
  </g>
  <g transform="matrix(1 0 0 1 281.867 1933)">
   <path d="M11.709 2.91016Q13.75 2.91016 15.5518 2.12891Q17.3535 1.34766 18.7305-0.0292969Q20.1074-1.40625 20.8887-3.20801Q21.6699-5.00977 21.6699-7.05078Q21.6699-9.0918 20.8887-10.8936Q20.1074-12.6953 18.7305-14.0723Q17.3535-15.4492 15.5469-16.2305Q13.7402-17.0117 11.6992-17.0117Q9.6582-17.0117 7.85645-16.2305Q6.05469-15.4492 4.68262-14.0723Q3.31055-12.6953 2.5293-10.8936Q1.74805-9.0918 1.74805-7.05078Q1.74805-5.00977 2.5293-3.20801Q3.31055-1.40625 4.6875-0.0292969Q6.06445 1.34766 7.86621 2.12891Q9.66797 2.91016 11.709 2.91016ZM11.709 1.25Q9.98047 1.25 8.47656 0.605469Q6.97266-0.0390625 5.83496-1.17676Q4.69727-2.31445 4.05762-3.81836Q3.41797-5.32227 3.41797-7.05078Q3.41797-8.7793 4.05762-10.2832Q4.69727-11.7871 5.83008-12.9297Q6.96289-14.0723 8.4668-14.7119Q9.9707-15.3516 11.6992-15.3516Q13.4277-15.3516 14.9316-14.7119Q16.4355-14.0723 17.5781-12.9297Q18.7207-11.7871 19.3652-10.2832Q20.0098-8.7793 20.0098-7.05078Q20.0098-5.32227 19.3701-3.81836Q18.7305-2.31445 17.5928-1.17676Q16.4551-0.0390625 14.9463 0.605469Q13.4375 1.25 11.709 1.25ZM7.17773-7.05078Q7.17773-6.69922 7.41211-6.47461Q7.64648-6.25 8.01758-6.25L10.8887-6.25L10.8887-3.36914Q10.8887-2.99805 11.1133-2.76855Q11.3379-2.53906 11.6895-2.53906Q12.0605-2.53906 12.29-2.76855Q12.5195-2.99805 12.5195-3.36914L12.5195-6.25L15.4004-6.25Q15.7715-6.25 16.001-6.47461Q16.2305-6.69922 16.2305-7.05078Q16.2305-7.42188 16.001-7.65137Q15.7715-7.88086 15.4004-7.88086L12.5195-7.88086L12.5195-10.752Q12.5195-11.1328 12.29-11.3623Q12.0605-11.5918 11.6895-11.5918Q11.3379-11.5918 11.1133-11.3574Q10.8887-11.123 10.8887-10.752L10.8887-7.88086L8.01758-7.88086Q7.63672-7.88086 7.40723-7.65137Q7.17773-7.42188 7.17773-7.05078Z"/>
  </g>
  <g transform="matrix(1 0 0 1 305.646 1933)">
   <path d="M14.9707 5.66406Q17.0605 5.66406 18.96 5.01465Q20.8594 4.36523 22.4512 3.19336Q24.043 2.02148 25.2197 0.429688Q26.3965-1.16211 27.0459-3.06641Q27.6953-4.9707 27.6953-7.05078Q27.6953-9.14062 27.0459-11.04Q26.3965-12.9395 25.2197-14.5312Q24.043-16.123 22.4512-17.2998Q20.8594-18.4766 18.9551-19.126Q17.0508-19.7754 14.9609-19.7754Q12.8711-19.7754 10.9717-19.126Q9.07227-18.4766 7.48535-17.2998Q5.89844-16.123 4.72168-14.5312Q3.54492-12.9395 2.90039-11.04Q2.25586-9.14062 2.25586-7.05078Q2.25586-4.9707 2.90527-3.06641Q3.55469-1.16211 4.72656 0.429688Q5.89844 2.02148 7.49023 3.19336Q9.08203 4.36523 10.9814 5.01465Q12.8809 5.66406 14.9707 5.66406ZM14.9707 3.84766Q13.1641 3.84766 11.5283 3.2959Q9.89258 2.74414 8.53516 1.74805Q7.17773 0.751953 6.17676-0.610352Q5.17578-1.97266 4.62891-3.6084Q4.08203-5.24414 4.08203-7.05078Q4.08203-8.86719 4.62891-10.5029Q5.17578-12.1387 6.17188-13.501Q7.16797-14.8633 8.52539-15.8594Q9.88281-16.8555 11.5186-17.4023Q13.1543-17.9492 14.9609-17.9492Q16.7773-17.9492 18.4131-17.4023Q20.0488-16.8555 21.4111-15.8594Q22.7734-14.8633 23.7695-13.501Q24.7656-12.1387 25.3174-10.5029Q25.8691-8.86719 25.8691-7.05078Q25.8789-5.24414 25.332-3.6084Q24.7852-1.97266 23.7842-0.610352Q22.7832 0.751953 21.4209 1.74805Q20.0586 2.74414 18.4229 3.2959Q16.7871 3.84766 14.9707 3.84766ZM9.19922-7.05078Q9.19922-6.66992 9.45801-6.4209Q9.7168-6.17188 10.1172-6.17188L14.0625-6.17188L14.0625-2.2168Q14.0625-1.81641 14.3115-1.55762Q14.5605-1.29883 14.9512-1.29883Q15.3516-1.29883 15.6104-1.55273Q15.8691-1.80664 15.8691-2.2168L15.8691-6.17188L19.8242-6.17188Q20.2246-6.17188 20.4785-6.4209Q20.7324-6.66992 20.7324-7.05078Q20.7324-7.46094 20.4785-7.71484Q20.2246-7.96875 19.8242-7.96875L15.8691-7.96875L15.8691-11.9141Q15.8691-12.3242 15.6104-12.583Q15.3516-12.8418 14.9512-12.8418Q14.5605-12.8418 14.3115-12.583Q14.0625-12.3242 14.0625-11.9141L14.0625-7.96875L10.1172-7.96875Q9.70703-7.96875 9.45312-7.71484Q9.19922-7.46094 9.19922-7.05078Z"/>
  </g>
  <text style="stroke:none;fill:black;font-family:sans-serif;font-size:13;font-weight:bold;" transform="matrix(1 0 0 1 263 1953)">Design Variations</text>
  <text style="stroke:none;fill:black;font-family:sans-serif;font-size:13;" transform="matrix(1 0 0 1 263 1971)">Symbols are supported in up to nine weights and three scales.</text>
  <text style="stroke:none;fill:black;font-family:sans-serif;font-size:13;" transform="matrix(1 0 0 1 263 1989)">For optimal layout with text and other symbols, vertically align</text>
  <text style="stroke:none;fill:black;font-family:sans-serif;font-size:13;" transform="matrix(1 0 0 1 263 2007)">symbols with the adjacent text.</text>
  <line style="fill:none;stroke:#00AEEF;stroke-width:0.5;opacity:1.0;" x1="776" x2="776" y1="1919" y2="1933"/>
  <g transform="matrix(1 0 0 1 776 1933)">
   <path d="M3.31055 0.15625Q3.70117 0.15625 3.91602-0.00976562Q4.13086-0.175781 4.26758-0.585938L5.52734-4.0332L11.2891-4.0332L12.5488-0.585938Q12.6855-0.175781 12.9004-0.00976562Q13.1152 0.15625 13.4961 0.15625Q13.8867 0.15625 14.1162-0.0585938Q14.3457-0.273438 14.3457-0.644531Q14.3457-0.869141 14.2383-1.17188L9.6582-13.3691Q9.48242-13.8184 9.17969-14.043Q8.87695-14.2676 8.4082-14.2676Q7.5-14.2676 7.17773-13.3789L2.59766-1.16211Q2.49023-0.859375 2.49023-0.634766Q2.49023-0.263672 2.70996-0.0537109Q2.92969 0.15625 3.31055 0.15625ZM6.00586-5.51758L8.37891-12.0898L8.42773-12.0898L10.8008-5.51758Z"/>
  </g>
  <line style="fill:none;stroke:#00AEEF;stroke-width:0.5;opacity:1.0;" x1="793.197" x2="793.197" y1="1919" y2="1933"/>
  <text style="stroke:none;fill:black;font-family:sans-serif;font-size:13;font-weight:bold;" transform="matrix(1 0 0 1 776 1953)">Margins</text>
  <text style="stroke:none;fill:black;font-family:sans-serif;font-size:13;" transform="matrix(1 0 0 1 776 1971)">Leading and trailing margins on the left and right side of each symbol</text>
  <text style="stroke:none;fill:black;font-family:sans-serif;font-size:13;" transform="matrix(1 0 0 1 776 1989)">can be adjusted by modifying the x-location of the margin guidelines.</text>
  <text style="stroke:none;fill:black;font-family:sans-serif;font-size:13;" transform="matrix(1 0 0 1 776 2007)">Modifications are automatically applied proportionally to all</text>
  <text style="stroke:none;fill:black;font-family:sans-serif;font-size:13;" transform="matrix(1 0 0 1 776 2025)">scales and weights.</text>
  <g transform="matrix(1 0 0 1 1289 1933)">
   <path d="M2.8418 1.86523L4.54102 3.57422Q5.18555 4.22852 5.90332 4.17969Q6.62109 4.13086 7.31445 3.35938L18.0078-8.42773L17.041-9.4043L6.42578 2.27539Q6.16211 2.57812 5.89355 2.61719Q5.625 2.65625 5.27344 2.30469L4.10156 1.14258Q3.75 0.791016 3.79395 0.522461Q3.83789 0.253906 4.14062-0.0195312L15.6152-10.8203L14.6387-11.7871L3.04688-0.898438Q2.30469-0.214844 2.25098 0.498047Q2.19727 1.21094 2.8418 1.86523ZM9.25781-16.3281Q8.94531-16.0254 8.90625-15.6348Q8.86719-15.2441 9.04297-14.9512Q9.21875-14.6777 9.55566-14.541Q9.89258-14.4043 10.3809-14.5215Q11.4746-14.7754 12.5977-14.7314Q13.7207-14.6875 14.7949-13.9844L14.209-12.5293Q13.9551-11.9043 14.0674-11.4404Q14.1797-10.9766 14.5801-10.5664L16.875-8.25195Q17.2363-7.88086 17.5781-7.82227Q17.9199-7.76367 18.3398-7.8418L19.4043-8.03711L20.0684-7.36328L20.0293-6.80664Q20-6.43555 20.1221-6.12305Q20.2441-5.81055 20.6055-5.44922L21.3672-4.70703Q21.7285-4.3457 22.1533-4.33105Q22.5781-4.31641 22.9297-4.66797L25.8398-7.58789Q26.1914-7.93945 26.1816-8.35449Q26.1719-8.76953 25.8105-9.13086L25.0391-9.89258Q24.6875-10.2539 24.3799-10.3857Q24.0723-10.5176 23.7109-10.4883L23.1348-10.4395L22.4902-11.0742L22.7344-12.1973Q22.832-12.6172 22.6953-12.9834Q22.5586-13.3496 22.1191-13.7891L19.9219-15.9766Q18.6719-17.2168 17.2607-17.8369Q15.8496-18.457 14.4189-18.4814Q12.9883-18.5059 11.665-17.959Q10.3418-17.4121 9.25781-16.3281ZM10.752-15.957Q11.6602-16.6211 12.7002-16.9043Q13.7402-17.1875 14.8047-17.085Q15.8691-16.9824 16.8701-16.5137Q17.8711-16.0449 18.7012-15.2051L21.1328-12.793Q21.3086-12.6172 21.3525-12.4512Q21.3965-12.2852 21.3379-12.0312L21.0156-10.5469L22.5195-9.0625L23.5059-9.12109Q23.6914-9.13086 23.7891-9.09668Q23.8867-9.0625 24.0332-8.91602L24.6094-8.33984L22.168-5.89844L21.5918-6.47461Q21.4453-6.62109 21.4062-6.71875Q21.3672-6.81641 21.377-7.01172L21.4453-7.98828L19.9512-9.47266L18.4277-9.21875Q18.1836-9.16992 18.042-9.2041Q17.9004-9.23828 17.7148-9.41406L15.7129-11.416Q15.5176-11.5918 15.4932-11.7529Q15.4688-11.9141 15.5859-12.1875L16.4648-14.2773Q15.293-15.3711 13.8281-15.791Q12.3633-16.2109 10.8398-15.7617Q10.7227-15.7324 10.6885-15.8057Q10.6543-15.8789 10.752-15.957Z"/>
  </g>
  <text style="stroke:none;fill:black;font-family:sans-serif;font-size:13;font-weight:bold;" transform="matrix(1 0 0 1 1289 1953)">Exporting</text>
  <text style="stroke:none;fill:black;font-family:sans-serif;font-size:13;" transform="matrix(1 0 0 1 1289 1971)">Symbols should be outlined when exporting to ensure the</text>
  <text style="stroke:none;fill:black;font-family:sans-serif;font-size:13;" transform="matrix(1 0 0 1 1289 1989)">design is preserved when submitting to Xcode.</text>
  <text id="template-version" style="stroke:none;fill:black;font-family:sans-serif;font-size:13;text-anchor:end;" transform="matrix(1 0 0 1 3036 1933)">Template v.3.0</text>
  <text style="stroke:none;fill:black;font-family:sans-serif;font-size:13;text-anchor:end;" transform="matrix(1 0 0 1 3036 1951)">Requires Xcode 13 or greater</text>
  <text id="descriptive-name" style="stroke:none;fill:black;font-family:sans-serif;font-size:13;text-anchor:end;" transform="matrix(1 0 0 1 3036 1969)">Generated from delete.left</text>
  <text style="stroke:none;fill:black;font-family:sans-serif;font-size:13;text-anchor:end;" transform="matrix(1 0 0 1 3036 1987)">Typeset at 100 points</text>
  <text style="stroke:none;fill:black;font-family:sans-serif;font-size:13;" transform="matrix(1 0 0 1 263 726)">Small</text>
  <text style="stroke:none;fill:black;font-family:sans-serif;font-size:13;" transform="matrix(1 0 0 1 263 1156)">Medium</text>
  <text style="stroke:none;fill:black;font-family:sans-serif;font-size:13;" transform="matrix(1 0 0 1 263 1586)">Large</text>
 </g>
 <g id="Guides">
  <g id="H-reference" style="fill:#27AAE1;stroke:none;" transform="matrix(1 0 0 1 339 696)">
   <path d="M0.976562 0L3.66211 0L29.3457-67.1387L30.0293-67.1387L30.0293-70.459L28.125-70.459ZM11.6699-24.4629L46.9727-24.4629L46.2402-26.709L12.4512-26.709ZM55.127 0L57.7637 0L30.6152-70.459L29.4434-70.459L29.4434-67.1387Z"/>
  </g>
  <line id="Baseline-S" style="fill:none;stroke:#27AAE1;opacity:1;stroke-width:0.5;" x1="263" x2="3036" y1="696" y2="696"/>
  <line id="Capline-S" style="fill:none;stroke:#27AAE1;opacity:1;stroke-width:0.5;" x1="263" x2="3036" y1="625.541" y2="625.541"/>
  <g id="H-reference" style="fill:#27AAE1;stroke:none;" transform="matrix(1 0 0 1 339 1126)">
   <path d="M0.976562 0L3.66211 0L29.3457-67.1387L30.0293-67.1387L30.0293-70.459L28.125-70.459ZM11.6699-24.4629L46.9727-24.4629L46.2402-26.709L12.4512-26.709ZM55.127 0L57.7637 0L30.6152-70.459L29.4434-70.459L29.4434-67.1387Z"/>
  </g>
  <line id="Baseline-M" style="fill:none;stroke:#27AAE1;opacity:1;stroke-width:0.5;" x1="263" x2="3036" y1="1126" y2="1126"/>
  <line id="Capline-M" style="fill:none;stroke:#27AAE1;opacity:1;stroke-width:0.5;" x1="263" x2="3036" y1="1055.54" y2="1055.54"/>
  <g id="H-reference" style="fill:#27AAE1;stroke:none;" transform="matrix(1 0 0 1 339 1556)">
   <path d="M0.976562 0L3.66211 0L29.3457-67.1387L30.0293-67.1387L30.0293-70.459L28.125-70.459ZM11.6699-24.4629L46.9727-24.4629L46.2402-26.709L12.4512-26.709ZM55.127 0L57.7637 0L30.6152-70.459L29.4434-70.459L29.4434-67.1387Z"/>
  </g>
  <line id="Baseline-L" style="fill:none;stroke:#27AAE1;opacity:1;stroke-width:0.5;" x1="263" x2="3036" y1="1556" y2="1556"/>
  <line id="Capline-L" style="fill:none;stroke:#27AAE1;opacity:1;stroke-width:0.5;" x1="263" x2="3036" y1="1485.54" y2="1485.54"/>
  <line id="left-margin-Ultralight-S" style="fill:none;stroke:#00AEEF;stroke-width:0.5;opacity:1.0;" x1="511.982" x2="511.982" y1="600.785" y2="720.121"/>
  <line id="right-margin-Ultralight-S" style="fill:none;stroke:#00AEEF;stroke-width:0.5;opacity:1.0;" x1="607.441" x2="607.441" y1="600.785" y2="720.121"/>
  <line id="left-margin-Thin-S" style="fill:none;stroke:#00AEEF;stroke-width:0.5;opacity:1.0;" x1="808.009" x2="808.009" y1="600.785" y2="720.121"/>
  <line id="right-margin-Thin-S" style="fill:none;stroke:#00AEEF;stroke-width:0.5;opacity:1.0;" x1="904.835" x2="904.835" y1="600.785" y2="720.121"/>
  <line id="left-margin-Light-S" style="fill:none;stroke:#00AEEF;stroke-width:0.5;opacity:1.0;" x1="1103.35" x2="1103.35" y1="600.785" y2="720.121"/>
  <line id="right-margin-Light-S" style="fill:none;stroke:#00AEEF;stroke-width:0.5;opacity:1.0;" x1="1202.91" x2="1202.91" y1="600.785" y2="720.121"/>
  <line id="left-margin-Regular-S" style="fill:none;stroke:#00AEEF;stroke-width:0.5;opacity:1.0;" x1="1399.04" x2="1399.04" y1="600.785" y2="720.121"/>
  <line id="right-margin-Regular-S" style="fill:none;stroke:#00AEEF;stroke-width:0.5;opacity:1.0;" x1="1500.65" x2="1500.65" y1="600.785" y2="720.121"/>
  <line id="left-margin-Medium-S" style="fill:none;stroke:#00AEEF;stroke-width:0.5;opacity:1.0;" x1="1695.55" x2="1695.55" y1="600.785" y2="720.121"/>
  <line id="right-margin-Medium-S" style="fill:none;stroke:#00AEEF;stroke-width:0.5;opacity:1.0;" x1="1797.56" x2="1797.56" y1="600.785" y2="720.121"/>
  <line id="left-margin-Semibold-S" style="fill:none;stroke:#00AEEF;stroke-width:0.5;opacity:1.0;" x1="1992.12" x2="1992.12" y1="600.785" y2="720.121"/>
  <line id="right-margin-Semibold-S" style="fill:none;stroke:#00AEEF;stroke-width:0.5;opacity:1.0;" x1="2094.41" x2="2094.41" y1="600.785" y2="720.121"/>
  <line id="left-margin-Bold-S" style="fill:none;stroke:#00AEEF;stroke-width:0.5;opacity:1.0;" x1="2288.61" x2="2288.61" y1="600.785" y2="720.121"/>
  <line id="right-margin-Bold-S" style="fill:none;stroke:#00AEEF;stroke-width:0.5;opacity:1.0;" x1="2391.34" x2="2391.34" y1="600.785" y2="720.121"/>
  <line id="left-margin-Heavy-S" style="fill:none;stroke:#00AEEF;stroke-width:0.5;opacity:1.0;" x1="2585.05" x2="2585.05" y1="600.785" y2="720.121"/>
  <line id="right-margin-Heavy-S" style="fill:none;stroke:#00AEEF;stroke-width:0.5;opacity:1.0;" x1="2688.32" x2="2688.32" y1="600.785" y2="720.121"/>
  <line id="left-margin-Black-S" style="fill:none;stroke:#00AEEF;stroke-width:0.5;opacity:1.0;" x1="2881.5" x2="2881.5" y1="600.785" y2="720.121"/>
  <line id="right-margin-Black-S" style="fill:none;stroke:#00AEEF;stroke-width:0.5;opacity:1.0;" x1="2985.3" x2="2985.3" y1="600.785" y2="720.121"/>
  <line id="left-margin-Ultralight-M" style="fill:none;stroke:#00AEEF;stroke-width:0.5;opacity:1.0;" x1="499.067" x2="499.067" y1="1030.79" y2="1150.12"/>
  <line id="right-margin-Ultralight-M" style="fill:none;stroke:#00AEEF;stroke-width:0.5;opacity:1.0;" x1="620.356" x2="620.356" y1="1030.79" y2="1150.12"/>
  <line id="left-margin-Thin-M" style="fill:none;stroke:#00AEEF;stroke-width:0.5;opacity:1.0;" x1="794.996" x2="794.996" y1="1030.79" y2="1150.12"/>
  <line id="right-margin-Thin-M" style="fill:none;stroke:#00AEEF;stroke-width:0.5;opacity:1.0;" x1="917.848" x2="917.848" y1="1030.79" y2="1150.12"/>
  <line id="left-margin-Light-M" style="fill:none;stroke:#00AEEF;stroke-width:0.5;opacity:1.0;" x1="1090.17" x2="1090.17" y1="1030.79" y2="1150.12"/>
  <line id="right-margin-Light-M" style="fill:none;stroke:#00AEEF;stroke-width:0.5;opacity:1.0;" x1="1216.1" x2="1216.1" y1="1030.79" y2="1150.12"/>
  <line id="left-margin-Regular-M" style="fill:none;stroke:#00AEEF;stroke-width:0.5;opacity:1.0;" x1="1385.73" x2="1385.73" y1="1030.79" y2="1150.12"/>
  <line id="right-margin-Regular-M" style="fill:none;stroke:#00AEEF;stroke-width:0.5;opacity:1.0;" x1="1513.96" x2="1513.96" y1="1030.79" y2="1150.12"/>
  <line id="left-margin-Medium-M" style="fill:none;stroke:#00AEEF;stroke-width:0.5;opacity:1.0;" x1="1682.08" x2="1682.08" y1="1030.79" y2="1150.12"/>
  <line id="right-margin-Medium-M" style="fill:none;stroke:#00AEEF;stroke-width:0.5;opacity:1.0;" x1="1811.03" x2="1811.03" y1="1030.79" y2="1150.12"/>
  <line id="left-margin-Semibold-M" style="fill:none;stroke:#00AEEF;stroke-width:0.5;opacity:1.0;" x1="1978.5" x2="1978.5" y1="1030.79" y2="1150.12"/>
  <line id="right-margin-Semibold-M" style="fill:none;stroke:#00AEEF;stroke-width:0.5;opacity:1.0;" x1="2108.04" x2="2108.04" y1="1030.79" y2="1150.12"/>
  <line id="left-margin-Bold-M" style="fill:none;stroke:#00AEEF;stroke-width:0.5;opacity:1.0;" x1="2274.84" x2="2274.84" y1="1030.79" y2="1150.12"/>
  <line id="right-margin-Bold-M" style="fill:none;stroke:#00AEEF;stroke-width:0.5;opacity:1.0;" x1="2405.11" x2="2405.11" y1="1030.79" y2="1150.12"/>
  <line id="left-margin-Heavy-M" style="fill:none;stroke:#00AEEF;stroke-width:0.5;opacity:1.0;" x1="2571.02" x2="2571.02" y1="1030.79" y2="1150.12"/>
  <line id="right-margin-Heavy-M" style="fill:none;stroke:#00AEEF;stroke-width:0.5;opacity:1.0;" x1="2702.36" x2="2702.36" y1="1030.79" y2="1150.12"/>
  <line id="left-margin-Black-M" style="fill:none;stroke:#00AEEF;stroke-width:0.5;opacity:1.0;" x1="2867.24" x2="2867.24" y1="1030.79" y2="1150.12"/>
  <line id="right-margin-Black-M" style="fill:none;stroke:#00AEEF;stroke-width:0.5;opacity:1.0;" x1="2999.56" x2="2999.56" y1="1030.79" y2="1150.12"/>
  <line id="left-margin-Ultralight-L" style="fill:none;stroke:#00AEEF;stroke-width:0.5;opacity:1.0;" x1="481.806" x2="481.806" y1="1460.79" y2="1580.12"/>
  <line id="right-margin-Ultralight-L" style="fill:none;stroke:#00AEEF;stroke-width:0.5;opacity:1.0;" x1="637.616" x2="637.616" y1="1460.79" y2="1580.12"/>
  <line id="left-margin-Thin-L" style="fill:none;stroke:#00AEEF;stroke-width:0.5;opacity:1.0;" x1="777.638" x2="777.638" y1="1460.79" y2="1580.12"/>
  <line id="right-margin-Thin-L" style="fill:none;stroke:#00AEEF;stroke-width:0.5;opacity:1.0;" x1="935.206" x2="935.206" y1="1460.79" y2="1580.12"/>
  <line id="left-margin-Light-L" style="fill:none;stroke:#00AEEF;stroke-width:0.5;opacity:1.0;" x1="1072.64" x2="1072.64" y1="1460.79" y2="1580.12"/>
  <line id="right-margin-Light-L" style="fill:none;stroke:#00AEEF;stroke-width:0.5;opacity:1.0;" x1="1233.63" x2="1233.63" y1="1460.79" y2="1580.12"/>
  <line id="left-margin-Regular-L" style="fill:none;stroke:#00AEEF;stroke-width:0.5;opacity:1.0;" x1="1368.06" x2="1368.06" y1="1460.79" y2="1580.12"/>
  <line id="right-margin-Regular-L" style="fill:none;stroke:#00AEEF;stroke-width:0.5;opacity:1.0;" x1="1531.63" x2="1531.63" y1="1460.79" y2="1580.12"/>
  <line id="left-margin-Medium-L" style="fill:none;stroke:#00AEEF;stroke-width:0.5;opacity:1.0;" x1="1664.18" x2="1664.18" y1="1460.79" y2="1580.12"/>
  <line id="right-margin-Medium-L" style="fill:none;stroke:#00AEEF;stroke-width:0.5;opacity:1.0;" x1="1828.93" x2="1828.93" y1="1460.79" y2="1580.12"/>
  <line id="left-margin-Semibold-L" style="fill:none;stroke:#00AEEF;stroke-width:0.5;opacity:1.0;" x1="1960.43" x2="1960.43" y1="1460.79" y2="1580.12"/>
  <line id="right-margin-Semibold-L" style="fill:none;stroke:#00AEEF;stroke-width:0.5;opacity:1.0;" x1="2126.1" x2="2126.1" y1="1460.79" y2="1580.12"/>
  <line id="left-margin-Bold-L" style="fill:none;stroke:#00AEEF;stroke-width:0.5;opacity:1.0;" x1="2256.55" x2="2256.55" y1="1460.79" y2="1580.12"/>
  <line id="right-margin-Bold-L" style="fill:none;stroke:#00AEEF;stroke-width:0.5;opacity:1.0;" x1="2423.4" x2="2423.4" y1="1460.79" y2="1580.12"/>
  <line id="left-margin-Heavy-L" style="fill:none;stroke:#00AEEF;stroke-width:0.5;opacity:1.0;" x1="2552.41" x2="2552.41" y1="1460.79" y2="1580.12"/>
  <line id="right-margin-Heavy-L" style="fill:none;stroke:#00AEEF;stroke-width:0.5;opacity:1.0;" x1="2720.97" x2="2720.97" y1="1460.79" y2="1580.12"/>
  <line id="left-margin-Black-L" style="fill:none;stroke:#00AEEF;stroke-width:0.5;opacity:1.0;" x1="2848.34" x2="2848.34" y1="1460.79" y2="1580.12"/>
  <line id="right-margin-Black-L" style="fill:none;stroke:#00AEEF;stroke-width:0.5;opacity:1.0;" x1="3018.46" x2="3018.46" y1="1460.79" y2="1580.12"/>
 </g>
 <g id="Symbols">
  <g id="Black-L" transform="matrix(1 0 0 1 2848.34 1556)">
   <path class="multicolor-0:systemRedColor hierarchical-0:secondary SFSymbolsPreviewFF3B30" d="M130.127 26.5137Q141.553 26.5137 147.803 21.3867Q154.053 16.2598 154.053 4.88281L154.053-73.0957Q154.053-84.4727 147.803-90.6738Q141.553-96.875 130.127-96.875L76.3672-96.875Q70.3125-96.875 66.0645-95.8496Q61.8164-94.8242 58.3496-92.334Q54.8828-89.8438 51.2207-85.498L20.5566-50Q17.4316-46.2891 15.7715-43.7744Q14.1113-41.2598 13.501-39.2578Q12.8906-37.2559 12.8906-35.2051Q12.8906-33.1055 13.5254-31.0791Q14.1602-29.0527 15.8203-26.5381Q17.4805-24.0234 20.5566-20.4102L51.2207 15.0879Q54.9316 19.4824 58.374 21.9727Q61.8164 24.4629 66.04 25.4883Q70.2637 26.5137 76.3184 26.5137ZM127.441 6.29883L74.6582 6.29883Q72.3145 6.29883 70.5322 5.46875Q68.75 4.63867 67.041 2.63672L36.5234-32.4707Q35.8398-33.2031 35.5713-33.9111Q35.3027-34.6191 35.3027-35.2051Q35.3027-35.8887 35.5469-36.499Q35.791-37.1094 36.5234-37.8906L66.9922-73.1445Q68.7012-75.1465 70.5078-75.9033Q72.3145-76.6602 74.6582-76.6602L127.441-76.6602Q130.566-76.6602 132.178-75.1465Q133.789-73.6328 133.789-70.2148L133.789-0.146484Q133.789 3.27148 132.178 4.78516Q130.566 6.29883 127.441 6.29883Z"/>
   <path class="multicolor-0:systemRedColor hierarchical-1:primary SFSymbolsPreviewFF3B30" d="M77.3926-9.17969Q81.0059-9.17969 83.3008-11.5234L95.4102-23.584L107.568-11.5234Q109.961-9.17969 113.525-9.17969Q116.943-9.17969 119.238-11.499Q121.533-13.8184 121.533-17.2363Q121.533-20.3613 119.092-22.7539L106.885-35.0098L119.141-47.3633Q121.533-49.7559 121.533-52.832Q121.533-56.2988 119.238-58.5938Q116.943-60.8887 113.525-60.8887Q110.01-60.8887 107.666-58.5449L95.4102-46.4355L83.252-58.5449Q80.957-60.8398 77.3926-60.8398Q73.9746-60.8398 71.6797-58.5449Q69.3848-56.25 69.3848-52.832Q69.3848-49.707 71.7773-47.3145L84.082-35.0098L71.7773-22.7539Q69.3848-20.3613 69.3848-17.2363Q69.3848-13.8184 71.6797-11.499Q73.9746-9.17969 77.3926-9.17969Z"/>
  </g>
  <g id="Heavy-L" transform="matrix(1 0 0 1 2552.41 1556)">
   <path class="multicolor-0:systemRedColor hierarchical-0:secondary SFSymbolsPreviewFF3B30" d="M129.736 25.4883Q140.723 25.4883 146.606 20.459Q152.49 15.4297 152.49 4.54102L152.49-73.2422Q152.49-84.1309 146.606-89.9902Q140.723-95.8496 129.736-95.8496L75.8789-95.8496Q70.4102-95.8496 66.4062-94.9219Q62.4023-93.9941 59.082-91.7236Q55.7617-89.4531 52.3926-85.498L20.0684-49.2676Q17.2363-45.9473 15.6738-43.5791Q14.1113-41.2109 13.501-39.2334Q12.8906-37.2559 12.8906-35.2051Q12.8906-33.1543 13.5254-31.1768Q14.1602-29.1992 15.7227-26.8066Q17.2852-24.4141 20.0684-21.1914L52.3926 14.9902Q55.8105 18.9453 59.1064 21.2402Q62.4023 23.5352 66.3818 24.5117Q70.3613 25.4883 75.8301 25.4883ZM127.637 8.00781L74.5605 8.00781Q71.875 8.00781 69.8975 7.10449Q67.9199 6.20117 66.0156 4.05273L33.8379-31.7383Q32.959-32.7148 32.5928-33.5693Q32.2266-34.4238 32.2266-35.2051Q32.2266-36.084 32.5684-36.8652Q32.9102-37.6465 33.8379-38.6719L65.9668-74.6582Q67.8711-76.8066 69.873-77.5879Q71.875-78.3691 74.5117-78.3691L127.637-78.3691Q131.25-78.3691 133.105-76.5869Q134.961-74.8047 134.961-70.9473L134.961 0.585938Q134.961 4.44336 133.105 6.22559Q131.25 8.00781 127.637 8.00781Z"/>
   <path class="multicolor-0:systemRedColor hierarchical-1:primary SFSymbolsPreviewFF3B30" d="M75.5859-9.13086Q78.8086-9.13086 80.8594-11.2305L94.5312-24.8535L108.203-11.2305Q110.352-9.13086 113.525-9.13086Q116.553-9.13086 118.604-11.2061Q120.654-13.2812 120.654-16.3086Q120.654-19.1406 118.457-21.2402L104.736-35.0098L118.506-48.877Q120.654-51.0254 120.654-53.8086Q120.654-56.8848 118.604-58.9355Q116.553-60.9863 113.525-60.9863Q110.449-60.9863 108.301-58.8867L94.5312-45.2148L80.8105-58.8379Q78.7598-60.9375 75.5859-60.9375Q72.5586-60.9375 70.5078-58.8867Q68.457-56.8359 68.457-53.8086Q68.457-50.9766 70.6055-48.8281L84.4238-35.0098L70.6055-21.2402Q68.457-19.1406 68.457-16.3086Q68.457-13.2812 70.5078-11.2061Q72.5586-9.13086 75.5859-9.13086Z"/>
  </g>
  <g id="Bold-L" transform="matrix(1 0 0 1 2256.55 1556)">
   <path class="multicolor-0:systemRedColor hierarchical-0:secondary SFSymbolsPreviewFF3B30" d="M129.297 24.3652Q139.746 24.3652 145.264 19.458Q150.781 14.5508 150.781 4.15039L150.781-73.4375Q150.781-83.7891 145.264-89.2578Q139.746-94.7266 129.297-94.7266L75.3418-94.7266Q70.5078-94.7266 66.7725-93.8965Q63.0371-93.0664 59.8877-91.04Q56.7383-89.0137 53.6621-85.5469L19.5801-48.4375Q16.9922-45.5566 15.5518-43.335Q14.1113-41.1133 13.501-39.1846Q12.8906-37.2559 12.8906-35.2539Q12.8906-33.252 13.501-31.2988Q14.1113-29.3457 15.5762-27.124Q17.041-24.9023 19.5801-22.0703L53.7109 14.8438Q56.7871 18.3594 59.9365 20.4346Q63.0859 22.5098 66.7969 23.4375Q70.5078 24.3652 75.3418 24.3652ZM127.881 9.96094L74.4141 9.96094Q71.4355 9.96094 69.2139 8.98438Q66.9922 8.00781 64.8438 5.66406L30.9082-30.957Q29.6875-32.2266 29.248-33.252Q28.8086-34.2773 28.8086-35.2539Q28.8086-36.2793 29.2725-37.2803Q29.7363-38.2812 30.9082-39.502L64.7949-76.416Q66.8945-78.7109 69.1406-79.4922Q71.3867-80.2734 74.4141-80.2734L127.881-80.2734Q132.031-80.2734 134.18-78.1738Q136.328-76.0742 136.328-71.7773L136.328 1.41602Q136.328 5.76172 134.18 7.86133Q132.031 9.96094 127.881 9.96094Z"/>
   <path class="multicolor-0:systemRedColor hierarchical-1:primary SFSymbolsPreviewFF3B30" d="M73.6328-9.08203Q76.3672-9.08203 78.1738-10.9375L93.5547-26.2695L108.936-10.9375Q110.84-9.08203 113.525-9.08203Q116.113-9.08203 117.896-10.8643Q119.678-12.6465 119.678-15.2832Q119.678-17.7246 117.822-19.5801L102.344-35.0586L117.871-50.6348Q119.727-52.4902 119.727-54.8828Q119.727-57.5195 117.944-59.3018Q116.162-61.084 113.525-61.084Q110.938-61.084 109.082-59.2285L93.5547-43.7988L78.0762-59.2285Q76.3184-61.0352 73.6328-61.0352Q70.9961-61.0352 69.2139-59.2529Q67.4316-57.4707 67.4316-54.8828Q67.4316-52.3926 69.2871-50.5859L84.8145-35.0586L69.2871-19.5801Q67.4316-17.7246 67.4316-15.2832Q67.4316-12.6465 69.2139-10.8643Q70.9961-9.08203 73.6328-9.08203Z"/>
  </g>
  <g id="Semibold-L" transform="matrix(1 0 0 1 1960.43 1556)">
   <path class="multicolor-0:systemRedColor hierarchical-0:secondary SFSymbolsPreviewFF3B30" d="M129.004 23.584Q139.111 23.584 144.36 18.75Q149.609 13.916 149.609 3.90625L149.609-73.5352Q149.609-83.5449 144.36-88.7207Q139.111-93.8965 129.004-93.8965L74.9512-93.8965Q70.5566-93.8965 67.0166-93.1396Q63.4766-92.3828 60.4492-90.5518Q57.4219-88.7207 54.541-85.5469L19.1895-47.8516Q16.8457-45.3125 15.4541-43.1885Q14.0625-41.0645 13.4766-39.1602Q12.8906-37.2559 12.8906-35.2539Q12.8906-33.252 13.501-31.3477Q14.1113-29.4434 15.4785-27.3438Q16.8457-25.2441 19.1895-22.6562L54.5898 14.7461Q57.4707 17.9199 60.498 19.8486Q63.5254 21.7773 67.041 22.6562Q70.5566 23.5352 74.9512 23.5352ZM128.027 11.2793L74.3164 11.2793Q71.0938 11.2793 68.7012 10.2295Q66.3086 9.17969 64.0137 6.78711L28.8086-30.4199Q27.4414-31.8359 26.9287-32.9834Q26.416-34.1309 26.416-35.2539Q26.416-36.4258 26.9531-37.5488Q27.4902-38.6719 28.8086-40.0879L63.9648-77.5879Q66.2598-80.0293 68.6523-80.8105Q71.0449-81.5918 74.2676-81.5918L128.027-81.5918Q132.52-81.5918 134.863-79.2725Q137.207-76.9531 137.207-72.3145L137.207 2.00195Q137.207 6.64062 134.863 8.95996Q132.52 11.2793 128.027 11.2793Z"/>
   <path class="multicolor-0:systemRedColor hierarchical-1:primary SFSymbolsPreviewFF3B30" d="M72.2168-9.08203Q74.6582-9.08203 76.2695-10.7422L92.8223-27.2949L109.424-10.7422Q111.084-9.08203 113.477-9.08203Q115.771-9.08203 117.383-10.6689Q118.994-12.2559 118.994-14.5996Q118.994-16.7969 117.285-18.457L100.684-35.1074L117.334-51.8555Q118.994-53.5156 118.994-55.6641Q118.994-58.0078 117.407-59.5947Q115.82-61.1816 113.525-61.1816Q111.23-61.1816 109.521-59.5215L92.8223-42.8711L76.1719-59.4727Q74.6094-61.1328 72.2168-61.1328Q69.873-61.1328 68.2861-59.5459Q66.6992-57.959 66.6992-55.6641Q66.6992-53.418 68.3594-51.8066L85.0098-35.1074L68.3594-18.457Q66.6992-16.7969 66.6992-14.5996Q66.6992-12.2559 68.2861-10.6689Q69.873-9.08203 72.2168-9.08203Z"/>
  </g>
  <g id="Medium-L" transform="matrix(1 0 0 1 1664.18 1556)">
   <path class="multicolor-0:systemRedColor hierarchical-0:secondary SFSymbolsPreviewFF3B30" d="M128.76 22.998Q138.574 22.998 143.628 18.2129Q148.682 13.4277 148.682 3.66211L148.682-73.6328Q148.682-83.3496 143.628-88.3301Q138.574-93.3105 128.76-93.3105L74.6582-93.3105Q70.6055-93.3105 67.2119-92.6025Q63.8184-91.8945 60.8643-90.1855Q57.9102-88.4766 55.2246-85.5957L18.8965-47.4121Q16.6992-45.0684 15.3809-43.042Q14.0625-41.0156 13.4766-39.1357Q12.8906-37.2559 12.8906-35.3027Q12.8906-33.3008 13.4766-31.3965Q14.0625-29.4922 15.3809-27.4902Q16.6992-25.4883 18.8965-23.1445L55.2734 14.6973Q57.959 17.5781 60.9131 19.4092Q63.8672 21.2402 67.2363 22.0947Q70.6055 22.9492 74.6582 22.9492ZM128.174 12.2559L74.2676 12.2559Q70.8496 12.2559 68.335 11.1816Q65.8203 10.1074 63.3789 7.61719L27.2949-29.9805Q25.7324-31.543 25.1709-32.7881Q24.6094-34.0332 24.6094-35.3027Q24.6094-36.5234 25.2197-37.7686Q25.8301-39.0137 27.2949-40.5273L63.3301-78.4668Q65.7227-81.0059 68.2617-81.7871Q70.8008-82.5684 74.2188-82.5684L128.174-82.5684Q132.91-82.5684 135.4-80.1025Q137.891-77.6367 137.891-72.7539L137.891 2.39258Q137.891 7.32422 135.4 9.79004Q132.91 12.2559 128.174 12.2559Z"/>
   <path class="multicolor-0:systemRedColor hierarchical-1:primary SFSymbolsPreviewFF3B30" d="M71.1426-9.0332Q73.3887-9.0332 74.8535-10.5469L92.2852-28.0273L109.814-10.5469Q111.328-9.0332 113.477-9.0332Q115.576-9.0332 117.017-10.498Q118.457-11.9629 118.457-14.0625Q118.457-16.0645 116.943-17.5781L99.4141-35.1562L116.992-52.7344Q118.506-54.2969 118.506-56.25Q118.506-58.3496 117.065-59.8145Q115.625-61.2793 113.525-61.2793Q111.475-61.2793 109.912-59.7168L92.2852-42.1387L74.7559-59.668Q73.3398-61.1816 71.1426-61.1816Q69.0918-61.1816 67.627-59.7412Q66.1621-58.3008 66.1621-56.2012Q66.1621-54.1504 67.6758-52.6855L85.2051-35.1562L67.6758-17.5781Q66.1621-16.0645 66.1621-14.0625Q66.1621-11.9629 67.627-10.498Q69.0918-9.0332 71.1426-9.0332Z"/>
  </g>
  <g id="Regular-L" transform="matrix(1 0 0 1 1368.06 1556)">
   <path class="multicolor-0:systemRedColor hierarchical-0:secondary SFSymbolsPreviewFF3B30" d="M128.467 22.2168Q137.939 22.2168 142.725 17.5049Q147.51 12.793 147.51 3.41797L147.51-73.7305Q147.51-83.1055 142.725-87.8174Q137.939-92.5293 128.467-92.5293L74.2676-92.5293Q70.6543-92.5293 67.4561-91.8945Q64.2578-91.2598 61.4258-89.7217Q58.5938-88.1836 56.1035-85.5957L18.5547-46.8262Q16.5527-44.8242 15.3076-42.8955Q14.0625-40.9668 13.4766-39.1113Q12.8906-37.2559 12.8906-35.3027Q12.8906-33.3496 13.4766-31.4697Q14.0625-29.5898 15.3076-27.6855Q16.5527-25.7812 18.5547-23.7305L56.1523 14.5996Q58.6426 17.1875 61.4746 18.8721Q64.3066 20.5566 67.5049 21.3623Q70.7031 22.168 74.3164 22.168ZM128.32 13.5742L74.1699 13.5742Q70.5078 13.5742 67.8467 12.4512Q65.1855 11.3281 62.5977 8.69141L25.2441-29.4434Q23.5352-31.2012 22.9004-32.5439Q22.2656-33.8867 22.2656-35.3027Q22.2656-36.6699 22.9492-38.0371Q23.6328-39.4043 25.2441-41.1133L62.5488-79.6387Q65.0879-82.2754 67.7734-83.0811Q70.459-83.8867 74.1211-83.8867L128.32-83.8867Q133.447-83.8867 136.133-81.2012Q138.818-78.5156 138.818-73.291L138.818 2.97852Q138.818 8.20312 136.133 10.8887Q133.447 13.5742 128.32 13.5742Z"/>
   <path class="multicolor-0:systemRedColor hierarchical-1:primary SFSymbolsPreviewFF3B30" d="M69.7754-8.98438Q71.6797-8.98438 72.9492-10.3516L91.6016-29.0039L110.254-10.3516Q111.621-8.98438 113.428-8.98438Q115.234-8.98438 116.504-10.2539Q117.773-11.5234 117.773-13.3301Q117.773-15.1367 116.455-16.4551L97.7539-35.1562L116.504-53.9062Q117.822-55.2734 117.822-56.9824Q117.822-58.7891 116.553-60.0586Q115.283-61.3281 113.477-61.3281Q111.768-61.3281 110.4-59.9609L91.6016-41.2109L72.8516-59.9121Q71.6309-61.2305 69.7754-61.2305Q67.9688-61.2305 66.6992-59.9854Q65.4297-58.7402 65.4297-56.9336Q65.4297-55.127 66.748-53.8574L85.4492-35.1562L66.748-16.4062Q65.4297-15.1367 65.4297-13.3301Q65.4297-11.5234 66.6992-10.2539Q67.9688-8.98438 69.7754-8.98438Z"/>
  </g>
  <g id="Light-L" transform="matrix(1 0 0 1 1072.64 1556)">
   <path class="multicolor-0:systemRedColor hierarchical-0:secondary SFSymbolsPreviewFF3B30" d="M126.904 21.4355Q135.84 21.4355 140.381 16.9189Q144.922 12.4023 144.922 3.56445L144.922-73.8281Q144.922-82.7148 140.381-87.207Q135.84-91.6992 126.904-91.6992L73.4863-91.6992Q69.9707-91.6992 66.9434-91.1377Q63.916-90.5762 61.2793-89.1602Q58.6426-87.7441 56.25-85.3027L18.1641-46.2402Q16.2598-44.3848 15.1123-42.5781Q13.9648-40.7715 13.4277-38.9893Q12.8906-37.207 12.8906-35.3027Q12.8906-33.4473 13.4277-31.6406Q13.9648-29.834 15.1123-28.0518Q16.2598-26.2695 18.1641-24.3652L56.2988 14.0137Q58.6914 16.4551 61.3281 18.0908Q63.9648 19.7266 66.9678 20.5566Q69.9707 21.3867 73.4863 21.3867ZM126.758 14.7949L73.4375 14.7949Q69.5801 14.7949 66.748 13.501Q63.916 12.207 61.1816 9.42383L23.2422-28.7598Q21.4355-30.6152 20.7275-32.1289Q20.0195-33.6426 20.0195-35.3027Q20.0195-36.9629 20.752-38.4766Q21.4844-39.9902 23.2422-41.7969L61.1328-80.7129Q63.8184-83.4961 66.6992-84.2773Q69.5801-85.0586 73.3887-85.0586L126.758-85.0586Q132.422-85.0586 135.352-82.1289Q138.281-79.1992 138.281-73.4863L138.281 3.22266Q138.281 8.93555 135.352 11.8652Q132.422 14.7949 126.758 14.7949Z"/>
   <path class="multicolor-0:systemRedColor hierarchical-1:primary SFSymbolsPreviewFF3B30" d="M67.9199-9.47266Q69.3848-9.47266 70.459-10.5957L90.1367-30.2734L109.814-10.5957Q110.938-9.47266 112.402-9.47266Q113.818-9.47266 114.819-10.4492Q115.82-11.4258 115.82-12.8418Q115.82-14.2578 114.746-15.332L94.9707-35.1074L114.746-54.8828Q115.82-56.0059 115.82-57.373Q115.82-58.7891 114.819-59.7656Q113.818-60.7422 112.402-60.7422Q111.035-60.7422 109.912-59.5703L90.1367-39.8438L70.4102-59.5703Q69.3848-60.6445 67.9199-60.6445Q66.5039-60.6445 65.5029-59.6924Q64.502-58.7402 64.502-57.3242Q64.502-55.9082 65.5762-54.8828L85.3516-35.1074L65.5762-15.2832Q64.502-14.2578 64.502-12.8418Q64.502-11.4258 65.5029-10.4492Q66.5039-9.47266 67.9199-9.47266Z"/>
  </g>
  <g id="Thin-L" transform="matrix(1 0 0 1 777.638 1556)">
   <path class="multicolor-0:systemRedColor hierarchical-0:secondary SFSymbolsPreviewFF3B30" d="M124.902 20.3613Q133.008 20.3613 137.256 16.1377Q141.504 11.9141 141.504 3.75977L141.504-73.9746Q141.504-82.1777 137.256-86.377Q133.008-90.5762 124.902-90.5762L72.4121-90.5762Q69.043-90.5762 66.2598-90.1123Q63.4766-89.6484 61.084-88.4033Q58.6914-87.1582 56.4941-84.9121L17.627-45.459Q15.8691-43.75 14.8438-42.1387Q13.8184-40.5273 13.3545-38.8672Q12.8906-37.207 12.8906-35.3516Q12.8906-33.5449 13.3301-31.8604Q13.7695-30.1758 14.8193-28.5156Q15.8691-26.8555 17.627-25.1953L56.4941 13.1836Q58.7402 15.4297 61.1328 17.0166Q63.5254 18.6035 66.2842 19.4824Q69.043 20.3613 72.4121 20.3613ZM124.707 16.4062L72.4121 16.4062Q68.4082 16.4062 65.3076 14.8926Q62.207 13.3789 59.2773 10.4492L20.5566-27.8809Q18.6035-29.834 17.8223-31.5674Q17.041-33.3008 17.041-35.3516Q17.041-37.3047 17.8467-39.0625Q18.6523-40.8203 20.5566-42.7246L59.2773-82.1777Q62.1582-85.1074 65.2832-85.8643Q68.4082-86.6211 72.4121-86.6211L124.707-86.6211Q131.055-86.6211 134.302-83.374Q137.549-80.127 137.549-73.7793L137.549 3.56445Q137.549 9.91211 134.302 13.1592Q131.055 16.4062 124.707 16.4062Z"/>
   <path class="multicolor-0:systemRedColor hierarchical-1:primary SFSymbolsPreviewFF3B30" d="M65.4297-10.1562Q66.4062-10.1562 67.2363-10.9375L88.2324-31.9824L109.277-10.9375Q110.059-10.1562 110.986-10.1562Q111.914-10.1562 112.549-10.7422Q113.184-11.3281 113.184-12.207Q113.184-13.1348 112.451-13.8672L91.2598-35.0586L112.451-56.25Q113.184-56.9824 113.184-57.9102Q113.184-58.7402 112.573-59.3262Q111.963-59.9121 111.035-59.9121Q110.107-59.9121 109.277-59.1309L88.2324-38.0859L67.1875-59.1309Q66.4062-59.9121 65.4297-59.9121Q64.5508-59.9121 63.916-59.3262Q63.2812-58.7402 63.2812-57.9102Q63.2812-56.9824 64.0137-56.2012L85.2051-35.0586L64.0137-13.8672Q63.2812-13.1348 63.2812-12.207Q63.2812-11.3281 63.916-10.7422Q64.5508-10.1562 65.4297-10.1562Z"/>
  </g>
  <g id="Ultralight-L" transform="matrix(1 0 0 1 481.806 1556)">
   <path class="multicolor-0:systemRedColor hierarchical-0:secondary SFSymbolsPreviewFF3B30" d="M123.828 19.8242Q131.592 19.8242 135.669 15.7471Q139.746 11.6699 139.746 3.85742L139.746-74.0723Q139.746-81.8848 135.669-85.9375Q131.592-89.9902 123.828-89.9902L71.875-89.9902Q68.5547-89.9902 65.918-89.5752Q63.2812-89.1602 61.0107-88.0127Q58.7402-86.8652 56.5918-84.7168L17.334-45.0684Q15.6738-43.457 14.6973-41.9189Q13.7207-40.3809 13.3057-38.7695Q12.8906-37.1582 12.8906-35.3516Q12.8906-33.5938 13.3057-31.958Q13.7207-30.3223 14.6729-28.7598Q15.625-27.1973 17.334-25.5859L56.5918 12.793Q58.7891 14.9414 61.0596 16.5039Q63.3301 18.0664 65.9424 18.9453Q68.5547 19.8242 71.875 19.8242ZM123.633 17.2363L71.9238 17.2363Q67.7734 17.2363 64.5508 15.6006Q61.3281 13.9648 58.3496 10.9375L19.1895-27.3926Q17.1875-29.4434 16.333-31.2988Q15.4785-33.1543 15.4785-35.3516Q15.4785-37.5 16.3574-39.3555Q17.2363-41.2109 19.1895-43.2129L58.3496-82.9102Q61.3281-85.8887 64.5752-86.6699Q67.8223-87.4512 71.875-87.4512L123.633-87.4512Q130.371-87.4512 133.789-84.0332Q137.207-80.6152 137.207-73.9258L137.207 3.75977Q137.207 10.4004 133.789 13.8184Q130.371 17.2363 123.633 17.2363Z"/>
   <path class="multicolor-0:systemRedColor hierarchical-1:primary SFSymbolsPreviewFF3B30" d="M64.1602-10.4492Q64.8438-10.4492 65.5273-11.1328L87.207-32.8613L108.984-11.1328Q109.619-10.4492 110.303-10.4492Q110.938-10.4492 111.401-10.8398Q111.865-11.2305 111.865-11.8652Q111.865-12.5488 111.279-13.0859L89.4043-35.0098L111.279-56.8848Q111.816-57.4219 111.816-58.1543Q111.816-58.7402 111.377-59.1309Q110.938-59.5215 110.303-59.5215Q109.619-59.5215 108.936-58.8379L87.207-37.1582L65.5273-58.8379Q64.8438-59.4727 64.1602-59.4727Q63.5742-59.4727 63.1104-59.1064Q62.6465-58.7402 62.6465-58.1543Q62.6465-57.4707 63.1836-56.8848L85.1074-35.0098L63.1836-13.0859Q62.6465-12.5488 62.6465-11.8652Q62.6465-11.2305 63.1104-10.8398Q63.5742-10.4492 64.1602-10.4492Z"/>
  </g>
  <g id="Black-M" transform="matrix(1 0 0 1 2867.24 1126)">
   <path class="multicolor-0:systemRedColor hierarchical-0:secondary SFSymbolsPreviewFF3B30" d="M100.684 13.2324Q109.766 13.2324 114.795 9.22852Q119.824 5.22461 119.824-3.80859L119.824-64.4531Q119.824-73.5352 114.795-78.5645Q109.766-83.5938 100.684-83.5938L59.3262-83.5938Q54.1504-83.5938 50.708-82.7393Q47.2656-81.8848 44.5312-79.8096Q41.7969-77.7344 38.7207-74.0723L16.2109-47.0703Q13.5742-43.9453 12.2314-41.9189Q10.8887-39.8926 10.4248-38.3545Q9.96094-36.8164 9.96094-35.2051Q9.96094-32.7148 11.1572-30.2979Q12.3535-27.8809 16.2109-23.2422L38.7695 3.66211Q41.8457 7.37305 44.5557 9.44824Q47.2656 11.5234 50.6836 12.3779Q54.1016 13.2324 59.2773 13.2324ZM98.0469-4.10156L57.7148-4.10156Q56.1035-4.10156 54.834-4.73633Q53.5645-5.37109 52.3438-6.83594L29.8828-33.4961Q29.541-33.8867 29.3701-34.3506Q29.1992-34.8145 29.1992-35.2051Q29.1992-36.1328 29.8828-36.8652L52.3438-63.6719Q53.5645-65.1367 54.834-65.6982Q56.1035-66.2598 57.7148-66.2598L98.0469-66.2598Q100.293-66.2598 101.392-65.2588Q102.49-64.2578 102.49-61.8164L102.49-8.59375Q102.49-6.15234 101.392-5.12695Q100.293-4.10156 98.0469-4.10156Z"/>
   <path class="multicolor-0:systemRedColor hierarchical-1:primary SFSymbolsPreviewFF3B30" d="M60.8887-15.2344Q63.916-15.2344 65.8691-17.1875L74.2676-25.5371L82.7148-17.1875Q84.668-15.2344 87.6953-15.2344Q90.5273-15.2344 92.4072-17.1387Q94.2871-19.043 94.2871-21.9238Q94.2871-24.4629 92.2852-26.4648L83.7891-35.0586L92.2852-43.6523Q94.2871-45.6543 94.2871-48.1934Q94.2871-51.0254 92.4072-52.9297Q90.5273-54.834 87.6953-54.834Q84.7168-54.834 82.7637-52.9297L74.2676-44.4824L65.8691-52.8809Q63.916-54.834 60.8887-54.834Q58.1055-54.834 56.2012-52.9297Q54.2969-51.0254 54.2969-48.1934Q54.2969-45.6055 56.2988-43.6523L64.8926-35.0586L56.2988-26.4648Q54.2969-24.4629 54.2969-21.9238Q54.2969-19.043 56.2012-17.1387Q58.1055-15.2344 60.8887-15.2344Z"/>
  </g>
  <g id="Heavy-M" transform="matrix(1 0 0 1 2571.02 1126)">
   <path class="multicolor-0:systemRedColor hierarchical-0:secondary SFSymbolsPreviewFF3B30" d="M100.635 12.4023Q109.375 12.4023 114.111 8.44727Q118.848 4.49219 118.848-4.19922L118.848-64.5996Q118.848-73.291 114.111-78.0273Q109.375-82.7637 100.635-82.7637L59.0332-82.7637Q54.3945-82.7637 51.1475-81.9824Q47.9004-81.2012 45.2637-79.3213Q42.627-77.4414 39.7949-74.1699L15.8203-46.4844Q13.4277-43.7012 12.1582-41.7969Q10.8887-39.8926 10.4248-38.3545Q9.96094-36.8164 9.96094-35.2051Q9.96094-32.7637 11.1328-30.3955Q12.3047-28.0273 15.8203-23.877L39.8438 3.66211Q42.6758 7.03125 45.2881 8.91113Q47.9004 10.791 51.123 11.5967Q54.3457 12.4023 58.9844 12.4023ZM98.584-2.68555L57.7637-2.68555Q55.8594-2.68555 54.4434-3.34473Q53.0273-4.00391 51.6113-5.61523L27.7344-32.959Q27.1484-33.5449 26.9287-34.1309Q26.709-34.7168 26.709-35.2051Q26.709-36.3281 27.7344-37.4512L51.6113-64.9414Q52.9785-66.5039 54.4189-67.0898Q55.8594-67.6758 57.7637-67.6758L98.584-67.6758Q101.172-67.6758 102.466-66.4551Q103.76-65.2344 103.76-62.4512L103.76-7.91016Q103.76-5.17578 102.466-3.93066Q101.172-2.68555 98.584-2.68555Z"/>
   <path class="multicolor-0:systemRedColor hierarchical-1:primary SFSymbolsPreviewFF3B30" d="M59.5215-15.0391Q62.2559-15.0391 64.0137-16.8457L73.6816-26.5137L83.3984-16.8457Q85.1562-15.0391 87.8906-15.0391Q90.4297-15.0391 92.1387-16.7725Q93.8477-18.5059 93.8477-21.0938Q93.8477-23.4375 92.041-25.2441L82.2754-35.0586L92.041-44.9219Q93.8477-46.7285 93.8477-49.0234Q93.8477-51.6113 92.1387-53.3203Q90.4297-55.0293 87.8906-55.0293Q85.2539-55.0293 83.4961-53.3203L73.6816-43.5547L63.9648-53.2715Q62.207-55.0293 59.5215-55.0293Q57.0312-55.0293 55.2979-53.2959Q53.5645-51.5625 53.5645-49.0234Q53.5645-46.6797 55.3711-44.9219L65.1855-35.0586L55.3711-25.2441Q53.5645-23.4375 53.5645-21.0938Q53.5645-18.5059 55.2979-16.7725Q57.0312-15.0391 59.5215-15.0391Z"/>
  </g>
  <g id="Bold-M" transform="matrix(1 0 0 1 2274.84 1126)">
   <path class="multicolor-0:systemRedColor hierarchical-0:secondary SFSymbolsPreviewFF3B30" d="M100.586 11.5234Q108.936 11.5234 113.379 7.61719Q117.822 3.71094 117.822-4.58984L117.822-64.7461Q117.822-73.0469 113.379-77.4658Q108.936-81.8848 100.586-81.8848L58.6914-81.8848Q54.6387-81.8848 51.6357-81.1768Q48.6328-80.4688 46.1182-78.8086Q43.6035-77.1484 41.0645-74.2676L15.4297-45.8008Q13.2812-43.457 12.1094-41.6504Q10.9375-39.8438 10.4492-38.3301Q9.96094-36.8164 9.96094-35.2539Q9.96094-32.8613 11.1328-30.5176Q12.3047-28.1738 15.4297-24.6094L41.1133 3.71094Q43.6523 6.64062 46.167 8.3252Q48.6816 10.0098 51.6602 10.7422Q54.6387 11.4746 58.6914 11.4746ZM99.2188-1.12305L57.8125-1.12305Q55.6152-1.12305 54.0039-1.83105Q52.3926-2.53906 50.8301-4.24805L25.293-32.3242Q24.5117-33.1543 24.1943-33.8623Q23.877-34.5703 23.877-35.2539Q23.877-36.6211 25.293-38.1348L50.8301-66.3574Q52.3926-68.0664 54.0039-68.6768Q55.6152-69.2871 57.8125-69.2871L99.2188-69.2871Q102.148-69.2871 103.687-67.8223Q105.225-66.3574 105.225-63.2324L105.225-7.17773Q105.225-4.05273 103.687-2.58789Q102.148-1.12305 99.2188-1.12305Z"/>
   <path class="multicolor-0:systemRedColor hierarchical-1:primary SFSymbolsPreviewFF3B30" d="M58.0566-14.8926Q60.4004-14.8926 61.9629-16.4551L73.0469-27.5879L84.2285-16.4551Q85.791-14.8926 88.1348-14.8926Q90.332-14.8926 91.8457-16.4307Q93.3594-17.9688 93.3594-20.2148Q93.3594-22.2656 91.7969-23.877L80.6152-35.1074L91.7969-46.3867Q93.4082-47.9492 93.4082-50Q93.4082-52.2461 91.8945-53.7598Q90.3809-55.2734 88.1348-55.2734Q85.8887-55.2734 84.3262-53.7109L73.0469-42.5293L61.9141-53.6621Q60.4004-55.2246 58.0566-55.2246Q55.8594-55.2246 54.3213-53.7109Q52.7832-52.1973 52.7832-50Q52.7832-47.9004 54.3945-46.3379L65.625-35.1074L54.3945-23.8281Q52.7832-22.2656 52.7832-20.2148Q52.7832-17.9688 54.3213-16.4307Q55.8594-14.8926 58.0566-14.8926Z"/>
  </g>
  <g id="Semibold-M" transform="matrix(1 0 0 1 1978.5 1126)">
   <path class="multicolor-0:systemRedColor hierarchical-0:secondary SFSymbolsPreviewFF3B30" d="M100.537 10.8887Q108.643 10.8887 112.842 7.03125Q117.041 3.17383 117.041-4.88281L117.041-64.8438Q117.041-72.8516 112.842-77.0508Q108.643-81.25 100.537-81.25L58.4473-81.25Q54.834-81.25 51.9775-80.5908Q49.1211-79.9316 46.6797-78.418Q44.2383-76.9043 41.8945-74.3164L15.0879-45.3613Q13.1836-43.2617 12.0605-41.5527Q10.9375-39.8438 10.4492-38.3301Q9.96094-36.8164 9.96094-35.2539Q9.96094-32.9102 11.1084-30.5908Q12.2559-28.2715 15.0879-25.0977L41.9434 3.71094Q44.2871 6.34766 46.7285 7.91016Q49.1699 9.47266 52.002 10.1562Q54.834 10.8398 58.4473 10.8398ZM99.6094 0L57.8613 0Q55.4199 0 53.6865-0.732422Q51.9531-1.46484 50.293-3.27148L23.6328-31.8848Q22.7051-32.9102 22.3145-33.6914Q21.9238-34.4727 21.9238-35.2539Q21.9238-36.7676 23.6328-38.5742L50.2441-67.334Q51.9531-69.1406 53.6865-69.751Q55.4199-70.3613 57.8125-70.3613L99.6094-70.3613Q102.832-70.3613 104.517-68.7256Q106.201-67.0898 106.201-63.7207L106.201-6.64062Q106.201-3.27148 104.517-1.63574Q102.832 0 99.6094 0Z"/>
   <path class="multicolor-0:systemRedColor hierarchical-1:primary SFSymbolsPreviewFF3B30" d="M56.9824-14.7949Q59.1309-14.7949 60.498-16.2598L72.6074-28.3691L84.8145-16.2598Q86.2305-14.7949 88.2812-14.7949Q90.2832-14.7949 91.6504-16.1865Q93.0176-17.5781 93.0176-19.6289Q93.0176-21.5332 91.6016-22.9492L79.4434-35.1562L91.6504-47.4121Q93.0664-48.8281 93.0664-50.6836Q93.0664-52.6855 91.6992-54.0771Q90.332-55.4688 88.3301-55.4688Q86.3281-55.4688 84.9121-54.0527L72.6074-41.8457L60.4492-54.0039Q59.082-55.4199 56.9824-55.4199Q55.0293-55.4199 53.6377-54.0527Q52.2461-52.6855 52.2461-50.6836Q52.2461-48.7305 53.6621-47.3633L65.8691-35.1562L53.6621-22.9004Q52.2461-21.5332 52.2461-19.6289Q52.2461-17.5781 53.6377-16.1865Q55.0293-14.7949 56.9824-14.7949Z"/>
  </g>
  <g id="Medium-M" transform="matrix(1 0 0 1 1682.08 1126)">
   <path class="multicolor-0:systemRedColor hierarchical-0:secondary SFSymbolsPreviewFF3B30" d="M100.488 10.4004Q108.398 10.4004 112.451 6.56738Q116.504 2.73438 116.504-5.07812L116.504-64.8926Q116.504-72.7539 112.451-76.7578Q108.398-80.7617 100.488-80.7617L58.252-80.7617Q54.9316-80.7617 52.2217-80.1514Q49.5117-79.541 47.1191-78.125Q44.7266-76.709 42.5293-74.3652L14.8926-44.9707Q13.0859-43.1152 12.0117-41.4551Q10.9375-39.7949 10.4492-38.3057Q9.96094-36.8164 9.96094-35.2539Q9.96094-32.959 11.1084-30.6641Q12.2559-28.3691 14.8926-25.4883L42.5781 3.75977Q44.7754 6.15234 47.168 7.59277Q49.5605 9.0332 52.2705 9.69238Q54.9805 10.3516 58.252 10.3516ZM99.9512 0.830078L57.8613 0.830078Q55.3223 0.830078 53.4912 0.0732422Q51.6602-0.683594 49.8535-2.53906L22.3633-31.5918Q21.2891-32.666 20.874-33.5449Q20.459-34.4238 20.459-35.2539Q20.459-36.9141 22.3633-38.9648L49.8047-68.0664Q51.6113-69.9219 53.4668-70.5566Q55.3223-71.1914 57.8125-71.1914L99.9512-71.1914Q103.32-71.1914 105.127-69.4336Q106.934-67.6758 106.934-64.1113L106.934-6.25Q106.934-2.68555 105.127-0.927734Q103.32 0.830078 99.9512 0.830078Z"/>
   <path class="multicolor-0:systemRedColor hierarchical-1:primary SFSymbolsPreviewFF3B30" d="M56.2012-14.6973Q58.1543-14.6973 59.4238-16.0156L72.2656-28.9062L85.2051-16.0156Q86.5234-14.6973 88.3789-14.6973Q90.1855-14.6973 91.4795-15.9912Q92.7734-17.2852 92.7734-19.1406Q92.7734-20.8984 91.4551-22.2168L78.5156-35.1562L91.4551-48.1445Q92.8223-49.4629 92.8223-51.2207Q92.8223-53.0273 91.5283-54.3213Q90.2344-55.6152 88.4277-55.6152Q86.6211-55.6152 85.3027-54.248L72.2656-41.3086L59.3262-54.1992Q58.1055-55.5176 56.2012-55.5176Q54.3945-55.5176 53.1006-54.248Q51.8066-52.9785 51.8066-51.1719Q51.8066-49.3652 53.125-48.0957L66.0645-35.1562L53.125-22.168Q51.8066-20.8984 51.8066-19.1406Q51.8066-17.2852 53.1006-15.9912Q54.3945-14.6973 56.2012-14.6973Z"/>
  </g>
  <g id="Regular-M" transform="matrix(1 0 0 1 1385.73 1126)">
   <path class="multicolor-0:systemRedColor hierarchical-0:secondary SFSymbolsPreviewFF3B30" d="M100.439 9.76562Q108.105 9.76562 111.938 5.98145Q115.771 2.19727 115.771-5.37109L115.771-64.9902Q115.771-72.5586 111.938-76.3428Q108.105-80.127 100.439-80.127L58.0078-80.127Q55.127-80.127 52.5635-79.5898Q50-79.0527 47.6807-77.7832Q45.3613-76.5137 43.3594-74.4141L14.5996-44.5312Q12.9883-42.9199 11.9629-41.3574Q10.9375-39.7949 10.4492-38.3057Q9.96094-36.8164 9.96094-35.2539Q9.96094-33.0078 11.084-30.7373Q12.207-28.4668 14.5996-25.9766L43.4082 3.75977Q45.4102 5.85938 47.7295 7.17773Q50.0488 8.49609 52.6123 9.10645Q55.1758 9.7168 58.0566 9.7168ZM100.342 1.9043L57.9102 1.9043Q55.127 1.9043 53.1738 1.12305Q51.2207 0.341797 49.3164-1.61133L20.7031-31.1523Q19.4824-32.4219 19.0186-33.374Q18.5547-34.3262 18.5547-35.2539Q18.5547-37.0605 20.7031-39.4043L49.2676-69.043Q51.1719-70.9961 53.1494-71.6309Q55.127-72.2656 57.8613-72.2656L100.342-72.2656Q104.004-72.2656 105.957-70.3369Q107.91-68.4082 107.91-64.5996L107.91-5.76172Q107.91-1.95312 105.957-0.0244141Q104.004 1.9043 100.342 1.9043Z"/>
   <path class="multicolor-0:systemRedColor hierarchical-1:primary SFSymbolsPreviewFF3B30" d="M55.1758-14.5508Q56.8848-14.5508 58.0078-15.7715L71.8262-29.6387L85.7422-15.7715Q86.9141-14.5508 88.5254-14.5508Q90.1367-14.5508 91.2842-15.7227Q92.4316-16.8945 92.4316-18.5059Q92.4316-20.1172 91.2598-21.2891L77.3926-35.1562L91.3086-49.1211Q92.4805-50.293 92.4805-51.8555Q92.4805-53.4668 91.333-54.6143Q90.1855-55.7617 88.5742-55.7617Q87.0605-55.7617 85.8887-54.541L71.8262-40.625L57.9102-54.4922Q56.8359-55.6641 55.1758-55.6641Q53.5645-55.6641 52.417-54.541Q51.2695-53.418 51.2695-51.8066Q51.2695-50.1953 52.4414-49.0723L66.3086-35.1562L52.4414-21.2402Q51.2695-20.1172 51.2695-18.5059Q51.2695-16.8945 52.417-15.7227Q53.5645-14.5508 55.1758-14.5508Z"/>
  </g>
  <g id="Light-M" transform="matrix(1 0 0 1 1090.17 1126)">
   <path class="multicolor-0:systemRedColor hierarchical-0:secondary SFSymbolsPreviewFF3B30" d="M99.0234 9.0332Q106.201 9.0332 109.839 5.44434Q113.477 1.85547 113.477-5.22461L113.477-65.0879Q113.477-72.2168 109.839-75.8057Q106.201-79.3945 99.0234-79.3945L57.2754-79.3945Q54.4922-79.3945 52.0996-78.9062Q49.707-78.418 47.5586-77.2705Q45.4102-76.123 43.5059-74.1699L14.2578-43.9941Q12.7441-42.5293 11.792-41.0645Q10.8398-39.5996 10.4004-38.1836Q9.96094-36.7676 9.96094-35.3027Q9.96094-33.1055 10.9863-30.957Q12.0117-28.8086 14.2578-26.5137L43.5547 3.22266Q45.459 5.17578 47.583 6.46973Q49.707 7.76367 52.124 8.37402Q54.541 8.98438 57.3242 8.98438ZM98.9258 2.97852L57.2266 2.97852Q54.3457 2.97852 52.1973 2.05078Q50.0488 1.12305 48.0469-0.927734L18.8965-30.5176Q17.5781-31.8848 17.041-33.0078Q16.5039-34.1309 16.5039-35.3027Q16.5039-37.5 18.8965-40.0391L47.998-70.0195Q50.0488-72.0703 52.1973-72.7051Q54.3457-73.3398 57.1777-73.3398L98.9258-73.3398Q103.076-73.3398 105.249-71.1914Q107.422-69.043 107.422-64.7949L107.422-5.51758Q107.422-1.31836 105.249 0.830078Q103.076 2.97852 98.9258 2.97852Z"/>
   <path class="multicolor-0:systemRedColor hierarchical-1:primary SFSymbolsPreviewFF3B30" d="M53.5156-14.9902Q54.834-14.9902 55.7617-16.0156L70.5078-30.7617L85.3516-16.0156Q86.3281-14.9902 87.5977-14.9902Q88.8672-14.9902 89.7705-15.8936Q90.6738-16.7969 90.6738-18.0664Q90.6738-19.3359 89.6973-20.2637L74.9023-35.1074L89.7461-50Q90.6738-50.9277 90.6738-52.1973Q90.6738-53.4668 89.7949-54.3457Q88.916-55.2246 87.6465-55.2246Q86.4258-55.2246 85.4492-54.1992L70.5078-39.4043L55.7129-54.1992Q54.834-55.127 53.5156-55.127Q52.2461-55.127 51.3428-54.2725Q50.4395-53.418 50.4395-52.1484Q50.4395-50.8789 51.3672-49.9512L66.2109-35.1074L51.3672-20.2148Q50.4395-19.3359 50.4395-18.0664Q50.4395-16.7969 51.3428-15.8936Q52.2461-14.9902 53.5156-14.9902Z"/>
  </g>
  <g id="Thin-M" transform="matrix(1 0 0 1 794.996 1126)">
   <path class="multicolor-0:systemRedColor hierarchical-0:secondary SFSymbolsPreviewFF3B30" d="M97.2168 8.05664Q103.711 8.05664 107.056 4.73633Q110.4 1.41602 110.4-5.07812L110.4-65.2344Q110.4-71.7285 107.056-75.0488Q103.711-78.3691 97.2168-78.3691L56.3477-78.3691Q53.6621-78.3691 51.4893-77.9785Q49.3164-77.5879 47.3877-76.5869Q45.459-75.5859 43.7012-73.8281L13.7695-43.3105Q12.4023-41.9922 11.5723-40.6738Q10.7422-39.3555 10.3516-38.0615Q9.96094-36.7676 9.96094-35.3027Q9.96094-33.2031 10.8398-31.25Q11.7188-29.2969 13.7695-27.2461L43.7012 2.49023Q45.5078 4.24805 47.4121 5.49316Q49.3164 6.73828 51.5137 7.39746Q53.7109 8.05664 56.3477 8.05664ZM97.1191 4.44336L56.3477 4.44336Q53.2715 4.44336 50.9033 3.2959Q48.5352 2.14844 46.3867-0.0488281L16.5039-29.6875Q15.0391-31.2012 14.4531-32.5195Q13.8672-33.8379 13.8672-35.3027Q13.8672-38.0859 16.5039-40.8691L46.3379-71.2891Q48.5352-73.5352 50.9033-74.1211Q53.2715-74.707 56.2988-74.707L97.1191-74.707Q101.855-74.707 104.297-72.29Q106.738-69.873 106.738-65.0391L106.738-5.22461Q106.738-0.439453 104.297 2.00195Q101.855 4.44336 97.1191 4.44336Z"/>
   <path class="multicolor-0:systemRedColor hierarchical-1:primary SFSymbolsPreviewFF3B30" d="M51.2695-15.6738Q52.0996-15.6738 52.832-16.3574L68.7988-32.373L84.8145-16.3574Q85.498-15.6738 86.3281-15.6738Q87.1582-15.6738 87.7197-16.2109Q88.2812-16.748 88.2812-17.5293Q88.2812-18.3594 87.6465-18.9941L71.5332-35.1074L87.6465-51.2207Q88.3301-51.8555 88.3301-52.6855Q88.3301-53.4668 87.7441-54.0039Q87.1582-54.541 86.3281-54.541Q85.5469-54.541 84.8633-53.8574L68.7988-37.8418L52.7832-53.8574Q52.0996-54.541 51.2695-54.541Q50.4395-54.541 49.8779-54.0039Q49.3164-53.4668 49.3164-52.6855Q49.3164-51.8555 49.9512-51.2207L66.0645-35.1074L49.9512-18.9941Q49.3164-18.3594 49.3164-17.5293Q49.3164-16.748 49.8779-16.2109Q50.4395-15.6738 51.2695-15.6738Z"/>
  </g>
  <g id="Ultralight-M" transform="matrix(1 0 0 1 499.067 1126)">
   <path class="multicolor-0:systemRedColor hierarchical-0:secondary SFSymbolsPreviewFF3B30" d="M96.2402 7.56836Q102.441 7.56836 105.64 4.39453Q108.838 1.2207 108.838-4.98047L108.838-65.332Q108.838-71.4844 105.64-74.6826Q102.441-77.8809 96.2402-77.8809L55.8594-77.8809Q53.2715-77.8809 51.1719-77.5146Q49.0723-77.1484 47.29-76.2451Q45.5078-75.3418 43.7988-73.6328L13.5254-42.9199Q12.207-41.6992 11.4258-40.4785Q10.6445-39.2578 10.3027-37.9883Q9.96094-36.7188 9.96094-35.3516Q9.96094-33.252 10.7666-31.3721Q11.5723-29.4922 13.5254-27.5879L43.7988 2.14844Q45.5566 3.75977 47.3145 5.00488Q49.0723 6.25 51.1719 6.90918Q53.2715 7.56836 55.8594 7.56836ZM96.1426 5.17578L55.8594 5.17578Q52.7344 5.17578 50.2441 3.93066Q47.7539 2.68555 45.5078 0.439453L15.2832-29.2969Q13.7695-30.8105 13.1104-32.251Q12.4512-33.6914 12.4512-35.3516Q12.4512-38.3789 15.2832-41.2598L45.5078-71.9727Q47.7539-74.2676 50.2441-74.8535Q52.7344-75.4395 55.8594-75.4395L96.1426-75.4395Q101.221-75.4395 103.809-72.8516Q106.396-70.2637 106.396-65.1855L106.396-5.07812Q106.396 0 103.809 2.58789Q101.221 5.17578 96.1426 5.17578Z"/>
   <path class="multicolor-0:systemRedColor hierarchical-1:primary SFSymbolsPreviewFF3B30" d="M50.1465-15.9668Q50.7812-15.9668 51.3184-16.5039L67.9199-33.1055L84.5703-16.5039Q85.1074-15.9668 85.6934-15.9668Q86.3281-15.9668 86.7188-16.3086Q87.1094-16.6504 87.1094-17.2363Q87.1094-17.7734 86.6211-18.2617L69.873-35.0586L86.6211-51.8066Q87.1094-52.2949 87.1094-52.8809Q87.1094-53.4668 86.7188-53.8086Q86.3281-54.1504 85.7422-54.1504Q85.1074-54.1504 84.5703-53.6133L67.9199-36.9629L51.3184-53.6133Q50.7812-54.1504 50.1465-54.1504Q49.5605-54.1504 49.1699-53.8086Q48.7793-53.4668 48.7793-52.8809Q48.7793-52.2949 49.2676-51.8066L66.0156-35.0586L49.2676-18.2617Q48.7793-17.7734 48.7793-17.2363Q48.7793-16.6504 49.1699-16.3086Q49.5605-15.9668 50.1465-15.9668Z"/>
  </g>
  <g id="Black-S" transform="matrix(1 0 0 1 2881.5 696)">
   <path class="multicolor-0:systemRedColor hierarchical-0:secondary SFSymbolsPreviewFF3B30" d="M78.8086 2.92969Q85.9863 2.92969 90.0146-0.195312Q94.043-3.32031 94.043-10.498L94.043-58.1055Q94.043-65.2832 90.0146-69.3115Q85.9863-73.3398 78.8086-73.3398L46.5332-73.3398Q42.334-73.3398 39.5752-72.6562Q36.8164-71.9727 34.668-70.2881Q32.5195-68.6035 30.0293-65.625L12.793-44.6777Q9.61914-40.8203 8.71582-38.9648Q7.8125-37.1094 7.8125-35.2051Q7.8125-33.252 8.74023-31.3477Q9.66797-29.4434 12.793-25.6836L30.0293-4.78516Q32.5195-1.80664 34.668-0.12207Q36.8164 1.5625 39.5508 2.24609Q42.2852 2.92969 46.4844 2.92969ZM76.5625-11.2305L45.166-11.2305Q43.9941-11.2305 43.042-11.7188Q42.0898-12.207 41.1621-13.3301L23.9746-33.9844Q23.7793-34.2285 23.6572-34.5703Q23.5352-34.9121 23.5352-35.2051Q23.5352-35.8887 23.9746-36.377L41.1621-57.1777Q42.0898-58.3008 43.042-58.7402Q43.9941-59.1797 45.166-59.1797L76.5625-59.1797Q78.2715-59.1797 79.0771-58.4473Q79.8828-57.7148 79.8828-55.8594L79.8828-14.5508Q79.8828-12.7441 79.0771-11.9873Q78.2715-11.2305 76.5625-11.2305Z"/>
   <path class="multicolor-0:systemRedColor hierarchical-1:primary SFSymbolsPreviewFF3B30" d="M47.998-19.6289Q50.4395-19.6289 52.002-21.1914L58.252-27.3926L64.5508-21.1914Q66.1133-19.6289 68.5547-19.6289Q70.8496-19.6289 72.3633-21.167Q73.877-22.7051 73.877-25Q73.877-27.0508 72.2656-28.6621L65.918-35.0586L72.2656-41.4551Q73.877-43.0664 73.877-45.1172Q73.877-47.4121 72.3633-48.9502Q70.8496-50.4883 68.5547-50.4883Q66.1133-50.4883 64.5508-48.9258L58.252-42.6758L52.002-48.9258Q50.4395-50.4883 47.998-50.4883Q45.752-50.4883 44.2139-48.9502Q42.6758-47.4121 42.6758-45.1172Q42.6758-43.0664 44.2871-41.4551L50.6836-35.0586L44.2871-28.6621Q42.6758-27.0508 42.6758-25Q42.6758-22.7051 44.2139-21.167Q45.752-19.6289 47.998-19.6289Z"/>
  </g>
  <g id="Heavy-S" transform="matrix(1 0 0 1 2585.05 696)">
   <path class="multicolor-0:systemRedColor hierarchical-0:secondary SFSymbolsPreviewFF3B30" d="M78.9551 2.34375Q85.8887 2.34375 89.6973-0.78125Q93.5059-3.90625 93.5059-10.8398L93.5059-58.2031Q93.5059-65.1367 89.6973-68.9453Q85.8887-72.7539 78.9551-72.7539L46.3379-72.7539Q42.627-72.7539 40.0146-72.1191Q37.4023-71.4844 35.3271-69.9463Q33.252-68.4082 30.957-65.7227L12.5-44.2383Q9.61914-40.8203 8.71582-38.9648Q7.8125-37.1094 7.8125-35.2051Q7.8125-33.3008 8.74023-31.3965Q9.66797-29.4922 12.5-26.1719L30.957-4.6875Q33.252-2.00195 35.3271-0.488281Q37.4023 1.02539 39.9902 1.66016Q42.5781 2.29492 46.3379 2.29492ZM77.1973-10.1562L45.3125-10.1562Q43.8965-10.1562 42.8223-10.6445Q41.748-11.1328 40.7227-12.3535L22.3633-33.5938Q21.9727-34.0332 21.8018-34.4482Q21.6309-34.8633 21.6309-35.2051Q21.6309-36.0352 22.3633-36.8164L40.7227-58.1543Q41.748-59.3262 42.8223-59.79Q43.8965-60.2539 45.2637-60.2539L77.1973-60.2539Q79.1504-60.2539 80.1025-59.3506Q81.0547-58.4473 81.0547-56.3965L81.0547-14.0137Q81.0547-11.9629 80.1025-11.0596Q79.1504-10.1562 77.1973-10.1562Z"/>
   <path class="multicolor-0:systemRedColor hierarchical-1:primary SFSymbolsPreviewFF3B30" d="M47.0703-19.4336Q49.3164-19.4336 50.7324-20.8496L57.959-28.0762L65.2344-20.8496Q66.6504-19.4336 68.8477-19.4336Q70.9473-19.4336 72.3389-20.8496Q73.7305-22.2656 73.7305-24.3652Q73.7305-26.2695 72.2656-27.7344L64.9902-35.0586L72.2656-42.4316Q73.7793-43.8965 73.7793-45.8008Q73.7793-47.9004 72.3633-49.3164Q70.9473-50.7324 68.8965-50.7324Q66.6992-50.7324 65.2344-49.2676L57.959-42.041L50.6836-49.2676Q49.2676-50.6836 47.0703-50.6836Q45.0195-50.6836 43.6035-49.292Q42.1875-47.9004 42.1875-45.8008Q42.1875-43.8965 43.6523-42.4316L51.0254-35.0586L43.6523-27.7344Q42.1875-26.2695 42.1875-24.3652Q42.1875-22.2656 43.6035-20.8496Q45.0195-19.4336 47.0703-19.4336Z"/>
  </g>
  <g id="Bold-S" transform="matrix(1 0 0 1 2288.61 696)">
   <path class="multicolor-0:systemRedColor hierarchical-0:secondary SFSymbolsPreviewFF3B30" d="M79.1016 1.66016Q85.791 1.66016 89.3799-1.44043Q92.9688-4.54102 92.9688-11.2305L92.9688-58.3008Q92.9688-64.9902 89.3799-68.5303Q85.791-72.0703 79.1016-72.0703L46.1914-72.0703Q42.9199-72.0703 40.5029-71.5088Q38.0859-70.9473 36.0596-69.5801Q34.0332-68.2129 31.9824-65.8691L12.207-43.75Q9.66797-40.8203 8.74023-38.9648Q7.8125-37.1094 7.8125-35.2539Q7.8125-33.3496 8.74023-31.4697Q9.66797-29.5898 12.207-26.709L31.9824-4.63867Q34.082-2.29492 36.084-0.90332Q38.0859 0.488281 40.5029 1.07422Q42.9199 1.66016 46.1914 1.66016ZM77.9297-8.98438L45.459-8.98438Q43.7988-8.98438 42.6025-9.47266Q41.4062-9.96094 40.2344-11.2793L20.5566-33.1543Q19.9707-33.7891 19.751-34.2773Q19.5312-34.7656 19.5312-35.2539Q19.5312-36.1816 20.5566-37.3047L40.1855-59.2285Q41.3574-60.498 42.5781-60.9863Q43.7988-61.4746 45.4102-61.4746L77.9297-61.4746Q80.127-61.4746 81.2256-60.4004Q82.3242-59.3262 82.3242-57.0312L82.3242-13.4277Q82.3242-11.1328 81.2256-10.0586Q80.127-8.98438 77.9297-8.98438Z"/>
   <path class="multicolor-0:systemRedColor hierarchical-1:primary SFSymbolsPreviewFF3B30" d="M45.9961-19.2383Q47.998-19.2383 49.2676-20.5566L57.5684-28.8574L65.918-20.5566Q67.2363-19.2383 69.1895-19.2383Q71.0449-19.2383 72.3145-20.5322Q73.584-21.8262 73.584-23.6816Q73.584-25.4395 72.2656-26.7578L63.8672-35.1562L72.2656-43.6035Q73.584-44.9219 73.584-46.6309Q73.584-48.4863 72.3145-49.7559Q71.0449-51.0254 69.1895-51.0254Q67.334-51.0254 66.0156-49.7559L57.5684-41.3574L49.2188-49.707Q47.9492-51.0254 45.9961-51.0254Q44.1895-51.0254 42.8955-49.7559Q41.6016-48.4863 41.6016-46.582Q41.6016-44.873 42.9199-43.5547L51.3184-35.1562L42.9199-26.709Q41.6016-25.4395 41.6016-23.6816Q41.6016-21.8262 42.8955-20.5322Q44.1895-19.2383 45.9961-19.2383Z"/>
  </g>
  <g id="Semibold-S" transform="matrix(1 0 0 1 1992.12 696)">
   <path class="multicolor-0:systemRedColor hierarchical-0:secondary SFSymbolsPreviewFF3B30" d="M79.1992 1.2207Q85.7422 1.2207 89.1357-1.87988Q92.5293-4.98047 92.5293-11.4746L92.5293-58.3496Q92.5293-64.8438 89.1357-68.2373Q85.7422-71.6309 79.1992-71.6309L46.0449-71.6309Q43.1152-71.6309 40.8203-71.0938Q38.5254-70.5566 36.5479-69.2871Q34.5703-68.0176 32.666-65.918L12.0117-43.3594Q9.66797-40.7715 8.74023-38.916Q7.8125-37.0605 7.8125-35.2539Q7.8125-33.3984 8.74023-31.5186Q9.66797-29.6387 12.0117-27.0996L32.7148-4.54102Q34.6191-2.44141 36.5723-1.19629Q38.5254 0.0488281 40.8447 0.610352Q43.1641 1.17188 46.0449 1.17188ZM78.418-8.1543L45.5566-8.1543Q43.75-8.1543 42.4561-8.64258Q41.1621-9.13086 39.8438-10.5469L19.2871-32.8613Q18.6035-33.5938 18.335-34.1553Q18.0664-34.7168 18.0664-35.2539Q18.0664-36.2793 19.2871-37.5977L39.8438-59.9609Q41.1133-61.2793 42.4072-61.7676Q43.7012-62.2559 45.5078-62.2559L78.418-62.2559Q80.7617-62.2559 81.9824-61.0596Q83.2031-59.8633 83.2031-57.4219L83.2031-12.9883Q83.2031-10.498 81.9824-9.32617Q80.7617-8.1543 78.418-8.1543Z"/>
   <path class="multicolor-0:systemRedColor hierarchical-1:primary SFSymbolsPreviewFF3B30" d="M45.2637-19.0918Q47.0703-19.0918 48.2422-20.2637L57.3242-29.3945L66.4062-20.2637Q67.627-19.0918 69.3848-19.0918Q71.0938-19.0918 72.2656-20.2637Q73.4375-21.4355 73.4375-23.1934Q73.4375-24.8047 72.2168-26.0254L63.1348-35.1562L72.2656-44.3359Q73.4863-45.5566 73.4863-47.1191Q73.4863-48.877 72.29-50.0488Q71.0938-51.2207 69.4336-51.2207Q67.7246-51.2207 66.5039-50L57.3242-40.8691L48.1934-49.9512Q47.0215-51.1719 45.2637-51.1719Q43.6035-51.1719 42.4072-50Q41.2109-48.8281 41.2109-47.1191Q41.2109-45.459 42.4316-44.2871L51.5625-35.1562L42.4316-25.9766Q41.2109-24.8047 41.2109-23.1934Q41.2109-21.4355 42.4072-20.2637Q43.6035-19.0918 45.2637-19.0918Z"/>
  </g>
  <g id="Medium-S" transform="matrix(1 0 0 1 1695.55 696)">
   <path class="multicolor-0:systemRedColor hierarchical-0:secondary SFSymbolsPreviewFF3B30" d="M79.2969 0.830078Q85.6445 0.830078 88.9404-2.24609Q92.2363-5.32227 92.2363-11.6699L92.2363-58.4473Q92.2363-64.7461 88.9404-67.9932Q85.6445-71.2402 79.2969-71.2402L45.9473-71.2402Q43.3105-71.2402 41.0889-70.752Q38.8672-70.2637 36.9385-69.0918Q35.0098-67.9199 33.2031-65.9668L11.8164-43.1152Q9.66797-40.7715 8.74023-38.916Q7.8125-37.0605 7.8125-35.2539Q7.8125-33.3984 8.74023-31.543Q9.66797-29.6875 11.8164-27.3438L33.252-4.49219Q35.0586-2.58789 36.9873-1.41602Q38.916-0.244141 41.1133 0.292969Q43.3105 0.830078 45.9473 0.830078ZM78.8086-7.51953L45.6055-7.51953Q43.6523-7.51953 42.3096-8.03223Q40.9668-8.54492 39.5996-9.96094L18.3105-32.6172Q17.5293-33.4473 17.2607-34.0576Q16.9922-34.668 16.9922-35.2539Q16.9922-36.377 18.3105-37.8418L39.5508-60.498Q40.8691-61.9141 42.2607-62.4023Q43.6523-62.8906 45.5566-62.8906L78.8086-62.8906Q81.2988-62.8906 82.5928-61.5967Q83.8867-60.3027 83.8867-57.7637L83.8867-12.6465Q83.8867-10.0586 82.5928-8.78906Q81.2988-7.51953 78.8086-7.51953Z"/>
   <path class="multicolor-0:systemRedColor hierarchical-1:primary SFSymbolsPreviewFF3B30" d="M44.7266-18.9941Q46.3867-18.9941 47.4609-20.1172L57.1289-29.834L66.7969-20.1172Q67.9688-18.9941 69.5801-18.9941Q71.1426-18.9941 72.2412-20.1172Q73.3398-21.2402 73.3398-22.8516Q73.3398-24.3652 72.2168-25.5371L62.5488-35.2051L72.2656-44.9707Q73.3887-46.0938 73.3887-47.5586Q73.3887-49.1699 72.29-50.2686Q71.1914-51.3672 69.5801-51.3672Q68.0664-51.3672 66.8945-50.2441L57.1289-40.5273L47.4121-50.2441Q46.3379-51.3672 44.7266-51.3672Q43.1641-51.3672 42.041-50.2686Q40.918-49.1699 40.918-47.5586Q40.918-45.9961 42.041-44.9219L51.709-35.2051L42.041-25.4883Q40.918-24.3652 40.918-22.8516Q40.918-21.2402 42.041-20.1172Q43.1641-18.9941 44.7266-18.9941Z"/>
  </g>
  <g id="Regular-S" transform="matrix(1 0 0 1 1399.04 696)">
   <path class="multicolor-0:systemRedColor hierarchical-0:secondary SFSymbolsPreviewFF3B30" d="M79.3945 0.390625Q85.5957 0.390625 88.7207-2.68555Q91.8457-5.76172 91.8457-11.9141L91.8457-58.4961Q91.8457-64.6484 88.7207-67.7246Q85.5957-70.8008 79.3945-70.8008L45.8008-70.8008Q43.5059-70.8008 41.4062-70.3369Q39.3066-69.873 37.4268-68.8232Q35.5469-67.7734 33.8867-66.0645L11.6211-42.7734Q9.66797-40.7715 8.74023-38.916Q7.8125-37.0605 7.8125-35.2539Q7.8125-33.4473 8.74023-31.5918Q9.66797-29.7363 11.6211-27.7344L33.9355-4.44336Q35.5957-2.73438 37.4756-1.68457Q39.3555-0.634766 41.4551-0.146484Q43.5547 0.341797 45.8496 0.341797ZM79.2969-6.68945L45.7031-6.68945Q43.6035-6.68945 42.1631-7.20215Q40.7227-7.71484 39.2578-9.22852L17.0898-32.3242Q16.1621-33.3008 15.8447-33.96Q15.5273-34.6191 15.5273-35.2539Q15.5273-36.4746 17.0898-38.1836L39.209-61.2305Q40.625-62.6953 42.0898-63.208Q43.5547-63.7207 45.6543-63.7207L79.2969-63.7207Q81.9336-63.7207 83.3496-62.3047Q84.7656-60.8887 84.7656-58.1543L84.7656-12.2559Q84.7656-9.47266 83.3496-8.08105Q81.9336-6.68945 79.2969-6.68945Z"/>
   <path class="multicolor-0:systemRedColor hierarchical-1:primary SFSymbolsPreviewFF3B30" d="M43.9941-18.8477Q45.5078-18.8477 46.4844-19.873L56.8848-30.3223L67.2852-19.873Q68.3594-18.8477 69.7754-18.8477Q71.1914-18.8477 72.2168-19.873Q73.2422-20.8984 73.2422-22.3633Q73.2422-23.7793 72.2168-24.8047L61.8164-35.2051L72.2656-45.7031Q73.291-46.7285 73.291-48.0957Q73.291-49.5605 72.2656-50.5615Q71.2402-51.5625 69.8242-51.5625Q68.5059-51.5625 67.4316-50.5371L56.8848-40.0391L46.3867-50.4883Q45.459-51.5137 43.9941-51.5137Q42.5781-51.5137 41.5527-50.5127Q40.5273-49.5117 40.5273-48.0469Q40.5273-46.6309 41.5527-45.6543L51.9531-35.2051L41.5527-24.7559Q40.5273-23.7793 40.5273-22.3633Q40.5273-20.8984 41.5527-19.873Q42.5781-18.8477 43.9941-18.8477Z"/>
  </g>
  <g id="Light-S" transform="matrix(1 0 0 1 1103.35 696)">
   <path class="multicolor-0:systemRedColor hierarchical-0:secondary SFSymbolsPreviewFF3B30" d="M78.1738-0.244141Q83.9355-0.244141 86.8652-3.14941Q89.7949-6.05469 89.7949-11.8164L89.7949-58.5938Q89.7949-64.3066 86.8652-67.2119Q83.9355-70.1172 78.1738-70.1172L45.166-70.1172Q42.9688-70.1172 41.0156-69.7266Q39.0625-69.3359 37.3291-68.3838Q35.5957-67.4316 34.0332-65.8203L11.2793-42.2852Q9.47266-40.4785 8.64258-38.7451Q7.8125-37.0117 7.8125-35.2539Q7.8125-33.4961 8.64258-31.7871Q9.47266-30.0781 11.2793-28.2227L34.0332-4.93164Q35.6445-3.32031 37.3535-2.29492Q39.0625-1.26953 41.04-0.78125Q43.0176-0.292969 45.2148-0.292969ZM78.0762-5.71289L45.1172-5.71289Q42.8711-5.71289 41.2842-6.37207Q39.6973-7.03125 38.1348-8.64258L15.4785-31.7871Q14.502-32.8125 14.1113-33.6182Q13.7207-34.4238 13.7207-35.2539Q13.7207-36.8652 15.4785-38.7207L38.0859-62.1094Q39.6484-63.6719 41.2598-64.1602Q42.8711-64.6484 45.0684-64.6484L78.0762-64.6484Q81.1035-64.6484 82.7148-63.0371Q84.3262-61.4258 84.3262-58.3008L84.3262-12.0605Q84.3262-8.88672 82.7148-7.2998Q81.1035-5.71289 78.0762-5.71289Z"/>
   <path class="multicolor-0:systemRedColor hierarchical-1:primary SFSymbolsPreviewFF3B30" d="M42.5293-19.2383Q43.7012-19.2383 44.5312-20.0684L55.7129-31.3477L66.9434-20.0684Q67.8223-19.2383 68.9453-19.2383Q70.0684-19.2383 70.874-20.0195Q71.6797-20.8008 71.6797-21.9727Q71.6797-23.0957 70.8496-23.9258L59.6191-35.1562L70.8984-46.4844Q71.7285-47.3145 71.7285-48.3887Q71.7285-49.5117 70.9229-50.293Q70.1172-51.0742 68.9941-51.0742Q67.9199-51.0742 67.041-50.2441L55.7129-38.9648L44.4336-50.1953Q43.6523-51.0254 42.5293-51.0254Q41.4062-51.0254 40.6006-50.2686Q39.7949-49.5117 39.7949-48.3398Q39.7949-47.2168 40.625-46.4355L51.8555-35.1562L40.625-23.877Q39.7949-23.0957 39.7949-21.9727Q39.7949-20.8008 40.6006-20.0195Q41.4062-19.2383 42.5293-19.2383Z"/>
  </g>
  <g id="Thin-S" transform="matrix(1 0 0 1 808.009 696)">
   <path class="multicolor-0:systemRedColor hierarchical-0:secondary SFSymbolsPreviewFF3B30" d="M76.5137-1.12305Q81.7383-1.12305 84.3994-3.78418Q87.0605-6.44531 87.0605-11.6211L87.0605-58.6914Q87.0605-63.916 84.3994-66.5771Q81.7383-69.2383 76.5137-69.2383L44.3359-69.2383Q42.2363-69.2383 40.4785-68.8965Q38.7207-68.5547 37.1582-67.749Q35.5957-66.9434 34.1797-65.5273L10.8887-41.6992Q9.22852-40.0879 8.52051-38.5498Q7.8125-37.0117 7.8125-35.3027Q7.8125-33.5938 8.52051-32.0312Q9.22852-30.4688 10.8887-28.8574L34.2285-5.56641Q35.6445-4.15039 37.1826-3.14941Q38.7207-2.14844 40.4785-1.63574Q42.2363-1.12305 44.3359-1.12305ZM76.416-4.44336L44.2871-4.44336Q41.9434-4.44336 40.1367-5.27344Q38.3301-6.10352 36.6211-7.8125L13.3789-31.0547Q12.2559-32.2266 11.792-33.2031Q11.3281-34.1797 11.3281-35.3027Q11.3281-37.3535 13.3789-39.502L36.6211-63.2324Q38.2812-64.9414 40.1123-65.4297Q41.9434-65.918 44.2871-65.918L76.416-65.918Q80.0293-65.918 81.8848-64.0625Q83.7402-62.207 83.7402-58.5449L83.7402-11.8164Q83.7402-8.1543 81.8848-6.29883Q80.0293-4.44336 76.416-4.44336Z"/>
   <path class="multicolor-0:systemRedColor hierarchical-1:primary SFSymbolsPreviewFF3B30" d="M40.5762-19.8242Q41.3086-19.8242 41.8945-20.4102L54.1992-32.7148L66.5039-20.4102Q67.0898-19.8242 67.8711-19.8242Q68.5547-19.8242 69.0674-20.3125Q69.5801-20.8008 69.5801-21.4844Q69.5801-22.2168 69.043-22.8027L56.6406-35.1562L69.043-47.5586Q69.6289-48.1445 69.6289-48.8281Q69.6289-49.5605 69.1162-50.0244Q68.6035-50.4883 67.8711-50.4883Q67.1387-50.4883 66.5527-49.9023L54.1992-37.5977L41.8457-49.9023Q41.3086-50.4883 40.5762-50.4883Q39.8438-50.4883 39.3311-50Q38.8184-49.5117 38.8184-48.8281Q38.8184-48.0957 39.4043-47.5586L51.7578-35.1562L39.4043-22.7539Q38.8184-22.2168 38.8184-21.4844Q38.8184-20.8008 39.3311-20.3125Q39.8438-19.8242 40.5762-19.8242Z"/>
  </g>
  <g id="Ultralight-S" transform="matrix(1 0 0 1 511.982 696)">
   <path class="multicolor-0:systemRedColor hierarchical-0:secondary SFSymbolsPreviewFF3B30" d="M75.6836-1.5625Q80.6152-1.5625 83.1543-4.10156Q85.6934-6.64062 85.6934-11.5723L85.6934-58.7891Q85.6934-63.6719 83.1543-66.2109Q80.6152-68.75 75.6836-68.75L43.8965-68.75Q41.8945-68.75 40.21-68.4814Q38.5254-68.2129 37.085-67.4805Q35.6445-66.748 34.2773-65.3809L10.6445-41.3574Q9.13086-39.8438 8.47168-38.4033Q7.8125-36.9629 7.8125-35.3027Q7.8125-33.6426 8.44727-32.1777Q9.08203-30.7129 10.6445-29.1992L34.2773-5.9082Q35.6934-4.54102 37.1094-3.56445Q38.5254-2.58789 40.21-2.0752Q41.8945-1.5625 43.8965-1.5625ZM75.5859-3.75977L43.8965-3.75977Q41.4551-3.75977 39.5508-4.6875Q37.6465-5.61523 35.8398-7.42188L12.3047-30.7129Q11.1328-31.8848 10.6201-32.959Q10.1074-34.0332 10.1074-35.3027Q10.1074-37.5977 12.3047-39.8438L35.8398-63.8184Q37.6465-65.625 39.5508-66.0889Q41.4551-66.5527 43.8965-66.5527L75.5859-66.5527Q79.4922-66.5527 81.4697-64.5508Q83.4473-62.5488 83.4473-58.6426L83.4473-11.6699Q83.4473-7.76367 81.4697-5.76172Q79.4922-3.75977 75.5859-3.75977Z"/>
   <path class="multicolor-0:systemRedColor hierarchical-1:primary SFSymbolsPreviewFF3B30" d="M39.5508-20.0684Q40.0879-20.0684 40.5762-20.5078L53.418-33.3984L66.3086-20.5078Q66.748-20.0684 67.2852-20.0684Q67.8223-20.0684 68.1885-20.3857Q68.5547-20.7031 68.5547-21.1914Q68.5547-21.7285 68.1152-22.168L55.1758-35.1074L68.1152-48.0469Q68.5547-48.4863 68.5547-48.9746Q68.5547-49.5117 68.1885-49.8291Q67.8223-50.1465 67.2852-50.1465Q66.748-50.1465 66.3086-49.707L53.418-36.8652L40.5762-49.707Q40.0879-50.1465 39.5508-50.1465Q39.0625-50.1465 38.6963-49.8291Q38.3301-49.5117 38.3301-49.0234Q38.3301-48.4863 38.7695-48.0469L51.709-35.1074L38.7695-22.168Q38.3301-21.7285 38.3301-21.1914Q38.3301-20.7031 38.6963-20.3857Q39.0625-20.0684 39.5508-20.0684Z"/>
  </g>
 </g>
</svg>
