<?xml version="1.0" encoding="UTF-8"?>
<!--Generator: Apple Native CoreSVG 149-->
<!DOCTYPE svg
PUBLIC "-//W3C//DTD SVG 1.1//EN"
       "http://www.w3.org/Graphics/SVG/1.1/DTD/svg11.dtd">
<svg version="1.1" xmlns="http://www.w3.org/2000/svg" xmlns:xlink="http://www.w3.org/1999/xlink" width="3300" height="2200">
 <!--glyph: "uni10019B.medium", point size: 100.000000, font version: "Version 16.0d18e1", template writer version: "8"-->
 <g id="Notes">
  <rect height="2200" id="artboard" style="fill:white;opacity:1" width="3300" x="0" y="0"/>
  <line id="" style="fill:none;stroke:black;opacity:1;stroke-width:0.5;" x1="263" x2="3036" y1="292" y2="292"/>
  <text style="stroke:none;fill:black;font-family:-apple-system,&quot;SF Pro Display&quot;,&quot;SF Pro Text&quot;,Helvetica,sans-serif;font-weight:bold;" transform="matrix(1 0 0 1 263 322)">Weight/Scale Variations</text>
  <text style="stroke:none;fill:black;font-family:-apple-system,&quot;SF Pro Display&quot;,&quot;SF Pro Text&quot;,Helvetica,sans-serif;text-anchor:middle;" transform="matrix(1 0 0 1 559.711 322)">Ultralight</text>
  <text style="stroke:none;fill:black;font-family:-apple-system,&quot;SF Pro Display&quot;,&quot;SF Pro Text&quot;,Helvetica,sans-serif;text-anchor:middle;" transform="matrix(1 0 0 1 856.422 322)">Thin</text>
  <text style="stroke:none;fill:black;font-family:-apple-system,&quot;SF Pro Display&quot;,&quot;SF Pro Text&quot;,Helvetica,sans-serif;text-anchor:middle;" transform="matrix(1 0 0 1 1153.13 322)">Light</text>
  <text style="stroke:none;fill:black;font-family:-apple-system,&quot;SF Pro Display&quot;,&quot;SF Pro Text&quot;,Helvetica,sans-serif;text-anchor:middle;" transform="matrix(1 0 0 1 1449.84 322)">Regular</text>
  <text style="stroke:none;fill:black;font-family:-apple-system,&quot;SF Pro Display&quot;,&quot;SF Pro Text&quot;,Helvetica,sans-serif;text-anchor:middle;" transform="matrix(1 0 0 1 1746.56 322)">Medium</text>
  <text style="stroke:none;fill:black;font-family:-apple-system,&quot;SF Pro Display&quot;,&quot;SF Pro Text&quot;,Helvetica,sans-serif;text-anchor:middle;" transform="matrix(1 0 0 1 2043.27 322)">Semibold</text>
  <text style="stroke:none;fill:black;font-family:-apple-system,&quot;SF Pro Display&quot;,&quot;SF Pro Text&quot;,Helvetica,sans-serif;text-anchor:middle;" transform="matrix(1 0 0 1 2339.98 322)">Bold</text>
  <text style="stroke:none;fill:black;font-family:-apple-system,&quot;SF Pro Display&quot;,&quot;SF Pro Text&quot;,Helvetica,sans-serif;text-anchor:middle;" transform="matrix(1 0 0 1 2636.69 322)">Heavy</text>
  <text style="stroke:none;fill:black;font-family:-apple-system,&quot;SF Pro Display&quot;,&quot;SF Pro Text&quot;,Helvetica,sans-serif;text-anchor:middle;" transform="matrix(1 0 0 1 2933.4 322)">Black</text>
  <line id="" style="fill:none;stroke:black;opacity:1;stroke-width:0.5;" x1="263" x2="3036" y1="1903" y2="1903"/>
  <g id="" transform="matrix(1 0 0 1 263 1933)">
   <path d="M9.24805 0.830078C13.5547 0.830078 17.1387-2.74414 17.1387-7.05078C17.1387-11.3574 13.5449-14.9316 9.23828-14.9316C4.94141-14.9316 1.36719-11.3574 1.36719-7.05078C1.36719-2.74414 4.95117 0.830078 9.24805 0.830078ZM9.24805-0.654297C5.70312-0.654297 2.87109-3.49609 2.87109-7.05078C2.87109-10.6055 5.69336-13.4473 9.23828-13.4473C12.793-13.4473 15.6348-10.6055 15.6445-7.05078C15.6543-3.49609 12.8027-0.654297 9.24805-0.654297ZM6.39648-6.31836L8.50586-6.31836L8.50586-4.19922C8.50586-3.75977 8.79883-3.45703 9.22852-3.45703C9.67773-3.45703 9.9707-3.75977 9.9707-4.19922L9.9707-6.31836L12.0996-6.31836C12.5391-6.31836 12.8418-6.61133 12.8418-7.04102C12.8418-7.48047 12.5391-7.7832 12.0996-7.7832L9.9707-7.7832L9.9707-9.89258C9.9707-10.3418 9.67773-10.6445 9.22852-10.6445C8.79883-10.6445 8.50586-10.3418 8.50586-9.89258L8.50586-7.7832L6.39648-7.7832C5.94727-7.7832 5.64453-7.48047 5.64453-7.04102C5.64453-6.61133 5.94727-6.31836 6.39648-6.31836Z"/>
  </g>
  <g id="" transform="matrix(1 0 0 1 281.506 1933)">
   <path d="M11.709 2.91016C17.1582 2.91016 21.6699-1.61133 21.6699-7.05078C21.6699-12.5 17.1484-17.0117 11.6992-17.0117C6.25977-17.0117 1.74805-12.5 1.74805-7.05078C1.74805-1.61133 6.26953 2.91016 11.709 2.91016ZM11.709 1.25C7.09961 1.25 3.41797-2.44141 3.41797-7.05078C3.41797-11.6602 7.08984-15.3516 11.6992-15.3516C16.3086-15.3516 20-11.6602 20.0098-7.05078C20.0195-2.44141 16.3184 1.25 11.709 1.25ZM7.98828-6.23047L10.8789-6.23047L10.8789-3.32031C10.8789-2.83203 11.2109-2.5 11.6895-2.5C12.1777-2.5 12.5195-2.83203 12.5195-3.32031L12.5195-6.23047L15.4297-6.23047C15.918-6.23047 16.25-6.5625 16.25-7.04102C16.25-7.5293 15.918-7.87109 15.4297-7.87109L12.5195-7.87109L12.5195-10.7617C12.5195-11.2695 12.1777-11.6016 11.6895-11.6016C11.2109-11.6016 10.8789-11.2598 10.8789-10.7617L10.8789-7.87109L7.98828-7.87109C7.48047-7.87109 7.14844-7.5293 7.14844-7.04102C7.14844-6.5625 7.49023-6.23047 7.98828-6.23047Z"/>
  </g>
  <g id="" transform="matrix(1 0 0 1 304.924 1933)">
   <path d="M14.9707 5.66406C21.9336 5.66406 27.6953-0.0976562 27.6953-7.05078C27.6953-14.0137 21.9238-19.7754 14.9609-19.7754C8.00781-19.7754 2.25586-14.0137 2.25586-7.05078C2.25586-0.0976562 8.01758 5.66406 14.9707 5.66406ZM14.9707 3.84766C8.93555 3.84766 4.08203-1.01562 4.08203-7.05078C4.08203-13.0957 8.92578-17.9492 14.9609-17.9492C21.0059-17.9492 25.8594-13.0957 25.8691-7.05078C25.8789-1.01562 21.0156 3.84766 14.9707 3.84766ZM10.0586-6.14258L14.0625-6.14258L14.0625-2.12891C14.0625-1.5918 14.4336-1.2207 14.9512-1.2207C15.4883-1.2207 15.8594-1.5918 15.8594-2.12891L15.8594-6.14258L19.8828-6.14258C20.4102-6.14258 20.791-6.51367 20.791-7.03125C20.791-7.56836 20.4199-7.94922 19.8828-7.94922L15.8594-7.94922L15.8594-11.9531C15.8594-12.5098 15.4883-12.8809 14.9512-12.8809C14.4336-12.8809 14.0625-12.5 14.0625-11.9531L14.0625-7.94922L10.0586-7.94922C9.50195-7.94922 9.13086-7.56836 9.13086-7.03125C9.13086-6.51367 9.51172-6.14258 10.0586-6.14258Z"/>
  </g>
  <text style="stroke:none;fill:black;font-family:-apple-system,&quot;SF Pro Display&quot;,&quot;SF Pro Text&quot;,Helvetica,sans-serif;font-weight:bold;" transform="matrix(1 0 0 1 263 1953)">Design Variations</text>
  <text style="stroke:none;fill:black;font-family:-apple-system,&quot;SF Pro Display&quot;,&quot;SF Pro Text&quot;,Helvetica,sans-serif;" transform="matrix(1 0 0 1 263 1971)">Symbols are supported in up to nine weights and three scales.</text>
  <text style="stroke:none;fill:black;font-family:-apple-system,&quot;SF Pro Display&quot;,&quot;SF Pro Text&quot;,Helvetica,sans-serif;" transform="matrix(1 0 0 1 263 1989)">For optimal layout with text and other symbols, vertically align</text>
  <text style="stroke:none;fill:black;font-family:-apple-system,&quot;SF Pro Display&quot;,&quot;SF Pro Text&quot;,Helvetica,sans-serif;" transform="matrix(1 0 0 1 263 2007)">symbols with the adjacent text.</text>
  <line id="" style="fill:none;stroke:#00AEEF;stroke-width:0.5;opacity:1.0;" x1="776" x2="776" y1="1919" y2="1933"/>
  <g id="" transform="matrix(1 0 0 1 776 1933)">
   <path d="M3.31055 0.126953C3.82812 0.126953 4.08203-0.0683594 4.26758-0.605469L5.52734-4.0625L11.2891-4.0625L12.5488-0.605469C12.7344-0.0683594 12.9883 0.126953 13.4961 0.126953C14.0137 0.126953 14.3457-0.185547 14.3457-0.673828C14.3457-0.839844 14.3164-0.986328 14.2383-1.20117L9.6582-13.3887C9.43359-13.9941 9.0332-14.2871 8.4082-14.2871C7.80273-14.2871 7.39258-13.9941 7.17773-13.3984L2.59766-1.19141C2.51953-0.976562 2.49023-0.830078 2.49023-0.664062C2.49023-0.175781 2.80273 0.126953 3.31055 0.126953ZM6.00586-5.53711L8.37891-12.1094L8.42773-12.1094L10.8008-5.53711Z"/>
  </g>
  <line id="" style="fill:none;stroke:#00AEEF;stroke-width:0.5;opacity:1.0;" x1="792.836" x2="792.836" y1="1919" y2="1933"/>
  <text style="stroke:none;fill:black;font-family:-apple-system,&quot;SF Pro Display&quot;,&quot;SF Pro Text&quot;,Helvetica,sans-serif;font-weight:bold;" transform="matrix(1 0 0 1 776 1953)">Margins</text>
  <text style="stroke:none;fill:black;font-family:-apple-system,&quot;SF Pro Display&quot;,&quot;SF Pro Text&quot;,Helvetica,sans-serif;" transform="matrix(1 0 0 1 776 1971)">Leading and trailing margins on the left and right side of each symbol</text>
  <text style="stroke:none;fill:black;font-family:-apple-system,&quot;SF Pro Display&quot;,&quot;SF Pro Text&quot;,Helvetica,sans-serif;" transform="matrix(1 0 0 1 776 1989)">can be adjusted by modifying the x-location of the margin guidelines.</text>
  <text style="stroke:none;fill:black;font-family:-apple-system,&quot;SF Pro Display&quot;,&quot;SF Pro Text&quot;,Helvetica,sans-serif;" transform="matrix(1 0 0 1 776 2007)">Modifications are automatically applied proportionally to all</text>
  <text style="stroke:none;fill:black;font-family:-apple-system,&quot;SF Pro Display&quot;,&quot;SF Pro Text&quot;,Helvetica,sans-serif;" transform="matrix(1 0 0 1 776 2025)">scales and weights.</text>
  <g id="" transform="matrix(1 0 0 1 1289 1933)">
   <path d="M2.8418 1.86523L4.54102 3.57422C5.40039 4.44336 6.38672 4.38477 7.31445 3.35938L17.4902-7.85156C17.7539-7.76367 18.0273-7.7832 18.3398-7.8418L19.4043-8.03711L20.0684-7.36328L20.0293-6.80664C19.9902-6.30859 20.1172-5.92773 20.6055-5.44922L21.3672-4.70703C21.8457-4.22852 22.4609-4.19922 22.9297-4.66797L25.8398-7.58789C26.3086-8.05664 26.2891-8.65234 25.8105-9.13086L25.0391-9.89258C24.5605-10.3711 24.1895-10.5273 23.7109-10.4883L23.1348-10.4395L22.4902-11.0742L22.7344-12.1973C22.8613-12.7637 22.7051-13.2031 22.1191-13.7891L19.9219-15.9766C16.582-19.2969 12.1484-19.2188 9.25781-16.3281C8.83789-15.918 8.80859-15.3418 9.04297-14.9512C9.27734-14.5898 9.73633-14.3555 10.3809-14.5215C11.8457-14.8633 13.3691-14.9219 14.7949-13.9844L14.209-12.5293C14.0137-12.0508 13.9844-11.6504 14.1113-11.2891L3.04688-0.898438C2.06055 0.0195312 1.98242 0.996094 2.8418 1.86523ZM10.752-15.957C13.1836-17.7344 16.4746-17.4316 18.7012-15.2051L21.1328-12.793C21.3672-12.5586 21.4062-12.373 21.3379-12.0312L21.0156-10.5469L22.5195-9.0625L23.5059-9.12109C23.7598-9.13086 23.8379-9.11133 24.0332-8.91602L24.6094-8.33984L22.168-5.89844L21.5918-6.47461C21.3965-6.66992 21.3672-6.74805 21.377-7.01172L21.4453-7.98828L19.9512-9.47266L18.4277-9.21875C18.1055-9.15039 17.959-9.17969 17.7148-9.41406L15.7129-11.416C15.459-11.6504 15.4297-11.8164 15.5859-12.1875L16.4648-14.2773C14.9023-15.7324 12.8711-16.3574 10.8398-15.7617C10.6836-15.7227 10.625-15.8496 10.752-15.957ZM5.27344 2.30469L4.10156 1.14258C3.63281 0.683594 3.74023 0.341797 4.14062-0.0195312L14.9512-10.1953L16.416-8.71094L6.42578 2.27539C6.07422 2.67578 5.74219 2.77344 5.27344 2.30469Z"/>
  </g>
  <text style="stroke:none;fill:black;font-family:-apple-system,&quot;SF Pro Display&quot;,&quot;SF Pro Text&quot;,Helvetica,sans-serif;font-weight:bold;" transform="matrix(1 0 0 1 1289 1953)">Exporting</text>
  <text style="stroke:none;fill:black;font-family:-apple-system,&quot;SF Pro Display&quot;,&quot;SF Pro Text&quot;,Helvetica,sans-serif;" transform="matrix(1 0 0 1 1289 1971)">Symbols should be outlined when exporting to ensure the</text>
  <text style="stroke:none;fill:black;font-family:-apple-system,&quot;SF Pro Display&quot;,&quot;SF Pro Text&quot;,Helvetica,sans-serif;" transform="matrix(1 0 0 1 1289 1989)">design is preserved when submitting to Xcode.</text>
  <text id="template-version" style="stroke:none;fill:black;font-family:-apple-system,&quot;SF Pro Display&quot;,&quot;SF Pro Text&quot;,Helvetica,sans-serif;text-anchor:end;" transform="matrix(1 0 0 1 3036 1933)">Template v.2.0</text>
  <text style="stroke:none;fill:black;font-family:-apple-system,&quot;SF Pro Display&quot;,&quot;SF Pro Text&quot;,Helvetica,sans-serif;text-anchor:end;" transform="matrix(1 0 0 1 3036 1951)">Requires Xcode 12 or greater</text>
  <text style="stroke:none;fill:black;font-family:-apple-system,&quot;SF Pro Display&quot;,&quot;SF Pro Text&quot;,Helvetica,sans-serif;text-anchor:end;" transform="matrix(1 0 0 1 3036 1969)">Generated from delete.left</text>
  <text style="stroke:none;fill:black;font-family:-apple-system,&quot;SF Pro Display&quot;,&quot;SF Pro Text&quot;,Helvetica,sans-serif;text-anchor:end;" transform="matrix(1 0 0 1 3036 1987)">Typeset at 100 points</text>
  <text style="stroke:none;fill:black;font-family:-apple-system,&quot;SF Pro Display&quot;,&quot;SF Pro Text&quot;,Helvetica,sans-serif;" transform="matrix(1 0 0 1 263 726)">Small</text>
  <text style="stroke:none;fill:black;font-family:-apple-system,&quot;SF Pro Display&quot;,&quot;SF Pro Text&quot;,Helvetica,sans-serif;" transform="matrix(1 0 0 1 263 1156)">Medium</text>
  <text style="stroke:none;fill:black;font-family:-apple-system,&quot;SF Pro Display&quot;,&quot;SF Pro Text&quot;,Helvetica,sans-serif;" transform="matrix(1 0 0 1 263 1586)">Large</text>
 </g>
 <g id="Guides">
  <g id="H-reference" style="fill:#27AAE1;stroke:none;" transform="matrix(1 0 0 1 339 696)">
   <path d="M0.976562 0L3.66211 0L12.9883-24.4629L45.752-24.4629L55.127 0L57.7637 0L30.6152-70.459L28.125-70.459ZM29.3457-67.1387L29.4434-67.1387L44.873-26.709L13.8672-26.709Z"/>
  </g>
  <line id="Baseline-S" style="fill:none;stroke:#27AAE1;opacity:1;stroke-width:0.5;" x1="263" x2="3036" y1="696" y2="696"/>
  <line id="Capline-S" style="fill:none;stroke:#27AAE1;opacity:1;stroke-width:0.5;" x1="263" x2="3036" y1="625.541" y2="625.541"/>
  <g id="H-reference" style="fill:#27AAE1;stroke:none;" transform="matrix(1 0 0 1 339 1126)">
   <path d="M0.976562 0L3.66211 0L12.9883-24.4629L45.752-24.4629L55.127 0L57.7637 0L30.6152-70.459L28.125-70.459ZM29.3457-67.1387L29.4434-67.1387L44.873-26.709L13.8672-26.709Z"/>
  </g>
  <line id="Baseline-M" style="fill:none;stroke:#27AAE1;opacity:1;stroke-width:0.5;" x1="263" x2="3036" y1="1126" y2="1126"/>
  <line id="Capline-M" style="fill:none;stroke:#27AAE1;opacity:1;stroke-width:0.5;" x1="263" x2="3036" y1="1055.54" y2="1055.54"/>
  <g id="H-reference" style="fill:#27AAE1;stroke:none;" transform="matrix(1 0 0 1 339 1556)">
   <path d="M0.976562 0L3.66211 0L12.9883-24.4629L45.752-24.4629L55.127 0L57.7637 0L30.6152-70.459L28.125-70.459ZM29.3457-67.1387L29.4434-67.1387L44.873-26.709L13.8672-26.709Z"/>
  </g>
  <line id="Baseline-L" style="fill:none;stroke:#27AAE1;opacity:1;stroke-width:0.5;" x1="263" x2="3036" y1="1556" y2="1556"/>
  <line id="Capline-L" style="fill:none;stroke:#27AAE1;opacity:1;stroke-width:0.5;" x1="263" x2="3036" y1="1485.54" y2="1485.54"/>
  <line id="left-margin" style="fill:none;stroke:#00AEEF;stroke-width:0.5;opacity:1.0;" x1="1385.73" x2="1385.73" y1="1030.79" y2="1150.12"/>
  <line id="right-margin" style="fill:none;stroke:#00AEEF;stroke-width:0.5;opacity:1.0;" x1="1513.96" x2="1513.96" y1="1030.79" y2="1150.12"/>
 </g>
 <g id="Symbols">
  <g id="Black-L" transform="matrix(1 0 0 1 2848.34 1556)">
   <path d="M130.127 26.5137C145.361 26.5137 154.053 20.0684 154.053 4.88281L154.053-73.0957C154.053-88.2812 145.361-96.875 130.127-96.875L76.3672-96.875C64.2578-96.875 58.5938-94.1895 51.2207-85.498L20.5566-50C14.3066-42.627 12.8906-39.3555 12.8906-35.2051C12.8906-31.0059 14.4043-27.6367 20.5566-20.4102L51.2207 15.0879C58.6426 23.877 64.209 26.5137 76.3184 26.5137ZM127.441 6.29883L74.6582 6.29883C71.5332 6.29883 69.3359 5.32227 67.041 2.63672L36.5234-32.4707C35.5957-33.4473 35.3027-34.375 35.3027-35.2051C35.3027-36.084 35.5957-36.8652 36.5234-37.8906L66.9922-73.1445C69.2871-75.8301 71.5332-76.6602 74.6582-76.6602L127.441-76.6602C131.641-76.6602 133.789-74.7559 133.789-70.2148L133.789-0.146484C133.789 4.39453 131.641 6.29883 127.441 6.29883ZM77.3926-9.13086C79.834-9.13086 81.7383-9.91211 83.3496-11.4746L95.4102-23.5352L107.617-11.4746C109.18-9.91211 111.084-9.13086 113.525-9.13086C118.066-9.13086 121.533-12.6465 121.533-17.2363C121.533-19.2383 120.654-21.1914 119.141-22.7539L106.885-35.0098L119.141-47.3145C120.703-48.877 121.582-50.8301 121.582-52.832C121.582-57.4219 118.066-60.8887 113.574-60.8887C111.182-60.8887 109.277-60.1562 107.666-58.5449L95.4102-46.3867L83.3008-58.4961C81.6895-60.1074 79.834-60.8398 77.3926-60.8398C72.8516-60.8398 69.3848-57.373 69.3848-52.832C69.3848-50.7812 70.2637-48.8281 71.8262-47.3145L84.082-35.0098L71.8262-22.7051C70.2637-21.1914 69.3848-19.2383 69.3848-17.2363C69.3848-12.6465 72.8516-9.13086 77.3926-9.13086Z"/>
  </g>
  <g id="Heavy-L" transform="matrix(1 0 0 1 2552.39 1556)">
   <path d="M129.736 25.4883C144.385 25.4883 152.49 19.0918 152.49 4.54102L152.49-73.2422C152.49-87.793 144.385-95.8496 129.736-95.8496L75.8789-95.8496C64.8926-95.8496 59.1797-93.4082 52.3438-85.5469L20.0684-49.2188C14.3555-42.6758 12.8906-39.3066 12.8906-35.2539C12.8906-31.1035 14.4531-27.6855 20.0684-21.1914L52.3926 14.9902C59.2285 22.9004 64.8926 25.4883 75.8301 25.4883ZM127.637 8.00781L74.5605 8.00781C70.9961 8.00781 68.5547 6.93359 65.9668 4.05273L33.8379-31.7383C32.6172-33.0566 32.2266-34.1797 32.2266-35.2539C32.2266-36.3281 32.6172-37.3047 33.8379-38.6719L65.9668-74.6582C68.5059-77.5391 70.9961-78.3691 74.5117-78.3691L127.637-78.3691C132.471-78.3691 135.01-76.0742 135.01-70.9473L135.01 0.585938C135.01 5.71289 132.471 8.00781 127.637 8.00781ZM75.5859-9.08203C77.7344-9.08203 79.4922-9.76562 80.9082-11.2305L94.5312-24.8535L108.252-11.2305C109.619-9.81445 111.328-9.08203 113.525-9.08203C117.529-9.08203 120.654-12.207 120.654-16.3086C120.654-18.1641 119.873-19.873 118.506-21.2402L104.736-35.0586L118.506-48.877C119.922-50.293 120.703-52.002 120.703-53.8086C120.703-57.8613 117.578-60.9863 113.525-60.9863C111.426-60.9863 109.766-60.3027 108.301-58.8867L94.5312-45.166L80.8105-58.8379C79.4434-60.2539 77.7344-60.9375 75.5859-60.9375C71.582-60.9375 68.457-57.8613 68.457-53.8086C68.457-51.9531 69.2383-50.1953 70.6055-48.877L84.4238-35.0586L70.6055-21.2402C69.2383-19.873 68.457-18.1152 68.457-16.3086C68.457-12.207 71.582-9.08203 75.5859-9.08203Z"/>
  </g>
  <g id="Bold-L" transform="matrix(1 0 0 1 2256.55 1556)">
   <path d="M129.297 24.3652C143.213 24.3652 150.781 17.9688 150.781 4.15039L150.781-73.3887C150.781-87.2559 143.213-94.7266 129.297-94.7266L75.293-94.7266C65.625-94.7266 59.8145-92.5293 53.6621-85.5469L19.5312-48.3887C14.4531-42.6758 12.8906-39.2578 12.8906-35.2539C12.8906-31.2012 14.502-27.7344 19.5312-22.0703L53.6621 14.8438C59.9121 21.8262 65.625 24.3164 75.293 24.3164ZM127.881 9.91211L74.4141 9.91211C70.4102 9.91211 67.6758 8.78906 64.7949 5.66406L30.8594-30.957C29.2969-32.6172 28.7598-33.8867 28.7598-35.2539C28.7598-36.6211 29.3457-37.8418 30.8594-39.502L64.7949-76.3672C67.627-79.4922 70.4102-80.2734 74.3652-80.2734L127.881-80.2734C133.398-80.2734 136.328-77.5391 136.328-71.7285L136.328 1.41602C136.328 7.17773 133.398 9.91211 127.881 9.91211ZM73.6328-9.0332C75.4395-9.0332 76.9531-9.66797 78.1738-10.8887L93.5059-26.2695L108.936-10.8887C110.156-9.66797 111.621-9.0332 113.477-9.0332C116.943-9.0332 119.678-11.7676 119.678-15.2832C119.678-16.8945 118.994-18.4082 117.822-19.5801L102.344-35.0586L117.822-50.6348C119.092-51.8555 119.727-53.3203 119.727-54.9316C119.727-58.3984 116.992-61.084 113.525-61.084C111.768-61.084 110.352-60.498 109.033-59.2285L93.5059-43.7988L78.0762-59.1797C76.8555-60.4492 75.4395-61.0352 73.6328-61.0352C70.1172-61.0352 67.4316-58.3496 67.4316-54.8828C67.4316-53.2715 68.1152-51.7578 69.2871-50.5859L84.7656-35.0586L69.2871-19.5312C68.1152-18.4082 67.4316-16.8945 67.4316-15.2832C67.4316-11.7676 70.1172-9.0332 73.6328-9.0332Z"/>
  </g>
  <g id="Semibold-L" transform="matrix(1 0 0 1 1960.43 1556)">
   <path d="M129.004 23.584C142.432 23.584 149.561 17.2363 149.561 3.85742L149.561-73.5352C149.561-86.8652 142.432-93.9453 129.004-93.9453L74.9023-93.9453C66.1621-93.9453 60.3027-91.8945 54.541-85.5469L19.1895-47.8027C14.502-42.7246 12.8906-39.209 12.8906-35.2539C12.8906-31.2988 14.502-27.7344 19.1895-22.6562L54.5898 14.7949C60.3516 21.0938 66.1621 23.5352 74.9512 23.5352ZM128.027 11.2793L74.3164 11.2793C69.9707 11.2793 67.0898 10.0098 64.0137 6.78711L28.8086-30.4199C27.002-32.3242 26.416-33.7402 26.416-35.2539C26.416-36.8164 27.0508-38.1836 28.8086-40.0879L63.9648-77.5879C66.9922-80.8105 69.9707-81.5918 74.2676-81.5918L128.027-81.5918C134.033-81.5918 137.256-78.5156 137.256-72.3145L137.256 1.95312C137.256 8.20312 134.033 11.2793 128.027 11.2793ZM72.2168-9.0332C73.8281-9.0332 75.1953-9.57031 76.2695-10.6934L92.8223-27.2461L109.424-10.6934C110.498-9.61914 111.816-9.0332 113.477-9.0332C116.553-9.0332 118.994-11.4746 118.994-14.5508C118.994-16.0645 118.408-17.334 117.334-18.457L100.684-35.1074L117.334-51.8066C118.506-52.9297 119.043-54.1992 119.043-55.6641C119.043-58.7402 116.602-61.1816 113.525-61.1816C111.963-61.1816 110.742-60.6445 109.57-59.4727L92.8223-42.8711L76.1719-59.4238C75.0977-60.5957 73.8281-61.084 72.2168-61.084C69.1406-61.084 66.6992-58.7402 66.6992-55.6152C66.6992-54.1504 67.2852-52.832 68.4082-51.7578L85.0098-35.1074L68.4082-18.4082C67.2852-17.334 66.6992-16.0156 66.6992-14.5508C66.6992-11.4746 69.1406-9.0332 72.2168-9.0332Z"/>
  </g>
  <g id="Medium-L" transform="matrix(1 0 0 1 1664.18 1556)">
   <path d="M128.76 22.998C141.846 22.998 148.682 16.6504 148.682 3.66211L148.682-73.6328C148.682-86.5723 141.846-93.3105 128.76-93.3105L74.6582-93.3105C66.5527-93.3105 60.6445-91.4062 55.2246-85.5957L18.8965-47.4121C14.5508-42.7734 12.8906-39.209 12.8906-35.3027C12.8906-31.3477 14.5508-27.7832 18.8965-23.1445L55.2734 14.6973C60.6934 20.5078 66.5527 22.9492 74.6582 22.9492ZM128.174 12.2559L74.2676 12.2559C69.6777 12.2559 66.6504 10.9863 63.3789 7.61719L27.2949-29.9805C25.2441-32.0801 24.6094-33.5938 24.6094-35.3027C24.6094-36.9629 25.3418-38.4766 27.2949-40.5273L63.3301-78.4668C66.5527-81.8359 69.6777-82.6172 74.2188-82.6172L128.174-82.6172C134.521-82.6172 137.939-79.2969 137.939-72.7051L137.939 2.39258C137.939 8.98438 134.521 12.2559 128.174 12.2559ZM71.1914-8.98438C72.6562-8.98438 73.877-9.52148 74.8535-10.5469L92.2852-28.0273L109.814-10.5469C110.791-9.52148 112.012-8.98438 113.477-8.98438C116.26-8.98438 118.457-11.2305 118.457-14.0137C118.457-15.4297 117.969-16.6016 116.943-17.5781L99.4141-35.1074L116.992-52.7344C118.018-53.7598 118.506-54.8828 118.506-56.25C118.506-59.0332 116.309-61.2305 113.525-61.2305C112.109-61.2305 110.986-60.7422 109.912-59.668L92.2852-42.1387L74.7559-59.6191C73.7793-60.6445 72.6562-61.1328 71.1914-61.1328C68.3594-61.1328 66.1621-58.9844 66.1621-56.2012C66.1621-54.834 66.6992-53.6133 67.6758-52.6855L85.2051-35.1074L67.6758-17.5293C66.6992-16.6016 66.1621-15.3809 66.1621-14.0137C66.1621-11.2305 68.3594-8.98438 71.1914-8.98438Z"/>
  </g>
  <g id="Regular-L" transform="matrix(1 0 0 1 1368.06 1556)">
   <path d="M128.467 22.2168C141.064 22.2168 147.51 15.918 147.51 3.41797L147.51-73.7305C147.51-86.2305 141.064-92.5293 128.467-92.5293L74.2676-92.5293C67.041-92.5293 61.084-90.8203 56.1035-85.5957L18.5547-46.8262C14.5996-42.7734 12.8906-39.1602 12.8906-35.3027C12.8906-31.4453 14.5508-27.7832 18.5547-23.7305L56.1523 14.5996C61.1328 19.7754 67.0898 22.168 74.3164 22.168ZM128.32 13.5742L74.1699 13.5742C69.2871 13.5742 66.0156 12.207 62.5977 8.69141L25.2441-29.4434C22.998-31.7871 22.2656-33.4473 22.2656-35.3027C22.2656-37.1582 23.0469-38.8184 25.2441-41.1133L62.5488-79.6387C65.918-83.1543 69.2871-83.8867 74.1211-83.8867L128.32-83.8867C135.107-83.8867 138.818-80.2734 138.818-73.291L138.818 2.97852C138.818 9.96094 135.107 13.5742 128.32 13.5742ZM69.8242-8.93555C71.0449-8.93555 72.1191-9.42383 72.998-10.3027L91.6016-29.0039L110.303-10.3027C111.133-9.47266 112.207-8.93555 113.428-8.93555C115.869-8.93555 117.822-10.9375 117.822-13.3301C117.822-14.5508 117.334-15.5762 116.455-16.4551L97.8027-35.1074L116.504-53.9062C117.432-54.834 117.871-55.7617 117.871-56.9824C117.871-59.375 115.918-61.2793 113.477-61.2793C112.354-61.2793 111.377-60.8887 110.449-59.9121L91.6016-41.2109L72.9004-59.8633C72.0215-60.791 71.0449-61.1816 69.8242-61.1816C67.3828-61.1816 65.4297-59.3262 65.4297-56.9336C65.4297-55.7129 65.918-54.6875 66.7969-53.8574L85.498-35.1074L66.7969-16.4062C65.918-15.5762 65.4297-14.502 65.4297-13.3301C65.4297-10.9375 67.3828-8.93555 69.8242-8.93555Z"/>
  </g>
  <g id="Light-L" transform="matrix(1 0 0 1 1072.64 1556)">
   <path d="M126.904 21.4355C138.77 21.4355 144.922 15.3809 144.922 3.56445L144.922-73.8281C144.922-85.6445 138.77-91.6992 126.904-91.6992L73.4863-91.6992C66.4551-91.6992 60.9863-90.2344 56.25-85.3027L18.1152-46.2402C14.4531-42.4805 12.8906-39.1113 12.8906-35.3027C12.8906-31.543 14.4043-28.125 18.1152-24.3652L56.2988 14.0137C61.084 18.8477 66.5039 21.3867 73.4863 21.3867ZM126.758 14.7949L73.3887 14.7949C68.3105 14.7949 64.7949 13.1348 61.1816 9.47266L23.2422-28.7598C20.8496-31.2012 20.0195-33.1055 20.0195-35.3027C20.0195-37.5 20.8984-39.3555 23.2422-41.7969L61.1328-80.7129C64.7461-84.375 68.3105-85.0586 73.3887-85.0586L126.758-85.0586C134.277-85.0586 138.281-81.1523 138.281-73.4863L138.281 3.22266C138.281 10.8398 134.277 14.7949 126.758 14.7949ZM67.9688-9.47266C68.9941-9.47266 69.7754-9.81445 70.5078-10.5957L90.1855-30.2734L109.863-10.5957C110.596-9.86328 111.426-9.47266 112.402-9.47266C114.307-9.47266 115.82-10.9863 115.82-12.8418C115.82-13.8184 115.479-14.5996 114.746-15.332L95.0195-35.1074L114.795-54.9316C115.527-55.6641 115.869-56.3965 115.869-57.373C115.869-59.2285 114.355-60.6934 112.451-60.6934C111.523-60.6934 110.742-60.4004 109.961-59.5703L90.1855-39.8438L70.459-59.5703C69.6777-60.3516 68.9941-60.6445 67.9688-60.6445C66.0645-60.6445 64.5508-59.2285 64.5508-57.3242C64.5508-56.3965 64.8926-55.5664 65.625-54.8828L85.3516-35.1074L65.625-15.2832C64.8926-14.5996 64.5508-13.8184 64.5508-12.8418C64.5508-10.9863 66.0645-9.47266 67.9688-9.47266Z"/>
  </g>
  <g id="Thin-L" transform="matrix(1 0 0 1 777.638 1556)">
   <path d="M124.854 20.3613C135.742 20.3613 141.504 14.6484 141.504 3.75977L141.504-73.9746C141.504-84.8633 135.742-90.5762 124.854-90.5762L72.4121-90.5762C65.6738-90.5762 60.8887-89.4531 56.4941-84.9121L17.5781-45.459C14.209-42.041 12.8906-39.0137 12.8906-35.3516C12.8906-31.6895 14.1602-28.5645 17.5781-25.1465L56.4941 13.1836C60.9863 17.627 65.6738 20.3613 72.4121 20.3613ZM124.707 16.4062L72.4121 16.4062C67.0898 16.4062 63.1836 14.3555 59.2773 10.4492L20.5566-27.8809C17.9688-30.4688 17.041-32.666 17.041-35.3516C17.041-37.9395 18.0664-40.1367 20.5566-42.7246L59.2773-82.1777C63.1348-86.0352 67.0898-86.6699 72.4121-86.6699L124.707-86.6699C133.154-86.6699 137.549-82.2754 137.549-73.7793L137.549 3.56445C137.549 12.0117 133.154 16.4062 124.707 16.4062ZM65.4785-10.1562C66.2109-10.1562 66.6504-10.3516 67.2363-10.9863L88.2812-31.9824L109.277-10.9863C109.912-10.3516 110.4-10.1562 111.035-10.1562C112.256-10.1562 113.232-11.0352 113.232-12.207C113.232-12.8418 113.037-13.3301 112.5-13.8672L91.3086-35.0586L112.5-56.25C113.037-56.7871 113.232-57.2266 113.232-57.9102C113.232-59.0332 112.256-59.9121 111.035-59.9121C110.4-59.9121 109.912-59.7168 109.326-59.1309L88.2812-38.0859L67.2363-59.1309C66.6016-59.7168 66.2109-59.9121 65.4785-59.9121C64.2578-59.9121 63.3301-59.0332 63.3301-57.9102C63.3301-57.2266 63.5254-56.7383 64.0625-56.2012L85.2051-35.0586L64.0625-13.8672C63.5254-13.3301 63.3301-12.8418 63.3301-12.207C63.3301-11.0352 64.2578-10.1562 65.4785-10.1562Z"/>
  </g>
  <g id="Ultralight-L" transform="matrix(1 0 0 1 481.806 1556)">
   <path d="M123.828 19.7754C134.18 19.7754 139.746 14.2578 139.746 3.85742L139.746-74.0723C139.746-84.4727 134.18-89.9902 123.828-89.9902L71.875-89.9902C65.2832-89.9902 60.8398-89.0137 56.5918-84.7168L17.334-45.0684C14.1113-41.8457 12.8906-38.9648 12.8906-35.3516C12.8906-31.7871 14.0137-28.7598 17.334-25.5859L56.5918 12.793C60.9375 17.041 65.2832 19.7754 71.875 19.7754ZM123.682 17.2363L71.875 17.2363C66.4551 17.2363 62.3047 14.9902 58.3008 10.9863L19.1895-27.3926C16.5039-30.0781 15.5273-32.4219 15.5273-35.3516C15.5273-38.1836 16.6016-40.5273 19.1895-43.2129L58.3496-82.9102C62.3535-86.9141 66.4551-87.4512 71.875-87.4512L123.682-87.4512C132.568-87.4512 137.158-82.8125 137.158-73.9258L137.158 3.75977C137.158 12.6465 132.568 17.2363 123.682 17.2363ZM64.209-10.498C64.7949-10.498 65.0391-10.6445 65.5273-11.1328L87.3047-32.8613L108.984-11.1328C109.521-10.6445 109.863-10.498 110.352-10.498C111.23-10.498 111.865-11.084 111.865-11.8652C111.865-12.3535 111.768-12.6953 111.328-13.1348L89.4043-35.0098L111.328-56.8848C111.719-57.3242 111.865-57.666 111.865-58.1543C111.865-58.9355 111.182-59.5215 110.352-59.5215C109.814-59.5215 109.521-59.375 108.984-58.8867L87.3047-37.1582L65.5762-58.8867C65.0391-59.4238 64.7949-59.5215 64.209-59.5215C63.3301-59.5215 62.6953-58.9355 62.6953-58.1543C62.6953-57.666 62.793-57.373 63.2324-56.9336L85.1562-35.0098L63.2324-13.1348C62.793-12.6953 62.6953-12.3535 62.6953-11.8652C62.6953-11.084 63.3301-10.498 64.209-10.498Z"/>
  </g>
  <g id="Black-M" transform="matrix(1 0 0 1 2867.12 1126)">
   <path d="M100.586 13.5742C112.842 13.5742 120.117 8.64258 120.117-3.61328L120.117-64.4043C120.117-76.6602 112.842-83.9355 100.586-83.9355L59.4238-83.9355C48.584-83.9355 44.5312-81.6895 38.2324-74.0234L16.3574-47.3633C10.8887-40.7227 9.96094-38.4277 9.96094-35.2051C9.96094-31.8848 11.0352-29.4922 16.3574-22.998L38.1836 3.61328C44.6289 11.377 48.5352 13.5742 59.3262 13.5742ZM97.6562-4.73633L57.6172-4.73633C55.6641-4.73633 54.1504-5.46875 52.5879-7.42188L30.8105-33.6914C30.4688-34.082 30.2734-34.7168 30.2734-35.2051C30.2734-35.7422 30.4199-36.1816 30.8105-36.6211L52.5879-63.1348C54.1504-65.0391 55.6641-65.6738 57.6172-65.6738L97.6562-65.6738C100.439-65.6738 101.807-64.5508 101.807-61.4746L101.807-8.88672C101.807-5.81055 100.439-4.73633 97.6562-4.73633ZM61.377-15.332C63.5254-15.332 65.1855-15.9668 66.5527-17.334L74.4141-25.1465L82.3242-17.334C83.6914-15.9668 85.3516-15.332 87.5-15.332C91.3574-15.332 94.3359-18.3105 94.3359-22.2656C94.3359-23.9258 93.5547-25.6348 92.2363-26.9531L84.2773-35.0098L92.2363-43.0664C93.5547-44.3848 94.3359-46.0449 94.3359-47.7539C94.3359-51.709 91.3574-54.6875 87.5-54.6875C85.3516-54.6875 83.6914-54.0527 82.3242-52.6367L74.4141-44.8242L66.5527-52.6367C65.1855-54.0527 63.5254-54.6875 61.377-54.6875C57.5195-54.6875 54.541-51.709 54.541-47.7539C54.541-46.0449 55.3223-44.3848 56.6406-43.0664L64.6484-35.0098L56.6406-26.9531C55.3223-25.6348 54.541-23.9258 54.541-22.2656C54.541-18.3105 57.5195-15.332 61.377-15.332Z"/>
  </g>
  <g id="Heavy-M" transform="matrix(1 0 0 1 2570.92 1126)">
   <path d="M100.537 12.6465C112.305 12.6465 119.092 7.71484 119.092-4.05273L119.092-64.5508C119.092-76.3184 112.305-83.0566 100.537-83.0566L59.082-83.0566C49.4629-83.0566 45.2148-80.957 39.4043-74.1211L15.9668-46.6797C11.0352-40.8691 9.96094-38.4277 9.96094-35.2051C9.96094-31.9824 11.084-29.4434 15.9668-23.6816L39.4531 3.66211C45.2637 10.5469 49.4141 12.6465 59.0332 12.6465ZM98.291-3.17383L57.7148-3.17383C55.3223-3.17383 53.6133-3.95508 51.8066-6.05469L28.418-33.1055C27.7832-33.7891 27.4902-34.5703 27.4902-35.2051C27.4902-35.9375 27.7344-36.5234 28.418-37.3047L51.8066-64.502C53.5645-66.6016 55.3223-67.2363 57.666-67.2363L98.291-67.2363C101.562-67.2363 103.271-65.7715 103.271-62.207L103.271-8.1543C103.271-4.63867 101.562-3.17383 98.291-3.17383ZM59.9121-15.1855C61.8164-15.1855 63.2812-15.7227 64.5508-16.9922L73.7793-26.2207L83.1055-16.9922C84.375-15.7715 85.8398-15.1855 87.7441-15.1855C91.2109-15.1855 93.8965-17.8223 93.8965-21.3867C93.8965-22.9492 93.2129-24.4141 91.9922-25.6348L82.666-35.0586L92.041-44.4824C93.2129-45.7031 93.8965-47.168 93.8965-48.7305C93.8965-52.2461 91.2109-54.9316 87.7441-54.9316C85.8398-54.9316 84.4238-54.3457 83.1543-53.125L73.7793-43.8477L64.502-53.125C63.2812-54.3457 61.8164-54.9316 59.9121-54.9316C56.4453-54.9316 53.7598-52.2461 53.7598-48.7305C53.7598-47.168 54.4434-45.6543 55.6152-44.4824L65.0391-35.0586L55.6152-25.6348C54.4434-24.4141 53.7598-22.9004 53.7598-21.3867C53.7598-17.8223 56.4453-15.1855 59.9121-15.1855Z"/>
  </g>
  <g id="Bold-M" transform="matrix(1 0 0 1 2274.77 1126)">
   <path d="M100.488 11.6699C111.719 11.6699 117.92 6.68945 117.92-4.49219L117.92-64.6973C117.92-75.8789 111.719-82.0312 100.488-82.0312L58.6914-82.0312C50.4395-82.0312 45.9473-80.1758 40.7715-74.2188L15.4785-45.9473C11.1328-41.0156 9.96094-38.3789 9.96094-35.2539C9.96094-32.0801 11.2305-29.3945 15.4785-24.4629L40.8203 3.66211C46.0449 9.66797 50.4395 11.6211 58.6914 11.6211ZM98.9746-1.41602L57.7637-1.41602C54.9316-1.41602 53.0273-2.24609 50.9766-4.49219L25.7812-32.4219C24.7559-33.4961 24.4141-34.375 24.4141-35.2539C24.4141-36.1328 24.7559-36.9141 25.7812-38.0371L50.9277-66.0645C52.9785-68.3594 54.9316-68.9453 57.7637-68.9453L98.9746-68.9453C102.832-68.9453 104.883-67.1387 104.883-63.0371L104.883-7.32422C104.883-3.27148 102.832-1.41602 98.9746-1.41602ZM58.3008-14.9414C59.9121-14.9414 61.2305-15.4785 62.2559-16.5527L73.0957-27.3926L84.0332-16.5527C85.0586-15.5273 86.377-14.9414 87.9883-14.9414C91.0156-14.9414 93.3594-17.334 93.3594-20.3613C93.3594-21.7773 92.7734-23.0957 91.748-24.1211L80.8105-35.1074L91.7969-46.0938C92.8223-47.168 93.4082-48.4375 93.4082-49.8047C93.4082-52.8809 91.0645-55.2246 88.0371-55.2246C86.4258-55.2246 85.2051-54.7363 84.082-53.6133L73.0957-42.7246L62.207-53.6133C61.1816-54.6875 59.9121-55.1758 58.3008-55.1758C55.2734-55.1758 52.8809-52.832 52.8809-49.8047C52.8809-48.3887 53.4668-47.0703 54.541-46.0938L65.4785-35.1074L54.541-24.1211C53.4668-23.0957 52.8809-21.7773 52.8809-20.3613C52.8809-17.334 55.2734-14.9414 58.3008-14.9414Z"/>
  </g>
  <g id="Semibold-M" transform="matrix(1 0 0 1 1978.47 1126)">
   <path d="M100.488 10.9863C111.328 10.9863 117.139 5.95703 117.139-4.78516L117.139-64.8438C117.139-75.5859 111.328-81.3477 100.488-81.3477L58.4473-81.3477C51.123-81.3477 46.4844-79.5898 41.748-74.3164L15.1367-45.459C11.2305-41.1133 9.96094-38.3789 9.96094-35.2539C9.96094-32.1289 11.2793-29.3457 15.1367-25.0488L41.748 3.71094C46.5332 9.0332 51.123 10.9375 58.4473 10.9375ZM99.4629-0.195312L57.8125-0.195312C54.6875-0.195312 52.5879-1.07422 50.3418-3.4668L23.9258-31.9336C22.6562-33.252 22.2656-34.2285 22.2656-35.2539C22.2656-36.2793 22.7051-37.207 23.9258-38.5254L50.3418-67.1387C52.5391-69.5312 54.6875-70.166 57.7637-70.166L99.4629-70.166C103.711-70.166 105.957-68.0664 105.957-63.623L105.957-6.78711C105.957-2.34375 103.711-0.195312 99.4629-0.195312ZM57.1777-14.7949C58.5938-14.7949 59.7656-15.2832 60.6934-16.2598L72.6562-28.2227L84.6191-16.2598C85.5957-15.332 86.7188-14.7949 88.1836-14.7949C90.918-14.7949 93.0176-16.9922 93.0176-19.7266C93.0176-20.9961 92.5293-22.168 91.5527-23.0957L79.5898-35.1074L91.6016-47.2168C92.5781-48.1934 93.0664-49.3164 93.0664-50.5859C93.0664-53.3203 90.918-55.4199 88.2324-55.4199C86.8164-55.4199 85.7422-54.9805 84.7168-53.9551L72.6562-41.9434L60.6445-53.9551C59.7168-54.8828 58.5938-55.3711 57.1777-55.3711C54.4434-55.3711 52.2949-53.2715 52.2949-50.5371C52.2949-49.2676 52.832-48.0957 53.7598-47.168L65.7715-35.1074L53.7598-23.0469C52.832-22.168 52.2949-20.9961 52.2949-19.7266C52.2949-16.9922 54.4434-14.7949 57.1777-14.7949Z"/>
  </g>
  <g id="Medium-M" transform="matrix(1 0 0 1 1682.05 1126)">
   <path d="M100.488 10.4492C111.035 10.4492 116.553 5.41992 116.553-5.0293L116.553-64.8926C116.553-75.3906 111.035-80.8105 100.488-80.8105L58.252-80.8105C51.6113-80.8105 46.875-79.1992 42.4316-74.3652L14.8926-45.0684C11.3281-41.1621 9.96094-38.3301 9.96094-35.2539C9.96094-32.1777 11.3281-29.2969 14.8926-25.4395L42.4805 3.71094C46.9238 8.54492 51.6602 10.4004 58.3008 10.4004ZM99.8535 0.732422L57.8613 0.732422C54.4922 0.732422 52.2949-0.146484 49.9023-2.63672L22.5098-31.5918C21.0938-33.1055 20.6543-34.1309 20.6543-35.2539C20.6543-36.377 21.1426-37.4023 22.5098-38.916L49.8535-67.9688C52.1973-70.459 54.4922-71.0938 57.8125-71.0938L99.8535-71.0938C104.346-71.0938 106.836-68.75 106.836-64.0137L106.836-6.34766C106.836-1.61133 104.346 0.732422 99.8535 0.732422ZM56.2988-14.6973C57.5684-14.6973 58.6914-15.1855 59.5215-16.0645L72.2656-28.8574L85.1074-16.0645C85.9375-15.1855 87.0117-14.6973 88.3301-14.6973C90.8203-14.6973 92.7734-16.6992 92.7734-19.1895C92.7734-20.4102 92.2852-21.4355 91.4062-22.3145L78.6133-35.1562L91.4551-48.0469C92.3828-48.9258 92.8223-49.9512 92.8223-51.123C92.8223-53.6133 90.8691-55.5664 88.3789-55.5664C87.1582-55.5664 86.1328-55.1758 85.2051-54.248L72.2656-41.4062L59.4238-54.1992C58.5938-55.0781 57.5684-55.4688 56.2988-55.4688C53.8086-55.4688 51.8555-53.5645 51.8555-51.0742C51.8555-49.9023 52.3438-48.8281 53.1738-47.998L66.0156-35.1562L53.1738-22.2656C52.3438-21.4355 51.8555-20.3613 51.8555-19.1895C51.8555-16.6992 53.8086-14.6973 56.2988-14.6973Z"/>
  </g>
  <g id="Regular-M" transform="matrix(1 0 0 1 1385.73 1126)">
   <path d="M100.439 9.76562C110.645 9.76562 115.771 4.73633 115.771-5.37109L115.771-64.9902C115.771-75.0977 110.645-80.127 100.439-80.127L58.0078-80.127C52.2949-80.127 47.3633-78.6621 43.3594-74.4141L14.5996-44.5312C11.4258-41.2598 9.96094-38.3301 9.96094-35.2539C9.96094-32.2266 11.377-29.248 14.5996-25.9766L43.4082 3.75977C47.4609 7.95898 52.3438 9.7168 58.0566 9.7168ZM100.342 1.9043L57.9102 1.9043C54.1992 1.9043 51.9043 1.02539 49.3164-1.61133L20.7031-31.1523C19.043-32.8613 18.5547-34.0332 18.5547-35.2539C18.5547-36.5234 19.0918-37.6953 20.7031-39.4043L49.2676-69.043C51.8066-71.6309 54.1992-72.2656 57.8613-72.2656L100.342-72.2656C105.225-72.2656 107.91-69.6777 107.91-64.5996L107.91-5.76172C107.91-0.683594 105.225 1.9043 100.342 1.9043ZM55.1758-14.5508C56.25-14.5508 57.2266-14.9902 57.959-15.7715L71.8262-29.6875L85.6934-15.7715C86.4258-15.0391 87.4023-14.5508 88.5254-14.5508C90.6738-14.5508 92.4316-16.3574 92.4316-18.5059C92.4316-19.6289 91.9922-20.5566 91.2598-21.2891L77.3926-35.1562L91.3086-49.1211C92.0898-49.9512 92.4805-50.7812 92.4805-51.8555C92.4805-54.0527 90.7227-55.7617 88.5742-55.7617C87.5488-55.7617 86.6699-55.4199 85.8398-54.5898L71.8262-40.625L57.8613-54.541C57.1289-55.3223 56.25-55.6641 55.1758-55.6641C53.0273-55.6641 51.2695-54.0039 51.2695-51.8066C51.2695-50.7324 51.6602-49.8047 52.4414-49.0723L66.3086-35.1562L52.4414-21.2402C51.6602-20.5566 51.2695-19.5801 51.2695-18.5059C51.2695-16.3574 53.0273-14.5508 55.1758-14.5508Z"/>
  </g>
  <g id="Light-M" transform="matrix(1 0 0 1 1090.17 1126)">
   <path d="M99.0723 9.0332C108.594 9.0332 113.477 4.19922 113.477-5.22461L113.477-65.0879C113.477-74.5605 108.594-79.3945 99.0723-79.3945L57.2754-79.3945C51.7578-79.3945 47.3145-78.125 43.5059-74.1699L14.209-44.043C11.2793-40.9668 9.96094-38.2324 9.96094-35.3027C9.96094-32.3242 11.2305-29.5898 14.209-26.5137L43.5547 3.17383C47.3633 7.12891 51.8066 8.98438 57.3242 8.98438ZM98.9258 2.97852L57.2266 2.97852C53.3691 2.97852 50.7812 1.85547 48.0469-0.927734L18.8965-30.5176C17.0898-32.373 16.5039-33.7402 16.5039-35.3027C16.5039-36.8164 17.1875-38.1836 18.8965-40.0391L47.998-70.0195C50.6836-72.7539 53.3691-73.3398 57.1777-73.3398L98.9258-73.3398C104.443-73.3398 107.422-70.4102 107.422-64.7949L107.422-5.56641C107.422 0.0976562 104.443 2.97852 98.9258 2.97852ZM53.5156-15.0391C54.3945-15.0391 55.127-15.332 55.7617-16.0156L70.5078-30.8105L85.3516-16.0156C85.9863-15.3809 86.6699-15.0391 87.5977-15.0391C89.3066-15.0391 90.6738-16.4062 90.6738-18.0664C90.6738-18.9941 90.332-19.6777 89.6973-20.3125L74.8535-35.1562L89.7461-50.0488C90.3809-50.6836 90.6738-51.3672 90.6738-52.1973C90.6738-53.9062 89.3066-55.2246 87.5977-55.2246C86.7676-55.2246 86.1328-54.9316 85.4492-54.248L70.5078-39.4043L55.7129-54.248C55.0781-54.8828 54.3945-55.1758 53.5156-55.1758C51.8066-55.1758 50.4395-53.8574 50.4395-52.1973C50.4395-51.3184 50.7324-50.5859 51.3672-50L66.2109-35.1562L51.3672-20.2637C50.7324-19.6777 50.4395-18.9453 50.4395-18.0664C50.4395-16.4062 51.8066-15.0391 53.5156-15.0391Z"/>
  </g>
  <g id="Thin-M" transform="matrix(1 0 0 1 794.996 1126)">
   <path d="M97.2168 8.05664C105.859 8.05664 110.4 3.56445 110.4-5.0293L110.4-65.2344C110.4-73.877 105.859-78.3691 97.2168-78.3691L56.3477-78.3691C51.0742-78.3691 47.2168-77.3926 43.7012-73.8281L13.7695-43.3105C11.084-40.625 9.96094-38.1836 9.96094-35.3027C9.96094-32.4707 10.9863-29.9805 13.7695-27.2461L43.75 2.49023C47.2656 6.00586 51.0742 8.05664 56.3477 8.05664ZM97.1191 4.44336L56.3477 4.44336C52.2461 4.44336 49.3164 2.92969 46.3379-0.0488281L16.5039-29.7363C14.5508-31.6895 13.8672-33.3496 13.8672-35.3027C13.8672-37.2559 14.5996-38.8672 16.5039-40.8691L46.3379-71.2891C49.2676-74.2676 52.2461-74.7559 56.2988-74.7559L97.1191-74.7559C103.418-74.7559 106.738-71.4355 106.738-65.0391L106.738-5.22461C106.738 1.12305 103.418 4.44336 97.1191 4.44336ZM51.2695-15.6738C51.9043-15.6738 52.2949-15.8203 52.832-16.3574L68.7988-32.373L84.8145-16.3574C85.3027-15.8691 85.791-15.6738 86.377-15.6738C87.4512-15.6738 88.3301-16.4551 88.3301-17.5293C88.3301-18.1152 88.1348-18.5547 87.6465-18.9941L71.582-35.1074L87.6953-51.2207C88.1348-51.709 88.3301-52.0996 88.3301-52.6855C88.3301-53.7109 87.4512-54.541 86.377-54.541C85.791-54.541 85.4004-54.3457 84.8633-53.8574L68.7988-37.8418L52.7832-53.8086C52.2949-54.3457 51.9043-54.4922 51.2695-54.4922C50.1953-54.4922 49.3164-53.7109 49.3164-52.6855C49.3164-52.0996 49.5117-51.6602 50-51.2207L66.0645-35.1074L50-18.9941C49.5117-18.5547 49.3164-18.0664 49.3164-17.5293C49.3164-16.4551 50.1953-15.6738 51.2695-15.6738Z"/>
  </g>
  <g id="Ultralight-M" transform="matrix(1 0 0 1 499.067 1126)">
   <path d="M96.2891 7.56836C104.443 7.56836 108.838 3.22266 108.838-4.98047L108.838-65.2832C108.838-73.4863 104.443-77.832 96.2891-77.832L55.8594-77.832C50.6836-77.832 47.168-77.0508 43.7988-73.6328L13.5254-42.9688C10.9375-40.4297 9.96094-38.1348 9.96094-35.3027C9.96094-32.5195 10.8887-30.1758 13.5254-27.6367L43.7988 2.09961C47.2168 5.46875 50.6836 7.56836 55.8594 7.56836ZM96.1426 5.17578L55.8594 5.17578C51.6602 5.17578 48.5352 3.4668 45.5078 0.439453L15.2832-29.2969C13.2324-31.3477 12.5-33.1055 12.5-35.3027C12.5-37.4512 13.2812-39.209 15.2832-41.2598L45.5078-71.9727C48.5352-75 51.6602-75.4395 55.8594-75.4395L96.1426-75.4395C102.93-75.4395 106.445-71.9727 106.445-65.1855L106.445-5.07812C106.445 1.66016 102.93 5.17578 96.1426 5.17578ZM50.1465-15.9668C50.6348-15.9668 50.8789-16.0645 51.3184-16.5039L67.9199-33.1543L84.5703-16.5039C85.0098-16.0645 85.3027-15.9668 85.7422-15.9668C86.5234-15.9668 87.1094-16.5039 87.1094-17.2363C87.1094-17.627 87.0117-17.9688 86.6211-18.3105L69.873-35.0586L86.6211-51.8066C87.0117-52.1973 87.1094-52.4902 87.1094-52.9297C87.1094-53.6621 86.5234-54.1992 85.7422-54.1992C85.3027-54.1992 85.0098-54.0527 84.5703-53.6133L67.9199-37.0117L51.3184-53.6133C50.8789-54.0527 50.6348-54.1992 50.1465-54.1992C49.3652-54.1992 48.7793-53.6621 48.7793-52.9297C48.7793-52.4902 48.877-52.1973 49.2676-51.8066L66.0156-35.0586L49.2676-18.3105C48.877-17.9688 48.7793-17.627 48.7793-17.2363C48.7793-16.5039 49.3652-15.9668 50.1465-15.9668Z"/>
  </g>
  <g id="Black-S" transform="matrix(1 0 0 1 2881.5 696)">
   <path d="M78.8086 2.92969C88.3789 2.92969 94.043-0.927734 94.043-10.498L94.043-58.1055C94.043-67.6758 88.3789-73.3398 78.8086-73.3398L46.5332-73.3398C38.1348-73.3398 34.9609-71.582 30.0293-65.625L12.793-44.6777C8.54492-39.5508 7.8125-37.7441 7.8125-35.2051C7.8125-32.6172 8.64258-30.7129 12.793-25.6836L30.0293-4.78516C35.0098 1.2207 38.0859 2.92969 46.4844 2.92969ZM76.5625-11.2305L45.166-11.2305C43.6035-11.2305 42.3828-11.8164 41.1621-13.3301L23.9746-33.9844C23.6816-34.3262 23.5352-34.8145 23.5352-35.2051C23.5352-35.6445 23.6328-35.9863 23.9746-36.377L41.1621-57.1777C42.3828-58.6914 43.6035-59.1797 45.166-59.1797L76.5625-59.1797C78.8086-59.1797 79.8828-58.3008 79.8828-55.8594L79.8828-14.5508C79.8828-12.1094 78.8086-11.2305 76.5625-11.2305ZM47.998-19.6289C49.6582-19.6289 50.9277-20.1172 52.002-21.1914L58.252-27.3926L64.5508-21.1914C65.625-20.1172 66.8945-19.6289 68.5547-19.6289C71.582-19.6289 73.877-21.9238 73.877-25C73.877-26.3184 73.291-27.6367 72.2656-28.6621L65.918-35.0586L72.2656-41.4551C73.291-42.4805 73.877-43.7988 73.877-45.1172C73.877-48.1934 71.582-50.4883 68.5547-50.4883C66.8945-50.4883 65.625-50 64.5508-48.9258L58.252-42.6758L52.002-48.9258C50.9277-50 49.6582-50.4883 47.998-50.4883C44.9707-50.4883 42.6758-48.1934 42.6758-45.1172C42.6758-43.7988 43.2617-42.4805 44.2871-41.4551L50.6836-35.0586L44.2871-28.6621C43.2617-27.6367 42.6758-26.3184 42.6758-25C42.6758-21.9238 44.9707-19.6289 47.998-19.6289Z"/>
  </g>
  <g id="Heavy-S" transform="matrix(1 0 0 1 2585.05 696)">
   <path d="M78.9551 2.34375C88.2324 2.34375 93.5059-1.5625 93.5059-10.8398L93.5059-58.2031C93.5059-67.4316 88.2324-72.7539 78.9551-72.7539L46.3379-72.7539C38.8672-72.7539 35.498-71.0938 30.957-65.7227L12.5-44.2383C8.64258-39.6973 7.8125-37.7441 7.8125-35.2051C7.8125-32.666 8.74023-30.6641 12.5-26.1719L30.957-4.6875C35.5469 0.683594 38.8184 2.29492 46.3379 2.29492ZM77.1973-10.1562L45.3125-10.1562C43.457-10.1562 42.0898-10.7422 40.7227-12.3535L22.3633-33.5938C21.8262-34.1797 21.6309-34.7168 21.6309-35.2051C21.6309-35.7422 21.8262-36.1816 22.3633-36.8164L40.7227-58.1543C42.0898-59.7656 43.457-60.2539 45.2637-60.2539L77.1973-60.2539C79.7363-60.2539 81.0547-59.1309 81.0547-56.3965L81.0547-14.0137C81.0547-11.2793 79.7363-10.1562 77.1973-10.1562ZM47.0703-19.4336C48.5352-19.4336 49.7559-19.9219 50.6836-20.8984L57.9102-28.0762L65.1855-20.8984C66.1621-19.9219 67.334-19.4336 68.8477-19.4336C71.6309-19.4336 73.7305-21.582 73.7305-24.3652C73.7305-25.6348 73.1934-26.8066 72.2656-27.7344L64.9414-35.1074L72.2656-42.4316C73.1934-43.4082 73.7305-44.5801 73.7305-45.8008C73.7305-48.6328 71.6309-50.7324 68.8477-50.7324C67.3828-50.7324 66.2109-50.293 65.2344-49.3164L57.9102-42.041L50.6836-49.3164C49.707-50.293 48.5352-50.7324 47.0703-50.7324C44.2871-50.7324 42.1875-48.6328 42.1875-45.8008C42.1875-44.5801 42.7246-43.3594 43.6523-42.4316L50.9766-35.1074L43.6523-27.7344C42.7246-26.8066 42.1875-25.5859 42.1875-24.3652C42.1875-21.582 44.2871-19.4336 47.0703-19.4336Z"/>
  </g>
  <g id="Bold-S" transform="matrix(1 0 0 1 2288.64 696)">
   <path d="M79.1016 1.66016C88.0371 1.66016 92.9199-2.29492 92.9199-11.1816L92.9199-58.3008C92.9199-67.1875 88.0371-72.0703 79.1016-72.0703L46.1426-72.0703C39.6973-72.0703 36.0352-70.5566 31.9824-65.8691L12.207-43.75C8.78906-39.8438 7.8125-37.6953 7.8125-35.2539C7.8125-32.7148 8.83789-30.5664 12.207-26.709L31.9824-4.58984C36.084 0.0976562 39.6973 1.61133 46.1426 1.61133ZM77.9297-8.93555L45.4102-8.93555C43.2617-8.93555 41.7969-9.52148 40.1855-11.2793L20.5566-33.1543C19.7754-33.9844 19.5312-34.6191 19.5312-35.2539C19.5312-35.8887 19.7754-36.4258 20.5566-37.3047L40.1855-59.2285C41.748-60.9375 43.2617-61.4746 45.4102-61.4746L77.9297-61.4746C80.8105-61.4746 82.3242-60.0586 82.3242-56.9824L82.3242-13.4277C82.3242-10.3516 80.8105-8.93555 77.9297-8.93555ZM45.9961-19.2383C47.3145-19.2383 48.3887-19.6777 49.2188-20.5078L57.5684-28.8574L65.918-20.5078C66.7969-19.6777 67.8223-19.2383 69.1895-19.2383C71.6309-19.2383 73.584-21.1914 73.584-23.6816C73.584-24.8047 73.0957-25.8789 72.2656-26.709L63.8672-35.1074L72.2656-43.5547C73.1445-44.4336 73.584-45.459 73.584-46.6309C73.584-49.1211 71.6797-51.0254 69.1895-51.0254C67.9199-51.0254 66.8945-50.6348 66.0156-49.7559L57.5684-41.3574L49.2188-49.707C48.3398-50.5859 47.3145-50.9766 45.9961-50.9766C43.5547-50.9766 41.6016-49.0723 41.6016-46.582C41.6016-45.459 42.0898-44.3848 42.9199-43.5547L51.3184-35.1074L42.9199-26.709C42.0898-25.8789 41.6016-24.8047 41.6016-23.6816C41.6016-21.1914 43.5547-19.2383 45.9961-19.2383Z"/>
  </g>
  <g id="Semibold-S" transform="matrix(1 0 0 1 1992.12 696)">
   <path d="M79.1992 1.17188C87.8906 1.17188 92.5293-2.83203 92.5293-11.4258L92.5293-58.3984C92.5293-67.041 87.8906-71.582 79.1992-71.582L46.0449-71.582C40.2344-71.582 36.4746-70.166 32.666-65.918L12.0117-43.4082C8.83789-39.9414 7.8125-37.6953 7.8125-35.2539C7.8125-32.7637 8.88672-30.5176 12.0117-27.0508L32.7148-4.54102C36.5234-0.292969 40.2832 1.17188 46.0449 1.17188ZM78.418-8.10547L45.5078-8.10547C43.1152-8.10547 41.5527-8.69141 39.8438-10.5469L19.2871-32.8613C18.3594-33.8379 18.0664-34.5703 18.0664-35.2539C18.0664-35.9375 18.3594-36.6211 19.2871-37.5977L39.8438-59.9609C41.5039-61.7676 43.1152-62.3047 45.5078-62.3047L78.418-62.3047C81.543-62.3047 83.2031-60.6934 83.2031-57.4219L83.2031-12.9883C83.2031-9.7168 81.543-8.10547 78.418-8.10547ZM45.3125-19.0918C46.4844-19.0918 47.4609-19.4824 48.2422-20.2637L57.3242-29.3945L66.4551-20.2637C67.1875-19.5312 68.1641-19.0918 69.3848-19.0918C71.6797-19.0918 73.4375-20.8984 73.4375-23.1934C73.4375-24.2676 72.998-25.2441 72.2168-26.0254L63.1348-35.1562L72.2656-44.3359C73.0957-45.166 73.4863-46.0938 73.4863-47.168C73.4863-49.4629 71.6797-51.2207 69.4336-51.2207C68.2617-51.2207 67.3828-50.8301 66.5527-50.0488L57.3242-40.8691L48.1934-50C47.4121-50.7812 46.4844-51.1719 45.3125-51.1719C43.0176-51.1719 41.2109-49.4141 41.2109-47.1191C41.2109-46.0449 41.6504-45.0684 42.4316-44.3359L51.5625-35.1562L42.4316-25.9766C41.6504-25.2441 41.2109-24.2676 41.2109-23.1934C41.2109-20.8984 43.0176-19.0918 45.3125-19.0918Z"/>
  </g>
  <g id="Medium-S" transform="matrix(1 0 0 1 1695.55 696)">
   <path d="M79.248 0.830078C87.793 0.830078 92.2363-3.17383 92.2363-11.6211L92.2363-58.4473C92.2363-66.8945 87.793-71.2402 79.248-71.2402L45.8984-71.2402C40.6738-71.2402 36.7676-69.873 33.2031-66.0156L11.8164-43.1152C8.93555-39.9902 7.8125-37.6953 7.8125-35.2539C7.8125-32.8125 8.93555-30.4688 11.8164-27.3438L33.252-4.49219C36.8164-0.585938 40.7227 0.78125 45.9473 0.78125ZM78.8086-7.4707L45.6055-7.4707C43.0176-7.4707 41.4062-8.05664 39.5996-9.96094L18.3594-32.6172C17.2852-33.7402 16.9434-34.4727 16.9434-35.2539C16.9434-35.9863 17.2852-36.7188 18.3594-37.8418L39.5508-60.498C41.3086-62.4023 43.0176-62.9395 45.5566-62.9395L78.8086-62.9395C82.0801-62.9395 83.8867-61.1816 83.8867-57.7148L83.8867-12.6953C83.8867-9.22852 82.0801-7.4707 78.8086-7.4707ZM44.7266-18.9453C45.8008-18.9453 46.7773-19.3848 47.4609-20.1172L57.1289-29.7852L66.8457-20.1172C67.5293-19.3848 68.457-18.9453 69.5801-18.9453C71.6797-18.9453 73.3887-20.7031 73.3887-22.8027C73.3887-23.877 72.9492-24.7559 72.2168-25.4883L62.5488-35.1562L72.2656-44.9219C73.0469-45.7031 73.3887-46.5332 73.3887-47.5586C73.3887-49.707 71.7285-51.3672 69.5801-51.3672C68.5547-51.3672 67.7246-51.0254 66.9434-50.2441L57.1289-40.5273L47.4121-50.1953C46.6797-50.9277 45.8008-51.3184 44.7266-51.3184C42.627-51.3184 40.918-49.6582 40.918-47.5098C40.918-46.5332 41.3574-45.6055 42.0898-44.873L51.7578-35.1562L42.0898-25.4395C41.3574-24.7559 40.918-23.8281 40.918-22.8027C40.918-20.7031 42.627-18.9453 44.7266-18.9453Z"/>
  </g>
  <g id="Regular-S" transform="matrix(1 0 0 1 1399.04 696)">
   <path d="M79.3945 0.390625C87.6465 0.390625 91.8457-3.71094 91.8457-11.9141L91.8457-58.4961C91.8457-66.6992 87.6465-70.8008 79.3945-70.8008L45.8008-70.8008C41.2109-70.8008 37.1582-69.4824 33.8867-66.0645L11.6211-42.7734C9.0332-40.0879 7.8125-37.6953 7.8125-35.2539C7.8125-32.8125 8.98438-30.4199 11.6211-27.7344L33.9355-4.44336C37.207-1.02539 41.2598 0.341797 45.8496 0.341797ZM79.2969-6.68945L45.7031-6.68945C42.8711-6.68945 41.1621-7.22656 39.2578-9.22852L17.0898-32.3242C15.8691-33.5938 15.5273-34.4238 15.5273-35.2539C15.5273-36.084 15.918-36.9141 17.0898-38.1836L39.209-61.2305C41.1133-63.2324 42.8711-63.7207 45.6543-63.7207L79.2969-63.7207C82.8125-63.7207 84.7656-61.8164 84.7656-58.1543L84.7656-12.2559C84.7656-8.54492 82.8125-6.68945 79.2969-6.68945ZM44.043-18.7988C44.9707-18.7988 45.8496-19.1895 46.4844-19.873L56.8848-30.3223L67.334-19.873C67.9199-19.2383 68.7988-18.7988 69.7754-18.7988C71.7285-18.7988 73.2422-20.4102 73.2422-22.3633C73.2422-23.3398 72.9004-24.1211 72.2168-24.8047L61.8164-35.2051L72.2656-45.7031C72.998-46.3867 73.291-47.168 73.291-48.0957C73.291-50.0488 71.7773-51.5625 69.8242-51.5625C68.9453-51.5625 68.1641-51.2695 67.4805-50.5371L56.8848-40.0391L46.3867-50.4883C45.752-51.1719 44.9707-51.4648 44.043-51.4648C42.0898-51.4648 40.5273-50 40.5273-48.0469C40.5273-47.1191 40.918-46.2891 41.6016-45.6543L52.002-35.2051L41.6016-24.7559C40.918-24.1211 40.5273-23.291 40.5273-22.3633C40.5273-20.4102 42.0898-18.7988 44.043-18.7988Z"/>
  </g>
  <g id="Light-S" transform="matrix(1 0 0 1 1103.35 696)">
   <path d="M78.125-0.292969C85.8398-0.292969 89.7949-4.15039 89.7949-11.7676L89.7949-58.5938C89.7949-66.2598 85.8398-70.1172 78.125-70.1172L45.166-70.1172C40.7715-70.1172 37.1094-69.043 34.0332-65.8203L11.2793-42.334C8.88672-39.8438 7.8125-37.6465 7.8125-35.2539C7.8125-32.9102 8.83789-30.6641 11.2793-28.2227L34.082-4.93164C37.1582-1.75781 40.7715-0.292969 45.166-0.292969ZM78.0273-5.71289L45.1172-5.71289C42.1387-5.71289 40.1855-6.49414 38.1348-8.64258L15.5273-31.7871C14.1602-33.1543 13.7207-34.1797 13.7207-35.2539C13.7207-36.377 14.209-37.3535 15.5273-38.7207L38.0859-62.1094C40.1367-64.209 42.1387-64.6973 45.0684-64.6973L78.0273-64.6973C82.1289-64.6973 84.3262-62.5 84.3262-58.3008L84.3262-12.0605C84.3262-7.86133 82.1289-5.71289 78.0273-5.71289ZM42.5293-19.2383C43.3105-19.2383 43.9941-19.5312 44.5312-20.0684L55.7129-31.3477L66.9922-20.0684C67.5293-19.5312 68.1641-19.2383 68.9453-19.2383C70.459-19.2383 71.6797-20.459 71.6797-21.9727C71.6797-22.7539 71.3867-23.3887 70.8496-23.9258L59.6191-35.1562L70.8984-46.4844C71.4844-47.0703 71.7285-47.6562 71.7285-48.3887C71.7285-49.9023 70.5078-51.123 68.9941-51.123C68.2617-51.123 67.6758-50.8301 67.0898-50.2441L55.7129-38.9648L44.4336-50.2441C43.9453-50.7812 43.3105-51.0254 42.5293-51.0254C41.0156-51.0254 39.7949-49.9023 39.7949-48.3887C39.7949-47.6074 40.0879-46.9727 40.625-46.4355L51.9043-35.1562L40.625-23.877C40.0879-23.3887 39.7949-22.7051 39.7949-21.9727C39.7949-20.459 41.0156-19.2383 42.5293-19.2383Z"/>
  </g>
  <g id="Thin-S" transform="matrix(1 0 0 1 808.009 696)">
   <path d="M76.5137-1.12305C83.4473-1.12305 87.0605-4.6875 87.0605-11.6211L87.0605-58.6914C87.0605-65.625 83.4473-69.2383 76.5137-69.2383L44.3359-69.2383C40.1367-69.2383 37.0117-68.4082 34.2285-65.5273L10.8887-41.6992C8.69141-39.502 7.8125-37.5488 7.8125-35.3027C7.8125-33.0078 8.69141-31.0059 10.8887-28.8574L34.2285-5.56641C37.0605-2.68555 40.1367-1.12305 44.3359-1.12305ZM76.416-4.44336L44.2871-4.44336C41.1621-4.44336 38.916-5.56641 36.6211-7.8125L13.3789-31.0547C11.8652-32.6172 11.377-33.8379 11.377-35.3027C11.377-36.7188 11.9141-37.9395 13.3789-39.4531L36.6211-63.2324C38.8672-65.5273 41.1621-65.918 44.2871-65.918L76.416-65.918C81.25-65.918 83.7891-63.3789 83.7891-58.5449L83.7891-11.8164C83.7891-6.93359 81.25-4.44336 76.416-4.44336ZM40.5762-19.7754C41.1133-19.7754 41.5039-19.9219 41.9434-20.3613L54.248-32.666L66.5527-20.3613C66.9434-19.9707 67.3828-19.7754 67.8711-19.7754C68.8477-19.7754 69.6289-20.5078 69.6289-21.4844C69.6289-21.9727 69.4336-22.3633 69.043-22.7539L56.6895-35.1562L69.0918-47.5098C69.4824-47.9492 69.6289-48.291 69.6289-48.8281C69.6289-49.7559 68.8477-50.4883 67.8711-50.4883C67.3828-50.4883 67.041-50.3418 66.6016-49.9023L54.248-37.5488L41.8945-49.9023C41.5039-50.293 41.1133-50.4883 40.5762-50.4883C39.5996-50.4883 38.8672-49.7559 38.8672-48.7793C38.8672-48.291 39.0137-47.9004 39.4043-47.5098L51.8066-35.1562L39.4043-22.7539C39.0137-22.3633 38.8672-21.9727 38.8672-21.4844C38.8672-20.5078 39.5996-19.7754 40.5762-19.7754Z"/>
  </g>
  <g id="Ultralight-S" transform="matrix(1 0 0 1 511.982 696)">
   <path d="M75.6836-1.5625C82.2266-1.5625 85.6934-5.0293 85.6934-11.5234L85.6934-58.7891C85.6934-65.2832 82.2266-68.75 75.6836-68.75L43.8965-68.75C39.7949-68.75 36.9629-68.0664 34.3262-65.3809L10.6445-41.3574C8.59375-39.3555 7.8125-37.5 7.8125-35.3027C7.8125-33.1055 8.54492-31.2012 10.6445-29.1504L34.3262-5.85938C37.0117-3.22266 39.8438-1.5625 43.8965-1.5625ZM75.5859-3.75977L43.8965-3.75977C40.625-3.75977 38.2324-5.0293 35.8887-7.42188L12.3047-30.7129C10.6934-32.2754 10.1562-33.6426 10.1562-35.3027C10.1562-36.9141 10.7422-38.2812 12.3047-39.8438L35.8887-63.8184C38.2324-66.2109 40.625-66.5527 43.8965-66.5527L75.5859-66.5527C80.7617-66.5527 83.4473-63.8672 83.4473-58.6426L83.4473-11.6699C83.4473-6.44531 80.7617-3.75977 75.5859-3.75977ZM39.5996-20.0684C39.9902-20.0684 40.2344-20.166 40.5762-20.5078L53.4668-33.3984L66.3086-20.5078C66.6504-20.166 66.9434-20.0684 67.334-20.0684C68.0176-20.0684 68.5547-20.5566 68.5547-21.1914C68.5547-21.582 68.457-21.8262 68.1152-22.168L55.1758-35.1074L68.1152-48.0469C68.457-48.3887 68.5547-48.6328 68.5547-49.0234C68.5547-49.6582 68.0176-50.1465 67.334-50.1465C66.9434-50.1465 66.6992-50.0488 66.3086-49.707L53.4668-36.8164L40.5762-49.707C40.2344-50.0488 39.9902-50.1465 39.5996-50.1465C38.8672-50.1465 38.3301-49.6582 38.3301-49.0234C38.3301-48.6328 38.4766-48.3887 38.7695-48.0469L51.709-35.1074L38.7695-22.168C38.4766-21.8262 38.3301-21.582 38.3301-21.1914C38.3301-20.5566 38.8672-20.0684 39.5996-20.0684Z"/>
  </g>
 </g>
</svg>
