<?xml version="1.0" encoding="UTF-8"?>
<!--Generator: Apple Native CoreSVG 175-->
<!DOCTYPE svg
PUBLIC "-//W3C//DTD SVG 1.1//EN"
       "http://www.w3.org/Graphics/SVG/1.1/DTD/svg11.dtd">
<svg version="1.1" xmlns="http://www.w3.org/2000/svg" xmlns:xlink="http://www.w3.org/1999/xlink" width="3300" height="2200">
 <!--glyph: "uni10005C.medium", point size: 100.0, font version: "17.0d11e1", template writer version: "65.1"-->
 <style>.multicolor-0:systemOrangeColor {fill:#FF9500;opacity:1.0}

.hierarchical-0:secondary {fill:#4D4D4D}
.hierarchical-1:primary {fill:#212121}

.SFSymbolsPreviewFF9500 {fill:#FF9500;opacity:1.0}
</style>
 <g id="Notes">
  <rect height="2200" id="artboard" style="fill:white;opacity:1" width="3300" x="0" y="0"/>
  <line style="fill:none;stroke:black;opacity:1;stroke-width:0.5;" x1="263" x2="3036" y1="292" y2="292"/>
  <text style="stroke:none;fill:black;font-family:sans-serif;font-size:13;font-weight:bold;" transform="matrix(1 0 0 1 263 322)">Weight/Scale Variations</text>
  <text style="stroke:none;fill:black;font-family:sans-serif;font-size:13;text-anchor:middle;" transform="matrix(1 0 0 1 559.711 322)">Ultralight</text>
  <text style="stroke:none;fill:black;font-family:sans-serif;font-size:13;text-anchor:middle;" transform="matrix(1 0 0 1 856.422 322)">Thin</text>
  <text style="stroke:none;fill:black;font-family:sans-serif;font-size:13;text-anchor:middle;" transform="matrix(1 0 0 1 1153.13 322)">Light</text>
  <text style="stroke:none;fill:black;font-family:sans-serif;font-size:13;text-anchor:middle;" transform="matrix(1 0 0 1 1449.84 322)">Regular</text>
  <text style="stroke:none;fill:black;font-family:sans-serif;font-size:13;text-anchor:middle;" transform="matrix(1 0 0 1 1746.56 322)">Medium</text>
  <text style="stroke:none;fill:black;font-family:sans-serif;font-size:13;text-anchor:middle;" transform="matrix(1 0 0 1 2043.27 322)">Semibold</text>
  <text style="stroke:none;fill:black;font-family:sans-serif;font-size:13;text-anchor:middle;" transform="matrix(1 0 0 1 2339.98 322)">Bold</text>
  <text style="stroke:none;fill:black;font-family:sans-serif;font-size:13;text-anchor:middle;" transform="matrix(1 0 0 1 2636.69 322)">Heavy</text>
  <text style="stroke:none;fill:black;font-family:sans-serif;font-size:13;text-anchor:middle;" transform="matrix(1 0 0 1 2933.4 322)">Black</text>
  <line style="fill:none;stroke:black;opacity:1;stroke-width:0.5;" x1="263" x2="3036" y1="1903" y2="1903"/>
  <g transform="matrix(1 0 0 1 263 1933)">
   <path d="M9.24805 0.830078Q10.8691 0.830078 12.2949 0.214844Q13.7207-0.400391 14.8096-1.49414Q15.8984-2.58789 16.5186-4.01367Q17.1387-5.43945 17.1387-7.05078Q17.1387-8.66211 16.5186-10.0879Q15.8984-11.5137 14.8047-12.6074Q13.7109-13.7012 12.2852-14.3164Q10.8594-14.9316 9.23828-14.9316Q7.62695-14.9316 6.20117-14.3164Q4.77539-13.7012 3.69141-12.6074Q2.60742-11.5137 1.9873-10.0879Q1.36719-8.66211 1.36719-7.05078Q1.36719-5.43945 1.9873-4.01367Q2.60742-2.58789 3.69629-1.49414Q4.78516-0.400391 6.21094 0.214844Q7.63672 0.830078 9.24805 0.830078ZM9.24805-0.654297Q7.91992-0.654297 6.7627-1.14746Q5.60547-1.64062 4.73145-2.51953Q3.85742-3.39844 3.36426-4.56055Q2.87109-5.72266 2.87109-7.05078Q2.87109-8.37891 3.35938-9.54102Q3.84766-10.7031 4.72168-11.582Q5.5957-12.4609 6.75293-12.9541Q7.91016-13.4473 9.23828-13.4473Q10.5762-13.4473 11.7334-12.9541Q12.8906-12.4609 13.7695-11.582Q14.6484-10.7031 15.1465-9.54102Q15.6445-8.37891 15.6445-7.05078Q15.6445-5.72266 15.1514-4.56055Q14.6582-3.39844 13.7842-2.51953Q12.9102-1.64062 11.748-1.14746Q10.5859-0.654297 9.24805-0.654297ZM5.6543-7.05078Q5.6543-6.72852 5.85938-6.52832Q6.06445-6.32812 6.40625-6.32812L8.51562-6.32812L8.51562-4.20898Q8.51562-3.88672 8.71094-3.67676Q8.90625-3.4668 9.23828-3.4668Q9.56055-3.4668 9.77051-3.67676Q9.98047-3.88672 9.98047-4.20898L9.98047-6.32812L12.0898-6.32812Q12.4219-6.32812 12.627-6.52832Q12.832-6.72852 12.832-7.05078Q12.832-7.38281 12.627-7.58789Q12.4219-7.79297 12.0898-7.79297L9.98047-7.79297L9.98047-9.90234Q9.98047-10.2344 9.77051-10.4443Q9.56055-10.6543 9.23828-10.6543Q8.90625-10.6543 8.71094-10.4443Q8.51562-10.2344 8.51562-9.90234L8.51562-7.79297L6.40625-7.79297Q6.06445-7.79297 5.85938-7.58789Q5.6543-7.38281 5.6543-7.05078Z"/>
  </g>
  <g transform="matrix(1 0 0 1 281.867 1933)">
   <path d="M11.709 2.91016Q13.75 2.91016 15.5518 2.12891Q17.3535 1.34766 18.7305-0.0292969Q20.1074-1.40625 20.8887-3.20801Q21.6699-5.00977 21.6699-7.05078Q21.6699-9.0918 20.8887-10.8936Q20.1074-12.6953 18.7305-14.0723Q17.3535-15.4492 15.5469-16.2305Q13.7402-17.0117 11.6992-17.0117Q9.6582-17.0117 7.85645-16.2305Q6.05469-15.4492 4.68262-14.0723Q3.31055-12.6953 2.5293-10.8936Q1.74805-9.0918 1.74805-7.05078Q1.74805-5.00977 2.5293-3.20801Q3.31055-1.40625 4.6875-0.0292969Q6.06445 1.34766 7.86621 2.12891Q9.66797 2.91016 11.709 2.91016ZM11.709 1.25Q9.98047 1.25 8.47656 0.605469Q6.97266-0.0390625 5.83496-1.17676Q4.69727-2.31445 4.05762-3.81836Q3.41797-5.32227 3.41797-7.05078Q3.41797-8.7793 4.05762-10.2832Q4.69727-11.7871 5.83008-12.9297Q6.96289-14.0723 8.4668-14.7119Q9.9707-15.3516 11.6992-15.3516Q13.4277-15.3516 14.9316-14.7119Q16.4355-14.0723 17.5781-12.9297Q18.7207-11.7871 19.3652-10.2832Q20.0098-8.7793 20.0098-7.05078Q20.0098-5.32227 19.3701-3.81836Q18.7305-2.31445 17.5928-1.17676Q16.4551-0.0390625 14.9463 0.605469Q13.4375 1.25 11.709 1.25ZM7.17773-7.05078Q7.17773-6.69922 7.41211-6.47461Q7.64648-6.25 8.01758-6.25L10.8887-6.25L10.8887-3.36914Q10.8887-2.99805 11.1133-2.76855Q11.3379-2.53906 11.6895-2.53906Q12.0605-2.53906 12.29-2.76855Q12.5195-2.99805 12.5195-3.36914L12.5195-6.25L15.4004-6.25Q15.7715-6.25 16.001-6.47461Q16.2305-6.69922 16.2305-7.05078Q16.2305-7.42188 16.001-7.65137Q15.7715-7.88086 15.4004-7.88086L12.5195-7.88086L12.5195-10.752Q12.5195-11.1328 12.29-11.3623Q12.0605-11.5918 11.6895-11.5918Q11.3379-11.5918 11.1133-11.3574Q10.8887-11.123 10.8887-10.752L10.8887-7.88086L8.01758-7.88086Q7.63672-7.88086 7.40723-7.65137Q7.17773-7.42188 7.17773-7.05078Z"/>
  </g>
  <g transform="matrix(1 0 0 1 305.646 1933)">
   <path d="M14.9707 5.66406Q17.0605 5.66406 18.96 5.01465Q20.8594 4.36523 22.4512 3.19336Q24.043 2.02148 25.2197 0.429688Q26.3965-1.16211 27.0459-3.06641Q27.6953-4.9707 27.6953-7.05078Q27.6953-9.14062 27.0459-11.04Q26.3965-12.9395 25.2197-14.5312Q24.043-16.123 22.4512-17.2998Q20.8594-18.4766 18.9551-19.126Q17.0508-19.7754 14.9609-19.7754Q12.8711-19.7754 10.9717-19.126Q9.07227-18.4766 7.48535-17.2998Q5.89844-16.123 4.72168-14.5312Q3.54492-12.9395 2.90039-11.04Q2.25586-9.14062 2.25586-7.05078Q2.25586-4.9707 2.90527-3.06641Q3.55469-1.16211 4.72656 0.429688Q5.89844 2.02148 7.49023 3.19336Q9.08203 4.36523 10.9814 5.01465Q12.8809 5.66406 14.9707 5.66406ZM14.9707 3.84766Q13.1641 3.84766 11.5283 3.2959Q9.89258 2.74414 8.53516 1.74805Q7.17773 0.751953 6.17676-0.610352Q5.17578-1.97266 4.62891-3.6084Q4.08203-5.24414 4.08203-7.05078Q4.08203-8.86719 4.62891-10.5029Q5.17578-12.1387 6.17188-13.501Q7.16797-14.8633 8.52539-15.8594Q9.88281-16.8555 11.5186-17.4023Q13.1543-17.9492 14.9609-17.9492Q16.7773-17.9492 18.4131-17.4023Q20.0488-16.8555 21.4111-15.8594Q22.7734-14.8633 23.7695-13.501Q24.7656-12.1387 25.3174-10.5029Q25.8691-8.86719 25.8691-7.05078Q25.8789-5.24414 25.332-3.6084Q24.7852-1.97266 23.7842-0.610352Q22.7832 0.751953 21.4209 1.74805Q20.0586 2.74414 18.4229 3.2959Q16.7871 3.84766 14.9707 3.84766ZM9.19922-7.05078Q9.19922-6.66992 9.45801-6.4209Q9.7168-6.17188 10.1172-6.17188L14.0625-6.17188L14.0625-2.2168Q14.0625-1.81641 14.3115-1.55762Q14.5605-1.29883 14.9512-1.29883Q15.3516-1.29883 15.6104-1.55273Q15.8691-1.80664 15.8691-2.2168L15.8691-6.17188L19.8242-6.17188Q20.2246-6.17188 20.4785-6.4209Q20.7324-6.66992 20.7324-7.05078Q20.7324-7.46094 20.4785-7.71484Q20.2246-7.96875 19.8242-7.96875L15.8691-7.96875L15.8691-11.9141Q15.8691-12.3242 15.6104-12.583Q15.3516-12.8418 14.9512-12.8418Q14.5605-12.8418 14.3115-12.583Q14.0625-12.3242 14.0625-11.9141L14.0625-7.96875L10.1172-7.96875Q9.70703-7.96875 9.45312-7.71484Q9.19922-7.46094 9.19922-7.05078Z"/>
  </g>
  <text style="stroke:none;fill:black;font-family:sans-serif;font-size:13;font-weight:bold;" transform="matrix(1 0 0 1 263 1953)">Design Variations</text>
  <text style="stroke:none;fill:black;font-family:sans-serif;font-size:13;" transform="matrix(1 0 0 1 263 1971)">Symbols are supported in up to nine weights and three scales.</text>
  <text style="stroke:none;fill:black;font-family:sans-serif;font-size:13;" transform="matrix(1 0 0 1 263 1989)">For optimal layout with text and other symbols, vertically align</text>
  <text style="stroke:none;fill:black;font-family:sans-serif;font-size:13;" transform="matrix(1 0 0 1 263 2007)">symbols with the adjacent text.</text>
  <line style="fill:none;stroke:#00AEEF;stroke-width:0.5;opacity:1.0;" x1="776" x2="776" y1="1919" y2="1933"/>
  <g transform="matrix(1 0 0 1 776 1933)">
   <path d="M3.31055 0.15625Q3.70117 0.15625 3.91602-0.00976562Q4.13086-0.175781 4.26758-0.585938L5.52734-4.0332L11.2891-4.0332L12.5488-0.585938Q12.6855-0.175781 12.9004-0.00976562Q13.1152 0.15625 13.4961 0.15625Q13.8867 0.15625 14.1162-0.0585938Q14.3457-0.273438 14.3457-0.644531Q14.3457-0.869141 14.2383-1.17188L9.6582-13.3691Q9.48242-13.8184 9.17969-14.043Q8.87695-14.2676 8.4082-14.2676Q7.5-14.2676 7.17773-13.3789L2.59766-1.16211Q2.49023-0.859375 2.49023-0.634766Q2.49023-0.263672 2.70996-0.0537109Q2.92969 0.15625 3.31055 0.15625ZM6.00586-5.51758L8.37891-12.0898L8.42773-12.0898L10.8008-5.51758Z"/>
  </g>
  <line style="fill:none;stroke:#00AEEF;stroke-width:0.5;opacity:1.0;" x1="793.197" x2="793.197" y1="1919" y2="1933"/>
  <text style="stroke:none;fill:black;font-family:sans-serif;font-size:13;font-weight:bold;" transform="matrix(1 0 0 1 776 1953)">Margins</text>
  <text style="stroke:none;fill:black;font-family:sans-serif;font-size:13;" transform="matrix(1 0 0 1 776 1971)">Leading and trailing margins on the left and right side of each symbol</text>
  <text style="stroke:none;fill:black;font-family:sans-serif;font-size:13;" transform="matrix(1 0 0 1 776 1989)">can be adjusted by modifying the x-location of the margin guidelines.</text>
  <text style="stroke:none;fill:black;font-family:sans-serif;font-size:13;" transform="matrix(1 0 0 1 776 2007)">Modifications are automatically applied proportionally to all</text>
  <text style="stroke:none;fill:black;font-family:sans-serif;font-size:13;" transform="matrix(1 0 0 1 776 2025)">scales and weights.</text>
  <g transform="matrix(1 0 0 1 1289 1933)">
   <path d="M2.8418 1.86523L4.54102 3.57422Q5.18555 4.22852 5.90332 4.17969Q6.62109 4.13086 7.31445 3.35938L18.0078-8.42773L17.041-9.4043L6.42578 2.27539Q6.16211 2.57812 5.89355 2.61719Q5.625 2.65625 5.27344 2.30469L4.10156 1.14258Q3.75 0.791016 3.79395 0.522461Q3.83789 0.253906 4.14062-0.0195312L15.6152-10.8203L14.6387-11.7871L3.04688-0.898438Q2.30469-0.214844 2.25098 0.498047Q2.19727 1.21094 2.8418 1.86523ZM9.25781-16.3281Q8.94531-16.0254 8.90625-15.6348Q8.86719-15.2441 9.04297-14.9512Q9.21875-14.6777 9.55566-14.541Q9.89258-14.4043 10.3809-14.5215Q11.4746-14.7754 12.5977-14.7314Q13.7207-14.6875 14.7949-13.9844L14.209-12.5293Q13.9551-11.9043 14.0674-11.4404Q14.1797-10.9766 14.5801-10.5664L16.875-8.25195Q17.2363-7.88086 17.5781-7.82227Q17.9199-7.76367 18.3398-7.8418L19.4043-8.03711L20.0684-7.36328L20.0293-6.80664Q20-6.43555 20.1221-6.12305Q20.2441-5.81055 20.6055-5.44922L21.3672-4.70703Q21.7285-4.3457 22.1533-4.33105Q22.5781-4.31641 22.9297-4.66797L25.8398-7.58789Q26.1914-7.93945 26.1816-8.35449Q26.1719-8.76953 25.8105-9.13086L25.0391-9.89258Q24.6875-10.2539 24.3799-10.3857Q24.0723-10.5176 23.7109-10.4883L23.1348-10.4395L22.4902-11.0742L22.7344-12.1973Q22.832-12.6172 22.6953-12.9834Q22.5586-13.3496 22.1191-13.7891L19.9219-15.9766Q18.6719-17.2168 17.2607-17.8369Q15.8496-18.457 14.4189-18.4814Q12.9883-18.5059 11.665-17.959Q10.3418-17.4121 9.25781-16.3281ZM10.752-15.957Q11.6602-16.6211 12.7002-16.9043Q13.7402-17.1875 14.8047-17.085Q15.8691-16.9824 16.8701-16.5137Q17.8711-16.0449 18.7012-15.2051L21.1328-12.793Q21.3086-12.6172 21.3525-12.4512Q21.3965-12.2852 21.3379-12.0312L21.0156-10.5469L22.5195-9.0625L23.5059-9.12109Q23.6914-9.13086 23.7891-9.09668Q23.8867-9.0625 24.0332-8.91602L24.6094-8.33984L22.168-5.89844L21.5918-6.47461Q21.4453-6.62109 21.4062-6.71875Q21.3672-6.81641 21.377-7.01172L21.4453-7.98828L19.9512-9.47266L18.4277-9.21875Q18.1836-9.16992 18.042-9.2041Q17.9004-9.23828 17.7148-9.41406L15.7129-11.416Q15.5176-11.5918 15.4932-11.7529Q15.4688-11.9141 15.5859-12.1875L16.4648-14.2773Q15.293-15.3711 13.8281-15.791Q12.3633-16.2109 10.8398-15.7617Q10.7227-15.7324 10.6885-15.8057Q10.6543-15.8789 10.752-15.957Z"/>
  </g>
  <text style="stroke:none;fill:black;font-family:sans-serif;font-size:13;font-weight:bold;" transform="matrix(1 0 0 1 1289 1953)">Exporting</text>
  <text style="stroke:none;fill:black;font-family:sans-serif;font-size:13;" transform="matrix(1 0 0 1 1289 1971)">Symbols should be outlined when exporting to ensure the</text>
  <text style="stroke:none;fill:black;font-family:sans-serif;font-size:13;" transform="matrix(1 0 0 1 1289 1989)">design is preserved when submitting to Xcode.</text>
  <text id="template-version" style="stroke:none;fill:black;font-family:sans-serif;font-size:13;text-anchor:end;" transform="matrix(1 0 0 1 3036 1933)">Template v.3.0</text>
  <text style="stroke:none;fill:black;font-family:sans-serif;font-size:13;text-anchor:end;" transform="matrix(1 0 0 1 3036 1951)">Requires Xcode 13 or greater</text>
  <text id="descriptive-name" style="stroke:none;fill:black;font-family:sans-serif;font-size:13;text-anchor:end;" transform="matrix(1 0 0 1 3036 1969)">Generated from questionmark.circle</text>
  <text style="stroke:none;fill:black;font-family:sans-serif;font-size:13;text-anchor:end;" transform="matrix(1 0 0 1 3036 1987)">Typeset at 100 points</text>
  <text style="stroke:none;fill:black;font-family:sans-serif;font-size:13;" transform="matrix(1 0 0 1 263 726)">Small</text>
  <text style="stroke:none;fill:black;font-family:sans-serif;font-size:13;" transform="matrix(1 0 0 1 263 1156)">Medium</text>
  <text style="stroke:none;fill:black;font-family:sans-serif;font-size:13;" transform="matrix(1 0 0 1 263 1586)">Large</text>
 </g>
 <g id="Guides">
  <g id="H-reference" style="fill:#27AAE1;stroke:none;" transform="matrix(1 0 0 1 339 696)">
   <path d="M0.976562 0L3.66211 0L29.3457-67.1387L30.0293-67.1387L30.0293-70.459L28.125-70.459ZM11.6699-24.4629L46.9727-24.4629L46.2402-26.709L12.4512-26.709ZM55.127 0L57.7637 0L30.6152-70.459L29.4434-70.459L29.4434-67.1387Z"/>
  </g>
  <line id="Baseline-S" style="fill:none;stroke:#27AAE1;opacity:1;stroke-width:0.5;" x1="263" x2="3036" y1="696" y2="696"/>
  <line id="Capline-S" style="fill:none;stroke:#27AAE1;opacity:1;stroke-width:0.5;" x1="263" x2="3036" y1="625.541" y2="625.541"/>
  <g id="H-reference" style="fill:#27AAE1;stroke:none;" transform="matrix(1 0 0 1 339 1126)">
   <path d="M0.976562 0L3.66211 0L29.3457-67.1387L30.0293-67.1387L30.0293-70.459L28.125-70.459ZM11.6699-24.4629L46.9727-24.4629L46.2402-26.709L12.4512-26.709ZM55.127 0L57.7637 0L30.6152-70.459L29.4434-70.459L29.4434-67.1387Z"/>
  </g>
  <line id="Baseline-M" style="fill:none;stroke:#27AAE1;opacity:1;stroke-width:0.5;" x1="263" x2="3036" y1="1126" y2="1126"/>
  <line id="Capline-M" style="fill:none;stroke:#27AAE1;opacity:1;stroke-width:0.5;" x1="263" x2="3036" y1="1055.54" y2="1055.54"/>
  <g id="H-reference" style="fill:#27AAE1;stroke:none;" transform="matrix(1 0 0 1 339 1556)">
   <path d="M0.976562 0L3.66211 0L29.3457-67.1387L30.0293-67.1387L30.0293-70.459L28.125-70.459ZM11.6699-24.4629L46.9727-24.4629L46.2402-26.709L12.4512-26.709ZM55.127 0L57.7637 0L30.6152-70.459L29.4434-70.459L29.4434-67.1387Z"/>
  </g>
  <line id="Baseline-L" style="fill:none;stroke:#27AAE1;opacity:1;stroke-width:0.5;" x1="263" x2="3036" y1="1556" y2="1556"/>
  <line id="Capline-L" style="fill:none;stroke:#27AAE1;opacity:1;stroke-width:0.5;" x1="263" x2="3036" y1="1485.54" y2="1485.54"/>
  <line id="left-margin-Ultralight-S" style="fill:none;stroke:#00AEEF;stroke-width:0.5;opacity:1.0;" x1="515.644" x2="515.644" y1="600.785" y2="720.121"/>
  <line id="right-margin-Ultralight-S" style="fill:none;stroke:#00AEEF;stroke-width:0.5;opacity:1.0;" x1="603.778" x2="603.778" y1="600.785" y2="720.121"/>
  <line id="left-margin-Thin-S" style="fill:none;stroke:#00AEEF;stroke-width:0.5;opacity:1.0;" x1="811.867" x2="811.867" y1="600.785" y2="720.121"/>
  <line id="right-margin-Thin-S" style="fill:none;stroke:#00AEEF;stroke-width:0.5;opacity:1.0;" x1="900.978" x2="900.978" y1="600.785" y2="720.121"/>
  <line id="left-margin-Light-S" style="fill:none;stroke:#00AEEF;stroke-width:0.5;opacity:1.0;" x1="1107.6" x2="1107.6" y1="600.785" y2="720.121"/>
  <line id="right-margin-Light-S" style="fill:none;stroke:#00AEEF;stroke-width:0.5;opacity:1.0;" x1="1198.67" x2="1198.67" y1="600.785" y2="720.121"/>
  <line id="left-margin-Regular-S" style="fill:none;stroke:#00AEEF;stroke-width:0.5;opacity:1.0;" x1="1403.58" x2="1403.58" y1="600.785" y2="720.121"/>
  <line id="right-margin-Regular-S" style="fill:none;stroke:#00AEEF;stroke-width:0.5;opacity:1.0;" x1="1496.11" x2="1496.11" y1="600.785" y2="720.121"/>
  <line id="left-margin-Medium-S" style="fill:none;stroke:#00AEEF;stroke-width:0.5;opacity:1.0;" x1="1699.83" x2="1699.83" y1="600.785" y2="720.121"/>
  <line id="right-margin-Medium-S" style="fill:none;stroke:#00AEEF;stroke-width:0.5;opacity:1.0;" x1="1793.28" x2="1793.28" y1="600.785" y2="720.121"/>
  <line id="left-margin-Semibold-S" style="fill:none;stroke:#00AEEF;stroke-width:0.5;opacity:1.0;" x1="1996.2" x2="1996.2" y1="600.785" y2="720.121"/>
  <line id="right-margin-Semibold-S" style="fill:none;stroke:#00AEEF;stroke-width:0.5;opacity:1.0;" x1="2090.34" x2="2090.34" y1="600.785" y2="720.121"/>
  <line id="left-margin-Bold-S" style="fill:none;stroke:#00AEEF;stroke-width:0.5;opacity:1.0;" x1="2292.42" x2="2292.42" y1="600.785" y2="720.121"/>
  <line id="right-margin-Bold-S" style="fill:none;stroke:#00AEEF;stroke-width:0.5;opacity:1.0;" x1="2387.54" x2="2387.54" y1="600.785" y2="720.121"/>
  <line id="left-margin-Heavy-S" style="fill:none;stroke:#00AEEF;stroke-width:0.5;opacity:1.0;" x1="2588.47" x2="2588.47" y1="600.785" y2="720.121"/>
  <line id="right-margin-Heavy-S" style="fill:none;stroke:#00AEEF;stroke-width:0.5;opacity:1.0;" x1="2684.91" x2="2684.91" y1="600.785" y2="720.121"/>
  <line id="left-margin-Black-S" style="fill:none;stroke:#00AEEF;stroke-width:0.5;opacity:1.0;" x1="2884.57" x2="2884.57" y1="600.785" y2="720.121"/>
  <line id="right-margin-Black-S" style="fill:none;stroke:#00AEEF;stroke-width:0.5;opacity:1.0;" x1="2982.23" x2="2982.23" y1="600.785" y2="720.121"/>
  <line id="left-margin-Ultralight-M" style="fill:none;stroke:#00AEEF;stroke-width:0.5;opacity:1.0;" x1="503.632" x2="503.632" y1="1030.79" y2="1150.12"/>
  <line id="right-margin-Ultralight-M" style="fill:none;stroke:#00AEEF;stroke-width:0.5;opacity:1.0;" x1="615.79" x2="615.79" y1="1030.79" y2="1150.12"/>
  <line id="left-margin-Thin-M" style="fill:none;stroke:#00AEEF;stroke-width:0.5;opacity:1.0;" x1="799.782" x2="799.782" y1="1030.79" y2="1150.12"/>
  <line id="right-margin-Thin-M" style="fill:none;stroke:#00AEEF;stroke-width:0.5;opacity:1.0;" x1="913.063" x2="913.063" y1="1030.79" y2="1150.12"/>
  <line id="left-margin-Light-M" style="fill:none;stroke:#00AEEF;stroke-width:0.5;opacity:1.0;" x1="1095.42" x2="1095.42" y1="1030.79" y2="1150.12"/>
  <line id="right-margin-Light-M" style="fill:none;stroke:#00AEEF;stroke-width:0.5;opacity:1.0;" x1="1210.85" x2="1210.85" y1="1030.79" y2="1150.12"/>
  <line id="left-margin-Regular-M" style="fill:none;stroke:#00AEEF;stroke-width:0.5;opacity:1.0;" x1="1391.3" x2="1391.3" y1="1030.79" y2="1150.12"/>
  <line id="right-margin-Regular-M" style="fill:none;stroke:#00AEEF;stroke-width:0.5;opacity:1.0;" x1="1508.39" x2="1508.39" y1="1030.79" y2="1150.12"/>
  <line id="left-margin-Medium-M" style="fill:none;stroke:#00AEEF;stroke-width:0.5;opacity:1.0;" x1="1687.38" x2="1687.38" y1="1030.79" y2="1150.12"/>
  <line id="right-margin-Medium-M" style="fill:none;stroke:#00AEEF;stroke-width:0.5;opacity:1.0;" x1="1805.74" x2="1805.74" y1="1030.79" y2="1150.12"/>
  <line id="left-margin-Semibold-M" style="fill:none;stroke:#00AEEF;stroke-width:0.5;opacity:1.0;" x1="1983.6" x2="1983.6" y1="1030.79" y2="1150.12"/>
  <line id="right-margin-Semibold-M" style="fill:none;stroke:#00AEEF;stroke-width:0.5;opacity:1.0;" x1="2102.93" x2="2102.93" y1="1030.79" y2="1150.12"/>
  <line id="left-margin-Bold-M" style="fill:none;stroke:#00AEEF;stroke-width:0.5;opacity:1.0;" x1="2279.65" x2="2279.65" y1="1030.79" y2="1150.12"/>
  <line id="right-margin-Bold-M" style="fill:none;stroke:#00AEEF;stroke-width:0.5;opacity:1.0;" x1="2400.3" x2="2400.3" y1="1030.79" y2="1150.12"/>
  <line id="left-margin-Heavy-M" style="fill:none;stroke:#00AEEF;stroke-width:0.5;opacity:1.0;" x1="2575.43" x2="2575.43" y1="1030.79" y2="1150.12"/>
  <line id="right-margin-Heavy-M" style="fill:none;stroke:#00AEEF;stroke-width:0.5;opacity:1.0;" x1="2697.94" x2="2697.94" y1="1030.79" y2="1150.12"/>
  <line id="left-margin-Black-M" style="fill:none;stroke:#00AEEF;stroke-width:0.5;opacity:1.0;" x1="2871.32" x2="2871.32" y1="1030.79" y2="1150.12"/>
  <line id="right-margin-Black-M" style="fill:none;stroke:#00AEEF;stroke-width:0.5;opacity:1.0;" x1="2995.48" x2="2995.48" y1="1030.79" y2="1150.12"/>
  <line id="left-margin-Ultralight-L" style="fill:none;stroke:#00AEEF;stroke-width:0.5;opacity:1.0;" x1="487.592" x2="487.592" y1="1460.79" y2="1580.12"/>
  <line id="right-margin-Ultralight-L" style="fill:none;stroke:#00AEEF;stroke-width:0.5;opacity:1.0;" x1="631.83" x2="631.83" y1="1460.79" y2="1580.12"/>
  <line id="left-margin-Thin-L" style="fill:none;stroke:#00AEEF;stroke-width:0.5;opacity:1.0;" x1="783.693" x2="783.693" y1="1460.79" y2="1580.12"/>
  <line id="right-margin-Thin-L" style="fill:none;stroke:#00AEEF;stroke-width:0.5;opacity:1.0;" x1="929.152" x2="929.152" y1="1460.79" y2="1580.12"/>
  <line id="left-margin-Light-L" style="fill:none;stroke:#00AEEF;stroke-width:0.5;opacity:1.0;" x1="1079.18" x2="1079.18" y1="1460.79" y2="1580.12"/>
  <line id="right-margin-Light-L" style="fill:none;stroke:#00AEEF;stroke-width:0.5;opacity:1.0;" x1="1227.08" x2="1227.08" y1="1460.79" y2="1580.12"/>
  <line id="left-margin-Regular-L" style="fill:none;stroke:#00AEEF;stroke-width:0.5;opacity:1.0;" x1="1374.97" x2="1374.97" y1="1460.79" y2="1580.12"/>
  <line id="right-margin-Regular-L" style="fill:none;stroke:#00AEEF;stroke-width:0.5;opacity:1.0;" x1="1524.72" x2="1524.72" y1="1460.79" y2="1580.12"/>
  <line id="left-margin-Medium-L" style="fill:none;stroke:#00AEEF;stroke-width:0.5;opacity:1.0;" x1="1670.87" x2="1670.87" y1="1460.79" y2="1580.12"/>
  <line id="right-margin-Medium-L" style="fill:none;stroke:#00AEEF;stroke-width:0.5;opacity:1.0;" x1="1822.24" x2="1822.24" y1="1460.79" y2="1580.12"/>
  <line id="left-margin-Semibold-L" style="fill:none;stroke:#00AEEF;stroke-width:0.5;opacity:1.0;" x1="1966.97" x2="1966.97" y1="1460.79" y2="1580.12"/>
  <line id="right-margin-Semibold-L" style="fill:none;stroke:#00AEEF;stroke-width:0.5;opacity:1.0;" x1="2119.56" x2="2119.56" y1="1460.79" y2="1580.12"/>
  <line id="left-margin-Bold-L" style="fill:none;stroke:#00AEEF;stroke-width:0.5;opacity:1.0;" x1="2262.85" x2="2262.85" y1="1460.79" y2="1580.12"/>
  <line id="right-margin-Bold-L" style="fill:none;stroke:#00AEEF;stroke-width:0.5;opacity:1.0;" x1="2417.1" x2="2417.1" y1="1460.79" y2="1580.12"/>
  <line id="left-margin-Heavy-L" style="fill:none;stroke:#00AEEF;stroke-width:0.5;opacity:1.0;" x1="2558.39" x2="2558.39" y1="1460.79" y2="1580.12"/>
  <line id="right-margin-Heavy-L" style="fill:none;stroke:#00AEEF;stroke-width:0.5;opacity:1.0;" x1="2714.98" x2="2714.98" y1="1460.79" y2="1580.12"/>
  <line id="left-margin-Black-L" style="fill:none;stroke:#00AEEF;stroke-width:0.5;opacity:1.0;" x1="2854.05" x2="2854.05" y1="1460.79" y2="1580.12"/>
  <line id="right-margin-Black-L" style="fill:none;stroke:#00AEEF;stroke-width:0.5;opacity:1.0;" x1="3012.75" x2="3012.75" y1="1460.79" y2="1580.12"/>
 </g>
 <g id="Symbols">
  <g id="Black-L" transform="matrix(1 0 0 1 2854.05 1556)">
   <path class="multicolor-0:systemOrangeColor hierarchical-0:secondary SFSymbolsPreviewFF9500" d="M79.3457 32.8613Q90.5762 32.8613 100.757 29.3945Q110.938 25.9277 119.458 19.6777Q127.979 13.4277 134.229 4.90723Q140.479-3.61328 143.945-13.7939Q147.412-23.9746 147.412-35.2051Q147.412-46.4355 143.945-56.6162Q140.479-66.7969 134.204-75.3174Q127.93-83.8379 119.434-90.1123Q110.938-96.3867 100.732-99.8291Q90.5273-103.271 79.2969-103.271Q68.1152-103.271 57.9102-99.8291Q47.7051-96.3867 39.209-90.1123Q30.7129-83.8379 24.4385-75.3174Q18.1641-66.7969 14.7217-56.6162Q11.2793-46.4355 11.2793-35.2051Q11.2793-23.9746 14.7217-13.7939Q18.1641-3.61328 24.4385 4.90723Q30.7129 13.4277 39.2334 19.6777Q47.7539 25.9277 57.9346 29.3945Q68.1152 32.8613 79.3457 32.8613ZM79.3457 12.4023Q71.4355 12.4023 64.2822 10.0098Q57.1289 7.61719 51.1963 3.24707Q45.2637-1.12305 40.8936-7.08008Q36.5234-13.0371 34.1309-20.166Q31.7383-27.2949 31.7383-35.2051Q31.7383-43.1152 34.1309-50.2686Q36.5234-57.4219 40.8936-63.3545Q45.2637-69.2871 51.1963-73.6572Q57.1289-78.0273 64.2578-80.4199Q71.3867-82.8125 79.2969-82.8125Q87.207-82.8125 94.3604-80.4199Q101.514-78.0273 107.471-73.6572Q113.428-69.2871 117.798-63.3545Q122.168-57.4219 124.561-50.2686Q126.953-43.1152 126.953-35.2051Q126.953-27.2949 124.561-20.166Q122.168-13.0371 117.798-7.08008Q113.428-1.12305 107.495 3.24707Q101.562 7.61719 94.4092 10.0098Q87.2559 12.4023 79.3457 12.4023Z"/>
   <path class="multicolor-0:systemOrangeColor hierarchical-1:primary SFSymbolsPreviewFF9500" d="M77.5391-24.2188Q80.957-24.2188 83.252-25.6836Q85.5469-27.1484 86.084-29.3457Q86.1328-29.4922 86.1572-29.6875Q86.1816-29.8828 86.2305-29.9805Q86.8164-31.7383 88.6963-33.252Q90.5762-34.7656 92.8711-36.1816Q97.8516-39.2578 100.146-42.3584Q102.441-45.459 102.441-50.4395Q102.441-55.8105 99.4141-59.8145Q96.3867-63.8184 91.2109-66.0645Q86.0352-68.3105 79.6387-68.3105Q74.2676-68.3105 69.8975-66.9922Q65.5273-65.6738 62.4756-63.3301Q59.4238-60.9863 58.0566-57.9102Q57.6172-56.9336 57.3975-55.9814Q57.1777-55.0293 57.1777-53.9551Q57.1777-51.0742 59.1797-49.0234Q61.1816-46.9727 64.3555-46.9727Q66.5039-46.9727 68.1885-47.7051Q69.873-48.4375 71.0938-50L71.6797-50.6836Q72.6562-51.9531 73.6328-52.6367Q74.6094-53.3203 75.6104-53.5889Q76.6113-53.8574 77.6855-53.8574Q79.834-53.8574 81.3477-52.5146Q82.8613-51.1719 82.8613-49.3652Q82.8613-47.0703 80.9326-45.5566Q79.0039-44.043 75.4883-41.6016Q72.2168-39.3555 70.2148-37.0117Q68.2129-34.668 68.2129-31.4941Q68.2129-31.4453 68.2129-31.3965Q68.2129-31.3477 68.2129-31.2988Q68.2129-24.2188 77.5391-24.2188ZM77.5391-3.07617Q81.5918-3.07617 84.2773-5.29785Q86.9629-7.51953 86.9629-11.377Q86.9629-15.1855 84.3018-17.4316Q81.6406-19.6777 77.5391-19.6777Q73.4375-19.6777 70.7275-17.4561Q68.0176-15.2344 68.0176-11.377Q68.0176-7.51953 70.752-5.29785Q73.4863-3.07617 77.5391-3.07617Z"/>
  </g>
  <g id="Heavy-L" transform="matrix(1 0 0 1 2558.39 1556)">
   <path class="multicolor-0:systemOrangeColor hierarchical-0:secondary SFSymbolsPreviewFF9500" d="M78.2715 31.7871Q89.3555 31.7871 99.3652 28.3691Q109.375 24.9512 117.749 18.7988Q126.123 12.6465 132.3 4.24805Q138.477-4.15039 141.895-14.1602Q145.312-24.1699 145.312-35.2051Q145.312-46.2402 141.895-56.2744Q138.477-66.3086 132.3-74.6826Q126.123-83.0566 117.749-89.2578Q109.375-95.459 99.3408-98.8525Q89.3066-102.246 78.2227-102.246Q67.2363-102.246 57.2021-98.8525Q47.168-95.459 38.7939-89.2578Q30.4199-83.0566 24.2432-74.6826Q18.0664-66.3086 14.6729-56.2744Q11.2793-46.2402 11.2793-35.2051Q11.2793-24.1699 14.6729-14.1602Q18.0664-4.15039 24.2432 4.24805Q30.4199 12.6465 38.8184 18.7988Q47.2168 24.9512 57.2266 28.3691Q67.2363 31.7871 78.2715 31.7871ZM78.2715 14.0137Q70.1172 14.0137 62.7197 11.5479Q55.3223 9.08203 49.1943 4.56543Q43.0664 0.0488281 38.5498-6.12793Q34.0332-12.3047 31.543-19.6777Q29.0527-27.0508 29.0527-35.2051Q29.0527-43.4082 31.543-50.8057Q34.0332-58.2031 38.5254-64.3311Q43.0176-70.459 49.1699-74.9756Q55.3223-79.4922 62.6953-81.9824Q70.0684-84.4727 78.2227-84.4727Q86.4258-84.4727 93.8232-81.9824Q101.221-79.4922 107.373-74.9756Q113.525-70.459 118.042-64.3311Q122.559-58.2031 125.049-50.8057Q127.539-43.4082 127.539-35.2051Q127.539-27.0508 125.049-19.6777Q122.559-12.3047 118.042-6.12793Q113.525 0.0488281 107.397 4.56543Q101.27 9.08203 93.8721 11.5479Q86.4746 14.0137 78.2715 14.0137Z"/>
   <path class="multicolor-0:systemOrangeColor hierarchical-1:primary SFSymbolsPreviewFF9500" d="M76.6113-23.7793Q79.6875-23.7793 81.7139-25.1709Q83.7402-26.5625 84.1797-28.6133Q84.1797-28.8086 84.2041-29.0283Q84.2285-29.248 84.2773-29.3457Q84.7168-31.3477 86.5234-32.959Q88.3301-34.5703 90.918-36.2305Q95.8008-39.3066 98.1934-42.4316Q100.586-45.5566 100.586-50.6348Q100.586-55.9082 97.6562-59.7656Q94.7266-63.623 89.7461-65.7715Q84.7656-67.9199 78.6621-67.9199Q73.291-67.9199 69.0186-66.5527Q64.7461-65.1855 61.8164-62.793Q58.8867-60.4004 57.666-57.3242Q57.2754-56.3965 57.0801-55.5176Q56.8848-54.6387 56.8848-53.6133Q56.8848-50.9766 58.6914-49.1699Q60.498-47.3633 63.2812-47.3633Q65.2344-47.3633 66.748-48.0957Q68.2617-48.8281 69.3359-50.2441L70.0195-51.0742Q70.9473-52.5391 72.0703-53.4424Q73.1934-54.3457 74.4385-54.7363Q75.6836-55.127 77.0508-55.127Q79.834-55.127 81.6406-53.5645Q83.4473-52.002 83.4473-49.707Q83.4473-47.2168 81.4941-45.5322Q79.541-43.8477 75.8789-41.3086Q72.5098-39.0137 70.4834-36.5479Q68.457-34.082 68.457-30.6152Q68.457-30.5176 68.457-30.4199Q68.457-30.3223 68.457-30.2246Q68.457-23.7793 76.6113-23.7793ZM76.6113-3.32031Q80.2734-3.32031 82.7637-5.41992Q85.2539-7.51953 85.2539-11.084Q85.2539-14.5508 82.7881-16.6992Q80.3223-18.8477 76.6113-18.8477Q72.8516-18.8477 70.3613-16.7236Q67.8711-14.5996 67.8711-11.084Q67.8711-7.51953 70.3857-5.41992Q72.9004-3.32031 76.6113-3.32031Z"/>
  </g>
  <g id="Bold-L" transform="matrix(1 0 0 1 2262.85 1556)">
   <path class="multicolor-0:systemOrangeColor hierarchical-0:secondary SFSymbolsPreviewFF9500" d="M77.0996 30.6152Q87.9395 30.6152 97.7783 27.2461Q107.617 23.877 115.869 17.8223Q124.121 11.7676 130.176 3.51562Q136.23-4.73633 139.6-14.5752Q142.969-24.4141 142.969-35.2539Q142.969-46.0938 139.6-55.9326Q136.23-65.7715 130.151-73.999Q124.072-82.2266 115.845-88.3057Q107.617-94.3848 97.7539-97.7295Q87.8906-101.074 77.0508-101.074Q66.2598-101.074 56.3965-97.7295Q46.5332-94.3848 38.3301-88.3057Q30.127-82.2266 24.0479-73.999Q17.9688-65.7715 14.624-55.9326Q11.2793-46.0938 11.2793-35.2539Q11.2793-24.4141 14.624-14.5752Q17.9688-4.73633 24.0479 3.51562Q30.127 11.7676 38.3545 17.8223Q46.582 23.877 56.4209 27.2461Q66.2598 30.6152 77.0996 30.6152ZM77.0996 15.8203Q68.6523 15.8203 60.9863 13.2568Q53.3203 10.6934 46.9482 6.00586Q40.5762 1.31836 35.8887-5.07812Q31.2012-11.4746 28.6377-19.1162Q26.0742-26.7578 26.0742-35.2539Q26.0742-43.75 28.6377-51.416Q31.2012-59.082 35.8887-65.4541Q40.5762-71.8262 46.9238-76.4893Q53.2715-81.1523 60.9375-83.7158Q68.6035-86.2793 77.0508-86.2793Q85.5469-86.2793 93.2129-83.7158Q100.879-81.1523 107.275-76.4893Q113.672-71.8262 118.335-65.4541Q122.998-59.082 125.586-51.416Q128.174-43.75 128.174-35.2539Q128.174-26.7578 125.61-19.1162Q123.047-11.4746 118.359-5.07812Q113.672 1.31836 107.3 6.00586Q100.928 10.6934 93.2617 13.2568Q85.5957 15.8203 77.0996 15.8203Z"/>
   <path class="multicolor-0:systemOrangeColor hierarchical-1:primary SFSymbolsPreviewFF9500" d="M75.5859-23.291Q78.3203-23.291 80.0537-24.585Q81.7871-25.8789 82.0312-27.832Q82.0801-28.0273 82.0801-28.2715Q82.0801-28.5156 82.1289-28.6621Q82.4219-30.9082 84.1309-32.666Q85.8398-34.4238 88.7207-36.2793Q93.5547-39.3555 96.0693-42.5293Q98.584-45.7031 98.584-50.8789Q98.584-56.0059 95.752-59.7412Q92.9199-63.4766 88.1348-65.5029Q83.3496-67.5293 77.5391-67.5293Q72.2168-67.5293 68.042-66.0889Q63.8672-64.6484 61.1084-62.1826Q58.3496-59.7168 57.2754-56.6895Q56.9336-55.8594 56.7871-55.0293Q56.6406-54.1992 56.6406-53.2715Q56.6406-50.8789 58.2275-49.3652Q59.8145-47.8516 62.0605-47.8516Q63.8672-47.8516 65.1855-48.5352Q66.5039-49.2188 67.4316-50.5371L68.2129-51.5625Q69.0918-53.2227 70.3369-54.3457Q71.582-55.4688 73.0957-56.0303Q74.6094-56.5918 76.416-56.5918Q79.834-56.5918 81.958-54.7363Q84.082-52.8809 84.082-50.0977Q84.082-47.3633 82.1289-45.5322Q80.1758-43.7012 76.3184-40.9668Q72.9004-38.623 70.8496-36.0596Q68.7988-33.4961 68.7988-29.6875Q68.7988-29.4922 68.7988-29.3213Q68.7988-29.1504 68.7988-29.0039Q68.7988-23.291 75.5859-23.291ZM75.5371-3.56445Q78.8086-3.56445 81.0791-5.56641Q83.3496-7.56836 83.3496-10.7422Q83.3496-13.916 81.1035-15.8936Q78.8574-17.8711 75.5371-17.8711Q72.2168-17.8711 69.9463-15.8936Q67.6758-13.916 67.6758-10.7422Q67.6758-7.56836 69.9707-5.56641Q72.2656-3.56445 75.5371-3.56445Z"/>
  </g>
  <g id="Semibold-L" transform="matrix(1 0 0 1 1966.97 1556)">
   <path class="multicolor-0:systemOrangeColor hierarchical-0:secondary SFSymbolsPreviewFF9500" d="M76.2695 29.7852Q86.9629 29.7852 96.6797 26.4648Q106.396 23.1445 114.551 17.1631Q122.705 11.1816 128.687 3.02734Q134.668-5.12695 137.988-14.8438Q141.309-24.5605 141.309-35.2539Q141.309-45.9473 137.988-55.6641Q134.668-65.3809 128.662-73.5107Q122.656-81.6406 114.526-87.6465Q106.396-93.6523 96.6553-96.9727Q86.9141-100.293 76.2207-100.293Q65.5273-100.293 55.8105-96.9727Q46.0938-93.6523 37.9883-87.6465Q29.8828-81.6406 23.877-73.5107Q17.8711-65.3809 14.5752-55.6641Q11.2793-45.9473 11.2793-35.2539Q11.2793-24.5605 14.5996-14.8438Q17.9199-5.12695 23.9014 3.02734Q29.8828 11.1816 38.0127 17.1631Q46.1426 23.1445 55.8594 26.4648Q65.5762 29.7852 76.2695 29.7852ZM76.2695 17.041Q67.627 17.041 59.7656 14.4043Q51.9043 11.7676 45.3857 6.98242Q38.8672 2.19727 34.0576-4.3457Q29.248-10.8887 26.6357-18.7256Q24.0234-26.5625 24.0234-35.2539Q24.0234-43.9453 26.6357-51.8066Q29.248-59.668 34.0332-66.1865Q38.8184-72.7051 45.3369-77.4902Q51.8555-82.2754 59.7168-84.9121Q67.5781-87.5488 76.2207-87.5488Q84.9609-87.5488 92.7979-84.9121Q100.635-82.2754 107.178-77.4902Q113.721-72.7051 118.506-66.1865Q123.291-59.668 125.928-51.8066Q128.564-43.9453 128.564-35.2539Q128.613-26.5625 126.001-18.7256Q123.389-10.8887 118.579-4.3457Q113.77 2.19727 107.227 6.98242Q100.684 11.7676 92.8467 14.4043Q85.0098 17.041 76.2695 17.041Z"/>
   <path class="multicolor-0:systemOrangeColor hierarchical-1:primary SFSymbolsPreviewFF9500" d="M74.8535-22.9492Q77.3438-22.9492 78.8574-24.1943Q80.3711-25.4395 80.5176-27.2461Q80.5664-27.4414 80.5664-27.71Q80.5664-27.9785 80.5664-28.1738Q80.7617-30.6152 82.4219-32.4463Q84.082-34.2773 87.1582-36.2793Q91.9434-39.3555 94.5312-42.5781Q97.1191-45.8008 97.1191-51.0254Q97.1191-56.0547 94.3604-59.6924Q91.6016-63.3301 86.9629-65.2588Q82.3242-67.1875 76.7578-67.1875Q71.4355-67.1875 67.334-65.7227Q63.2324-64.2578 60.5713-61.7676Q57.9102-59.2773 56.9824-56.25Q56.6406-55.4199 56.5186-54.6387Q56.3965-53.8574 56.3965-52.9785Q56.3965-50.8301 57.8369-49.5117Q59.2773-48.1934 61.1816-48.1934Q62.8906-48.1934 64.0625-48.8525Q65.2344-49.5117 66.0645-50.7324L66.8945-51.8555Q67.7734-53.6621 69.1162-54.9316Q70.459-56.2012 72.168-56.8848Q73.877-57.5684 75.8789-57.5684Q79.7852-57.5684 82.1533-55.542Q84.5215-53.5156 84.5215-50.3418Q84.5215-47.4609 82.5439-45.5078Q80.5664-43.5547 76.5625-40.7227Q73.1445-38.3789 71.0449-35.7178Q68.9453-33.0566 68.9453-29.0039Q68.9453-28.7598 68.9453-28.5645Q68.9453-28.3691 68.9453-28.125Q68.9453-22.9492 74.8535-22.9492ZM74.8047-3.75977Q77.7832-3.75977 79.9072-5.66406Q82.0312-7.56836 82.0312-10.498Q82.0312-13.4277 79.9316-15.332Q77.832-17.2363 74.8047-17.2363Q71.7285-17.2363 69.6289-15.3076Q67.5293-13.3789 67.5293-10.498Q67.5293-7.56836 69.6533-5.66406Q71.7773-3.75977 74.8047-3.75977Z"/>
  </g>
  <g id="Medium-L" transform="matrix(1 0 0 1 1670.87 1556)">
   <path class="multicolor-0:systemOrangeColor hierarchical-0:secondary SFSymbolsPreviewFF9500" d="M75.6836 29.1504Q86.2305 29.1504 95.8496 25.8545Q105.469 22.5586 113.55 16.626Q121.631 10.6934 127.563 2.63672Q133.496-5.41992 136.792-15.0635Q140.088-24.707 140.088-35.2539Q140.088-45.8496 136.792-55.4688Q133.496-65.0879 127.539-73.1445Q121.582-81.2012 113.525-87.1582Q105.469-93.1152 95.8252-96.3867Q86.1816-99.6582 75.6348-99.6582Q65.0391-99.6582 55.4199-96.3867Q45.8008-93.1152 37.7441-87.1582Q29.6875-81.2012 23.7549-73.1445Q17.8223-65.0879 14.5508-55.4688Q11.2793-45.8496 11.2793-35.2539Q11.2793-24.707 14.5508-15.0635Q17.8223-5.41992 23.7549 2.63672Q29.6875 10.6934 37.7686 16.626Q45.8496 22.5586 55.4688 25.8545Q65.0879 29.1504 75.6836 29.1504ZM75.6836 18.0176Q66.8457 18.0176 58.8379 15.332Q50.8301 12.6465 44.2139 7.76367Q37.5977 2.88086 32.6904-3.78418Q27.7832-10.4492 25.1221-18.4326Q22.4609-26.416 22.4609-35.2539Q22.4609-44.1406 25.1221-52.124Q27.7832-60.1074 32.666-66.748Q37.5488-73.3887 44.165-78.2715Q50.7812-83.1543 58.7891-85.8154Q66.7969-88.4766 75.6348-88.4766Q84.4727-88.4766 92.4805-85.8154Q100.488-83.1543 107.129-78.2715Q113.77-73.3887 118.652-66.748Q123.535-60.1074 126.221-52.124Q128.906-44.1406 128.906-35.2539Q128.955-26.416 126.294-18.4326Q123.633-10.4492 118.726-3.78418Q113.818 2.88086 107.178 7.76367Q100.537 12.6465 92.5293 15.332Q84.5215 18.0176 75.6836 18.0176Z"/>
   <path class="multicolor-0:systemOrangeColor hierarchical-1:primary SFSymbolsPreviewFF9500" d="M74.3164-22.7051Q76.6113-22.7051 77.9541-23.877Q79.2969-25.0488 79.3945-26.8066Q79.4434-27.0508 79.4434-27.3193Q79.4434-27.5879 79.4434-27.832Q79.541-30.3711 81.1523-32.2754Q82.7637-34.1797 85.9863-36.2793Q90.7227-39.3555 93.3838-42.6025Q96.0449-45.8496 96.0449-51.123Q96.0449-56.1035 93.335-59.668Q90.625-63.2324 86.1084-65.1123Q81.5918-66.9922 76.1719-66.9922Q70.8984-66.9922 66.8457-65.4785Q62.793-63.9648 60.2051-61.4258Q57.6172-58.8867 56.7383-55.9082Q56.4941-55.127 56.3721-54.3701Q56.25-53.6133 56.25-52.7832Q56.25-50.7324 57.5684-49.585Q58.8867-48.4375 60.5469-48.4375Q62.1582-48.4375 63.2324-49.0723Q64.3066-49.707 65.0879-50.8789L65.918-52.0996Q66.7969-54.0039 68.2129-55.3955Q69.6289-56.7871 71.46-57.5684Q73.291-58.3496 75.5371-58.3496Q79.7852-58.3496 82.3242-56.1523Q84.8633-53.9551 84.8633-50.5859Q84.8633-47.5098 82.8857-45.4834Q80.9082-43.457 76.8066-40.5762Q73.3398-38.1348 71.2158-35.4248Q69.0918-32.7148 69.0918-28.4668Q69.0918-28.2227 69.0918-27.9785Q69.0918-27.7344 69.0918-27.4902Q69.0918-22.7051 74.3164-22.7051ZM74.2188-3.85742Q77.002-3.85742 79.0039-5.71289Q81.0059-7.56836 81.0059-10.3027Q81.0059-13.0859 79.0283-14.8926Q77.0508-16.6992 74.2188-16.6992Q71.4355-16.6992 69.4336-14.8682Q67.4316-13.0371 67.4316-10.3027Q67.4316-7.61719 69.4336-5.7373Q71.4355-3.85742 74.2188-3.85742Z"/>
  </g>
  <g id="Regular-L" transform="matrix(1 0 0 1 1374.97 1556)">
   <path class="multicolor-0:systemOrangeColor hierarchical-0:secondary SFSymbolsPreviewFF9500" d="M74.8535 28.3203Q85.3027 28.3203 94.7998 25.0732Q104.297 21.8262 112.256 15.9668Q120.215 10.1074 126.099 2.14844Q131.982-5.81055 135.229-15.332Q138.477-24.8535 138.477-35.2539Q138.477-45.7031 135.229-55.2002Q131.982-64.6973 126.099-72.6562Q120.215-80.6152 112.256-86.499Q104.297-92.3828 94.7754-95.6299Q85.2539-98.877 74.8047-98.877Q64.3555-98.877 54.8584-95.6299Q45.3613-92.3828 37.4268-86.499Q29.4922-80.6152 23.6084-72.6562Q17.7246-64.6973 14.502-55.2002Q11.2793-45.7031 11.2793-35.2539Q11.2793-24.8535 14.5264-15.332Q17.7734-5.81055 23.6328 2.14844Q29.4922 10.1074 37.4512 15.9668Q45.4102 21.8262 54.9072 25.0732Q64.4043 28.3203 74.8535 28.3203ZM74.8535 19.2383Q65.8203 19.2383 57.6416 16.4795Q49.4629 13.7207 42.6758 8.74023Q35.8887 3.75977 30.8838-3.05176Q25.8789-9.86328 23.1445-18.042Q20.4102-26.2207 20.4102-35.2539Q20.4102-44.3359 23.1445-52.5146Q25.8789-60.6934 30.8594-67.5049Q35.8398-74.3164 42.627-79.2969Q49.4141-84.2773 57.5928-87.0117Q65.7715-89.7461 74.8047-89.7461Q83.8867-89.7461 92.0654-87.0117Q100.244-84.2773 107.056-79.2969Q113.867-74.3164 118.848-67.5049Q123.828-60.6934 126.587-52.5146Q129.346-44.3359 129.346-35.2539Q129.395-26.2207 126.66-18.042Q123.926-9.86328 118.921-3.05176Q113.916 3.75977 107.104 8.74023Q100.293 13.7207 92.1143 16.4795Q83.9355 19.2383 74.8535 19.2383Z"/>
   <path class="multicolor-0:systemOrangeColor hierarchical-1:primary SFSymbolsPreviewFF9500" d="M73.584-22.3633Q75.6348-22.3633 76.7822-23.4863Q77.9297-24.6094 77.9297-26.2695Q77.9297-26.5137 77.9297-26.8066Q77.9297-27.0996 77.9297-27.3438Q77.9297-30.0781 79.4922-32.0557Q81.0547-34.0332 84.4727-36.3281Q89.1602-39.4043 91.8945-42.6758Q94.6289-45.9473 94.6289-51.2695Q94.6289-56.1523 91.9922-59.6191Q89.3555-63.0859 84.9854-64.8926Q80.6152-66.6992 75.3906-66.6992Q70.1172-66.6992 66.1377-65.1367Q62.1582-63.5742 59.668-61.0107Q57.1777-58.4473 56.4453-55.4688Q56.2012-54.7363 56.1035-54.0283Q56.0059-53.3203 56.0059-52.5391Q56.0059-50.6836 57.1777-49.707Q58.3496-48.7305 59.7168-48.7305Q61.1816-48.7305 62.1338-49.3652Q63.0859-50 63.7207-51.0742L64.6484-52.3926Q65.4785-54.4434 66.9922-56.0059Q68.5059-57.5684 70.5322-58.4473Q72.5586-59.3262 75.0488-59.3262Q79.7363-59.3262 82.4951-56.958Q85.2539-54.5898 85.2539-50.8301Q85.2539-47.6074 83.2764-45.459Q81.2988-43.3105 77.0508-40.332Q73.5352-37.8906 71.4111-35.083Q69.2871-32.2754 69.2871-27.832Q69.2871-27.5391 69.2871-27.2461Q69.2871-26.9531 69.2871-26.6602Q69.2871-22.3633 73.584-22.3633ZM73.4863-4.05273Q75.9766-4.05273 77.832-5.81055Q79.6875-7.56836 79.6875-10.0586Q79.6875-12.5977 77.8564-14.3311Q76.0254-16.0645 73.4863-16.0645Q70.9473-16.0645 69.1162-14.3066Q67.2852-12.5488 67.2852-10.0586Q67.2852-7.61719 69.1162-5.83496Q70.9473-4.05273 73.4863-4.05273Z"/>
  </g>
  <g id="Light-L" transform="matrix(1 0 0 1 1079.18 1556)">
   <path class="multicolor-0:systemOrangeColor hierarchical-0:secondary SFSymbolsPreviewFF9500" d="M73.9258 27.3926Q84.2285 27.3926 93.6035 24.1943Q102.979 20.9961 110.815 15.2344Q118.652 9.47266 124.438 1.63574Q130.225-6.20117 133.423-15.5762Q136.621-24.9512 136.621-35.2539Q136.621-45.5566 133.423-54.9316Q130.225-64.3066 124.438-72.1436Q118.652-79.9805 110.815-85.7666Q102.979-91.5527 93.6035-94.751Q84.2285-97.9492 73.877-97.9492Q63.5742-97.9492 54.2236-94.751Q44.873-91.5527 37.0361-85.7666Q29.1992-79.9805 23.4131-72.1436Q17.627-64.3066 14.4531-54.9316Q11.2793-45.5566 11.2793-35.2539Q11.2793-24.9512 14.4775-15.5762Q17.6758-6.20117 23.4375 1.63574Q29.1992 9.47266 37.0361 15.2344Q44.873 20.9961 54.248 24.1943Q63.623 27.3926 73.9258 27.3926ZM73.9258 20.5078Q64.6973 20.5078 56.3232 17.6758Q47.9492 14.8438 40.9912 9.74121Q34.0332 4.63867 28.9307-2.31934Q23.8281-9.27734 21.0205-17.6514Q18.2129-26.0254 18.2129-35.2539Q18.2129-44.5312 21.0205-52.8809Q23.8281-61.2305 28.9307-68.2129Q34.0332-75.1953 40.9912-80.2979Q47.9492-85.4004 56.2988-88.208Q64.6484-91.0156 73.877-91.0156Q83.1543-91.0156 91.5283-88.208Q99.9023-85.4004 106.86-80.2979Q113.818-75.1953 118.945-68.2129Q124.072-61.2305 126.88-52.8809Q129.688-44.5312 129.688-35.2539Q129.736-26.0254 126.929-17.6514Q124.121-9.27734 118.994-2.31934Q113.867 4.63867 106.909 9.74121Q99.9512 14.8438 91.5771 17.6758Q83.2031 20.5078 73.9258 20.5078Z"/>
   <path class="multicolor-0:systemOrangeColor hierarchical-1:primary SFSymbolsPreviewFF9500" d="M72.7051-22.5098Q74.2676-22.5098 75.1465-23.4131Q76.0254-24.3164 76.0254-25.6348Q76.0254-26.0254 76.0254-26.416Q76.0254-26.8066 76.0254-27.1973Q76.0254-30.0293 77.5635-32.0801Q79.1016-34.1309 82.7148-36.5723Q87.5-39.7461 89.9658-42.9688Q92.4316-46.1914 92.4316-51.123Q92.4316-55.5664 90.0146-58.8379Q87.5977-62.1094 83.4717-63.8916Q79.3457-65.6738 74.3164-65.6738Q69.2383-65.6738 65.4053-64.0381Q61.5723-62.4023 59.2529-59.7168Q56.9336-57.0312 56.2988-53.9062Q56.1523-53.2715 56.0791-52.6367Q56.0059-52.002 56.0059-51.2695Q56.0059-49.8047 56.9092-49.0234Q57.8125-48.2422 58.9355-48.2422Q60.1074-48.2422 60.8887-48.7793Q61.6699-49.3164 62.0605-50.293L62.6465-51.3672Q63.1836-53.7109 64.7461-55.6152Q66.3086-57.5195 68.6768-58.6914Q71.0449-59.8633 74.0234-59.8633Q79.1992-59.8633 82.2266-57.2998Q85.2539-54.7363 85.2539-50.7324Q85.2539-47.5098 83.3252-45.2148Q81.3965-42.9199 77.002-39.8438Q73.291-37.2559 71.3379-34.4971Q69.3848-31.7383 69.3848-27.5879Q69.3848-27.1484 69.3848-26.7334Q69.3848-26.3184 69.3848-25.8789Q69.3848-22.5098 72.7051-22.5098ZM72.6074-4.93164Q74.8047-4.93164 76.416-6.49414Q78.0273-8.05664 78.0273-10.2051Q78.0273-12.4023 76.4404-13.9404Q74.8535-15.4785 72.6074-15.4785Q70.4102-15.4785 68.8232-13.916Q67.2363-12.3535 67.2363-10.2051Q67.2363-8.10547 68.8232-6.51855Q70.4102-4.93164 72.6074-4.93164Z"/>
  </g>
  <g id="Thin-L" transform="matrix(1 0 0 1 783.693 1556)">
   <path class="multicolor-0:systemOrangeColor hierarchical-0:secondary SFSymbolsPreviewFF9500" d="M72.7051 26.1719Q82.8613 26.1719 92.041 23.0469Q101.221 19.9219 108.911 14.2822Q116.602 8.64258 122.266 0.952148Q127.93-6.73828 131.055-15.9424Q134.18-25.1465 134.18-35.2539Q134.18-45.4102 131.055-54.5898Q127.93-63.7695 122.29-71.46Q116.65-79.1504 108.936-84.8145Q101.221-90.4785 92.0166-93.6035Q82.8125-96.7285 72.7051-96.7285Q62.5488-96.7285 53.3691-93.6035Q44.1895-90.4785 36.499-84.8145Q28.8086-79.1504 23.1689-71.46Q17.5293-63.7695 14.4043-54.5898Q11.2793-45.4102 11.2793-35.2539Q11.2793-25.1465 14.4043-15.9424Q17.5293-6.73828 23.1689 0.952148Q28.8086 8.64258 36.5234 14.2822Q44.2383 19.9219 53.418 23.0469Q62.5977 26.1719 72.7051 26.1719ZM72.7051 22.168Q63.2324 22.168 54.6143 19.2627Q45.9961 16.3574 38.8184 11.084Q31.6406 5.81055 26.3428-1.36719Q21.0449-8.54492 18.1641-17.1631Q15.2832-25.7812 15.2832-35.2539Q15.2832-44.7754 18.1641-53.3936Q21.0449-62.0117 26.3428-69.1895Q31.6406-76.3672 38.8184-81.6406Q45.9961-86.9141 54.5898-89.8193Q63.1836-92.7246 72.7051-92.7246Q82.2266-92.7246 90.8203-89.8193Q99.4141-86.9141 106.616-81.6406Q113.818-76.3672 119.092-69.1895Q124.365-62.0117 127.271-53.3936Q130.176-44.7754 130.176-35.2539Q130.176-25.7812 127.271-17.1631Q124.365-8.54492 119.092-1.36719Q113.818 5.81055 106.641 11.084Q99.4629 16.3574 90.8447 19.2627Q82.2266 22.168 72.7051 22.168Z"/>
   <path class="multicolor-0:systemOrangeColor hierarchical-1:primary SFSymbolsPreviewFF9500" d="M71.6309-22.7539Q72.5098-22.7539 73.0469-23.3398Q73.584-23.9258 73.584-24.8047Q73.584-25.3418 73.584-25.8789Q73.584-26.416 73.584-26.9531Q73.584-30.0293 75.0977-32.1533Q76.6113-34.2773 80.3711-36.9141Q85.3516-40.2344 87.4512-43.3838Q89.5508-46.5332 89.5508-50.9277Q89.5508-54.7852 87.4023-57.7881Q85.2539-60.791 81.4941-62.5244Q77.7344-64.2578 72.9004-64.2578Q68.0664-64.2578 64.4531-62.5488Q60.8398-60.8398 58.7158-58.0078Q56.5918-55.1758 56.2012-51.9043Q56.1035-51.3184 56.0791-50.8057Q56.0547-50.293 56.0547-49.6094Q56.0547-48.6328 56.5918-48.0957Q57.1289-47.5586 57.959-47.5586Q58.7402-47.5586 59.3018-47.998Q59.8633-48.4375 59.9121-49.2188L60.0586-50.0488Q60.1562-52.6855 61.8164-55.1025Q63.4766-57.5195 66.2842-59.0332Q69.0918-60.5469 72.7539-60.5469Q78.5156-60.5469 81.9092-57.7637Q85.3027-54.9805 85.3027-50.6348Q85.3027-47.4121 83.4473-44.9219Q81.5918-42.4316 76.9531-39.209Q72.998-36.4258 71.2891-33.7158Q69.5801-31.0059 69.5801-27.2461Q69.5801-26.6113 69.5801-26.0498Q69.5801-25.4883 69.5801-24.8535Q69.5801-22.7539 71.6309-22.7539ZM71.5332-6.10352Q73.3398-6.10352 74.585-7.39746Q75.8301-8.69141 75.8301-10.3516Q75.8301-12.1094 74.585-13.3789Q73.3398-14.6484 71.5332-14.6484Q69.7266-14.6484 68.4814-13.3789Q67.2363-12.1094 67.2363-10.3516Q67.2363-8.69141 68.4814-7.39746Q69.7266-6.10352 71.5332-6.10352Z"/>
  </g>
  <g id="Ultralight-L" transform="matrix(1 0 0 1 487.592 1556)">
   <path class="multicolor-0:systemOrangeColor hierarchical-0:secondary SFSymbolsPreviewFF9500" d="M72.0703 25.5371Q82.1289 25.5371 91.2354 22.4609Q100.342 19.3848 107.935 13.7939Q115.527 8.20312 121.143 0.585938Q126.758-7.03125 129.858-16.1133Q132.959-25.1953 132.959-35.2539Q132.959-45.3125 129.858-54.4189Q126.758-63.5254 121.167-71.1182Q115.576-78.7109 107.959-84.3262Q100.342-89.9414 91.2354-93.0176Q82.1289-96.0938 72.0703-96.0938Q62.0605-96.0938 52.9541-93.0176Q43.8477-89.9414 36.2305-84.3262Q28.6133-78.7109 23.0225-71.1182Q17.4316-63.5254 14.3555-54.4189Q11.2793-45.3125 11.2793-35.2539Q11.2793-25.1953 14.3555-16.1133Q17.4316-7.03125 23.0225 0.585938Q28.6133 8.20312 36.2305 13.7939Q43.8477 19.3848 52.9541 22.4609Q62.0605 25.5371 72.0703 25.5371ZM72.0703 23.0469Q62.4512 23.0469 53.7109 20.0928Q44.9707 17.1387 37.6709 11.792Q30.3711 6.44531 25.0244-0.854492Q19.6777-8.1543 16.7236-16.8945Q13.7695-25.6348 13.7695-35.2539Q13.7695-44.9219 16.7236-53.6377Q19.6777-62.3535 25.0244-69.6533Q30.3711-76.9531 37.6953-82.3242Q45.0195-87.6953 53.7354-90.6494Q62.4512-93.6035 72.0703-93.6035Q81.7383-93.6035 90.4785-90.6494Q99.2188-87.6953 106.494-82.3242Q113.77-76.9531 119.141-69.6533Q124.512-62.3535 127.466-53.6377Q130.42-44.9219 130.42-35.2539Q130.371-25.6348 127.441-16.8945Q124.512-8.1543 119.141-0.854492Q113.77 6.44531 106.494 11.792Q99.2188 17.1387 90.4785 20.0928Q81.7383 23.0469 72.0703 23.0469Z"/>
   <path class="multicolor-0:systemOrangeColor hierarchical-1:primary SFSymbolsPreviewFF9500" d="M71.0449-22.8516Q71.6309-22.8516 71.9727-23.2666Q72.3145-23.6816 72.3145-24.3652Q72.3145-25 72.3145-25.5859Q72.3145-26.1719 72.3145-26.8555Q72.3145-29.9805 73.8037-32.1777Q75.293-34.375 79.1992-37.0605Q84.2285-40.4785 86.1572-43.6035Q88.0859-46.7285 88.0859-50.8301Q88.0859-54.3945 86.084-57.2754Q84.082-60.1562 80.4932-61.8652Q76.9043-63.5742 72.168-63.5742Q67.4805-63.5742 63.9648-61.792Q60.4492-60.0098 58.4473-57.1289Q56.4453-54.248 56.1035-50.8301Q56.0547-50.3418 56.0547-49.8779Q56.0547-49.4141 56.0547-48.7793Q56.0547-48.0469 56.4209-47.6318Q56.7871-47.2168 57.4219-47.2168Q58.0078-47.2168 58.4473-47.6074Q58.8867-47.998 58.7891-48.6816L58.7402-49.3652Q58.5938-52.1973 60.2783-54.834Q61.9629-57.4707 65.0146-59.2041Q68.0664-60.9375 72.0703-60.9375Q78.1738-60.9375 81.7383-58.0078Q85.3027-55.0781 85.3027-50.5859Q85.3027-47.3145 83.4961-44.751Q81.6895-42.1875 76.9531-38.8672Q72.8027-36.0352 71.2402-33.3496Q69.6777-30.6641 69.6777-27.0508Q69.6777-26.3672 69.6777-25.708Q69.6777-25.0488 69.6777-24.3164Q69.6777-22.8516 71.0449-22.8516ZM70.9473-6.68945Q72.5586-6.68945 73.6328-7.86133Q74.707-9.0332 74.707-10.4492Q74.707-11.9629 73.6328-13.1104Q72.5586-14.2578 70.9473-14.2578Q69.3848-14.2578 68.3105-13.1348Q67.2363-12.0117 67.2363-10.4492Q67.2363-9.0332 68.3105-7.86133Q69.3848-6.68945 70.9473-6.68945Z"/>
  </g>
  <g id="Black-M" transform="matrix(1 0 0 1 2871.32 1126)">
   <path class="multicolor-0:systemOrangeColor hierarchical-0:secondary SFSymbolsPreviewFF9500" d="M62.0605 18.1152Q73.0957 18.1152 82.7637 13.9648Q92.4316 9.81445 99.7559 2.46582Q107.08-4.88281 111.255-14.5264Q115.43-24.1699 115.43-35.2051Q115.43-46.2402 111.255-55.8838Q107.08-65.5273 99.7559-72.876Q92.4316-80.2246 82.7637-84.375Q73.0957-88.5254 62.0605-88.5254Q51.0742-88.5254 41.4062-84.375Q31.7383-80.2246 24.3896-72.876Q17.041-65.5273 12.8906-55.8838Q8.74023-46.2402 8.74023-35.2051Q8.74023-24.1699 12.8906-14.5264Q17.041-4.88281 24.3896 2.46582Q31.7383 9.81445 41.4062 13.9648Q51.0742 18.1152 62.0605 18.1152ZM62.0605 0.732422Q54.6387 0.732422 48.1201-2.05078Q41.6016-4.83398 36.6455-9.76562Q31.6895-14.6973 28.9062-21.2158Q26.123-27.7344 26.123-35.2051Q26.123-42.6758 28.9062-49.1943Q31.6895-55.7129 36.6455-60.6445Q41.6016-65.5762 48.1201-68.3594Q54.6387-71.1426 62.0605-71.1426Q69.5312-71.1426 76.0498-68.3594Q82.5684-65.5762 87.5-60.6445Q92.4316-55.7129 95.2393-49.1943Q98.0469-42.6758 98.0469-35.2051Q98.0469-27.7344 95.2393-21.2158Q92.4316-14.6973 87.5-9.76562Q82.5684-4.83398 76.0498-2.05078Q69.5312 0.732422 62.0605 0.732422Z"/>
   <path class="multicolor-0:systemOrangeColor hierarchical-1:primary SFSymbolsPreviewFF9500" d="M60.5957-27.1484Q63.3301-27.1484 65.2588-28.2471Q67.1875-29.3457 67.7246-31.1035Q67.7734-31.2012 67.8223-31.3721Q67.8711-31.543 67.8711-31.6406Q68.457-32.8613 69.9707-33.96Q71.4844-35.0586 73.0957-36.0352Q77.0508-38.4766 78.6621-40.7959Q80.2734-43.1152 80.2734-46.8262Q80.2734-50.8789 77.9053-54.0527Q75.5371-57.2266 71.46-59.0332Q67.3828-60.8398 62.207-60.8398Q56.0059-60.8398 51.5137-58.667Q47.0215-56.4941 45.3125-52.7832Q44.9219-52.002 44.751-51.2451Q44.5801-50.4883 44.5801-49.6094Q44.5801-47.3145 46.1914-45.5566Q47.8027-43.7988 50.5371-43.7988Q52.2461-43.7988 53.6621-44.3604Q55.0781-44.9219 56.0547-46.1914L56.2988-46.5332Q56.9824-47.4609 57.666-47.9248Q58.3496-48.3887 59.0088-48.584Q59.668-48.7793 60.4004-48.7793Q61.7188-48.7793 62.7197-47.876Q63.7207-46.9727 63.7207-45.8496Q63.7207-44.2383 62.2803-43.1641Q60.8398-42.0898 58.1543-40.2832Q55.6641-38.5254 54.1748-36.8164Q52.6855-35.1074 52.6855-32.959Q52.6855-32.9102 52.6855-32.9102Q52.6855-32.9102 52.6855-32.8613Q52.6855-27.1484 60.5957-27.1484ZM60.6445-10.4004Q64.0137-10.4004 66.1621-12.1582Q68.3105-13.916 68.3105-17.041Q68.3105-20.166 66.1621-21.9238Q64.0137-23.6816 60.6445-23.6816Q57.2754-23.6816 55.0537-21.9482Q52.832-20.2148 52.832-17.041Q52.832-13.916 55.0537-12.1582Q57.2754-10.4004 60.6445-10.4004Z"/>
  </g>
  <g id="Heavy-M" transform="matrix(1 0 0 1 2575.43 1126)">
   <path class="multicolor-0:systemOrangeColor hierarchical-0:secondary SFSymbolsPreviewFF9500" d="M61.2305 17.2852Q72.0703 17.2852 81.5918 13.1836Q91.1133 9.08203 98.3154 1.85547Q105.518-5.37109 109.644-14.8682Q113.77-24.3652 113.77-35.2051Q113.77-46.0449 109.644-55.542Q105.518-65.0391 98.3154-72.29Q91.1133-79.541 81.5918-83.6182Q72.0703-87.6953 61.2305-87.6953Q50.4395-87.6953 40.918-83.6182Q31.3965-79.541 24.1699-72.29Q16.9434-65.0391 12.8418-55.542Q8.74023-46.0449 8.74023-35.2051Q8.74023-24.3652 12.8418-14.8682Q16.9434-5.37109 24.1699 1.85547Q31.3965 9.08203 40.918 13.1836Q50.4395 17.2852 61.2305 17.2852ZM61.2305 2.05078Q53.5156 2.05078 46.7529-0.854492Q39.9902-3.75977 34.8633-8.8623Q29.7363-13.9648 26.8555-20.7275Q23.9746-27.4902 23.9746-35.2051Q23.9746-42.9688 26.8555-49.7314Q29.7363-56.4941 34.8633-61.5967Q39.9902-66.6992 46.7529-69.5801Q53.5156-72.4609 61.2305-72.4609Q68.9453-72.4609 75.708-69.5801Q82.4707-66.6992 87.5977-61.5967Q92.7246-56.4941 95.6299-49.7314Q98.5352-42.9688 98.5352-35.2051Q98.5352-27.4902 95.6299-20.7275Q92.7246-13.9648 87.6221-8.8623Q82.5195-3.75977 75.7568-0.854492Q68.9941 2.05078 61.2305 2.05078Z"/>
   <path class="multicolor-0:systemOrangeColor hierarchical-1:primary SFSymbolsPreviewFF9500" d="M59.9121-26.6602Q62.4023-26.6602 64.1357-27.7588Q65.8691-28.8574 66.2598-30.5176Q66.3086-30.6152 66.333-30.7861Q66.3574-30.957 66.3574-31.0547Q66.8457-32.4707 68.2861-33.667Q69.7266-34.8633 71.582-36.0352Q75.3906-38.4277 77.1729-40.7959Q78.9551-43.1641 78.9551-47.0215Q78.9551-51.0742 76.6357-54.1748Q74.3164-57.2754 70.3613-58.9844Q66.4062-60.6934 61.4746-60.6934Q55.2734-60.6934 50.9033-58.4229Q46.5332-56.1523 44.9707-52.5391Q44.6289-51.8066 44.4824-51.0986Q44.3359-50.3906 44.3359-49.5605Q44.3359-47.4121 45.8252-45.874Q47.3145-44.3359 49.6582-44.3359Q51.2695-44.3359 52.5391-44.873Q53.8086-45.4102 54.7363-46.582L55.127-47.168Q55.8594-48.1934 56.6406-48.7793Q57.4219-49.3652 58.252-49.6338Q59.082-49.9023 60.0098-49.9023Q61.8164-49.9023 63.0615-48.8037Q64.3066-47.7051 64.3066-46.1914Q64.3066-44.3848 62.8418-43.1885Q61.377-41.9922 58.5449-40.0879Q56.0059-38.3301 54.4678-36.499Q52.9297-34.668 52.9297-32.1777Q52.9297-32.0801 52.9297-32.0557Q52.9297-32.0312 52.9297-31.9336Q52.9297-26.6602 59.9121-26.6602ZM59.9121-10.4492Q62.9883-10.4492 64.9902-12.1338Q66.9922-13.8184 66.9922-16.6992Q66.9922-19.6289 64.9902-21.3135Q62.9883-22.998 59.9121-22.998Q56.8359-22.998 54.7607-21.3135Q52.6855-19.6289 52.6855-16.6992Q52.6855-13.8184 54.7607-12.1338Q56.8359-10.4492 59.9121-10.4492Z"/>
  </g>
  <g id="Bold-M" transform="matrix(1 0 0 1 2279.65 1126)">
   <path class="multicolor-0:systemOrangeColor hierarchical-0:secondary SFSymbolsPreviewFF9500" d="M60.3027 16.3574Q70.9473 16.3574 80.2734 12.3291Q89.5996 8.30078 96.7041 1.17188Q103.809-5.95703 107.861-15.2832Q111.914-24.6094 111.914-35.2539Q111.914-45.8496 107.861-55.1758Q103.809-64.502 96.7041-71.6309Q89.5996-78.7598 80.249-82.7881Q70.8984-86.8164 60.3027-86.8164Q49.707-86.8164 40.3564-82.7881Q31.0059-78.7598 23.9014-71.6309Q16.7969-64.502 12.7686-55.1758Q8.74023-45.8496 8.74023-35.2539Q8.74023-24.6094 12.7686-15.2832Q16.7969-5.95703 23.9258 1.17188Q31.0547 8.30078 40.3809 12.3291Q49.707 16.3574 60.3027 16.3574ZM60.3027 3.51562Q52.2949 3.51562 45.2637 0.488281Q38.2324-2.53906 32.9102-7.83691Q27.5879-13.1348 24.6094-20.166Q21.6309-27.1973 21.6309-35.2539Q21.6309-43.3105 24.6094-50.3174Q27.5879-57.3242 32.9102-62.6465Q38.2324-67.9688 45.2393-70.9717Q52.2461-73.9746 60.3027-73.9746Q68.3594-73.9746 75.3662-70.9717Q82.373-67.9688 87.6953-62.6465Q93.0176-57.3242 96.0449-50.3174Q99.0723-43.3105 99.0723-35.2539Q99.0723-27.1973 96.0693-20.166Q93.0664-13.1348 87.7441-7.83691Q82.4219-2.53906 75.3906 0.488281Q68.3594 3.51562 60.3027 3.51562Z"/>
   <path class="multicolor-0:systemOrangeColor hierarchical-1:primary SFSymbolsPreviewFF9500" d="M59.082-26.1719Q61.377-26.1719 62.8662-27.2217Q64.3555-28.2715 64.5996-29.8828Q64.6484-29.9805 64.6729-30.1514Q64.6973-30.3223 64.6973-30.4199Q64.9902-32.0801 66.3574-33.374Q67.7246-34.668 69.8242-35.9863Q73.5352-38.3789 75.4883-40.8203Q77.4414-43.2617 77.4414-47.3145Q77.4414-51.3672 75.1709-54.3457Q72.9004-57.3242 69.1162-58.9355Q65.332-60.5469 60.6445-60.5469Q54.3945-60.5469 50.1709-58.1787Q45.9473-55.8105 44.5801-52.2949Q44.2871-51.6113 44.1406-50.9277Q43.9941-50.2441 43.9941-49.5117Q43.9941-47.5098 45.3369-46.2158Q46.6797-44.9219 48.6816-44.9219Q50.1465-44.9219 51.2695-45.459Q52.3926-45.9961 53.2227-47.0703L53.7598-47.8516Q54.541-49.0234 55.4443-49.7559Q56.3477-50.4883 57.373-50.8545Q58.3984-51.2207 59.5703-51.2207Q61.9141-51.2207 63.4277-49.9023Q64.9414-48.584 64.9414-46.6309Q64.9414-44.5801 63.4277-43.2373Q61.9141-41.8945 58.9844-39.8926Q56.3965-38.0859 54.7852-36.1328Q53.1738-34.1797 53.1738-31.2988Q53.1738-31.2012 53.1738-31.1279Q53.1738-31.0547 53.1738-30.957Q53.1738-26.1719 59.082-26.1719ZM59.0332-10.498Q61.8164-10.498 63.6719-12.1094Q65.5273-13.7207 65.5273-16.3574Q65.5273-18.9941 63.6719-20.6055Q61.8164-22.2168 59.0332-22.2168Q56.2988-22.2168 54.4189-20.6055Q52.5391-18.9941 52.5391-16.3574Q52.5391-13.7695 54.4189-12.1338Q56.2988-10.498 59.0332-10.498Z"/>
  </g>
  <g id="Semibold-M" transform="matrix(1 0 0 1 1983.6 1126)">
   <path class="multicolor-0:systemOrangeColor hierarchical-0:secondary SFSymbolsPreviewFF9500" d="M59.668 15.6738Q70.1172 15.6738 79.3457 11.6943Q88.5742 7.71484 95.6055 0.683594Q102.637-6.34766 106.616-15.5518Q110.596-24.7559 110.596-35.2539Q110.596-45.7031 106.616-54.9072Q102.637-64.1113 95.6055-71.1426Q88.5742-78.1738 79.3457-82.1777Q70.1172-86.1816 59.6191-86.1816Q49.1699-86.1816 39.9658-82.1777Q30.7617-78.1738 23.7305-71.1426Q16.6992-64.1113 12.7197-54.9072Q8.74023-45.7031 8.74023-35.2539Q8.74023-24.7559 12.7197-15.5518Q16.6992-6.34766 23.7305 0.683594Q30.7617 7.71484 39.9902 11.6943Q49.2188 15.6738 59.668 15.6738ZM59.668 4.49219Q51.416 4.49219 44.2139 1.41602Q37.0117-1.66016 31.543-7.10449Q26.0742-12.5488 23.0225-19.751Q19.9707-26.9531 19.9707-35.2539Q19.9707-43.5059 23.0225-50.708Q26.0742-57.9102 31.5186-63.3789Q36.9629-68.8477 44.165-71.8994Q51.3672-74.9512 59.6191-74.9512Q67.9199-74.9512 75.1221-71.8994Q82.3242-68.8477 87.7686-63.3789Q93.2129-57.9102 96.3135-50.708Q99.4141-43.5059 99.4141-35.2539Q99.4141-26.9531 96.3379-19.751Q93.2617-12.5488 87.8174-7.10449Q82.373-1.66016 75.1465 1.41602Q67.9199 4.49219 59.668 4.49219Z"/>
   <path class="multicolor-0:systemOrangeColor hierarchical-1:primary SFSymbolsPreviewFF9500" d="M58.5449-25.7812Q60.6445-25.7812 61.9629-26.8311Q63.2812-27.8809 63.4766-29.3945Q63.4766-29.541 63.501-29.7119Q63.5254-29.8828 63.5254-29.9805Q63.7207-31.7383 65.0146-33.1055Q66.3086-34.4727 68.6035-35.9863Q72.2656-38.3301 74.3408-40.7959Q76.416-43.2617 76.416-47.4609Q76.416-51.5137 74.1699-54.4189Q71.9238-57.3242 68.2373-58.8867Q64.5508-60.4492 60.0586-60.4492Q53.8086-60.4492 49.6582-58.0078Q45.5078-55.5664 44.2871-52.0996Q44.043-51.416 43.9209-50.7812Q43.7988-50.1465 43.7988-49.4629Q43.7988-47.5586 45.0439-46.4355Q46.2891-45.3125 47.998-45.3125Q49.3652-45.3125 50.3906-45.8496Q51.416-46.3867 52.1484-47.4121L52.832-48.291Q53.6621-49.5605 54.6387-50.3906Q55.6152-51.2207 56.7871-51.6602Q57.959-52.0996 59.2773-52.0996Q62.0117-52.0996 63.6963-50.6104Q65.3809-49.1211 65.3809-46.875Q65.3809-44.6777 63.8428-43.2617Q62.3047-41.8457 59.2773-39.6973Q56.6895-37.9395 55.0293-35.8887Q53.3691-33.8379 53.3691-30.7129Q53.3691-30.5664 53.3691-30.4443Q53.3691-30.3223 53.3691-30.2246Q53.3691-25.7812 58.5449-25.7812ZM58.4473-10.5469Q60.9863-10.5469 62.7441-12.1094Q64.502-13.6719 64.502-16.1133Q64.502-18.5547 62.7441-20.1172Q60.9863-21.6797 58.4473-21.6797Q55.9082-21.6797 54.1504-20.1172Q52.3926-18.5547 52.3926-16.1133Q52.3926-13.6719 54.1748-12.1094Q55.957-10.5469 58.4473-10.5469Z"/>
  </g>
  <g id="Medium-M" transform="matrix(1 0 0 1 1687.38 1126)">
   <path class="multicolor-0:systemOrangeColor hierarchical-0:secondary SFSymbolsPreviewFF9500" d="M59.1797 15.1855Q69.5312 15.1855 78.6621 11.2305Q87.793 7.27539 94.751 0.317383Q101.709-6.64062 105.664-15.7715Q109.619-24.9023 109.619-35.2539Q109.619-45.6055 105.664-54.7363Q101.709-63.8672 94.751-70.8252Q87.793-77.7832 78.6377-81.7383Q69.4824-85.6934 59.1309-85.6934Q48.7793-85.6934 39.6484-81.7383Q30.5176-77.7832 23.584-70.8252Q16.6504-63.8672 12.6953-54.7363Q8.74023-45.6055 8.74023-35.2539Q8.74023-24.9023 12.6953-15.7715Q16.6504-6.64062 23.6084 0.317383Q30.5664 7.27539 39.6973 11.2305Q48.8281 15.1855 59.1797 15.1855ZM59.1797 5.27344Q50.7324 5.27344 43.4082 2.12402Q36.084-1.02539 30.5176-6.5918Q24.9512-12.1582 21.8262-19.4824Q18.7012-26.8066 18.7012-35.2539Q18.7012-43.7012 21.8262-51.0254Q24.9512-58.3496 30.4932-63.916Q36.0352-69.4824 43.3838-72.6074Q50.7324-75.7324 59.1309-75.7324Q67.5781-75.7324 74.9023-72.6074Q82.2266-69.4824 87.8174-63.916Q93.4082-58.3496 96.5576-51.0254Q99.707-43.7012 99.707-35.2539Q99.707-26.8066 96.582-19.4824Q93.457-12.1582 87.8906-6.5918Q82.3242-1.02539 74.9756 2.12402Q67.627 5.27344 59.1797 5.27344Z"/>
   <path class="multicolor-0:systemOrangeColor hierarchical-1:primary SFSymbolsPreviewFF9500" d="M58.1055-25.4883Q60.0586-25.4883 61.2793-26.5381Q62.5-27.5879 62.5977-29.0527Q62.5977-29.1992 62.5977-29.3701Q62.5977-29.541 62.5977-29.6387Q62.7441-31.543 64.0137-32.959Q65.2832-34.375 67.6758-35.9375Q71.2891-38.3301 73.4619-40.8203Q75.6348-43.3105 75.6348-47.6074Q75.6348-51.6602 73.4131-54.4922Q71.1914-57.3242 67.5781-58.8379Q63.9648-60.3516 59.6191-60.3516Q53.3691-60.3516 49.292-57.8613Q45.2148-55.3711 44.043-51.9531Q43.8477-51.3184 43.7256-50.708Q43.6035-50.0977 43.6035-49.4141Q43.6035-47.6562 44.7754-46.6309Q45.9473-45.6055 47.4609-45.6055Q48.7793-45.6055 49.7314-46.1426Q50.6836-46.6797 51.3672-47.6562L52.1484-48.6328Q52.9785-50 54.0283-50.9033Q55.0781-51.8066 56.3232-52.2705Q57.5684-52.7344 59.0332-52.7344Q62.0117-52.7344 63.8428-51.1475Q65.6738-49.5605 65.6738-47.0703Q65.6738-44.7754 64.1357-43.2617Q62.5977-41.748 59.4727-39.5996Q56.8848-37.793 55.1758-35.6934Q53.4668-33.5938 53.4668-30.2246Q53.4668-30.127 53.4668-29.9805Q53.4668-29.834 53.4668-29.6875Q53.4668-25.4883 58.1055-25.4883ZM58.0078-10.5469Q60.3516-10.5469 62.0361-12.0605Q63.7207-13.5742 63.7207-15.918Q63.7207-18.2617 62.0361-19.7754Q60.3516-21.2891 58.0078-21.2891Q55.6152-21.2891 53.9551-19.751Q52.2949-18.2129 52.2949-15.918Q52.2949-13.623 53.9795-12.085Q55.6641-10.5469 58.0078-10.5469Z"/>
  </g>
  <g id="Regular-M" transform="matrix(1 0 0 1 1391.3 1126)">
   <path class="multicolor-0:systemOrangeColor hierarchical-0:secondary SFSymbolsPreviewFF9500" d="M58.5449 14.5508Q68.75 14.5508 77.7588 10.6445Q86.7676 6.73828 93.6523-0.146484Q100.537-7.03125 104.443-16.04Q108.35-25.0488 108.35-35.2539Q108.35-45.459 104.443-54.4678Q100.537-63.4766 93.6523-70.3613Q86.7676-77.2461 77.7344-81.1523Q68.7012-85.0586 58.4961-85.0586Q48.291-85.0586 39.2822-81.1523Q30.2734-77.2461 23.4131-70.3613Q16.5527-63.4766 12.6465-54.4678Q8.74023-45.459 8.74023-35.2539Q8.74023-25.0488 12.6465-16.04Q16.5527-7.03125 23.4375-0.146484Q30.3223 6.73828 39.3311 10.6445Q48.3398 14.5508 58.5449 14.5508ZM58.5449 6.25Q49.9023 6.25 42.3828 3.02734Q34.8633-0.195312 29.1748-5.88379Q23.4863-11.5723 20.2881-19.0918Q17.0898-26.6113 17.0898-35.2539Q17.0898-43.8965 20.2881-51.416Q23.4863-58.9355 29.1504-64.6484Q34.8145-70.3613 42.334-73.5596Q49.8535-76.7578 58.4961-76.7578Q67.1387-76.7578 74.6582-73.5596Q82.1777-70.3613 87.8906-64.6484Q93.6035-58.9355 96.8262-51.416Q100.049-43.8965 100.049-35.2539Q100.049-26.6113 96.8506-19.0918Q93.6523-11.5723 87.9639-5.88379Q82.2754-0.195312 74.7314 3.02734Q67.1875 6.25 58.5449 6.25Z"/>
   <path class="multicolor-0:systemOrangeColor hierarchical-1:primary SFSymbolsPreviewFF9500" d="M57.5684-25.1465Q59.375-25.1465 60.4248-26.1719Q61.4746-27.1973 61.4746-28.6133Q61.4746-28.7598 61.4746-28.9307Q61.4746-29.1016 61.4746-29.1992Q61.4746-31.25 62.6953-32.7393Q63.916-34.2285 66.5039-35.9375Q70.0195-38.2812 72.3145-40.8203Q74.6094-43.3594 74.6094-47.7539Q74.6094-51.8066 72.4365-54.5898Q70.2637-57.373 66.748-58.8135Q63.2324-60.2539 59.082-60.2539Q52.7832-60.2539 48.8037-57.6904Q44.8242-55.127 43.7988-51.7578Q43.6035-51.1719 43.5059-50.5859Q43.4082-50 43.4082-49.3652Q43.4082-47.7051 44.4824-46.8506Q45.5566-45.9961 46.7773-45.9961Q47.998-45.9961 48.8525-46.5332Q49.707-47.0703 50.3418-47.9492L51.2207-49.1211Q52.0996-50.5371 53.2227-51.5381Q54.3457-52.5391 55.7373-53.0762Q57.1289-53.6133 58.7402-53.6133Q62.1094-53.6133 64.1113-51.8799Q66.1133-50.1465 66.1133-47.3633Q66.1133-44.873 64.5508-43.2861Q62.9883-41.6992 59.7656-39.4531Q57.1289-37.6465 55.3955-35.4492Q53.6621-33.252 53.6621-29.6387Q53.6621-29.4922 53.6621-29.3213Q53.6621-29.1504 53.6621-29.0039Q53.6621-25.1465 57.5684-25.1465ZM57.4219-10.5957Q59.5703-10.5957 61.1328-12.0605Q62.6953-13.5254 62.6953-15.6738Q62.6953-17.8223 61.1328-19.2871Q59.5703-20.752 57.4219-20.752Q55.2734-20.752 53.7354-19.2627Q52.1973-17.7734 52.1973-15.6738Q52.1973-13.5742 53.7598-12.085Q55.3223-10.5957 57.4219-10.5957Z"/>
  </g>
  <g id="Light-M" transform="matrix(1 0 0 1 1095.42 1126)">
   <path class="multicolor-0:systemOrangeColor hierarchical-0:secondary SFSymbolsPreviewFF9500" d="M57.7148 13.7207Q67.7734 13.7207 76.6357 9.8877Q85.498 6.05469 92.2607-0.708008Q99.0234-7.4707 102.856-16.333Q106.689-25.1953 106.689-35.2539Q106.689-45.3125 102.856-54.1748Q99.0234-63.0371 92.2607-69.7998Q85.498-76.5625 76.6113-80.3955Q67.7246-84.2285 57.666-84.2285Q47.6074-84.2285 38.7451-80.3955Q29.8828-76.5625 23.1445-69.7998Q16.4062-63.0371 12.5732-54.1748Q8.74023-45.3125 8.74023-35.2539Q8.74023-25.1953 12.5732-16.333Q16.4062-7.4707 23.1689-0.708008Q29.9316 6.05469 38.7939 9.8877Q47.6562 13.7207 57.7148 13.7207ZM57.7148 7.37305Q48.877 7.37305 41.1377 4.07715Q33.3984 0.78125 27.5391-5.07812Q21.6797-10.9375 18.3838-18.6768Q15.0879-26.416 15.0879-35.2539Q15.0879-44.0918 18.3838-51.8311Q21.6797-59.5703 27.5391-65.4541Q33.3984-71.3379 41.1133-74.6338Q48.8281-77.9297 57.666-77.9297Q66.5527-77.9297 74.2676-74.6338Q81.9824-71.3379 87.8662-65.4541Q93.75-59.5703 97.0703-51.8311Q100.391-44.0918 100.391-35.2539Q100.391-26.416 97.0703-18.6768Q93.75-10.9375 87.915-5.07812Q82.0801 0.78125 74.3408 4.07715Q66.6016 7.37305 57.7148 7.37305Z"/>
   <path class="multicolor-0:systemOrangeColor hierarchical-1:primary SFSymbolsPreviewFF9500" d="M56.8359-25.293Q58.2031-25.293 59.0088-26.0986Q59.8145-26.9043 59.8145-28.0762Q59.8145-28.3203 59.8145-28.5645Q59.8145-28.8086 59.8145-29.0527Q59.8145-31.2012 61.0107-32.7637Q62.207-34.3262 64.9414-36.1328Q68.5547-38.623 70.6055-41.1133Q72.6562-43.6035 72.6562-47.6074Q72.6562-51.2695 70.6787-53.8818Q68.7012-56.4941 65.4297-57.8857Q62.1582-59.2773 58.1543-59.2773Q52.0996-59.2773 48.3154-56.6162Q44.5312-53.9551 43.7012-50.3906Q43.6035-49.8535 43.5303-49.3408Q43.457-48.8281 43.457-48.2422Q43.457-46.9238 44.2871-46.2402Q45.1172-45.5566 46.0938-45.5566Q47.0703-45.5566 47.7783-46.0205Q48.4863-46.4844 48.877-47.2168L49.4629-48.1934Q50.0488-49.8535 51.2207-51.1963Q52.3926-52.5391 54.1016-53.3203Q55.8105-54.1016 57.8613-54.1016Q61.6699-54.1016 63.8916-52.1973Q66.1133-50.293 66.1133-47.3145Q66.1133-44.7754 64.624-43.0664Q63.1348-41.3574 59.7656-39.0137Q56.9336-37.1094 55.3711-34.9365Q53.8086-32.7637 53.8086-29.3945Q53.8086-29.1504 53.8086-28.8818Q53.8086-28.6133 53.8086-28.3203Q53.8086-25.293 56.8359-25.293ZM56.6895-11.377Q58.5449-11.377 59.8877-12.6709Q61.2305-13.9648 61.2305-15.7715Q61.2305-17.627 59.8877-18.9209Q58.5449-20.2148 56.6895-20.2148Q54.834-20.2148 53.5156-18.9209Q52.1973-17.627 52.1973-15.7715Q52.1973-13.9648 53.54-12.6709Q54.8828-11.377 56.6895-11.377Z"/>
  </g>
  <g id="Thin-M" transform="matrix(1 0 0 1 799.782 1126)">
   <path class="multicolor-0:systemOrangeColor hierarchical-0:secondary SFSymbolsPreviewFF9500" d="M56.5918 12.5977Q66.5039 12.5977 75.1709 8.88672Q83.8379 5.17578 90.4297-1.44043Q97.0215-8.05664 100.781-16.7236Q104.541-25.3906 104.541-35.2539Q104.541-45.1172 100.781-53.7842Q97.0215-62.4512 90.4297-69.0674Q83.8379-75.6836 75.1709-79.3945Q66.5039-83.1055 56.5918-83.1055Q46.7285-83.1055 38.0615-79.3945Q29.3945-75.6836 22.8271-69.0674Q16.2598-62.4512 12.5-53.7842Q8.74023-45.1172 8.74023-35.2539Q8.74023-25.3906 12.4756-16.7236Q16.2109-8.05664 22.8027-1.44043Q29.3945 5.17578 38.0859 8.88672Q46.7773 12.5977 56.5918 12.5977ZM56.5918 8.88672Q47.4609 8.88672 39.4775 5.44434Q31.4941 2.00195 25.415-4.05273Q19.3359-10.1074 15.918-18.1152Q12.5-26.123 12.5-35.2539Q12.5-44.3848 15.918-52.3926Q19.3359-60.4004 25.415-66.4795Q31.4941-72.5586 39.4775-76.001Q47.4609-79.4434 56.5918-79.4434Q65.7715-79.4434 73.7549-76.001Q81.7383-72.5586 87.8174-66.4795Q93.8965-60.4004 97.3389-52.3926Q100.781-44.3848 100.781-35.2539Q100.781-26.123 97.3633-18.1152Q93.9453-10.1074 87.8662-4.05273Q81.7871 2.00195 73.7793 5.44434Q65.7715 8.88672 56.5918 8.88672Z"/>
   <path class="multicolor-0:systemOrangeColor hierarchical-1:primary SFSymbolsPreviewFF9500" d="M55.7617-25.4883Q56.5918-25.4883 57.0801-26.001Q57.5684-26.5137 57.5684-27.2949Q57.5684-27.6855 57.5684-28.0762Q57.5684-28.4668 57.5684-28.9062Q57.5684-31.2012 58.7402-32.8125Q59.9121-34.4238 62.793-36.4258Q66.6016-39.0137 68.3105-41.4795Q70.0195-43.9453 70.0195-47.4609Q70.0195-50.5371 68.3105-52.9297Q66.6016-55.3223 63.5986-56.6895Q60.5957-58.0566 56.8359-58.0566Q51.0742-58.0566 47.583-55.2002Q44.0918-52.3438 43.5547-48.584Q43.5059-48.0957 43.457-47.7051Q43.4082-47.3145 43.4082-46.7285Q43.4082-45.8984 43.9209-45.4102Q44.4336-44.9219 45.1172-44.9219Q45.8008-44.9219 46.2891-45.2881Q46.7773-45.6543 46.9238-46.2891L47.1191-46.9727Q47.2656-48.9746 48.5352-50.7324Q49.8047-52.4902 51.8799-53.6133Q53.9551-54.7363 56.6406-54.7363Q60.9863-54.7363 63.5498-52.6123Q66.1133-50.4883 66.1133-47.2168Q66.1133-44.6777 64.6729-42.7979Q63.2324-40.918 59.668-38.4766Q56.6406-36.3281 55.2734-34.2285Q53.9062-32.1289 53.9062-29.1016Q53.9062-28.6621 53.9062-28.2471Q53.9062-27.832 53.9062-27.3926Q53.9062-25.4883 55.7617-25.4883ZM55.6641-12.4023Q57.1777-12.4023 58.2031-13.4521Q59.2285-14.502 59.2285-15.918Q59.2285-17.3828 58.2031-18.4082Q57.1777-19.4336 55.6641-19.4336Q54.1992-19.4336 53.1494-18.4082Q52.0996-17.3828 52.0996-15.918Q52.0996-14.502 53.1494-13.4521Q54.1992-12.4023 55.6641-12.4023Z"/>
  </g>
  <g id="Ultralight-M" transform="matrix(1 0 0 1 503.632 1126)">
   <path class="multicolor-0:systemOrangeColor hierarchical-0:secondary SFSymbolsPreviewFF9500" d="M56.0547 12.0605Q65.8203 12.0605 74.3896 8.37402Q82.959 4.6875 89.4775-1.83105Q95.9961-8.34961 99.707-16.9189Q103.418-25.4883 103.418-35.2539Q103.418-45.0195 99.707-53.5889Q95.9961-62.1582 89.4775-68.6768Q82.959-75.1953 74.3896-78.8818Q65.8203-82.5684 56.0547-82.5684Q46.2891-82.5684 37.7197-78.8818Q29.1504-75.1953 22.6562-68.6768Q16.1621-62.1582 12.4512-53.5889Q8.74023-45.0195 8.74023-35.2539Q8.74023-25.4883 12.4268-16.9189Q16.1133-8.34961 22.6318-1.83105Q29.1504 4.6875 37.7197 8.37402Q46.2891 12.0605 56.0547 12.0605ZM56.0547 9.66797Q46.7773 9.66797 38.6475 6.17676Q30.5176 2.68555 24.3164-3.49121Q18.1152-9.66797 14.624-17.8223Q11.1328-25.9766 11.1328-35.2539Q11.1328-44.5312 14.624-52.6855Q18.1152-60.8398 24.3164-67.041Q30.5176-73.2422 38.6475-76.7334Q46.7773-80.2246 56.0547-80.2246Q65.3809-80.2246 73.5107-76.7334Q81.6406-73.2422 87.8174-67.041Q93.9941-60.8398 97.5098-52.6855Q101.025-44.5312 101.025-35.2539Q101.025-25.9766 97.5098-17.8223Q93.9941-9.66797 87.8174-3.49121Q81.6406 2.68555 73.5107 6.17676Q65.3809 9.66797 56.0547 9.66797Z"/>
   <path class="multicolor-0:systemOrangeColor hierarchical-1:primary SFSymbolsPreviewFF9500" d="M55.2734-25.5859Q55.8105-25.5859 56.1279-25.9521Q56.4453-26.3184 56.4453-26.9531Q56.4453-27.3926 56.4453-27.832Q56.4453-28.2715 56.4453-28.8086Q56.4453-31.1523 57.5928-32.8369Q58.7402-34.5215 61.7676-36.5723Q65.625-39.2578 67.1875-41.6748Q68.75-44.0918 68.75-47.3633Q68.75-50.1953 67.1631-52.4658Q65.5762-54.7363 62.7441-56.0547Q59.9121-57.373 56.2012-57.373Q50.6348-57.373 47.29-54.4678Q43.9453-51.5625 43.5059-47.6562Q43.5059-47.2168 43.4814-46.8506Q43.457-46.4844 43.457-45.9473Q43.457-45.3613 43.7988-44.9951Q44.1406-44.6289 44.6777-44.6289Q45.2148-44.6289 45.5811-44.9463Q45.9473-45.2637 45.9473-45.8008L45.9473-46.3379Q45.8984-48.4863 47.1924-50.4883Q48.4863-52.4902 50.7812-53.7842Q53.0762-55.0781 56.1035-55.0781Q60.7422-55.0781 63.4277-52.832Q66.1133-50.5859 66.1133-47.168Q66.1133-44.6289 64.7217-42.6758Q63.3301-40.7227 59.668-38.1836Q56.4941-35.9863 55.249-33.8867Q54.0039-31.7871 54.0039-28.9551Q54.0039-28.4668 54.0039-27.9785Q54.0039-27.4902 54.0039-26.9043Q54.0039-25.5859 55.2734-25.5859ZM55.2246-12.8906Q56.4941-12.8906 57.373-13.8428Q58.252-14.7949 58.252-16.0156Q58.252-17.2852 57.373-18.1885Q56.4941-19.0918 55.2246-19.0918Q53.9551-19.0918 53.0518-18.1885Q52.1484-17.2852 52.1484-16.0156Q52.1484-14.7949 53.0273-13.8428Q53.9062-12.8906 55.2246-12.8906Z"/>
  </g>
  <g id="Black-S" transform="matrix(1 0 0 1 2884.57 696)">
   <path class="multicolor-0:systemOrangeColor hierarchical-0:secondary SFSymbolsPreviewFF9500" d="M48.8281 6.78711Q57.5195 6.78711 65.1123 3.51562Q72.7051 0.244141 78.4912-5.54199Q84.2773-11.3281 87.5488-18.9209Q90.8203-26.5137 90.8203-35.2051Q90.8203-43.8965 87.5488-51.4893Q84.2773-59.082 78.4912-64.8682Q72.7051-70.6543 65.1123-73.9258Q57.5195-77.1973 48.8281-77.1973Q40.1367-77.1973 32.5439-73.9258Q24.9512-70.6543 19.165-64.8682Q13.3789-59.082 10.1074-51.4893Q6.83594-43.8965 6.83594-35.2051Q6.83594-26.5137 10.1074-18.9209Q13.3789-11.3281 19.165-5.54199Q24.9512 0.244141 32.5439 3.51562Q40.1367 6.78711 48.8281 6.78711ZM48.8281-7.37305Q43.0664-7.37305 38.0127-9.5459Q32.959-11.7188 29.1504-15.5273Q25.3418-19.3359 23.1689-24.3896Q20.9961-29.4434 20.9961-35.2051Q20.9961-40.9668 23.1689-46.0205Q25.3418-51.0742 29.1504-54.8828Q32.959-58.6914 38.0127-60.8643Q43.0664-63.0371 48.8281-63.0371Q54.5898-63.0371 59.6436-60.8643Q64.6973-58.6914 68.5059-54.8828Q72.3145-51.0742 74.4873-46.0205Q76.6602-40.9668 76.6602-35.2051Q76.6602-29.4434 74.4873-24.3896Q72.3145-19.3359 68.5059-15.5273Q64.6973-11.7188 59.6436-9.5459Q54.5898-7.37305 48.8281-7.37305Z"/>
   <path class="multicolor-0:systemOrangeColor hierarchical-1:primary SFSymbolsPreviewFF9500" d="M47.6562-29.0527Q49.8535-29.0527 51.416-29.9072Q52.9785-30.7617 53.418-32.1289Q53.4668-32.2266 53.4912-32.373Q53.5156-32.5195 53.5645-32.5684Q54.0527-33.4961 55.249-34.3262Q56.4453-35.1562 57.666-35.8887Q60.791-37.793 61.9873-39.5996Q63.1836-41.4062 63.1836-44.2383Q63.1836-49.0234 59.1309-52.1484Q55.0781-55.2734 48.9258-55.2734Q44.0918-55.2734 40.5518-53.5889Q37.0117-51.9043 35.5957-48.9746Q35.0098-47.7539 35.0098-46.4355Q35.0098-44.6289 36.3037-43.1885Q37.5977-41.748 39.8438-41.748Q41.2109-41.748 42.334-42.1875Q43.457-42.627 44.2383-43.6523L44.3848-43.8477Q45.166-44.873 45.8984-45.1904Q46.6309-45.5078 47.4121-45.5078Q48.3398-45.5078 49.0479-44.8486Q49.7559-44.1895 49.7559-43.457Q49.7559-42.2363 48.6328-41.4307Q47.5098-40.625 45.459-39.209Q43.5059-37.8418 42.3584-36.5479Q41.2109-35.2539 41.2109-33.6914Q41.2109-33.6426 41.2109-33.6426Q41.2109-33.6426 41.2109-33.5938Q41.2109-29.0527 47.6562-29.0527ZM47.7051-15.8203Q50.4395-15.8203 52.1484-17.1875Q53.8574-18.5547 53.8574-21.0938Q53.8574-23.584 52.1484-24.9756Q50.4395-26.3672 47.7051-26.3672Q45.0195-26.3672 43.2373-25Q41.4551-23.6328 41.4551-21.0938Q41.4551-18.5547 43.2373-17.1875Q45.0195-15.8203 47.7051-15.8203Z"/>
  </g>
  <g id="Heavy-S" transform="matrix(1 0 0 1 2588.47 696)">
   <path class="multicolor-0:systemOrangeColor hierarchical-0:secondary SFSymbolsPreviewFF9500" d="M48.1934 6.15234Q56.7871 6.15234 64.2578 2.92969Q71.7285-0.292969 77.4414-6.00586Q83.1543-11.7188 86.377-19.1895Q89.5996-26.6602 89.5996-35.2051Q89.5996-43.75 86.377-51.2451Q83.1543-58.7402 77.4414-64.4531Q71.7285-70.166 64.2334-73.3887Q56.7383-76.6113 48.1934-76.6113Q39.6484-76.6113 32.1777-73.3887Q24.707-70.166 18.9941-64.4531Q13.2812-58.7402 10.0586-51.2451Q6.83594-43.75 6.83594-35.2051Q6.83594-26.6602 10.0586-19.1895Q13.2812-11.7188 18.9941-6.00586Q24.707-0.292969 32.2021 2.92969Q39.6973 6.15234 48.1934 6.15234ZM48.1934-6.39648Q42.2363-6.39648 37.0117-8.64258Q31.7871-10.8887 27.8564-14.8438Q23.9258-18.7988 21.6797-24.0234Q19.4336-29.248 19.4336-35.2051Q19.4336-41.1621 21.6553-46.4111Q23.877-51.6602 27.832-55.5908Q31.7871-59.5215 37.0117-61.7676Q42.2363-64.0137 48.1934-64.0137Q54.1992-64.0137 59.4238-61.7676Q64.6484-59.5215 68.5791-55.5908Q72.5098-51.6602 74.7803-46.4111Q77.0508-41.1621 77.0508-35.2051Q77.0508-29.248 74.8047-24.0234Q72.5586-18.7988 68.6035-14.8438Q64.6484-10.8887 59.4238-8.64258Q54.1992-6.39648 48.1934-6.39648Z"/>
   <path class="multicolor-0:systemOrangeColor hierarchical-1:primary SFSymbolsPreviewFF9500" d="M47.1191-28.6133Q49.2188-28.6133 50.6348-29.4922Q52.0508-30.3711 52.3438-31.6895Q52.3926-31.7871 52.417-31.9092Q52.4414-32.0312 52.4902-32.1289Q52.832-33.1543 53.9795-34.0576Q55.127-34.9609 56.543-35.8398Q59.5703-37.6953 60.9375-39.5508Q62.3047-41.4062 62.3047-44.4336Q62.3047-49.2676 58.3008-52.2705Q54.2969-55.2734 48.3887-55.2734Q43.5059-55.2734 40.0391-53.54Q36.5723-51.8066 35.3027-48.9746Q34.7656-47.7539 34.7656-46.5332Q34.7656-44.8242 35.9863-43.5303Q37.207-42.2363 39.1602-42.2363Q40.4785-42.2363 41.5039-42.6758Q42.5293-43.1152 43.2617-44.0918L43.6035-44.4824Q44.4824-45.6055 45.3369-46.0205Q46.1914-46.4355 47.168-46.4355Q48.4863-46.4355 49.3652-45.6299Q50.2441-44.8242 50.2441-43.75Q50.2441-42.3828 49.0723-41.4795Q47.9004-40.5762 45.8008-39.1113Q43.8477-37.7441 42.627-36.3281Q41.4062-34.9121 41.4062-33.0566Q41.4062-33.0078 41.4062-32.9834Q41.4062-32.959 41.4062-32.9102Q41.4062-28.6133 47.1191-28.6133ZM47.168-15.7715Q49.6582-15.7715 51.2939-17.0898Q52.9297-18.4082 52.9297-20.8008Q52.9297-23.1445 51.2939-24.4873Q49.6582-25.8301 47.168-25.8301Q44.6777-25.8301 42.9932-24.4873Q41.3086-23.1445 41.3086-20.8008Q41.3086-18.457 42.9932-17.1143Q44.6777-15.7715 47.168-15.7715Z"/>
  </g>
  <g id="Bold-S" transform="matrix(1 0 0 1 2292.42 696)">
   <path class="multicolor-0:systemOrangeColor hierarchical-0:secondary SFSymbolsPreviewFF9500" d="M47.5586 5.46875Q55.957 5.46875 63.3057 2.29492Q70.6543-0.878906 76.2695-6.51855Q81.8848-12.1582 85.083-19.5068Q88.2812-26.8555 88.2812-35.2539Q88.2812-43.6035 85.083-50.9766Q81.8848-58.3496 76.2695-63.9648Q70.6543-69.5801 63.2812-72.7539Q55.9082-75.9277 47.5098-75.9277Q39.1602-75.9277 31.7871-72.7539Q24.4141-69.5801 18.8232-63.9648Q13.2324-58.3496 10.0342-50.9766Q6.83594-43.6035 6.83594-35.2539Q6.83594-26.8555 10.0342-19.5068Q13.2324-12.1582 18.8477-6.51855Q24.4629-0.878906 31.8115 2.29492Q39.1602 5.46875 47.5586 5.46875ZM47.5586-5.32227Q41.3574-5.32227 35.9375-7.6416Q30.5176-9.96094 26.416-14.0625Q22.3145-18.1641 19.9951-23.6084Q17.6758-29.0527 17.6758-35.2539Q17.6758-41.4551 19.9951-46.875Q22.3145-52.2949 26.3916-56.3965Q30.4688-60.498 35.8887-62.8174Q41.3086-65.1367 47.5098-65.1367Q53.7598-65.1367 59.1797-62.8174Q64.5996-60.498 68.7012-56.3965Q72.8027-52.2949 75.1221-46.875Q77.4414-41.4551 77.4414-35.2539Q77.4414-29.0527 75.1221-23.6084Q72.8027-18.1641 68.7256-14.0625Q64.6484-9.96094 59.2041-7.6416Q53.7598-5.32227 47.5586-5.32227Z"/>
   <path class="multicolor-0:systemOrangeColor hierarchical-1:primary SFSymbolsPreviewFF9500" d="M46.582-28.1738Q48.4863-28.1738 49.7314-29.0527Q50.9766-29.9316 51.2207-31.25Q51.2207-31.2988 51.2451-31.4209Q51.2695-31.543 51.2695-31.5918Q51.5137-32.8125 52.6123-33.8135Q53.7109-34.8145 55.2734-35.791Q58.2031-37.6465 59.7412-39.5508Q61.2793-41.4551 61.2793-44.6777Q61.2793-49.6094 57.3486-52.4414Q53.418-55.2734 47.8516-55.2734Q42.9199-55.2734 39.5264-53.4668Q36.1328-51.6602 35.0098-48.9258Q34.5215-47.8027 34.5215-46.6309Q34.5215-45.0195 35.6445-43.9209Q36.7676-42.8223 38.4277-42.8223Q39.6484-42.8223 40.5762-43.2617Q41.5039-43.7012 42.2363-44.6289L42.7246-45.2148Q43.7012-46.4844 44.7266-46.9727Q45.752-47.4609 46.9727-47.4609Q48.6328-47.4609 49.707-46.4844Q50.7812-45.5078 50.7812-44.1406Q50.7812-42.5293 49.585-41.5283Q48.3887-40.5273 46.1426-39.0137Q44.1895-37.5977 42.8955-36.084Q41.6016-34.5703 41.6016-32.3242Q41.6016-32.2754 41.6016-32.251Q41.6016-32.2266 41.6016-32.1777Q41.6016-28.1738 46.582-28.1738ZM46.5332-15.6738Q48.8281-15.6738 50.3418-16.9922Q51.8555-18.3105 51.8555-20.459Q51.8555-22.6562 50.3418-23.9502Q48.8281-25.2441 46.5332-25.2441Q44.2871-25.2441 42.7246-23.9502Q41.1621-22.6562 41.1621-20.459Q41.1621-18.3105 42.7246-16.9922Q44.2871-15.6738 46.5332-15.6738Z"/>
  </g>
  <g id="Semibold-S" transform="matrix(1 0 0 1 1996.2 696)">
   <path class="multicolor-0:systemOrangeColor hierarchical-0:secondary SFSymbolsPreviewFF9500" d="M47.0703 4.98047Q55.3711 4.98047 62.6465 1.85547Q69.9219-1.26953 75.4639-6.86035Q81.0059-12.4512 84.1553-19.7266Q87.3047-27.002 87.3047-35.2539Q87.3047-43.5059 84.1553-50.7812Q81.0059-58.0566 75.4395-63.623Q69.873-69.1895 62.5977-72.3389Q55.3223-75.4883 47.0215-75.4883Q38.7695-75.4883 31.4941-72.3389Q24.2188-69.1895 18.6768-63.623Q13.1348-58.0566 9.98535-50.7812Q6.83594-43.5059 6.83594-35.2539Q6.83594-27.002 9.98535-19.7266Q13.1348-12.4512 18.7012-6.86035Q24.2676-1.26953 31.543 1.85547Q38.8184 4.98047 47.0703 4.98047ZM47.0703-4.58984Q40.7227-4.58984 35.1562-6.95801Q29.5898-9.32617 25.3906-13.5254Q21.1914-17.7246 18.8232-23.291Q16.4551-28.8574 16.4551-35.2539Q16.4551-41.6016 18.8232-47.168Q21.1914-52.7344 25.3662-56.9336Q29.541-61.1328 35.1074-63.5254Q40.6738-65.918 47.0215-65.918Q53.418-65.918 58.9844-63.5254Q64.5508-61.1328 68.75-56.9336Q72.9492-52.7344 75.3418-47.168Q77.7344-41.6016 77.7344-35.2539Q77.7344-28.8574 75.3662-23.291Q72.998-17.7246 68.7988-13.5254Q64.5996-9.32617 59.0332-6.95801Q53.4668-4.58984 47.0703-4.58984Z"/>
   <path class="multicolor-0:systemOrangeColor hierarchical-1:primary SFSymbolsPreviewFF9500" d="M46.1426-27.832Q47.998-27.832 49.1211-28.7109Q50.2441-29.5898 50.3906-30.9082Q50.3906-30.957 50.3906-31.0547Q50.3906-31.1523 50.4395-31.25Q50.5859-32.5684 51.6357-33.6182Q52.6855-34.668 54.3457-35.7422Q57.2266-37.5488 58.9111-39.502Q60.5957-41.4551 60.5957-44.8242Q60.5957-49.8047 56.6895-52.5391Q52.7832-55.2734 47.4121-55.2734Q42.4316-55.2734 39.1113-53.418Q35.791-51.5625 34.7656-48.9258Q34.2773-47.8027 34.2773-46.6797Q34.2773-45.166 35.3516-44.1895Q36.4258-43.2129 37.8418-43.2129Q39.0625-43.2129 39.917-43.6523Q40.7715-44.0918 41.4551-44.9707L42.0898-45.7031Q43.1641-47.0215 44.2871-47.6074Q45.4102-48.1934 46.7773-48.1934Q48.6816-48.1934 49.9023-47.0947Q51.123-45.9961 51.123-44.3359Q51.123-42.627 49.9023-41.5527Q48.6816-40.4785 46.3867-38.916Q44.4336-37.5 43.0908-35.9131Q41.748-34.3262 41.748-31.8359Q41.748-31.7871 41.748-31.7383Q41.748-31.6895 41.748-31.6406Q41.748-27.832 46.1426-27.832ZM46.0938-15.625Q48.1934-15.625 49.6582-16.8945Q51.123-18.1641 51.123-20.2148Q51.123-22.2656 49.6582-23.5596Q48.1934-24.8535 46.0938-24.8535Q43.9941-24.8535 42.5293-23.5596Q41.0645-22.2656 41.0645-20.2148Q41.0645-18.2129 42.5293-16.9189Q43.9941-15.625 46.0938-15.625Z"/>
  </g>
  <g id="Medium-S" transform="matrix(1 0 0 1 1699.83 696)">
   <path class="multicolor-0:systemOrangeColor hierarchical-0:secondary SFSymbolsPreviewFF9500" d="M46.7285 4.63867Q54.9316 4.63867 62.1338 1.51367Q69.3359-1.61133 74.8535-7.12891Q80.3711-12.6465 83.4961-19.8486Q86.6211-27.0508 86.6211-35.2539Q86.6211-43.4082 83.4961-50.6348Q80.3711-57.8613 74.8291-63.3789Q69.2871-68.8965 62.085-71.9971Q54.8828-75.0977 46.6797-75.0977Q38.4766-75.0977 31.2744-71.9971Q24.0723-68.8965 18.5791-63.3789Q13.0859-57.8613 9.96094-50.6348Q6.83594-43.4082 6.83594-35.2539Q6.83594-27.0508 9.96094-19.8486Q13.0859-12.6465 18.6035-7.12891Q24.1211-1.61133 31.3232 1.51367Q38.5254 4.63867 46.7285 4.63867ZM46.7285-4.00391Q40.2344-4.00391 34.5703-6.4209Q28.9062-8.83789 24.6338-13.1348Q20.3613-17.4316 17.9443-23.0957Q15.5273-28.7598 15.5273-35.2539Q15.5273-41.748 17.9199-47.4121Q20.3125-53.0762 24.585-57.373Q28.8574-61.6699 34.5215-64.0869Q40.1855-66.5039 46.6797-66.5039Q53.1738-66.5039 58.8379-64.0869Q64.502-61.6699 68.7988-57.373Q73.0957-53.0762 75.5127-47.4121Q77.9297-41.748 77.9297-35.2539Q77.9297-28.7598 75.5127-23.0957Q73.0957-17.4316 68.8477-13.1348Q64.5996-8.83789 58.9111-6.4209Q53.2227-4.00391 46.7285-4.00391Z"/>
   <path class="multicolor-0:systemOrangeColor hierarchical-1:primary SFSymbolsPreviewFF9500" d="M45.8496-27.5879Q47.6074-27.5879 48.6572-28.4668Q49.707-29.3457 49.8047-30.6641Q49.8047-30.7129 49.8047-30.7861Q49.8047-30.8594 49.8047-30.957Q49.9023-32.373 50.9277-33.4717Q51.9531-34.5703 53.7109-35.7422Q56.543-37.5 58.3008-39.502Q60.0586-41.5039 60.0586-44.9707Q60.0586-49.9512 56.2012-52.6123Q52.3438-55.2734 47.1191-55.2734Q42.1387-55.2734 38.8672-53.3936Q35.5957-51.5137 34.6191-48.877Q34.1797-47.8027 34.1797-46.7773Q34.1797-45.2637 35.2051-44.3848Q36.2305-43.5059 37.5-43.5059Q38.6719-43.5059 39.4775-43.9453Q40.2832-44.3848 40.918-45.2148L41.6504-46.0449Q42.7734-47.4609 43.9941-48.0957Q45.2148-48.7305 46.6797-48.7305Q48.7793-48.7305 50.0977-47.5342Q51.416-46.3379 51.416-44.5312Q51.416-42.7246 50.1953-41.6016Q48.9746-40.4785 46.582-38.8672Q44.6289-37.4512 43.2373-35.791Q41.8457-34.1309 41.8457-31.4453Q41.8457-31.3965 41.8457-31.3477Q41.8457-31.2988 41.8457-31.25Q41.8457-27.5879 45.8496-27.5879ZM45.8008-15.5762Q47.7539-15.5762 49.1699-16.8457Q50.5859-18.1152 50.5859-20.0684Q50.5859-22.0215 49.1699-23.2666Q47.7539-24.5117 45.8008-24.5117Q43.8477-24.5117 42.4072-23.2422Q40.9668-21.9727 40.9668-20.0684Q40.9668-18.1641 42.4072-16.8701Q43.8477-15.5762 45.8008-15.5762Z"/>
  </g>
  <g id="Regular-S" transform="matrix(1 0 0 1 1403.58 696)">
   <path class="multicolor-0:systemOrangeColor hierarchical-0:secondary SFSymbolsPreviewFF9500" d="M46.2402 4.15039Q54.3457 4.15039 61.4746 1.07422Q68.6035-2.00195 74.0479-7.4707Q79.4922-12.9395 82.5928-20.0684Q85.6934-27.1973 85.6934-35.2539Q85.6934-43.3105 82.5928-50.4395Q79.4922-57.5684 74.0234-63.0371Q68.5547-68.5059 61.4258-71.582Q54.2969-74.6582 46.1914-74.6582Q38.1348-74.6582 31.0059-71.582Q23.877-68.5059 18.457-63.0371Q13.0371-57.5684 9.93652-50.4395Q6.83594-43.3105 6.83594-35.2539Q6.83594-27.1973 9.93652-20.0684Q13.0371-12.9395 18.4814-7.4707Q23.9258-2.00195 31.0547 1.07422Q38.1836 4.15039 46.2402 4.15039ZM46.2402-3.27148Q39.5996-3.27148 33.8135-5.7373Q28.0273-8.20312 23.6572-12.5977Q19.2871-16.9922 16.8213-22.8027Q14.3555-28.6133 14.3555-35.2539Q14.3555-41.8945 16.7969-47.7051Q19.2383-53.5156 23.6084-57.9102Q27.9785-62.3047 33.7646-64.7705Q39.5508-67.2363 46.1914-67.2363Q52.8809-67.2363 58.667-64.7705Q64.4531-62.3047 68.8477-57.9102Q73.2422-53.5156 75.7324-47.7051Q78.2227-41.8945 78.2227-35.2539Q78.2227-28.6133 75.7568-22.8027Q73.291-16.9922 68.9209-12.5977Q64.5508-8.20312 58.7402-5.7373Q52.9297-3.27148 46.2402-3.27148Z"/>
   <path class="multicolor-0:systemOrangeColor hierarchical-1:primary SFSymbolsPreviewFF9500" d="M45.459-27.2461Q47.1191-27.2461 48.0469-28.1494Q48.9746-29.0527 48.9746-30.3223Q48.9746-30.3711 48.9746-30.4443Q48.9746-30.5176 48.9746-30.6152Q48.9746-32.1289 49.9512-33.2764Q50.9277-34.4238 52.832-35.6934Q55.5664-37.4512 57.4707-39.4775Q59.375-41.5039 59.375-45.1172Q59.375-50.1465 55.542-52.71Q51.709-55.2734 46.7285-55.2734Q41.6992-55.2734 38.4766-53.3447Q35.2539-51.416 34.375-48.877Q33.9844-47.8027 33.9844-46.8262Q33.9844-45.4102 34.9365-44.6533Q35.8887-43.8965 36.9629-43.8965Q38.0859-43.8965 38.8184-44.3359Q39.5508-44.7754 40.1855-45.5566L41.0156-46.5332Q42.2363-48.0469 43.5547-48.7305Q44.873-49.4141 46.4844-49.4141Q48.877-49.4141 50.3174-48.1201Q51.7578-46.8262 51.7578-44.7754Q51.7578-42.8223 50.5127-41.626Q49.2676-40.4297 46.8262-38.7695Q44.873-37.3535 43.4326-35.6201Q41.9922-33.8867 41.9922-30.957Q41.9922-30.9082 41.9922-30.835Q41.9922-30.7617 41.9922-30.7129Q41.9922-27.2461 45.459-27.2461ZM45.3613-15.5273Q47.168-15.5273 48.5107-16.7725Q49.8535-18.0176 49.8535-19.8242Q49.8535-21.6797 48.5107-22.9004Q47.168-24.1211 45.3613-24.1211Q43.5547-24.1211 42.2119-22.876Q40.8691-21.6309 40.8691-19.8242Q40.8691-18.0664 42.2119-16.7969Q43.5547-15.5273 45.3613-15.5273Z"/>
  </g>
  <g id="Light-S" transform="matrix(1 0 0 1 1107.6 696)">
   <path class="multicolor-0:systemOrangeColor hierarchical-0:secondary SFSymbolsPreviewFF9500" d="M45.5078 3.41797Q53.4668 3.41797 60.4736 0.415039Q67.4805-2.58789 72.8271-7.95898Q78.1738-13.3301 81.2012-20.3125Q84.2285-27.2949 84.2285-35.2539Q84.2285-43.2129 81.2012-50.1953Q78.1738-57.1777 72.8027-62.5488Q67.4316-67.9199 60.4492-70.9229Q53.4668-73.9258 45.459-73.9258Q37.5488-73.9258 30.542-70.9229Q23.5352-67.9199 18.2129-62.5488Q12.8906-57.1777 9.86328-50.1953Q6.83594-43.2129 6.83594-35.2539Q6.83594-27.2949 9.86328-20.3125Q12.8906-13.3301 18.2373-7.95898Q23.584-2.58789 30.5908 0.415039Q37.5977 3.41797 45.5078 3.41797ZM45.5078-2.29492Q38.6719-2.29492 32.6904-4.83398Q26.709-7.37305 22.1924-11.9141Q17.6758-16.4551 15.1367-22.4365Q12.5977-28.418 12.5977-35.2539Q12.5977-42.0898 15.1367-48.0713Q17.6758-54.0527 22.1924-58.5938Q26.709-63.1348 32.666-65.6738Q38.623-68.2129 45.459-68.2129Q52.3438-68.2129 58.3252-65.6738Q64.3066-63.1348 68.8232-58.5938Q73.3398-54.0527 75.9277-48.0713Q78.5156-42.0898 78.5156-35.2539Q78.5156-28.418 75.9521-22.4365Q73.3887-16.4551 68.8721-11.9141Q64.3555-7.37305 58.374-4.83398Q52.3926-2.29492 45.5078-2.29492Z"/>
   <path class="multicolor-0:systemOrangeColor hierarchical-1:primary SFSymbolsPreviewFF9500" d="M44.7754-27.3926Q46.0449-27.3926 46.7773-28.1006Q47.5098-28.8086 47.5098-29.834Q47.5098-29.9805 47.5098-30.127Q47.5098-30.2734 47.5098-30.4688Q47.5098-32.0801 48.4619-33.3008Q49.4141-34.5215 51.4648-35.8887Q54.2969-37.7441 55.9814-39.7217Q57.666-41.6992 57.666-45.0195Q57.666-49.5117 54.1748-51.9775Q50.6836-54.4434 45.8984-54.4434Q41.0645-54.4434 38.0371-52.3926Q35.0098-50.3418 34.2773-47.6562Q33.9844-46.7773 33.9844-45.8496Q33.9844-44.6777 34.7412-44.0918Q35.498-43.5059 36.3281-43.5059Q37.2559-43.5059 37.8662-43.8721Q38.4766-44.2383 38.8672-44.9219L39.4531-45.752Q40.2832-47.5586 41.8945-48.7061Q43.5059-49.8535 45.7031-49.8535Q48.4863-49.8535 50.1221-48.4131Q51.7578-46.9727 51.7578-44.7266Q51.7578-42.7246 50.5615-41.4307Q49.3652-40.1367 46.8262-38.3789Q44.6777-36.8652 43.3838-35.1562Q42.0898-33.4473 42.0898-30.7617Q42.0898-30.5664 42.0898-30.4199Q42.0898-30.2734 42.0898-30.0781Q42.0898-27.3926 44.7754-27.3926ZM44.7266-16.2109Q46.2891-16.2109 47.4121-17.3096Q48.5352-18.4082 48.5352-19.9219Q48.5352-21.5332 47.4121-22.583Q46.2891-23.6328 44.7266-23.6328Q43.1641-23.6328 42.0166-22.5586Q40.8691-21.4844 40.8691-19.9219Q40.8691-18.4082 42.0166-17.3096Q43.1641-16.2109 44.7266-16.2109Z"/>
  </g>
  <g id="Thin-S" transform="matrix(1 0 0 1 811.867 696)">
   <path class="multicolor-0:systemOrangeColor hierarchical-0:secondary SFSymbolsPreviewFF9500" d="M44.5312 2.44141Q52.3438 2.44141 59.1553-0.488281Q65.9668-3.41797 71.1914-8.64258Q76.416-13.8672 79.3457-20.6787Q82.2754-27.4902 82.2754-35.2539Q82.2754-43.0176 79.3457-49.8291Q76.416-56.6406 71.1914-61.8652Q65.9668-67.0898 59.1553-70.0195Q52.3438-72.9492 44.5312-72.9492Q36.7676-72.9492 29.9316-70.0195Q23.0957-67.0898 17.9199-61.8652Q12.7441-56.6406 9.79004-49.8291Q6.83594-43.0176 6.83594-35.2539Q6.83594-27.4902 9.79004-20.6787Q12.7441-13.8672 17.9199-8.64258Q23.0957-3.41797 29.9316-0.488281Q36.7676 2.44141 44.5312 2.44141ZM44.5312-0.927734Q37.4512-0.927734 31.2256-3.58887Q25-6.25 20.2881-10.9619Q15.5762-15.6738 12.915-21.9238Q10.2539-28.1738 10.2539-35.2539Q10.2539-42.334 12.915-48.584Q15.5762-54.834 20.2881-59.5459Q25-64.2578 31.2256-66.9189Q37.4512-69.5801 44.5312-69.5801Q51.6602-69.5801 57.8857-66.9189Q64.1113-64.2578 68.8232-59.5459Q73.5352-54.834 76.1963-48.584Q78.8574-42.334 78.8574-35.2539Q78.8574-28.1738 76.1963-21.9238Q73.5352-15.6738 68.8232-10.9619Q64.1113-6.25 57.8857-3.58887Q51.6602-0.927734 44.5312-0.927734Z"/>
   <path class="multicolor-0:systemOrangeColor hierarchical-1:primary SFSymbolsPreviewFF9500" d="M43.8965-27.5391Q44.6777-27.5391 45.0928-28.0029Q45.5078-28.4668 45.5078-29.1504Q45.5078-29.4434 45.5078-29.7119Q45.5078-29.9805 45.5078-30.3223Q45.5078-32.0801 46.4355-33.3496Q47.3633-34.6191 49.6094-36.1328Q52.5879-38.1348 53.9795-40.0635Q55.3711-41.9922 55.3711-44.8242Q55.3711-48.6328 52.3193-50.9766Q49.2676-53.3203 44.7754-53.3203Q40.2344-53.3203 37.4512-51.1475Q34.668-48.9746 34.1797-46.0449Q34.0332-45.459 34.0332-44.5312Q34.0332-43.75 34.4971-43.3594Q34.9609-42.9688 35.5469-42.9688Q36.1328-42.9688 36.5479-43.2617Q36.9629-43.5547 37.1094-44.0918L37.3535-44.6777Q37.6465-46.875 39.6484-48.6328Q41.6504-50.3906 44.6289-50.3906Q47.9492-50.3906 49.8779-48.7549Q51.8066-47.1191 51.8066-44.6289Q51.8066-42.627 50.6592-41.1865Q49.5117-39.7461 46.7773-37.8418Q44.4336-36.2305 43.3105-34.5703Q42.1875-32.9102 42.1875-30.5176Q42.1875-30.1758 42.1875-29.8828Q42.1875-29.5898 42.1875-29.248Q42.1875-27.5391 43.8965-27.5391ZM43.7988-17.1387Q45.0684-17.1387 45.9229-18.0176Q46.7773-18.8965 46.7773-20.0684Q46.7773-21.2891 45.9229-22.1436Q45.0684-22.998 43.7988-22.998Q42.627-22.998 41.7236-22.1436Q40.8203-21.2891 40.8203-20.0684Q40.8203-18.8965 41.7236-18.0176Q42.627-17.1387 43.7988-17.1387Z"/>
  </g>
  <g id="Ultralight-S" transform="matrix(1 0 0 1 515.644 696)">
   <path class="multicolor-0:systemOrangeColor hierarchical-0:secondary SFSymbolsPreviewFF9500" d="M44.043 1.95312Q51.7578 1.95312 58.4717-0.927734Q65.1855-3.80859 70.3369-8.95996Q75.4883-14.1113 78.3936-20.8252Q81.2988-27.5391 81.2988-35.2539Q81.2988-42.9688 78.3936-49.6826Q75.4883-56.3965 70.3369-61.5479Q65.1855-66.6992 58.4717-69.5801Q51.7578-72.4609 44.043-72.4609Q36.377-72.4609 29.6387-69.5801Q22.9004-66.6992 17.7734-61.5479Q12.6465-56.3965 9.74121-49.6826Q6.83594-42.9688 6.83594-35.2539Q6.83594-27.5391 9.74121-20.8252Q12.6465-14.1113 17.7734-8.95996Q22.9004-3.80859 29.6387-0.927734Q36.377 1.95312 44.043 1.95312ZM44.043-0.292969Q36.8164-0.292969 30.4688-3.00293Q24.1211-5.71289 19.3115-10.5225Q14.502-15.332 11.7676-21.6797Q9.0332-28.0273 9.0332-35.2539Q9.0332-42.4805 11.7676-48.8281Q14.502-55.1758 19.3115-59.9854Q24.1211-64.7949 30.4688-67.5049Q36.8164-70.2148 44.043-70.2148Q51.2695-70.2148 57.6416-67.5049Q64.0137-64.7949 68.7988-59.9854Q73.584-55.1758 76.3184-48.8281Q79.0527-42.4805 79.0527-35.2539Q79.0527-28.0273 76.3428-21.6797Q73.6328-15.332 68.8232-10.5225Q64.0137-5.71289 57.666-3.00293Q51.3184-0.292969 44.043-0.292969Z"/>
   <path class="multicolor-0:systemOrangeColor hierarchical-1:primary SFSymbolsPreviewFF9500" d="M43.4082-27.6367Q43.8965-27.6367 44.1895-27.9785Q44.4824-28.3203 44.4824-28.8086Q44.4824-29.1992 44.4824-29.5166Q44.4824-29.834 44.4824-30.2246Q44.4824-32.0312 45.4102-33.3496Q46.3379-34.668 48.6328-36.2305Q51.6602-38.3301 52.9053-40.2344Q54.1504-42.1387 54.1504-44.7754Q54.1504-48.1934 51.3428-50.4883Q48.5352-52.7832 44.1406-52.7832Q39.7461-52.7832 37.1094-50.5127Q34.4727-48.2422 34.082-45.2148Q33.9844-44.7754 33.9844-43.8965Q33.9844-43.2617 34.3018-42.9688Q34.6191-42.6758 35.0586-42.6758Q35.5469-42.6758 35.8887-42.9199Q36.2305-43.1641 36.2305-43.6523L36.2793-44.1406Q36.3281-46.5332 38.501-48.6084Q40.6738-50.6836 44.043-50.6836Q47.6074-50.6836 49.6826-48.9502Q51.7578-47.2168 51.7578-44.5801Q51.7578-42.5781 50.6592-41.0645Q49.5605-39.5508 46.7285-37.5977Q44.2871-35.8887 43.2617-34.2529Q42.2363-32.6172 42.2363-30.3711Q42.2363-29.9316 42.2363-29.5898Q42.2363-29.248 42.2363-28.8574Q42.2363-27.6367 43.4082-27.6367ZM43.3594-17.627Q44.4336-17.627 45.166-18.3838Q45.8984-19.1406 45.8984-20.166Q45.8984-21.1914 45.166-21.9238Q44.4336-22.6562 43.3594-22.6562Q42.2852-22.6562 41.5527-21.9238Q40.8203-21.1914 40.8203-20.166Q40.8203-19.1406 41.5527-18.3838Q42.2852-17.627 43.3594-17.627Z"/>
  </g>
 </g>
</svg>
