<?xml version="1.0" encoding="UTF-8"?>
<!--Generator: Apple Native CoreSVG 149-->
<!DOCTYPE svg
PUBLIC "-//W3C//DTD SVG 1.1//EN"
       "http://www.w3.org/Graphics/SVG/1.1/DTD/svg11.dtd">
<svg version="1.1" xmlns="http://www.w3.org/2000/svg" xmlns:xlink="http://www.w3.org/1999/xlink" width="3300" height="2200">
 <!--glyph: "uni1001AA.medium", point size: 100.000000, font version: "Version 16.0d18e1", template writer version: "8"-->
 <g id="Notes">
  <rect height="2200" id="artboard" style="fill:white;opacity:1" width="3300" x="0" y="0"/>
  <line id="" style="fill:none;stroke:black;opacity:1;stroke-width:0.5;" x1="263" x2="3036" y1="292" y2="292"/>
  <text style="stroke:none;fill:black;font-family:-apple-system,&quot;SF Pro Display&quot;,&quot;SF Pro Text&quot;,Helvetica,sans-serif;font-weight:bold;" transform="matrix(1 0 0 1 263 322)">Weight/Scale Variations</text>
  <text style="stroke:none;fill:black;font-family:-apple-system,&quot;SF Pro Display&quot;,&quot;SF Pro Text&quot;,Helvetica,sans-serif;text-anchor:middle;" transform="matrix(1 0 0 1 559.711 322)">Ultralight</text>
  <text style="stroke:none;fill:black;font-family:-apple-system,&quot;SF Pro Display&quot;,&quot;SF Pro Text&quot;,Helvetica,sans-serif;text-anchor:middle;" transform="matrix(1 0 0 1 856.422 322)">Thin</text>
  <text style="stroke:none;fill:black;font-family:-apple-system,&quot;SF Pro Display&quot;,&quot;SF Pro Text&quot;,Helvetica,sans-serif;text-anchor:middle;" transform="matrix(1 0 0 1 1153.13 322)">Light</text>
  <text style="stroke:none;fill:black;font-family:-apple-system,&quot;SF Pro Display&quot;,&quot;SF Pro Text&quot;,Helvetica,sans-serif;text-anchor:middle;" transform="matrix(1 0 0 1 1449.84 322)">Regular</text>
  <text style="stroke:none;fill:black;font-family:-apple-system,&quot;SF Pro Display&quot;,&quot;SF Pro Text&quot;,Helvetica,sans-serif;text-anchor:middle;" transform="matrix(1 0 0 1 1746.56 322)">Medium</text>
  <text style="stroke:none;fill:black;font-family:-apple-system,&quot;SF Pro Display&quot;,&quot;SF Pro Text&quot;,Helvetica,sans-serif;text-anchor:middle;" transform="matrix(1 0 0 1 2043.27 322)">Semibold</text>
  <text style="stroke:none;fill:black;font-family:-apple-system,&quot;SF Pro Display&quot;,&quot;SF Pro Text&quot;,Helvetica,sans-serif;text-anchor:middle;" transform="matrix(1 0 0 1 2339.98 322)">Bold</text>
  <text style="stroke:none;fill:black;font-family:-apple-system,&quot;SF Pro Display&quot;,&quot;SF Pro Text&quot;,Helvetica,sans-serif;text-anchor:middle;" transform="matrix(1 0 0 1 2636.69 322)">Heavy</text>
  <text style="stroke:none;fill:black;font-family:-apple-system,&quot;SF Pro Display&quot;,&quot;SF Pro Text&quot;,Helvetica,sans-serif;text-anchor:middle;" transform="matrix(1 0 0 1 2933.4 322)">Black</text>
  <line id="" style="fill:none;stroke:black;opacity:1;stroke-width:0.5;" x1="263" x2="3036" y1="1903" y2="1903"/>
  <g id="" transform="matrix(1 0 0 1 263 1933)">
   <path d="M9.24805 0.830078C13.5547 0.830078 17.1387-2.74414 17.1387-7.05078C17.1387-11.3574 13.5449-14.9316 9.23828-14.9316C4.94141-14.9316 1.36719-11.3574 1.36719-7.05078C1.36719-2.74414 4.95117 0.830078 9.24805 0.830078ZM9.24805-0.654297C5.70312-0.654297 2.87109-3.49609 2.87109-7.05078C2.87109-10.6055 5.69336-13.4473 9.23828-13.4473C12.793-13.4473 15.6348-10.6055 15.6445-7.05078C15.6543-3.49609 12.8027-0.654297 9.24805-0.654297ZM6.39648-6.31836L8.50586-6.31836L8.50586-4.19922C8.50586-3.75977 8.79883-3.45703 9.22852-3.45703C9.67773-3.45703 9.9707-3.75977 9.9707-4.19922L9.9707-6.31836L12.0996-6.31836C12.5391-6.31836 12.8418-6.61133 12.8418-7.04102C12.8418-7.48047 12.5391-7.7832 12.0996-7.7832L9.9707-7.7832L9.9707-9.89258C9.9707-10.3418 9.67773-10.6445 9.22852-10.6445C8.79883-10.6445 8.50586-10.3418 8.50586-9.89258L8.50586-7.7832L6.39648-7.7832C5.94727-7.7832 5.64453-7.48047 5.64453-7.04102C5.64453-6.61133 5.94727-6.31836 6.39648-6.31836Z"/>
  </g>
  <g id="" transform="matrix(1 0 0 1 281.506 1933)">
   <path d="M11.709 2.91016C17.1582 2.91016 21.6699-1.61133 21.6699-7.05078C21.6699-12.5 17.1484-17.0117 11.6992-17.0117C6.25977-17.0117 1.74805-12.5 1.74805-7.05078C1.74805-1.61133 6.26953 2.91016 11.709 2.91016ZM11.709 1.25C7.09961 1.25 3.41797-2.44141 3.41797-7.05078C3.41797-11.6602 7.08984-15.3516 11.6992-15.3516C16.3086-15.3516 20-11.6602 20.0098-7.05078C20.0195-2.44141 16.3184 1.25 11.709 1.25ZM7.98828-6.23047L10.8789-6.23047L10.8789-3.32031C10.8789-2.83203 11.2109-2.5 11.6895-2.5C12.1777-2.5 12.5195-2.83203 12.5195-3.32031L12.5195-6.23047L15.4297-6.23047C15.918-6.23047 16.25-6.5625 16.25-7.04102C16.25-7.5293 15.918-7.87109 15.4297-7.87109L12.5195-7.87109L12.5195-10.7617C12.5195-11.2695 12.1777-11.6016 11.6895-11.6016C11.2109-11.6016 10.8789-11.2598 10.8789-10.7617L10.8789-7.87109L7.98828-7.87109C7.48047-7.87109 7.14844-7.5293 7.14844-7.04102C7.14844-6.5625 7.49023-6.23047 7.98828-6.23047Z"/>
  </g>
  <g id="" transform="matrix(1 0 0 1 304.924 1933)">
   <path d="M14.9707 5.66406C21.9336 5.66406 27.6953-0.0976562 27.6953-7.05078C27.6953-14.0137 21.9238-19.7754 14.9609-19.7754C8.00781-19.7754 2.25586-14.0137 2.25586-7.05078C2.25586-0.0976562 8.01758 5.66406 14.9707 5.66406ZM14.9707 3.84766C8.93555 3.84766 4.08203-1.01562 4.08203-7.05078C4.08203-13.0957 8.92578-17.9492 14.9609-17.9492C21.0059-17.9492 25.8594-13.0957 25.8691-7.05078C25.8789-1.01562 21.0156 3.84766 14.9707 3.84766ZM10.0586-6.14258L14.0625-6.14258L14.0625-2.12891C14.0625-1.5918 14.4336-1.2207 14.9512-1.2207C15.4883-1.2207 15.8594-1.5918 15.8594-2.12891L15.8594-6.14258L19.8828-6.14258C20.4102-6.14258 20.791-6.51367 20.791-7.03125C20.791-7.56836 20.4199-7.94922 19.8828-7.94922L15.8594-7.94922L15.8594-11.9531C15.8594-12.5098 15.4883-12.8809 14.9512-12.8809C14.4336-12.8809 14.0625-12.5 14.0625-11.9531L14.0625-7.94922L10.0586-7.94922C9.50195-7.94922 9.13086-7.56836 9.13086-7.03125C9.13086-6.51367 9.51172-6.14258 10.0586-6.14258Z"/>
  </g>
  <text style="stroke:none;fill:black;font-family:-apple-system,&quot;SF Pro Display&quot;,&quot;SF Pro Text&quot;,Helvetica,sans-serif;font-weight:bold;" transform="matrix(1 0 0 1 263 1953)">Design Variations</text>
  <text style="stroke:none;fill:black;font-family:-apple-system,&quot;SF Pro Display&quot;,&quot;SF Pro Text&quot;,Helvetica,sans-serif;" transform="matrix(1 0 0 1 263 1971)">Symbols are supported in up to nine weights and three scales.</text>
  <text style="stroke:none;fill:black;font-family:-apple-system,&quot;SF Pro Display&quot;,&quot;SF Pro Text&quot;,Helvetica,sans-serif;" transform="matrix(1 0 0 1 263 1989)">For optimal layout with text and other symbols, vertically align</text>
  <text style="stroke:none;fill:black;font-family:-apple-system,&quot;SF Pro Display&quot;,&quot;SF Pro Text&quot;,Helvetica,sans-serif;" transform="matrix(1 0 0 1 263 2007)">symbols with the adjacent text.</text>
  <line id="" style="fill:none;stroke:#00AEEF;stroke-width:0.5;opacity:1.0;" x1="776" x2="776" y1="1919" y2="1933"/>
  <g id="" transform="matrix(1 0 0 1 776 1933)">
   <path d="M3.31055 0.126953C3.82812 0.126953 4.08203-0.0683594 4.26758-0.605469L5.52734-4.0625L11.2891-4.0625L12.5488-0.605469C12.7344-0.0683594 12.9883 0.126953 13.4961 0.126953C14.0137 0.126953 14.3457-0.185547 14.3457-0.673828C14.3457-0.839844 14.3164-0.986328 14.2383-1.20117L9.6582-13.3887C9.43359-13.9941 9.0332-14.2871 8.4082-14.2871C7.80273-14.2871 7.39258-13.9941 7.17773-13.3984L2.59766-1.19141C2.51953-0.976562 2.49023-0.830078 2.49023-0.664062C2.49023-0.175781 2.80273 0.126953 3.31055 0.126953ZM6.00586-5.53711L8.37891-12.1094L8.42773-12.1094L10.8008-5.53711Z"/>
  </g>
  <line id="" style="fill:none;stroke:#00AEEF;stroke-width:0.5;opacity:1.0;" x1="792.836" x2="792.836" y1="1919" y2="1933"/>
  <text style="stroke:none;fill:black;font-family:-apple-system,&quot;SF Pro Display&quot;,&quot;SF Pro Text&quot;,Helvetica,sans-serif;font-weight:bold;" transform="matrix(1 0 0 1 776 1953)">Margins</text>
  <text style="stroke:none;fill:black;font-family:-apple-system,&quot;SF Pro Display&quot;,&quot;SF Pro Text&quot;,Helvetica,sans-serif;" transform="matrix(1 0 0 1 776 1971)">Leading and trailing margins on the left and right side of each symbol</text>
  <text style="stroke:none;fill:black;font-family:-apple-system,&quot;SF Pro Display&quot;,&quot;SF Pro Text&quot;,Helvetica,sans-serif;" transform="matrix(1 0 0 1 776 1989)">can be adjusted by modifying the x-location of the margin guidelines.</text>
  <text style="stroke:none;fill:black;font-family:-apple-system,&quot;SF Pro Display&quot;,&quot;SF Pro Text&quot;,Helvetica,sans-serif;" transform="matrix(1 0 0 1 776 2007)">Modifications are automatically applied proportionally to all</text>
  <text style="stroke:none;fill:black;font-family:-apple-system,&quot;SF Pro Display&quot;,&quot;SF Pro Text&quot;,Helvetica,sans-serif;" transform="matrix(1 0 0 1 776 2025)">scales and weights.</text>
  <g id="" transform="matrix(1 0 0 1 1289 1933)">
   <path d="M2.8418 1.86523L4.54102 3.57422C5.40039 4.44336 6.38672 4.38477 7.31445 3.35938L17.4902-7.85156C17.7539-7.76367 18.0273-7.7832 18.3398-7.8418L19.4043-8.03711L20.0684-7.36328L20.0293-6.80664C19.9902-6.30859 20.1172-5.92773 20.6055-5.44922L21.3672-4.70703C21.8457-4.22852 22.4609-4.19922 22.9297-4.66797L25.8398-7.58789C26.3086-8.05664 26.2891-8.65234 25.8105-9.13086L25.0391-9.89258C24.5605-10.3711 24.1895-10.5273 23.7109-10.4883L23.1348-10.4395L22.4902-11.0742L22.7344-12.1973C22.8613-12.7637 22.7051-13.2031 22.1191-13.7891L19.9219-15.9766C16.582-19.2969 12.1484-19.2188 9.25781-16.3281C8.83789-15.918 8.80859-15.3418 9.04297-14.9512C9.27734-14.5898 9.73633-14.3555 10.3809-14.5215C11.8457-14.8633 13.3691-14.9219 14.7949-13.9844L14.209-12.5293C14.0137-12.0508 13.9844-11.6504 14.1113-11.2891L3.04688-0.898438C2.06055 0.0195312 1.98242 0.996094 2.8418 1.86523ZM10.752-15.957C13.1836-17.7344 16.4746-17.4316 18.7012-15.2051L21.1328-12.793C21.3672-12.5586 21.4062-12.373 21.3379-12.0312L21.0156-10.5469L22.5195-9.0625L23.5059-9.12109C23.7598-9.13086 23.8379-9.11133 24.0332-8.91602L24.6094-8.33984L22.168-5.89844L21.5918-6.47461C21.3965-6.66992 21.3672-6.74805 21.377-7.01172L21.4453-7.98828L19.9512-9.47266L18.4277-9.21875C18.1055-9.15039 17.959-9.17969 17.7148-9.41406L15.7129-11.416C15.459-11.6504 15.4297-11.8164 15.5859-12.1875L16.4648-14.2773C14.9023-15.7324 12.8711-16.3574 10.8398-15.7617C10.6836-15.7227 10.625-15.8496 10.752-15.957ZM5.27344 2.30469L4.10156 1.14258C3.63281 0.683594 3.74023 0.341797 4.14062-0.0195312L14.9512-10.1953L16.416-8.71094L6.42578 2.27539C6.07422 2.67578 5.74219 2.77344 5.27344 2.30469Z"/>
  </g>
  <text style="stroke:none;fill:black;font-family:-apple-system,&quot;SF Pro Display&quot;,&quot;SF Pro Text&quot;,Helvetica,sans-serif;font-weight:bold;" transform="matrix(1 0 0 1 1289 1953)">Exporting</text>
  <text style="stroke:none;fill:black;font-family:-apple-system,&quot;SF Pro Display&quot;,&quot;SF Pro Text&quot;,Helvetica,sans-serif;" transform="matrix(1 0 0 1 1289 1971)">Symbols should be outlined when exporting to ensure the</text>
  <text style="stroke:none;fill:black;font-family:-apple-system,&quot;SF Pro Display&quot;,&quot;SF Pro Text&quot;,Helvetica,sans-serif;" transform="matrix(1 0 0 1 1289 1989)">design is preserved when submitting to Xcode.</text>
  <text id="template-version" style="stroke:none;fill:black;font-family:-apple-system,&quot;SF Pro Display&quot;,&quot;SF Pro Text&quot;,Helvetica,sans-serif;text-anchor:end;" transform="matrix(1 0 0 1 3036 1933)">Template v.2.0</text>
  <text style="stroke:none;fill:black;font-family:-apple-system,&quot;SF Pro Display&quot;,&quot;SF Pro Text&quot;,Helvetica,sans-serif;text-anchor:end;" transform="matrix(1 0 0 1 3036 1951)">Requires Xcode 12 or greater</text>
  <text style="stroke:none;fill:black;font-family:-apple-system,&quot;SF Pro Display&quot;,&quot;SF Pro Text&quot;,Helvetica,sans-serif;text-anchor:end;" transform="matrix(1 0 0 1 3036 1969)">Generated from globe</text>
  <text style="stroke:none;fill:black;font-family:-apple-system,&quot;SF Pro Display&quot;,&quot;SF Pro Text&quot;,Helvetica,sans-serif;text-anchor:end;" transform="matrix(1 0 0 1 3036 1987)">Typeset at 100 points</text>
  <text style="stroke:none;fill:black;font-family:-apple-system,&quot;SF Pro Display&quot;,&quot;SF Pro Text&quot;,Helvetica,sans-serif;" transform="matrix(1 0 0 1 263 726)">Small</text>
  <text style="stroke:none;fill:black;font-family:-apple-system,&quot;SF Pro Display&quot;,&quot;SF Pro Text&quot;,Helvetica,sans-serif;" transform="matrix(1 0 0 1 263 1156)">Medium</text>
  <text style="stroke:none;fill:black;font-family:-apple-system,&quot;SF Pro Display&quot;,&quot;SF Pro Text&quot;,Helvetica,sans-serif;" transform="matrix(1 0 0 1 263 1586)">Large</text>
 </g>
 <g id="Guides">
  <g id="H-reference" style="fill:#27AAE1;stroke:none;" transform="matrix(1 0 0 1 339 696)">
   <path d="M0.976562 0L3.66211 0L12.9883-24.4629L45.752-24.4629L55.127 0L57.7637 0L30.6152-70.459L28.125-70.459ZM29.3457-67.1387L29.4434-67.1387L44.873-26.709L13.8672-26.709Z"/>
  </g>
  <line id="Baseline-S" style="fill:none;stroke:#27AAE1;opacity:1;stroke-width:0.5;" x1="263" x2="3036" y1="696" y2="696"/>
  <line id="Capline-S" style="fill:none;stroke:#27AAE1;opacity:1;stroke-width:0.5;" x1="263" x2="3036" y1="625.541" y2="625.541"/>
  <g id="H-reference" style="fill:#27AAE1;stroke:none;" transform="matrix(1 0 0 1 339 1126)">
   <path d="M0.976562 0L3.66211 0L12.9883-24.4629L45.752-24.4629L55.127 0L57.7637 0L30.6152-70.459L28.125-70.459ZM29.3457-67.1387L29.4434-67.1387L44.873-26.709L13.8672-26.709Z"/>
  </g>
  <line id="Baseline-M" style="fill:none;stroke:#27AAE1;opacity:1;stroke-width:0.5;" x1="263" x2="3036" y1="1126" y2="1126"/>
  <line id="Capline-M" style="fill:none;stroke:#27AAE1;opacity:1;stroke-width:0.5;" x1="263" x2="3036" y1="1055.54" y2="1055.54"/>
  <g id="H-reference" style="fill:#27AAE1;stroke:none;" transform="matrix(1 0 0 1 339 1556)">
   <path d="M0.976562 0L3.66211 0L12.9883-24.4629L45.752-24.4629L55.127 0L57.7637 0L30.6152-70.459L28.125-70.459ZM29.3457-67.1387L29.4434-67.1387L44.873-26.709L13.8672-26.709Z"/>
  </g>
  <line id="Baseline-L" style="fill:none;stroke:#27AAE1;opacity:1;stroke-width:0.5;" x1="263" x2="3036" y1="1556" y2="1556"/>
  <line id="Capline-L" style="fill:none;stroke:#27AAE1;opacity:1;stroke-width:0.5;" x1="263" x2="3036" y1="1485.54" y2="1485.54"/>
  <line id="left-margin" style="fill:none;stroke:#00AEEF;stroke-width:0.5;opacity:1.0;" x1="1391.3" x2="1391.3" y1="1030.79" y2="1150.12"/>
  <line id="right-margin" style="fill:none;stroke:#00AEEF;stroke-width:0.5;opacity:1.0;" x1="1508.39" x2="1508.39" y1="1030.79" y2="1150.12"/>
 </g>
 <g id="Symbols">
  <g id="Black-L" transform="matrix(1 0 0 1 2854.05 1556)">
   <path d="M79.3457 32.8613C116.748 32.8613 147.412 2.19727 147.412-35.2051C147.412-72.6074 116.748-103.271 79.2969-103.271C41.8945-103.271 11.2793-72.6074 11.2793-35.2051C11.2793 2.19727 41.9434 32.8613 79.3457 32.8613ZM40.9668-70.8008C46.7773-77.0996 54.1504-81.9824 62.4023-84.8145C57.7637-80.2734 53.8574-73.9258 51.0254-66.2598C47.0215-67.5293 43.6035-69.043 40.9668-70.8008ZM96.2891-84.8145C104.541-81.9336 111.914-77.0996 117.725-70.8008C115.088-69.043 111.67-67.4805 107.666-66.2598C104.834-73.877 100.928-80.2734 96.2891-84.8145ZM84.8145-80.3711C89.3555-77.5879 93.5059-71.5332 96.6309-63.7207C92.8711-63.1348 88.916-62.7441 84.8145-62.5488ZM62.0605-63.7207C65.1367-71.5332 69.3359-77.5879 73.877-80.3711L73.877-62.5488C69.7754-62.7441 65.8203-63.1348 62.0605-63.7207ZM27.1973-40.7227C28.0273-48.5352 30.5664-55.8105 34.4727-62.2559C37.9395-59.7168 42.5781-57.5684 47.9492-55.8594C46.875-51.123 46.1914-46.0449 45.8984-40.7227ZM112.793-40.7227C112.5-46.0449 111.816-51.123 110.742-55.8594C116.113-57.5684 120.703-59.7168 124.219-62.2559C128.125-55.8105 130.664-48.5352 131.494-40.7227ZM84.8145-40.7227L84.8145-51.6113C90.0391-51.8555 95.1172-52.3926 99.8047-53.2227C100.732-49.2676 101.367-45.0195 101.66-40.7227ZM57.0312-40.7227C57.3242-45.0195 57.959-49.2676 58.8867-53.2227C63.5742-52.3926 68.6523-51.8555 73.877-51.6113L73.877-40.7227ZM27.1484-29.7852L45.8496-29.7852C46.1426-24.3652 46.875-19.1895 47.9492-14.3555C42.627-12.6465 38.0371-10.5469 34.5703-8.00781C30.6152-14.502 27.9785-21.9238 27.1484-29.7852ZM56.9824-29.7852L73.877-29.7852L73.877-18.6035C68.6523-18.4082 63.5742-17.8223 58.8867-16.9922C57.959-21.0449 57.2754-25.3906 56.9824-29.7852ZM84.8145-18.6035L84.8145-29.7852L101.66-29.7852C101.367-25.3906 100.732-21.0938 99.8047-16.9922C95.0684-17.8223 90.0391-18.4082 84.8145-18.6035ZM110.693-14.3555C111.816-19.1895 112.549-24.3652 112.793-29.7852L131.494-29.7852C130.713-21.9238 128.076-14.502 124.121-8.00781C120.654-10.5469 116.064-12.6465 110.693-14.3555ZM62.1094-6.49414C65.8203-7.08008 69.7754-7.4707 73.877-7.66602L73.877 9.96094C69.3359 7.22656 65.1855 1.2207 62.1094-6.49414ZM84.8145-7.66602C88.916-7.4707 92.8223-7.08008 96.5332-6.49414C93.457 1.2207 89.3066 7.17773 84.8145 9.96094ZM107.617-4.00391C111.572-2.73438 114.99-1.2207 117.627 0.488281C111.816 6.73828 104.492 11.5723 96.3379 14.4043C100.879 9.86328 104.785 3.56445 107.617-4.00391ZM41.0645 0.488281C43.7012-1.2207 47.1191-2.73438 51.0742-4.00391C53.9062 3.56445 57.7637 9.86328 62.3535 14.4043C54.1504 11.5723 46.875 6.73828 41.0645 0.488281Z"/>
  </g>
  <g id="Heavy-L" transform="matrix(1 0 0 1 2558.39 1556)">
   <path d="M78.2715 31.7871C115.088 31.7871 145.312 1.5625 145.312-35.2051C145.312-72.0215 115.039-102.246 78.2715-102.246C41.4551-102.246 11.2793-72.0215 11.2793-35.2051C11.2793 1.5625 41.5039 31.7871 78.2715 31.7871ZM39.8926-72.0703C45.9473-78.418 53.5645-83.252 62.0605-85.9863C57.4219-81.4941 53.4668-75 50.5371-67.1875C46.3379-68.5059 42.7246-70.166 39.8926-72.0703ZM94.5312-85.9863C103.027-83.2031 110.596-78.3691 116.699-72.0703C113.867-70.166 110.254-68.5059 106.006-67.1875C103.125-75 99.1699-81.4453 94.5312-85.9863ZM83.3008-82.373C88.1836-79.6875 92.6758-73.291 95.8984-64.8438C91.9434-64.1602 87.7441-63.7207 83.3008-63.5254ZM60.6445-64.8438C63.916-73.291 68.4082-79.6875 73.2422-82.373L73.2422-63.5254C68.8477-63.7207 64.5996-64.1602 60.6445-64.8438ZM25.1953-40.2832C26.0254-49.1211 29.0527-57.3242 33.7402-64.3555C37.3047-61.7188 42.0898-59.4727 47.7051-57.666C46.4355-52.2949 45.6055-46.4355 45.3125-40.2832ZM111.23-40.2832C110.938-46.4355 110.156-52.2949 108.887-57.666C114.453-59.4727 119.238-61.7188 122.852-64.3555C127.49-57.3242 130.518-49.0723 131.396-40.2832ZM83.3008-40.2832L83.3008-53.5156C88.7207-53.7109 93.9941-54.2969 98.8281-55.2246C99.9512-50.5371 100.732-45.5078 101.025-40.2832ZM55.5664-40.2832C55.8594-45.5078 56.5918-50.5371 57.7148-55.2246C62.5977-54.2969 67.8223-53.7109 73.2422-53.5156L73.2422-40.2832ZM25.1953-30.2246L45.3125-30.2246C45.6055-23.9746 46.4355-18.0176 47.7051-12.5488C42.1875-10.791 37.4023-8.54492 33.8379-5.9082C29.1016-13.0371 26.0254-21.3379 25.1953-30.2246ZM55.5176-30.2246L73.2422-30.2246L73.2422-16.6992C67.8223-16.5039 62.5977-15.918 57.7637-14.9902C56.5918-19.8242 55.8594-24.9512 55.5176-30.2246ZM83.3008-16.6992L83.3008-30.2246L101.025-30.2246C100.732-24.9512 99.9512-19.8242 98.8281-14.9902C93.9453-15.918 88.7207-16.5039 83.3008-16.6992ZM108.838-12.5488C110.156-18.0176 110.986-23.9746 111.279-30.2246L131.396-30.2246C130.566-21.3379 127.49-13.0371 122.754-5.9082C119.141-8.54492 114.404-10.791 108.838-12.5488ZM83.3008-6.68945C87.6953-6.49414 91.8945-6.05469 95.8496-5.41992C92.5781 2.92969 88.1348 9.27734 83.3008 11.9629ZM60.7422-5.41992C64.6484-6.05469 68.8477-6.49414 73.2422-6.68945L73.2422 11.9629C68.4082 9.27734 63.9648 2.92969 60.7422-5.41992ZM105.957-3.02734C110.156-1.75781 113.721-0.146484 116.553 1.75781C110.498 8.00781 102.979 12.793 94.5801 15.5273C99.1699 11.0352 103.076 4.63867 105.957-3.02734ZM40.0391 1.75781C42.8223-0.146484 46.4355-1.75781 50.5859-3.02734C53.4668 4.63867 57.373 11.0352 61.9629 15.5273C53.5645 12.793 46.0449 8.00781 40.0391 1.75781Z"/>
  </g>
  <g id="Bold-L" transform="matrix(1 0 0 1 2262.88 1556)">
   <path d="M77.0996 30.5664C113.232 30.5664 142.92 0.878906 142.92-35.2539C142.92-71.3379 113.184-101.074 77.0508-101.074C40.9668-101.074 11.2793-71.3379 11.2793-35.2539C11.2793 0.878906 41.0156 30.5664 77.0996 30.5664ZM38.7207-73.4863C45.0195-79.834 52.8809-84.668 61.6211-87.3047C56.9336-82.7637 52.9785-76.2207 50-68.2129C45.5566-69.6289 41.748-71.3867 38.7207-73.4863ZM92.5781-87.2559C101.318-84.6191 109.18-79.7852 115.479-73.4863C112.451-71.3867 108.643-69.6289 104.199-68.2129C101.27-76.2207 97.2656-82.7637 92.5781-87.2559ZM81.6406-84.5703C86.8652-82.0312 91.6992-75.2441 95.1172-66.0645C90.918-65.332 86.4258-64.8438 81.6406-64.6973ZM59.082-66.0645C62.5488-75.2441 67.334-82.0312 72.5586-84.5703L72.5586-64.6973C67.8223-64.8438 63.2812-65.332 59.082-66.0645ZM22.998-39.7949C23.8281-49.7559 27.3926-58.9844 32.959-66.6992C36.6699-63.916 41.6504-61.5234 47.4121-59.7168C45.9473-53.6133 44.9707-46.9238 44.6777-39.7949ZM109.521-39.7949C109.229-46.9238 108.252-53.6133 106.787-59.7168C112.549-61.5234 117.529-63.916 121.24-66.6992C126.807-58.9355 130.371-49.7559 131.25-39.7949ZM53.9062-39.7949C54.248-45.9961 55.127-52.002 56.4453-57.4219C61.4746-56.4453 66.9434-55.8594 72.5586-55.6152L72.5586-39.7949ZM81.6406-39.7949L81.6406-55.6152C87.3047-55.8594 92.7246-56.4453 97.7539-57.4219C99.0723-51.9531 100-45.9961 100.293-39.7949ZM22.998-30.7617L44.6777-30.7617C44.9707-23.4863 45.9473-16.6992 47.4609-10.498C41.6992-8.69141 36.8164-6.39648 33.1055-3.61328C27.4414-11.4258 23.8281-20.7031 22.998-30.7617ZM53.9062-30.7617L72.5586-30.7617L72.5586-14.5996C66.9434-14.3555 61.5234-13.7695 56.4941-12.793C55.127-18.3594 54.1992-24.4629 53.9062-30.7617ZM81.6406-14.5996L81.6406-30.7617L100.293-30.7617C100-24.4629 99.0723-18.3594 97.7051-12.793C92.6758-13.7695 87.2559-14.3555 81.6406-14.5996ZM106.738-10.498C108.301-16.6992 109.229-23.4863 109.521-30.7617L131.25-30.7617C130.371-20.7031 126.758-11.4258 121.143-3.61328C117.432-6.39648 112.5-8.69141 106.738-10.498ZM59.1797-4.19922C63.3301-4.88281 67.8223-5.37109 72.5586-5.56641L72.5586 14.1602C67.3828 11.6211 62.5977 4.88281 59.1797-4.19922ZM81.6406-5.56641C86.377-5.37109 90.8691-4.88281 95.0195-4.19922C91.6016 4.88281 86.8164 11.6211 81.6406 14.1602ZM38.8672 3.125C41.8945 1.07422 45.6543-0.634766 50.0488-2.00195C52.9785 5.85938 56.9336 12.3047 61.5234 16.748C52.8809 14.1113 45.1172 9.375 38.8672 3.125ZM104.15-2.00195C108.545-0.634766 112.305 1.07422 115.332 3.125C109.082 9.375 101.318 14.1113 92.6758 16.748C97.3145 12.3047 101.221 5.85938 104.15-2.00195Z"/>
  </g>
  <g id="Semibold-L" transform="matrix(1 0 0 1 1966.97 1556)">
   <path d="M76.2695 29.7363C111.914 29.7363 141.309 0.390625 141.309-35.2539C141.309-70.8984 111.865-100.244 76.2695-100.244C40.625-100.244 11.2793-70.8984 11.2793-35.2539C11.2793 0.390625 40.6738 29.7363 76.2695 29.7363ZM37.8906-74.4629C44.3848-80.8105 52.3926-85.5957 61.3281-88.1348C56.6406-83.6426 52.6367-77.0996 49.6582-68.9453C45.0684-70.4102 41.0645-72.2168 37.8906-74.4629ZM91.3086-88.1348C100.195-85.5469 108.203-80.7617 114.648-74.4141C111.475-72.2168 107.52-70.3613 102.93-68.9453C99.9512-77.0508 95.9473-83.6426 91.3086-88.1348ZM80.4688-86.084C85.9863-83.6426 91.0156-76.6113 94.5801-66.8945C90.2344-66.1133 85.498-65.625 80.4688-65.4297ZM58.0078-66.8945C61.5723-76.6113 66.6016-83.6426 72.1191-86.084L72.1191-65.4297C67.0898-65.625 62.3535-66.1133 58.0078-66.8945ZM21.4844-39.4531C22.3145-50.1953 26.2695-60.1074 32.4707-68.2617C36.2793-65.3809 41.3086-62.9395 47.2656-61.084C45.6055-54.541 44.5312-47.2656 44.2871-39.4531ZM108.301-39.4531C108.008-47.2656 106.982-54.541 105.322-61.084C111.23-62.9395 116.309-65.3809 120.117-68.2617C126.318-60.1074 130.273-50.1953 131.104-39.4531ZM52.7832-39.4531C53.0762-46.3867 54.1016-52.9785 55.5664-58.9844C60.7422-57.959 66.3086-57.2754 72.1191-57.0801L72.1191-39.4531ZM80.4688-39.4531L80.4688-57.0801C86.2793-57.2754 91.8457-57.959 97.0215-58.9844C98.4863-52.9785 99.4629-46.3867 99.7559-39.4531ZM21.4355-31.1035L44.2383-31.1035C44.5312-23.1445 45.6055-15.7715 47.2656-9.13086C41.4062-7.27539 36.4258-4.88281 32.6172-2.05078C26.3184-10.2539 22.2656-20.2637 21.4355-31.1035ZM52.7832-31.1035L72.1191-31.1035L72.1191-13.1348C66.3086-12.9395 60.791-12.2559 55.6641-11.2305C54.1016-17.334 53.0762-24.0723 52.7832-31.1035ZM80.4688-13.1348L80.4688-31.1035L99.8047-31.1035C99.5117-24.0723 98.4863-17.334 96.9238-11.2305C91.7969-12.2559 86.2793-12.9395 80.4688-13.1348ZM105.322-9.13086C106.982-15.7715 108.057-23.1445 108.35-31.1035L131.104-31.1035C130.273-20.2637 126.27-10.2539 119.971-2.05078C116.162-4.88281 111.182-7.27539 105.322-9.13086ZM80.4688-4.78516C85.4492-4.58984 90.1367-4.10156 94.4824-3.32031C90.918 6.20117 85.9375 13.2324 80.4688 15.6738ZM58.1055-3.32031C62.4512-4.10156 67.1387-4.58984 72.1191-4.78516L72.1191 15.6738C66.6504 13.2324 61.6699 6.20117 58.1055-3.32031ZM102.881-1.26953C107.422 0.146484 111.328 1.95312 114.502 4.10156C108.105 10.3516 100.195 15.0391 91.4062 17.5781C95.9961 13.1348 99.9512 6.68945 102.881-1.26953ZM38.0859 4.10156C41.2109 1.95312 45.166 0.146484 49.707-1.26953C52.6367 6.68945 56.5918 13.1348 61.1816 17.5781C52.3926 15.0391 44.4824 10.3516 38.0859 4.10156Z"/>
  </g>
  <g id="Medium-L" transform="matrix(1 0 0 1 1670.87 1556)">
   <path d="M75.6836 29.1504C110.938 29.1504 140.088 0 140.088-35.2539C140.088-70.5078 110.889-99.6582 75.6348-99.6582C40.3809-99.6582 11.2793-70.5078 11.2793-35.2539C11.2793 0 40.3809 29.1504 75.6836 29.1504ZM37.3047-75.1953C43.8965-81.543 52.0508-86.2793 61.084-88.7695C56.3965-84.3262 52.3438-77.6855 49.3652-69.4824C44.6289-70.9473 40.5762-72.8516 37.3047-75.1953ZM90.2832-88.7695C99.3164-86.2305 107.422-81.4941 114.014-75.1465C110.742-72.8516 106.689-70.9473 101.953-69.4824C99.0234-77.6855 94.9707-84.2773 90.2832-88.7695ZM79.5898-87.207C85.3027-84.8633 90.5273-77.6367 94.1406-67.5781C89.6973-66.748 84.8145-66.2109 79.5898-66.0156ZM57.1777-67.5781C60.8398-77.6367 66.0645-84.8633 71.7285-87.207L71.7285-66.0645C66.5527-66.2109 61.6699-66.748 57.1777-67.5781ZM20.3125-39.209C21.1426-50.5371 25.3906-60.9863 32.0801-69.4336C35.9863-66.5039 41.1133-64.0137 47.1191-62.1582C45.3125-55.2734 44.2383-47.5098 43.9453-39.209ZM107.422-39.209C107.129-47.5098 106.006-55.2734 104.248-62.1582C110.205-64.0137 115.332-66.5039 119.238-69.4336C125.928-60.9375 130.225-50.5371 131.055-39.209ZM51.9531-39.209C52.2461-46.6797 53.2715-53.8086 54.9316-60.1562C60.1562-59.082 65.8203-58.3984 71.7285-58.2031L71.7285-39.209ZM79.5898-39.209L79.5898-58.2031C85.5469-58.3984 91.2109-59.082 96.4355-60.1562C98.0469-53.8086 99.1211-46.6797 99.3652-39.209ZM20.3125-31.3477L43.9453-31.3477C44.1895-22.9004 45.3125-15.0391 47.168-8.05664C41.2109-6.20117 36.1328-3.75977 32.2754-0.878906C25.4883-9.42383 21.1426-19.9219 20.3125-31.3477ZM51.9531-31.3477L71.7285-31.3477L71.7285-12.0117C65.8691-11.8164 60.2051-11.1328 54.9805-10.0586C53.3203-16.5527 52.2461-23.8281 51.9531-31.3477ZM79.5898-12.0117L79.5898-31.3477L99.4141-31.3477C99.1211-23.8281 98.0469-16.5527 96.3379-10.1074C91.1621-11.1328 85.498-11.8164 79.5898-12.0117ZM104.199-8.05664C106.006-15.0391 107.178-22.9004 107.422-31.3477L131.055-31.3477C130.225-19.9219 125.879-9.42383 119.092-0.878906C115.234-3.75977 110.156-6.20117 104.199-8.05664ZM79.5898-4.19922C84.7656-4.00391 89.5996-3.51562 94.043-2.68555C90.3809 7.22656 85.2539 14.4531 79.5898 16.7969ZM57.3242-2.68555C61.7188-3.51562 66.5527-4.00391 71.7285-4.19922L71.7285 16.7969C66.1133 14.4531 60.9375 7.22656 57.3242-2.68555ZM37.5 4.83398C40.7715 2.58789 44.7754 0.683594 49.4141-0.732422C52.3438 7.27539 56.2988 13.7695 60.9375 18.2129C52.0508 15.7227 43.9941 11.0352 37.5 4.83398ZM101.904-0.732422C106.592 0.683594 110.596 2.58789 113.867 4.83398C107.324 11.0352 99.3164 15.7227 90.4297 18.2129C95.0195 13.7695 98.9746 7.27539 101.904-0.732422Z"/>
  </g>
  <g id="Regular-L" transform="matrix(1 0 0 1 1374.97 1556)">
   <path d="M74.8535 28.3203C109.668 28.3203 138.477-0.488281 138.477-35.2539C138.477-70.0684 109.619-98.877 74.8047-98.877C40.0391-98.877 11.2793-70.0684 11.2793-35.2539C11.2793-0.488281 40.0879 28.3203 74.8535 28.3203ZM36.5234-76.123C43.2617-82.4707 51.5625-87.207 60.7422-89.5996C56.0547-85.1562 52.002-78.5156 49.0234-70.2148C44.1406-71.7285 39.9414-73.6816 36.5234-76.123ZM89.0137-89.5996C98.1934-87.1582 106.445-82.4219 113.232-76.0742C109.766-73.6816 105.566-71.6797 100.732-70.2148C97.7539-78.5156 93.7012-85.1562 89.0137-89.5996ZM56.1035-68.4082C59.9121-79.0039 65.332-86.4746 71.2891-88.6719L71.2891-66.7969C65.8203-66.9922 60.7422-67.5293 56.1035-68.4082ZM78.4668-88.6719C84.4238-86.4746 89.8438-79.0039 93.6035-68.4082C89.0137-67.5293 83.9355-66.9922 78.4668-66.7969ZM18.7988-38.8672C19.5801-50.9766 24.3164-62.1094 31.6895-70.9473C35.6445-67.9688 40.8203-65.4297 46.9238-63.5254C44.9707-56.2012 43.7988-47.9004 43.5059-38.8672ZM106.201-38.8672C105.957-47.9004 104.736-56.2012 102.783-63.5254C108.887-65.4297 114.111-67.9688 118.066-70.9473C125.439-62.0605 130.127-50.9766 130.908-38.8672ZM50.8789-38.8672C51.123-47.0703 52.2949-54.834 54.0527-61.6699C59.375-60.5469 65.1855-59.8633 71.2891-59.668L71.2891-38.8672ZM78.4668-38.8672L78.4668-59.668C84.5215-59.8633 90.332-60.5469 95.7031-61.6699C97.4609-54.834 98.584-47.0703 98.877-38.8672ZM18.7988-31.6895L43.5059-31.6895C43.75-22.5098 44.9707-14.1113 46.9727-6.68945C40.9668-4.83398 35.791-2.34375 31.8359 0.634766C24.3652-8.30078 19.5801-19.4824 18.7988-31.6895ZM50.8301-31.6895L71.2891-31.6895L71.2891-10.5957C65.2344-10.3516 59.4727-9.66797 54.1504-8.54492C52.2949-15.5273 51.123-23.4375 50.8301-31.6895ZM78.4668-10.5957L78.4668-31.6895L98.877-31.6895C98.6328-23.4375 97.4609-15.5273 95.6055-8.54492C90.2832-9.66797 84.5215-10.3516 78.4668-10.5957ZM102.783-6.68945C104.736-14.1113 105.957-22.5098 106.201-31.6895L130.908-31.6895C130.127-19.4824 125.342-8.30078 117.871 0.634766C113.965-2.34375 108.789-4.83398 102.783-6.68945ZM56.25-1.80664C60.8398-2.68555 65.8691-3.22266 71.2891-3.41797L71.2891 18.2129C65.3809 16.0156 60.0098 8.54492 56.25-1.80664ZM78.4668-3.41797C83.8867-3.22266 88.916-2.68555 93.457-1.80664C89.6973 8.54492 84.3262 16.0156 78.4668 18.2129ZM100.684-0.0488281C105.469 1.46484 109.619 3.36914 113.037 5.76172C106.348 11.9629 98.1934 16.6016 89.209 18.9941C93.75 14.5996 97.7051 8.10547 100.684-0.0488281ZM36.7188 5.76172C40.1367 3.36914 44.2871 1.46484 49.0723-0.0488281C52.002 8.10547 55.957 14.5996 60.5469 18.9941C51.5625 16.6016 43.3594 11.9629 36.7188 5.76172Z"/>
  </g>
  <g id="Light-L" transform="matrix(1 0 0 1 1079.18 1556)">
   <path d="M73.9258 27.3926C108.301 27.3926 136.621-0.927734 136.621-35.2539C136.621-69.6289 108.252-97.9492 73.9258-97.9492C39.5508-97.9492 11.2793-69.6289 11.2793-35.2539C11.2793-0.927734 39.5996 27.3926 73.9258 27.3926ZM34.668-76.1719C41.9922-83.252 51.1719-88.3301 61.377-90.6738C56.1523-86.2305 51.6602-79.1016 48.4375-69.8242C43.0176-71.3867 38.3789-73.5352 34.668-76.1719ZM86.5234-90.6738C96.7285-88.3301 105.908-83.2031 113.232-76.1719C109.473-73.5352 104.883-71.3867 99.4629-69.8242C96.2402-79.1016 91.748-86.2305 86.5234-90.6738ZM76.8066-90.332C83.5449-88.4766 89.6973-80.2734 93.7988-68.4082C88.6719-67.3828 83.0078-66.748 76.8066-66.6016ZM54.1016-68.4082C58.2031-80.2734 64.3555-88.4766 71.0938-90.332L71.0938-66.6016C64.8926-66.748 59.2285-67.3828 54.1016-68.4082ZM17.1875-38.1348C17.8223-51.0254 22.9004-62.8906 30.8105-72.168C34.9121-69.0918 40.3809-66.5039 46.7773-64.5996C44.6777-56.8359 43.3594-47.9492 43.1152-38.1348ZM104.736-38.1348C104.541-47.9492 103.223-56.8359 101.074-64.5996C107.52-66.5039 112.939-69.043 117.041-72.1191C125-62.8418 130.029-51.0254 130.713-38.1348ZM48.9746-38.1348C49.2188-47.2168 50.4883-55.7129 52.4902-63.1348C58.2031-61.8652 64.4531-61.084 71.0938-60.9375L71.0938-38.1348ZM76.8066-38.1348L76.8066-60.9375C83.3984-61.084 89.6973-61.8652 95.4102-63.1348C97.4121-55.7129 98.6816-47.2168 98.877-38.1348ZM17.1875-32.4219L43.1152-32.4219C43.3105-22.4609 44.6289-13.4277 46.8262-5.66406C40.4785-3.75977 35.1074-1.2207 31.0059 1.80664C22.9492-7.51953 17.8711-19.4336 17.1875-32.4219ZM48.9746-32.4219L71.0938-32.4219L71.0938-9.27734C64.502-9.13086 58.3008-8.34961 52.5879-7.12891C50.4883-14.6973 49.2188-23.3398 48.9746-32.4219ZM76.8066-9.27734L76.8066-32.4219L98.9258-32.4219C98.6816-23.3398 97.3633-14.6973 95.2637-7.12891C89.5996-8.34961 83.3496-9.13086 76.8066-9.27734ZM101.074-5.66406C103.223-13.4277 104.541-22.4609 104.785-32.4219L130.713-32.4219C130.029-19.4336 124.951-7.51953 116.895 1.80664C112.793-1.2207 107.422-3.75977 101.074-5.66406ZM54.248-1.80664C59.3262-2.83203 64.9902-3.4668 71.0938-3.61328L71.0938 19.9707C64.4531 18.1152 58.3496 9.81445 54.248-1.80664ZM76.8066-3.61328C82.9102-3.4668 88.5742-2.83203 93.6035-1.80664C89.5508 9.81445 83.4473 18.1152 76.8066 19.9707ZM34.8633 5.81055C38.5742 3.27148 43.1152 1.17188 48.4375-0.390625C51.6113 8.64258 56.0059 15.625 61.0352 20.0684C51.0742 17.7246 42.0898 12.6953 34.8633 5.81055ZM99.4141-0.390625C104.785 1.17188 109.326 3.27148 113.037 5.81055C105.811 12.6953 96.8262 17.7246 86.8164 20.0684C91.8945 15.625 96.2402 8.64258 99.4141-0.390625Z"/>
  </g>
  <g id="Thin-L" transform="matrix(1 0 0 1 783.693 1556)">
   <path d="M72.7051 26.1719C106.494 26.1719 134.18-1.51367 134.18-35.2539C134.18-69.043 106.494-96.7285 72.7051-96.7285C38.9648-96.7285 11.2793-69.043 11.2793-35.2539C11.2793-1.51367 38.9648 26.1719 72.7051 26.1719ZM74.6094-92.3828C82.4219-91.1133 89.502-82.0312 93.9941-68.457C88.2324-67.1875 81.7383-66.5039 74.6094-66.4062ZM51.416-68.457C55.9082-82.0312 63.0371-91.1133 70.8496-92.3828L70.8496-66.4062C63.6719-66.5039 57.1777-67.1875 51.416-68.457ZM32.2266-76.2695C40.2832-84.2773 50.7324-89.8926 62.3535-91.9922C56.4941-87.793 51.2695-80.0293 47.6562-69.3359C41.5039-71.0449 36.3281-73.3398 32.2266-76.2695ZM83.1055-91.9922C94.7266-89.8926 105.127-84.2285 113.232-76.2695C109.229-73.4375 104.004-71.0449 97.8027-69.3359C94.1895-79.9805 88.9648-87.793 83.1055-91.9922ZM15.0879-37.1582C15.5273-51.123 20.9961-63.8672 29.7363-73.6328C33.9844-70.5078 39.7461-67.8711 46.6309-65.9668C44.2383-57.7637 42.7734-48.0469 42.627-37.1582ZM102.832-37.1582C102.637-48.0469 101.221-57.7637 98.8281-65.9668C105.664-67.8711 111.426-70.5078 115.723-73.6328C124.463-63.8672 129.932-51.123 130.371-37.1582ZM74.6094-37.1582L74.6094-62.6465C81.9824-62.793 88.8672-63.623 95.0684-64.9902C97.3633-56.8848 98.7793-47.4121 98.9258-37.1582ZM46.5332-37.1582C46.6797-47.4121 48.0957-56.8848 50.3906-64.9902C56.5918-63.623 63.4766-62.793 70.8496-62.6465L70.8496-37.1582ZM15.0879-33.3984L42.627-33.3984C42.7734-22.3633 44.2383-12.5488 46.6309-4.24805C39.8438-2.34375 34.1797 0.244141 29.8828 3.32031C21.0449-6.49414 15.5273-19.3359 15.0879-33.3984ZM46.5332-33.3984L70.8496-33.3984L70.8496-7.56836C63.5742-7.4707 56.6895-6.64062 50.5859-5.22461C48.1445-13.5742 46.6797-23.2422 46.5332-33.3984ZM74.6094-7.56836L74.6094-33.3984L98.9258-33.3984C98.7793-23.2422 97.3145-13.5742 94.873-5.22461C88.7207-6.64062 81.8848-7.4707 74.6094-7.56836ZM98.8281-4.24805C101.221-12.5488 102.686-22.3633 102.832-33.3984L130.371-33.3984C129.932-19.3359 124.365-6.49414 115.527 3.32031C111.279 0.244141 105.566-2.34375 98.8281-4.24805ZM74.6094-3.85742C81.6895-3.71094 88.0859-3.02734 93.7988-1.80664C89.3066 11.5234 82.2754 20.8008 74.6094 22.1191ZM51.6602-1.80664C57.373-3.02734 63.7695-3.71094 70.8496-3.85742L70.8496 22.1191C63.1836 20.8008 56.1523 11.5234 51.6602-1.80664ZM32.4219 5.9082C36.4746 3.07617 41.6016 0.78125 47.6562-0.878906C51.1719 9.47266 56.1523 17.0898 61.8164 21.3867C50.4883 19.1895 40.332 13.6719 32.4219 5.9082ZM97.7539-0.878906C103.857 0.78125 108.936 3.07617 113.037 5.9082C105.127 13.6719 94.9707 19.1895 83.6426 21.3867C89.3066 17.0898 94.2871 9.47266 97.7539-0.878906Z"/>
  </g>
  <g id="Ultralight-L" transform="matrix(1 0 0 1 487.616 1556)">
   <path d="M72.1191 25.5371C105.566 25.5371 132.91-1.80664 132.91-35.2539C132.91-68.75 105.566-96.0938 72.1191-96.0938C38.623-96.0938 11.2793-68.75 11.2793-35.2539C11.2793-1.80664 38.623 25.5371 72.1191 25.5371ZM73.4863-93.3594C73.5352-93.3594 73.584-93.3594 73.6816-93.3594C81.9336-92.2852 89.4531-82.8125 94.0918-68.457C88.0371-67.0898 81.1523-66.3574 73.4863-66.2598ZM50.0977-68.457C54.7363-82.8125 62.2559-92.2852 70.5078-93.3594C70.6055-93.3594 70.6543-93.3594 70.752-93.3594L70.752-66.2598C63.0371-66.3574 56.1523-67.0898 50.0977-68.457ZM113.135-76.2207C108.838-73.2422 103.369-70.8008 96.9238-69.1406C93.1152-80.5664 87.5-88.6719 81.25-92.6758C94.1406-90.625 105.615-84.3262 114.258-75.293ZM31.0547-76.2207L29.9805-75.293C38.5742-84.3262 50.0488-90.625 62.9395-92.6758C56.6895-88.6719 51.0742-80.5664 47.2656-69.1406C40.8203-70.8008 35.3516-73.2422 31.0547-76.2207ZM101.807-36.6211C101.709-48.1445 100.146-58.252 97.6562-66.6992C104.736-68.6035 110.693-71.2402 115.039-74.4141C124.17-64.4043 129.834-51.1719 130.176-36.6211ZM14.0137-36.6211C14.3555-51.1719 20.0195-64.4043 29.1504-74.4141C33.3984-71.2891 39.4043-68.6035 46.5332-66.6992C44.043-58.252 42.4805-48.1445 42.3828-36.6211ZM45.2637-36.6211C45.4102-47.5098 46.875-57.5195 49.3164-65.9668C55.7617-64.502 62.9883-63.623 70.752-63.5254L70.752-36.6211ZM73.4863-36.6211L73.4863-63.5254C81.2012-63.623 88.4277-64.502 94.873-65.9668C97.3145-57.5195 98.7793-47.5098 98.9258-36.6211ZM14.0137-33.8867L42.3828-33.8867C42.4805-22.2656 43.9941-12.0605 46.5332-3.51562C39.5508-1.66016 33.6914 0.976562 29.3457 4.05273C20.1172-5.95703 14.3555-19.2871 14.0137-33.8867ZM45.2637-33.8867L70.752-33.8867L70.752-6.68945C63.0371-6.5918 55.9082-5.71289 49.5605-4.29688C46.9238-12.9883 45.3613-23.1934 45.2637-33.8867ZM73.4863-6.68945L73.4863-33.8867L98.9258-33.8867C98.8281-23.1934 97.2656-12.9883 94.6777-4.29688C88.2812-5.71289 81.1523-6.5918 73.4863-6.68945ZM97.6562-3.51562C100.195-12.0605 101.709-22.2656 101.807-33.8867L130.176-33.8867C129.834-19.2871 124.121-5.95703 114.844 4.05273C110.498 0.976562 104.639-1.66016 97.6562-3.51562ZM73.4863-3.95508C81.0547-3.85742 87.8906-3.125 93.8965-1.80664C89.5996 11.1816 82.959 20.5078 75.5859 22.7539C74.8535 22.8027 74.1699 22.8027 73.4863 22.8516ZM68.6523 22.7539C61.2305 20.5078 54.5898 11.1816 50.293-1.80664C56.3477-3.125 63.1348-3.85742 70.752-3.95508L70.752 22.8516C70.0195 22.8027 69.3359 22.8027 68.6523 22.7539ZM31.1523 5.95703C35.3516 2.97852 40.8203 0.585938 47.2656-1.12305C50.9277 9.96094 56.2988 17.8711 62.2559 22.0215C50.2441 19.9707 39.4531 14.209 31.1523 5.95703ZM96.9238-1.12305C103.369 0.585938 108.789 2.97852 113.037 5.95703C104.736 14.209 93.9453 19.9707 81.9336 22.0215C87.8906 17.8711 93.2617 9.96094 96.9238-1.12305Z"/>
  </g>
  <g id="Black-M" transform="matrix(1 0 0 1 2870.97 1126)">
   <path d="M62.4023 18.457C91.9922 18.457 116.113-5.61523 116.113-35.2051C116.113-64.7949 91.9922-88.8672 62.4023-88.8672C32.8125-88.8672 8.74023-64.7949 8.74023-35.2051C8.74023-5.61523 32.8125 18.457 62.4023 18.457ZM75.6348-72.7539C82.2754-70.4102 88.0859-66.3086 92.627-61.084C90.6738-59.8145 88.0859-58.6914 85.0098-57.8125C82.7148-63.9648 79.4922-69.1406 75.6348-72.7539ZM32.2266-61.084C36.7188-66.3086 42.5781-70.4102 49.1699-72.7539C45.3613-69.1406 42.1387-63.9648 39.8438-57.8125C36.7676-58.7402 34.1797-59.8633 32.2266-61.084ZM48.877-55.8105C51.2695-61.7188 54.4922-66.3574 57.959-68.5547L57.959-54.9316C54.834-55.0781 51.7578-55.3711 48.877-55.8105ZM66.8457-68.5547C70.3613-66.3574 73.584-61.7188 75.9277-55.8105C73.0469-55.3711 70.0195-55.0781 66.8457-54.9316ZM88.7207-39.6973C88.5254-43.0664 88.0859-46.2891 87.4512-49.3652C91.4551-50.5859 94.9219-52.1484 97.5098-53.9551C99.8535-49.6094 101.416-44.7754 102.002-39.6973ZM22.8516-39.6973C23.4375-44.7754 25-49.6094 27.2949-53.9551C29.9316-52.1484 33.3496-50.5859 37.4023-49.3652C36.7676-46.2891 36.3281-43.0664 36.084-39.6973ZM66.8457-39.6973L66.8457-46.0449C70.9473-46.2402 74.8535-46.6309 78.5645-47.2656C79.0527-44.8242 79.4434-42.2852 79.6875-39.6973ZM45.166-39.6973C45.3613-42.2852 45.752-44.8242 46.2891-47.2656C49.9512-46.6309 53.9062-46.2402 57.959-46.0449L57.959-39.6973ZM22.8516-30.8105L36.084-30.8105C36.2793-27.3926 36.7188-24.0723 37.4023-20.9473C33.3984-19.6777 29.9805-18.1641 27.3438-16.3574C25-20.752 23.3887-25.6348 22.8516-30.8105ZM45.1172-30.8105L57.959-30.8105L57.959-24.2188C53.9062-24.0723 49.9512-23.6328 46.2891-22.998C45.752-25.5371 45.3613-28.1738 45.1172-30.8105ZM66.8457-24.2188L66.8457-30.8105L79.6875-30.8105C79.4922-28.1738 79.1016-25.5371 78.5156-22.998C74.8535-23.6328 70.9473-24.0723 66.8457-24.2188ZM87.4512-20.9473C88.0859-24.0723 88.5254-27.3926 88.7695-30.8105L102.002-30.8105C101.416-25.6348 99.8535-20.752 97.4609-16.3574C94.873-18.1641 91.4551-19.6777 87.4512-20.9473ZM48.9258-14.4531C51.8066-14.8926 54.834-15.1855 57.959-15.332L57.959-1.85547C54.4922-4.00391 51.2695-8.59375 48.9258-14.4531ZM66.8457-15.332C69.9707-15.1855 73.0469-14.8926 75.8789-14.4531C73.5352-8.64258 70.3125-4.05273 66.8457-1.85547ZM32.2754-9.22852C34.2285-10.4492 36.8164-11.5723 39.8438-12.5C42.1387-6.34766 45.3613-1.26953 49.1699 2.34375C42.5781 0 36.7676-4.05273 32.2754-9.22852ZM85.0098-12.5C88.0371-11.5723 90.625-10.4492 92.5293-9.22852C88.0371-4.05273 82.2754 0 75.6836 2.34375C79.4922-1.26953 82.7148-6.34766 85.0098-12.5Z"/>
  </g>
  <g id="Heavy-M" transform="matrix(1 0 0 1 2575.19 1126)">
   <path d="M61.5234 17.5293C90.5273 17.5293 114.258-6.20117 114.258-35.2051C114.258-64.2578 90.5273-87.9883 61.4746-87.9883C32.4707-87.9883 8.74023-64.2578 8.74023-35.2051C8.74023-6.20117 32.4707 17.5293 61.5234 17.5293ZM31.4941-62.5C36.1328-67.5781 41.9922-71.4844 48.6328-73.7305C44.9219-70.166 41.748-65.0879 39.502-58.9355C36.3281-59.9121 33.5938-61.1328 31.4941-62.5ZM74.3652-73.7305C81.0059-71.4844 86.8652-67.5781 91.5039-62.5C89.4043-61.084 86.7188-59.9121 83.5449-58.9355C81.25-65.0391 78.0762-70.166 74.3652-73.7305ZM47.9004-57.0312C50.3418-63.2812 53.7109-68.1152 57.373-70.2637L57.373-56.1035C54.0527-56.25 50.8789-56.543 47.9004-57.0312ZM65.6738-70.2637C69.2871-68.1152 72.6562-63.2812 75.0977-57.0312C72.1191-56.543 68.9453-56.25 65.6738-56.1035ZM21.0938-39.4043C21.7285-45.4102 23.6816-51.0254 26.6602-55.957C29.3457-54.0527 32.959-52.3438 37.1582-51.0742C36.377-47.4121 35.791-43.5059 35.5957-39.4043ZM87.4023-39.4043C87.207-43.5059 86.6699-47.4121 85.8398-51.0742C90.0391-52.3438 93.6523-54.0527 96.3379-55.957C99.3164-51.0254 101.27-45.4102 101.904-39.4043ZM65.6738-39.4043L65.6738-47.8027C69.8242-47.9492 73.8281-48.3887 77.5391-49.0723C78.2227-45.9961 78.7109-42.7246 78.9551-39.4043ZM44.043-39.4043C44.2871-42.7246 44.7754-45.9961 45.459-49.0723C49.2188-48.3887 53.2227-47.9492 57.373-47.8027L57.373-39.4043ZM21.0938-31.1035L35.5957-31.1035C35.791-26.9531 36.3281-22.9492 37.1582-19.2383C33.0078-17.9199 29.4434-16.2598 26.709-14.3555C23.6816-19.3359 21.7285-25.0488 21.0938-31.1035ZM44.043-31.1035L57.373-31.1035L57.373-22.5098C53.2227-22.3145 49.2188-21.875 45.459-21.1914C44.7754-24.3652 44.2383-27.6855 44.043-31.1035ZM65.6738-22.5098L65.6738-31.1035L78.9551-31.1035C78.7598-27.6855 78.2227-24.3652 77.5391-21.2402C73.7793-21.875 69.7754-22.3145 65.6738-22.5098ZM85.8398-19.2383C86.6699-22.9492 87.207-26.9531 87.4512-31.1035L101.904-31.1035C101.27-25.0488 99.3164-19.3359 96.2891-14.3555C93.6035-16.2598 89.9902-17.9199 85.8398-19.2383ZM47.9492-13.2324C50.9277-13.7207 54.0527-14.0625 57.373-14.1602L57.373-0.146484C53.7109-2.29492 50.3906-7.08008 47.9492-13.2324ZM65.6738-14.1602C68.9453-14.0625 72.0703-13.7207 75.0488-13.2812C72.6074-7.08008 69.2871-2.29492 65.6738-0.146484ZM31.5918-7.86133C33.6426-9.22852 36.377-10.4004 39.502-11.377C41.7969-5.27344 44.9219-0.244141 48.584 3.27148C42.041 1.02539 36.1816-2.83203 31.5918-7.86133ZM83.4961-11.377C86.6699-10.4004 89.3555-9.22852 91.4062-7.86133C86.8164-2.83203 80.957 1.02539 74.4141 3.27148C78.125-0.244141 81.2012-5.27344 83.4961-11.377Z"/>
  </g>
  <g id="Bold-M" transform="matrix(1 0 0 1 2279.5 1126)">
   <path d="M60.498 16.5039C88.8672 16.5039 112.207-6.83594 112.207-35.2051C112.207-63.623 88.8672-86.9629 60.4492-86.9629C32.0312-86.9629 8.74023-63.623 8.74023-35.2051C8.74023-6.83594 32.0801 16.5039 60.498 16.5039ZM30.7129-64.0137C35.4492-68.9453 41.4062-72.6562 47.998-74.8047C44.3848-71.2891 41.3574-66.2598 39.1113-60.2051C35.791-61.2305 32.959-62.5 30.7129-64.0137ZM72.9492-74.7559C79.5898-72.6562 85.498-68.8965 90.2344-64.0137C87.9883-62.5 85.1562-61.2305 81.8848-60.1562C79.6387-66.2598 76.5625-71.2402 72.9492-74.7559ZM46.7773-58.3984C49.3164-65.0391 52.832-70.0684 56.6406-72.1191L56.6406-57.373C53.1738-57.5195 49.8535-57.8613 46.7773-58.3984ZM64.3066-72.1191C68.1152-70.0684 71.6309-65.0391 74.1699-58.3984C71.0938-57.8613 67.7734-57.5195 64.3066-57.373ZM19.1895-39.0625C19.8242-46.0938 22.2656-52.6367 26.0254-58.2031C28.8086-56.1035 32.5684-54.3457 36.9141-52.9785C35.8887-48.6816 35.2539-43.9941 35.0098-39.0625ZM85.9375-39.0625C85.6934-43.9941 85.0586-48.6816 84.0332-52.9785C88.4277-54.3457 92.1387-56.1035 94.9219-58.2031C98.6816-52.5879 101.123-46.0938 101.807-39.0625ZM42.8223-39.0625C43.0664-43.2617 43.6523-47.3145 44.5312-51.0742C48.3398-50.3418 52.4414-49.9023 56.6406-49.7559L56.6406-39.0625ZM64.3066-39.0625L64.3066-49.7559C68.5547-49.9023 72.6074-50.3418 76.416-51.0742C77.2949-47.3145 77.9297-43.2617 78.1738-39.0625ZM19.1406-31.4453L35.0098-31.4453C35.2539-26.416 35.8887-21.6797 36.9629-17.334C32.6172-15.9668 28.9062-14.209 26.123-12.1582C22.3145-17.7734 19.8242-24.3652 19.1406-31.4453ZM42.7734-31.4453L56.6406-31.4453L56.6406-20.5566C52.4414-20.3613 48.3398-19.9219 44.5801-19.1895C43.6523-23.0469 43.0176-27.1973 42.7734-31.4453ZM64.3066-20.5566L64.3066-31.4453L78.1738-31.4453C77.9297-27.1973 77.2949-23.0469 76.3672-19.1895C72.6074-19.9219 68.5547-20.3613 64.3066-20.5566ZM84.0332-17.334C85.0586-21.6797 85.7422-26.416 85.9375-31.4453L101.807-31.4453C101.123-24.3652 98.6816-17.7734 94.873-12.1582C92.041-14.209 88.3301-15.9668 84.0332-17.334ZM46.8262-11.9141C49.9023-12.4023 53.2227-12.7441 56.6406-12.8906L56.6406 1.70898C52.8809-0.341797 49.3652-5.32227 46.8262-11.9141ZM64.3066-12.8906C67.7734-12.7441 71.0449-12.4023 74.1211-11.9141C71.582-5.32227 68.1152-0.390625 64.3066 1.70898ZM30.8594-6.34766C33.0566-7.8125 35.8887-9.08203 39.1113-10.1074C41.3574-4.10156 44.3848 0.830078 47.9492 4.29688C41.4062 2.19727 35.5469-1.51367 30.8594-6.34766ZM81.8359-10.1074C85.1074-9.08203 87.8906-7.8125 90.1367-6.34766C85.4004-1.51367 79.541 2.19727 72.998 4.29688C76.5625 0.830078 79.5898-4.10156 81.8359-10.1074Z"/>
  </g>
  <g id="Semibold-M" transform="matrix(1 0 0 1 1983.5 1126)">
   <path d="M59.7656 15.8203C87.7441 15.8203 110.791-7.27539 110.791-35.2539C110.791-63.2324 87.6953-86.2793 59.7656-86.2793C31.7871-86.2793 8.74023-63.2324 8.74023-35.2539C8.74023-7.27539 31.7871 15.8203 59.7656 15.8203ZM30.2246-65.0879C35.0098-69.8242 40.9668-73.4863 47.5586-75.4883C44.043-72.0215 41.0645-67.0898 38.8184-61.0352C35.4492-62.1094 32.5684-63.4766 30.2246-65.0879ZM72.0215-75.4883C78.6133-73.4375 84.5215-69.8242 89.3066-65.0391C87.0117-63.4766 84.082-62.1094 80.7617-61.0352C78.5156-67.041 75.5371-72.0215 72.0215-75.4883ZM45.9961-59.3262C48.6328-66.2598 52.2461-71.4355 56.2012-73.3887L56.2012-58.252C52.5879-58.3984 49.1699-58.7402 45.9961-59.3262ZM63.3789-73.3887C67.334-71.4355 70.9473-66.2598 73.5352-59.3262C70.4102-58.7402 66.9922-58.3984 63.3789-58.252ZM17.8223-38.8672C18.5059-46.582 21.2891-53.7109 25.6348-59.7168C28.5156-57.5195 32.3242-55.7129 36.7676-54.2969C35.5957-49.5605 34.8633-44.3848 34.6191-38.8672ZM84.9121-38.8672C84.7168-44.3848 83.9355-49.5605 82.8125-54.2969C87.2559-55.7129 91.0645-57.5195 93.9453-59.668C98.2422-53.7109 101.025-46.5332 101.709-38.8672ZM63.3789-38.8672L63.3789-51.0742C67.6758-51.2695 71.8262-51.709 75.6348-52.4902C76.6602-48.2422 77.3438-43.6523 77.5879-38.8672ZM41.9434-38.8672C42.1875-43.6523 42.8711-48.2422 43.8965-52.4902C47.7539-51.709 51.9043-51.2695 56.2012-51.0742L56.2012-38.8672ZM17.8223-31.6895L34.6191-31.6895C34.8633-26.0742 35.5957-20.8008 36.7676-16.0156C32.373-14.5996 28.6133-12.793 25.7324-10.6445C21.3379-16.6992 18.5059-23.877 17.8223-31.6895ZM41.9434-31.6895L56.2012-31.6895L56.2012-19.1895C51.9043-19.043 47.7539-18.5547 43.9453-17.8223C42.8711-22.1191 42.1875-26.8066 41.9434-31.6895ZM63.3789-19.1895L63.3789-31.6895L77.5879-31.6895C77.3926-26.8066 76.6602-22.1191 75.5859-17.8223C71.7773-18.5547 67.6758-19.043 63.3789-19.1895ZM82.7637-16.0156C83.9844-20.8008 84.7168-26.0742 84.9121-31.6895L101.709-31.6895C101.074-23.877 98.1934-16.6992 93.8477-10.6445C90.9668-12.793 87.207-14.5996 82.7637-16.0156ZM46.0938-10.9863C49.2188-11.5234 52.5879-11.8652 56.2012-12.0117L56.2012 2.97852C52.2461 0.976562 48.6816-4.15039 46.0938-10.9863ZM63.3789-12.0117C66.9434-11.8652 70.3125-11.5234 73.4863-10.9863C70.8984-4.15039 67.2852 0.976562 63.3789 2.97852ZM30.3223-5.27344C32.666-6.88477 35.5469-8.20312 38.8672-9.22852C41.0645-3.32031 44.043 1.5625 47.5098 4.98047C40.9668 2.97852 35.1074-0.585938 30.3223-5.27344ZM80.7129-9.22852C84.0332-8.20312 86.9141-6.88477 89.209-5.27344C84.4238-0.585938 78.5645 2.97852 72.0703 4.98047C75.5371 1.5625 78.4668-3.32031 80.7129-9.22852Z"/>
  </g>
  <g id="Medium-M" transform="matrix(1 0 0 1 1687.3 1126)">
   <path d="M59.2285 15.2344C86.9141 15.2344 109.766-7.61719 109.766-35.2539C109.766-62.8906 86.8652-85.7422 59.1797-85.7422C31.543-85.7422 8.74023-62.8906 8.74023-35.2539C8.74023-7.61719 31.5918 15.2344 59.2285 15.2344ZM29.834-65.8691C34.668-70.5078 40.625-74.0723 47.2168-76.0742C43.75-72.6074 40.8203-67.6758 38.623-61.7188C35.2051-62.793 32.2266-64.209 29.834-65.8691ZM71.2891-76.0254C77.8809-74.0234 83.7891-70.5078 88.623-65.8203C86.2305-64.1602 83.3008-62.793 79.8828-61.6699C77.6855-67.6758 74.7559-72.5586 71.2891-76.0254ZM45.4102-60.0098C48.0957-67.1875 51.7578-72.4609 55.8105-74.3652L55.8105-58.9355C52.0996-59.082 48.6328-59.4238 45.4102-60.0098ZM62.6465-74.3652C66.6992-72.4609 70.4102-67.1875 73.0469-60.0098C69.873-59.4238 66.3574-59.082 62.6465-58.9355ZM16.7969-38.6719C17.4805-46.9238 20.5566-54.541 25.3418-60.791C28.2715-58.5938 32.1289-56.6895 36.6211-55.2734C35.3516-50.2441 34.5703-44.6289 34.3262-38.6719ZM84.1309-38.6719C83.9355-44.6289 83.1055-50.2441 81.8359-55.2734C86.3281-56.6895 90.1855-58.5938 93.1152-60.791C97.9004-54.541 100.977-46.9238 101.66-38.6719ZM62.6465-38.6719L62.6465-52.0996C66.9922-52.2461 71.1914-52.7344 75.0488-53.5156C76.1719-48.9746 76.9531-43.9453 77.1484-38.6719ZM41.3086-38.6719C41.5527-43.9453 42.2852-48.9746 43.4082-53.5156C47.3145-52.7344 51.4648-52.2461 55.8105-52.0996L55.8105-38.6719ZM16.7969-31.8359L34.3262-31.8359C34.5215-25.7812 35.3516-20.1172 36.6699-14.9902C32.2266-13.5742 28.3691-11.7188 25.4395-9.57031C20.6055-15.8691 17.4805-23.5352 16.7969-31.8359ZM41.3086-31.8359L55.8105-31.8359L55.8105-18.1641C51.5137-18.0176 47.3145-17.5293 43.457-16.748C42.2852-21.3867 41.5527-26.5137 41.3086-31.8359ZM62.6465-18.1641L62.6465-31.8359L77.1973-31.8359C76.9531-26.5137 76.1719-21.3867 75-16.748C71.1426-17.5293 66.9922-18.0176 62.6465-18.1641ZM81.8359-14.9902C83.1055-20.1172 83.9355-25.7812 84.1797-31.8359L101.66-31.8359C100.977-23.5352 97.8516-15.8691 93.0176-9.57031C90.0879-11.7188 86.2793-13.5742 81.8359-14.9902ZM62.6465-11.3281C66.3574-11.1816 69.7754-10.8398 72.998-10.2539C70.3613-3.22266 66.6992 2.00195 62.6465 3.90625ZM45.5078-10.2539C48.6816-10.8398 52.1484-11.1816 55.8105-11.3281L55.8105 3.90625C51.8066 2.00195 48.1445-3.22266 45.5078-10.2539ZM29.9805-4.54102C32.373-6.15234 35.3027-7.51953 38.6719-8.59375C40.8203-2.73438 43.75 2.09961 47.1191 5.51758C40.625 3.56445 34.7656 0.0488281 29.9805-4.54102ZM79.834-8.59375C83.2031-7.51953 86.1328-6.15234 88.5254-4.54102C83.6914 0.0488281 77.832 3.56445 71.3379 5.51758C74.7559 2.09961 77.6367-2.73438 79.834-8.59375Z"/>
  </g>
  <g id="Regular-M" transform="matrix(1 0 0 1 1391.3 1126)">
   <path d="M58.5449 14.5508C85.791 14.5508 108.35-8.05664 108.35-35.2539C108.35-62.5 85.7422-85.0586 58.4961-85.0586C31.2988-85.0586 8.74023-62.5 8.74023-35.2539C8.74023-8.05664 31.3477 14.5508 58.5449 14.5508ZM29.3457-66.8945C34.2285-71.4355 40.1855-74.8535 46.7285-76.7578C43.3594-73.3398 40.4785-68.5059 38.3301-62.5488C34.8633-63.6719 31.8359-65.1367 29.3457-66.8945ZM70.4102-76.709C76.9043-74.8047 82.8125-71.3867 87.7441-66.8457C85.2539-65.0879 82.2266-63.6719 78.7598-62.5488C76.6113-68.457 73.7305-73.291 70.4102-76.709ZM44.6289-60.9375C47.3633-68.4082 51.1719-73.7793 55.3711-75.6348L55.3711-59.8145C51.5137-59.9609 47.9492-60.3516 44.6289-60.9375ZM61.7676-75.6348C65.918-73.7793 69.7266-68.4082 72.4609-60.9375C69.1406-60.3516 65.5762-59.9609 61.7676-59.8145ZM15.4785-38.4766C16.1621-47.3633 19.6289-55.6152 25-62.2559C28.0273-59.9609 31.9336-58.0566 36.4746-56.5918C35.0586-51.123 34.1797-45.0195 33.9355-38.4766ZM83.1543-38.4766C82.9102-45.0195 82.0312-51.123 80.6152-56.5918C85.1562-58.0566 89.0625-59.9609 92.041-62.207C97.4609-55.6152 100.928-47.3633 101.611-38.4766ZM61.7676-38.4766L61.7676-53.418C66.1621-53.5645 70.3613-54.1016 74.3164-54.9316C75.5859-49.9023 76.3672-44.3359 76.6113-38.4766ZM40.4785-38.4766C40.7227-44.3359 41.5527-49.9023 42.7734-54.9316C46.7285-54.1016 50.9277-53.5645 55.3711-53.418L55.3711-38.4766ZM15.4785-32.0801L33.9355-32.0801C34.1797-25.3906 35.0586-19.2383 36.4746-13.7207C31.9824-12.2559 28.125-10.3516 25.1465-8.10547C19.6777-14.7949 16.1621-23.0957 15.4785-32.0801ZM40.4785-32.0801L55.3711-32.0801L55.3711-16.8457C50.9766-16.6992 46.7773-16.1621 42.8711-15.3809C41.5527-20.459 40.6738-26.123 40.4785-32.0801ZM61.7676-16.8457L61.7676-32.0801L76.6113-32.0801C76.416-26.123 75.5371-20.459 74.2188-15.3809C70.3613-16.1621 66.1133-16.6992 61.7676-16.8457ZM80.6152-13.7207C82.0312-19.2383 82.9102-25.3906 83.1543-32.0801L101.611-32.0801C100.928-23.0957 97.4121-14.7949 91.9434-8.10547C88.9648-10.3516 85.1074-12.2559 80.6152-13.7207ZM61.7676-10.4492C65.5273-10.3027 69.0918-9.96094 72.3633-9.32617C69.6289-2.05078 65.8691 3.32031 61.7676 5.17578ZM44.7266-9.32617C47.998-9.96094 51.5625-10.3027 55.3711-10.4492L55.3711 5.17578C51.2207 3.32031 47.4609-2.05078 44.7266-9.32617ZM78.7109-7.76367C82.1289-6.64062 85.1074-5.22461 87.5977-3.51562C82.7148 0.927734 76.9043 4.29688 70.459 6.20117C73.7305 2.83203 76.5625-1.95312 78.7109-7.76367ZM29.4922-3.51562C31.9824-5.22461 34.9609-6.64062 38.3789-7.76367C40.5273-1.95312 43.3594 2.83203 46.6797 6.20117C40.2344 4.29688 34.375 0.927734 29.4922-3.51562Z"/>
  </g>
  <g id="Light-M" transform="matrix(1 0 0 1 1095.42 1126)">
   <path d="M57.7148 13.7207C84.5215 13.7207 106.689-8.44727 106.689-35.2539C106.689-62.1094 84.5215-84.2285 57.666-84.2285C30.8594-84.2285 8.74023-62.1094 8.74023-35.2539C8.74023-8.44727 30.9082 13.7207 57.7148 13.7207ZM27.6855-66.9434C33.1055-72.0703 39.8438-75.8789 47.2656-77.7344C43.457-74.2676 40.1855-68.9453 37.793-62.207C33.8379-63.3789 30.4199-64.9902 27.6855-66.9434ZM68.1641-77.7344C75.6348-75.8301 82.3242-72.0703 87.7441-66.9434C84.9609-64.9902 81.5918-63.3789 77.6367-62.207C75.2441-68.9453 71.9727-74.2676 68.1641-77.7344ZM42.8223-60.9375C45.8496-69.5801 50.293-75.5859 55.1758-77.1973L55.1758-59.6191C50.6836-59.7656 46.582-60.2051 42.8223-60.9375ZM60.2539-77.1973C65.1367-75.5859 69.5801-69.5801 72.6074-60.9375C68.8477-60.2051 64.7461-59.7656 60.2539-59.6191ZM14.0625-37.793C14.5996-47.4609 18.3594-56.2988 24.2676-63.3301C27.3926-60.9375 31.4941-58.9844 36.3281-57.5195C34.7656-51.709 33.7891-45.0684 33.5938-37.793ZM81.8359-37.793C81.6406-45.0684 80.6641-51.709 79.1016-57.5195C83.9355-58.9844 88.0371-60.9375 91.1621-63.2812C97.0703-56.2988 100.83-47.4609 101.367-37.793ZM60.2539-37.793L60.2539-54.5898C65.1367-54.7363 69.8242-55.2734 74.0723-56.2012C75.5371-50.6836 76.416-44.4336 76.6113-37.793ZM38.8184-37.793C39.0137-44.4336 39.9414-50.6836 41.3574-56.2012C45.6543-55.2734 50.293-54.7363 55.1758-54.5898L55.1758-37.793ZM14.0625-32.7148L33.5938-32.7148C33.7891-25.3906 34.7656-18.6523 36.3281-12.793C31.5918-11.3281 27.4902-9.375 24.4141-7.08008C18.4082-14.1113 14.5996-22.998 14.0625-32.7148ZM38.8184-32.7148L55.1758-32.7148L55.1758-15.6738C50.3418-15.5762 45.7031-14.9902 41.4551-14.1113C39.9414-19.6777 38.9648-26.0742 38.8184-32.7148ZM60.2539-15.6738L60.2539-32.7148L76.6602-32.7148C76.4648-26.0742 75.4883-19.6777 73.9746-14.1113C69.7266-14.9902 65.1367-15.5762 60.2539-15.6738ZM79.1016-12.793C80.6641-18.6523 81.6406-25.3906 81.8359-32.7148L101.367-32.7148C100.83-22.998 97.0215-14.1113 91.0156-7.08008C87.9395-9.375 83.8379-11.3281 79.1016-12.793ZM60.2539-10.6445C64.6973-10.498 68.7988-10.0586 72.5098-9.32617C69.4824-0.878906 65.0879 5.17578 60.2539 6.78711ZM42.9199-9.32617C46.6797-10.0586 50.7324-10.498 55.1758-10.6445L55.1758 6.78711C50.3418 5.17578 45.9473-0.878906 42.9199-9.32617ZM77.6367-8.05664C81.4941-6.88477 84.8633-5.32227 87.5977-3.4668C82.2266 1.5625 75.6348 5.32227 68.3594 7.17773C72.0703 3.71094 75.2441-1.51367 77.6367-8.05664ZM27.832-3.4668C30.5664-5.32227 33.9355-6.88477 37.8418-8.05664C40.1855-1.51367 43.3594 3.71094 47.0703 7.17773C39.7949 5.32227 33.2031 1.5625 27.832-3.4668Z"/>
  </g>
  <g id="Thin-M" transform="matrix(1 0 0 1 799.806 1126)">
   <path d="M56.6406 12.5977C82.9102 12.5977 104.492-8.98438 104.492-35.2539C104.492-61.5723 82.9102-83.1543 56.5918-83.1543C30.3223-83.1543 8.74023-61.5723 8.74023-35.2539C8.74023-8.98438 30.3223 12.5977 56.6406 12.5977ZM40.4297-60.9375C43.8477-71.1426 49.1211-77.9785 54.9805-79.1016L54.9805-59.4238C49.6094-59.5215 44.7754-60.0586 40.4297-60.9375ZM58.3008-79.1016C64.1113-77.9785 69.3848-71.1426 72.8027-60.9375C68.5059-60.0586 63.623-59.5215 58.3008-59.4238ZM25.4883-66.9922C31.5918-72.998 39.4043-77.2461 48.0957-78.9551C43.7012-75.6348 39.7949-69.7266 37.1094-61.7676C32.4707-63.0371 28.6133-64.8438 25.4883-66.9922ZM65.1367-78.9551C73.8281-77.2461 81.6406-72.998 87.7441-66.9922C84.6191-64.8438 80.7617-63.0371 76.123-61.7676C73.4375-69.7266 69.5801-75.6348 65.1367-78.9551ZM12.1582-36.9141C12.5488-47.5098 16.6992-57.2266 23.291-64.6973C26.5625-62.2559 30.957-60.2539 36.1816-58.7402C34.375-52.4902 33.3008-45.166 33.1543-36.9141ZM80.0781-36.9141C79.9805-45.166 78.8574-52.4902 77.0996-58.7402C82.2754-60.2539 86.6699-62.2559 89.9414-64.6973C96.582-57.2266 100.732-47.5098 101.123-36.9141ZM58.3008-36.9141L58.3008-56.1035C63.8184-56.2012 69.043-56.8359 73.7305-57.9102C75.4395-51.7578 76.5137-44.6289 76.6602-36.9141ZM36.5723-36.9141C36.7188-44.6289 37.793-51.7578 39.502-57.9102C44.1895-56.8359 49.4141-56.2012 54.9805-56.1035L54.9805-36.9141ZM12.1582-33.5938L33.1543-33.5938C33.252-25.293 34.375-17.8223 36.1816-11.5234C31.0059-10.0586 26.6602-8.05664 23.4375-5.66406C16.748-13.1836 12.5488-22.9004 12.1582-33.5938ZM36.5723-33.5938L54.9805-33.5938L54.9805-14.1602C49.4629-14.0625 44.2871-13.4277 39.6484-12.4023C37.8418-18.7012 36.7188-25.9766 36.5723-33.5938ZM58.3008-14.1602L58.3008-33.5938L76.6602-33.5938C76.5137-25.9766 75.4395-18.7012 73.6328-12.4023C68.9453-13.4277 63.7695-14.0625 58.3008-14.1602ZM77.0996-11.5234C78.9062-17.8223 79.9805-25.293 80.127-33.5938L101.123-33.5938C100.684-22.9004 96.4844-13.1836 89.8438-5.66406C86.5723-8.05664 82.2266-10.0586 77.0996-11.5234ZM58.3008-10.8398C63.5742-10.7422 68.3594-10.2539 72.6562-9.32617C69.2383 0.634766 64.0137 7.61719 58.3008 8.74023ZM40.5762-9.32617C44.873-10.2539 49.6582-10.7422 54.9805-10.8398L54.9805 8.74023C49.2188 7.61719 43.9941 0.634766 40.5762-9.32617ZM76.123-8.49609C80.6641-7.22656 84.5215-5.51758 87.5977-3.36914C81.5918 2.44141 73.9746 6.64062 65.5273 8.34961C69.7754 4.98047 73.4863-0.78125 76.123-8.49609ZM25.6348-3.36914C28.7109-5.51758 32.5684-7.22656 37.1094-8.49609C39.7461-0.78125 43.457 4.98047 47.7539 8.34961C39.2578 6.64062 31.6406 2.44141 25.6348-3.36914Z"/>
  </g>
  <g id="Ultralight-M" transform="matrix(1 0 0 1 503.656 1126)">
   <path d="M56.0547 12.0605C82.0801 12.0605 103.369-9.22852 103.369-35.2539C103.369-61.2793 82.0801-82.5684 56.0547-82.5684C30.0293-82.5684 8.74023-61.2793 8.74023-35.2539C8.74023-9.22852 30.0293 12.0605 56.0547 12.0605ZM39.209-60.9863C42.7734-71.9238 48.5352-79.1504 54.834-79.9805L54.834-59.3262C49.0723-59.375 43.8477-59.9609 39.209-60.9863ZM57.2754-79.9805C63.5742-79.1504 69.3359-71.9238 72.9004-60.9863C68.3105-59.9609 63.0859-59.375 57.2754-59.3262ZM87.7441-67.041C84.4727-64.7461 80.3223-62.8906 75.3418-61.5723C72.5098-70.166 68.2617-76.3672 63.5254-79.541C72.9492-77.9785 81.3965-73.4375 87.8418-66.9434ZM24.3652-67.041L24.2676-66.9434C30.7129-73.4375 39.1602-77.9785 48.584-79.541C43.8477-76.3672 39.6484-70.166 36.7676-61.5723C31.7871-62.8906 27.6367-64.7461 24.3652-67.041ZM79.1992-36.4746C79.1016-45.2148 77.9297-52.9297 76.0254-59.375C81.4453-60.8887 85.9863-62.9395 89.3555-65.3809C96.3379-57.666 100.635-47.5586 100.928-36.4746ZM11.1816-36.4746C11.4746-47.5586 15.8203-57.666 22.7539-65.3809C26.123-62.9395 30.6641-60.8887 36.084-59.375C34.1797-52.9297 33.0078-45.2148 32.9102-36.4746ZM35.4492-36.4746C35.5469-44.7266 36.7188-52.2949 38.5254-58.7891C43.457-57.666 48.9746-56.9824 54.834-56.8848L54.834-36.4746ZM57.2754-36.4746L57.2754-56.8848C63.1836-56.9824 68.6523-57.666 73.584-58.7891C75.4395-52.2949 76.5625-44.7266 76.6602-36.4746ZM11.1816-34.0332L32.9102-34.0332C33.0078-25.1953 34.1797-17.4316 36.084-10.8887C30.7617-9.42383 26.2695-7.42188 22.9004-4.98047C15.8691-12.6953 11.4746-22.8516 11.1816-34.0332ZM35.4492-34.0332L54.834-34.0332L54.834-13.3789C49.0234-13.2812 43.5547-12.6465 38.7207-11.5234C36.7188-18.1641 35.5469-25.9277 35.4492-34.0332ZM57.2754-13.3789L57.2754-34.0332L76.6602-34.0332C76.5625-25.9277 75.3906-18.1641 73.4375-11.5234C68.5547-12.6465 63.0859-13.2812 57.2754-13.3789ZM76.0254-10.8887C77.9785-17.4316 79.1016-25.1953 79.1992-34.0332L100.928-34.0332C100.635-22.8516 96.2402-12.6953 89.209-4.98047C85.8887-7.42188 81.3965-9.42383 76.0254-10.8887ZM54.1992 9.61914C48.2422 8.30078 42.8223 1.02539 39.4043-9.32617C43.9453-10.3516 49.1211-10.8887 54.834-10.9375L54.834 9.61914C54.6387 9.61914 54.3945 9.61914 54.1992 9.61914ZM57.2754-10.9375C62.9883-10.8887 68.1641-10.3516 72.7539-9.32617C69.2871 1.02539 63.916 8.30078 57.959 9.61914C57.7148 9.61914 57.5195 9.61914 57.2754 9.61914ZM75.3906-8.69141C80.2246-7.42188 84.3262-5.61523 87.5977-3.32031C81.2988 2.92969 73.1445 7.32422 64.0137 8.93555C68.5547 5.66406 72.6074-0.390625 75.3906-8.69141ZM24.5117-3.32031C27.6367-5.51758 31.7871-7.37305 36.7676-8.69141C39.5508-0.390625 43.5547 5.66406 48.0957 8.93555C39.0137 7.32422 30.8594 2.92969 24.5117-3.32031Z"/>
  </g>
  <g id="Black-S" transform="matrix(1 0 0 1 2884.57 696)">
   <path d="M48.8281 6.78711C71.9727 6.78711 90.8203-12.0605 90.8203-35.2051C90.8203-58.3496 71.9727-77.1973 48.8281-77.1973C25.6836-77.1973 6.83594-58.3496 6.83594-35.2051C6.83594-12.0605 25.6836 6.78711 48.8281 6.78711ZM59.1797-64.6973C64.3555-62.8418 68.9453-59.668 72.4609-55.6152C70.9473-54.5898 68.8965-53.7109 66.5039-52.9785C64.6973-57.8125 62.1582-61.8652 59.1797-64.6973ZM25.1953-55.6152C28.7109-59.668 33.3008-62.8418 38.4766-64.6973C35.498-61.8652 32.959-57.8125 31.1523-53.0273C28.7598-53.7598 26.7578-54.5898 25.1953-55.6152ZM38.2324-51.4648C40.0879-56.1035 42.627-59.7168 45.3613-61.4258L45.3613-50.7812C42.9199-50.8789 40.5273-51.123 38.2324-51.4648ZM52.2949-61.4258C55.0293-59.7168 57.5684-56.0547 59.4238-51.4648C57.1289-51.123 54.7363-50.8789 52.2949-50.7812ZM69.4336-38.7207C69.2383-41.4062 68.8965-43.9453 68.4082-46.3867C71.5332-47.3633 74.2676-48.6328 76.3184-50.0488C78.1738-46.582 79.4434-42.7734 79.8828-38.7207ZM17.7734-38.7207C18.2129-42.7734 19.4824-46.582 21.3379-50.0488C23.3887-48.6328 26.123-47.3633 29.248-46.3867C28.7598-43.9453 28.418-41.4062 28.2227-38.7207ZM35.3027-38.7207C35.4492-40.7715 35.791-42.8223 36.2305-44.7754C39.1113-44.2871 42.1875-43.9453 45.3613-43.8477L45.3613-38.7207ZM52.2949-38.7207L52.2949-43.8477C55.4688-43.9453 58.5449-44.2871 61.4258-44.7754C61.8652-42.8223 62.207-40.7715 62.3535-38.7207ZM17.7734-31.7871L28.2227-31.7871C28.3691-29.0527 28.7598-26.416 29.2969-23.9258C26.123-22.9492 23.4375-21.7285 21.3867-20.3125C19.4824-23.7793 18.2129-27.6855 17.7734-31.7871ZM35.3027-31.7871L45.3613-31.7871L45.3613-26.4648C42.1875-26.3672 39.1113-26.0254 36.2305-25.5371C35.791-27.5391 35.4492-29.6387 35.3027-31.7871ZM52.2949-26.4648L52.2949-31.7871L62.3535-31.7871C62.207-29.6387 61.8652-27.5391 61.4258-25.5371C58.5449-26.0254 55.4688-26.3672 52.2949-26.4648ZM68.3594-23.9258C68.8965-26.416 69.2871-29.0527 69.4336-31.7871L79.8828-31.7871C79.4434-27.6855 78.1738-23.7793 76.2695-20.3125C74.2188-21.7285 71.5332-22.9492 68.3594-23.9258ZM52.2949-19.5312C54.7363-19.4336 57.1289-19.1895 59.375-18.8477C57.5195-14.3066 55.0293-10.6934 52.2949-8.98438ZM38.2812-18.8477C40.5273-19.1895 42.9199-19.4336 45.3613-19.5312L45.3613-8.98438C42.627-10.6934 40.1367-14.2578 38.2812-18.8477ZM66.4551-17.334C68.8477-16.6016 70.8984-15.7227 72.4121-14.7461C68.8965-10.6934 64.3555-7.56836 59.2285-5.76172C62.1582-8.54492 64.6973-12.5488 66.4551-17.334ZM25.2441-14.7461C26.7578-15.7227 28.8086-16.6016 31.2012-17.334C32.959-12.5488 35.498-8.54492 38.4277-5.76172C33.3008-7.56836 28.7598-10.6934 25.2441-14.7461Z"/>
  </g>
  <g id="Heavy-S" transform="matrix(1 0 0 1 2588.47 696)">
   <path d="M48.2422 6.15234C70.9961 6.15234 89.5996-12.4512 89.5996-35.2051C89.5996-57.959 70.9961-76.6113 48.1934-76.6113C25.4395-76.6113 6.83594-57.959 6.83594-35.2051C6.83594-12.4512 25.4395 6.15234 48.2422 6.15234ZM24.8535-56.6895C28.418-60.5469 32.9102-63.5742 37.9883-65.2832C35.1074-62.5 32.7148-58.5938 30.957-53.9062C28.5156-54.6875 26.4648-55.6152 24.8535-56.6895ZM58.4961-65.2832C63.5254-63.5254 68.0664-60.5469 71.582-56.6406C70.0195-55.5664 67.9199-54.6387 65.4785-53.9062C63.7207-58.5938 61.3281-62.5 58.4961-65.2832ZM51.5137-62.5488C54.2969-60.8398 56.8848-57.1289 58.7402-52.3926C56.4941-52.002 54.0527-51.7578 51.5137-51.6602ZM37.6953-52.3926C39.5508-57.1777 42.1387-60.8398 44.9219-62.5488L44.9219-51.6602C42.3828-51.7578 39.9902-52.002 37.6953-52.3926ZM16.6016-38.5742C17.0898-43.2129 18.6523-47.6074 20.9473-51.4648C23.0469-49.9512 25.8301-48.6328 29.1016-47.6074C28.4668-44.7754 28.0762-41.748 27.8809-38.5742ZM68.5547-38.5742C68.3594-41.748 67.9688-44.7754 67.334-47.6074C70.6055-48.6328 73.3887-49.9512 75.4883-51.4648C77.832-47.6074 79.3457-43.2129 79.834-38.5742ZM51.5137-38.5742L51.5137-45.0195C54.7363-45.166 57.8125-45.5078 60.6934-45.9961C61.2305-43.6523 61.6211-41.1133 61.8164-38.5742ZM34.6191-38.5742C34.8145-41.1133 35.2051-43.6523 35.7422-45.9961C38.623-45.5078 41.6992-45.166 44.9219-45.0195L44.9219-38.5742ZM16.6016-31.9336L27.8809-31.9336C28.0273-28.7109 28.4668-25.5859 29.1504-22.7051C25.8789-21.6797 23.0957-20.4102 20.9961-18.8965C18.6523-22.8027 17.0898-27.1973 16.6016-31.9336ZM34.6191-31.9336L44.9219-31.9336L44.9219-25.293C41.6992-25.1465 38.623-24.8047 35.7422-24.3164C35.2051-26.709 34.8145-29.2969 34.6191-31.9336ZM51.5137-25.293L51.5137-31.9336L61.8164-31.9336C61.6211-29.2969 61.2305-26.7578 60.6934-24.3164C57.8125-24.8047 54.7363-25.1465 51.5137-25.293ZM67.334-22.7051C67.9688-25.5859 68.4082-28.7109 68.5547-31.9336L79.834-31.9336C79.3457-27.1973 77.7832-22.8027 75.4395-18.8965C73.3398-20.4102 70.5566-21.6797 67.334-22.7051ZM37.6953-17.9199C39.9902-18.3105 42.3828-18.5547 44.9219-18.6523L44.9219-7.86133C42.1387-9.57031 39.5996-13.2324 37.6953-17.9199ZM51.5137-18.6523C54.0527-18.5547 56.4453-18.3105 58.7402-17.9199C56.8359-13.2324 54.2969-9.57031 51.5137-7.91016ZM65.4297-16.4062C67.8711-15.6738 69.9219-14.7461 71.5332-13.6719C67.9688-9.86328 63.5254-6.88477 58.4961-5.12695C61.3281-7.91016 63.7207-11.7676 65.4297-16.4062ZM24.9023-13.6719C26.5137-14.7461 28.5645-15.6738 31.0059-16.4062C32.7637-11.7676 35.1074-7.91016 37.9395-5.12695C32.9102-6.88477 28.4668-9.86328 24.9023-13.6719Z"/>
  </g>
  <g id="Bold-S" transform="matrix(1 0 0 1 2292.44 696)">
   <path d="M47.5586 5.46875C69.873 5.46875 88.2324-12.8906 88.2324-35.2539C88.2324-57.5684 69.873-75.9277 47.5098-75.9277C25.1953-75.9277 6.83594-57.5684 6.83594-35.2539C6.83594-12.8906 25.1953 5.46875 47.5586 5.46875ZM24.4629-57.8125C28.0273-61.5234 32.4707-64.3066 37.4023-65.9668C34.7168-63.2812 32.4219-59.4727 30.7129-54.9316C28.2715-55.7129 26.123-56.6895 24.4629-57.8125ZM57.666-65.9668C62.5977-64.3066 67.041-61.4746 70.6055-57.8125C68.9453-56.6895 66.7969-55.7129 64.3555-54.8828C62.6465-59.4727 60.3516-63.2324 57.666-65.9668ZM50.6836-63.7695C53.5156-62.1094 56.1035-58.3496 58.0078-53.418C55.7129-53.0273 53.2715-52.7832 50.6836-52.6855ZM37.0605-53.418C38.9648-58.3496 41.5527-62.1094 44.3848-63.7695L44.3848-52.6855C41.8457-52.7832 39.3555-53.0273 37.0605-53.418ZM15.2832-38.3789C15.8203-43.75 17.6758-48.7305 20.5566-53.0273C22.7051-51.416 25.5859-50.0488 28.9551-48.9746C28.1738-45.6543 27.6855-42.1387 27.4902-38.3789ZM67.5781-38.3789C67.3828-42.1387 66.8945-45.6543 66.1621-48.9746C69.4824-50.0488 72.3633-51.416 74.5117-53.0273C77.3926-48.7305 79.248-43.75 79.7852-38.3789ZM50.6836-38.3789L50.6836-46.3867C53.9062-46.5332 56.9824-46.875 59.8633-47.4121C60.5469-44.5801 60.9863-41.5527 61.1816-38.3789ZM33.8867-38.3789C34.082-41.5527 34.5703-44.5801 35.2051-47.4121C38.0859-46.875 41.2109-46.5332 44.3848-46.3867L44.3848-38.3789ZM15.2832-32.1289L27.4902-32.1289C27.6855-28.3203 28.1738-24.707 28.9551-21.3379C25.6348-20.3125 22.8027-18.9453 20.6055-17.334C17.7246-21.6797 15.8203-26.709 15.2832-32.1289ZM33.8867-32.1289L44.3848-32.1289L44.3848-23.9258C41.2109-23.7793 38.1348-23.4375 35.2539-22.9004C34.5215-25.8301 34.082-28.9062 33.8867-32.1289ZM50.6836-23.9258L50.6836-32.1289L61.1816-32.1289C60.9863-28.9062 60.5469-25.8301 59.8633-22.9004C56.9824-23.4375 53.9062-23.7793 50.6836-23.9258ZM66.1133-21.3379C66.8945-24.707 67.4316-28.3203 67.5781-32.1289L79.7852-32.1289C79.248-26.709 77.3438-21.6797 74.4629-17.334C72.3145-18.9453 69.4336-20.3125 66.1133-21.3379ZM50.6836-17.627C53.2715-17.5293 55.7129-17.2852 58.0078-16.8945C56.0547-12.0117 53.5156-8.30078 50.6836-6.68945ZM37.1094-16.8945C39.4043-17.2852 41.8457-17.5293 44.3848-17.627L44.3848-6.68945C41.6016-8.30078 39.0137-12.0117 37.1094-16.8945ZM24.5605-12.5488C26.2207-13.6719 28.3203-14.6484 30.7617-15.4297C32.4707-10.9375 34.7168-7.17773 37.4023-4.49219C32.5195-6.15234 28.125-8.93555 24.5605-12.5488ZM64.3066-15.4297C66.748-14.6484 68.8477-13.6719 70.5566-12.5488C66.9922-8.93555 62.5977-6.15234 57.666-4.49219C60.3516-7.17773 62.5977-10.9375 64.3066-15.4297Z"/>
  </g>
  <g id="Semibold-S" transform="matrix(1 0 0 1 1996.2 696)">
   <path d="M47.0703 4.98047C69.0918 4.98047 87.3047-13.1836 87.3047-35.2539C87.3047-57.2754 69.0918-75.4883 47.0215-75.4883C25-75.4883 6.83594-57.2754 6.83594-35.2539C6.83594-13.1836 25.0488 4.98047 47.0703 4.98047ZM24.1699-58.6426C27.7832-62.1582 32.1777-64.8438 37.0605-66.4551C34.4727-63.7695 32.2266-60.0586 30.5664-55.6152C28.0762-56.3965 25.9277-57.4219 24.1699-58.6426ZM57.1289-66.4062C61.9629-64.8438 66.3574-62.1094 69.9219-58.5938C68.2129-57.4219 66.0645-56.3965 63.5742-55.6152C61.9141-60.0586 59.7168-63.7207 57.1289-66.4062ZM50.0977-64.5996C52.9785-62.9883 55.6152-59.1797 57.5195-54.1504C55.2246-53.7109 52.7344-53.4668 50.0977-53.3691ZM36.6211-54.1504C38.5742-59.1797 41.1621-62.9883 44.043-64.5996L44.043-53.3691C41.4062-53.4668 38.916-53.7109 36.6211-54.1504ZM14.4043-38.2812C14.9414-44.0918 17.0898-49.5117 20.3125-54.0527C22.5098-52.3926 25.4395-50.9766 28.8086-49.9023C27.9785-46.2891 27.3926-42.3828 27.2461-38.2812ZM66.9434-38.2812C66.748-42.3828 66.1621-46.2891 65.332-49.9023C68.7012-50.9766 71.6309-52.3926 73.8281-54.0527C77.0508-49.5117 79.1992-44.0918 79.7363-38.2812ZM33.3984-38.2812C33.5938-41.7969 34.082-45.2148 34.8633-48.3398C37.7441-47.8027 40.8203-47.4609 44.043-47.3145L44.043-38.2812ZM50.0977-38.2812L50.0977-47.3145C53.3203-47.4609 56.3965-47.8027 59.2773-48.3398C60.0586-45.2148 60.5469-41.7969 60.7422-38.2812ZM14.4043-32.2266L27.1973-32.2266C27.3926-28.0273 27.9785-24.0723 28.8574-20.459C25.4883-19.3359 22.6074-17.9688 20.4102-16.3086C17.0898-20.8984 14.9414-26.3672 14.4043-32.2266ZM33.3984-32.2266L44.043-32.2266L44.043-22.998C40.8203-22.8516 37.7441-22.5098 34.8633-21.9727C34.082-25.1465 33.5938-28.6133 33.3984-32.2266ZM50.0977-22.998L50.0977-32.2266L60.7422-32.2266C60.5957-28.6133 60.0586-25.1465 59.2773-21.9727C56.3965-22.5098 53.3203-22.8516 50.0977-22.998ZM65.2832-20.459C66.1621-24.0723 66.748-28.0273 66.9434-32.2266L79.7363-32.2266C79.1992-26.3672 77.0508-20.8984 73.7793-16.3086C71.5332-17.9688 68.6523-19.3359 65.2832-20.459ZM36.6699-16.2109C38.9648-16.6016 41.4551-16.8457 44.043-16.9434L44.043-5.85938C41.2109-7.4707 38.5742-11.2305 36.6699-16.2109ZM50.0977-16.9434C52.6855-16.8457 55.1758-16.6016 57.4707-16.2109C55.5664-11.2305 52.9297-7.4707 50.0977-5.85938ZM24.3164-11.7676C26.0254-12.9395 28.1738-13.916 30.6152-14.7461C32.2754-10.3516 34.4727-6.68945 37.0117-4.05273C32.2266-5.61523 27.8809-8.30078 24.3164-11.7676ZM63.5254-14.7461C65.9668-13.916 68.1152-12.9395 69.873-11.7676C66.2598-8.30078 61.9629-5.61523 57.1289-4.05273C59.7168-6.68945 61.8652-10.3516 63.5254-14.7461Z"/>
  </g>
  <g id="Medium-S" transform="matrix(1 0 0 1 1699.83 696)">
   <path d="M46.7285 4.63867C68.5547 4.63867 86.6211-13.4277 86.6211-35.2539C86.6211-57.0801 68.5059-75.1465 46.6797-75.1465C24.8535-75.1465 6.83594-57.0801 6.83594-35.2539C6.83594-13.4277 24.9023 4.63867 46.7285 4.63867ZM24.0234-59.2285C27.5879-62.6465 31.9336-65.2832 36.7676-66.7969C34.2285-64.1602 32.0801-60.498 30.4199-56.1035C27.9785-56.9336 25.7812-58.0078 24.0234-59.2285ZM56.7383-66.7969C61.4746-65.2344 65.8203-62.5977 69.4336-59.1797C67.627-57.959 65.4785-56.9336 62.9883-56.1035C61.377-60.498 59.2285-64.1113 56.7383-66.7969ZM36.2793-54.6875C38.2324-59.8145 40.8691-63.6719 43.7988-65.2832L43.7988-53.9062C41.1133-54.0039 38.623-54.248 36.2793-54.6875ZM49.6582-65.2832C52.5391-63.6719 55.2246-59.8145 57.1777-54.6875C54.834-54.248 52.2949-54.0039 49.6582-53.9062ZM13.7207-38.1836C14.3066-44.3848 16.6016-50.0977 20.166-54.8828C22.4121-53.1738 25.3418-51.709 28.7598-50.5859C27.832-46.7773 27.1973-42.627 27.002-38.1836ZM66.4062-38.1836C66.2109-42.627 65.625-46.7773 64.6973-50.5859C68.1152-51.709 71.0449-53.125 73.291-54.834C76.8555-50.0977 79.1504-44.3848 79.6875-38.1836ZM33.0078-38.1836C33.2031-42.041 33.7402-45.7031 34.5703-49.0723C37.4512-48.5352 40.5762-48.1445 43.7988-47.998L43.7988-38.1836ZM49.6582-38.1836L49.6582-47.998C52.8809-48.1445 55.957-48.5352 58.8867-49.0723C59.668-45.7031 60.2539-42.041 60.4004-38.1836ZM13.7207-32.3242L27.002-32.3242C27.1973-27.832 27.7832-23.584 28.7598-19.7266C25.3906-18.6523 22.4609-17.1875 20.2148-15.5273C16.6504-20.3125 14.3066-26.0742 13.7207-32.3242ZM33.0078-32.3242L43.7988-32.3242L43.7988-22.3145C40.5762-22.168 37.5-21.8262 34.6191-21.2402C33.7402-24.6582 33.2031-28.418 33.0078-32.3242ZM49.6582-22.3145L49.6582-32.3242L60.4492-32.3242C60.2539-28.418 59.668-24.6582 58.8379-21.2402C55.957-21.8262 52.8809-22.168 49.6582-22.3145ZM64.6973-19.7266C65.625-23.584 66.2598-27.832 66.4062-32.3242L79.7363-32.3242C79.1504-26.0742 76.8066-20.3125 73.1934-15.5273C70.9473-17.1875 68.0664-18.6523 64.6973-19.7266ZM49.6582-16.4062C52.2949-16.3086 54.7852-16.0645 57.0801-15.625C55.1758-10.5957 52.5391-6.78711 49.6582-5.22461ZM36.3281-15.625C38.6719-16.0645 41.1621-16.3086 43.7988-16.4062L43.7988-5.22461C40.918-6.78711 38.2812-10.5957 36.3281-15.625ZM24.1211-11.1816C25.8789-12.4023 28.0273-13.3789 30.4688-14.209C32.1289-9.91211 34.2285-6.29883 36.7188-3.71094C31.9824-5.22461 27.6855-7.8125 24.1211-11.1816ZM62.9395-14.209C65.4297-13.3789 67.5293-12.4023 69.3359-11.1816C65.7227-7.8125 61.4746-5.22461 56.7383-3.71094C59.1797-6.29883 61.3281-9.91211 62.9395-14.209Z"/>
  </g>
  <g id="Regular-S" transform="matrix(1 0 0 1 1403.58 696)">
   <path d="M46.2402 4.15039C67.7734 4.15039 85.6934-13.7207 85.6934-35.2539C85.6934-56.7871 67.7246-74.6582 46.1914-74.6582C24.707-74.6582 6.83594-56.7871 6.83594-35.2539C6.83594-13.7207 24.7559 4.15039 46.2402 4.15039ZM23.7793-60.0098C27.3438-63.2812 31.6406-65.7715 36.377-67.2852C33.9355-64.6484 31.8848-61.084 30.2734-56.7871C27.7832-57.6172 25.5859-58.6914 23.7793-60.0098ZM56.2012-67.2363C60.8887-65.7227 65.1367-63.2324 68.7012-59.9609C66.8945-58.6914 64.7461-57.6172 62.2559-56.7871C60.6445-61.084 58.5938-64.5996 56.2012-67.2363ZM49.0723-66.1133C52.002-64.5508 54.6875-60.6445 56.6406-55.3711C54.2969-54.9805 51.8066-54.6875 49.0723-54.5898ZM35.8398-55.3711C37.8418-60.6445 40.4785-64.5508 43.4082-66.1133L43.4082-54.5898C40.7227-54.6875 38.1836-54.9805 35.8398-55.3711ZM12.8418-38.0859C13.4277-44.7266 15.9668-50.8789 19.9219-55.8594C22.2168-54.1016 25.1953-52.6367 28.6133-51.5137C27.5879-47.4121 26.9531-42.9199 26.7578-38.0859ZM65.7715-38.0859C65.5762-42.9199 64.9414-47.4121 63.8672-51.5137C67.2852-52.6367 70.2637-54.1016 72.5586-55.8594C76.5137-50.8301 79.1016-44.7266 79.6875-38.0859ZM32.5195-38.0859C32.7148-42.334 33.3008-46.3867 34.2285-50.0488C37.1094-49.4629 40.1855-49.0723 43.4082-48.9258L43.4082-38.0859ZM49.0723-38.0859L49.0723-48.9258C52.2949-49.0723 55.4199-49.4629 58.3008-50.0488C59.2285-46.3867 59.8145-42.334 60.0098-38.0859ZM12.8418-32.4219L26.7578-32.4219C26.9531-27.5391 27.5879-22.9492 28.6621-18.8477C25.293-17.7246 22.3145-16.2598 20.0684-14.502C16.0156-19.5801 13.4277-25.7324 12.8418-32.4219ZM32.5195-32.4219L43.4082-32.4219L43.4082-21.3867C40.2344-21.2402 37.1094-20.8984 34.2285-20.3125C33.3008-24.0234 32.7148-28.125 32.5195-32.4219ZM49.0723-21.3867L49.0723-32.4219L60.0098-32.4219C59.8145-28.125 59.2285-24.0234 58.3008-20.3125C55.3711-20.8984 52.2949-21.2402 49.0723-21.3867ZM63.8672-18.8477C64.8926-22.9492 65.5762-27.5391 65.7715-32.4219L79.6875-32.4219C79.1016-25.7324 76.4648-19.5801 72.4609-14.502C70.166-16.2598 67.2363-17.7246 63.8672-18.8477ZM49.0723-15.7227C51.7578-15.625 54.2969-15.3809 56.5918-14.9414C54.6387-9.76562 52.002-5.95703 49.0723-4.39453ZM35.8887-14.9414C38.2324-15.3809 40.7715-15.625 43.4082-15.7227L43.4082-4.39453C40.5273-5.95703 37.8906-9.76562 35.8887-14.9414ZM62.207-13.5254C64.6484-12.6953 66.7969-11.6699 68.6035-10.4004C65.0391-7.22656 60.791-4.73633 56.1523-3.27148C58.5449-5.85938 60.5957-9.32617 62.207-13.5254ZM23.9258-10.4004C25.7324-11.6699 27.8809-12.6953 30.3223-13.5254C31.9336-9.32617 33.9844-5.85938 36.3281-3.27148C31.6895-4.73633 27.4902-7.22656 23.9258-10.4004Z"/>
  </g>
  <g id="Light-S" transform="matrix(1 0 0 1 1107.6 696)">
   <path d="M45.5078 3.41797C66.6992 3.41797 84.2285-14.0625 84.2285-35.2539C84.2285-56.4453 66.6504-73.9258 45.5078-73.9258C24.3164-73.9258 6.83594-56.4453 6.83594-35.2539C6.83594-14.0625 24.3652 3.41797 45.5078 3.41797ZM22.3145-60.0586C26.3672-63.8672 31.3477-66.6992 36.8164-68.1641C33.9844-65.4785 31.5918-61.4746 29.7852-56.4941C26.9043-57.4219 24.3652-58.5938 22.3145-60.0586ZM54.248-68.1152C59.7168-66.6504 64.6973-63.8184 68.7012-60.0586C66.6504-58.5938 64.1602-57.4219 61.2793-56.4941C59.4727-61.4746 57.0801-65.4297 54.248-68.1152ZM34.2285-55.3711C36.4746-61.6699 39.7461-66.1621 43.2617-67.5293L43.2617-54.4434C40.0391-54.541 37.0117-54.834 34.2285-55.3711ZM47.7539-67.5293C51.3184-66.1621 54.541-61.6699 56.7871-55.3711C54.0527-54.834 51.0254-54.541 47.7539-54.4434ZM11.5723-37.5C12.0117-44.7754 14.8438-51.4648 19.2871-56.8359C21.6797-55.0293 24.8047-53.4668 28.5156-52.3438C27.3438-47.9004 26.6113-42.9199 26.4648-37.5ZM64.5996-37.5C64.4531-42.9199 63.7207-47.9004 62.5488-52.3438C66.2109-53.4668 69.3359-54.9805 71.7285-56.8359C76.1719-51.4648 79.0039-44.7754 79.4922-37.5ZM31.0547-37.5C31.2012-42.4316 31.8848-47.0703 32.959-51.1719C36.1328-50.4883 39.6484-50.0488 43.2617-49.9512L43.2617-37.5ZM47.7539-37.5L47.7539-49.9512C51.416-50.0488 54.8828-50.4883 58.1055-51.1719C59.1797-47.0703 59.8633-42.3828 60.0098-37.5ZM11.5723-33.0078L26.4648-33.0078C26.6113-27.5391 27.3438-22.4609 28.5156-18.0176C24.9023-16.8457 21.7773-15.332 19.3848-13.5742C14.8926-18.9453 12.0605-25.6836 11.5723-33.0078ZM31.0059-33.0078L43.2617-33.0078L43.2617-20.3613C39.6484-20.2637 36.1816-19.8242 33.0078-19.1406C31.8848-23.3398 31.2012-28.0762 31.0059-33.0078ZM47.7539-20.3613L47.7539-33.0078L60.0098-33.0078C59.8633-28.0762 59.1797-23.3398 58.0566-19.1406C54.834-19.8242 51.3672-20.2637 47.7539-20.3613ZM62.5488-18.0176C63.7207-22.4609 64.4531-27.5391 64.5996-33.0078L79.4922-33.0078C79.0039-25.6836 76.123-18.9453 71.6797-13.5742C69.2871-15.332 66.1621-16.8457 62.5488-18.0176ZM47.7539-15.8691C50.9766-15.7715 54.0039-15.4785 56.7383-14.9414C54.4922-8.74023 51.2695-4.29688 47.7539-2.92969ZM34.3262-14.9414C37.0605-15.4785 40.0391-15.7715 43.2617-15.8691L43.2617-2.92969C39.7949-4.29688 36.5723-8.74023 34.3262-14.9414ZM61.2305-13.8184C64.1113-12.9395 66.5527-11.7676 68.6035-10.3516C64.5996-6.64062 59.7168-3.85742 54.3457-2.39258C57.0801-5.07812 59.4727-8.98438 61.2305-13.8184ZM22.4609-10.3516C24.4629-11.7676 26.9531-12.9395 29.834-13.8184C31.5918-8.98438 33.9844-5.07812 36.7188-2.39258C31.2988-3.85742 26.416-6.64062 22.4609-10.3516Z"/>
  </g>
  <g id="Thin-S" transform="matrix(1 0 0 1 811.867 696)">
   <path d="M44.5801 2.49023C65.2832 2.49023 82.2754-14.5508 82.2754-35.2539C82.2754-55.957 65.2344-72.998 44.5312-72.998C23.8281-72.998 6.83594-55.957 6.83594-35.2539C6.83594-14.5508 23.877 2.49023 44.5801 2.49023ZM20.3613-60.1074C25-64.6484 30.9082-67.8711 37.5-69.2383C34.1797-66.6016 31.25-62.1094 29.1992-56.1035C25.6836-57.0801 22.7539-58.4473 20.3613-60.1074ZM51.6113-69.2383C58.2031-67.8711 64.0625-64.6484 68.75-60.1074C66.3574-58.4473 63.4277-57.0801 59.9121-56.1035C57.8613-62.1094 54.9316-66.6016 51.6113-69.2383ZM46.0449-69.2383C50.3906-68.2617 54.3945-63.0371 56.9824-55.3711C53.7109-54.6875 50.0488-54.2969 46.0449-54.248ZM32.1289-55.3711C34.7168-63.0371 38.7207-68.2617 43.1152-69.2383L43.1152-54.248C39.0625-54.2969 35.4004-54.6875 32.1289-55.3711ZM9.86328-36.7188C10.2051-44.873 13.3789-52.2949 18.4082-58.0566C20.9473-56.1523 24.3164-54.5898 28.3691-53.418C27.002-48.584 26.1719-42.9688 26.0254-36.7188ZM63.0859-36.7188C62.9395-42.9688 62.1094-48.584 60.7422-53.418C64.7461-54.5898 68.1641-56.1523 70.7031-58.0566C75.7324-52.2949 78.9062-44.873 79.248-36.7188ZM29.0527-36.7188C29.1992-42.5293 29.9805-47.998 31.2988-52.6855C34.8633-51.8555 38.8672-51.3672 43.1152-51.3184L43.1152-36.7188ZM46.0449-36.7188L46.0449-51.3184C50.2441-51.3672 54.248-51.8555 57.8125-52.6855C59.1309-47.998 59.9121-42.5293 60.0586-36.7188ZM9.86328-33.7891L26.0254-33.7891C26.123-27.4414 27.002-21.7773 28.3691-16.8945C24.4141-15.7715 21.0449-14.209 18.5059-12.3535C13.4277-18.1152 10.2051-25.5859 9.86328-33.7891ZM29.0527-33.7891L43.1152-33.7891L43.1152-18.9941C38.916-18.9453 34.9609-18.457 31.3965-17.6758C30.0293-22.4609 29.1992-27.9785 29.0527-33.7891ZM46.0449-18.9941L46.0449-33.7891L60.0586-33.7891C59.9121-27.9785 59.082-22.4609 57.7148-17.6758C54.1504-18.457 50.1953-18.9453 46.0449-18.9941ZM60.7422-16.8945C62.1094-21.7773 62.9883-27.4414 63.0859-33.7891L79.248-33.7891C78.9062-25.5859 75.6836-18.1152 70.6055-12.3535C68.0664-14.209 64.6973-15.7715 60.7422-16.8945ZM32.2266-14.9414C35.498-15.625 39.1113-16.0156 43.1152-16.0645L43.1152-1.12305C38.7695-2.09961 34.8145-7.42188 32.2266-14.9414ZM46.0449-16.0645C50-16.0156 53.6133-15.625 56.8848-14.9414C54.2969-7.42188 50.3418-2.09961 46.0449-1.12305ZM20.5078-10.3027C22.8516-11.9141 25.7812-13.2324 29.1992-14.209C31.2012-8.39844 34.0332-3.95508 37.2559-1.31836C30.8594-2.68555 25.0488-5.85938 20.5078-10.3027ZM59.9121-14.209C63.3301-13.2324 66.2598-11.9141 68.6035-10.3027C64.0625-5.85938 58.252-2.68555 51.8555-1.31836C55.0781-3.95508 57.9102-8.39844 59.9121-14.209Z"/>
  </g>
  <g id="Ultralight-S" transform="matrix(1 0 0 1 515.644 696)">
   <path d="M44.043 1.95312C64.502 1.95312 81.2988-14.7949 81.2988-35.2539C81.2988-55.7129 64.502-72.4609 44.043-72.4609C23.584-72.4609 6.83594-55.7129 6.83594-35.2539C6.83594-14.7949 23.584 1.95312 44.043 1.95312ZM31.0547-55.3711C33.7891-63.7695 38.1836-69.3359 42.9688-70.0684L42.9688-54.1504C38.5742-54.1992 34.5703-54.6387 31.0547-55.3711ZM45.1172-70.0684C49.9512-69.3359 54.3457-63.7695 57.0801-55.3711C53.5645-54.6387 49.5605-54.1992 45.1172-54.1504ZM19.3848-60.1562C24.3164-65.0879 30.7617-68.5059 37.9395-69.7754C34.2773-67.2363 31.1035-62.5 28.8574-55.9082C25.0977-56.9336 21.9238-58.3496 19.3848-60.1562ZM50.1953-69.7754C57.373-68.5059 63.7695-65.0879 68.75-60.1562C66.2598-58.3984 63.0371-56.9336 59.2285-55.9082C57.0312-62.5 53.8086-67.2363 50.1953-69.7754ZM8.98438-36.3281C9.27734-44.873 12.5977-52.6855 17.9688-58.6426C20.5566-56.7383 24.0723-55.127 28.2715-54.0039C26.8066-48.9746 25.9277-43.0176 25.8301-36.3281ZM62.3047-36.3281C62.207-43.0176 61.2793-48.9746 59.8633-54.0039C64.0137-55.127 67.5293-56.7383 70.166-58.6426C75.4883-52.6855 78.8574-44.873 79.1016-36.3281ZM45.1172-36.3281L45.1172-52.002C49.6582-52.0508 53.9062-52.5879 57.666-53.418C59.082-48.4863 59.9609-42.627 60.0586-36.3281ZM28.0762-36.3281C28.1738-42.627 29.0527-48.4863 30.4199-53.418C34.2285-52.5879 38.4766-52.0508 42.9688-52.002L42.9688-36.3281ZM8.98438-34.1797L25.8301-34.1797C25.9277-27.3926 26.8066-21.3867 28.2715-16.3086C24.1699-15.1855 20.6543-13.623 18.0664-11.7188C12.6465-17.7246 9.27734-25.5371 8.98438-34.1797ZM28.0762-34.1797L42.9688-34.1797L42.9688-18.3105C38.5254-18.2617 34.3262-17.7246 30.5664-16.8945C29.0527-22.0215 28.1738-27.9297 28.0762-34.1797ZM45.1172-18.3105L45.1172-34.1797L60.0586-34.1797C59.9609-27.9297 59.0332-22.0215 57.5684-16.8945C53.8086-17.7246 49.6094-18.2617 45.1172-18.3105ZM59.8633-16.3086C61.3281-21.3867 62.207-27.3926 62.3047-34.1797L79.1016-34.1797C78.8574-25.5859 75.4883-17.7246 70.0684-11.7188C67.4316-13.623 63.9648-15.1855 59.8633-16.3086ZM45.1172-16.1621C49.5117-16.1133 53.4668-15.6738 56.9336-14.9414C54.1992-6.73828 49.8535-1.02539 45.1172-0.244141ZM31.1523-14.9414C34.668-15.6738 38.623-16.1133 42.9688-16.1621L42.9688-0.244141C38.2324-1.02539 33.9355-6.73828 31.1523-14.9414ZM19.4824-10.2539C22.0215-11.9629 25.1465-13.3789 28.8574-14.4043C31.0059-8.05664 34.082-3.36914 37.5977-0.78125C30.6152-2.09961 24.3652-5.46875 19.4824-10.2539ZM59.2285-14.4043C62.9883-13.3789 66.1133-11.9629 68.6035-10.2539C63.7695-5.46875 57.5195-2.09961 50.5371-0.78125C54.0039-3.36914 57.1289-8.05664 59.2285-14.4043Z"/>
  </g>
 </g>
</svg>
