<?xml version="1.0" encoding="UTF-8"?>
<!--Generator: Apple Native CoreSVG 175-->
<!DOCTYPE svg
PUBLIC "-//W3C//DTD SVG 1.1//EN"
       "http://www.w3.org/Graphics/SVG/1.1/DTD/svg11.dtd">
<svg version="1.1" xmlns="http://www.w3.org/2000/svg" xmlns:xlink="http://www.w3.org/1999/xlink" width="3300" height="2200">
 <!--glyph: "uni10019C.medium", point size: 100.0, font version: "17.0d11e1", template writer version: "65.1"-->
 <style>.multicolor-0:systemRedColor {fill:#FF3B30;opacity:1.0}
.multicolor-1:white {fill:#FFFFFF;opacity:1.0}

.hierarchical-0:tertiary {fill:#8E8E8E}
.hierarchical-1:primary {fill:#212121}

.SFSymbolsPreviewFF3B30 {fill:#FF3B30;opacity:1.0}
.SFSymbolsPreviewFFFFFF {fill:#FFFFFF;opacity:1.0}
</style>
 <g id="Notes">
  <rect height="2200" id="artboard" style="fill:white;opacity:1" width="3300" x="0" y="0"/>
  <line style="fill:none;stroke:black;opacity:1;stroke-width:0.5;" x1="263" x2="3036" y1="292" y2="292"/>
  <text style="stroke:none;fill:black;font-family:sans-serif;font-size:13;font-weight:bold;" transform="matrix(1 0 0 1 263 322)">Weight/Scale Variations</text>
  <text style="stroke:none;fill:black;font-family:sans-serif;font-size:13;text-anchor:middle;" transform="matrix(1 0 0 1 559.711 322)">Ultralight</text>
  <text style="stroke:none;fill:black;font-family:sans-serif;font-size:13;text-anchor:middle;" transform="matrix(1 0 0 1 856.422 322)">Thin</text>
  <text style="stroke:none;fill:black;font-family:sans-serif;font-size:13;text-anchor:middle;" transform="matrix(1 0 0 1 1153.13 322)">Light</text>
  <text style="stroke:none;fill:black;font-family:sans-serif;font-size:13;text-anchor:middle;" transform="matrix(1 0 0 1 1449.84 322)">Regular</text>
  <text style="stroke:none;fill:black;font-family:sans-serif;font-size:13;text-anchor:middle;" transform="matrix(1 0 0 1 1746.56 322)">Medium</text>
  <text style="stroke:none;fill:black;font-family:sans-serif;font-size:13;text-anchor:middle;" transform="matrix(1 0 0 1 2043.27 322)">Semibold</text>
  <text style="stroke:none;fill:black;font-family:sans-serif;font-size:13;text-anchor:middle;" transform="matrix(1 0 0 1 2339.98 322)">Bold</text>
  <text style="stroke:none;fill:black;font-family:sans-serif;font-size:13;text-anchor:middle;" transform="matrix(1 0 0 1 2636.69 322)">Heavy</text>
  <text style="stroke:none;fill:black;font-family:sans-serif;font-size:13;text-anchor:middle;" transform="matrix(1 0 0 1 2933.4 322)">Black</text>
  <line style="fill:none;stroke:black;opacity:1;stroke-width:0.5;" x1="263" x2="3036" y1="1903" y2="1903"/>
  <g transform="matrix(1 0 0 1 263 1933)">
   <path d="M9.24805 0.830078Q10.8691 0.830078 12.2949 0.214844Q13.7207-0.400391 14.8096-1.49414Q15.8984-2.58789 16.5186-4.01367Q17.1387-5.43945 17.1387-7.05078Q17.1387-8.66211 16.5186-10.0879Q15.8984-11.5137 14.8047-12.6074Q13.7109-13.7012 12.2852-14.3164Q10.8594-14.9316 9.23828-14.9316Q7.62695-14.9316 6.20117-14.3164Q4.77539-13.7012 3.69141-12.6074Q2.60742-11.5137 1.9873-10.0879Q1.36719-8.66211 1.36719-7.05078Q1.36719-5.43945 1.9873-4.01367Q2.60742-2.58789 3.69629-1.49414Q4.78516-0.400391 6.21094 0.214844Q7.63672 0.830078 9.24805 0.830078ZM9.24805-0.654297Q7.91992-0.654297 6.7627-1.14746Q5.60547-1.64062 4.73145-2.51953Q3.85742-3.39844 3.36426-4.56055Q2.87109-5.72266 2.87109-7.05078Q2.87109-8.37891 3.35938-9.54102Q3.84766-10.7031 4.72168-11.582Q5.5957-12.4609 6.75293-12.9541Q7.91016-13.4473 9.23828-13.4473Q10.5762-13.4473 11.7334-12.9541Q12.8906-12.4609 13.7695-11.582Q14.6484-10.7031 15.1465-9.54102Q15.6445-8.37891 15.6445-7.05078Q15.6445-5.72266 15.1514-4.56055Q14.6582-3.39844 13.7842-2.51953Q12.9102-1.64062 11.748-1.14746Q10.5859-0.654297 9.24805-0.654297ZM5.6543-7.05078Q5.6543-6.72852 5.85938-6.52832Q6.06445-6.32812 6.40625-6.32812L8.51562-6.32812L8.51562-4.20898Q8.51562-3.88672 8.71094-3.67676Q8.90625-3.4668 9.23828-3.4668Q9.56055-3.4668 9.77051-3.67676Q9.98047-3.88672 9.98047-4.20898L9.98047-6.32812L12.0898-6.32812Q12.4219-6.32812 12.627-6.52832Q12.832-6.72852 12.832-7.05078Q12.832-7.38281 12.627-7.58789Q12.4219-7.79297 12.0898-7.79297L9.98047-7.79297L9.98047-9.90234Q9.98047-10.2344 9.77051-10.4443Q9.56055-10.6543 9.23828-10.6543Q8.90625-10.6543 8.71094-10.4443Q8.51562-10.2344 8.51562-9.90234L8.51562-7.79297L6.40625-7.79297Q6.06445-7.79297 5.85938-7.58789Q5.6543-7.38281 5.6543-7.05078Z"/>
  </g>
  <g transform="matrix(1 0 0 1 281.867 1933)">
   <path d="M11.709 2.91016Q13.75 2.91016 15.5518 2.12891Q17.3535 1.34766 18.7305-0.0292969Q20.1074-1.40625 20.8887-3.20801Q21.6699-5.00977 21.6699-7.05078Q21.6699-9.0918 20.8887-10.8936Q20.1074-12.6953 18.7305-14.0723Q17.3535-15.4492 15.5469-16.2305Q13.7402-17.0117 11.6992-17.0117Q9.6582-17.0117 7.85645-16.2305Q6.05469-15.4492 4.68262-14.0723Q3.31055-12.6953 2.5293-10.8936Q1.74805-9.0918 1.74805-7.05078Q1.74805-5.00977 2.5293-3.20801Q3.31055-1.40625 4.6875-0.0292969Q6.06445 1.34766 7.86621 2.12891Q9.66797 2.91016 11.709 2.91016ZM11.709 1.25Q9.98047 1.25 8.47656 0.605469Q6.97266-0.0390625 5.83496-1.17676Q4.69727-2.31445 4.05762-3.81836Q3.41797-5.32227 3.41797-7.05078Q3.41797-8.7793 4.05762-10.2832Q4.69727-11.7871 5.83008-12.9297Q6.96289-14.0723 8.4668-14.7119Q9.9707-15.3516 11.6992-15.3516Q13.4277-15.3516 14.9316-14.7119Q16.4355-14.0723 17.5781-12.9297Q18.7207-11.7871 19.3652-10.2832Q20.0098-8.7793 20.0098-7.05078Q20.0098-5.32227 19.3701-3.81836Q18.7305-2.31445 17.5928-1.17676Q16.4551-0.0390625 14.9463 0.605469Q13.4375 1.25 11.709 1.25ZM7.17773-7.05078Q7.17773-6.69922 7.41211-6.47461Q7.64648-6.25 8.01758-6.25L10.8887-6.25L10.8887-3.36914Q10.8887-2.99805 11.1133-2.76855Q11.3379-2.53906 11.6895-2.53906Q12.0605-2.53906 12.29-2.76855Q12.5195-2.99805 12.5195-3.36914L12.5195-6.25L15.4004-6.25Q15.7715-6.25 16.001-6.47461Q16.2305-6.69922 16.2305-7.05078Q16.2305-7.42188 16.001-7.65137Q15.7715-7.88086 15.4004-7.88086L12.5195-7.88086L12.5195-10.752Q12.5195-11.1328 12.29-11.3623Q12.0605-11.5918 11.6895-11.5918Q11.3379-11.5918 11.1133-11.3574Q10.8887-11.123 10.8887-10.752L10.8887-7.88086L8.01758-7.88086Q7.63672-7.88086 7.40723-7.65137Q7.17773-7.42188 7.17773-7.05078Z"/>
  </g>
  <g transform="matrix(1 0 0 1 305.646 1933)">
   <path d="M14.9707 5.66406Q17.0605 5.66406 18.96 5.01465Q20.8594 4.36523 22.4512 3.19336Q24.043 2.02148 25.2197 0.429688Q26.3965-1.16211 27.0459-3.06641Q27.6953-4.9707 27.6953-7.05078Q27.6953-9.14062 27.0459-11.04Q26.3965-12.9395 25.2197-14.5312Q24.043-16.123 22.4512-17.2998Q20.8594-18.4766 18.9551-19.126Q17.0508-19.7754 14.9609-19.7754Q12.8711-19.7754 10.9717-19.126Q9.07227-18.4766 7.48535-17.2998Q5.89844-16.123 4.72168-14.5312Q3.54492-12.9395 2.90039-11.04Q2.25586-9.14062 2.25586-7.05078Q2.25586-4.9707 2.90527-3.06641Q3.55469-1.16211 4.72656 0.429688Q5.89844 2.02148 7.49023 3.19336Q9.08203 4.36523 10.9814 5.01465Q12.8809 5.66406 14.9707 5.66406ZM14.9707 3.84766Q13.1641 3.84766 11.5283 3.2959Q9.89258 2.74414 8.53516 1.74805Q7.17773 0.751953 6.17676-0.610352Q5.17578-1.97266 4.62891-3.6084Q4.08203-5.24414 4.08203-7.05078Q4.08203-8.86719 4.62891-10.5029Q5.17578-12.1387 6.17188-13.501Q7.16797-14.8633 8.52539-15.8594Q9.88281-16.8555 11.5186-17.4023Q13.1543-17.9492 14.9609-17.9492Q16.7773-17.9492 18.4131-17.4023Q20.0488-16.8555 21.4111-15.8594Q22.7734-14.8633 23.7695-13.501Q24.7656-12.1387 25.3174-10.5029Q25.8691-8.86719 25.8691-7.05078Q25.8789-5.24414 25.332-3.6084Q24.7852-1.97266 23.7842-0.610352Q22.7832 0.751953 21.4209 1.74805Q20.0586 2.74414 18.4229 3.2959Q16.7871 3.84766 14.9707 3.84766ZM9.19922-7.05078Q9.19922-6.66992 9.45801-6.4209Q9.7168-6.17188 10.1172-6.17188L14.0625-6.17188L14.0625-2.2168Q14.0625-1.81641 14.3115-1.55762Q14.5605-1.29883 14.9512-1.29883Q15.3516-1.29883 15.6104-1.55273Q15.8691-1.80664 15.8691-2.2168L15.8691-6.17188L19.8242-6.17188Q20.2246-6.17188 20.4785-6.4209Q20.7324-6.66992 20.7324-7.05078Q20.7324-7.46094 20.4785-7.71484Q20.2246-7.96875 19.8242-7.96875L15.8691-7.96875L15.8691-11.9141Q15.8691-12.3242 15.6104-12.583Q15.3516-12.8418 14.9512-12.8418Q14.5605-12.8418 14.3115-12.583Q14.0625-12.3242 14.0625-11.9141L14.0625-7.96875L10.1172-7.96875Q9.70703-7.96875 9.45312-7.71484Q9.19922-7.46094 9.19922-7.05078Z"/>
  </g>
  <text style="stroke:none;fill:black;font-family:sans-serif;font-size:13;font-weight:bold;" transform="matrix(1 0 0 1 263 1953)">Design Variations</text>
  <text style="stroke:none;fill:black;font-family:sans-serif;font-size:13;" transform="matrix(1 0 0 1 263 1971)">Symbols are supported in up to nine weights and three scales.</text>
  <text style="stroke:none;fill:black;font-family:sans-serif;font-size:13;" transform="matrix(1 0 0 1 263 1989)">For optimal layout with text and other symbols, vertically align</text>
  <text style="stroke:none;fill:black;font-family:sans-serif;font-size:13;" transform="matrix(1 0 0 1 263 2007)">symbols with the adjacent text.</text>
  <line style="fill:none;stroke:#00AEEF;stroke-width:0.5;opacity:1.0;" x1="776" x2="776" y1="1919" y2="1933"/>
  <g transform="matrix(1 0 0 1 776 1933)">
   <path d="M3.31055 0.15625Q3.70117 0.15625 3.91602-0.00976562Q4.13086-0.175781 4.26758-0.585938L5.52734-4.0332L11.2891-4.0332L12.5488-0.585938Q12.6855-0.175781 12.9004-0.00976562Q13.1152 0.15625 13.4961 0.15625Q13.8867 0.15625 14.1162-0.0585938Q14.3457-0.273438 14.3457-0.644531Q14.3457-0.869141 14.2383-1.17188L9.6582-13.3691Q9.48242-13.8184 9.17969-14.043Q8.87695-14.2676 8.4082-14.2676Q7.5-14.2676 7.17773-13.3789L2.59766-1.16211Q2.49023-0.859375 2.49023-0.634766Q2.49023-0.263672 2.70996-0.0537109Q2.92969 0.15625 3.31055 0.15625ZM6.00586-5.51758L8.37891-12.0898L8.42773-12.0898L10.8008-5.51758Z"/>
  </g>
  <line style="fill:none;stroke:#00AEEF;stroke-width:0.5;opacity:1.0;" x1="793.197" x2="793.197" y1="1919" y2="1933"/>
  <text style="stroke:none;fill:black;font-family:sans-serif;font-size:13;font-weight:bold;" transform="matrix(1 0 0 1 776 1953)">Margins</text>
  <text style="stroke:none;fill:black;font-family:sans-serif;font-size:13;" transform="matrix(1 0 0 1 776 1971)">Leading and trailing margins on the left and right side of each symbol</text>
  <text style="stroke:none;fill:black;font-family:sans-serif;font-size:13;" transform="matrix(1 0 0 1 776 1989)">can be adjusted by modifying the x-location of the margin guidelines.</text>
  <text style="stroke:none;fill:black;font-family:sans-serif;font-size:13;" transform="matrix(1 0 0 1 776 2007)">Modifications are automatically applied proportionally to all</text>
  <text style="stroke:none;fill:black;font-family:sans-serif;font-size:13;" transform="matrix(1 0 0 1 776 2025)">scales and weights.</text>
  <g transform="matrix(1 0 0 1 1289 1933)">
   <path d="M2.8418 1.86523L4.54102 3.57422Q5.18555 4.22852 5.90332 4.17969Q6.62109 4.13086 7.31445 3.35938L18.0078-8.42773L17.041-9.4043L6.42578 2.27539Q6.16211 2.57812 5.89355 2.61719Q5.625 2.65625 5.27344 2.30469L4.10156 1.14258Q3.75 0.791016 3.79395 0.522461Q3.83789 0.253906 4.14062-0.0195312L15.6152-10.8203L14.6387-11.7871L3.04688-0.898438Q2.30469-0.214844 2.25098 0.498047Q2.19727 1.21094 2.8418 1.86523ZM9.25781-16.3281Q8.94531-16.0254 8.90625-15.6348Q8.86719-15.2441 9.04297-14.9512Q9.21875-14.6777 9.55566-14.541Q9.89258-14.4043 10.3809-14.5215Q11.4746-14.7754 12.5977-14.7314Q13.7207-14.6875 14.7949-13.9844L14.209-12.5293Q13.9551-11.9043 14.0674-11.4404Q14.1797-10.9766 14.5801-10.5664L16.875-8.25195Q17.2363-7.88086 17.5781-7.82227Q17.9199-7.76367 18.3398-7.8418L19.4043-8.03711L20.0684-7.36328L20.0293-6.80664Q20-6.43555 20.1221-6.12305Q20.2441-5.81055 20.6055-5.44922L21.3672-4.70703Q21.7285-4.3457 22.1533-4.33105Q22.5781-4.31641 22.9297-4.66797L25.8398-7.58789Q26.1914-7.93945 26.1816-8.35449Q26.1719-8.76953 25.8105-9.13086L25.0391-9.89258Q24.6875-10.2539 24.3799-10.3857Q24.0723-10.5176 23.7109-10.4883L23.1348-10.4395L22.4902-11.0742L22.7344-12.1973Q22.832-12.6172 22.6953-12.9834Q22.5586-13.3496 22.1191-13.7891L19.9219-15.9766Q18.6719-17.2168 17.2607-17.8369Q15.8496-18.457 14.4189-18.4814Q12.9883-18.5059 11.665-17.959Q10.3418-17.4121 9.25781-16.3281ZM10.752-15.957Q11.6602-16.6211 12.7002-16.9043Q13.7402-17.1875 14.8047-17.085Q15.8691-16.9824 16.8701-16.5137Q17.8711-16.0449 18.7012-15.2051L21.1328-12.793Q21.3086-12.6172 21.3525-12.4512Q21.3965-12.2852 21.3379-12.0312L21.0156-10.5469L22.5195-9.0625L23.5059-9.12109Q23.6914-9.13086 23.7891-9.09668Q23.8867-9.0625 24.0332-8.91602L24.6094-8.33984L22.168-5.89844L21.5918-6.47461Q21.4453-6.62109 21.4062-6.71875Q21.3672-6.81641 21.377-7.01172L21.4453-7.98828L19.9512-9.47266L18.4277-9.21875Q18.1836-9.16992 18.042-9.2041Q17.9004-9.23828 17.7148-9.41406L15.7129-11.416Q15.5176-11.5918 15.4932-11.7529Q15.4688-11.9141 15.5859-12.1875L16.4648-14.2773Q15.293-15.3711 13.8281-15.791Q12.3633-16.2109 10.8398-15.7617Q10.7227-15.7324 10.6885-15.8057Q10.6543-15.8789 10.752-15.957Z"/>
  </g>
  <text style="stroke:none;fill:black;font-family:sans-serif;font-size:13;font-weight:bold;" transform="matrix(1 0 0 1 1289 1953)">Exporting</text>
  <text style="stroke:none;fill:black;font-family:sans-serif;font-size:13;" transform="matrix(1 0 0 1 1289 1971)">Symbols should be outlined when exporting to ensure the</text>
  <text style="stroke:none;fill:black;font-family:sans-serif;font-size:13;" transform="matrix(1 0 0 1 1289 1989)">design is preserved when submitting to Xcode.</text>
  <text id="template-version" style="stroke:none;fill:black;font-family:sans-serif;font-size:13;text-anchor:end;" transform="matrix(1 0 0 1 3036 1933)">Template v.3.0</text>
  <text style="stroke:none;fill:black;font-family:sans-serif;font-size:13;text-anchor:end;" transform="matrix(1 0 0 1 3036 1951)">Requires Xcode 13 or greater</text>
  <text id="descriptive-name" style="stroke:none;fill:black;font-family:sans-serif;font-size:13;text-anchor:end;" transform="matrix(1 0 0 1 3036 1969)">Generated from delete.left.fill</text>
  <text style="stroke:none;fill:black;font-family:sans-serif;font-size:13;text-anchor:end;" transform="matrix(1 0 0 1 3036 1987)">Typeset at 100 points</text>
  <text style="stroke:none;fill:black;font-family:sans-serif;font-size:13;" transform="matrix(1 0 0 1 263 726)">Small</text>
  <text style="stroke:none;fill:black;font-family:sans-serif;font-size:13;" transform="matrix(1 0 0 1 263 1156)">Medium</text>
  <text style="stroke:none;fill:black;font-family:sans-serif;font-size:13;" transform="matrix(1 0 0 1 263 1586)">Large</text>
 </g>
 <g id="Guides">
  <g id="H-reference" style="fill:#27AAE1;stroke:none;" transform="matrix(1 0 0 1 339 696)">
   <path d="M0.976562 0L3.66211 0L29.3457-67.1387L30.0293-67.1387L30.0293-70.459L28.125-70.459ZM11.6699-24.4629L46.9727-24.4629L46.2402-26.709L12.4512-26.709ZM55.127 0L57.7637 0L30.6152-70.459L29.4434-70.459L29.4434-67.1387Z"/>
  </g>
  <line id="Baseline-S" style="fill:none;stroke:#27AAE1;opacity:1;stroke-width:0.5;" x1="263" x2="3036" y1="696" y2="696"/>
  <line id="Capline-S" style="fill:none;stroke:#27AAE1;opacity:1;stroke-width:0.5;" x1="263" x2="3036" y1="625.541" y2="625.541"/>
  <g id="H-reference" style="fill:#27AAE1;stroke:none;" transform="matrix(1 0 0 1 339 1126)">
   <path d="M0.976562 0L3.66211 0L29.3457-67.1387L30.0293-67.1387L30.0293-70.459L28.125-70.459ZM11.6699-24.4629L46.9727-24.4629L46.2402-26.709L12.4512-26.709ZM55.127 0L57.7637 0L30.6152-70.459L29.4434-70.459L29.4434-67.1387Z"/>
  </g>
  <line id="Baseline-M" style="fill:none;stroke:#27AAE1;opacity:1;stroke-width:0.5;" x1="263" x2="3036" y1="1126" y2="1126"/>
  <line id="Capline-M" style="fill:none;stroke:#27AAE1;opacity:1;stroke-width:0.5;" x1="263" x2="3036" y1="1055.54" y2="1055.54"/>
  <g id="H-reference" style="fill:#27AAE1;stroke:none;" transform="matrix(1 0 0 1 339 1556)">
   <path d="M0.976562 0L3.66211 0L29.3457-67.1387L30.0293-67.1387L30.0293-70.459L28.125-70.459ZM11.6699-24.4629L46.9727-24.4629L46.2402-26.709L12.4512-26.709ZM55.127 0L57.7637 0L30.6152-70.459L29.4434-70.459L29.4434-67.1387Z"/>
  </g>
  <line id="Baseline-L" style="fill:none;stroke:#27AAE1;opacity:1;stroke-width:0.5;" x1="263" x2="3036" y1="1556" y2="1556"/>
  <line id="Capline-L" style="fill:none;stroke:#27AAE1;opacity:1;stroke-width:0.5;" x1="263" x2="3036" y1="1485.54" y2="1485.54"/>
  <line id="left-margin-Ultralight-S" style="fill:none;stroke:#00AEEF;stroke-width:0.5;opacity:1.0;" x1="511.982" x2="511.982" y1="600.785" y2="720.121"/>
  <line id="right-margin-Ultralight-S" style="fill:none;stroke:#00AEEF;stroke-width:0.5;opacity:1.0;" x1="607.441" x2="607.441" y1="600.785" y2="720.121"/>
  <line id="left-margin-Thin-S" style="fill:none;stroke:#00AEEF;stroke-width:0.5;opacity:1.0;" x1="808.009" x2="808.009" y1="600.785" y2="720.121"/>
  <line id="right-margin-Thin-S" style="fill:none;stroke:#00AEEF;stroke-width:0.5;opacity:1.0;" x1="904.835" x2="904.835" y1="600.785" y2="720.121"/>
  <line id="left-margin-Light-S" style="fill:none;stroke:#00AEEF;stroke-width:0.5;opacity:1.0;" x1="1103.35" x2="1103.35" y1="600.785" y2="720.121"/>
  <line id="right-margin-Light-S" style="fill:none;stroke:#00AEEF;stroke-width:0.5;opacity:1.0;" x1="1202.91" x2="1202.91" y1="600.785" y2="720.121"/>
  <line id="left-margin-Regular-S" style="fill:none;stroke:#00AEEF;stroke-width:0.5;opacity:1.0;" x1="1399.04" x2="1399.04" y1="600.785" y2="720.121"/>
  <line id="right-margin-Regular-S" style="fill:none;stroke:#00AEEF;stroke-width:0.5;opacity:1.0;" x1="1500.65" x2="1500.65" y1="600.785" y2="720.121"/>
  <line id="left-margin-Medium-S" style="fill:none;stroke:#00AEEF;stroke-width:0.5;opacity:1.0;" x1="1695.55" x2="1695.55" y1="600.785" y2="720.121"/>
  <line id="right-margin-Medium-S" style="fill:none;stroke:#00AEEF;stroke-width:0.5;opacity:1.0;" x1="1797.56" x2="1797.56" y1="600.785" y2="720.121"/>
  <line id="left-margin-Semibold-S" style="fill:none;stroke:#00AEEF;stroke-width:0.5;opacity:1.0;" x1="1992.12" x2="1992.12" y1="600.785" y2="720.121"/>
  <line id="right-margin-Semibold-S" style="fill:none;stroke:#00AEEF;stroke-width:0.5;opacity:1.0;" x1="2094.41" x2="2094.41" y1="600.785" y2="720.121"/>
  <line id="left-margin-Bold-S" style="fill:none;stroke:#00AEEF;stroke-width:0.5;opacity:1.0;" x1="2288.61" x2="2288.61" y1="600.785" y2="720.121"/>
  <line id="right-margin-Bold-S" style="fill:none;stroke:#00AEEF;stroke-width:0.5;opacity:1.0;" x1="2391.34" x2="2391.34" y1="600.785" y2="720.121"/>
  <line id="left-margin-Heavy-S" style="fill:none;stroke:#00AEEF;stroke-width:0.5;opacity:1.0;" x1="2585.05" x2="2585.05" y1="600.785" y2="720.121"/>
  <line id="right-margin-Heavy-S" style="fill:none;stroke:#00AEEF;stroke-width:0.5;opacity:1.0;" x1="2688.32" x2="2688.32" y1="600.785" y2="720.121"/>
  <line id="left-margin-Black-S" style="fill:none;stroke:#00AEEF;stroke-width:0.5;opacity:1.0;" x1="2881.5" x2="2881.5" y1="600.785" y2="720.121"/>
  <line id="right-margin-Black-S" style="fill:none;stroke:#00AEEF;stroke-width:0.5;opacity:1.0;" x1="2985.3" x2="2985.3" y1="600.785" y2="720.121"/>
  <line id="left-margin-Ultralight-M" style="fill:none;stroke:#00AEEF;stroke-width:0.5;opacity:1.0;" x1="499.067" x2="499.067" y1="1030.79" y2="1150.12"/>
  <line id="right-margin-Ultralight-M" style="fill:none;stroke:#00AEEF;stroke-width:0.5;opacity:1.0;" x1="620.356" x2="620.356" y1="1030.79" y2="1150.12"/>
  <line id="left-margin-Thin-M" style="fill:none;stroke:#00AEEF;stroke-width:0.5;opacity:1.0;" x1="794.996" x2="794.996" y1="1030.79" y2="1150.12"/>
  <line id="right-margin-Thin-M" style="fill:none;stroke:#00AEEF;stroke-width:0.5;opacity:1.0;" x1="917.848" x2="917.848" y1="1030.79" y2="1150.12"/>
  <line id="left-margin-Light-M" style="fill:none;stroke:#00AEEF;stroke-width:0.5;opacity:1.0;" x1="1090.17" x2="1090.17" y1="1030.79" y2="1150.12"/>
  <line id="right-margin-Light-M" style="fill:none;stroke:#00AEEF;stroke-width:0.5;opacity:1.0;" x1="1216.1" x2="1216.1" y1="1030.79" y2="1150.12"/>
  <line id="left-margin-Regular-M" style="fill:none;stroke:#00AEEF;stroke-width:0.5;opacity:1.0;" x1="1385.73" x2="1385.73" y1="1030.79" y2="1150.12"/>
  <line id="right-margin-Regular-M" style="fill:none;stroke:#00AEEF;stroke-width:0.5;opacity:1.0;" x1="1513.96" x2="1513.96" y1="1030.79" y2="1150.12"/>
  <line id="left-margin-Medium-M" style="fill:none;stroke:#00AEEF;stroke-width:0.5;opacity:1.0;" x1="1682.08" x2="1682.08" y1="1030.79" y2="1150.12"/>
  <line id="right-margin-Medium-M" style="fill:none;stroke:#00AEEF;stroke-width:0.5;opacity:1.0;" x1="1811.03" x2="1811.03" y1="1030.79" y2="1150.12"/>
  <line id="left-margin-Semibold-M" style="fill:none;stroke:#00AEEF;stroke-width:0.5;opacity:1.0;" x1="1978.5" x2="1978.5" y1="1030.79" y2="1150.12"/>
  <line id="right-margin-Semibold-M" style="fill:none;stroke:#00AEEF;stroke-width:0.5;opacity:1.0;" x1="2108.04" x2="2108.04" y1="1030.79" y2="1150.12"/>
  <line id="left-margin-Bold-M" style="fill:none;stroke:#00AEEF;stroke-width:0.5;opacity:1.0;" x1="2274.84" x2="2274.84" y1="1030.79" y2="1150.12"/>
  <line id="right-margin-Bold-M" style="fill:none;stroke:#00AEEF;stroke-width:0.5;opacity:1.0;" x1="2405.11" x2="2405.11" y1="1030.79" y2="1150.12"/>
  <line id="left-margin-Heavy-M" style="fill:none;stroke:#00AEEF;stroke-width:0.5;opacity:1.0;" x1="2571.02" x2="2571.02" y1="1030.79" y2="1150.12"/>
  <line id="right-margin-Heavy-M" style="fill:none;stroke:#00AEEF;stroke-width:0.5;opacity:1.0;" x1="2702.36" x2="2702.36" y1="1030.79" y2="1150.12"/>
  <line id="left-margin-Black-M" style="fill:none;stroke:#00AEEF;stroke-width:0.5;opacity:1.0;" x1="2867.24" x2="2867.24" y1="1030.79" y2="1150.12"/>
  <line id="right-margin-Black-M" style="fill:none;stroke:#00AEEF;stroke-width:0.5;opacity:1.0;" x1="2999.56" x2="2999.56" y1="1030.79" y2="1150.12"/>
  <line id="left-margin-Ultralight-L" style="fill:none;stroke:#00AEEF;stroke-width:0.5;opacity:1.0;" x1="481.806" x2="481.806" y1="1460.79" y2="1580.12"/>
  <line id="right-margin-Ultralight-L" style="fill:none;stroke:#00AEEF;stroke-width:0.5;opacity:1.0;" x1="637.616" x2="637.616" y1="1460.79" y2="1580.12"/>
  <line id="left-margin-Thin-L" style="fill:none;stroke:#00AEEF;stroke-width:0.5;opacity:1.0;" x1="777.638" x2="777.638" y1="1460.79" y2="1580.12"/>
  <line id="right-margin-Thin-L" style="fill:none;stroke:#00AEEF;stroke-width:0.5;opacity:1.0;" x1="935.206" x2="935.206" y1="1460.79" y2="1580.12"/>
  <line id="left-margin-Light-L" style="fill:none;stroke:#00AEEF;stroke-width:0.5;opacity:1.0;" x1="1072.64" x2="1072.64" y1="1460.79" y2="1580.12"/>
  <line id="right-margin-Light-L" style="fill:none;stroke:#00AEEF;stroke-width:0.5;opacity:1.0;" x1="1233.63" x2="1233.63" y1="1460.79" y2="1580.12"/>
  <line id="left-margin-Regular-L" style="fill:none;stroke:#00AEEF;stroke-width:0.5;opacity:1.0;" x1="1368.06" x2="1368.06" y1="1460.79" y2="1580.12"/>
  <line id="right-margin-Regular-L" style="fill:none;stroke:#00AEEF;stroke-width:0.5;opacity:1.0;" x1="1531.63" x2="1531.63" y1="1460.79" y2="1580.12"/>
  <line id="left-margin-Medium-L" style="fill:none;stroke:#00AEEF;stroke-width:0.5;opacity:1.0;" x1="1664.18" x2="1664.18" y1="1460.79" y2="1580.12"/>
  <line id="right-margin-Medium-L" style="fill:none;stroke:#00AEEF;stroke-width:0.5;opacity:1.0;" x1="1828.93" x2="1828.93" y1="1460.79" y2="1580.12"/>
  <line id="left-margin-Semibold-L" style="fill:none;stroke:#00AEEF;stroke-width:0.5;opacity:1.0;" x1="1960.43" x2="1960.43" y1="1460.79" y2="1580.12"/>
  <line id="right-margin-Semibold-L" style="fill:none;stroke:#00AEEF;stroke-width:0.5;opacity:1.0;" x1="2126.1" x2="2126.1" y1="1460.79" y2="1580.12"/>
  <line id="left-margin-Bold-L" style="fill:none;stroke:#00AEEF;stroke-width:0.5;opacity:1.0;" x1="2256.55" x2="2256.55" y1="1460.79" y2="1580.12"/>
  <line id="right-margin-Bold-L" style="fill:none;stroke:#00AEEF;stroke-width:0.5;opacity:1.0;" x1="2423.4" x2="2423.4" y1="1460.79" y2="1580.12"/>
  <line id="left-margin-Heavy-L" style="fill:none;stroke:#00AEEF;stroke-width:0.5;opacity:1.0;" x1="2552.41" x2="2552.41" y1="1460.79" y2="1580.12"/>
  <line id="right-margin-Heavy-L" style="fill:none;stroke:#00AEEF;stroke-width:0.5;opacity:1.0;" x1="2720.97" x2="2720.97" y1="1460.79" y2="1580.12"/>
  <line id="left-margin-Black-L" style="fill:none;stroke:#00AEEF;stroke-width:0.5;opacity:1.0;" x1="2848.34" x2="2848.34" y1="1460.79" y2="1580.12"/>
  <line id="right-margin-Black-L" style="fill:none;stroke:#00AEEF;stroke-width:0.5;opacity:1.0;" x1="3018.46" x2="3018.46" y1="1460.79" y2="1580.12"/>
 </g>
 <g id="Symbols">
  <g id="Black-L" transform="matrix(1 0 0 1 2848.34 1556)">
   <path class="multicolor-0:systemRedColor hierarchical-0:tertiary SFSymbolsPreviewFF3B30" d="M130.127 26.5137Q141.553 26.5137 147.803 21.3867Q154.053 16.2598 154.053 4.88281L154.053-73.0957Q154.053-84.4727 147.803-90.6738Q141.553-96.875 130.127-96.875L76.3672-96.875Q70.3125-96.875 66.0645-95.8496Q61.8164-94.8242 58.3496-92.334Q54.8828-89.8438 51.2207-85.498L20.5566-50Q17.4316-46.2891 15.7715-43.7744Q14.1113-41.2598 13.501-39.2578Q12.8906-37.2559 12.8906-35.2051Q12.8906-33.1055 13.5254-31.0791Q14.1602-29.0527 15.8203-26.5381Q17.4805-24.0234 20.5566-20.4102L51.2207 15.0879Q54.9316 19.4824 58.374 21.9727Q61.8164 24.4629 66.04 25.4883Q70.2637 26.5137 76.3184 26.5137Z"/>
   <path class="multicolor-1:white hierarchical-1:primary SFSymbolsPreviewFFFFFF" d="M76.3672-7.56836Q72.7539-7.56836 70.2881-10.0586Q67.8223-12.5488 67.8223-16.2598Q67.8223-19.6289 70.4102-22.1191L83.252-35.0098L70.4102-47.9492Q67.8223-50.4395 67.8223-53.8086Q67.8223-57.5195 70.2881-59.9854Q72.7539-62.4512 76.3672-62.4512Q80.1758-62.4512 82.7148-59.9609L95.459-47.2656L108.252-59.9609Q110.791-62.5 114.6-62.5Q118.213-62.5 120.679-60.0098Q123.145-57.5195 123.145-53.8574Q123.145-50.4395 120.557-47.9492L107.764-35.0098L120.557-22.168Q123.145-19.6777 123.145-16.2598Q123.145-12.5488 120.654-10.0586Q118.164-7.56836 114.551-7.56836Q110.645-7.56836 108.154-10.1074L95.459-22.7051L82.8125-10.1074Q80.2734-7.56836 76.3672-7.56836Z"/>
  </g>
  <g id="Heavy-L" transform="matrix(1 0 0 1 2552.41 1556)">
   <path class="multicolor-0:systemRedColor hierarchical-0:tertiary SFSymbolsPreviewFF3B30" d="M129.736 25.4883Q140.723 25.4883 146.606 20.459Q152.49 15.4297 152.49 4.54102L152.49-73.2422Q152.49-84.1309 146.606-89.9902Q140.723-95.8496 129.736-95.8496L75.8789-95.8496Q70.4102-95.8496 66.4062-94.9219Q62.4023-93.9941 59.082-91.7236Q55.7617-89.4531 52.3926-85.498L20.0684-49.2676Q17.2363-45.9473 15.6738-43.5791Q14.1113-41.2109 13.501-39.2334Q12.8906-37.2559 12.8906-35.2051Q12.8906-33.1543 13.5254-31.1768Q14.1602-29.1992 15.7227-26.8066Q17.2852-24.4141 20.0684-21.1914L52.3926 14.9902Q55.8105 18.9453 59.1064 21.2402Q62.4023 23.5352 66.3818 24.5117Q70.3613 25.4883 75.8301 25.4883Z"/>
   <path class="multicolor-1:white hierarchical-1:primary SFSymbolsPreviewFFFFFF" d="M74.9512-8.00781Q71.7773-8.00781 69.5801-10.2051Q67.3828-12.4023 67.3828-15.7227Q67.3828-18.7012 69.6777-20.9473L83.7402-35.0098L69.6777-49.1699Q67.3828-51.3672 67.3828-54.3945Q67.3828-57.666 69.5801-59.8633Q71.7773-62.0605 74.9512-62.0605Q78.2715-62.0605 80.5664-59.8145L94.5801-45.8496L108.643-59.8145Q110.889-62.1094 114.209-62.1094Q117.383-62.1094 119.58-59.8877Q121.777-57.666 121.777-54.4434Q121.777-51.416 119.482-49.1699L105.469-35.0098L119.482-20.9961Q121.777-18.7988 121.777-15.7227Q121.777-12.4023 119.556-10.2051Q117.334-8.00781 114.16-8.00781Q110.693-8.00781 108.496-10.2539L94.5801-24.1211L80.6641-10.2539Q78.418-8.00781 74.9512-8.00781Z"/>
  </g>
  <g id="Bold-L" transform="matrix(1 0 0 1 2256.55 1556)">
   <path class="multicolor-0:systemRedColor hierarchical-0:tertiary SFSymbolsPreviewFF3B30" d="M129.297 24.3652Q139.746 24.3652 145.264 19.458Q150.781 14.5508 150.781 4.15039L150.781-73.4375Q150.781-83.7891 145.264-89.2578Q139.746-94.7266 129.297-94.7266L75.3418-94.7266Q70.5078-94.7266 66.7725-93.8965Q63.0371-93.0664 59.8877-91.04Q56.7383-89.0137 53.6621-85.5469L19.5801-48.4375Q16.9922-45.5566 15.5518-43.335Q14.1113-41.1133 13.501-39.1846Q12.8906-37.2559 12.8906-35.2539Q12.8906-33.252 13.501-31.2988Q14.1113-29.3457 15.5762-27.124Q17.041-24.9023 19.5801-22.0703L53.7109 14.8438Q56.7871 18.3594 59.9365 20.4346Q63.0859 22.5098 66.7969 23.4375Q70.5078 24.3652 75.3418 24.3652Z"/>
   <path class="multicolor-1:white hierarchical-1:primary SFSymbolsPreviewFFFFFF" d="M73.4375-8.49609Q70.6543-8.49609 68.7744-10.4004Q66.8945-12.3047 66.8945-15.0879Q66.8945-17.6758 68.8477-19.6289L84.2773-35.0586L68.8477-50.5371Q66.8945-52.4414 66.8945-55.0781Q66.8945-57.8613 68.7744-59.7168Q70.6543-61.5723 73.4375-61.5723Q76.2207-61.5723 78.1738-59.668L93.5547-44.3359L109.033-59.7168Q110.986-61.6699 113.77-61.6699Q116.504-61.6699 118.408-59.7656Q120.312-57.8613 120.312-55.127Q120.312-52.4902 118.359-50.5859L102.93-35.0586L118.311-19.6777Q120.264-17.7734 120.264-15.0879Q120.264-12.3047 118.359-10.4004Q116.455-8.49609 113.721-8.49609Q110.791-8.49609 108.887-10.4492L93.5547-25.7324L78.2715-10.4492Q76.3184-8.49609 73.4375-8.49609Z"/>
  </g>
  <g id="Semibold-L" transform="matrix(1 0 0 1 1960.43 1556)">
   <path class="multicolor-0:systemRedColor hierarchical-0:tertiary SFSymbolsPreviewFF3B30" d="M129.004 23.584Q139.111 23.584 144.36 18.75Q149.609 13.916 149.609 3.90625L149.609-73.5352Q149.609-83.5449 144.36-88.7207Q139.111-93.8965 129.004-93.8965L74.9512-93.8965Q70.5566-93.8965 67.0166-93.1396Q63.4766-92.3828 60.4492-90.5518Q57.4219-88.7207 54.541-85.5469L19.1895-47.8516Q16.8457-45.3125 15.4541-43.1885Q14.0625-41.0645 13.4766-39.1602Q12.8906-37.2559 12.8906-35.2539Q12.8906-33.252 13.501-31.3477Q14.1113-29.4434 15.4785-27.3438Q16.8457-25.2441 19.1895-22.6562L54.5898 14.7461Q57.4707 17.9199 60.498 19.8486Q63.5254 21.7773 67.041 22.6562Q70.5566 23.5352 74.9512 23.5352Z"/>
   <path class="multicolor-1:white hierarchical-1:primary SFSymbolsPreviewFFFFFF" d="M72.2656-8.83789Q69.8242-8.83789 68.1641-10.5225Q66.5039-12.207 66.5039-14.6973Q66.5039-16.9922 68.2129-18.75L84.6191-35.1074L68.2129-51.5137Q66.5039-53.2227 66.5039-55.5664Q66.5039-58.0078 68.1641-59.6436Q69.8242-61.2793 72.2656-61.2793Q74.707-61.2793 76.416-59.6191L92.8223-43.2617L109.277-59.6191Q110.986-61.377 113.428-61.377Q115.82-61.377 117.505-59.7168Q119.189-58.0566 119.189-55.6152Q119.189-53.2715 117.48-51.5625L101.074-35.1074L117.432-18.7988Q119.141-17.1387 119.141-14.6973Q119.141-12.207 117.456-10.5225Q115.771-8.83789 113.33-8.83789Q110.742-8.83789 109.082-10.5957L92.8223-26.9043L76.5625-10.5957Q74.8047-8.83789 72.2656-8.83789Z"/>
  </g>
  <g id="Medium-L" transform="matrix(1 0 0 1 1664.18 1556)">
   <path class="multicolor-0:systemRedColor hierarchical-0:tertiary SFSymbolsPreviewFF3B30" d="M128.76 22.998Q138.574 22.998 143.628 18.2129Q148.682 13.4277 148.682 3.66211L148.682-73.6328Q148.682-83.3496 143.628-88.3301Q138.574-93.3105 128.76-93.3105L74.6582-93.3105Q70.6055-93.3105 67.2119-92.6025Q63.8184-91.8945 60.8643-90.1855Q57.9102-88.4766 55.2246-85.5957L18.8965-47.4121Q16.6992-45.0684 15.3809-43.042Q14.0625-41.0156 13.4766-39.1357Q12.8906-37.2559 12.8906-35.3027Q12.8906-33.3008 13.4766-31.3965Q14.0625-29.4922 15.3809-27.4902Q16.6992-25.4883 18.8965-23.1445L55.2734 14.6973Q57.959 17.5781 60.9131 19.4092Q63.8672 21.2402 67.2363 22.0947Q70.6055 22.9492 74.6582 22.9492Z"/>
   <path class="multicolor-1:white hierarchical-1:primary SFSymbolsPreviewFFFFFF" d="M71.4844-9.08203Q69.2871-9.08203 67.7734-10.6201Q66.2598-12.1582 66.2598-14.4043Q66.2598-16.4551 67.8223-18.0664L84.9121-35.1562L67.8223-52.2461Q66.2598-53.7598 66.2598-55.9082Q66.2598-58.1055 67.7734-59.5703Q69.2871-61.0352 71.4844-61.0352Q73.584-61.0352 75.1953-59.5215L92.2852-42.4805L109.473-59.5703Q111.084-61.1328 113.184-61.1328Q115.381-61.1328 116.895-59.6191Q118.408-58.1055 118.408-56.0059Q118.408-53.8086 116.895-52.2949L99.7559-35.1562L116.846-18.1152Q118.359-16.6016 118.359-14.4043Q118.359-12.1582 116.846-10.6201Q115.332-9.08203 113.086-9.08203Q110.791-9.08203 109.326-10.6934L92.2852-27.7344L75.3418-10.6934Q73.7305-9.08203 71.4844-9.08203Z"/>
  </g>
  <g id="Regular-L" transform="matrix(1 0 0 1 1368.06 1556)">
   <path class="multicolor-0:systemRedColor hierarchical-0:tertiary SFSymbolsPreviewFF3B30" d="M128.467 22.2168Q137.939 22.2168 142.725 17.5049Q147.51 12.793 147.51 3.41797L147.51-73.7305Q147.51-83.1055 142.725-87.8174Q137.939-92.5293 128.467-92.5293L74.2676-92.5293Q70.6543-92.5293 67.4561-91.8945Q64.2578-91.2598 61.4258-89.7217Q58.5938-88.1836 56.1035-85.5957L18.5547-46.8262Q16.5527-44.8242 15.3076-42.8955Q14.0625-40.9668 13.4766-39.1113Q12.8906-37.2559 12.8906-35.3027Q12.8906-33.3496 13.4766-31.4697Q14.0625-29.5898 15.3076-27.6855Q16.5527-25.7812 18.5547-23.7305L56.1523 14.5996Q58.6426 17.1875 61.4746 18.8721Q64.3066 20.5566 67.5049 21.3623Q70.7031 22.168 74.3164 22.168Z"/>
   <path class="multicolor-1:white hierarchical-1:primary SFSymbolsPreviewFFFFFF" d="M70.4102-9.42383Q68.5059-9.42383 67.2119-10.7422Q65.918-12.0605 65.918-13.9648Q65.918-15.7715 67.2363-17.1387L85.2539-35.1562L67.2363-53.1738Q65.918-54.4922 65.918-56.3477Q65.918-58.2031 67.2119-59.4727Q68.5059-60.7422 70.4102-60.7422Q72.168-60.7422 73.5352-59.4238L91.6016-41.4062L109.766-59.4727Q111.133-60.8398 112.891-60.8398Q114.746-60.8398 116.064-59.5459Q117.383-58.252 117.383-56.4453Q117.383-54.541 116.064-53.2227L97.998-35.1562L116.016-17.1875Q117.334-15.918 117.334-13.9648Q117.334-12.0605 116.016-10.7422Q114.697-9.42383 112.793-9.42383Q110.84-9.42383 109.57-10.791L91.6016-28.8086L73.6816-10.791Q72.3145-9.42383 70.4102-9.42383Z"/>
  </g>
  <g id="Light-L" transform="matrix(1 0 0 1 1072.64 1556)">
   <path class="multicolor-0:systemRedColor hierarchical-0:tertiary SFSymbolsPreviewFF3B30" d="M126.904 21.4355Q135.84 21.4355 140.381 16.9189Q144.922 12.4023 144.922 3.56445L144.922-73.8281Q144.922-82.7148 140.381-87.207Q135.84-91.6992 126.904-91.6992L73.4863-91.6992Q69.9707-91.6992 66.9434-91.1377Q63.916-90.5762 61.2793-89.1602Q58.6426-87.7441 56.25-85.3027L18.1641-46.2402Q16.2598-44.3848 15.1123-42.5781Q13.9648-40.7715 13.4277-38.9893Q12.8906-37.207 12.8906-35.3027Q12.8906-33.4473 13.4277-31.6406Q13.9648-29.834 15.1123-28.0518Q16.2598-26.2695 18.1641-24.3652L56.2988 14.0137Q58.6914 16.4551 61.3281 18.0908Q63.9648 19.7266 66.9678 20.5566Q69.9707 21.3867 73.4863 21.3867Z"/>
   <path class="multicolor-1:white hierarchical-1:primary SFSymbolsPreviewFFFFFF" d="M68.9453-10.3516Q67.4316-10.3516 66.4307-11.3525Q65.4297-12.3535 65.4297-13.8184Q65.4297-15.2832 66.5039-16.3574L85.2539-35.1074L66.5039-53.8574Q65.4297-54.9316 65.4297-56.3965Q65.4297-57.8125 66.4307-58.7891Q67.4316-59.7656 68.9453-59.7656Q70.3125-59.7656 71.4355-58.6426L90.1855-39.9902L108.936-58.6914Q110.059-59.8145 111.475-59.8145Q112.939-59.8145 113.965-58.8135Q114.99-57.8125 114.99-56.4453Q114.99-54.9316 113.916-53.8574L95.1172-35.1074L113.867-16.4062Q114.941-15.332 114.941-13.8184Q114.941-12.3535 113.916-11.3525Q112.891-10.3516 111.426-10.3516Q109.863-10.3516 108.838-11.4746L90.1855-30.1758L71.582-11.4746Q70.4102-10.3516 68.9453-10.3516Z"/>
  </g>
  <g id="Thin-L" transform="matrix(1 0 0 1 777.638 1556)">
   <path class="multicolor-0:systemRedColor hierarchical-0:tertiary SFSymbolsPreviewFF3B30" d="M124.902 20.3613Q133.008 20.3613 137.256 16.1377Q141.504 11.9141 141.504 3.75977L141.504-73.9746Q141.504-82.1777 137.256-86.377Q133.008-90.5762 124.902-90.5762L72.4121-90.5762Q69.043-90.5762 66.2598-90.1123Q63.4766-89.6484 61.084-88.4033Q58.6914-87.1582 56.4941-84.9121L17.627-45.459Q15.8691-43.75 14.8438-42.1387Q13.8184-40.5273 13.3545-38.8672Q12.8906-37.207 12.8906-35.3516Q12.8906-33.5449 13.3301-31.8604Q13.7695-30.1758 14.8193-28.5156Q15.8691-26.8555 17.627-25.1953L56.4941 13.1836Q58.7402 15.4297 61.1328 17.0166Q63.5254 18.6035 66.2842 19.4824Q69.043 20.3613 72.4121 20.3613Z"/>
   <path class="multicolor-1:white hierarchical-1:primary SFSymbolsPreviewFFFFFF" d="M66.9434-11.6211Q66.0156-11.6211 65.3809-12.207Q64.7461-12.793 64.7461-13.6719Q64.7461-14.5996 65.4785-15.332L85.1562-35.0586L65.4785-54.7363Q64.7461-55.4688 64.7461-56.4453Q64.7461-57.2754 65.3809-57.8613Q66.0156-58.4473 66.9434-58.4473Q67.8711-58.4473 68.6523-57.6172L88.2324-38.0859L107.812-57.666Q108.643-58.4473 109.521-58.4473Q110.498-58.4473 111.133-57.8613Q111.768-57.2754 111.768-56.3965Q111.768-55.4688 111.035-54.7363L91.3086-35.0586L111.035-15.3809Q111.719-14.6484 111.719-13.6719Q111.719-12.793 111.084-12.207Q110.449-11.6211 109.57-11.6211Q108.594-11.6211 107.812-12.4023L88.2324-31.9824L68.7012-12.4023Q67.8711-11.6211 66.9434-11.6211Z"/>
  </g>
  <g id="Ultralight-L" transform="matrix(1 0 0 1 481.806 1556)">
   <path class="multicolor-0:systemRedColor hierarchical-0:tertiary SFSymbolsPreviewFF3B30" d="M123.828 19.8242Q131.592 19.8242 135.669 15.7471Q139.746 11.6699 139.746 3.85742L139.746-74.0723Q139.746-81.8848 135.669-85.9375Q131.592-89.9902 123.828-89.9902L71.875-89.9902Q68.5547-89.9902 65.918-89.5752Q63.2812-89.1602 61.0107-88.0127Q58.7402-86.8652 56.5918-84.7168L17.334-45.0684Q15.6738-43.457 14.6973-41.9189Q13.7207-40.3809 13.3057-38.7695Q12.8906-37.1582 12.8906-35.3516Q12.8906-33.5938 13.3057-31.958Q13.7207-30.3223 14.6729-28.7598Q15.625-27.1973 17.334-25.5859L56.5918 12.793Q58.7891 14.9414 61.0596 16.5039Q63.3301 18.0664 65.9424 18.9453Q68.5547 19.8242 71.875 19.8242Z"/>
   <path class="multicolor-1:white hierarchical-1:primary SFSymbolsPreviewFFFFFF" d="M65.9668-12.207Q65.2832-12.207 64.8438-12.5977Q64.4043-12.9883 64.4043-13.5742Q64.4043-14.2578 64.9414-14.7949L85.1562-35.0098L64.9414-55.1758Q64.4043-55.7617 64.4043-56.4453Q64.4043-57.0312 64.8438-57.3975Q65.2832-57.7637 65.9668-57.7637Q66.6016-57.7637 67.2363-57.0801L87.2559-37.1094L107.275-57.0801Q107.91-57.7637 108.545-57.7637Q109.229-57.7637 109.668-57.373Q110.107-56.9824 110.107-56.3965Q110.107-55.7129 109.57-55.1758L89.3555-35.0098L109.57-14.7949Q110.107-14.209 110.107-13.5742Q110.107-12.9883 109.668-12.5977Q109.229-12.207 108.594-12.207Q107.91-12.207 107.275-12.8906L87.2559-32.8613L67.2852-12.8906Q66.6016-12.207 65.9668-12.207Z"/>
  </g>
  <g id="Black-M" transform="matrix(1 0 0 1 2867.24 1126)">
   <path class="multicolor-0:systemRedColor hierarchical-0:tertiary SFSymbolsPreviewFF3B30" d="M100.684 13.2324Q109.766 13.2324 114.795 9.22852Q119.824 5.22461 119.824-3.80859L119.824-64.4531Q119.824-73.5352 114.795-78.5645Q109.766-83.5938 100.684-83.5938L59.3262-83.5938Q54.1504-83.5938 50.708-82.7393Q47.2656-81.8848 44.5312-79.8096Q41.7969-77.7344 38.7207-74.0723L16.2109-47.0703Q13.5742-43.9453 12.2314-41.9189Q10.8887-39.8926 10.4248-38.3545Q9.96094-36.8164 9.96094-35.2051Q9.96094-32.7148 11.1572-30.2979Q12.3535-27.8809 16.2109-23.2422L38.7695 3.66211Q41.8457 7.37305 44.5557 9.44824Q47.2656 11.5234 50.6836 12.3779Q54.1016 13.2324 59.2773 13.2324Z"/>
   <path class="multicolor-1:white hierarchical-1:primary SFSymbolsPreviewFFFFFF" d="M59.9121-13.7207Q56.8848-13.7207 54.834-15.7959Q52.7832-17.8711 52.7832-20.9473Q52.7832-23.7793 54.9316-25.8301L64.1113-35.0586L54.9316-44.2383Q52.7832-46.3379 52.7832-49.1699Q52.7832-52.2461 54.834-54.2969Q56.8848-56.3477 59.9121-56.3477Q63.1348-56.3477 65.2832-54.248L74.2676-45.2637L83.3008-54.248Q85.4004-56.3477 88.6719-56.3477Q91.6992-56.3477 93.75-54.2969Q95.8008-52.2461 95.8008-49.1699Q95.8008-46.3379 93.6035-44.2383L84.5215-35.0586L93.6035-25.8301Q95.8008-23.7793 95.8008-20.9473Q95.8008-17.8711 93.75-15.7959Q91.6992-13.7207 88.623-13.7207Q85.4004-13.7207 83.3008-15.8691L74.2676-24.7559L65.2832-15.8691Q63.1836-13.7207 59.9121-13.7207Z"/>
  </g>
  <g id="Heavy-M" transform="matrix(1 0 0 1 2571.02 1126)">
   <path class="multicolor-0:systemRedColor hierarchical-0:tertiary SFSymbolsPreviewFF3B30" d="M100.635 12.4023Q109.375 12.4023 114.111 8.44727Q118.848 4.49219 118.848-4.19922L118.848-64.5996Q118.848-73.291 114.111-78.0273Q109.375-82.7637 100.635-82.7637L59.0332-82.7637Q54.3945-82.7637 51.1475-81.9824Q47.9004-81.2012 45.2637-79.3213Q42.627-77.4414 39.7949-74.1699L15.8203-46.4844Q13.4277-43.7012 12.1582-41.7969Q10.8887-39.8926 10.4248-38.3545Q9.96094-36.8164 9.96094-35.2051Q9.96094-32.7637 11.1328-30.3955Q12.3047-28.0273 15.8203-23.877L39.8438 3.66211Q42.6758 7.03125 45.2881 8.91113Q47.9004 10.791 51.123 11.5967Q54.3457 12.4023 58.9844 12.4023Z"/>
   <path class="multicolor-1:white hierarchical-1:primary SFSymbolsPreviewFFFFFF" d="M58.8379-13.916Q56.1523-13.916 54.2969-15.7959Q52.4414-17.6758 52.4414-20.4102Q52.4414-22.9492 54.3457-24.8047L64.5996-35.0586L54.3457-45.2637Q52.4414-47.168 52.4414-49.707Q52.4414-52.4414 54.2969-54.2969Q56.1523-56.1523 58.8379-56.1523Q61.6699-56.1523 63.623-54.248L73.6816-44.1895L83.8379-54.2969Q85.6934-56.1523 88.5742-56.1523Q91.3086-56.1523 93.1396-54.3213Q94.9707-52.4902 94.9707-49.7559Q94.9707-47.168 93.0176-45.2637L82.8613-35.0586L93.0176-24.8047Q94.9707-22.998 94.9707-20.4102Q94.9707-17.6758 93.1152-15.7959Q91.2598-13.916 88.5254-13.916Q85.6445-13.916 83.7891-15.8691L73.6816-25.8301L63.623-15.8691Q61.7676-13.916 58.8379-13.916Z"/>
  </g>
  <g id="Bold-M" transform="matrix(1 0 0 1 2274.84 1126)">
   <path class="multicolor-0:systemRedColor hierarchical-0:tertiary SFSymbolsPreviewFF3B30" d="M100.586 11.5234Q108.936 11.5234 113.379 7.61719Q117.822 3.71094 117.822-4.58984L117.822-64.7461Q117.822-73.0469 113.379-77.4658Q108.936-81.8848 100.586-81.8848L58.6914-81.8848Q54.6387-81.8848 51.6357-81.1768Q48.6328-80.4688 46.1182-78.8086Q43.6035-77.1484 41.0645-74.2676L15.4297-45.8008Q13.2812-43.457 12.1094-41.6504Q10.9375-39.8438 10.4492-38.3301Q9.96094-36.8164 9.96094-35.2539Q9.96094-32.8613 11.1328-30.5176Q12.3047-28.1738 15.4297-24.6094L41.1133 3.71094Q43.6523 6.64062 46.167 8.3252Q48.6816 10.0098 51.6602 10.7422Q54.6387 11.4746 58.6914 11.4746Z"/>
   <path class="multicolor-1:white hierarchical-1:primary SFSymbolsPreviewFFFFFF" d="M57.666-14.209Q55.3223-14.209 53.7109-15.8447Q52.0996-17.4805 52.0996-19.8242Q52.0996-22.0703 53.7598-23.6816L65.1367-35.1074L53.7598-46.4355Q52.0996-48.0957 52.0996-50.3418Q52.0996-52.7344 53.7109-54.3213Q55.3223-55.9082 57.666-55.9082Q60.1074-55.9082 61.7676-54.2969L73.0957-43.0176L84.4727-54.3457Q86.084-55.957 88.5254-55.957Q90.8691-55.957 92.4805-54.3457Q94.0918-52.7344 94.0918-50.3906Q94.0918-48.1445 92.4316-46.4844L81.0547-35.1074L92.3828-23.7305Q94.0918-22.168 94.0918-19.8242Q94.0918-17.4805 92.4805-15.8447Q90.8691-14.209 88.4766-14.209Q85.9863-14.209 84.375-15.8691L73.0957-27.0996L61.8652-15.8691Q60.2051-14.209 57.666-14.209Z"/>
  </g>
  <g id="Semibold-M" transform="matrix(1 0 0 1 1978.5 1126)">
   <path class="multicolor-0:systemRedColor hierarchical-0:tertiary SFSymbolsPreviewFF3B30" d="M100.537 10.8887Q108.643 10.8887 112.842 7.03125Q117.041 3.17383 117.041-4.88281L117.041-64.8438Q117.041-72.8516 112.842-77.0508Q108.643-81.25 100.537-81.25L58.4473-81.25Q54.834-81.25 51.9775-80.5908Q49.1211-79.9316 46.6797-78.418Q44.2383-76.9043 41.8945-74.3164L15.0879-45.3613Q13.1836-43.2617 12.0605-41.5527Q10.9375-39.8438 10.4492-38.3301Q9.96094-36.8164 9.96094-35.2539Q9.96094-32.9102 11.1084-30.5908Q12.2559-28.2715 15.0879-25.0977L41.9434 3.71094Q44.2871 6.34766 46.7285 7.91016Q49.1699 9.47266 52.002 10.1562Q54.834 10.8398 58.4473 10.8398Z"/>
   <path class="multicolor-1:white hierarchical-1:primary SFSymbolsPreviewFFFFFF" d="M56.7871-14.4043Q54.6875-14.4043 53.2471-15.8691Q51.8066-17.334 51.8066-19.4824Q51.8066-21.4844 53.2715-22.9492L65.4785-35.1562L53.2715-47.2656Q51.8066-48.7793 51.8066-50.7812Q51.8066-52.9297 53.2471-54.3701Q54.6875-55.8105 56.7871-55.8105Q58.9355-55.8105 60.4492-54.3457L72.6074-42.2363L84.8145-54.3945Q86.2793-55.8594 88.4277-55.8594Q90.5273-55.8594 91.9678-54.4189Q93.4082-52.9785 93.4082-50.8301Q93.4082-48.8281 91.9434-47.3145L79.7363-35.1562L91.8945-22.998Q93.4082-21.582 93.4082-19.4824Q93.4082-17.334 91.9434-15.8691Q90.4785-14.4043 88.3301-14.4043Q86.1328-14.4043 84.668-15.8691L72.6074-27.9785L60.5469-15.8691Q59.0332-14.4043 56.7871-14.4043Z"/>
  </g>
  <g id="Medium-M" transform="matrix(1 0 0 1 1682.08 1126)">
   <path class="multicolor-0:systemRedColor hierarchical-0:tertiary SFSymbolsPreviewFF3B30" d="M100.488 10.4004Q108.398 10.4004 112.451 6.56738Q116.504 2.73438 116.504-5.07812L116.504-64.8926Q116.504-72.7539 112.451-76.7578Q108.398-80.7617 100.488-80.7617L58.252-80.7617Q54.9316-80.7617 52.2217-80.1514Q49.5117-79.541 47.1191-78.125Q44.7266-76.709 42.5293-74.3652L14.8926-44.9707Q13.0859-43.1152 12.0117-41.4551Q10.9375-39.7949 10.4492-38.3057Q9.96094-36.8164 9.96094-35.2539Q9.96094-32.959 11.1084-30.6641Q12.2559-28.3691 14.8926-25.4883L42.5781 3.75977Q44.7754 6.15234 47.168 7.59277Q49.5605 9.0332 52.2705 9.69238Q54.9805 10.3516 58.252 10.3516Z"/>
   <path class="multicolor-1:white hierarchical-1:primary SFSymbolsPreviewFFFFFF" d="M56.2012-14.5508Q54.248-14.5508 52.9297-15.8936Q51.6113-17.2363 51.6113-19.1406Q51.6113-21.0449 52.9785-22.3633L65.7227-35.1562L52.9785-47.9004Q51.6113-49.2676 51.6113-51.123Q51.6113-53.0762 52.9297-54.3701Q54.248-55.6641 56.2012-55.6641Q58.0566-55.6641 59.4727-54.3945L72.2656-41.6504L85.1562-54.3945Q86.4746-55.7617 88.3789-55.7617Q90.2832-55.7617 91.626-54.4189Q92.9688-53.0762 92.9688-51.1719Q92.9688-49.3164 91.6016-47.9492L78.8086-35.1562L91.5527-22.4121Q92.9199-21.1426 92.9199-19.1406Q92.9199-17.2363 91.5771-15.8936Q90.2344-14.5508 88.2812-14.5508Q86.2793-14.5508 84.9609-15.8691L72.2656-28.6133L59.5703-15.8691Q58.2031-14.5508 56.2012-14.5508Z"/>
  </g>
  <g id="Regular-M" transform="matrix(1 0 0 1 1385.73 1126)">
   <path class="multicolor-0:systemRedColor hierarchical-0:tertiary SFSymbolsPreviewFF3B30" d="M100.439 9.76562Q108.105 9.76562 111.938 5.98145Q115.771 2.19727 115.771-5.37109L115.771-64.9902Q115.771-72.5586 111.938-76.3428Q108.105-80.127 100.439-80.127L58.0078-80.127Q55.127-80.127 52.5635-79.5898Q50-79.0527 47.6807-77.7832Q45.3613-76.5137 43.3594-74.4141L14.5996-44.5312Q12.9883-42.9199 11.9629-41.3574Q10.9375-39.7949 10.4492-38.3057Q9.96094-36.8164 9.96094-35.2539Q9.96094-33.0078 11.084-30.7373Q12.207-28.4668 14.5996-25.9766L43.4082 3.75977Q45.4102 5.85938 47.7295 7.17773Q50.0488 8.49609 52.6123 9.10645Q55.1758 9.7168 58.0566 9.7168Z"/>
   <path class="multicolor-1:white hierarchical-1:primary SFSymbolsPreviewFFFFFF" d="M55.3711-14.6973Q53.7109-14.6973 52.5391-15.8936Q51.3672-17.0898 51.3672-18.75Q51.3672-20.4102 52.5391-21.582L66.1133-35.1562L52.5391-48.6816Q51.3672-49.9023 51.3672-51.5137Q51.3672-53.2227 52.5391-54.3701Q53.7109-55.5176 55.3711-55.5176Q56.9824-55.5176 58.2031-54.3945L71.8262-40.8203L85.5469-54.4434Q86.7188-55.6152 88.3301-55.6152Q89.9902-55.6152 91.1621-54.4434Q92.334-53.2715 92.334-51.6113Q92.334-49.9512 91.1621-48.7305L77.5391-35.1562L91.1133-21.6309Q92.2852-20.5566 92.2852-18.75Q92.2852-17.0898 91.1133-15.8936Q89.9414-14.6973 88.2324-14.6973Q86.4746-14.6973 85.3516-15.8691L71.8262-29.4434L58.3496-15.8691Q57.1289-14.6973 55.3711-14.6973Z"/>
  </g>
  <g id="Light-M" transform="matrix(1 0 0 1 1090.17 1126)">
   <path class="multicolor-0:systemRedColor hierarchical-0:tertiary SFSymbolsPreviewFF3B30" d="M99.0234 9.0332Q106.201 9.0332 109.839 5.44434Q113.477 1.85547 113.477-5.22461L113.477-65.0879Q113.477-72.2168 109.839-75.8057Q106.201-79.3945 99.0234-79.3945L57.2754-79.3945Q54.4922-79.3945 52.0996-78.9062Q49.707-78.418 47.5586-77.2705Q45.4102-76.123 43.5059-74.1699L14.2578-43.9941Q12.7441-42.5293 11.792-41.0645Q10.8398-39.5996 10.4004-38.1836Q9.96094-36.7676 9.96094-35.3027Q9.96094-33.1055 10.9863-30.957Q12.0117-28.8086 14.2578-26.5137L43.5547 3.22266Q45.459 5.17578 47.583 6.46973Q49.707 7.76367 52.124 8.37402Q54.541 8.98438 57.3242 8.98438Z"/>
   <path class="multicolor-1:white hierarchical-1:primary SFSymbolsPreviewFFFFFF" d="M54.0527-15.5273Q52.7344-15.5273 51.8311-16.4551Q50.9277-17.3828 50.9277-18.6523Q50.9277-19.9707 51.8555-20.8984L66.0645-35.1074L51.8555-49.2676Q50.9277-50.2441 50.9277-51.5625Q50.9277-52.832 51.8311-53.7354Q52.7344-54.6387 54.0527-54.6387Q55.3223-54.6387 56.3477-53.7109L70.5566-39.5508L84.8145-53.7109Q85.7422-54.6875 87.0605-54.6875Q88.3301-54.6875 89.2578-53.7842Q90.1855-52.8809 90.1855-51.6113Q90.1855-50.293 89.209-49.3164L75-35.1074L89.209-20.9473Q90.1367-20.0684 90.1367-18.6523Q90.1367-17.3828 89.2334-16.4551Q88.3301-15.5273 86.9629-15.5273Q85.5957-15.5273 84.668-16.5039L70.5566-30.6641L56.4453-16.5039Q55.4199-15.5273 54.0527-15.5273Z"/>
  </g>
  <g id="Thin-M" transform="matrix(1 0 0 1 794.996 1126)">
   <path class="multicolor-0:systemRedColor hierarchical-0:tertiary SFSymbolsPreviewFF3B30" d="M97.2168 8.05664Q103.711 8.05664 107.056 4.73633Q110.4 1.41602 110.4-5.07812L110.4-65.2344Q110.4-71.7285 107.056-75.0488Q103.711-78.3691 97.2168-78.3691L56.3477-78.3691Q53.6621-78.3691 51.4893-77.9785Q49.3164-77.5879 47.3877-76.5869Q45.459-75.5859 43.7012-73.8281L13.7695-43.3105Q12.4023-41.9922 11.5723-40.6738Q10.7422-39.3555 10.3516-38.0615Q9.96094-36.7676 9.96094-35.3027Q9.96094-33.2031 10.8398-31.25Q11.7188-29.2969 13.7695-27.2461L43.7012 2.49023Q45.5078 4.24805 47.4121 5.49316Q49.3164 6.73828 51.5137 7.39746Q53.7109 8.05664 56.3477 8.05664Z"/>
   <path class="multicolor-1:white hierarchical-1:primary SFSymbolsPreviewFFFFFF" d="M52.2949-16.6992Q51.5137-16.6992 50.9277-17.2363Q50.3418-17.7734 50.3418-18.5547Q50.3418-19.4336 50.9766-20.0684L66.0156-35.1074L50.9766-50.1465Q50.3418-50.7812 50.3418-51.6602Q50.3418-52.4414 50.9277-52.9785Q51.5137-53.5156 52.2949-53.5156Q53.125-53.5156 53.8574-52.832L68.8477-37.8906L83.8379-52.832Q84.5215-53.5156 85.3516-53.5156Q86.1328-53.5156 86.7188-52.9785Q87.3047-52.4414 87.3047-51.6602Q87.3047-50.8301 86.6699-50.1465L71.582-35.1074L86.6699-20.0684Q87.3047-19.4336 87.3047-18.5547Q87.3047-17.7734 86.7188-17.2363Q86.1328-16.6992 85.3027-16.6992Q84.4727-16.6992 83.7402-17.3828L68.8477-32.3242L53.8574-17.3828Q53.1738-16.6992 52.2949-16.6992Z"/>
  </g>
  <g id="Ultralight-M" transform="matrix(1 0 0 1 499.067 1126)">
   <path class="multicolor-0:systemRedColor hierarchical-0:tertiary SFSymbolsPreviewFF3B30" d="M96.2402 7.56836Q102.441 7.56836 105.64 4.39453Q108.838 1.2207 108.838-4.98047L108.838-65.332Q108.838-71.4844 105.64-74.6826Q102.441-77.8809 96.2402-77.8809L55.8594-77.8809Q53.2715-77.8809 51.1719-77.5146Q49.0723-77.1484 47.29-76.2451Q45.5078-75.3418 43.7988-73.6328L13.5254-42.9199Q12.207-41.6992 11.4258-40.4785Q10.6445-39.2578 10.3027-37.9883Q9.96094-36.7188 9.96094-35.3516Q9.96094-33.252 10.7666-31.3721Q11.5723-29.4922 13.5254-27.5879L43.7988 2.14844Q45.5566 3.75977 47.3145 5.00488Q49.0723 6.25 51.1719 6.90918Q53.2715 7.56836 55.8594 7.56836Z"/>
   <path class="multicolor-1:white hierarchical-1:primary SFSymbolsPreviewFFFFFF" d="M51.416-17.2363Q50.8301-17.2363 50.4395-17.6025Q50.0488-17.9688 50.0488-18.457Q50.0488-19.0918 50.5371-19.5801L66.0156-35.0586L50.5371-50.5371Q50.0488-51.0254 50.0488-51.6602Q50.0488-52.1484 50.4395-52.5146Q50.8301-52.8809 51.416-52.8809Q52.0508-52.8809 52.5879-52.3438L67.9688-37.0117L83.3008-52.3438Q83.8379-52.8809 84.4727-52.8809Q85.0586-52.8809 85.4492-52.5391Q85.8398-52.1973 85.8398-51.6602Q85.8398-51.0254 85.3516-50.5371L69.873-35.0586L85.4004-19.5801Q85.8398-19.0918 85.8398-18.457Q85.8398-17.9688 85.4492-17.6025Q85.0586-17.2363 84.4727-17.2363Q83.8867-17.2363 83.3008-17.7734L67.9688-33.1055L52.5879-17.7734Q52.0508-17.2363 51.416-17.2363Z"/>
  </g>
  <g id="Black-S" transform="matrix(1 0 0 1 2881.5 696)">
   <path class="multicolor-0:systemRedColor hierarchical-0:tertiary SFSymbolsPreviewFF3B30" d="M78.8086 2.92969Q85.9863 2.92969 90.0146-0.195312Q94.043-3.32031 94.043-10.498L94.043-58.1055Q94.043-65.2832 90.0146-69.3115Q85.9863-73.3398 78.8086-73.3398L46.5332-73.3398Q42.334-73.3398 39.5752-72.6562Q36.8164-71.9727 34.668-70.2881Q32.5195-68.6035 30.0293-65.625L12.793-44.6777Q9.61914-40.8203 8.71582-38.9648Q7.8125-37.1094 7.8125-35.2051Q7.8125-33.252 8.74023-31.3477Q9.66797-29.4434 12.793-25.6836L30.0293-4.78516Q32.5195-1.80664 34.668-0.12207Q36.8164 1.5625 39.5508 2.24609Q42.2852 2.92969 46.4844 2.92969Z"/>
   <path class="multicolor-1:white hierarchical-1:primary SFSymbolsPreviewFFFFFF" d="M47.168-18.3594Q44.7266-18.3594 43.0664-20.0195Q41.4062-21.6797 41.4062-24.1699Q41.4062-26.4648 43.1641-28.125L50.0488-35.0586L43.1641-41.9922Q41.4062-43.6523 41.4062-45.9473Q41.4062-48.4375 43.0664-50.0977Q44.7266-51.7578 47.168-51.7578Q49.8047-51.7578 51.5137-50.0488L58.252-43.3105L65.0391-50.0488Q66.748-51.7578 69.3848-51.7578Q71.8262-51.7578 73.4863-50.0977Q75.1465-48.4375 75.1465-45.9473Q75.1465-43.6523 73.3887-41.9922L66.5527-35.0586L73.3887-28.125Q75.1465-26.4648 75.1465-24.1699Q75.1465-21.6797 73.4863-20.0195Q71.8262-18.3594 69.3848-18.3594Q66.748-18.3594 65.0391-20.0684L58.252-26.7578L51.5137-20.0684Q49.8047-18.3594 47.168-18.3594Z"/>
  </g>
  <g id="Heavy-S" transform="matrix(1 0 0 1 2585.05 696)">
   <path class="multicolor-0:systemRedColor hierarchical-0:tertiary SFSymbolsPreviewFF3B30" d="M78.9551 2.34375Q85.8887 2.34375 89.6973-0.78125Q93.5059-3.90625 93.5059-10.8398L93.5059-58.2031Q93.5059-65.1367 89.6973-68.9453Q85.8887-72.7539 78.9551-72.7539L46.3379-72.7539Q42.627-72.7539 40.0146-72.1191Q37.4023-71.4844 35.3271-69.9463Q33.252-68.4082 30.957-65.7227L12.5-44.2383Q9.61914-40.8203 8.71582-38.9648Q7.8125-37.1094 7.8125-35.2051Q7.8125-33.3008 8.74023-31.3965Q9.66797-29.4922 12.5-26.1719L30.957-4.6875Q33.252-2.00195 35.3271-0.488281Q37.4023 1.02539 39.9902 1.66016Q42.5781 2.29492 46.3379 2.29492Z"/>
   <path class="multicolor-1:white hierarchical-1:primary SFSymbolsPreviewFFFFFF" d="M46.4355-18.4082Q44.2383-18.4082 42.7246-19.9463Q41.2109-21.4844 41.2109-23.7305Q41.2109-25.8301 42.7734-27.3438L50.4883-35.0586L42.7734-42.8223Q41.2109-44.2871 41.2109-46.3867Q41.2109-48.6816 42.7246-50.1953Q44.2383-51.709 46.4355-51.709Q48.7793-51.709 50.3418-50.1465L57.959-42.5781L65.625-50.1465Q67.1875-51.709 69.5312-51.709Q71.7285-51.709 73.2422-50.1953Q74.7559-48.6816 74.7559-46.4355Q74.7559-44.3359 73.1934-42.8223L65.5273-35.0586L73.1445-27.3438Q74.7559-25.8301 74.7559-23.7305Q74.7559-21.4844 73.2422-19.9463Q71.7285-18.4082 69.4824-18.4082Q67.0898-18.4082 65.5762-19.9707L57.959-27.5391L50.3906-19.9707Q48.8281-18.4082 46.4355-18.4082Z"/>
  </g>
  <g id="Bold-S" transform="matrix(1 0 0 1 2288.61 696)">
   <path class="multicolor-0:systemRedColor hierarchical-0:tertiary SFSymbolsPreviewFF3B30" d="M79.1016 1.66016Q85.791 1.66016 89.3799-1.44043Q92.9688-4.54102 92.9688-11.2305L92.9688-58.3008Q92.9688-64.9902 89.3799-68.5303Q85.791-72.0703 79.1016-72.0703L46.1914-72.0703Q42.9199-72.0703 40.5029-71.5088Q38.0859-70.9473 36.0596-69.5801Q34.0332-68.2129 31.9824-65.8691L12.207-43.75Q9.66797-40.8203 8.74023-38.9648Q7.8125-37.1094 7.8125-35.2539Q7.8125-33.3496 8.74023-31.4697Q9.66797-29.5898 12.207-26.709L31.9824-4.63867Q34.082-2.29492 36.084-0.90332Q38.0859 0.488281 40.5029 1.07422Q42.9199 1.66016 46.1914 1.66016Z"/>
   <path class="multicolor-1:white hierarchical-1:primary SFSymbolsPreviewFFFFFF" d="M45.6543-18.5547Q43.7012-18.5547 42.334-19.9219Q40.9668-21.2891 40.9668-23.291Q40.9668-25.1953 42.3828-26.5137L50.9766-35.1562L42.3828-43.75Q40.9668-45.1172 40.9668-46.9727Q40.9668-48.9746 42.334-50.3174Q43.7012-51.6602 45.6543-51.6602Q47.6562-51.6602 49.0234-50.3418L57.6172-41.7969L66.2598-50.3418Q67.627-51.709 69.6289-51.709Q71.6309-51.709 72.9736-50.3662Q74.3164-49.0234 74.3164-47.0215Q74.3164-45.1172 72.9004-43.7988L64.3066-35.1562L72.9004-26.5625Q74.3164-25.2441 74.3164-23.291Q74.3164-21.2891 72.9492-19.9219Q71.582-18.5547 69.5801-18.5547Q67.4805-18.5547 66.1621-19.9219L57.6172-28.4668L49.1211-19.9219Q47.7539-18.5547 45.6543-18.5547Z"/>
  </g>
  <g id="Semibold-S" transform="matrix(1 0 0 1 1992.12 696)">
   <path class="multicolor-0:systemRedColor hierarchical-0:tertiary SFSymbolsPreviewFF3B30" d="M79.1992 1.2207Q85.7422 1.2207 89.1357-1.87988Q92.5293-4.98047 92.5293-11.4746L92.5293-58.3496Q92.5293-64.8438 89.1357-68.2373Q85.7422-71.6309 79.1992-71.6309L46.0449-71.6309Q43.1152-71.6309 40.8203-71.0938Q38.5254-70.5566 36.5479-69.2871Q34.5703-68.0176 32.666-65.918L12.0117-43.3594Q9.66797-40.7715 8.74023-38.916Q7.8125-37.0605 7.8125-35.2539Q7.8125-33.3984 8.74023-31.5186Q9.66797-29.6387 12.0117-27.0996L32.7148-4.54102Q34.6191-2.44141 36.5723-1.19629Q38.5254 0.0488281 40.8447 0.610352Q43.1641 1.17188 46.0449 1.17188Z"/>
   <path class="multicolor-1:white hierarchical-1:primary SFSymbolsPreviewFFFFFF" d="M45.0195-18.6035Q43.2617-18.6035 42.0166-19.873Q40.7715-21.1426 40.7715-22.9492Q40.7715-24.6582 42.041-25.9277L51.2695-35.1562L42.041-44.3848Q40.7715-45.6055 40.7715-47.3145Q40.7715-49.1699 42.0166-50.3906Q43.2617-51.6113 45.0195-51.6113Q46.8262-51.6113 48.0957-50.3906L57.3242-41.2109L66.6504-50.4395Q67.8711-51.6602 69.6777-51.6602Q71.4844-51.6602 72.7295-50.415Q73.9746-49.1699 73.9746-47.4121Q73.9746-45.6543 72.7051-44.3848L63.4766-35.1562L72.6562-25.9277Q73.9258-24.7559 73.9258-22.9492Q73.9258-21.1426 72.6807-19.873Q71.4355-18.6035 69.6289-18.6035Q67.7246-18.6035 66.5039-19.873L57.3242-29.0527L48.1934-19.873Q46.9238-18.6035 45.0195-18.6035Z"/>
  </g>
  <g id="Medium-S" transform="matrix(1 0 0 1 1695.55 696)">
   <path class="multicolor-0:systemRedColor hierarchical-0:tertiary SFSymbolsPreviewFF3B30" d="M79.2969 0.830078Q85.6445 0.830078 88.9404-2.24609Q92.2363-5.32227 92.2363-11.6699L92.2363-58.4473Q92.2363-64.7461 88.9404-67.9932Q85.6445-71.2402 79.2969-71.2402L45.9473-71.2402Q43.3105-71.2402 41.0889-70.752Q38.8672-70.2637 36.9385-69.0918Q35.0098-67.9199 33.2031-65.9668L11.8164-43.1152Q9.66797-40.7715 8.74023-38.916Q7.8125-37.0605 7.8125-35.2539Q7.8125-33.3984 8.74023-31.543Q9.66797-29.6875 11.8164-27.3438L33.252-4.49219Q35.0586-2.58789 36.9873-1.41602Q38.916-0.244141 41.1133 0.292969Q43.3105 0.830078 45.9473 0.830078Z"/>
   <path class="multicolor-1:white hierarchical-1:primary SFSymbolsPreviewFFFFFF" d="M44.5801-18.7012Q42.9199-18.7012 41.7725-19.873Q40.625-21.0449 40.625-22.7539Q40.625-24.3652 41.7969-25.4883L51.4648-35.2051L41.7969-44.873Q40.625-46.0449 40.625-47.6562Q40.625-49.3164 41.7725-50.4639Q42.9199-51.6113 44.5801-51.6113Q46.2402-51.6113 47.3633-50.4883L57.1289-40.8203L66.9434-50.5371Q68.0664-51.709 69.7266-51.709Q71.3867-51.709 72.5586-50.5371Q73.7305-49.3652 73.7305-47.7051Q73.7305-46.0938 72.5098-44.9219L62.793-35.2051L72.5098-25.5371Q73.6816-24.4629 73.6816-22.7539Q73.6816-21.0449 72.5098-19.873Q71.3379-18.7012 69.6289-18.7012Q67.8711-18.7012 66.7969-19.8242L57.1289-29.541L47.5098-19.8242Q46.3379-18.7012 44.5801-18.7012Z"/>
  </g>
  <g id="Regular-S" transform="matrix(1 0 0 1 1399.04 696)">
   <path class="multicolor-0:systemRedColor hierarchical-0:tertiary SFSymbolsPreviewFF3B30" d="M79.3945 0.390625Q85.5957 0.390625 88.7207-2.68555Q91.8457-5.76172 91.8457-11.9141L91.8457-58.4961Q91.8457-64.6484 88.7207-67.7246Q85.5957-70.8008 79.3945-70.8008L45.8008-70.8008Q43.5059-70.8008 41.4062-70.3369Q39.3066-69.873 37.4268-68.8232Q35.5469-67.7734 33.8867-66.0645L11.6211-42.7734Q9.66797-40.7715 8.74023-38.916Q7.8125-37.0605 7.8125-35.2539Q7.8125-33.4473 8.74023-31.5918Q9.66797-29.7363 11.6211-27.7344L33.9355-4.44336Q35.5957-2.73438 37.4756-1.68457Q39.3555-0.634766 41.4551-0.146484Q43.5547 0.341797 45.8496 0.341797Z"/>
   <path class="multicolor-1:white hierarchical-1:primary SFSymbolsPreviewFFFFFF" d="M44.043-18.75Q42.5781-18.75 41.5283-19.8242Q40.4785-20.8984 40.4785-22.4121Q40.4785-23.877 41.5039-24.9023L51.8066-35.2051L41.5039-45.5078Q40.4785-46.5332 40.4785-47.998Q40.4785-49.5117 41.5283-50.5371Q42.5781-51.5625 44.043-51.5625Q45.459-51.5625 46.4844-50.5859L56.8848-40.2344L67.3828-50.6348Q68.4082-51.6602 69.8242-51.6602Q71.3379-51.6602 72.3877-50.6104Q73.4375-49.5605 73.4375-48.0957Q73.4375-46.582 72.3633-45.5566L62.0117-35.2051L72.3145-24.9512Q73.3887-23.9746 73.3887-22.4121Q73.3887-20.8984 72.3145-19.8242Q71.2402-18.75 69.7266-18.75Q68.1641-18.75 67.1875-19.7754L56.8848-30.127L46.6309-19.7754Q45.6055-18.75 44.043-18.75Z"/>
  </g>
  <g id="Light-S" transform="matrix(1 0 0 1 1103.35 696)">
   <path class="multicolor-0:systemRedColor hierarchical-0:tertiary SFSymbolsPreviewFF3B30" d="M78.1738-0.244141Q83.9355-0.244141 86.8652-3.14941Q89.7949-6.05469 89.7949-11.8164L89.7949-58.5938Q89.7949-64.3066 86.8652-67.2119Q83.9355-70.1172 78.1738-70.1172L45.166-70.1172Q42.9688-70.1172 41.0156-69.7266Q39.0625-69.3359 37.3291-68.3838Q35.5957-67.4316 34.0332-65.8203L11.2793-42.2852Q9.47266-40.4785 8.64258-38.7451Q7.8125-37.0117 7.8125-35.2539Q7.8125-33.4961 8.64258-31.7871Q9.47266-30.0781 11.2793-28.2227L34.0332-4.93164Q35.6445-3.32031 37.3535-2.29492Q39.0625-1.26953 41.04-0.78125Q43.0176-0.292969 45.2148-0.292969Z"/>
   <path class="multicolor-1:white hierarchical-1:primary SFSymbolsPreviewFFFFFF" d="M42.8711-19.4824Q41.748-19.4824 40.918-20.3125Q40.0879-21.1426 40.0879-22.3145Q40.0879-23.4375 40.918-24.2676L51.8066-35.1562L40.918-46.0449Q40.0879-46.875 40.0879-47.998Q40.0879-49.1699 40.918-49.9756Q41.748-50.7812 42.8711-50.7812Q43.9941-50.7812 44.8242-49.9512L55.7617-39.0625L66.748-50Q67.5781-50.8301 68.7012-50.8301Q69.873-50.8301 70.7031-50.0244Q71.5332-49.2188 71.5332-48.0957Q71.5332-46.875 70.6543-46.0449L59.7656-35.1562L70.6055-24.3164Q71.4844-23.5352 71.4844-22.3145Q71.4844-21.1426 70.6543-20.3125Q69.8242-19.4824 68.6035-19.4824Q67.3828-19.4824 66.6016-20.3125L55.7617-31.2012L44.9219-20.3125Q44.0918-19.4824 42.8711-19.4824Z"/>
  </g>
  <g id="Thin-S" transform="matrix(1 0 0 1 808.009 696)">
   <path class="multicolor-0:systemRedColor hierarchical-0:tertiary SFSymbolsPreviewFF3B30" d="M76.5137-1.12305Q81.7383-1.12305 84.3994-3.78418Q87.0605-6.44531 87.0605-11.6211L87.0605-58.6914Q87.0605-63.916 84.3994-66.5771Q81.7383-69.2383 76.5137-69.2383L44.3359-69.2383Q42.2363-69.2383 40.4785-68.8965Q38.7207-68.5547 37.1582-67.749Q35.5957-66.9434 34.1797-65.5273L10.8887-41.6992Q9.22852-40.0879 8.52051-38.5498Q7.8125-37.0117 7.8125-35.3027Q7.8125-33.5938 8.52051-32.0312Q9.22852-30.4688 10.8887-28.8574L34.2285-5.56641Q35.6445-4.15039 37.1826-3.14941Q38.7207-2.14844 40.4785-1.63574Q42.2363-1.12305 44.3359-1.12305Z"/>
   <path class="multicolor-1:white hierarchical-1:primary SFSymbolsPreviewFFFFFF" d="M41.3086-20.5078Q40.5762-20.5078 40.0635-20.9961Q39.5508-21.4844 39.5508-22.2168Q39.5508-22.9492 40.1367-23.5352L51.7578-35.1562L40.1367-46.7773Q39.5508-47.3633 39.5508-48.0957Q39.5508-48.8281 40.0635-49.3164Q40.5762-49.8047 41.3086-49.8047Q42.041-49.8047 42.627-49.2188L54.248-37.5977L65.8691-49.2188Q66.4062-49.8047 67.1875-49.8047Q67.9199-49.8047 68.4326-49.3164Q68.9453-48.8281 68.9453-48.0957Q68.9453-47.3633 68.3594-46.8262L56.7383-35.1562L68.3594-23.5352Q68.9453-22.998 68.9453-22.2168Q68.9453-21.4844 68.4082-20.9961Q67.8711-20.5078 67.1387-20.5078Q66.3574-20.5078 65.8203-21.0938L54.248-32.666L42.6758-21.0938Q42.0898-20.5078 41.3086-20.5078Z"/>
  </g>
  <g id="Ultralight-S" transform="matrix(1 0 0 1 511.982 696)">
   <path class="multicolor-0:systemRedColor hierarchical-0:tertiary SFSymbolsPreviewFF3B30" d="M75.6836-1.5625Q80.6152-1.5625 83.1543-4.10156Q85.6934-6.64062 85.6934-11.5723L85.6934-58.7891Q85.6934-63.6719 83.1543-66.2109Q80.6152-68.75 75.6836-68.75L43.8965-68.75Q41.8945-68.75 40.21-68.4814Q38.5254-68.2129 37.085-67.4805Q35.6445-66.748 34.2773-65.3809L10.6445-41.3574Q9.13086-39.8438 8.47168-38.4033Q7.8125-36.9629 7.8125-35.3027Q7.8125-33.6426 8.44727-32.1777Q9.08203-30.7129 10.6445-29.1992L34.2773-5.9082Q35.6934-4.54102 37.1094-3.56445Q38.5254-2.58789 40.21-2.0752Q41.8945-1.5625 43.8965-1.5625Z"/>
   <path class="multicolor-1:white hierarchical-1:primary SFSymbolsPreviewFFFFFF" d="M40.5273-20.9473Q39.9902-20.9473 39.624-21.2891Q39.2578-21.6309 39.2578-22.1191Q39.2578-22.6562 39.6973-23.0957L51.709-35.1074L39.6973-47.1191Q39.2578-47.5586 39.2578-48.0957Q39.2578-48.584 39.624-48.9014Q39.9902-49.2188 40.5273-49.2188Q41.0156-49.2188 41.5039-48.7793L53.418-36.8164L65.3809-48.7793Q65.8203-49.2676 66.3574-49.2676Q66.8945-49.2676 67.2607-48.9258Q67.627-48.584 67.627-48.0957Q67.627-47.5586 67.1875-47.1191L55.1758-35.1074L67.1875-23.0957Q67.627-22.6562 67.627-22.1191Q67.627-21.6309 67.2607-21.2891Q66.8945-20.9473 66.3574-20.9473Q65.8203-20.9473 65.3809-21.4355L53.418-33.3984L41.5039-21.4355Q41.0156-20.9473 40.5273-20.9473Z"/>
  </g>
 </g>
</svg>
