<?xml version="1.0" encoding="UTF-8"?>
<!--Generator: Apple Native CoreSVG 175-->
<!DOCTYPE svg
PUBLIC "-//W3C//DTD SVG 1.1//EN"
       "http://www.w3.org/Graphics/SVG/1.1/DTD/svg11.dtd">
<svg version="1.1" xmlns="http://www.w3.org/2000/svg" xmlns:xlink="http://www.w3.org/1999/xlink" width="3300" height="2200">
 <!--glyph: "uni100188.medium", point size: 100.0, font version: "17.0d11e1", template writer version: "65.1"-->
 <g id="Notes">
  <rect height="2200" id="artboard" style="fill:white;opacity:1" width="3300" x="0" y="0"/>
  <line style="fill:none;stroke:black;opacity:1;stroke-width:0.5;" x1="263" x2="3036" y1="292" y2="292"/>
  <text style="stroke:none;fill:black;font-family:sans-serif;font-size:13;font-weight:bold;" transform="matrix(1 0 0 1 263 322)">Weight/Scale Variations</text>
  <text style="stroke:none;fill:black;font-family:sans-serif;font-size:13;text-anchor:middle;" transform="matrix(1 0 0 1 559.711 322)">Ultralight</text>
  <text style="stroke:none;fill:black;font-family:sans-serif;font-size:13;text-anchor:middle;" transform="matrix(1 0 0 1 856.422 322)">Thin</text>
  <text style="stroke:none;fill:black;font-family:sans-serif;font-size:13;text-anchor:middle;" transform="matrix(1 0 0 1 1153.13 322)">Light</text>
  <text style="stroke:none;fill:black;font-family:sans-serif;font-size:13;text-anchor:middle;" transform="matrix(1 0 0 1 1449.84 322)">Regular</text>
  <text style="stroke:none;fill:black;font-family:sans-serif;font-size:13;text-anchor:middle;" transform="matrix(1 0 0 1 1746.56 322)">Medium</text>
  <text style="stroke:none;fill:black;font-family:sans-serif;font-size:13;text-anchor:middle;" transform="matrix(1 0 0 1 2043.27 322)">Semibold</text>
  <text style="stroke:none;fill:black;font-family:sans-serif;font-size:13;text-anchor:middle;" transform="matrix(1 0 0 1 2339.98 322)">Bold</text>
  <text style="stroke:none;fill:black;font-family:sans-serif;font-size:13;text-anchor:middle;" transform="matrix(1 0 0 1 2636.69 322)">Heavy</text>
  <text style="stroke:none;fill:black;font-family:sans-serif;font-size:13;text-anchor:middle;" transform="matrix(1 0 0 1 2933.4 322)">Black</text>
  <line style="fill:none;stroke:black;opacity:1;stroke-width:0.5;" x1="263" x2="3036" y1="1903" y2="1903"/>
  <g transform="matrix(1 0 0 1 263 1933)">
   <path d="M9.24805 0.830078Q10.8691 0.830078 12.2949 0.214844Q13.7207-0.400391 14.8096-1.49414Q15.8984-2.58789 16.5186-4.01367Q17.1387-5.43945 17.1387-7.05078Q17.1387-8.66211 16.5186-10.0879Q15.8984-11.5137 14.8047-12.6074Q13.7109-13.7012 12.2852-14.3164Q10.8594-14.9316 9.23828-14.9316Q7.62695-14.9316 6.20117-14.3164Q4.77539-13.7012 3.69141-12.6074Q2.60742-11.5137 1.9873-10.0879Q1.36719-8.66211 1.36719-7.05078Q1.36719-5.43945 1.9873-4.01367Q2.60742-2.58789 3.69629-1.49414Q4.78516-0.400391 6.21094 0.214844Q7.63672 0.830078 9.24805 0.830078ZM9.24805-0.654297Q7.91992-0.654297 6.7627-1.14746Q5.60547-1.64062 4.73145-2.51953Q3.85742-3.39844 3.36426-4.56055Q2.87109-5.72266 2.87109-7.05078Q2.87109-8.37891 3.35938-9.54102Q3.84766-10.7031 4.72168-11.582Q5.5957-12.4609 6.75293-12.9541Q7.91016-13.4473 9.23828-13.4473Q10.5762-13.4473 11.7334-12.9541Q12.8906-12.4609 13.7695-11.582Q14.6484-10.7031 15.1465-9.54102Q15.6445-8.37891 15.6445-7.05078Q15.6445-5.72266 15.1514-4.56055Q14.6582-3.39844 13.7842-2.51953Q12.9102-1.64062 11.748-1.14746Q10.5859-0.654297 9.24805-0.654297ZM5.6543-7.05078Q5.6543-6.72852 5.85938-6.52832Q6.06445-6.32812 6.40625-6.32812L8.51562-6.32812L8.51562-4.20898Q8.51562-3.88672 8.71094-3.67676Q8.90625-3.4668 9.23828-3.4668Q9.56055-3.4668 9.77051-3.67676Q9.98047-3.88672 9.98047-4.20898L9.98047-6.32812L12.0898-6.32812Q12.4219-6.32812 12.627-6.52832Q12.832-6.72852 12.832-7.05078Q12.832-7.38281 12.627-7.58789Q12.4219-7.79297 12.0898-7.79297L9.98047-7.79297L9.98047-9.90234Q9.98047-10.2344 9.77051-10.4443Q9.56055-10.6543 9.23828-10.6543Q8.90625-10.6543 8.71094-10.4443Q8.51562-10.2344 8.51562-9.90234L8.51562-7.79297L6.40625-7.79297Q6.06445-7.79297 5.85938-7.58789Q5.6543-7.38281 5.6543-7.05078Z"/>
  </g>
  <g transform="matrix(1 0 0 1 281.867 1933)">
   <path d="M11.709 2.91016Q13.75 2.91016 15.5518 2.12891Q17.3535 1.34766 18.7305-0.0292969Q20.1074-1.40625 20.8887-3.20801Q21.6699-5.00977 21.6699-7.05078Q21.6699-9.0918 20.8887-10.8936Q20.1074-12.6953 18.7305-14.0723Q17.3535-15.4492 15.5469-16.2305Q13.7402-17.0117 11.6992-17.0117Q9.6582-17.0117 7.85645-16.2305Q6.05469-15.4492 4.68262-14.0723Q3.31055-12.6953 2.5293-10.8936Q1.74805-9.0918 1.74805-7.05078Q1.74805-5.00977 2.5293-3.20801Q3.31055-1.40625 4.6875-0.0292969Q6.06445 1.34766 7.86621 2.12891Q9.66797 2.91016 11.709 2.91016ZM11.709 1.25Q9.98047 1.25 8.47656 0.605469Q6.97266-0.0390625 5.83496-1.17676Q4.69727-2.31445 4.05762-3.81836Q3.41797-5.32227 3.41797-7.05078Q3.41797-8.7793 4.05762-10.2832Q4.69727-11.7871 5.83008-12.9297Q6.96289-14.0723 8.4668-14.7119Q9.9707-15.3516 11.6992-15.3516Q13.4277-15.3516 14.9316-14.7119Q16.4355-14.0723 17.5781-12.9297Q18.7207-11.7871 19.3652-10.2832Q20.0098-8.7793 20.0098-7.05078Q20.0098-5.32227 19.3701-3.81836Q18.7305-2.31445 17.5928-1.17676Q16.4551-0.0390625 14.9463 0.605469Q13.4375 1.25 11.709 1.25ZM7.17773-7.05078Q7.17773-6.69922 7.41211-6.47461Q7.64648-6.25 8.01758-6.25L10.8887-6.25L10.8887-3.36914Q10.8887-2.99805 11.1133-2.76855Q11.3379-2.53906 11.6895-2.53906Q12.0605-2.53906 12.29-2.76855Q12.5195-2.99805 12.5195-3.36914L12.5195-6.25L15.4004-6.25Q15.7715-6.25 16.001-6.47461Q16.2305-6.69922 16.2305-7.05078Q16.2305-7.42188 16.001-7.65137Q15.7715-7.88086 15.4004-7.88086L12.5195-7.88086L12.5195-10.752Q12.5195-11.1328 12.29-11.3623Q12.0605-11.5918 11.6895-11.5918Q11.3379-11.5918 11.1133-11.3574Q10.8887-11.123 10.8887-10.752L10.8887-7.88086L8.01758-7.88086Q7.63672-7.88086 7.40723-7.65137Q7.17773-7.42188 7.17773-7.05078Z"/>
  </g>
  <g transform="matrix(1 0 0 1 305.646 1933)">
   <path d="M14.9707 5.66406Q17.0605 5.66406 18.96 5.01465Q20.8594 4.36523 22.4512 3.19336Q24.043 2.02148 25.2197 0.429688Q26.3965-1.16211 27.0459-3.06641Q27.6953-4.9707 27.6953-7.05078Q27.6953-9.14062 27.0459-11.04Q26.3965-12.9395 25.2197-14.5312Q24.043-16.123 22.4512-17.2998Q20.8594-18.4766 18.9551-19.126Q17.0508-19.7754 14.9609-19.7754Q12.8711-19.7754 10.9717-19.126Q9.07227-18.4766 7.48535-17.2998Q5.89844-16.123 4.72168-14.5312Q3.54492-12.9395 2.90039-11.04Q2.25586-9.14062 2.25586-7.05078Q2.25586-4.9707 2.90527-3.06641Q3.55469-1.16211 4.72656 0.429688Q5.89844 2.02148 7.49023 3.19336Q9.08203 4.36523 10.9814 5.01465Q12.8809 5.66406 14.9707 5.66406ZM14.9707 3.84766Q13.1641 3.84766 11.5283 3.2959Q9.89258 2.74414 8.53516 1.74805Q7.17773 0.751953 6.17676-0.610352Q5.17578-1.97266 4.62891-3.6084Q4.08203-5.24414 4.08203-7.05078Q4.08203-8.86719 4.62891-10.5029Q5.17578-12.1387 6.17188-13.501Q7.16797-14.8633 8.52539-15.8594Q9.88281-16.8555 11.5186-17.4023Q13.1543-17.9492 14.9609-17.9492Q16.7773-17.9492 18.4131-17.4023Q20.0488-16.8555 21.4111-15.8594Q22.7734-14.8633 23.7695-13.501Q24.7656-12.1387 25.3174-10.5029Q25.8691-8.86719 25.8691-7.05078Q25.8789-5.24414 25.332-3.6084Q24.7852-1.97266 23.7842-0.610352Q22.7832 0.751953 21.4209 1.74805Q20.0586 2.74414 18.4229 3.2959Q16.7871 3.84766 14.9707 3.84766ZM9.19922-7.05078Q9.19922-6.66992 9.45801-6.4209Q9.7168-6.17188 10.1172-6.17188L14.0625-6.17188L14.0625-2.2168Q14.0625-1.81641 14.3115-1.55762Q14.5605-1.29883 14.9512-1.29883Q15.3516-1.29883 15.6104-1.55273Q15.8691-1.80664 15.8691-2.2168L15.8691-6.17188L19.8242-6.17188Q20.2246-6.17188 20.4785-6.4209Q20.7324-6.66992 20.7324-7.05078Q20.7324-7.46094 20.4785-7.71484Q20.2246-7.96875 19.8242-7.96875L15.8691-7.96875L15.8691-11.9141Q15.8691-12.3242 15.6104-12.583Q15.3516-12.8418 14.9512-12.8418Q14.5605-12.8418 14.3115-12.583Q14.0625-12.3242 14.0625-11.9141L14.0625-7.96875L10.1172-7.96875Q9.70703-7.96875 9.45312-7.71484Q9.19922-7.46094 9.19922-7.05078Z"/>
  </g>
  <text style="stroke:none;fill:black;font-family:sans-serif;font-size:13;font-weight:bold;" transform="matrix(1 0 0 1 263 1953)">Design Variations</text>
  <text style="stroke:none;fill:black;font-family:sans-serif;font-size:13;" transform="matrix(1 0 0 1 263 1971)">Symbols are supported in up to nine weights and three scales.</text>
  <text style="stroke:none;fill:black;font-family:sans-serif;font-size:13;" transform="matrix(1 0 0 1 263 1989)">For optimal layout with text and other symbols, vertically align</text>
  <text style="stroke:none;fill:black;font-family:sans-serif;font-size:13;" transform="matrix(1 0 0 1 263 2007)">symbols with the adjacent text.</text>
  <line style="fill:none;stroke:#00AEEF;stroke-width:0.5;opacity:1.0;" x1="776" x2="776" y1="1919" y2="1933"/>
  <g transform="matrix(1 0 0 1 776 1933)">
   <path d="M3.31055 0.15625Q3.70117 0.15625 3.91602-0.00976562Q4.13086-0.175781 4.26758-0.585938L5.52734-4.0332L11.2891-4.0332L12.5488-0.585938Q12.6855-0.175781 12.9004-0.00976562Q13.1152 0.15625 13.4961 0.15625Q13.8867 0.15625 14.1162-0.0585938Q14.3457-0.273438 14.3457-0.644531Q14.3457-0.869141 14.2383-1.17188L9.6582-13.3691Q9.48242-13.8184 9.17969-14.043Q8.87695-14.2676 8.4082-14.2676Q7.5-14.2676 7.17773-13.3789L2.59766-1.16211Q2.49023-0.859375 2.49023-0.634766Q2.49023-0.263672 2.70996-0.0537109Q2.92969 0.15625 3.31055 0.15625ZM6.00586-5.51758L8.37891-12.0898L8.42773-12.0898L10.8008-5.51758Z"/>
  </g>
  <line style="fill:none;stroke:#00AEEF;stroke-width:0.5;opacity:1.0;" x1="793.197" x2="793.197" y1="1919" y2="1933"/>
  <text style="stroke:none;fill:black;font-family:sans-serif;font-size:13;font-weight:bold;" transform="matrix(1 0 0 1 776 1953)">Margins</text>
  <text style="stroke:none;fill:black;font-family:sans-serif;font-size:13;" transform="matrix(1 0 0 1 776 1971)">Leading and trailing margins on the left and right side of each symbol</text>
  <text style="stroke:none;fill:black;font-family:sans-serif;font-size:13;" transform="matrix(1 0 0 1 776 1989)">can be adjusted by modifying the x-location of the margin guidelines.</text>
  <text style="stroke:none;fill:black;font-family:sans-serif;font-size:13;" transform="matrix(1 0 0 1 776 2007)">Modifications are automatically applied proportionally to all</text>
  <text style="stroke:none;fill:black;font-family:sans-serif;font-size:13;" transform="matrix(1 0 0 1 776 2025)">scales and weights.</text>
  <g transform="matrix(1 0 0 1 1289 1933)">
   <path d="M2.8418 1.86523L4.54102 3.57422Q5.18555 4.22852 5.90332 4.17969Q6.62109 4.13086 7.31445 3.35938L18.0078-8.42773L17.041-9.4043L6.42578 2.27539Q6.16211 2.57812 5.89355 2.61719Q5.625 2.65625 5.27344 2.30469L4.10156 1.14258Q3.75 0.791016 3.79395 0.522461Q3.83789 0.253906 4.14062-0.0195312L15.6152-10.8203L14.6387-11.7871L3.04688-0.898438Q2.30469-0.214844 2.25098 0.498047Q2.19727 1.21094 2.8418 1.86523ZM9.25781-16.3281Q8.94531-16.0254 8.90625-15.6348Q8.86719-15.2441 9.04297-14.9512Q9.21875-14.6777 9.55566-14.541Q9.89258-14.4043 10.3809-14.5215Q11.4746-14.7754 12.5977-14.7314Q13.7207-14.6875 14.7949-13.9844L14.209-12.5293Q13.9551-11.9043 14.0674-11.4404Q14.1797-10.9766 14.5801-10.5664L16.875-8.25195Q17.2363-7.88086 17.5781-7.82227Q17.9199-7.76367 18.3398-7.8418L19.4043-8.03711L20.0684-7.36328L20.0293-6.80664Q20-6.43555 20.1221-6.12305Q20.2441-5.81055 20.6055-5.44922L21.3672-4.70703Q21.7285-4.3457 22.1533-4.33105Q22.5781-4.31641 22.9297-4.66797L25.8398-7.58789Q26.1914-7.93945 26.1816-8.35449Q26.1719-8.76953 25.8105-9.13086L25.0391-9.89258Q24.6875-10.2539 24.3799-10.3857Q24.0723-10.5176 23.7109-10.4883L23.1348-10.4395L22.4902-11.0742L22.7344-12.1973Q22.832-12.6172 22.6953-12.9834Q22.5586-13.3496 22.1191-13.7891L19.9219-15.9766Q18.6719-17.2168 17.2607-17.8369Q15.8496-18.457 14.4189-18.4814Q12.9883-18.5059 11.665-17.959Q10.3418-17.4121 9.25781-16.3281ZM10.752-15.957Q11.6602-16.6211 12.7002-16.9043Q13.7402-17.1875 14.8047-17.085Q15.8691-16.9824 16.8701-16.5137Q17.8711-16.0449 18.7012-15.2051L21.1328-12.793Q21.3086-12.6172 21.3525-12.4512Q21.3965-12.2852 21.3379-12.0312L21.0156-10.5469L22.5195-9.0625L23.5059-9.12109Q23.6914-9.13086 23.7891-9.09668Q23.8867-9.0625 24.0332-8.91602L24.6094-8.33984L22.168-5.89844L21.5918-6.47461Q21.4453-6.62109 21.4062-6.71875Q21.3672-6.81641 21.377-7.01172L21.4453-7.98828L19.9512-9.47266L18.4277-9.21875Q18.1836-9.16992 18.042-9.2041Q17.9004-9.23828 17.7148-9.41406L15.7129-11.416Q15.5176-11.5918 15.4932-11.7529Q15.4688-11.9141 15.5859-12.1875L16.4648-14.2773Q15.293-15.3711 13.8281-15.791Q12.3633-16.2109 10.8398-15.7617Q10.7227-15.7324 10.6885-15.8057Q10.6543-15.8789 10.752-15.957Z"/>
  </g>
  <text style="stroke:none;fill:black;font-family:sans-serif;font-size:13;font-weight:bold;" transform="matrix(1 0 0 1 1289 1953)">Exporting</text>
  <text style="stroke:none;fill:black;font-family:sans-serif;font-size:13;" transform="matrix(1 0 0 1 1289 1971)">Symbols should be outlined when exporting to ensure the</text>
  <text style="stroke:none;fill:black;font-family:sans-serif;font-size:13;" transform="matrix(1 0 0 1 1289 1989)">design is preserved when submitting to Xcode.</text>
  <text id="template-version" style="stroke:none;fill:black;font-family:sans-serif;font-size:13;text-anchor:end;" transform="matrix(1 0 0 1 3036 1933)">Template v.3.0</text>
  <text style="stroke:none;fill:black;font-family:sans-serif;font-size:13;text-anchor:end;" transform="matrix(1 0 0 1 3036 1951)">Requires Xcode 13 or greater</text>
  <text id="descriptive-name" style="stroke:none;fill:black;font-family:sans-serif;font-size:13;text-anchor:end;" transform="matrix(1 0 0 1 3036 1969)">Generated from chevron.down</text>
  <text style="stroke:none;fill:black;font-family:sans-serif;font-size:13;text-anchor:end;" transform="matrix(1 0 0 1 3036 1987)">Typeset at 100 points</text>
  <text style="stroke:none;fill:black;font-family:sans-serif;font-size:13;" transform="matrix(1 0 0 1 263 726)">Small</text>
  <text style="stroke:none;fill:black;font-family:sans-serif;font-size:13;" transform="matrix(1 0 0 1 263 1156)">Medium</text>
  <text style="stroke:none;fill:black;font-family:sans-serif;font-size:13;" transform="matrix(1 0 0 1 263 1586)">Large</text>
 </g>
 <g id="Guides">
  <g id="H-reference" style="fill:#27AAE1;stroke:none;" transform="matrix(1 0 0 1 339 696)">
   <path d="M0.976562 0L3.66211 0L29.3457-67.1387L30.0293-67.1387L30.0293-70.459L28.125-70.459ZM11.6699-24.4629L46.9727-24.4629L46.2402-26.709L12.4512-26.709ZM55.127 0L57.7637 0L30.6152-70.459L29.4434-70.459L29.4434-67.1387Z"/>
  </g>
  <line id="Baseline-S" style="fill:none;stroke:#27AAE1;opacity:1;stroke-width:0.5;" x1="263" x2="3036" y1="696" y2="696"/>
  <line id="Capline-S" style="fill:none;stroke:#27AAE1;opacity:1;stroke-width:0.5;" x1="263" x2="3036" y1="625.541" y2="625.541"/>
  <g id="H-reference" style="fill:#27AAE1;stroke:none;" transform="matrix(1 0 0 1 339 1126)">
   <path d="M0.976562 0L3.66211 0L29.3457-67.1387L30.0293-67.1387L30.0293-70.459L28.125-70.459ZM11.6699-24.4629L46.9727-24.4629L46.2402-26.709L12.4512-26.709ZM55.127 0L57.7637 0L30.6152-70.459L29.4434-70.459L29.4434-67.1387Z"/>
  </g>
  <line id="Baseline-M" style="fill:none;stroke:#27AAE1;opacity:1;stroke-width:0.5;" x1="263" x2="3036" y1="1126" y2="1126"/>
  <line id="Capline-M" style="fill:none;stroke:#27AAE1;opacity:1;stroke-width:0.5;" x1="263" x2="3036" y1="1055.54" y2="1055.54"/>
  <g id="H-reference" style="fill:#27AAE1;stroke:none;" transform="matrix(1 0 0 1 339 1556)">
   <path d="M0.976562 0L3.66211 0L29.3457-67.1387L30.0293-67.1387L30.0293-70.459L28.125-70.459ZM11.6699-24.4629L46.9727-24.4629L46.2402-26.709L12.4512-26.709ZM55.127 0L57.7637 0L30.6152-70.459L29.4434-70.459L29.4434-67.1387Z"/>
  </g>
  <line id="Baseline-L" style="fill:none;stroke:#27AAE1;opacity:1;stroke-width:0.5;" x1="263" x2="3036" y1="1556" y2="1556"/>
  <line id="Capline-L" style="fill:none;stroke:#27AAE1;opacity:1;stroke-width:0.5;" x1="263" x2="3036" y1="1485.54" y2="1485.54"/>
  <line id="left-margin-Ultralight-S" style="fill:none;stroke:#00AEEF;stroke-width:0.5;opacity:1.0;" x1="520.429" x2="520.429" y1="600.785" y2="720.121"/>
  <line id="right-margin-Ultralight-S" style="fill:none;stroke:#00AEEF;stroke-width:0.5;opacity:1.0;" x1="598.993" x2="598.993" y1="600.785" y2="720.121"/>
  <line id="left-margin-Thin-S" style="fill:none;stroke:#00AEEF;stroke-width:0.5;opacity:1.0;" x1="816.115" x2="816.115" y1="600.785" y2="720.121"/>
  <line id="right-margin-Thin-S" style="fill:none;stroke:#00AEEF;stroke-width:0.5;opacity:1.0;" x1="896.73" x2="896.73" y1="600.785" y2="720.121"/>
  <line id="left-margin-Light-S" style="fill:none;stroke:#00AEEF;stroke-width:0.5;opacity:1.0;" x1="1110.82" x2="1110.82" y1="600.785" y2="720.121"/>
  <line id="right-margin-Light-S" style="fill:none;stroke:#00AEEF;stroke-width:0.5;opacity:1.0;" x1="1195.44" x2="1195.44" y1="600.785" y2="720.121"/>
  <line id="left-margin-Regular-S" style="fill:none;stroke:#00AEEF;stroke-width:0.5;opacity:1.0;" x1="1406.02" x2="1406.02" y1="600.785" y2="720.121"/>
  <line id="right-margin-Regular-S" style="fill:none;stroke:#00AEEF;stroke-width:0.5;opacity:1.0;" x1="1493.67" x2="1493.67" y1="600.785" y2="720.121"/>
  <line id="left-margin-Medium-S" style="fill:none;stroke:#00AEEF;stroke-width:0.5;opacity:1.0;" x1="1702.2" x2="1702.2" y1="600.785" y2="720.121"/>
  <line id="right-margin-Medium-S" style="fill:none;stroke:#00AEEF;stroke-width:0.5;opacity:1.0;" x1="1790.92" x2="1790.92" y1="600.785" y2="720.121"/>
  <line id="left-margin-Semibold-S" style="fill:none;stroke:#00AEEF;stroke-width:0.5;opacity:1.0;" x1="1998.49" x2="1998.49" y1="600.785" y2="720.121"/>
  <line id="right-margin-Semibold-S" style="fill:none;stroke:#00AEEF;stroke-width:0.5;opacity:1.0;" x1="2088.04" x2="2088.04" y1="600.785" y2="720.121"/>
  <line id="left-margin-Bold-S" style="fill:none;stroke:#00AEEF;stroke-width:0.5;opacity:1.0;" x1="2294.64" x2="2294.64" y1="600.785" y2="720.121"/>
  <line id="right-margin-Bold-S" style="fill:none;stroke:#00AEEF;stroke-width:0.5;opacity:1.0;" x1="2385.31" x2="2385.31" y1="600.785" y2="720.121"/>
  <line id="left-margin-Heavy-S" style="fill:none;stroke:#00AEEF;stroke-width:0.5;opacity:1.0;" x1="2590.55" x2="2590.55" y1="600.785" y2="720.121"/>
  <line id="right-margin-Heavy-S" style="fill:none;stroke:#00AEEF;stroke-width:0.5;opacity:1.0;" x1="2682.83" x2="2682.83" y1="600.785" y2="720.121"/>
  <line id="left-margin-Black-S" style="fill:none;stroke:#00AEEF;stroke-width:0.5;opacity:1.0;" x1="2886.55" x2="2886.55" y1="600.785" y2="720.121"/>
  <line id="right-margin-Black-S" style="fill:none;stroke:#00AEEF;stroke-width:0.5;opacity:1.0;" x1="2980.25" x2="2980.25" y1="600.785" y2="720.121"/>
  <line id="left-margin-Ultralight-M" style="fill:none;stroke:#00AEEF;stroke-width:0.5;opacity:1.0;" x1="509.98" x2="509.98" y1="1030.79" y2="1150.12"/>
  <line id="right-margin-Ultralight-M" style="fill:none;stroke:#00AEEF;stroke-width:0.5;opacity:1.0;" x1="609.443" x2="609.443" y1="1030.79" y2="1150.12"/>
  <line id="left-margin-Thin-M" style="fill:none;stroke:#00AEEF;stroke-width:0.5;opacity:1.0;" x1="805.543" x2="805.543" y1="1030.79" y2="1150.12"/>
  <line id="right-margin-Thin-M" style="fill:none;stroke:#00AEEF;stroke-width:0.5;opacity:1.0;" x1="907.301" x2="907.301" y1="1030.79" y2="1150.12"/>
  <line id="left-margin-Light-M" style="fill:none;stroke:#00AEEF;stroke-width:0.5;opacity:1.0;" x1="1099.98" x2="1099.98" y1="1030.79" y2="1150.12"/>
  <line id="right-margin-Light-M" style="fill:none;stroke:#00AEEF;stroke-width:0.5;opacity:1.0;" x1="1206.28" x2="1206.28" y1="1030.79" y2="1150.12"/>
  <line id="left-margin-Regular-M" style="fill:none;stroke:#00AEEF;stroke-width:0.5;opacity:1.0;" x1="1394.99" x2="1394.99" y1="1030.79" y2="1150.12"/>
  <line id="right-margin-Regular-M" style="fill:none;stroke:#00AEEF;stroke-width:0.5;opacity:1.0;" x1="1504.7" x2="1504.7" y1="1030.79" y2="1150.12"/>
  <line id="left-margin-Medium-M" style="fill:none;stroke:#00AEEF;stroke-width:0.5;opacity:1.0;" x1="1690.87" x2="1690.87" y1="1030.79" y2="1150.12"/>
  <line id="right-margin-Medium-M" style="fill:none;stroke:#00AEEF;stroke-width:0.5;opacity:1.0;" x1="1802.24" x2="1802.24" y1="1030.79" y2="1150.12"/>
  <line id="left-margin-Semibold-M" style="fill:none;stroke:#00AEEF;stroke-width:0.5;opacity:1.0;" x1="1986.94" x2="1986.94" y1="1030.79" y2="1150.12"/>
  <line id="right-margin-Semibold-M" style="fill:none;stroke:#00AEEF;stroke-width:0.5;opacity:1.0;" x1="2099.59" x2="2099.59" y1="1030.79" y2="1150.12"/>
  <line id="left-margin-Bold-M" style="fill:none;stroke:#00AEEF;stroke-width:0.5;opacity:1.0;" x1="2282.8" x2="2282.8" y1="1030.79" y2="1150.12"/>
  <line id="right-margin-Bold-M" style="fill:none;stroke:#00AEEF;stroke-width:0.5;opacity:1.0;" x1="2397.16" x2="2397.16" y1="1030.79" y2="1150.12"/>
  <line id="left-margin-Heavy-M" style="fill:none;stroke:#00AEEF;stroke-width:0.5;opacity:1.0;" x1="2578.29" x2="2578.29" y1="1030.79" y2="1150.12"/>
  <line id="right-margin-Heavy-M" style="fill:none;stroke:#00AEEF;stroke-width:0.5;opacity:1.0;" x1="2695.09" x2="2695.09" y1="1030.79" y2="1150.12"/>
  <line id="left-margin-Black-M" style="fill:none;stroke:#00AEEF;stroke-width:0.5;opacity:1.0;" x1="2873.9" x2="2873.9" y1="1030.79" y2="1150.12"/>
  <line id="right-margin-Black-M" style="fill:none;stroke:#00AEEF;stroke-width:0.5;opacity:1.0;" x1="2992.9" x2="2992.9" y1="1030.79" y2="1150.12"/>
  <line id="left-margin-Ultralight-L" style="fill:none;stroke:#00AEEF;stroke-width:0.5;opacity:1.0;" x1="496.064" x2="496.064" y1="1460.79" y2="1580.12"/>
  <line id="right-margin-Ultralight-L" style="fill:none;stroke:#00AEEF;stroke-width:0.5;opacity:1.0;" x1="623.359" x2="623.359" y1="1460.79" y2="1580.12"/>
  <line id="left-margin-Thin-L" style="fill:none;stroke:#00AEEF;stroke-width:0.5;opacity:1.0;" x1="791.481" x2="791.481" y1="1460.79" y2="1580.12"/>
  <line id="right-margin-Thin-L" style="fill:none;stroke:#00AEEF;stroke-width:0.5;opacity:1.0;" x1="921.364" x2="921.364" y1="1460.79" y2="1580.12"/>
  <line id="left-margin-Light-L" style="fill:none;stroke:#00AEEF;stroke-width:0.5;opacity:1.0;" x1="1085.65" x2="1085.65" y1="1460.79" y2="1580.12"/>
  <line id="right-margin-Light-L" style="fill:none;stroke:#00AEEF;stroke-width:0.5;opacity:1.0;" x1="1220.61" x2="1220.61" y1="1460.79" y2="1580.12"/>
  <line id="left-margin-Regular-L" style="fill:none;stroke:#00AEEF;stroke-width:0.5;opacity:1.0;" x1="1380.46" x2="1380.46" y1="1460.79" y2="1580.12"/>
  <line id="right-margin-Regular-L" style="fill:none;stroke:#00AEEF;stroke-width:0.5;opacity:1.0;" x1="1519.23" x2="1519.23" y1="1460.79" y2="1580.12"/>
  <line id="left-margin-Medium-L" style="fill:none;stroke:#00AEEF;stroke-width:0.5;opacity:1.0;" x1="1676" x2="1676" y1="1460.79" y2="1580.12"/>
  <line id="right-margin-Medium-L" style="fill:none;stroke:#00AEEF;stroke-width:0.5;opacity:1.0;" x1="1817.11" x2="1817.11" y1="1460.79" y2="1580.12"/>
  <line id="left-margin-Semibold-L" style="fill:none;stroke:#00AEEF;stroke-width:0.5;opacity:1.0;" x1="1971.81" x2="1971.81" y1="1460.79" y2="1580.12"/>
  <line id="right-margin-Semibold-L" style="fill:none;stroke:#00AEEF;stroke-width:0.5;opacity:1.0;" x1="2114.73" x2="2114.73" y1="1460.79" y2="1580.12"/>
  <line id="left-margin-Bold-L" style="fill:none;stroke:#00AEEF;stroke-width:0.5;opacity:1.0;" x1="2267.32" x2="2267.32" y1="1460.79" y2="1580.12"/>
  <line id="right-margin-Bold-L" style="fill:none;stroke:#00AEEF;stroke-width:0.5;opacity:1.0;" x1="2412.63" x2="2412.63" y1="1460.79" y2="1580.12"/>
  <line id="left-margin-Heavy-L" style="fill:none;stroke:#00AEEF;stroke-width:0.5;opacity:1.0;" x1="2562.32" x2="2562.32" y1="1460.79" y2="1580.12"/>
  <line id="right-margin-Heavy-L" style="fill:none;stroke:#00AEEF;stroke-width:0.5;opacity:1.0;" x1="2711.05" x2="2711.05" y1="1460.79" y2="1580.12"/>
  <line id="left-margin-Black-L" style="fill:none;stroke:#00AEEF;stroke-width:0.5;opacity:1.0;" x1="2857.5" x2="2857.5" y1="1460.79" y2="1580.12"/>
  <line id="right-margin-Black-L" style="fill:none;stroke:#00AEEF;stroke-width:0.5;opacity:1.0;" x1="3009.3" x2="3009.3" y1="1460.79" y2="1580.12"/>
 </g>
 <g id="Symbols">
  <g id="Black-L" transform="matrix(1 0 0 1 2857.5 1556)">
   <path d="M75.9277 2.83203Q79.0039 2.83203 81.5674 1.66016Q84.1309 0.488281 86.6699-2.05078L132.129-48.3398Q133.984-50.1953 134.863-52.3682Q135.742-54.541 135.742-57.1289Q135.742-60.6934 134.009-63.623Q132.275-66.5527 129.37-68.3105Q126.465-70.0684 122.998-70.0684Q117.627-70.0684 113.525-65.8691L73.8281-24.8535L78.2227-24.8535L38.3301-65.8691Q34.1797-70.0684 28.8086-70.0684Q25.3418-70.0684 22.4365-68.3105Q19.5312-66.5527 17.7979-63.623Q16.0645-60.6934 16.0645-57.1289Q16.0645-54.541 16.9678-52.3682Q17.8711-50.1953 19.6289-48.3398L65.1855-2.05078Q67.7246 0.537109 70.3125 1.68457Q72.9004 2.83203 75.9277 2.83203Z"/>
  </g>
  <g id="Heavy-L" transform="matrix(1 0 0 1 2562.32 1556)">
   <path d="M74.3652 1.51367Q77.002 1.51367 79.1748 0.488281Q81.3477-0.537109 83.4473-2.63672L129.541-49.8535Q131.152-51.416 131.909-53.2959Q132.666-55.1758 132.666-57.373Q132.666-60.4004 131.201-62.915Q129.736-65.4297 127.246-66.9189Q124.756-68.4082 121.777-68.4082Q117.188-68.4082 113.721-64.8438L72.0703-21.7773L76.8555-21.7773L35.0098-64.8438Q31.543-68.4082 26.9531-68.4082Q23.9746-68.4082 21.4844-66.9189Q18.9941-65.4297 17.5293-62.915Q16.0645-60.4004 16.0645-57.373Q16.0645-55.1758 16.8457-53.2959Q17.627-51.416 19.1406-49.8047L65.2832-2.63672Q67.4316-0.488281 69.6289 0.512695Q71.8262 1.51367 74.3652 1.51367Z"/>
  </g>
  <g id="Bold-L" transform="matrix(1 0 0 1 2267.32 1556)">
   <path d="M72.6562 0Q74.7559 0 76.5137-0.830078Q78.2715-1.66016 79.8828-3.32031L126.709-51.5137Q127.979-52.832 128.613-54.3457Q129.248-55.8594 129.248-57.666Q129.248-60.1074 128.052-62.1338Q126.855-64.1602 124.854-65.3564Q122.852-66.5527 120.41-66.5527Q116.748-66.5527 113.965-63.7695L70.1172-18.3105L75.3418-18.3105L31.3477-63.7695Q28.5645-66.5527 24.9023-66.5527Q22.4609-66.5527 20.459-65.3564Q18.457-64.1602 17.2607-62.1338Q16.0645-60.1074 16.0645-57.666Q16.0645-55.8594 16.7236-54.3213Q17.3828-52.7832 18.6035-51.5137L65.4297-3.27148Q67.0898-1.61133 68.8477-0.805664Q70.6055 0 72.6562 0Z"/>
  </g>
  <g id="Semibold-L" transform="matrix(1 0 0 1 1971.81 1556)">
   <path d="M71.4844-1.02539Q73.1934-1.02539 74.6582-1.70898Q76.123-2.39258 77.3926-3.75977L124.707-52.6855Q125.781-53.7598 126.318-55.0293Q126.855-56.2988 126.855-57.8125Q126.855-59.9121 125.879-61.5723Q124.902-63.2324 123.218-64.2334Q121.533-65.2344 119.482-65.2344Q116.406-65.2344 114.111-62.9883L68.75-15.918L74.2676-15.918L28.8086-62.9883Q26.5137-65.2344 23.4375-65.2344Q21.3867-65.2344 19.7021-64.2334Q18.0176-63.2324 17.041-61.5723Q16.0645-59.9121 16.0645-57.8125Q16.0645-56.2988 16.626-55.0049Q17.1875-53.7109 18.2129-52.6367L65.5273-3.71094Q66.8457-2.34375 68.3105-1.68457Q69.7754-1.02539 71.4844-1.02539Z"/>
  </g>
  <g id="Medium-L" transform="matrix(1 0 0 1 1676 1556)">
   <path d="M70.5566-1.80664Q71.9727-1.80664 73.2178-2.39258Q74.4629-2.97852 75.5371-4.10156L123.193-53.5645Q124.072-54.4922 124.561-55.5664Q125.049-56.6406 125.049-57.959Q125.049-59.7168 124.219-61.1572Q123.389-62.5977 121.973-63.4277Q120.557-64.2578 118.75-64.2578Q116.162-64.2578 114.209-62.4023L67.7246-14.0625L73.4375-14.0625L26.8555-62.4023Q24.9512-64.2578 22.3633-64.2578Q20.5566-64.2578 19.1406-63.4277Q17.7246-62.5977 16.8945-61.1572Q16.0645-59.7168 16.0645-57.959Q16.0645-56.6406 16.5527-55.542Q17.041-54.4434 17.9199-53.5156L65.5762-4.05273Q66.6992-2.92969 67.9199-2.36816Q69.1406-1.80664 70.5566-1.80664Z"/>
  </g>
  <g id="Regular-L" transform="matrix(1 0 0 1 1380.46 1556)">
   <path d="M69.3848-2.83203Q70.459-2.83203 71.4111-3.2959Q72.3633-3.75977 73.0957-4.54102L121.24-54.6875Q121.924-55.4199 122.314-56.2744Q122.705-57.1289 122.705-58.1543Q122.705-59.5215 122.07-60.6201Q121.436-61.7188 120.337-62.3535Q119.238-62.9883 117.822-62.9883Q115.82-62.9883 114.355-61.6211L66.4062-11.7188L72.4121-11.7188L24.3652-61.6211Q22.9492-62.9883 20.9473-62.9883Q19.5312-62.9883 18.4326-62.3535Q17.334-61.7188 16.6992-60.6201Q16.0645-59.5215 16.0645-58.1543Q16.0645-57.1289 16.4551-56.25Q16.8457-55.3711 17.5293-54.6387L65.6738-4.49219Q66.4551-3.71094 67.3828-3.27148Q68.3105-2.83203 69.3848-2.83203Z"/>
  </g>
  <g id="Light-L" transform="matrix(1 0 0 1 1085.65 1556)">
   <path d="M67.4805-4.44336Q68.3594-4.44336 69.1162-4.8584Q69.873-5.27344 70.459-5.95703L117.773-56.3965Q118.262-56.9824 118.579-57.5928Q118.896-58.2031 118.896-58.9844Q118.896-60.0098 118.408-60.8154Q117.92-61.6211 117.09-62.1094Q116.26-62.5977 115.234-62.5977Q113.672-62.5977 112.598-61.6211L65.0391-10.8398L69.9707-10.8398L22.2656-61.6211Q21.2891-62.5977 19.7266-62.5977Q18.6523-62.5977 17.8223-62.1094Q16.9922-61.6211 16.5283-60.8154Q16.0645-60.0098 16.0645-58.9844Q16.0645-58.2031 16.3818-57.5439Q16.6992-56.8848 17.2363-56.3477L64.502-5.85938Q65.1367-5.22461 65.8691-4.83398Q66.6016-4.44336 67.4805-4.44336Z"/>
  </g>
  <g id="Thin-L" transform="matrix(1 0 0 1 791.481 1556)">
   <path d="M64.9414-6.64062Q65.5273-6.64062 66.0156-6.98242Q66.5039-7.32422 66.9922-7.76367L113.135-58.6426Q113.428-58.9844 113.623-59.3018Q113.818-59.6191 113.818-60.1074Q113.818-60.6445 113.55-61.084Q113.281-61.5234 112.817-61.8164Q112.354-62.1094 111.768-62.1094Q110.84-62.1094 110.254-61.5723L63.1836-9.66797L66.7969-9.66797L19.5312-61.5723Q19.043-62.1094 18.1152-62.1094Q17.5293-62.1094 17.0654-61.8164Q16.6016-61.5234 16.333-61.084Q16.0645-60.6445 16.0645-60.1074Q16.0645-59.6191 16.3086-59.2773Q16.5527-58.9355 16.8457-58.5938L62.8906-7.71484Q63.3789-7.22656 63.8428-6.93359Q64.3066-6.64062 64.9414-6.64062Z"/>
  </g>
  <g id="Ultralight-L" transform="matrix(1 0 0 1 496.064 1556)">
   <path d="M63.623-7.71484Q64.1113-7.71484 64.4775-8.03223Q64.8438-8.34961 65.2344-8.74023L110.791-59.7656Q110.986-60.0586 111.108-60.2051Q111.23-60.3516 111.23-60.6445Q111.23-60.9863 111.06-61.2305Q110.889-61.4746 110.62-61.6699Q110.352-61.8652 110.01-61.8652Q109.375-61.8652 109.082-61.5723L62.2559-9.08203L65.1367-9.08203L18.1152-61.5723Q17.9199-61.8652 17.2852-61.8652Q16.9434-61.8652 16.6504-61.6699Q16.3574-61.4746 16.2109-61.2305Q16.0645-60.9863 16.0645-60.6445Q16.0645-60.3516 16.2598-60.1562Q16.4551-59.9609 16.6016-59.7168L62.1094-8.64258Q62.4512-8.25195 62.793-7.9834Q63.1348-7.71484 63.623-7.71484Z"/>
  </g>
  <g id="Black-M" transform="matrix(1 0 0 1 2873.9 1126)">
   <path d="M59.5215-5.12695Q62.2559-5.17578 64.502-6.20117Q66.748-7.22656 69.043-9.47266L103.418-44.6777Q106.543-47.7539 106.543-52.2949Q106.543-55.3711 105.029-57.9346Q103.516-60.498 101.001-62.0117Q98.4863-63.5254 95.459-63.5254Q90.7715-63.5254 87.207-59.8145L58.252-29.541L60.9863-29.541L31.8359-59.8145Q28.1738-63.5254 23.5352-63.5254Q20.5078-63.5254 17.9932-62.0117Q15.4785-60.498 13.9648-57.9346Q12.4512-55.3711 12.4512-52.2949Q12.4512-50.0488 13.208-48.1934Q13.9648-46.3379 15.5273-44.6777L50-9.47266Q54.3457-5.12695 59.5215-5.12695Z"/>
  </g>
  <g id="Heavy-M" transform="matrix(1 0 0 1 2578.29 1126)">
   <path d="M58.4473-6.10352Q60.7422-6.15234 62.6465-7.00684Q64.5508-7.86133 66.4551-9.76562L101.66-45.8008Q104.346-48.4375 104.346-52.3438Q104.346-54.9805 103.052-57.1777Q101.758-59.375 99.6094-60.6689Q97.4609-61.9629 94.8242-61.9629Q90.8203-61.9629 87.793-58.8379L56.8359-26.709L60.1562-26.709L29.0527-58.8379Q25.9277-61.9629 21.9727-61.9629Q19.3359-61.9629 17.1875-60.6689Q15.0391-59.375 13.7451-57.1777Q12.4512-54.9805 12.4512-52.3438Q12.4512-50.3906 13.1104-48.7793Q13.7695-47.168 15.1367-45.752L50.3906-9.76562Q54.0527-6.10352 58.4473-6.10352Z"/>
  </g>
  <g id="Bold-M" transform="matrix(1 0 0 1 2282.8 1126)">
   <path d="M57.2266-7.17773Q59.0332-7.22656 60.5957-7.91016Q62.1582-8.59375 63.623-10.0586L99.707-47.0215Q101.904-49.2188 101.904-52.3926Q101.904-54.5898 100.854-56.3721Q99.8047-58.1543 98.0469-59.2041Q96.2891-60.2539 94.1406-60.2539Q90.918-60.2539 88.4277-57.7637L55.2734-23.5352L59.2285-23.5352L25.9766-57.7637Q23.4863-60.2539 20.2148-60.2539Q18.0664-60.2539 16.3086-59.2041Q14.5508-58.1543 13.501-56.3721Q12.4512-54.5898 12.4512-52.3926Q12.4512-50.8301 13.0127-49.4873Q13.5742-48.1445 14.6484-47.0215L50.7812-10.0586Q53.7109-7.17773 57.2266-7.17773Z"/>
  </g>
  <g id="Semibold-M" transform="matrix(1 0 0 1 1986.94 1126)">
   <path d="M56.3477-7.91016Q57.8613-7.95898 59.1553-8.52051Q60.4492-9.08203 61.6211-10.2539L98.3398-47.8516Q100.195-49.7559 100.195-52.4414Q100.195-54.248 99.3164-55.7861Q98.4375-57.3242 96.9727-58.2031Q95.5078-59.082 93.6523-59.082Q90.918-59.082 88.8672-57.0312L54.1504-21.3379L58.5938-21.3379L23.8281-57.0312Q21.7285-59.082 18.9941-59.082Q17.1875-59.082 15.6982-58.2031Q14.209-57.3242 13.3301-55.7861Q12.4512-54.248 12.4512-52.4414Q12.4512-51.0742 12.915-49.9268Q13.3789-48.7793 14.3066-47.8516L51.0742-10.2539Q53.4668-7.91016 56.3477-7.91016Z"/>
  </g>
  <g id="Medium-M" transform="matrix(1 0 0 1 1690.87 1126)">
   <path d="M55.7129-8.49609Q56.9824-8.49609 58.0811-8.98438Q59.1797-9.47266 60.1074-10.4492L97.3145-48.5352Q98.9258-50.1465 98.9258-52.4414Q98.9258-54.0527 98.1689-55.3467Q97.4121-56.6406 96.1426-57.3975Q94.873-58.1543 93.3105-58.1543Q90.9668-58.1543 89.209-56.4453L53.3203-19.6289L58.1055-19.6289L22.168-56.4453Q20.459-58.1543 18.0664-58.1543Q16.5039-58.1543 15.2344-57.3975Q13.9648-56.6406 13.208-55.3467Q12.4512-54.0527 12.4512-52.4414Q12.4512-51.2695 12.8662-50.293Q13.2812-49.3164 14.0625-48.4863L51.2695-10.4492Q53.2715-8.49609 55.7129-8.49609Z"/>
  </g>
  <g id="Regular-M" transform="matrix(1 0 0 1 1394.99 1126)">
   <path d="M54.8828-9.22852Q55.8105-9.22852 56.665-9.59473Q57.5195-9.96094 58.1543-10.6445L95.9473-49.3652Q97.2656-50.6836 97.2656-52.4902Q97.2656-53.7598 96.6797-54.7852Q96.0938-55.8105 95.0928-56.3965Q94.0918-56.9824 92.8223-56.9824Q91.0156-56.9824 89.6484-55.7129L52.2461-17.4805L57.4707-17.4805L20.0684-55.7129Q18.75-56.9824 16.8945-56.9824Q15.625-56.9824 14.624-56.3965Q13.623-55.8105 13.0371-54.7852Q12.4512-53.7598 12.4512-52.4902Q12.4512-51.5625 12.793-50.7568Q13.1348-49.9512 13.7695-49.3164L51.5625-10.6445Q53.0273-9.22852 54.8828-9.22852Z"/>
  </g>
  <g id="Light-M" transform="matrix(1 0 0 1 1099.98 1126)">
   <path d="M53.1738-10.6934Q53.9062-10.6934 54.5898-11.0107Q55.2734-11.3281 55.8105-11.8652L92.8223-50.8789Q93.8477-51.9531 93.8477-53.2227Q93.8477-54.1992 93.4082-54.9805Q92.9688-55.7617 92.2119-56.2012Q91.4551-56.6406 90.4785-56.6406Q89.0625-56.6406 88.0859-55.6641L51.0254-16.6992L55.3223-16.6992L18.2129-55.6641Q17.2363-56.6406 15.8203-56.6406Q14.8438-56.6406 14.0869-56.2012Q13.3301-55.7617 12.8906-54.9805Q12.4512-54.1992 12.4512-53.2227Q12.4512-52.5391 12.7441-51.9287Q13.0371-51.3184 13.4766-50.8301L50.4883-11.8652Q51.709-10.6934 53.1738-10.6934Z"/>
  </g>
  <g id="Thin-M" transform="matrix(1 0 0 1 805.543 1126)">
   <path d="M50.8789-12.5977Q51.3672-12.5977 51.8311-12.8662Q52.2949-13.1348 52.6855-13.5254L88.6719-52.8809Q89.3066-53.6133 89.3066-54.248Q89.3066-54.7852 89.0381-55.2246Q88.7695-55.6641 88.3545-55.9082Q87.9395-56.1523 87.3535-56.1523Q86.5234-56.1523 85.9863-55.6641L49.3652-15.6738L52.4414-15.6738L15.7227-55.6641Q15.2832-56.1523 14.3555-56.1523Q13.8184-56.1523 13.3789-55.9082Q12.9395-55.6641 12.6953-55.2246Q12.4512-54.7852 12.4512-54.248Q12.4512-53.8086 12.6465-53.4912Q12.8418-53.1738 13.1348-52.832L49.0723-13.4766Q49.9512-12.5977 50.8789-12.5977Z"/>
  </g>
  <g id="Ultralight-M" transform="matrix(1 0 0 1 509.98 1126)">
   <path d="M49.707-13.5742Q50.0977-13.5742 50.415-13.8184Q50.7324-14.0625 51.0742-14.3555L86.5234-53.9062Q87.0117-54.4434 87.0117-54.7363Q87.0117-55.0781 86.8408-55.3467Q86.6699-55.6152 86.4014-55.7861Q86.1328-55.957 85.791-55.957Q85.2051-55.957 84.9121-55.6152L48.5352-15.1855L50.9766-15.1855L14.502-55.6152Q14.2578-55.957 13.623-55.957Q13.3301-55.957 13.0371-55.7861Q12.7441-55.6152 12.5977-55.3467Q12.4512-55.0781 12.4512-54.7363Q12.4512-54.4922 12.6221-54.2969Q12.793-54.1016 12.9395-53.8574L48.3398-14.3066Q49.0723-13.5742 49.707-13.5742Z"/>
  </g>
  <g id="Black-S" transform="matrix(1 0 0 1 2886.55 696)">
   <path d="M46.875-11.4258Q51.123-11.4746 54.7363-15.0391L81.3965-42.3828Q83.9355-44.9219 83.9355-48.6328Q83.9355-52.3926 81.25-55.127Q78.5645-57.8613 74.8535-57.8613Q70.9961-57.8613 68.0664-54.7852L45.9961-31.5918L47.9004-31.5918L25.6836-54.7852Q22.7051-57.8613 18.8477-57.8613Q15.1367-57.8613 12.4512-55.127Q9.76562-52.3926 9.76562-48.6328Q9.76562-45.0684 12.3047-42.3828L39.0137-15.0391Q42.627-11.4258 46.875-11.4258Z"/>
  </g>
  <g id="Heavy-S" transform="matrix(1 0 0 1 2590.55 696)">
   <path d="M46.1426-12.0605Q49.8047-12.1094 52.832-15.1367L80.2734-43.1152Q82.5195-45.3613 82.5195-48.584Q82.5195-51.8555 80.2002-54.2236Q77.8809-56.5918 74.6094-56.5918Q71.2891-56.5918 68.75-53.9551L44.9707-29.248L47.4609-29.248L23.5352-53.9551Q20.9961-56.5918 17.6758-56.5918Q14.4043-56.5918 12.085-54.2236Q9.76562-51.8555 9.76562-48.584Q9.76562-45.459 11.9629-43.1152L39.4531-15.1367Q42.5293-12.0605 46.1426-12.0605Z"/>
  </g>
  <g id="Bold-S" transform="matrix(1 0 0 1 2294.64 696)">
   <path d="M45.3613-12.793Q48.3887-12.8418 50.7324-15.2344L79.0527-43.9941Q80.9082-45.8496 80.9082-48.5352Q80.9082-51.2695 79.0039-53.2227Q77.0996-55.1758 74.3652-55.1758Q71.6309-55.1758 69.5312-53.0273L43.7988-26.6602L47.0215-26.6602L21.1914-53.0273Q19.0918-55.1758 16.3574-55.1758Q13.623-55.1758 11.6943-53.2227Q9.76562-51.2695 9.76562-48.5352Q9.76562-45.8984 11.6211-43.9941L39.9902-15.2344Q42.4316-12.793 45.3613-12.793Z"/>
  </g>
  <g id="Semibold-S" transform="matrix(1 0 0 1 1998.49 696)">
   <path d="M44.8242-13.2812Q47.3633-13.3301 49.2676-15.2832L78.2227-44.5312Q79.7852-46.1426 79.7852-48.4863Q79.7852-50.8789 78.1494-52.5146Q76.5137-54.1504 74.1699-54.1504Q71.875-54.1504 70.0684-52.3926L42.9688-24.8535L46.6797-24.8535L19.5312-52.3926Q17.7246-54.1504 15.4297-54.1504Q13.0371-54.1504 11.4014-52.5146Q9.76562-50.8789 9.76562-48.4863Q9.76562-46.1914 11.377-44.5312L40.332-15.2832Q42.334-13.2812 44.8242-13.2812Z"/>
  </g>
  <g id="Medium-S" transform="matrix(1 0 0 1 1702.2 696)">
   <path d="M44.3848-13.6719Q46.582-13.6719 48.1934-15.332L77.5391-44.9707Q78.9551-46.3867 78.9551-48.4375Q78.9551-50.5371 77.5391-51.9775Q76.123-53.418 74.0723-53.418Q72.0215-53.418 70.459-51.9043L42.334-23.4863L46.4355-23.4863L18.2617-51.9043Q16.748-53.418 14.7461-53.418Q12.5977-53.418 11.1816-51.9775Q9.76562-50.5371 9.76562-48.4375Q9.76562-46.4355 11.1816-44.9707L40.625-15.332Q42.2852-13.6719 44.3848-13.6719Z"/>
  </g>
  <g id="Regular-S" transform="matrix(1 0 0 1 1406.02 696)">
   <path d="M43.8477-14.1602Q45.6055-14.1602 46.7285-15.3809L76.709-45.5566Q77.8809-46.7285 77.8809-48.3887Q77.8809-50.1465 76.7334-51.2939Q75.5859-52.4414 73.877-52.4414Q72.2656-52.4414 70.9961-51.2695L41.5527-21.7285L46.0938-21.7285L16.6504-51.2695Q15.4297-52.4414 13.8184-52.4414Q12.0605-52.4414 10.9131-51.2939Q9.76562-50.1465 9.76562-48.3887Q9.76562-46.7285 10.9375-45.5566L40.9668-15.3809Q42.1875-14.1602 43.8477-14.1602Z"/>
  </g>
  <g id="Light-S" transform="matrix(1 0 0 1 1110.82 696)">
   <path d="M42.334-15.4297Q43.6523-15.4297 44.6289-16.5039L73.9258-46.9238Q74.8535-47.8516 74.8535-49.0723Q74.8535-50.3906 73.9746-51.2695Q73.0957-52.1484 71.8262-52.1484Q70.5566-52.1484 69.5801-51.2695L40.4297-21.0449L44.1895-21.0449L14.9902-51.2695Q14.1113-52.1484 12.8418-52.1484Q11.5234-52.1484 10.6445-51.2695Q9.76562-50.3906 9.76562-49.0723Q9.76562-47.8516 10.6934-46.875L39.9902-16.4551Q41.0156-15.4297 42.334-15.4297Z"/>
  </g>
  <g id="Thin-S" transform="matrix(1 0 0 1 816.115 696)">
   <path d="M40.2832-17.1387Q41.1133-17.1387 41.8945-17.9688L70.2637-48.6816Q70.8496-49.3164 70.8496-49.9512Q70.8496-50.7324 70.3369-51.2451Q69.8242-51.7578 69.043-51.7578Q68.3105-51.7578 67.7734-51.2207L38.9648-20.1172L41.6504-20.1172L12.8418-51.2207Q12.3535-51.7578 11.5723-51.7578Q10.791-51.7578 10.2783-51.2451Q9.76562-50.7324 9.76562-49.9512Q9.76562-49.3164 10.3516-48.6328L38.7695-17.9199Q39.502-17.1387 40.2832-17.1387Z"/>
  </g>
  <g id="Ultralight-S" transform="matrix(1 0 0 1 520.429 696)">
   <path d="M39.2578-18.0176Q39.7949-18.0176 40.4785-18.7012L68.4082-49.6094Q68.7988-50.0488 68.7988-50.3906Q68.7988-50.8789 68.457-51.1963Q68.1152-51.5137 67.6758-51.5137Q67.1387-51.5137 66.7969-51.2207L38.2324-19.6289L40.332-19.6289L11.7188-51.2207Q11.4258-51.5137 10.8887-51.5137Q10.4492-51.5137 10.1074-51.1963Q9.76562-50.8789 9.76562-50.3906Q9.76562-50.0977 10.2051-49.5605L38.0859-18.6523Q38.6719-18.0176 39.2578-18.0176Z"/>
  </g>
 </g>
</svg>
