<?xml version="1.0" encoding="UTF-8"?>
<!--Generator: Apple Native CoreSVG 175-->
<!DOCTYPE svg
PUBLIC "-//W3C//DTD SVG 1.1//EN"
       "http://www.w3.org/Graphics/SVG/1.1/DTD/svg11.dtd">
<svg version="1.1" xmlns="http://www.w3.org/2000/svg" xmlns:xlink="http://www.w3.org/1999/xlink" width="3300" height="2200">
 <!--glyph: "uni1001A2.medium", point size: 100.0, font version: "17.0d11e1", template writer version: "65.1"-->
 <g id="Notes">
  <rect height="2200" id="artboard" style="fill:white;opacity:1" width="3300" x="0" y="0"/>
  <line style="fill:none;stroke:black;opacity:1;stroke-width:0.5;" x1="263" x2="3036" y1="292" y2="292"/>
  <text style="stroke:none;fill:black;font-family:sans-serif;font-size:13;font-weight:bold;" transform="matrix(1 0 0 1 263 322)">Weight/Scale Variations</text>
  <text style="stroke:none;fill:black;font-family:sans-serif;font-size:13;text-anchor:middle;" transform="matrix(1 0 0 1 559.711 322)">Ultralight</text>
  <text style="stroke:none;fill:black;font-family:sans-serif;font-size:13;text-anchor:middle;" transform="matrix(1 0 0 1 856.422 322)">Thin</text>
  <text style="stroke:none;fill:black;font-family:sans-serif;font-size:13;text-anchor:middle;" transform="matrix(1 0 0 1 1153.13 322)">Light</text>
  <text style="stroke:none;fill:black;font-family:sans-serif;font-size:13;text-anchor:middle;" transform="matrix(1 0 0 1 1449.84 322)">Regular</text>
  <text style="stroke:none;fill:black;font-family:sans-serif;font-size:13;text-anchor:middle;" transform="matrix(1 0 0 1 1746.56 322)">Medium</text>
  <text style="stroke:none;fill:black;font-family:sans-serif;font-size:13;text-anchor:middle;" transform="matrix(1 0 0 1 2043.27 322)">Semibold</text>
  <text style="stroke:none;fill:black;font-family:sans-serif;font-size:13;text-anchor:middle;" transform="matrix(1 0 0 1 2339.98 322)">Bold</text>
  <text style="stroke:none;fill:black;font-family:sans-serif;font-size:13;text-anchor:middle;" transform="matrix(1 0 0 1 2636.69 322)">Heavy</text>
  <text style="stroke:none;fill:black;font-family:sans-serif;font-size:13;text-anchor:middle;" transform="matrix(1 0 0 1 2933.4 322)">Black</text>
  <line style="fill:none;stroke:black;opacity:1;stroke-width:0.5;" x1="263" x2="3036" y1="1903" y2="1903"/>
  <g transform="matrix(1 0 0 1 263 1933)">
   <path d="M9.24805 0.830078Q10.8691 0.830078 12.2949 0.214844Q13.7207-0.400391 14.8096-1.49414Q15.8984-2.58789 16.5186-4.01367Q17.1387-5.43945 17.1387-7.05078Q17.1387-8.66211 16.5186-10.0879Q15.8984-11.5137 14.8047-12.6074Q13.7109-13.7012 12.2852-14.3164Q10.8594-14.9316 9.23828-14.9316Q7.62695-14.9316 6.20117-14.3164Q4.77539-13.7012 3.69141-12.6074Q2.60742-11.5137 1.9873-10.0879Q1.36719-8.66211 1.36719-7.05078Q1.36719-5.43945 1.9873-4.01367Q2.60742-2.58789 3.69629-1.49414Q4.78516-0.400391 6.21094 0.214844Q7.63672 0.830078 9.24805 0.830078ZM9.24805-0.654297Q7.91992-0.654297 6.7627-1.14746Q5.60547-1.64062 4.73145-2.51953Q3.85742-3.39844 3.36426-4.56055Q2.87109-5.72266 2.87109-7.05078Q2.87109-8.37891 3.35938-9.54102Q3.84766-10.7031 4.72168-11.582Q5.5957-12.4609 6.75293-12.9541Q7.91016-13.4473 9.23828-13.4473Q10.5762-13.4473 11.7334-12.9541Q12.8906-12.4609 13.7695-11.582Q14.6484-10.7031 15.1465-9.54102Q15.6445-8.37891 15.6445-7.05078Q15.6445-5.72266 15.1514-4.56055Q14.6582-3.39844 13.7842-2.51953Q12.9102-1.64062 11.748-1.14746Q10.5859-0.654297 9.24805-0.654297ZM5.6543-7.05078Q5.6543-6.72852 5.85938-6.52832Q6.06445-6.32812 6.40625-6.32812L8.51562-6.32812L8.51562-4.20898Q8.51562-3.88672 8.71094-3.67676Q8.90625-3.4668 9.23828-3.4668Q9.56055-3.4668 9.77051-3.67676Q9.98047-3.88672 9.98047-4.20898L9.98047-6.32812L12.0898-6.32812Q12.4219-6.32812 12.627-6.52832Q12.832-6.72852 12.832-7.05078Q12.832-7.38281 12.627-7.58789Q12.4219-7.79297 12.0898-7.79297L9.98047-7.79297L9.98047-9.90234Q9.98047-10.2344 9.77051-10.4443Q9.56055-10.6543 9.23828-10.6543Q8.90625-10.6543 8.71094-10.4443Q8.51562-10.2344 8.51562-9.90234L8.51562-7.79297L6.40625-7.79297Q6.06445-7.79297 5.85938-7.58789Q5.6543-7.38281 5.6543-7.05078Z"/>
  </g>
  <g transform="matrix(1 0 0 1 281.867 1933)">
   <path d="M11.709 2.91016Q13.75 2.91016 15.5518 2.12891Q17.3535 1.34766 18.7305-0.0292969Q20.1074-1.40625 20.8887-3.20801Q21.6699-5.00977 21.6699-7.05078Q21.6699-9.0918 20.8887-10.8936Q20.1074-12.6953 18.7305-14.0723Q17.3535-15.4492 15.5469-16.2305Q13.7402-17.0117 11.6992-17.0117Q9.6582-17.0117 7.85645-16.2305Q6.05469-15.4492 4.68262-14.0723Q3.31055-12.6953 2.5293-10.8936Q1.74805-9.0918 1.74805-7.05078Q1.74805-5.00977 2.5293-3.20801Q3.31055-1.40625 4.6875-0.0292969Q6.06445 1.34766 7.86621 2.12891Q9.66797 2.91016 11.709 2.91016ZM11.709 1.25Q9.98047 1.25 8.47656 0.605469Q6.97266-0.0390625 5.83496-1.17676Q4.69727-2.31445 4.05762-3.81836Q3.41797-5.32227 3.41797-7.05078Q3.41797-8.7793 4.05762-10.2832Q4.69727-11.7871 5.83008-12.9297Q6.96289-14.0723 8.4668-14.7119Q9.9707-15.3516 11.6992-15.3516Q13.4277-15.3516 14.9316-14.7119Q16.4355-14.0723 17.5781-12.9297Q18.7207-11.7871 19.3652-10.2832Q20.0098-8.7793 20.0098-7.05078Q20.0098-5.32227 19.3701-3.81836Q18.7305-2.31445 17.5928-1.17676Q16.4551-0.0390625 14.9463 0.605469Q13.4375 1.25 11.709 1.25ZM7.17773-7.05078Q7.17773-6.69922 7.41211-6.47461Q7.64648-6.25 8.01758-6.25L10.8887-6.25L10.8887-3.36914Q10.8887-2.99805 11.1133-2.76855Q11.3379-2.53906 11.6895-2.53906Q12.0605-2.53906 12.29-2.76855Q12.5195-2.99805 12.5195-3.36914L12.5195-6.25L15.4004-6.25Q15.7715-6.25 16.001-6.47461Q16.2305-6.69922 16.2305-7.05078Q16.2305-7.42188 16.001-7.65137Q15.7715-7.88086 15.4004-7.88086L12.5195-7.88086L12.5195-10.752Q12.5195-11.1328 12.29-11.3623Q12.0605-11.5918 11.6895-11.5918Q11.3379-11.5918 11.1133-11.3574Q10.8887-11.123 10.8887-10.752L10.8887-7.88086L8.01758-7.88086Q7.63672-7.88086 7.40723-7.65137Q7.17773-7.42188 7.17773-7.05078Z"/>
  </g>
  <g transform="matrix(1 0 0 1 305.646 1933)">
   <path d="M14.9707 5.66406Q17.0605 5.66406 18.96 5.01465Q20.8594 4.36523 22.4512 3.19336Q24.043 2.02148 25.2197 0.429688Q26.3965-1.16211 27.0459-3.06641Q27.6953-4.9707 27.6953-7.05078Q27.6953-9.14062 27.0459-11.04Q26.3965-12.9395 25.2197-14.5312Q24.043-16.123 22.4512-17.2998Q20.8594-18.4766 18.9551-19.126Q17.0508-19.7754 14.9609-19.7754Q12.8711-19.7754 10.9717-19.126Q9.07227-18.4766 7.48535-17.2998Q5.89844-16.123 4.72168-14.5312Q3.54492-12.9395 2.90039-11.04Q2.25586-9.14062 2.25586-7.05078Q2.25586-4.9707 2.90527-3.06641Q3.55469-1.16211 4.72656 0.429688Q5.89844 2.02148 7.49023 3.19336Q9.08203 4.36523 10.9814 5.01465Q12.8809 5.66406 14.9707 5.66406ZM14.9707 3.84766Q13.1641 3.84766 11.5283 3.2959Q9.89258 2.74414 8.53516 1.74805Q7.17773 0.751953 6.17676-0.610352Q5.17578-1.97266 4.62891-3.6084Q4.08203-5.24414 4.08203-7.05078Q4.08203-8.86719 4.62891-10.5029Q5.17578-12.1387 6.17188-13.501Q7.16797-14.8633 8.52539-15.8594Q9.88281-16.8555 11.5186-17.4023Q13.1543-17.9492 14.9609-17.9492Q16.7773-17.9492 18.4131-17.4023Q20.0488-16.8555 21.4111-15.8594Q22.7734-14.8633 23.7695-13.501Q24.7656-12.1387 25.3174-10.5029Q25.8691-8.86719 25.8691-7.05078Q25.8789-5.24414 25.332-3.6084Q24.7852-1.97266 23.7842-0.610352Q22.7832 0.751953 21.4209 1.74805Q20.0586 2.74414 18.4229 3.2959Q16.7871 3.84766 14.9707 3.84766ZM9.19922-7.05078Q9.19922-6.66992 9.45801-6.4209Q9.7168-6.17188 10.1172-6.17188L14.0625-6.17188L14.0625-2.2168Q14.0625-1.81641 14.3115-1.55762Q14.5605-1.29883 14.9512-1.29883Q15.3516-1.29883 15.6104-1.55273Q15.8691-1.80664 15.8691-2.2168L15.8691-6.17188L19.8242-6.17188Q20.2246-6.17188 20.4785-6.4209Q20.7324-6.66992 20.7324-7.05078Q20.7324-7.46094 20.4785-7.71484Q20.2246-7.96875 19.8242-7.96875L15.8691-7.96875L15.8691-11.9141Q15.8691-12.3242 15.6104-12.583Q15.3516-12.8418 14.9512-12.8418Q14.5605-12.8418 14.3115-12.583Q14.0625-12.3242 14.0625-11.9141L14.0625-7.96875L10.1172-7.96875Q9.70703-7.96875 9.45312-7.71484Q9.19922-7.46094 9.19922-7.05078Z"/>
  </g>
  <text style="stroke:none;fill:black;font-family:sans-serif;font-size:13;font-weight:bold;" transform="matrix(1 0 0 1 263 1953)">Design Variations</text>
  <text style="stroke:none;fill:black;font-family:sans-serif;font-size:13;" transform="matrix(1 0 0 1 263 1971)">Symbols are supported in up to nine weights and three scales.</text>
  <text style="stroke:none;fill:black;font-family:sans-serif;font-size:13;" transform="matrix(1 0 0 1 263 1989)">For optimal layout with text and other symbols, vertically align</text>
  <text style="stroke:none;fill:black;font-family:sans-serif;font-size:13;" transform="matrix(1 0 0 1 263 2007)">symbols with the adjacent text.</text>
  <line style="fill:none;stroke:#00AEEF;stroke-width:0.5;opacity:1.0;" x1="776" x2="776" y1="1919" y2="1933"/>
  <g transform="matrix(1 0 0 1 776 1933)">
   <path d="M3.31055 0.15625Q3.70117 0.15625 3.91602-0.00976562Q4.13086-0.175781 4.26758-0.585938L5.52734-4.0332L11.2891-4.0332L12.5488-0.585938Q12.6855-0.175781 12.9004-0.00976562Q13.1152 0.15625 13.4961 0.15625Q13.8867 0.15625 14.1162-0.0585938Q14.3457-0.273438 14.3457-0.644531Q14.3457-0.869141 14.2383-1.17188L9.6582-13.3691Q9.48242-13.8184 9.17969-14.043Q8.87695-14.2676 8.4082-14.2676Q7.5-14.2676 7.17773-13.3789L2.59766-1.16211Q2.49023-0.859375 2.49023-0.634766Q2.49023-0.263672 2.70996-0.0537109Q2.92969 0.15625 3.31055 0.15625ZM6.00586-5.51758L8.37891-12.0898L8.42773-12.0898L10.8008-5.51758Z"/>
  </g>
  <line style="fill:none;stroke:#00AEEF;stroke-width:0.5;opacity:1.0;" x1="793.197" x2="793.197" y1="1919" y2="1933"/>
  <text style="stroke:none;fill:black;font-family:sans-serif;font-size:13;font-weight:bold;" transform="matrix(1 0 0 1 776 1953)">Margins</text>
  <text style="stroke:none;fill:black;font-family:sans-serif;font-size:13;" transform="matrix(1 0 0 1 776 1971)">Leading and trailing margins on the left and right side of each symbol</text>
  <text style="stroke:none;fill:black;font-family:sans-serif;font-size:13;" transform="matrix(1 0 0 1 776 1989)">can be adjusted by modifying the x-location of the margin guidelines.</text>
  <text style="stroke:none;fill:black;font-family:sans-serif;font-size:13;" transform="matrix(1 0 0 1 776 2007)">Modifications are automatically applied proportionally to all</text>
  <text style="stroke:none;fill:black;font-family:sans-serif;font-size:13;" transform="matrix(1 0 0 1 776 2025)">scales and weights.</text>
  <g transform="matrix(1 0 0 1 1289 1933)">
   <path d="M2.8418 1.86523L4.54102 3.57422Q5.18555 4.22852 5.90332 4.17969Q6.62109 4.13086 7.31445 3.35938L18.0078-8.42773L17.041-9.4043L6.42578 2.27539Q6.16211 2.57812 5.89355 2.61719Q5.625 2.65625 5.27344 2.30469L4.10156 1.14258Q3.75 0.791016 3.79395 0.522461Q3.83789 0.253906 4.14062-0.0195312L15.6152-10.8203L14.6387-11.7871L3.04688-0.898438Q2.30469-0.214844 2.25098 0.498047Q2.19727 1.21094 2.8418 1.86523ZM9.25781-16.3281Q8.94531-16.0254 8.90625-15.6348Q8.86719-15.2441 9.04297-14.9512Q9.21875-14.6777 9.55566-14.541Q9.89258-14.4043 10.3809-14.5215Q11.4746-14.7754 12.5977-14.7314Q13.7207-14.6875 14.7949-13.9844L14.209-12.5293Q13.9551-11.9043 14.0674-11.4404Q14.1797-10.9766 14.5801-10.5664L16.875-8.25195Q17.2363-7.88086 17.5781-7.82227Q17.9199-7.76367 18.3398-7.8418L19.4043-8.03711L20.0684-7.36328L20.0293-6.80664Q20-6.43555 20.1221-6.12305Q20.2441-5.81055 20.6055-5.44922L21.3672-4.70703Q21.7285-4.3457 22.1533-4.33105Q22.5781-4.31641 22.9297-4.66797L25.8398-7.58789Q26.1914-7.93945 26.1816-8.35449Q26.1719-8.76953 25.8105-9.13086L25.0391-9.89258Q24.6875-10.2539 24.3799-10.3857Q24.0723-10.5176 23.7109-10.4883L23.1348-10.4395L22.4902-11.0742L22.7344-12.1973Q22.832-12.6172 22.6953-12.9834Q22.5586-13.3496 22.1191-13.7891L19.9219-15.9766Q18.6719-17.2168 17.2607-17.8369Q15.8496-18.457 14.4189-18.4814Q12.9883-18.5059 11.665-17.959Q10.3418-17.4121 9.25781-16.3281ZM10.752-15.957Q11.6602-16.6211 12.7002-16.9043Q13.7402-17.1875 14.8047-17.085Q15.8691-16.9824 16.8701-16.5137Q17.8711-16.0449 18.7012-15.2051L21.1328-12.793Q21.3086-12.6172 21.3525-12.4512Q21.3965-12.2852 21.3379-12.0312L21.0156-10.5469L22.5195-9.0625L23.5059-9.12109Q23.6914-9.13086 23.7891-9.09668Q23.8867-9.0625 24.0332-8.91602L24.6094-8.33984L22.168-5.89844L21.5918-6.47461Q21.4453-6.62109 21.4062-6.71875Q21.3672-6.81641 21.377-7.01172L21.4453-7.98828L19.9512-9.47266L18.4277-9.21875Q18.1836-9.16992 18.042-9.2041Q17.9004-9.23828 17.7148-9.41406L15.7129-11.416Q15.5176-11.5918 15.4932-11.7529Q15.4688-11.9141 15.5859-12.1875L16.4648-14.2773Q15.293-15.3711 13.8281-15.791Q12.3633-16.2109 10.8398-15.7617Q10.7227-15.7324 10.6885-15.8057Q10.6543-15.8789 10.752-15.957Z"/>
  </g>
  <text style="stroke:none;fill:black;font-family:sans-serif;font-size:13;font-weight:bold;" transform="matrix(1 0 0 1 1289 1953)">Exporting</text>
  <text style="stroke:none;fill:black;font-family:sans-serif;font-size:13;" transform="matrix(1 0 0 1 1289 1971)">Symbols should be outlined when exporting to ensure the</text>
  <text style="stroke:none;fill:black;font-family:sans-serif;font-size:13;" transform="matrix(1 0 0 1 1289 1989)">design is preserved when submitting to Xcode.</text>
  <text id="template-version" style="stroke:none;fill:black;font-family:sans-serif;font-size:13;text-anchor:end;" transform="matrix(1 0 0 1 3036 1933)">Template v.3.0</text>
  <text style="stroke:none;fill:black;font-family:sans-serif;font-size:13;text-anchor:end;" transform="matrix(1 0 0 1 3036 1951)">Requires Xcode 13 or greater</text>
  <text id="descriptive-name" style="stroke:none;fill:black;font-family:sans-serif;font-size:13;text-anchor:end;" transform="matrix(1 0 0 1 3036 1969)">Generated from capslock.fill</text>
  <text style="stroke:none;fill:black;font-family:sans-serif;font-size:13;text-anchor:end;" transform="matrix(1 0 0 1 3036 1987)">Typeset at 100 points</text>
  <text style="stroke:none;fill:black;font-family:sans-serif;font-size:13;" transform="matrix(1 0 0 1 263 726)">Small</text>
  <text style="stroke:none;fill:black;font-family:sans-serif;font-size:13;" transform="matrix(1 0 0 1 263 1156)">Medium</text>
  <text style="stroke:none;fill:black;font-family:sans-serif;font-size:13;" transform="matrix(1 0 0 1 263 1586)">Large</text>
 </g>
 <g id="Guides">
  <g id="H-reference" style="fill:#27AAE1;stroke:none;" transform="matrix(1 0 0 1 339 696)">
   <path d="M0.976562 0L3.66211 0L29.3457-67.1387L30.0293-67.1387L30.0293-70.459L28.125-70.459ZM11.6699-24.4629L46.9727-24.4629L46.2402-26.709L12.4512-26.709ZM55.127 0L57.7637 0L30.6152-70.459L29.4434-70.459L29.4434-67.1387Z"/>
  </g>
  <line id="Baseline-S" style="fill:none;stroke:#27AAE1;opacity:1;stroke-width:0.5;" x1="263" x2="3036" y1="696" y2="696"/>
  <line id="Capline-S" style="fill:none;stroke:#27AAE1;opacity:1;stroke-width:0.5;" x1="263" x2="3036" y1="625.541" y2="625.541"/>
  <g id="H-reference" style="fill:#27AAE1;stroke:none;" transform="matrix(1 0 0 1 339 1126)">
   <path d="M0.976562 0L3.66211 0L29.3457-67.1387L30.0293-67.1387L30.0293-70.459L28.125-70.459ZM11.6699-24.4629L46.9727-24.4629L46.2402-26.709L12.4512-26.709ZM55.127 0L57.7637 0L30.6152-70.459L29.4434-70.459L29.4434-67.1387Z"/>
  </g>
  <line id="Baseline-M" style="fill:none;stroke:#27AAE1;opacity:1;stroke-width:0.5;" x1="263" x2="3036" y1="1126" y2="1126"/>
  <line id="Capline-M" style="fill:none;stroke:#27AAE1;opacity:1;stroke-width:0.5;" x1="263" x2="3036" y1="1055.54" y2="1055.54"/>
  <g id="H-reference" style="fill:#27AAE1;stroke:none;" transform="matrix(1 0 0 1 339 1556)">
   <path d="M0.976562 0L3.66211 0L29.3457-67.1387L30.0293-67.1387L30.0293-70.459L28.125-70.459ZM11.6699-24.4629L46.9727-24.4629L46.2402-26.709L12.4512-26.709ZM55.127 0L57.7637 0L30.6152-70.459L29.4434-70.459L29.4434-67.1387Z"/>
  </g>
  <line id="Baseline-L" style="fill:none;stroke:#27AAE1;opacity:1;stroke-width:0.5;" x1="263" x2="3036" y1="1556" y2="1556"/>
  <line id="Capline-L" style="fill:none;stroke:#27AAE1;opacity:1;stroke-width:0.5;" x1="263" x2="3036" y1="1485.54" y2="1485.54"/>
  <line id="left-margin-Ultralight-S" style="fill:none;stroke:#00AEEF;stroke-width:0.5;opacity:1.0;" x1="512.763" x2="512.763" y1="600.785" y2="720.121"/>
  <line id="right-margin-Ultralight-S" style="fill:none;stroke:#00AEEF;stroke-width:0.5;opacity:1.0;" x1="606.659" x2="606.659" y1="600.785" y2="720.121"/>
  <line id="left-margin-Thin-S" style="fill:none;stroke:#00AEEF;stroke-width:0.5;opacity:1.0;" x1="809.181" x2="809.181" y1="600.785" y2="720.121"/>
  <line id="right-margin-Thin-S" style="fill:none;stroke:#00AEEF;stroke-width:0.5;opacity:1.0;" x1="903.663" x2="903.663" y1="600.785" y2="720.121"/>
  <line id="left-margin-Light-S" style="fill:none;stroke:#00AEEF;stroke-width:0.5;opacity:1.0;" x1="1105.31" x2="1105.31" y1="600.785" y2="720.121"/>
  <line id="right-margin-Light-S" style="fill:none;stroke:#00AEEF;stroke-width:0.5;opacity:1.0;" x1="1200.96" x2="1200.96" y1="600.785" y2="720.121"/>
  <line id="left-margin-Regular-S" style="fill:none;stroke:#00AEEF;stroke-width:0.5;opacity:1.0;" x1="1401.58" x2="1401.58" y1="600.785" y2="720.121"/>
  <line id="right-margin-Regular-S" style="fill:none;stroke:#00AEEF;stroke-width:0.5;opacity:1.0;" x1="1498.11" x2="1498.11" y1="600.785" y2="720.121"/>
  <line id="left-margin-Medium-S" style="fill:none;stroke:#00AEEF;stroke-width:0.5;opacity:1.0;" x1="1697.75" x2="1697.75" y1="600.785" y2="720.121"/>
  <line id="right-margin-Medium-S" style="fill:none;stroke:#00AEEF;stroke-width:0.5;opacity:1.0;" x1="1795.36" x2="1795.36" y1="600.785" y2="720.121"/>
  <line id="left-margin-Semibold-S" style="fill:none;stroke:#00AEEF;stroke-width:0.5;opacity:1.0;" x1="1994.05" x2="1994.05" y1="600.785" y2="720.121"/>
  <line id="right-margin-Semibold-S" style="fill:none;stroke:#00AEEF;stroke-width:0.5;opacity:1.0;" x1="2092.49" x2="2092.49" y1="600.785" y2="720.121"/>
  <line id="left-margin-Bold-S" style="fill:none;stroke:#00AEEF;stroke-width:0.5;opacity:1.0;" x1="2290.2" x2="2290.2" y1="600.785" y2="720.121"/>
  <line id="right-margin-Bold-S" style="fill:none;stroke:#00AEEF;stroke-width:0.5;opacity:1.0;" x1="2389.76" x2="2389.76" y1="600.785" y2="720.121"/>
  <line id="left-margin-Heavy-S" style="fill:none;stroke:#00AEEF;stroke-width:0.5;opacity:1.0;" x1="2586.13" x2="2586.13" y1="600.785" y2="720.121"/>
  <line id="right-margin-Heavy-S" style="fill:none;stroke:#00AEEF;stroke-width:0.5;opacity:1.0;" x1="2687.25" x2="2687.25" y1="600.785" y2="720.121"/>
  <line id="left-margin-Black-S" style="fill:none;stroke:#00AEEF;stroke-width:0.5;opacity:1.0;" x1="2882.13" x2="2882.13" y1="600.785" y2="720.121"/>
  <line id="right-margin-Black-S" style="fill:none;stroke:#00AEEF;stroke-width:0.5;opacity:1.0;" x1="2984.67" x2="2984.67" y1="600.785" y2="720.121"/>
  <line id="left-margin-Ultralight-M" style="fill:none;stroke:#00AEEF;stroke-width:0.5;opacity:1.0;" x1="499.897" x2="499.897" y1="1030.79" y2="1150.12"/>
  <line id="right-margin-Ultralight-M" style="fill:none;stroke:#00AEEF;stroke-width:0.5;opacity:1.0;" x1="619.526" x2="619.526" y1="1030.79" y2="1150.12"/>
  <line id="left-margin-Thin-M" style="fill:none;stroke:#00AEEF;stroke-width:0.5;opacity:1.0;" x1="796.29" x2="796.29" y1="1030.79" y2="1150.12"/>
  <line id="right-margin-Thin-M" style="fill:none;stroke:#00AEEF;stroke-width:0.5;opacity:1.0;" x1="916.554" x2="916.554" y1="1030.79" y2="1150.12"/>
  <line id="left-margin-Light-M" style="fill:none;stroke:#00AEEF;stroke-width:0.5;opacity:1.0;" x1="1092.34" x2="1092.34" y1="1030.79" y2="1150.12"/>
  <line id="right-margin-Light-M" style="fill:none;stroke:#00AEEF;stroke-width:0.5;opacity:1.0;" x1="1213.92" x2="1213.92" y1="1030.79" y2="1150.12"/>
  <line id="left-margin-Regular-M" style="fill:none;stroke:#00AEEF;stroke-width:0.5;opacity:1.0;" x1="1388.57" x2="1388.57" y1="1030.79" y2="1150.12"/>
  <line id="right-margin-Regular-M" style="fill:none;stroke:#00AEEF;stroke-width:0.5;opacity:1.0;" x1="1511.12" x2="1511.12" y1="1030.79" y2="1150.12"/>
  <line id="left-margin-Medium-M" style="fill:none;stroke:#00AEEF;stroke-width:0.5;opacity:1.0;" x1="1684.59" x2="1684.59" y1="1030.79" y2="1150.12"/>
  <line id="right-margin-Medium-M" style="fill:none;stroke:#00AEEF;stroke-width:0.5;opacity:1.0;" x1="1808.52" x2="1808.52" y1="1030.79" y2="1150.12"/>
  <line id="left-margin-Semibold-M" style="fill:none;stroke:#00AEEF;stroke-width:0.5;opacity:1.0;" x1="1980.77" x2="1980.77" y1="1030.79" y2="1150.12"/>
  <line id="right-margin-Semibold-M" style="fill:none;stroke:#00AEEF;stroke-width:0.5;opacity:1.0;" x1="2105.77" x2="2105.77" y1="1030.79" y2="1150.12"/>
  <line id="left-margin-Bold-M" style="fill:none;stroke:#00AEEF;stroke-width:0.5;opacity:1.0;" x1="2276.77" x2="2276.77" y1="1030.79" y2="1150.12"/>
  <line id="right-margin-Bold-M" style="fill:none;stroke:#00AEEF;stroke-width:0.5;opacity:1.0;" x1="2403.19" x2="2403.19" y1="1030.79" y2="1150.12"/>
  <line id="left-margin-Heavy-M" style="fill:none;stroke:#00AEEF;stroke-width:0.5;opacity:1.0;" x1="2572.48" x2="2572.48" y1="1030.79" y2="1150.12"/>
  <line id="right-margin-Heavy-M" style="fill:none;stroke:#00AEEF;stroke-width:0.5;opacity:1.0;" x1="2700.9" x2="2700.9" y1="1030.79" y2="1150.12"/>
  <line id="left-margin-Black-M" style="fill:none;stroke:#00AEEF;stroke-width:0.5;opacity:1.0;" x1="2868.29" x2="2868.29" y1="1030.79" y2="1150.12"/>
  <line id="right-margin-Black-M" style="fill:none;stroke:#00AEEF;stroke-width:0.5;opacity:1.0;" x1="2998.51" x2="2998.51" y1="1030.79" y2="1150.12"/>
  <line id="left-margin-Ultralight-L" style="fill:none;stroke:#00AEEF;stroke-width:0.5;opacity:1.0;" x1="482.66" x2="482.66" y1="1460.79" y2="1580.12"/>
  <line id="right-margin-Ultralight-L" style="fill:none;stroke:#00AEEF;stroke-width:0.5;opacity:1.0;" x1="636.762" x2="636.762" y1="1460.79" y2="1580.12"/>
  <line id="left-margin-Thin-L" style="fill:none;stroke:#00AEEF;stroke-width:0.5;opacity:1.0;" x1="779.005" x2="779.005" y1="1460.79" y2="1580.12"/>
  <line id="right-margin-Thin-L" style="fill:none;stroke:#00AEEF;stroke-width:0.5;opacity:1.0;" x1="933.839" x2="933.839" y1="1460.79" y2="1580.12"/>
  <line id="left-margin-Light-L" style="fill:none;stroke:#00AEEF;stroke-width:0.5;opacity:1.0;" x1="1074.98" x2="1074.98" y1="1460.79" y2="1580.12"/>
  <line id="right-margin-Light-L" style="fill:none;stroke:#00AEEF;stroke-width:0.5;opacity:1.0;" x1="1231.28" x2="1231.28" y1="1460.79" y2="1580.12"/>
  <line id="left-margin-Regular-L" style="fill:none;stroke:#00AEEF;stroke-width:0.5;opacity:1.0;" x1="1371.13" x2="1371.13" y1="1460.79" y2="1580.12"/>
  <line id="right-margin-Regular-L" style="fill:none;stroke:#00AEEF;stroke-width:0.5;opacity:1.0;" x1="1528.56" x2="1528.56" y1="1460.79" y2="1580.12"/>
  <line id="left-margin-Medium-L" style="fill:none;stroke:#00AEEF;stroke-width:0.5;opacity:1.0;" x1="1667.04" x2="1667.04" y1="1460.79" y2="1580.12"/>
  <line id="right-margin-Medium-L" style="fill:none;stroke:#00AEEF;stroke-width:0.5;opacity:1.0;" x1="1826.07" x2="1826.07" y1="1460.79" y2="1580.12"/>
  <line id="left-margin-Semibold-L" style="fill:none;stroke:#00AEEF;stroke-width:0.5;opacity:1.0;" x1="1963.14" x2="1963.14" y1="1460.79" y2="1580.12"/>
  <line id="right-margin-Semibold-L" style="fill:none;stroke:#00AEEF;stroke-width:0.5;opacity:1.0;" x1="2123.39" x2="2123.39" y1="1460.79" y2="1580.12"/>
  <line id="left-margin-Bold-L" style="fill:none;stroke:#00AEEF;stroke-width:0.5;opacity:1.0;" x1="2259.05" x2="2259.05" y1="1460.79" y2="1580.12"/>
  <line id="right-margin-Bold-L" style="fill:none;stroke:#00AEEF;stroke-width:0.5;opacity:1.0;" x1="2420.91" x2="2420.91" y1="1460.79" y2="1580.12"/>
  <line id="left-margin-Heavy-L" style="fill:none;stroke:#00AEEF;stroke-width:0.5;opacity:1.0;" x1="2554.58" x2="2554.58" y1="1460.79" y2="1580.12"/>
  <line id="right-margin-Heavy-L" style="fill:none;stroke:#00AEEF;stroke-width:0.5;opacity:1.0;" x1="2718.79" x2="2718.79" y1="1460.79" y2="1580.12"/>
  <line id="left-margin-Black-L" style="fill:none;stroke:#00AEEF;stroke-width:0.5;opacity:1.0;" x1="2850.25" x2="2850.25" y1="1460.79" y2="1580.12"/>
  <line id="right-margin-Black-L" style="fill:none;stroke:#00AEEF;stroke-width:0.5;opacity:1.0;" x1="3016.55" x2="3016.55" y1="1460.79" y2="1580.12"/>
 </g>
 <g id="Symbols">
  <g id="Black-L" transform="matrix(1 0 0 1 2850.25 1556)">
   <path d="M55.127-8.20312L111.182-8.20312Q117.334-8.20312 120.63-11.4502Q123.926-14.6973 123.926-20.752L123.926-30.4688L141.699-30.4688Q146.631-30.4688 150.024-33.252Q153.418-36.0352 153.418-40.5273Q153.418-43.0176 152.148-45.5566Q150.879-48.0957 148.34-50.1953L95.2148-95.0684Q91.5039-98.1445 88.8184-99.3652Q86.1328-100.586 83.1543-100.586Q80.1758-100.586 77.4658-99.3652Q74.7559-98.1445 71.0938-95.0684L17.9199-50.1953Q15.3809-48.0469 14.1357-45.5322Q12.8906-43.0176 12.8906-40.5273Q12.8906-36.0352 16.2842-33.252Q19.6777-30.4688 24.6094-30.4688L42.3828-30.4688L42.3828-20.752Q42.3828-14.6973 45.6787-11.4502Q48.9746-8.20312 55.127-8.20312ZM54.8828 39.7949L111.377 39.7949Q117.285 39.7949 120.605 36.5479Q123.926 33.3008 123.926 27.4902L123.926 13.9648Q123.926 8.1543 120.605 4.90723Q117.285 1.66016 111.377 1.66016L54.8828 1.66016Q49.0234 1.66016 45.7031 4.90723Q42.3828 8.1543 42.3828 13.9648L42.3828 27.4902Q42.3828 33.3008 45.7031 36.5479Q49.0234 39.7949 54.8828 39.7949Z"/>
  </g>
  <g id="Heavy-L" transform="matrix(1 0 0 1 2554.58 1556)">
   <path d="M55.3223-8.25195L108.887-8.25195Q114.795-8.25195 117.896-11.3037Q120.996-14.3555 120.996-20.166L120.996-31.1035L140.381-31.1035Q144.971-31.1035 148.145-33.6914Q151.318-36.2793 151.318-40.4785Q151.318-42.8223 150.122-45.166Q148.926-47.5098 146.533-49.5117L93.0664-95.1172Q89.7461-97.9004 87.3047-99.0723Q84.8633-100.244 82.1289-100.244Q79.3457-100.244 76.8799-99.0723Q74.4141-97.9004 71.1426-95.1172L17.627-49.5117Q15.2344-47.4609 14.0625-45.1416Q12.8906-42.8223 12.8906-40.4785Q12.8906-36.2793 16.0645-33.6914Q19.2383-31.1035 23.8281-31.1035L43.2129-31.1035L43.2129-20.166Q43.2129-14.3555 46.3135-11.3037Q49.4141-8.25195 55.3223-8.25195ZM55.0293 37.4512L109.18 37.4512Q114.746 37.4512 117.871 34.3994Q120.996 31.3477 120.996 25.8301L120.996 13.3301Q120.996 7.86133 117.871 4.80957Q114.746 1.75781 109.18 1.75781L55.0293 1.75781Q49.4629 1.75781 46.3379 4.80957Q43.2129 7.86133 43.2129 13.3301L43.2129 25.8301Q43.2129 31.3477 46.3379 34.3994Q49.4629 37.4512 55.0293 37.4512Z"/>
  </g>
  <g id="Bold-L" transform="matrix(1 0 0 1 2259.05 1556)">
   <path d="M55.5176-8.34961L106.348-8.34961Q111.914-8.34961 114.795-11.1816Q117.676-14.0137 117.676-19.5312L117.676-31.8359L138.965-31.8359Q143.164-31.8359 146.069-34.2041Q148.975-36.5723 148.975-40.4297Q148.975-42.6758 147.852-44.7754Q146.729-46.875 144.531-48.7305L90.7227-95.2148Q87.8418-97.6562 85.6201-98.7549Q83.3984-99.8535 80.957-99.8535Q78.4668-99.8535 76.2451-98.7549Q74.0234-97.6562 71.1914-95.2148L17.334-48.7305Q15.0879-46.7773 13.9893-44.7266Q12.8906-42.6758 12.8906-40.4297Q12.8906-36.5723 15.7959-34.2041Q18.7012-31.8359 22.9492-31.8359L44.1895-31.8359L44.1895-19.5312Q44.1895-14.0137 47.0703-11.1816Q49.9512-8.34961 55.5176-8.34961ZM55.1758 34.8633L106.689 34.8633Q111.865 34.8633 114.771 32.0068Q117.676 29.1504 117.676 24.0234L117.676 12.6953Q117.676 7.56836 114.771 4.71191Q111.865 1.85547 106.689 1.85547L55.1758 1.85547Q50 1.85547 47.0947 4.71191Q44.1895 7.56836 44.1895 12.6953L44.1895 24.0234Q44.1895 29.1504 47.0947 32.0068Q50 34.8633 55.1758 34.8633Z"/>
  </g>
  <g id="Semibold-L" transform="matrix(1 0 0 1 1963.14 1556)">
   <path d="M55.6641-8.34961L104.59-8.34961Q109.961-8.34961 112.671-11.0596Q115.381-13.7695 115.381-19.0918L115.381-32.3242L137.939-32.3242Q141.895-32.3242 144.629-34.5215Q147.363-36.7188 147.363-40.3809Q147.363-42.5293 146.289-44.458Q145.215-46.3867 143.115-48.1934L89.0625-95.2148Q86.4746-97.4609 84.4482-98.5352Q82.4219-99.6094 80.127-99.6094Q77.832-99.6094 75.8057-98.5352Q73.7793-97.4609 71.1914-95.2148L17.1387-48.1445Q14.9902-46.3379 13.9404-44.4336Q12.8906-42.5293 12.8906-40.3809Q12.8906-36.7188 15.625-34.5215Q18.3594-32.3242 22.3145-32.3242L44.8242-32.3242L44.8242-19.0918Q44.8242-13.7695 47.5586-11.0596Q50.293-8.34961 55.6641-8.34961ZM55.2734 33.0566L104.98 33.0566Q109.912 33.0566 112.646 30.3467Q115.381 27.6367 115.381 22.7539L115.381 12.207Q115.381 7.37305 112.646 4.63867Q109.912 1.9043 104.98 1.9043L55.2734 1.9043Q50.3418 1.9043 47.583 4.63867Q44.8242 7.37305 44.8242 12.207L44.8242 22.7539Q44.8242 27.6367 47.583 30.3467Q50.3418 33.0566 55.2734 33.0566Z"/>
  </g>
  <g id="Medium-L" transform="matrix(1 0 0 1 1667.04 1556)">
   <path d="M55.7617-8.39844L103.271-8.39844Q108.447-8.39844 111.06-10.9863Q113.672-13.5742 113.672-18.75L113.672-32.666L137.158-32.666Q140.967-32.666 143.555-34.7656Q146.143-36.8652 146.143-40.332Q146.143-42.4316 145.117-44.2383Q144.092-46.0449 142.041-47.8027L87.793-95.2637Q85.4492-97.3145 83.5449-98.3398Q81.6406-99.3652 79.4922-99.3652Q77.3926-99.3652 75.4639-98.3398Q73.5352-97.3145 71.1914-95.2637L16.9434-47.7539Q14.8926-45.9473 13.8916-44.1895Q12.8906-42.4316 12.8906-40.332Q12.8906-36.8652 15.4785-34.7656Q18.0664-32.666 21.8262-32.666L45.3613-32.666L45.3613-18.75Q45.3613-13.5742 47.9736-10.9863Q50.5859-8.39844 55.7617-8.39844ZM55.3223 31.6895L103.711 31.6895Q108.398 31.6895 111.035 29.1016Q113.672 26.5137 113.672 21.8262L113.672 11.8652Q113.672 7.17773 111.035 4.56543Q108.398 1.95312 103.711 1.95312L55.3223 1.95312Q50.6348 1.95312 47.998 4.56543Q45.3613 7.17773 45.3613 11.8652L45.3613 21.8262Q45.3613 26.5137 47.998 29.1016Q50.6348 31.6895 55.3223 31.6895Z"/>
  </g>
  <g id="Regular-L" transform="matrix(1 0 0 1 1371.13 1556)">
   <path d="M55.9082-8.44727L101.514-8.44727Q106.494-8.44727 108.96-10.8887Q111.426-13.3301 111.426-18.3105L111.426-33.1543L136.182-33.1543Q139.697-33.1543 142.114-35.1074Q144.531-37.0605 144.531-40.2832Q144.531-42.2852 143.555-43.9453Q142.578-45.6055 140.674-47.2656L86.1816-95.3125Q84.1309-97.1191 82.3975-98.1201Q80.6641-99.1211 78.7109-99.1211Q76.7578-99.1211 75.0244-98.1201Q73.291-97.1191 71.2402-95.3125L16.748-47.2168Q14.7949-45.5078 13.8428-43.8965Q12.8906-42.2852 12.8906-40.2832Q12.8906-37.0605 15.3076-35.1074Q17.7246-33.1543 21.2402-33.1543L45.9961-33.1543L45.9961-18.3105Q45.9961-13.3301 48.4619-10.8887Q50.9277-8.44727 55.9082-8.44727ZM55.4199 29.9316L102.002 29.9316Q106.445 29.9316 108.936 27.4658Q111.426 25 111.426 20.5566L111.426 11.377Q111.426 6.98242 108.936 4.49219Q106.445 2.00195 102.002 2.00195L55.4199 2.00195Q50.9766 2.00195 48.4863 4.49219Q45.9961 6.98242 45.9961 11.377L45.9961 20.5566Q45.9961 25 48.4863 27.4658Q50.9766 29.9316 55.4199 29.9316Z"/>
  </g>
  <g id="Light-L" transform="matrix(1 0 0 1 1074.98 1556)">
   <path d="M54.7363-8.34961L101.611-8.34961Q106.006-8.34961 108.252-10.5957Q110.498-12.8418 110.498-17.2363L110.498-33.252L136.523-33.252Q139.453-33.252 141.431-34.8877Q143.408-36.5234 143.408-39.2578Q143.408-40.918 142.627-42.3584Q141.846-43.7988 140.234-45.166L85.2051-93.7012Q82.959-95.6543 81.3965-96.5576Q79.834-97.4609 78.1738-97.4609Q76.4648-97.4609 74.9023-96.5576Q73.3398-95.6543 71.0938-93.7012L16.0645-45.166Q14.4531-43.7012 13.6719-42.3096Q12.8906-40.918 12.8906-39.2578Q12.8906-36.5234 14.8682-34.8877Q16.8457-33.252 19.8242-33.252L45.8008-33.252L45.8008-17.2363Q45.8008-12.8418 48.0469-10.5957Q50.293-8.34961 54.7363-8.34961ZM54.3945 27.6855L101.904 27.6855Q105.957 27.6855 108.228 25.4395Q110.498 23.1934 110.498 19.1406L110.498 10.6445Q110.498 6.5918 108.228 4.3457Q105.957 2.09961 101.904 2.09961L54.3945 2.09961Q50.3418 2.09961 48.0713 4.3457Q45.8008 6.5918 45.8008 10.6445L45.8008 19.1406Q45.8008 23.1934 48.0713 25.4395Q50.3418 27.6855 54.3945 27.6855Z"/>
  </g>
  <g id="Thin-L" transform="matrix(1 0 0 1 779.005 1556)">
   <path d="M53.125-8.25195L101.709-8.25195Q105.371-8.25195 107.349-10.2295Q109.326-12.207 109.326-15.7715L109.326-33.3496L136.963-33.3496Q139.16-33.3496 140.552-34.5947Q141.943-35.8398 141.943-37.8906Q141.943-39.1602 141.382-40.2832Q140.82-41.4062 139.6-42.4316L83.9355-91.5527Q81.4453-93.75 80.1025-94.5312Q78.7598-95.3125 77.3926-95.3125Q76.0742-95.3125 74.7314-94.5312Q73.3887-93.75 70.9473-91.5527L15.1855-42.4316Q14.0137-41.3574 13.4521-40.2588Q12.8906-39.1602 12.8906-37.8906Q12.8906-35.8398 14.2822-34.5947Q15.6738-33.3496 17.9199-33.3496L45.5566-33.3496L45.5566-15.7715Q45.5566-12.207 47.5098-10.2295Q49.4629-8.25195 53.125-8.25195ZM53.0762 24.707L101.807 24.707Q105.371 24.707 107.349 22.7539Q109.326 20.8008 109.326 17.2363L109.326 9.61914Q109.326 6.10352 107.349 4.15039Q105.371 2.19727 101.807 2.19727L53.0762 2.19727Q49.5117 2.19727 47.5342 4.15039Q45.5566 6.10352 45.5566 9.61914L45.5566 17.2363Q45.5566 20.8008 47.5342 22.7539Q49.5117 24.707 53.0762 24.707Z"/>
  </g>
  <g id="Ultralight-L" transform="matrix(1 0 0 1 482.66 1556)">
   <path d="M52.3438-8.20312L101.807-8.20312Q105.029-8.20312 106.86-10.0342Q108.691-11.8652 108.691-15.0391L108.691-33.4473L137.158-33.4473Q139.014-33.4473 140.112-34.4482Q141.211-35.4492 141.211-37.207Q141.211-38.2324 140.771-39.1846Q140.332-40.1367 139.307-41.0156L83.252-90.4297Q80.6641-92.7734 79.4434-93.4814Q78.2227-94.1895 77.0508-94.1895Q75.8301-94.1895 74.6338-93.4814Q73.4375-92.7734 70.8496-90.4297L14.7461-41.0645Q13.8184-40.1367 13.3545-39.1846Q12.8906-38.2324 12.8906-37.207Q12.8906-35.4492 13.9648-34.4482Q15.0391-33.4473 16.9434-33.4473L45.4102-33.4473L45.4102-15.0391Q45.4102-11.8652 47.2412-10.0342Q49.0723-8.20312 52.3438-8.20312ZM52.3926 23.1445L101.709 23.1445Q105.029 23.1445 106.86 21.3379Q108.691 19.5312 108.691 16.3086L108.691 9.13086Q108.691 5.85938 106.86 4.05273Q105.029 2.24609 101.709 2.24609L52.3926 2.24609Q49.0723 2.24609 47.2412 4.05273Q45.4102 5.85938 45.4102 9.13086L45.4102 16.3086Q45.4102 19.5312 47.2412 21.3379Q49.0723 23.1445 52.3926 23.1445Z"/>
  </g>
  <g id="Black-M" transform="matrix(1 0 0 1 2868.29 1126)">
   <path d="M42.1387-14.209L88.0859-14.209Q92.9199-14.209 95.5811-16.7969Q98.2422-19.3848 98.2422-24.1211L98.2422-31.0059L110.986-31.0059Q114.941-31.0059 117.603-33.252Q120.264-35.498 120.264-39.0137Q120.264-40.918 119.312-42.9932Q118.359-45.0684 116.357-46.7285L75.2441-81.0059Q71.9727-83.6914 69.751-84.6436Q67.5293-85.5957 65.1367-85.5957Q62.6953-85.5957 60.4736-84.6436Q58.252-83.6914 54.9805-81.0059L13.8672-46.7285Q11.8652-45.0684 10.9131-42.9932Q9.96094-40.918 9.96094-39.0137Q9.96094-35.498 12.6221-33.252Q15.2832-31.0059 19.2383-31.0059L32.0312-31.0059L32.0312-24.1211Q32.0312-19.3848 34.668-16.7969Q37.3047-14.209 42.1387-14.209ZM42.0898 24.1699L88.1348 24.1699Q92.9199 24.1699 95.5811 21.5576Q98.2422 18.9453 98.2422 14.3066L98.2422 3.125Q98.2422-1.51367 95.5811-4.10156Q92.9199-6.68945 88.1348-6.68945L42.0898-6.68945Q37.3535-6.68945 34.6924-4.10156Q32.0312-1.51367 32.0312 3.125L32.0312 14.3066Q32.0312 18.9453 34.6924 21.5576Q37.3535 24.1699 42.0898 24.1699Z"/>
  </g>
  <g id="Heavy-M" transform="matrix(1 0 0 1 2572.48 1126)">
   <path d="M42.5781-14.2578L85.8398-14.2578Q90.5273-14.2578 93.042-16.7236Q95.5566-19.1895 95.5566-23.7793L95.5566-31.6406L109.668-31.6406Q113.379-31.6406 115.918-33.7402Q118.457-35.8398 118.457-39.209Q118.457-41.0645 117.529-42.9688Q116.602-44.873 114.697-46.4844L73.3887-81.3965Q70.5078-83.7891 68.4814-84.6924Q66.4551-85.5957 64.209-85.5957Q61.9629-85.5957 59.9365-84.6924Q57.9102-83.7891 55.0293-81.3965L13.7207-46.4844Q11.8164-44.873 10.8887-42.9688Q9.96094-41.0645 9.96094-39.209Q9.96094-35.8398 12.5-33.7402Q15.0391-31.6406 18.75-31.6406L32.9102-31.6406L32.9102-23.7793Q32.9102-19.1895 35.4004-16.7236Q37.8906-14.2578 42.5781-14.2578ZM42.4316 22.3633L85.9863 22.3633Q90.5273 22.3633 93.042 19.8975Q95.5566 17.4316 95.5566 13.0371L95.5566 2.68555Q95.5566-1.70898 93.042-4.1748Q90.5273-6.64062 85.9863-6.64062L42.4316-6.64062Q37.9395-6.64062 35.4248-4.1748Q32.9102-1.70898 32.9102 2.68555L32.9102 13.0371Q32.9102 17.4316 35.4248 19.8975Q37.9395 22.3633 42.4316 22.3633Z"/>
  </g>
  <g id="Bold-M" transform="matrix(1 0 0 1 2276.77 1126)">
   <path d="M43.0664-14.3555L83.3496-14.3555Q87.8418-14.3555 90.1855-16.6748Q92.5293-18.9941 92.5293-23.4375L92.5293-32.3242L108.154-32.3242Q111.67-32.3242 114.062-34.2773Q116.455-36.2305 116.455-39.4043Q116.455-41.2109 115.552-42.9688Q114.648-44.7266 112.793-46.2402L71.2891-81.8848Q68.8965-83.8867 67.0654-84.7656Q65.2344-85.6445 63.2324-85.6445Q61.1816-85.6445 59.3506-84.7656Q57.5195-83.8867 55.127-81.8848L13.623-46.2402Q11.7676-44.6289 10.8643-42.9199Q9.96094-41.2109 9.96094-39.4043Q9.96094-36.2305 12.3535-34.2773Q14.7461-32.3242 18.2617-32.3242L33.8867-32.3242L33.8867-23.4375Q33.8867-18.9941 36.2305-16.6748Q38.5742-14.3555 43.0664-14.3555ZM42.8223 20.3613L83.5938 20.3613Q87.8418 20.3613 90.1855 18.042Q92.5293 15.7227 92.5293 11.5723L92.5293 2.24609Q92.5293-1.9043 90.1855-4.22363Q87.8418-6.54297 83.5938-6.54297L42.8223-6.54297Q38.623-6.54297 36.2549-4.22363Q33.8867-1.9043 33.8867 2.24609L33.8867 11.5723Q33.8867 15.7227 36.2549 18.042Q38.623 20.3613 42.8223 20.3613Z"/>
  </g>
  <g id="Semibold-M" transform="matrix(1 0 0 1 1980.77 1126)">
   <path d="M43.4082-14.4043L81.5918-14.4043Q85.9863-14.4043 88.208-16.6016Q90.4297-18.7988 90.4297-23.1934L90.4297-32.7637L107.129-32.7637Q110.449-32.7637 112.744-34.6191Q115.039-36.4746 115.039-39.502Q115.039-41.3086 114.16-42.9443Q113.281-44.5801 111.475-46.0449L69.873-82.1777Q67.7734-83.9355 66.0889-84.79Q64.4043-85.6445 62.5-85.6445Q60.6445-85.6445 58.9355-84.79Q57.2266-83.9355 55.127-82.1777L13.4766-46.0449Q11.7188-44.4824 10.8398-42.8955Q9.96094-41.3086 9.96094-39.502Q9.96094-36.4746 12.2559-34.6191Q14.5508-32.7637 17.8711-32.7637L34.5703-32.7637L34.5703-23.1934Q34.5703-18.7988 36.792-16.6016Q39.0137-14.4043 43.4082-14.4043ZM43.0664 18.9941L81.9336 18.9941Q85.9375 18.9941 88.1836 16.748Q90.4297 14.502 90.4297 10.5957L90.4297 1.9043Q90.4297-2.05078 88.1836-4.27246Q85.9375-6.49414 81.9336-6.49414L43.0664-6.49414Q39.0625-6.49414 36.8164-4.27246Q34.5703-2.05078 34.5703 1.9043L34.5703 10.5957Q34.5703 14.502 36.8164 16.748Q39.0625 18.9941 43.0664 18.9941Z"/>
  </g>
  <g id="Medium-M" transform="matrix(1 0 0 1 1684.59 1126)">
   <path d="M43.6523-14.4531L80.2734-14.4531Q84.5703-14.4531 86.7188-16.5771Q88.8672-18.7012 88.8672-22.998L88.8672-33.1055L106.348-33.1055Q109.521-33.1055 111.743-34.8877Q113.965-36.6699 113.965-39.5996Q113.965-41.3574 113.11-42.9199Q112.256-44.4824 110.498-45.9473L68.75-82.4219Q66.9434-83.9844 65.3564-84.8145Q63.7695-85.6445 61.9629-85.6445Q60.2051-85.6445 58.6182-84.8145Q57.0312-83.9844 55.1758-82.4219L13.4277-45.8984Q11.6699-44.3359 10.8154-42.8467Q9.96094-41.3574 9.96094-39.5996Q9.96094-36.6699 12.1826-34.8877Q14.4043-33.1055 17.5781-33.1055L35.0586-33.1055L35.0586-22.998Q35.0586-18.7012 37.207-16.5771Q39.3555-14.4531 43.6523-14.4531ZM43.2617 17.9199L80.6641 17.9199Q84.5703 17.9199 86.7188 15.7715Q88.8672 13.623 88.8672 9.81445L88.8672 1.66016Q88.8672-2.14844 86.7188-4.29688Q84.5703-6.44531 80.6641-6.44531L43.2617-6.44531Q39.4043-6.44531 37.2314-4.29688Q35.0586-2.14844 35.0586 1.66016L35.0586 9.81445Q35.0586 13.623 37.2314 15.7715Q39.4043 17.9199 43.2617 17.9199Z"/>
  </g>
  <g id="Regular-M" transform="matrix(1 0 0 1 1388.57 1126)">
   <path d="M43.9941-14.502L78.5645-14.502Q82.7637-14.502 84.79-16.5283Q86.8164-18.5547 86.8164-22.7539L86.8164-33.5938L105.322-33.5938Q108.35-33.5938 110.474-35.2539Q112.598-36.9141 112.598-39.7461Q112.598-41.4551 111.743-42.8955Q110.889-44.3359 109.229-45.752L67.334-82.7148Q65.8203-84.0332 64.3799-84.8389Q62.9395-85.6445 61.2793-85.6445Q59.668-85.6445 58.2031-84.8389Q56.7383-84.0332 55.2246-82.7148L13.3301-45.7031Q11.6211-44.1895 10.791-42.8223Q9.96094-41.4551 9.96094-39.7461Q9.96094-36.9141 12.085-35.2539Q14.209-33.5938 17.2363-33.5938L35.7422-33.5938L35.7422-22.7539Q35.7422-18.5547 37.7686-16.5283Q39.7949-14.502 43.9941-14.502ZM43.5059 16.5527L79.0527 16.5527Q82.7148 16.5527 84.7656 14.502Q86.8164 12.4512 86.8164 8.83789L86.8164 1.31836Q86.8164-2.29492 84.7656-4.3457Q82.7148-6.39648 79.0527-6.39648L43.5059-6.39648Q39.8438-6.39648 37.793-4.3457Q35.7422-2.29492 35.7422 1.31836L35.7422 8.83789Q35.7422 12.4512 37.793 14.502Q39.8438 16.5527 43.5059 16.5527Z"/>
  </g>
  <g id="Light-M" transform="matrix(1 0 0 1 1092.34 1126)">
   <path d="M42.9199-14.4531L78.6621-14.4531Q82.3242-14.4531 84.1797-16.2842Q86.0352-18.1152 86.0352-21.7773L86.0352-33.6914L105.615-33.6914Q108.154-33.6914 109.888-35.083Q111.621-36.4746 111.621-38.8184Q111.621-40.2344 110.913-41.4795Q110.205-42.7246 108.838-43.8965L66.4551-81.25Q64.7949-82.7148 63.501-83.4473Q62.207-84.1797 60.791-84.1797Q59.375-84.1797 58.0811-83.4473Q56.7871-82.7148 55.127-81.25L12.7441-43.8477Q11.3281-42.5781 10.6445-41.4062Q9.96094-40.2344 9.96094-38.8184Q9.96094-36.4746 11.6943-35.083Q13.4277-33.6914 15.9668-33.6914L35.5469-33.6914L35.5469-21.7773Q35.5469-18.1152 37.4023-16.2842Q39.2578-14.4531 42.9199-14.4531ZM42.5781 14.5508L78.9551 14.5508Q82.3242 14.5508 84.1797 12.6953Q86.0352 10.8398 86.0352 7.56836L86.0352 0.634766Q86.0352-2.63672 84.1797-4.49219Q82.3242-6.34766 78.9551-6.34766L42.5781-6.34766Q39.2578-6.34766 37.4023-4.49219Q35.5469-2.63672 35.5469 0.634766L35.5469 7.56836Q35.5469 10.8398 37.4023 12.6953Q39.2578 14.5508 42.5781 14.5508Z"/>
  </g>
  <g id="Thin-M" transform="matrix(1 0 0 1 796.29 1126)">
   <path d="M41.5039-14.3555L78.7598-14.3555Q81.7383-14.3555 83.3496-15.9424Q84.9609-17.5293 84.9609-20.459L84.9609-33.7891L106.006-33.7891Q107.91-33.7891 109.106-34.8145Q110.303-35.8398 110.303-37.5977Q110.303-38.623 109.814-39.5752Q109.326-40.5273 108.301-41.4062L65.2832-79.3457Q63.4277-81.0059 62.3291-81.6162Q61.2305-82.2266 60.1074-82.2266Q58.9844-82.2266 57.9102-81.6162Q56.8359-81.0059 54.9805-79.3457L11.9629-41.4062Q10.9375-40.4785 10.4492-39.5508Q9.96094-38.623 9.96094-37.5977Q9.96094-35.8398 11.1572-34.8145Q12.3535-33.7891 14.2578-33.7891L35.3027-33.7891L35.3027-20.459Q35.3027-17.5293 36.8896-15.9424Q38.4766-14.3555 41.5039-14.3555ZM41.4062 11.8652L78.8574 11.8652Q81.7871 11.8652 83.374 10.2783Q84.9609 8.69141 84.9609 5.85938L84.9609-0.244141Q84.9609-3.07617 83.374-4.66309Q81.7871-6.25 78.8574-6.25L41.4062-6.25Q38.5254-6.25 36.9141-4.66309Q35.3027-3.07617 35.3027-0.244141L35.3027 5.85938Q35.3027 8.69141 36.9141 10.2783Q38.5254 11.8652 41.4062 11.8652Z"/>
  </g>
  <g id="Ultralight-M" transform="matrix(1 0 0 1 499.897 1126)">
   <path d="M40.7715-14.3066L78.8574-14.3066Q81.4453-14.3066 82.9346-15.7715Q84.4238-17.2363 84.4238-19.8242L84.4238-33.8379L106.201-33.8379Q107.764-33.8379 108.716-34.6924Q109.668-35.5469 109.668-36.9629Q109.668-37.8418 109.253-38.6475Q108.838-39.4531 108.057-40.1367L64.6973-78.3691Q62.7441-80.127 61.7432-80.6885Q60.7422-81.25 59.7656-81.25Q58.7891-81.25 57.8369-80.6885Q56.8848-80.127 54.8828-78.3691L11.5723-40.1855Q10.6934-39.4043 10.3271-38.623Q9.96094-37.8418 9.96094-36.9629Q9.96094-35.5469 10.8887-34.6924Q11.8164-33.8379 13.3789-33.8379L35.2051-33.8379L35.2051-19.8242Q35.2051-17.2363 36.6699-15.7715Q38.1348-14.3066 40.7715-14.3066ZM40.7715 10.498L78.8086 10.498Q81.4941 10.498 82.959 9.0332Q84.4238 7.56836 84.4238 4.98047L84.4238-0.732422Q84.4238-3.27148 82.959-4.73633Q81.4941-6.20117 78.8086-6.20117L40.7715-6.20117Q38.1348-6.20117 36.6699-4.73633Q35.2051-3.27148 35.2051-0.732422L35.2051 4.98047Q35.2051 7.56836 36.6699 9.0332Q38.1348 10.498 40.7715 10.498Z"/>
  </g>
  <g id="Black-S" transform="matrix(1 0 0 1 2882.13 696)">
   <path d="M32.8125-18.75L69.7266-18.75Q73.4863-18.75 75.6104-20.8008Q77.7344-22.8516 77.7344-26.5625L77.7344-31.7383L87.4023-31.7383Q90.5273-31.7383 92.627-33.5205Q94.7266-35.3027 94.7266-38.0859Q94.7266-39.5996 93.9697-41.2598Q93.2129-42.9199 91.6504-44.1895L59.4727-70.8984Q56.7871-73.0957 55.0049-73.8525Q53.2227-74.6094 51.2695-74.6094Q49.3164-74.6094 47.5342-73.8525Q45.752-73.0957 43.0664-70.8984L10.8887-44.1895Q9.32617-42.9199 8.56934-41.2598Q7.8125-39.5996 7.8125-38.0859Q7.8125-35.3027 9.91211-33.5205Q12.0117-31.7383 15.1367-31.7383L24.8047-31.7383L24.8047-26.5625Q24.8047-22.8516 26.9287-20.8008Q29.0527-18.75 32.8125-18.75ZM32.8125 11.7188L69.7266 11.7188Q73.4863 11.7188 75.6104 9.66797Q77.7344 7.61719 77.7344 3.90625L77.7344-5.07812Q77.7344-8.78906 75.6104-10.8398Q73.4863-12.8906 69.7266-12.8906L32.8125-12.8906Q29.0527-12.8906 26.9287-10.8398Q24.8047-8.78906 24.8047-5.07812L24.8047 3.90625Q24.8047 7.61719 26.9287 9.66797Q29.0527 11.7188 32.8125 11.7188Z"/>
  </g>
  <g id="Heavy-S" transform="matrix(1 0 0 1 2586.13 696)">
   <path d="M33.3496-18.7988L67.7734-18.7988Q71.4844-18.7988 73.5107-20.7764Q75.5371-22.7539 75.5371-26.416L75.5371-32.2266L86.2305-32.2266Q89.209-32.2266 91.2598-33.9355Q93.3105-35.6445 93.3105-38.3301Q93.3105-39.8438 92.5537-41.4062Q91.7969-42.9688 90.2832-44.2383L58.0078-71.4355Q55.6641-73.3398 54.0283-74.0723Q52.3926-74.8047 50.5371-74.8047Q48.7305-74.8047 47.0947-74.0723Q45.459-73.3398 43.1152-71.4355L10.8398-44.2383Q9.32617-42.9199 8.56934-41.3818Q7.8125-39.8438 7.8125-38.3301Q7.8125-35.6445 9.86328-33.9355Q11.9141-32.2266 14.8926-32.2266L25.5859-32.2266L25.5859-26.416Q25.5859-22.7539 27.6123-20.7764Q29.6387-18.7988 33.3496-18.7988ZM33.2031 10.4492L67.9199 10.4492Q71.4844 10.4492 73.5107 8.47168Q75.5371 6.49414 75.5371 2.97852L75.5371-5.37109Q75.5371-8.88672 73.5107-10.8643Q71.4844-12.8418 67.9199-12.8418L33.2031-12.8418Q29.6387-12.8418 27.6123-10.8643Q25.5859-8.88672 25.5859-5.37109L25.5859 2.97852Q25.5859 6.49414 27.6123 8.47168Q29.6387 10.4492 33.2031 10.4492Z"/>
  </g>
  <g id="Bold-S" transform="matrix(1 0 0 1 2290.2 696)">
   <path d="M33.9355-18.8965L65.625-18.8965Q69.2871-18.8965 71.1914-20.752Q73.0957-22.6074 73.0957-26.2695L73.0957-32.8125L84.9121-32.8125Q87.793-32.8125 89.7705-34.4482Q91.748-36.084 91.748-38.6719Q91.748-40.1855 90.9912-41.626Q90.2344-43.0664 88.7207-44.2871L56.3477-72.0215Q54.4434-73.584 52.9541-74.3164Q51.4648-75.0488 49.7559-75.0488Q48.0957-75.0488 46.6064-74.3164Q45.1172-73.584 43.2129-72.0215L10.8398-44.2871Q9.32617-42.9688 8.56934-41.5771Q7.8125-40.1855 7.8125-38.6719Q7.8125-36.084 9.79004-34.4482Q11.7676-32.8125 14.6484-32.8125L26.4648-32.8125L26.4648-26.2695Q26.4648-22.6074 28.3691-20.752Q30.2734-18.8965 33.9355-18.8965ZM33.6914 9.0332L65.8691 9.0332Q69.2871 9.0332 71.1914 7.15332Q73.0957 5.27344 73.0957 1.9043L73.0957-5.66406Q73.0957-9.0332 71.1914-10.9131Q69.2871-12.793 65.8691-12.793L33.6914-12.793Q30.2734-12.793 28.3691-10.9131Q26.4648-9.0332 26.4648-5.66406L26.4648 1.9043Q26.4648 5.27344 28.3691 7.15332Q30.2734 9.0332 33.6914 9.0332Z"/>
  </g>
  <g id="Semibold-S" transform="matrix(1 0 0 1 1994.05 696)">
   <path d="M34.3262-18.9453L64.1113-18.9453Q67.7734-18.9453 69.5801-20.7275Q71.3867-22.5098 71.3867-26.123L71.3867-33.2031L83.9844-33.2031Q86.7676-33.2031 88.6963-34.7656Q90.625-36.3281 90.625-38.8672Q90.625-40.3809 89.8682-41.7236Q89.1113-43.0664 87.6465-44.3359L55.1758-72.4121Q53.5645-73.7793 52.1729-74.4873Q50.7812-75.1953 49.2188-75.1953Q47.6562-75.1953 46.2646-74.4873Q44.873-73.7793 43.2617-72.4121L10.791-44.2871Q9.27734-42.9688 8.54492-41.6748Q7.8125-40.3809 7.8125-38.8672Q7.8125-36.3281 9.74121-34.7656Q11.6699-33.2031 14.4531-33.2031L27.0508-33.2031L27.0508-26.123Q27.0508-22.5098 28.8574-20.7275Q30.6641-18.9453 34.3262-18.9453ZM33.9844 8.05664L64.4531 8.05664Q67.7246 8.05664 69.5557 6.25Q71.3867 4.44336 71.3867 1.17188L71.3867-5.85938Q71.3867-9.13086 69.5557-10.9375Q67.7246-12.7441 64.4531-12.7441L33.9844-12.7441Q30.7129-12.7441 28.8818-10.9375Q27.0508-9.13086 27.0508-5.85938L27.0508 1.17188Q27.0508 4.44336 28.8818 6.25Q30.7129 8.05664 33.9844 8.05664Z"/>
  </g>
  <g id="Medium-S" transform="matrix(1 0 0 1 1697.75 696)">
   <path d="M34.6191-18.9941L62.9883-18.9941Q66.6016-18.9941 68.335-20.7275Q70.0684-22.4609 70.0684-26.0254L70.0684-33.4961L83.3008-33.4961Q85.9863-33.4961 87.8906-35.0098Q89.7949-36.5234 89.7949-39.0137Q89.7949-40.5273 89.0381-41.8213Q88.2812-43.1152 86.8652-44.3359L54.2969-72.7051Q52.8809-73.877 51.5869-74.585Q50.293-75.293 48.7793-75.293Q47.3145-75.293 46.0205-74.585Q44.7266-73.877 43.3105-72.7051L10.791-44.2871Q9.27734-43.0176 8.54492-41.7725Q7.8125-40.5273 7.8125-39.0137Q7.8125-36.5234 9.7168-35.0098Q11.6211-33.4961 14.3555-33.4961L27.4902-33.4961L27.4902-26.0254Q27.4902-22.4609 29.248-20.7275Q31.0059-18.9941 34.6191-18.9941ZM34.2285 7.32422L63.3789 7.32422Q66.5527 7.32422 68.3105 5.54199Q70.0684 3.75977 70.0684 0.634766L70.0684-6.05469Q70.0684-9.17969 68.3105-10.9619Q66.5527-12.7441 63.3789-12.7441L34.2285-12.7441Q31.0547-12.7441 29.2725-10.9619Q27.4902-9.17969 27.4902-6.05469L27.4902 0.634766Q27.4902 3.75977 29.2725 5.54199Q31.0547 7.32422 34.2285 7.32422Z"/>
  </g>
  <g id="Regular-S" transform="matrix(1 0 0 1 1401.58 696)">
   <path d="M35.0098-19.043L61.5234-19.043Q65.0879-19.043 66.748-20.7031Q68.4082-22.3633 68.4082-25.9277L68.4082-33.8867L82.373-33.8867Q85.0098-33.8867 86.8652-35.3516Q88.7207-36.8164 88.7207-39.209Q88.7207-40.7227 87.9639-41.9434Q87.207-43.1641 85.791-44.3848L53.1738-73.0957Q52.0508-74.0723 50.8545-74.7559Q49.6582-75.4395 48.2422-75.4395Q46.875-75.4395 45.6787-74.7559Q44.4824-74.0723 43.3594-73.0957L10.7422-44.3359Q9.27734-43.0176 8.54492-41.8701Q7.8125-40.7227 7.8125-39.209Q7.8125-36.8164 9.66797-35.3516Q11.5234-33.8867 14.1602-33.8867L28.0762-33.8867L28.0762-25.9277Q28.0762-22.3633 29.7607-20.7031Q31.4453-19.043 35.0098-19.043ZM34.5215 6.34766L62.0117 6.34766Q65.0391 6.34766 66.7236 4.63867Q68.4082 2.92969 68.4082-0.0976562L68.4082-6.25Q68.4082-9.27734 66.7236-10.9863Q65.0391-12.6953 62.0117-12.6953L34.5215-12.6953Q31.4941-12.6953 29.7852-10.9863Q28.0762-9.27734 28.0762-6.25L28.0762-0.0976562Q28.0762 2.92969 29.7852 4.63867Q31.4941 6.34766 34.5215 6.34766Z"/>
  </g>
  <g id="Light-S" transform="matrix(1 0 0 1 1105.31 696)">
   <path d="M34.0332-18.9941L61.6211-18.9941Q64.6973-18.9941 66.1865-20.4834Q67.6758-21.9727 67.6758-25.0488L67.6758-33.9844L82.6172-33.9844Q84.8145-33.9844 86.3281-35.1807Q87.8418-36.377 87.8418-38.3789Q87.8418-39.6484 87.2314-40.6738Q86.6211-41.6992 85.4492-42.7246L52.3926-71.8262Q51.123-72.9004 50.0732-73.5107Q49.0234-74.1211 47.8027-74.1211Q46.6309-74.1211 45.5811-73.5107Q44.5312-72.9004 43.2617-71.8262L10.2051-42.7246Q8.98438-41.6016 8.39844-40.625Q7.8125-39.6484 7.8125-38.3789Q7.8125-36.377 9.30176-35.1807Q10.791-33.9844 12.9883-33.9844L27.9297-33.9844L27.9297-25.0488Q27.9297-21.9727 29.4434-20.4834Q30.957-18.9941 34.0332-18.9941ZM33.7402 4.54102L61.9141 4.54102Q64.6484 4.54102 66.1621 3.02734Q67.6758 1.51367 67.6758-1.2207L67.6758-6.83594Q67.6758-9.57031 66.1621-11.1084Q64.6484-12.6465 61.9141-12.6465L33.7402-12.6465Q31.0059-12.6465 29.4678-11.1084Q27.9297-9.57031 27.9297-6.83594L27.9297-1.2207Q27.9297 1.51367 29.4678 3.02734Q31.0059 4.54102 33.7402 4.54102Z"/>
  </g>
  <g id="Thin-S" transform="matrix(1 0 0 1 809.181 696)">
   <path d="M32.8125-18.8965L61.7188-18.8965Q64.1602-18.8965 65.4541-20.166Q66.748-21.4355 66.748-23.9258L66.748-34.082L82.959-34.082Q84.5703-34.082 85.6201-34.9609Q86.6699-35.8398 86.6699-37.3047Q86.6699-38.2324 86.2549-39.0137Q85.8398-39.7949 84.9609-40.5762L51.3672-70.166Q49.9512-71.3867 49.0723-71.8994Q48.1934-72.4121 47.2168-72.4121Q46.2891-72.4121 45.4102-71.8994Q44.5312-71.3867 43.1152-70.166L9.52148-40.5273Q8.64258-39.7461 8.22754-38.9893Q7.8125-38.2324 7.8125-37.3047Q7.8125-35.8398 8.83789-34.9609Q9.86328-34.082 11.4746-34.082L27.7344-34.082L27.7344-23.9258Q27.7344-21.4355 29.0283-20.166Q30.3223-18.8965 32.8125-18.8965ZM32.666 2.14844L61.8164 2.14844Q64.1602 2.14844 65.4541 0.878906Q66.748-0.390625 66.748-2.73438L66.748-7.66602Q66.748-9.96094 65.4541-11.2549Q64.1602-12.5488 61.8164-12.5488L32.666-12.5488Q30.3223-12.5488 29.0283-11.2549Q27.7344-9.96094 27.7344-7.66602L27.7344-2.73438Q27.7344-0.390625 29.0283 0.878906Q30.3223 2.14844 32.666 2.14844Z"/>
  </g>
  <g id="Ultralight-S" transform="matrix(1 0 0 1 512.763 696)">
   <path d="M32.1289-18.8477L61.7676-18.8477Q63.916-18.8477 65.0879-20.0195Q66.2598-21.1914 66.2598-23.3398L66.2598-34.1309L83.1543-34.1309Q84.4727-34.1309 85.2783-34.8389Q86.084-35.5469 86.084-36.7676Q86.084-37.5 85.7666-38.1592Q85.4492-38.8184 84.7168-39.4531L50.8789-69.2871Q49.3164-70.6055 48.5352-71.0693Q47.7539-71.5332 46.9238-71.5332Q46.1426-71.5332 45.3613-71.0693Q44.5801-70.6055 43.0176-69.2871L9.13086-39.4531Q8.44727-38.8184 8.12988-38.1592Q7.8125-37.5 7.8125-36.7676Q7.8125-35.5469 8.59375-34.8389Q9.375-34.1309 10.6934-34.1309L27.6367-34.1309L27.6367-23.3398Q27.6367-21.1914 28.8086-20.0195Q29.9805-18.8477 32.1289-18.8477ZM32.1289 0.927734L61.7676 0.927734Q63.916 0.927734 65.0879-0.219727Q66.2598-1.36719 66.2598-3.51562L66.2598-8.05664Q66.2598-10.1562 65.0879-11.3281Q63.916-12.5 61.7676-12.5L32.1289-12.5Q29.9805-12.5 28.8086-11.3281Q27.6367-10.1562 27.6367-8.05664L27.6367-3.51562Q27.6367-1.36719 28.8086-0.219727Q29.9805 0.927734 32.1289 0.927734Z"/>
  </g>
 </g>
</svg>
