<?xml version="1.0" encoding="UTF-8"?>
<!--Generator: Apple Native CoreSVG 149-->
<!DOCTYPE svg
PUBLIC "-//W3C//DTD SVG 1.1//EN"
       "http://www.w3.org/Graphics/SVG/1.1/DTD/svg11.dtd">
<svg version="1.1" xmlns="http://www.w3.org/2000/svg" xmlns:xlink="http://www.w3.org/1999/xlink" width="3300" height="2200">
 <!--glyph: "uni1001A2.medium", point size: 100.000000, font version: "Version 16.0d18e1", template writer version: "8"-->
 <g id="Notes">
  <rect height="2200" id="artboard" style="fill:white;opacity:1" width="3300" x="0" y="0"/>
  <line id="" style="fill:none;stroke:black;opacity:1;stroke-width:0.5;" x1="263" x2="3036" y1="292" y2="292"/>
  <text style="stroke:none;fill:black;font-family:-apple-system,&quot;SF Pro Display&quot;,&quot;SF Pro Text&quot;,Helvetica,sans-serif;font-weight:bold;" transform="matrix(1 0 0 1 263 322)">Weight/Scale Variations</text>
  <text style="stroke:none;fill:black;font-family:-apple-system,&quot;SF Pro Display&quot;,&quot;SF Pro Text&quot;,Helvetica,sans-serif;text-anchor:middle;" transform="matrix(1 0 0 1 559.711 322)">Ultralight</text>
  <text style="stroke:none;fill:black;font-family:-apple-system,&quot;SF Pro Display&quot;,&quot;SF Pro Text&quot;,Helvetica,sans-serif;text-anchor:middle;" transform="matrix(1 0 0 1 856.422 322)">Thin</text>
  <text style="stroke:none;fill:black;font-family:-apple-system,&quot;SF Pro Display&quot;,&quot;SF Pro Text&quot;,Helvetica,sans-serif;text-anchor:middle;" transform="matrix(1 0 0 1 1153.13 322)">Light</text>
  <text style="stroke:none;fill:black;font-family:-apple-system,&quot;SF Pro Display&quot;,&quot;SF Pro Text&quot;,Helvetica,sans-serif;text-anchor:middle;" transform="matrix(1 0 0 1 1449.84 322)">Regular</text>
  <text style="stroke:none;fill:black;font-family:-apple-system,&quot;SF Pro Display&quot;,&quot;SF Pro Text&quot;,Helvetica,sans-serif;text-anchor:middle;" transform="matrix(1 0 0 1 1746.56 322)">Medium</text>
  <text style="stroke:none;fill:black;font-family:-apple-system,&quot;SF Pro Display&quot;,&quot;SF Pro Text&quot;,Helvetica,sans-serif;text-anchor:middle;" transform="matrix(1 0 0 1 2043.27 322)">Semibold</text>
  <text style="stroke:none;fill:black;font-family:-apple-system,&quot;SF Pro Display&quot;,&quot;SF Pro Text&quot;,Helvetica,sans-serif;text-anchor:middle;" transform="matrix(1 0 0 1 2339.98 322)">Bold</text>
  <text style="stroke:none;fill:black;font-family:-apple-system,&quot;SF Pro Display&quot;,&quot;SF Pro Text&quot;,Helvetica,sans-serif;text-anchor:middle;" transform="matrix(1 0 0 1 2636.69 322)">Heavy</text>
  <text style="stroke:none;fill:black;font-family:-apple-system,&quot;SF Pro Display&quot;,&quot;SF Pro Text&quot;,Helvetica,sans-serif;text-anchor:middle;" transform="matrix(1 0 0 1 2933.4 322)">Black</text>
  <line id="" style="fill:none;stroke:black;opacity:1;stroke-width:0.5;" x1="263" x2="3036" y1="1903" y2="1903"/>
  <g id="" transform="matrix(1 0 0 1 263 1933)">
   <path d="M9.24805 0.830078C13.5547 0.830078 17.1387-2.74414 17.1387-7.05078C17.1387-11.3574 13.5449-14.9316 9.23828-14.9316C4.94141-14.9316 1.36719-11.3574 1.36719-7.05078C1.36719-2.74414 4.95117 0.830078 9.24805 0.830078ZM9.24805-0.654297C5.70312-0.654297 2.87109-3.49609 2.87109-7.05078C2.87109-10.6055 5.69336-13.4473 9.23828-13.4473C12.793-13.4473 15.6348-10.6055 15.6445-7.05078C15.6543-3.49609 12.8027-0.654297 9.24805-0.654297ZM6.39648-6.31836L8.50586-6.31836L8.50586-4.19922C8.50586-3.75977 8.79883-3.45703 9.22852-3.45703C9.67773-3.45703 9.9707-3.75977 9.9707-4.19922L9.9707-6.31836L12.0996-6.31836C12.5391-6.31836 12.8418-6.61133 12.8418-7.04102C12.8418-7.48047 12.5391-7.7832 12.0996-7.7832L9.9707-7.7832L9.9707-9.89258C9.9707-10.3418 9.67773-10.6445 9.22852-10.6445C8.79883-10.6445 8.50586-10.3418 8.50586-9.89258L8.50586-7.7832L6.39648-7.7832C5.94727-7.7832 5.64453-7.48047 5.64453-7.04102C5.64453-6.61133 5.94727-6.31836 6.39648-6.31836Z"/>
  </g>
  <g id="" transform="matrix(1 0 0 1 281.506 1933)">
   <path d="M11.709 2.91016C17.1582 2.91016 21.6699-1.61133 21.6699-7.05078C21.6699-12.5 17.1484-17.0117 11.6992-17.0117C6.25977-17.0117 1.74805-12.5 1.74805-7.05078C1.74805-1.61133 6.26953 2.91016 11.709 2.91016ZM11.709 1.25C7.09961 1.25 3.41797-2.44141 3.41797-7.05078C3.41797-11.6602 7.08984-15.3516 11.6992-15.3516C16.3086-15.3516 20-11.6602 20.0098-7.05078C20.0195-2.44141 16.3184 1.25 11.709 1.25ZM7.98828-6.23047L10.8789-6.23047L10.8789-3.32031C10.8789-2.83203 11.2109-2.5 11.6895-2.5C12.1777-2.5 12.5195-2.83203 12.5195-3.32031L12.5195-6.23047L15.4297-6.23047C15.918-6.23047 16.25-6.5625 16.25-7.04102C16.25-7.5293 15.918-7.87109 15.4297-7.87109L12.5195-7.87109L12.5195-10.7617C12.5195-11.2695 12.1777-11.6016 11.6895-11.6016C11.2109-11.6016 10.8789-11.2598 10.8789-10.7617L10.8789-7.87109L7.98828-7.87109C7.48047-7.87109 7.14844-7.5293 7.14844-7.04102C7.14844-6.5625 7.49023-6.23047 7.98828-6.23047Z"/>
  </g>
  <g id="" transform="matrix(1 0 0 1 304.924 1933)">
   <path d="M14.9707 5.66406C21.9336 5.66406 27.6953-0.0976562 27.6953-7.05078C27.6953-14.0137 21.9238-19.7754 14.9609-19.7754C8.00781-19.7754 2.25586-14.0137 2.25586-7.05078C2.25586-0.0976562 8.01758 5.66406 14.9707 5.66406ZM14.9707 3.84766C8.93555 3.84766 4.08203-1.01562 4.08203-7.05078C4.08203-13.0957 8.92578-17.9492 14.9609-17.9492C21.0059-17.9492 25.8594-13.0957 25.8691-7.05078C25.8789-1.01562 21.0156 3.84766 14.9707 3.84766ZM10.0586-6.14258L14.0625-6.14258L14.0625-2.12891C14.0625-1.5918 14.4336-1.2207 14.9512-1.2207C15.4883-1.2207 15.8594-1.5918 15.8594-2.12891L15.8594-6.14258L19.8828-6.14258C20.4102-6.14258 20.791-6.51367 20.791-7.03125C20.791-7.56836 20.4199-7.94922 19.8828-7.94922L15.8594-7.94922L15.8594-11.9531C15.8594-12.5098 15.4883-12.8809 14.9512-12.8809C14.4336-12.8809 14.0625-12.5 14.0625-11.9531L14.0625-7.94922L10.0586-7.94922C9.50195-7.94922 9.13086-7.56836 9.13086-7.03125C9.13086-6.51367 9.51172-6.14258 10.0586-6.14258Z"/>
  </g>
  <text style="stroke:none;fill:black;font-family:-apple-system,&quot;SF Pro Display&quot;,&quot;SF Pro Text&quot;,Helvetica,sans-serif;font-weight:bold;" transform="matrix(1 0 0 1 263 1953)">Design Variations</text>
  <text style="stroke:none;fill:black;font-family:-apple-system,&quot;SF Pro Display&quot;,&quot;SF Pro Text&quot;,Helvetica,sans-serif;" transform="matrix(1 0 0 1 263 1971)">Symbols are supported in up to nine weights and three scales.</text>
  <text style="stroke:none;fill:black;font-family:-apple-system,&quot;SF Pro Display&quot;,&quot;SF Pro Text&quot;,Helvetica,sans-serif;" transform="matrix(1 0 0 1 263 1989)">For optimal layout with text and other symbols, vertically align</text>
  <text style="stroke:none;fill:black;font-family:-apple-system,&quot;SF Pro Display&quot;,&quot;SF Pro Text&quot;,Helvetica,sans-serif;" transform="matrix(1 0 0 1 263 2007)">symbols with the adjacent text.</text>
  <line id="" style="fill:none;stroke:#00AEEF;stroke-width:0.5;opacity:1.0;" x1="776" x2="776" y1="1919" y2="1933"/>
  <g id="" transform="matrix(1 0 0 1 776 1933)">
   <path d="M3.31055 0.126953C3.82812 0.126953 4.08203-0.0683594 4.26758-0.605469L5.52734-4.0625L11.2891-4.0625L12.5488-0.605469C12.7344-0.0683594 12.9883 0.126953 13.4961 0.126953C14.0137 0.126953 14.3457-0.185547 14.3457-0.673828C14.3457-0.839844 14.3164-0.986328 14.2383-1.20117L9.6582-13.3887C9.43359-13.9941 9.0332-14.2871 8.4082-14.2871C7.80273-14.2871 7.39258-13.9941 7.17773-13.3984L2.59766-1.19141C2.51953-0.976562 2.49023-0.830078 2.49023-0.664062C2.49023-0.175781 2.80273 0.126953 3.31055 0.126953ZM6.00586-5.53711L8.37891-12.1094L8.42773-12.1094L10.8008-5.53711Z"/>
  </g>
  <line id="" style="fill:none;stroke:#00AEEF;stroke-width:0.5;opacity:1.0;" x1="792.836" x2="792.836" y1="1919" y2="1933"/>
  <text style="stroke:none;fill:black;font-family:-apple-system,&quot;SF Pro Display&quot;,&quot;SF Pro Text&quot;,Helvetica,sans-serif;font-weight:bold;" transform="matrix(1 0 0 1 776 1953)">Margins</text>
  <text style="stroke:none;fill:black;font-family:-apple-system,&quot;SF Pro Display&quot;,&quot;SF Pro Text&quot;,Helvetica,sans-serif;" transform="matrix(1 0 0 1 776 1971)">Leading and trailing margins on the left and right side of each symbol</text>
  <text style="stroke:none;fill:black;font-family:-apple-system,&quot;SF Pro Display&quot;,&quot;SF Pro Text&quot;,Helvetica,sans-serif;" transform="matrix(1 0 0 1 776 1989)">can be adjusted by modifying the x-location of the margin guidelines.</text>
  <text style="stroke:none;fill:black;font-family:-apple-system,&quot;SF Pro Display&quot;,&quot;SF Pro Text&quot;,Helvetica,sans-serif;" transform="matrix(1 0 0 1 776 2007)">Modifications are automatically applied proportionally to all</text>
  <text style="stroke:none;fill:black;font-family:-apple-system,&quot;SF Pro Display&quot;,&quot;SF Pro Text&quot;,Helvetica,sans-serif;" transform="matrix(1 0 0 1 776 2025)">scales and weights.</text>
  <g id="" transform="matrix(1 0 0 1 1289 1933)">
   <path d="M2.8418 1.86523L4.54102 3.57422C5.40039 4.44336 6.38672 4.38477 7.31445 3.35938L17.4902-7.85156C17.7539-7.76367 18.0273-7.7832 18.3398-7.8418L19.4043-8.03711L20.0684-7.36328L20.0293-6.80664C19.9902-6.30859 20.1172-5.92773 20.6055-5.44922L21.3672-4.70703C21.8457-4.22852 22.4609-4.19922 22.9297-4.66797L25.8398-7.58789C26.3086-8.05664 26.2891-8.65234 25.8105-9.13086L25.0391-9.89258C24.5605-10.3711 24.1895-10.5273 23.7109-10.4883L23.1348-10.4395L22.4902-11.0742L22.7344-12.1973C22.8613-12.7637 22.7051-13.2031 22.1191-13.7891L19.9219-15.9766C16.582-19.2969 12.1484-19.2188 9.25781-16.3281C8.83789-15.918 8.80859-15.3418 9.04297-14.9512C9.27734-14.5898 9.73633-14.3555 10.3809-14.5215C11.8457-14.8633 13.3691-14.9219 14.7949-13.9844L14.209-12.5293C14.0137-12.0508 13.9844-11.6504 14.1113-11.2891L3.04688-0.898438C2.06055 0.0195312 1.98242 0.996094 2.8418 1.86523ZM10.752-15.957C13.1836-17.7344 16.4746-17.4316 18.7012-15.2051L21.1328-12.793C21.3672-12.5586 21.4062-12.373 21.3379-12.0312L21.0156-10.5469L22.5195-9.0625L23.5059-9.12109C23.7598-9.13086 23.8379-9.11133 24.0332-8.91602L24.6094-8.33984L22.168-5.89844L21.5918-6.47461C21.3965-6.66992 21.3672-6.74805 21.377-7.01172L21.4453-7.98828L19.9512-9.47266L18.4277-9.21875C18.1055-9.15039 17.959-9.17969 17.7148-9.41406L15.7129-11.416C15.459-11.6504 15.4297-11.8164 15.5859-12.1875L16.4648-14.2773C14.9023-15.7324 12.8711-16.3574 10.8398-15.7617C10.6836-15.7227 10.625-15.8496 10.752-15.957ZM5.27344 2.30469L4.10156 1.14258C3.63281 0.683594 3.74023 0.341797 4.14062-0.0195312L14.9512-10.1953L16.416-8.71094L6.42578 2.27539C6.07422 2.67578 5.74219 2.77344 5.27344 2.30469Z"/>
  </g>
  <text style="stroke:none;fill:black;font-family:-apple-system,&quot;SF Pro Display&quot;,&quot;SF Pro Text&quot;,Helvetica,sans-serif;font-weight:bold;" transform="matrix(1 0 0 1 1289 1953)">Exporting</text>
  <text style="stroke:none;fill:black;font-family:-apple-system,&quot;SF Pro Display&quot;,&quot;SF Pro Text&quot;,Helvetica,sans-serif;" transform="matrix(1 0 0 1 1289 1971)">Symbols should be outlined when exporting to ensure the</text>
  <text style="stroke:none;fill:black;font-family:-apple-system,&quot;SF Pro Display&quot;,&quot;SF Pro Text&quot;,Helvetica,sans-serif;" transform="matrix(1 0 0 1 1289 1989)">design is preserved when submitting to Xcode.</text>
  <text id="template-version" style="stroke:none;fill:black;font-family:-apple-system,&quot;SF Pro Display&quot;,&quot;SF Pro Text&quot;,Helvetica,sans-serif;text-anchor:end;" transform="matrix(1 0 0 1 3036 1933)">Template v.2.0</text>
  <text style="stroke:none;fill:black;font-family:-apple-system,&quot;SF Pro Display&quot;,&quot;SF Pro Text&quot;,Helvetica,sans-serif;text-anchor:end;" transform="matrix(1 0 0 1 3036 1951)">Requires Xcode 12 or greater</text>
  <text style="stroke:none;fill:black;font-family:-apple-system,&quot;SF Pro Display&quot;,&quot;SF Pro Text&quot;,Helvetica,sans-serif;text-anchor:end;" transform="matrix(1 0 0 1 3036 1969)">Generated from capslock.fill</text>
  <text style="stroke:none;fill:black;font-family:-apple-system,&quot;SF Pro Display&quot;,&quot;SF Pro Text&quot;,Helvetica,sans-serif;text-anchor:end;" transform="matrix(1 0 0 1 3036 1987)">Typeset at 100 points</text>
  <text style="stroke:none;fill:black;font-family:-apple-system,&quot;SF Pro Display&quot;,&quot;SF Pro Text&quot;,Helvetica,sans-serif;" transform="matrix(1 0 0 1 263 726)">Small</text>
  <text style="stroke:none;fill:black;font-family:-apple-system,&quot;SF Pro Display&quot;,&quot;SF Pro Text&quot;,Helvetica,sans-serif;" transform="matrix(1 0 0 1 263 1156)">Medium</text>
  <text style="stroke:none;fill:black;font-family:-apple-system,&quot;SF Pro Display&quot;,&quot;SF Pro Text&quot;,Helvetica,sans-serif;" transform="matrix(1 0 0 1 263 1586)">Large</text>
 </g>
 <g id="Guides">
  <g id="H-reference" style="fill:#27AAE1;stroke:none;" transform="matrix(1 0 0 1 339 696)">
   <path d="M0.976562 0L3.66211 0L12.9883-24.4629L45.752-24.4629L55.127 0L57.7637 0L30.6152-70.459L28.125-70.459ZM29.3457-67.1387L29.4434-67.1387L44.873-26.709L13.8672-26.709Z"/>
  </g>
  <line id="Baseline-S" style="fill:none;stroke:#27AAE1;opacity:1;stroke-width:0.5;" x1="263" x2="3036" y1="696" y2="696"/>
  <line id="Capline-S" style="fill:none;stroke:#27AAE1;opacity:1;stroke-width:0.5;" x1="263" x2="3036" y1="625.541" y2="625.541"/>
  <g id="H-reference" style="fill:#27AAE1;stroke:none;" transform="matrix(1 0 0 1 339 1126)">
   <path d="M0.976562 0L3.66211 0L12.9883-24.4629L45.752-24.4629L55.127 0L57.7637 0L30.6152-70.459L28.125-70.459ZM29.3457-67.1387L29.4434-67.1387L44.873-26.709L13.8672-26.709Z"/>
  </g>
  <line id="Baseline-M" style="fill:none;stroke:#27AAE1;opacity:1;stroke-width:0.5;" x1="263" x2="3036" y1="1126" y2="1126"/>
  <line id="Capline-M" style="fill:none;stroke:#27AAE1;opacity:1;stroke-width:0.5;" x1="263" x2="3036" y1="1055.54" y2="1055.54"/>
  <g id="H-reference" style="fill:#27AAE1;stroke:none;" transform="matrix(1 0 0 1 339 1556)">
   <path d="M0.976562 0L3.66211 0L12.9883-24.4629L45.752-24.4629L55.127 0L57.7637 0L30.6152-70.459L28.125-70.459ZM29.3457-67.1387L29.4434-67.1387L44.873-26.709L13.8672-26.709Z"/>
  </g>
  <line id="Baseline-L" style="fill:none;stroke:#27AAE1;opacity:1;stroke-width:0.5;" x1="263" x2="3036" y1="1556" y2="1556"/>
  <line id="Capline-L" style="fill:none;stroke:#27AAE1;opacity:1;stroke-width:0.5;" x1="263" x2="3036" y1="1485.54" y2="1485.54"/>
  <line id="left-margin" style="fill:none;stroke:#00AEEF;stroke-width:0.5;opacity:1.0;" x1="1388.57" x2="1388.57" y1="1030.79" y2="1150.12"/>
  <line id="right-margin" style="fill:none;stroke:#00AEEF;stroke-width:0.5;opacity:1.0;" x1="1511.12" x2="1511.12" y1="1030.79" y2="1150.12"/>
 </g>
 <g id="Symbols">
  <g id="Black-L" transform="matrix(1 0 0 1 2850.25 1556)">
   <path d="M55.127-8.20312L111.182-8.20312C119.336-8.20312 123.926-12.6465 123.926-20.752L123.926-30.4688L141.699-30.4688C148.291-30.4688 153.418-34.5703 153.418-40.5273C153.418-43.8477 151.758-47.4121 148.34-50.1953L95.2148-95.0684C90.2832-99.1699 87.1094-100.586 83.1543-100.586C79.1992-100.586 76.0254-99.1699 71.0938-95.0684L17.9199-50.1953C14.502-47.3145 12.8906-43.8477 12.8906-40.5273C12.8906-34.5703 18.0176-30.4688 24.6094-30.4688L42.3828-30.4688L42.3828-20.752C42.3828-12.6465 46.9238-8.20312 55.127-8.20312ZM54.8828 39.7949L111.377 39.7949C119.238 39.7949 123.926 35.2539 123.926 27.4902L123.926 13.9648C123.926 6.20117 119.238 1.66016 111.377 1.66016L54.8828 1.66016C47.0215 1.66016 42.3828 6.20117 42.3828 13.9648L42.3828 27.4902C42.3828 35.2539 47.0215 39.7949 54.8828 39.7949Z"/>
  </g>
  <g id="Heavy-L" transform="matrix(1 0 0 1 2554.58 1556)">
   <path d="M55.3223-8.25195L108.887-8.25195C116.699-8.25195 120.947-12.4512 120.947-20.166L120.947-31.1035L140.381-31.1035C146.533-31.1035 151.318-34.9121 151.318-40.4785C151.318-43.6035 149.707-46.8262 146.533-49.5117L93.0664-95.1172C88.6719-98.8281 85.7422-100.244 82.0801-100.244C78.4668-100.244 75.5371-98.8281 71.0938-95.1172L17.6758-49.5117C14.4043-46.7773 12.8906-43.6035 12.8906-40.4785C12.8906-34.9121 17.6758-31.1035 23.8281-31.1035L43.2129-31.1035L43.2129-20.166C43.2129-12.4512 47.4609-8.25195 55.3223-8.25195ZM55.0293 37.5L109.18 37.5C116.553 37.5 120.947 33.2031 120.947 25.8789L120.947 13.3301C120.947 6.05469 116.553 1.75781 109.18 1.75781L55.0293 1.75781C47.6074 1.75781 43.2129 6.05469 43.2129 13.3301L43.2129 25.8789C43.2129 33.2031 47.6074 37.5 55.0293 37.5Z"/>
  </g>
  <g id="Bold-L" transform="matrix(1 0 0 1 2259.05 1556)">
   <path d="M55.5176-8.34961L106.348-8.34961C113.77-8.34961 117.676-12.1582 117.676-19.5312L117.676-31.7871L138.916-31.7871C144.58-31.7871 148.975-35.2539 148.975-40.3809C148.975-43.4082 147.461-46.2402 144.482-48.7305L90.7227-95.166C86.8652-98.4375 84.1797-99.8535 80.9082-99.8535C77.6367-99.8535 75-98.4375 71.1426-95.166L17.334-48.7305C14.3066-46.1426 12.8906-43.4082 12.8906-40.3809C12.8906-35.2539 17.2852-31.7871 22.9004-31.7871L44.1895-31.7871L44.1895-19.5312C44.1895-12.1582 48.0957-8.34961 55.5176-8.34961ZM55.1758 34.8633L106.689 34.8633C113.574 34.8633 117.676 30.8594 117.676 24.0234L117.676 12.6465C117.676 5.85938 113.574 1.80664 106.689 1.80664L55.1758 1.80664C48.291 1.80664 44.1895 5.85938 44.1895 12.6465L44.1895 24.0234C44.1895 30.8594 48.291 34.8633 55.1758 34.8633Z"/>
  </g>
  <g id="Semibold-L" transform="matrix(1 0 0 1 1963.14 1556)">
   <path d="M55.6641-8.39844L104.59-8.39844C111.719-8.39844 115.381-12.0117 115.381-19.0918L115.381-32.3242L137.939-32.3242C143.213-32.3242 147.363-35.5469 147.363-40.3809C147.363-43.2129 145.898-45.8008 143.115-48.1934L89.0625-95.2148C85.5957-98.1934 83.1543-99.5605 80.127-99.5605C77.0996-99.5605 74.6582-98.1934 71.1914-95.2148L17.1387-48.1934C14.2578-45.7031 12.8906-43.2129 12.8906-40.3809C12.8906-35.5469 16.9922-32.3242 22.3145-32.3242L44.873-32.3242L44.873-19.0918C44.873-12.0117 48.5352-8.39844 55.6641-8.39844ZM55.2734 33.1055L104.98 33.1055C111.523 33.1055 115.381 29.248 115.381 22.7539L115.381 12.207C115.381 5.71289 111.523 1.9043 104.98 1.9043L55.2734 1.9043C48.7305 1.9043 44.873 5.71289 44.873 12.207L44.873 22.7539C44.873 29.248 48.7305 33.1055 55.2734 33.1055Z"/>
  </g>
  <g id="Medium-L" transform="matrix(1 0 0 1 1667.04 1556)">
   <path d="M55.7617-8.39844L103.223-8.39844C110.205-8.39844 113.672-11.8652 113.672-18.75L113.672-32.666L137.158-32.666C142.236-32.666 146.143-35.6934 146.143-40.332C146.143-43.1152 144.727-45.459 142.041-47.8027L87.8418-95.2637C84.668-97.998 82.3242-99.3652 79.4922-99.3652C76.6602-99.3652 74.3652-97.998 71.1914-95.2637L16.9922-47.7539C14.209-45.3613 12.8906-43.1152 12.8906-40.332C12.8906-35.6934 16.7969-32.666 21.875-32.666L45.3613-32.666L45.3613-18.75C45.3613-11.8652 48.8281-8.39844 55.7617-8.39844ZM55.3223 31.7383L103.711 31.7383C109.961 31.7383 113.672 28.0273 113.672 21.8262L113.672 11.8652C113.672 5.61523 109.961 1.95312 103.711 1.95312L55.3223 1.95312C49.0723 1.95312 45.3613 5.61523 45.3613 11.8652L45.3613 21.8262C45.3613 28.0273 49.0723 31.7383 55.3223 31.7383Z"/>
  </g>
  <g id="Regular-L" transform="matrix(1 0 0 1 1371.13 1556)">
   <path d="M55.9082-8.44727L101.514-8.44727C108.154-8.44727 111.426-11.6699 111.426-18.3105L111.426-33.1543L136.182-33.1543C140.869-33.1543 144.531-35.9863 144.531-40.2832C144.531-42.9688 143.213-45.0684 140.674-47.2656L86.1816-95.3125C83.3984-97.7539 81.2988-99.1211 78.7109-99.1211C76.123-99.1211 74.0234-97.7539 71.2402-95.3125L16.748-47.2168C14.1113-44.9219 12.8906-42.9688 12.8906-40.2832C12.8906-35.9863 16.5527-33.1543 21.2402-33.1543L45.9961-33.1543L45.9961-18.3105C45.9961-11.6699 49.2676-8.44727 55.9082-8.44727ZM55.4199 29.9316L102.002 29.9316C107.91 29.9316 111.426 26.4648 111.426 20.5566L111.426 11.377C111.426 5.51758 107.91 2.00195 102.002 2.00195L55.4199 2.00195C49.5117 2.00195 45.9961 5.51758 45.9961 11.377L45.9961 20.5566C45.9961 26.4648 49.5117 29.9316 55.4199 29.9316Z"/>
  </g>
  <g id="Light-L" transform="matrix(1 0 0 1 1074.98 1556)">
   <path d="M54.6875-8.34961L101.611-8.34961C107.471-8.34961 110.498-11.377 110.498-17.2363L110.498-33.252L136.523-33.252C140.479-33.252 143.408-35.5957 143.408-39.2578C143.408-41.5039 142.334-43.3105 140.234-45.2148L85.2051-93.7012C82.2266-96.3379 80.4199-97.4609 78.1738-97.4609C75.9277-97.4609 74.0723-96.3379 71.0938-93.7012L16.1133-45.166C13.916-43.2129 12.8906-41.5039 12.8906-39.2578C12.8906-35.5957 15.8203-33.252 19.8242-33.252L45.8008-33.252L45.8008-17.2363C45.8008-11.377 48.8281-8.34961 54.6875-8.34961ZM54.3945 27.6855L101.904 27.6855C107.324 27.6855 110.498 24.5117 110.498 19.1406L110.498 10.6445C110.498 5.27344 107.324 2.09961 101.904 2.09961L54.3945 2.09961C48.9746 2.09961 45.8008 5.27344 45.8008 10.6445L45.8008 19.1406C45.8008 24.5117 48.9746 27.6855 54.3945 27.6855Z"/>
  </g>
  <g id="Thin-L" transform="matrix(1 0 0 1 779.005 1556)">
   <path d="M53.125-8.25195L101.709-8.25195C106.592-8.25195 109.326-10.9863 109.326-15.7715L109.326-33.3984L136.963-33.3984C139.941-33.3984 141.943-35.1562 141.943-37.8906C141.943-39.5508 141.211-41.0156 139.648-42.4316L83.9355-91.5527C80.6152-94.4824 79.248-95.2637 77.4414-95.2637C75.6348-95.2637 74.2188-94.4824 70.8984-91.5527L15.2344-42.4316C13.623-41.0156 12.8906-39.5508 12.8906-37.8906C12.8906-35.1562 14.8926-33.3984 17.9199-33.3984L45.5078-33.3984L45.5078-15.7715C45.5078-10.9863 48.2422-8.25195 53.125-8.25195ZM53.0762 24.707L101.807 24.707C106.543 24.707 109.326 21.9238 109.326 17.2363L109.326 9.61914C109.326 4.93164 106.543 2.19727 101.807 2.19727L53.0762 2.19727C48.291 2.19727 45.5078 4.93164 45.5078 9.61914L45.5078 17.2363C45.5078 21.9238 48.291 24.707 53.0762 24.707Z"/>
  </g>
  <g id="Ultralight-L" transform="matrix(1 0 0 1 482.66 1556)">
   <path d="M52.2949-8.20312L101.807-8.20312C106.104-8.20312 108.691-10.791 108.691-15.0391L108.691-33.4473L137.158-33.4473C139.648-33.4473 141.211-34.9121 141.211-37.207C141.211-38.5742 140.625-39.8438 139.307-41.0156L83.252-90.4785C79.7852-93.5059 78.6133-94.1406 77.0508-94.1406C75.4883-94.1406 74.2676-93.5059 70.8496-90.4785L14.7461-41.0156C13.4766-39.8438 12.8906-38.5742 12.8906-37.207C12.8906-34.9121 14.4531-33.4473 16.9434-33.4473L45.4102-33.4473L45.4102-15.0391C45.4102-10.791 47.998-8.20312 52.2949-8.20312ZM52.3438 23.1934L101.709 23.1934C106.152 23.1934 108.691 20.6543 108.691 16.3086L108.691 9.13086C108.691 4.78516 106.152 2.24609 101.709 2.24609L52.3438 2.24609C47.9492 2.24609 45.4102 4.78516 45.4102 9.13086L45.4102 16.3086C45.4102 20.6543 47.9492 23.1934 52.3438 23.1934Z"/>
  </g>
  <g id="Black-M" transform="matrix(1 0 0 1 2867.87 1126)">
   <path d="M41.7969-14.209L89.2578-14.209C95.6543-14.209 99.5117-17.8711 99.5117-24.1699L99.5117-30.7129L111.719-30.7129C117.041-30.7129 121.094-34.082 121.094-38.8184C121.094-41.4062 119.824-44.4824 117.139-46.6309L76.0742-80.6641C71.4844-84.4727 68.8477-85.4492 65.5273-85.4492C62.207-85.4492 59.5703-84.4727 54.9316-80.6641L13.8672-46.6309C11.2305-44.4824 9.96094-41.4062 9.96094-38.8184C9.96094-34.082 14.0137-30.7129 19.3359-30.7129L31.543-30.7129L31.543-24.1699C31.543-17.8711 35.3516-14.209 41.7969-14.209ZM41.7969 24.8535L89.209 24.8535C95.6543 24.8535 99.5117 21.1426 99.5117 14.8438L99.5117 3.27148C99.5117-3.02734 95.6543-6.73828 89.209-6.73828L41.7969-6.73828C35.3516-6.73828 31.543-3.02734 31.543 3.27148L31.543 14.8438C31.543 21.1426 35.3516 24.8535 41.7969 24.8535Z"/>
  </g>
  <g id="Heavy-M" transform="matrix(1 0 0 1 2572.16 1126)">
   <path d="M42.334-14.2578L86.7188-14.2578C92.9688-14.2578 96.4844-17.7246 96.4844-23.8281L96.4844-31.3965L110.205-31.3965C115.234-31.3965 119.092-34.5215 119.092-39.0625C119.092-41.5527 117.871-44.3359 115.283-46.4355L74.0234-81.1523C70.0195-84.4727 67.5781-85.498 64.502-85.498C61.4746-85.498 59.0332-84.4727 55.0293-81.1523L13.7695-46.4355C11.1816-44.2871 9.96094-41.5527 9.96094-39.0625C9.96094-34.5215 13.8184-31.3965 18.8477-31.3965L32.5195-31.3965L32.5195-23.8281C32.5195-17.7246 36.084-14.2578 42.334-14.2578ZM42.1875 22.9004L86.8164 22.9004C92.9199 22.9004 96.4844 19.3848 96.4844 13.4277L96.4844 2.83203C96.4844-3.125 92.9199-6.64062 86.8164-6.64062L42.1875-6.64062C36.1328-6.64062 32.5195-3.125 32.5195 2.83203L32.5195 13.4277C32.5195 19.3848 36.1328 22.9004 42.1875 22.9004Z"/>
  </g>
  <g id="Bold-M" transform="matrix(1 0 0 1 2276.57 1126)">
   <path d="M42.8711-14.3555L83.9355-14.3555C89.9414-14.3555 93.1641-17.5293 93.1641-23.4863L93.1641-32.1289L108.496-32.1289C113.184-32.1289 116.846-35.0586 116.846-39.3066C116.846-41.6992 115.625-44.1406 113.184-46.1914L71.7285-81.6895C68.4082-84.4727 66.1621-85.5469 63.3789-85.5469C60.6445-85.5469 58.3984-84.4727 55.0781-81.6895L13.623-46.1914C11.1328-44.0918 9.96094-41.6992 9.96094-39.3066C9.96094-35.0586 13.623-32.1289 18.3105-32.1289L33.6426-32.1289L33.6426-23.4863C33.6426-17.5293 36.8652-14.3555 42.8711-14.3555ZM42.6758 20.7031L84.1309 20.7031C89.7949 20.7031 93.1641 17.4316 93.1641 11.8164L93.1641 2.29492C93.1641-3.27148 89.7949-6.5918 84.1309-6.5918L42.6758-6.5918C37.0117-6.5918 33.6426-3.27148 33.6426 2.29492L33.6426 11.8164C33.6426 17.4316 37.0117 20.7031 42.6758 20.7031Z"/>
  </g>
  <g id="Semibold-M" transform="matrix(1 0 0 1 1980.64 1126)">
   <path d="M43.3105-14.4043L81.9824-14.4043C87.8418-14.4043 90.8691-17.3828 90.8691-23.1934L90.8691-32.666L107.324-32.666C111.816-32.666 115.283-35.4004 115.283-39.4531C115.283-41.8457 114.111-44.043 111.768-46.0449L70.1172-82.0801C67.2852-84.4727 65.1855-85.5957 62.6465-85.5957C60.0586-85.5957 58.0078-84.4727 55.127-82.0801L13.5254-45.9961C11.084-43.9453 9.96094-41.8457 9.96094-39.4531C9.96094-35.4004 13.4277-32.666 17.9199-32.666L34.4238-32.666L34.4238-23.1934C34.4238-17.3828 37.4023-14.4043 43.3105-14.4043ZM42.9688 19.1895L82.3242 19.1895C87.6953 19.1895 90.8691 16.0645 90.8691 10.7422L90.8691 1.95312C90.8691-3.36914 87.6953-6.49414 82.3242-6.49414L42.9688-6.49414C37.5977-6.49414 34.4238-3.36914 34.4238 1.95312L34.4238 10.7422C34.4238 16.0645 37.5977 19.1895 42.9688 19.1895Z"/>
  </g>
  <g id="Medium-M" transform="matrix(1 0 0 1 1684.52 1126)">
   <path d="M43.6035-14.4531L80.5176-14.4531C86.2305-14.4531 89.1113-17.2852 89.1113-22.998L89.1113-33.0566L106.445-33.0566C110.742-33.0566 114.111-35.6445 114.111-39.5996C114.111-41.9434 112.939-43.9453 110.645-45.8984L68.8965-82.3242C66.4062-84.4727 64.4531-85.6445 62.0605-85.6445C59.668-85.6445 57.666-84.4727 55.1758-82.3242L13.4277-45.8984C11.084-43.8477 9.96094-41.9434 9.96094-39.5996C9.96094-35.6445 13.3301-33.0566 17.627-33.0566L34.9609-33.0566L34.9609-22.998C34.9609-17.2852 37.8418-14.4531 43.6035-14.4531ZM43.2129 18.0664L80.9082 18.0664C86.0352 18.0664 89.1113 15.0391 89.1113 9.91211L89.1113 1.66016C89.1113-3.41797 86.0352-6.44531 80.9082-6.44531L43.2129-6.44531C38.0371-6.44531 34.9609-3.41797 34.9609 1.66016L34.9609 9.91211C34.9609 15.0391 38.0371 18.0664 43.2129 18.0664Z"/>
  </g>
  <g id="Regular-M" transform="matrix(1 0 0 1 1388.57 1126)">
   <path d="M43.9941-14.502L78.5645-14.502C84.1797-14.502 86.8164-17.1387 86.8164-22.7539L86.8164-33.5938L105.322-33.5938C109.375-33.5938 112.598-35.9863 112.598-39.7461C112.598-42.041 111.426-43.8477 109.229-45.752L67.334-82.7148C65.2832-84.4727 63.4766-85.6445 61.2793-85.6445C59.082-85.6445 57.2754-84.4727 55.2246-82.7148L13.3301-45.7031C11.0352-43.7012 9.96094-42.041 9.96094-39.7461C9.96094-35.9863 13.1836-33.5938 17.2363-33.5938L35.7422-33.5938L35.7422-22.7539C35.7422-17.1387 38.3789-14.502 43.9941-14.502ZM43.5059 16.5527L79.0527 16.5527C83.9355 16.5527 86.8164 13.6719 86.8164 8.83789L86.8164 1.31836C86.8164-3.51562 83.9355-6.39648 79.0527-6.39648L43.5059-6.39648C38.623-6.39648 35.7422-3.51562 35.7422 1.31836L35.7422 8.83789C35.7422 13.6719 38.623 16.5527 43.5059 16.5527Z"/>
  </g>
  <g id="Light-M" transform="matrix(1 0 0 1 1092.34 1126)">
   <path d="M42.9199-14.4531L78.6621-14.4531C83.5938-14.4531 86.0352-16.8945 86.0352-21.7773L86.0352-33.6426L105.615-33.6426C109.033-33.6426 111.621-35.6934 111.621-38.8184C111.621-40.7227 110.645-42.2852 108.838-43.8965L66.4551-81.25C64.209-83.2031 62.6953-84.1797 60.791-84.1797C58.8867-84.1797 57.373-83.2031 55.127-81.25L12.7441-43.8477C10.8398-42.1875 9.96094-40.7227 9.96094-38.8184C9.96094-35.6934 12.5488-33.6426 15.9668-33.6426L35.5469-33.6426L35.5469-21.7773C35.5469-16.8945 37.9883-14.4531 42.9199-14.4531ZM42.5781 14.5508L79.0039 14.5508C83.3984 14.5508 86.0352 11.9141 86.0352 7.56836L86.0352 0.634766C86.0352-3.75977 83.3984-6.34766 79.0039-6.34766L42.5781-6.34766C38.1836-6.34766 35.5469-3.75977 35.5469 0.634766L35.5469 7.56836C35.5469 11.9141 38.1836 14.5508 42.5781 14.5508Z"/>
  </g>
  <g id="Thin-M" transform="matrix(1 0 0 1 796.29 1126)">
   <path d="M41.5039-14.3555L78.7598-14.3555C82.7637-14.3555 84.9609-16.5527 84.9609-20.459L84.9609-33.7891L106.006-33.7891C108.545-33.7891 110.303-35.2539 110.303-37.5977C110.303-39.0137 109.668-40.2344 108.301-41.4062L65.2832-79.3457C62.793-81.543 61.6211-82.2266 60.1074-82.2266C58.6426-82.2266 57.4707-81.543 54.9805-79.3457L11.9629-41.4062C10.5957-40.1855 9.96094-39.0137 9.96094-37.5977C9.96094-35.2539 11.7188-33.7891 14.2578-33.7891L35.3027-33.7891L35.3027-20.459C35.3027-16.5527 37.5-14.3555 41.5039-14.3555ZM41.3574 11.8652L78.8574 11.8652C82.7148 11.8652 84.9609 9.61914 84.9609 5.85938L84.9609-0.244141C84.9609-4.00391 82.7148-6.25 78.8574-6.25L41.3574-6.25C37.5488-6.25 35.3027-4.00391 35.3027-0.244141L35.3027 5.85938C35.3027 9.61914 37.5488 11.8652 41.3574 11.8652Z"/>
  </g>
  <g id="Ultralight-M" transform="matrix(1 0 0 1 499.921 1126)">
   <path d="M40.7715-14.3066L78.8574-14.3066C82.3242-14.3066 84.375-16.3574 84.375-19.8242L84.375-33.8379L106.201-33.8379C108.301-33.8379 109.619-35.0586 109.619-36.9629C109.619-38.1348 109.131-39.1602 108.057-40.1367L64.6973-78.3691C62.0605-80.6641 61.084-81.25 59.8145-81.25C58.4961-81.25 57.5195-80.6641 54.8828-78.3691L11.5723-40.1367C10.4492-39.1602 9.96094-38.1348 9.96094-36.9629C9.96094-35.0586 11.2793-33.8379 13.3789-33.8379L35.2051-33.8379L35.2051-19.8242C35.2051-16.3574 37.2559-14.3066 40.7715-14.3066ZM40.7715 10.498L78.8086 10.498C82.373 10.498 84.375 8.44727 84.375 4.98047L84.375-0.732422C84.375-4.15039 82.373-6.20117 78.8086-6.20117L40.7715-6.20117C37.2559-6.20117 35.2051-4.15039 35.2051-0.732422L35.2051 4.98047C35.2051 8.44727 37.2559 10.498 40.7715 10.498Z"/>
  </g>
  <g id="Black-S" transform="matrix(1 0 0 1 2882.13 696)">
   <path d="M32.8125-18.75L69.7266-18.75C74.7559-18.75 77.7344-21.6309 77.7344-26.5625L77.7344-31.7383L87.4023-31.7383C91.5527-31.7383 94.7266-34.375 94.7266-38.0859C94.7266-40.0879 93.75-42.4805 91.6504-44.1895L59.4727-70.8984C55.9082-73.8281 53.8574-74.6094 51.2695-74.6094C48.6816-74.6094 46.6309-73.8281 43.0664-70.8984L10.8887-44.1895C8.78906-42.4805 7.8125-40.0879 7.8125-38.0859C7.8125-34.375 10.9863-31.7383 15.1367-31.7383L24.8047-31.7383L24.8047-26.5625C24.8047-21.6309 27.7832-18.75 32.8125-18.75ZM32.8125 11.7188L69.7266 11.7188C74.7559 11.7188 77.7344 8.83789 77.7344 3.90625L77.7344-5.07812C77.7344-10.0098 74.7559-12.8906 69.7266-12.8906L32.8125-12.8906C27.7832-12.8906 24.8047-10.0098 24.8047-5.07812L24.8047 3.90625C24.8047 8.83789 27.7832 11.7188 32.8125 11.7188Z"/>
  </g>
  <g id="Heavy-S" transform="matrix(1 0 0 1 2586.13 696)">
   <path d="M33.3496-18.7988L67.7734-18.7988C72.7539-18.7988 75.5371-21.5332 75.5371-26.416L75.5371-32.2266L86.2305-32.2266C90.2344-32.2266 93.3105-34.7656 93.3105-38.3301C93.3105-40.332 92.334-42.5293 90.2832-44.2383L58.0078-71.4355C54.9316-73.9746 52.9785-74.8047 50.5371-74.8047C48.1445-74.8047 46.1914-73.9746 43.1152-71.4355L10.8398-44.2383C8.78906-42.5293 7.8125-40.332 7.8125-38.3301C7.8125-34.7656 10.8887-32.2266 14.8926-32.2266L25.5859-32.2266L25.5859-26.416C25.5859-21.5332 28.3691-18.7988 33.3496-18.7988ZM33.2031 10.4492L67.9199 10.4492C72.7051 10.4492 75.5371 7.66602 75.5371 2.97852L75.5371-5.37109C75.5371-10.0586 72.7051-12.8418 67.9199-12.8418L33.2031-12.8418C28.418-12.8418 25.5859-10.0586 25.5859-5.37109L25.5859 2.97852C25.5859 7.66602 28.418 10.4492 33.2031 10.4492Z"/>
  </g>
  <g id="Bold-S" transform="matrix(1 0 0 1 2290.22 696)">
   <path d="M33.8867-18.8965L65.625-18.8965C70.5078-18.8965 73.0957-21.4355 73.0957-26.2207L73.0957-32.8125L84.8633-32.8125C88.7207-32.8125 91.6992-35.2051 91.6992-38.6719C91.6992-40.625 90.7227-42.627 88.7207-44.2871L56.3477-72.0215C53.8086-74.1211 52.002-75.0488 49.7559-75.0488C47.5586-75.0488 45.752-74.1211 43.2129-72.0215L10.8398-44.2871C8.78906-42.5293 7.8125-40.625 7.8125-38.6719C7.8125-35.2051 10.8398-32.8125 14.6484-32.8125L26.4648-32.8125L26.4648-26.2207C26.4648-21.4355 29.0039-18.8965 33.8867-18.8965ZM33.6914 9.0332L65.8691 9.0332C70.4102 9.0332 73.0957 6.39648 73.0957 1.9043L73.0957-5.66406C73.0957-10.1562 70.4102-12.793 65.8691-12.793L33.6914-12.793C29.1504-12.793 26.4648-10.1562 26.4648-5.66406L26.4648 1.9043C26.4648 6.39648 29.1504 9.0332 33.6914 9.0332Z"/>
  </g>
  <g id="Semibold-S" transform="matrix(1 0 0 1 1994.05 696)">
   <path d="M34.2773-18.9453L64.1602-18.9453C68.9453-18.9453 71.3867-21.3379 71.3867-26.123L71.3867-33.2031L83.9844-33.2031C87.6953-33.2031 90.625-35.498 90.625-38.8672C90.625-40.8691 89.5996-42.627 87.6465-44.3359L55.1758-72.4121C53.0273-74.2188 51.3184-75.1953 49.2188-75.1953C47.1191-75.1953 45.4102-74.2188 43.2617-72.4121L10.791-44.2871C8.78906-42.5781 7.8125-40.8691 7.8125-38.8672C7.8125-35.498 10.7422-33.2031 14.4531-33.2031L27.0508-33.2031L27.0508-26.123C27.0508-21.3379 29.4922-18.9453 34.2773-18.9453ZM33.9844 8.05664L64.4531 8.05664C68.7988 8.05664 71.3867 5.46875 71.3867 1.17188L71.3867-5.85938C71.3867-10.2051 68.7988-12.7441 64.4531-12.7441L33.9844-12.7441C29.6387-12.7441 27.0508-10.2051 27.0508-5.85938L27.0508 1.17188C27.0508 5.46875 29.6387 8.05664 33.9844 8.05664Z"/>
  </g>
  <g id="Medium-S" transform="matrix(1 0 0 1 1697.75 696)">
   <path d="M34.6191-18.9941L62.9883-18.9941C67.7734-18.9941 70.1172-21.2891 70.1172-26.0254L70.1172-33.4961L83.252-33.4961C86.9141-33.4961 89.7949-35.6934 89.7949-39.0137C89.7949-41.0156 88.7695-42.6758 86.8164-44.3359L54.2969-72.7051C52.4414-74.3164 50.7812-75.293 48.8281-75.293C46.8262-75.293 45.166-74.3164 43.3105-72.7051L10.791-44.3359C8.74023-42.5781 7.8125-41.0156 7.8125-39.0137C7.8125-35.6934 10.6934-33.4961 14.3555-33.4961L27.4902-33.4961L27.4902-26.0254C27.4902-21.2891 29.834-18.9941 34.6191-18.9941ZM34.2285 7.27539L63.3789 7.27539C67.5781 7.27539 70.1172 4.83398 70.1172 0.634766L70.1172-6.05469C70.1172-10.2539 67.5781-12.7441 63.3789-12.7441L34.2285-12.7441C30.0293-12.7441 27.4902-10.2539 27.4902-6.05469L27.4902 0.634766C27.4902 4.83398 30.0293 7.27539 34.2285 7.27539Z"/>
  </g>
  <g id="Regular-S" transform="matrix(1 0 0 1 1401.58 696)">
   <path d="M35.0098-19.043L61.5234-19.043C66.2598-19.043 68.4082-21.1914 68.4082-25.9277L68.4082-33.8867L82.373-33.8867C85.8887-33.8867 88.7207-35.9863 88.7207-39.209C88.7207-41.2109 87.6953-42.7246 85.791-44.3848L53.1738-73.0957C51.709-74.4141 50.0977-75.4395 48.2422-75.4395C46.3867-75.4395 44.8242-74.4141 43.3594-73.0957L10.7422-44.3359C8.74023-42.5781 7.8125-41.2109 7.8125-39.209C7.8125-35.9863 10.6445-33.8867 14.1602-33.8867L28.0762-33.8867L28.0762-25.9277C28.0762-21.1914 30.2734-19.043 35.0098-19.043ZM34.5215 6.34766L62.0117 6.34766C66.0156 6.34766 68.4082 3.90625 68.4082-0.0976562L68.4082-6.25C68.4082-10.3027 66.0156-12.6953 62.0117-12.6953L34.5215-12.6953C30.5176-12.6953 28.0762-10.3027 28.0762-6.25L28.0762-0.0976562C28.0762 3.90625 30.5176 6.34766 34.5215 6.34766Z"/>
  </g>
  <g id="Light-S" transform="matrix(1 0 0 1 1105.31 696)">
   <path d="M34.0332-18.9941L61.6211-18.9941C65.7227-18.9941 67.7246-20.9473 67.7246-25.0488L67.7246-33.9844L82.6172-33.9844C85.5469-33.9844 87.8418-35.6934 87.8418-38.3789C87.8418-40.0391 87.0117-41.3574 85.4492-42.7246L52.3926-71.8262C50.7324-73.291 49.4141-74.1699 47.8027-74.1699C46.2402-74.1699 44.9219-73.291 43.2617-71.8262L10.2051-42.6758C8.59375-41.2598 7.8125-40.0391 7.8125-38.3789C7.8125-35.6934 10.1074-33.9844 12.9883-33.9844L27.9297-33.9844L27.9297-25.0488C27.9297-20.9473 29.9316-18.9941 34.0332-18.9941ZM33.7402 4.54102L61.9141 4.54102C65.5762 4.54102 67.7246 2.39258 67.7246-1.2207L67.7246-6.83594C67.7246-10.498 65.5762-12.6465 61.9141-12.6465L33.7402-12.6465C30.0781-12.6465 27.9297-10.498 27.9297-6.83594L27.9297-1.2207C27.9297 2.39258 30.0781 4.54102 33.7402 4.54102Z"/>
  </g>
  <g id="Thin-S" transform="matrix(1 0 0 1 809.181 696)">
   <path d="M32.7637-18.8965L61.7188-18.8965C64.9902-18.8965 66.748-20.6543 66.748-23.9258L66.748-34.082L82.959-34.082C85.1562-34.082 86.6699-35.3516 86.6699-37.3047C86.6699-38.5254 86.1328-39.5508 84.9609-40.5273L51.3672-70.166C49.4629-71.8262 48.4863-72.4121 47.2656-72.4121C45.9961-72.4121 45.0195-71.8262 43.1152-70.166L9.52148-40.5273C8.34961-39.502 7.8125-38.5254 7.8125-37.3047C7.8125-35.3516 9.375-34.082 11.5234-34.082L27.7344-34.082L27.7344-23.9258C27.7344-20.6543 29.4922-18.8965 32.7637-18.8965ZM32.666 2.19727L61.8164 2.19727C64.9414 2.19727 66.748 0.341797 66.748-2.73438L66.748-7.66602C66.748-10.7422 64.9414-12.5488 61.8164-12.5488L32.666-12.5488C29.541-12.5488 27.7344-10.7422 27.7344-7.66602L27.7344-2.73438C27.7344 0.341797 29.541 2.19727 32.666 2.19727Z"/>
  </g>
  <g id="Ultralight-S" transform="matrix(1 0 0 1 512.763 696)">
   <path d="M32.1289-18.8477L61.7676-18.8477C64.6484-18.8477 66.2598-20.5078 66.2598-23.3398L66.2598-34.1309L83.1543-34.1309C84.9121-34.1309 86.084-35.1562 86.084-36.7676C86.084-37.7441 85.6445-38.5742 84.7168-39.4043L50.8301-69.2871C48.8281-71.0938 47.998-71.5332 46.9238-71.5332C45.8984-71.5332 45.0684-71.0938 43.0176-69.2871L9.17969-39.4043C8.25195-38.5742 7.8125-37.7441 7.8125-36.7676C7.8125-35.1562 8.98438-34.1309 10.7422-34.1309L27.6367-34.1309L27.6367-23.3398C27.6367-20.5078 29.248-18.8477 32.1289-18.8477ZM32.1289 0.976562L61.7676 0.976562C64.5996 0.976562 66.2598-0.683594 66.2598-3.4668L66.2598-8.05664C66.2598-10.8398 64.5996-12.5 61.7676-12.5L32.1289-12.5C29.248-12.5 27.6367-10.8398 27.6367-8.05664L27.6367-3.4668C27.6367-0.683594 29.248 0.976562 32.1289 0.976562Z"/>
  </g>
 </g>
</svg>
