<?xml version="1.0" encoding="UTF-8"?>
<!--Generator: Apple Native CoreSVG 175-->
<!DOCTYPE svg
PUBLIC "-//W3C//DTD SVG 1.1//EN"
       "http://www.w3.org/Graphics/SVG/1.1/DTD/svg11.dtd">
<svg version="1.1" xmlns="http://www.w3.org/2000/svg" xmlns:xlink="http://www.w3.org/1999/xlink" width="3300" height="2200">
 <!--glyph: "uni10019A.medium", point size: 100.0, font version: "17.0d11e1", template writer version: "65.1"-->
 <style>.multicolor-0:systemRedColor {fill:#FF3B30;opacity:1.0}
.multicolor-1:white {fill:#FFFFFF;opacity:1.0}

.hierarchical-0:tertiary {fill:#8E8E8E}
.hierarchical-1:primary {fill:#212121}

.SFSymbolsPreviewFF3B30 {fill:#FF3B30;opacity:1.0}
.SFSymbolsPreviewFFFFFF {fill:#FFFFFF;opacity:1.0}
</style>
 <g id="Notes">
  <rect height="2200" id="artboard" style="fill:white;opacity:1" width="3300" x="0" y="0"/>
  <line style="fill:none;stroke:black;opacity:1;stroke-width:0.5;" x1="263" x2="3036" y1="292" y2="292"/>
  <text style="stroke:none;fill:black;font-family:sans-serif;font-size:13;font-weight:bold;" transform="matrix(1 0 0 1 263 322)">Weight/Scale Variations</text>
  <text style="stroke:none;fill:black;font-family:sans-serif;font-size:13;text-anchor:middle;" transform="matrix(1 0 0 1 559.711 322)">Ultralight</text>
  <text style="stroke:none;fill:black;font-family:sans-serif;font-size:13;text-anchor:middle;" transform="matrix(1 0 0 1 856.422 322)">Thin</text>
  <text style="stroke:none;fill:black;font-family:sans-serif;font-size:13;text-anchor:middle;" transform="matrix(1 0 0 1 1153.13 322)">Light</text>
  <text style="stroke:none;fill:black;font-family:sans-serif;font-size:13;text-anchor:middle;" transform="matrix(1 0 0 1 1449.84 322)">Regular</text>
  <text style="stroke:none;fill:black;font-family:sans-serif;font-size:13;text-anchor:middle;" transform="matrix(1 0 0 1 1746.56 322)">Medium</text>
  <text style="stroke:none;fill:black;font-family:sans-serif;font-size:13;text-anchor:middle;" transform="matrix(1 0 0 1 2043.27 322)">Semibold</text>
  <text style="stroke:none;fill:black;font-family:sans-serif;font-size:13;text-anchor:middle;" transform="matrix(1 0 0 1 2339.98 322)">Bold</text>
  <text style="stroke:none;fill:black;font-family:sans-serif;font-size:13;text-anchor:middle;" transform="matrix(1 0 0 1 2636.69 322)">Heavy</text>
  <text style="stroke:none;fill:black;font-family:sans-serif;font-size:13;text-anchor:middle;" transform="matrix(1 0 0 1 2933.4 322)">Black</text>
  <line style="fill:none;stroke:black;opacity:1;stroke-width:0.5;" x1="263" x2="3036" y1="1903" y2="1903"/>
  <g transform="matrix(1 0 0 1 263 1933)">
   <path d="M9.24805 0.830078Q10.8691 0.830078 12.2949 0.214844Q13.7207-0.400391 14.8096-1.49414Q15.8984-2.58789 16.5186-4.01367Q17.1387-5.43945 17.1387-7.05078Q17.1387-8.66211 16.5186-10.0879Q15.8984-11.5137 14.8047-12.6074Q13.7109-13.7012 12.2852-14.3164Q10.8594-14.9316 9.23828-14.9316Q7.62695-14.9316 6.20117-14.3164Q4.77539-13.7012 3.69141-12.6074Q2.60742-11.5137 1.9873-10.0879Q1.36719-8.66211 1.36719-7.05078Q1.36719-5.43945 1.9873-4.01367Q2.60742-2.58789 3.69629-1.49414Q4.78516-0.400391 6.21094 0.214844Q7.63672 0.830078 9.24805 0.830078ZM9.24805-0.654297Q7.91992-0.654297 6.7627-1.14746Q5.60547-1.64062 4.73145-2.51953Q3.85742-3.39844 3.36426-4.56055Q2.87109-5.72266 2.87109-7.05078Q2.87109-8.37891 3.35938-9.54102Q3.84766-10.7031 4.72168-11.582Q5.5957-12.4609 6.75293-12.9541Q7.91016-13.4473 9.23828-13.4473Q10.5762-13.4473 11.7334-12.9541Q12.8906-12.4609 13.7695-11.582Q14.6484-10.7031 15.1465-9.54102Q15.6445-8.37891 15.6445-7.05078Q15.6445-5.72266 15.1514-4.56055Q14.6582-3.39844 13.7842-2.51953Q12.9102-1.64062 11.748-1.14746Q10.5859-0.654297 9.24805-0.654297ZM5.6543-7.05078Q5.6543-6.72852 5.85938-6.52832Q6.06445-6.32812 6.40625-6.32812L8.51562-6.32812L8.51562-4.20898Q8.51562-3.88672 8.71094-3.67676Q8.90625-3.4668 9.23828-3.4668Q9.56055-3.4668 9.77051-3.67676Q9.98047-3.88672 9.98047-4.20898L9.98047-6.32812L12.0898-6.32812Q12.4219-6.32812 12.627-6.52832Q12.832-6.72852 12.832-7.05078Q12.832-7.38281 12.627-7.58789Q12.4219-7.79297 12.0898-7.79297L9.98047-7.79297L9.98047-9.90234Q9.98047-10.2344 9.77051-10.4443Q9.56055-10.6543 9.23828-10.6543Q8.90625-10.6543 8.71094-10.4443Q8.51562-10.2344 8.51562-9.90234L8.51562-7.79297L6.40625-7.79297Q6.06445-7.79297 5.85938-7.58789Q5.6543-7.38281 5.6543-7.05078Z"/>
  </g>
  <g transform="matrix(1 0 0 1 281.867 1933)">
   <path d="M11.709 2.91016Q13.75 2.91016 15.5518 2.12891Q17.3535 1.34766 18.7305-0.0292969Q20.1074-1.40625 20.8887-3.20801Q21.6699-5.00977 21.6699-7.05078Q21.6699-9.0918 20.8887-10.8936Q20.1074-12.6953 18.7305-14.0723Q17.3535-15.4492 15.5469-16.2305Q13.7402-17.0117 11.6992-17.0117Q9.6582-17.0117 7.85645-16.2305Q6.05469-15.4492 4.68262-14.0723Q3.31055-12.6953 2.5293-10.8936Q1.74805-9.0918 1.74805-7.05078Q1.74805-5.00977 2.5293-3.20801Q3.31055-1.40625 4.6875-0.0292969Q6.06445 1.34766 7.86621 2.12891Q9.66797 2.91016 11.709 2.91016ZM11.709 1.25Q9.98047 1.25 8.47656 0.605469Q6.97266-0.0390625 5.83496-1.17676Q4.69727-2.31445 4.05762-3.81836Q3.41797-5.32227 3.41797-7.05078Q3.41797-8.7793 4.05762-10.2832Q4.69727-11.7871 5.83008-12.9297Q6.96289-14.0723 8.4668-14.7119Q9.9707-15.3516 11.6992-15.3516Q13.4277-15.3516 14.9316-14.7119Q16.4355-14.0723 17.5781-12.9297Q18.7207-11.7871 19.3652-10.2832Q20.0098-8.7793 20.0098-7.05078Q20.0098-5.32227 19.3701-3.81836Q18.7305-2.31445 17.5928-1.17676Q16.4551-0.0390625 14.9463 0.605469Q13.4375 1.25 11.709 1.25ZM7.17773-7.05078Q7.17773-6.69922 7.41211-6.47461Q7.64648-6.25 8.01758-6.25L10.8887-6.25L10.8887-3.36914Q10.8887-2.99805 11.1133-2.76855Q11.3379-2.53906 11.6895-2.53906Q12.0605-2.53906 12.29-2.76855Q12.5195-2.99805 12.5195-3.36914L12.5195-6.25L15.4004-6.25Q15.7715-6.25 16.001-6.47461Q16.2305-6.69922 16.2305-7.05078Q16.2305-7.42188 16.001-7.65137Q15.7715-7.88086 15.4004-7.88086L12.5195-7.88086L12.5195-10.752Q12.5195-11.1328 12.29-11.3623Q12.0605-11.5918 11.6895-11.5918Q11.3379-11.5918 11.1133-11.3574Q10.8887-11.123 10.8887-10.752L10.8887-7.88086L8.01758-7.88086Q7.63672-7.88086 7.40723-7.65137Q7.17773-7.42188 7.17773-7.05078Z"/>
  </g>
  <g transform="matrix(1 0 0 1 305.646 1933)">
   <path d="M14.9707 5.66406Q17.0605 5.66406 18.96 5.01465Q20.8594 4.36523 22.4512 3.19336Q24.043 2.02148 25.2197 0.429688Q26.3965-1.16211 27.0459-3.06641Q27.6953-4.9707 27.6953-7.05078Q27.6953-9.14062 27.0459-11.04Q26.3965-12.9395 25.2197-14.5312Q24.043-16.123 22.4512-17.2998Q20.8594-18.4766 18.9551-19.126Q17.0508-19.7754 14.9609-19.7754Q12.8711-19.7754 10.9717-19.126Q9.07227-18.4766 7.48535-17.2998Q5.89844-16.123 4.72168-14.5312Q3.54492-12.9395 2.90039-11.04Q2.25586-9.14062 2.25586-7.05078Q2.25586-4.9707 2.90527-3.06641Q3.55469-1.16211 4.72656 0.429688Q5.89844 2.02148 7.49023 3.19336Q9.08203 4.36523 10.9814 5.01465Q12.8809 5.66406 14.9707 5.66406ZM14.9707 3.84766Q13.1641 3.84766 11.5283 3.2959Q9.89258 2.74414 8.53516 1.74805Q7.17773 0.751953 6.17676-0.610352Q5.17578-1.97266 4.62891-3.6084Q4.08203-5.24414 4.08203-7.05078Q4.08203-8.86719 4.62891-10.5029Q5.17578-12.1387 6.17188-13.501Q7.16797-14.8633 8.52539-15.8594Q9.88281-16.8555 11.5186-17.4023Q13.1543-17.9492 14.9609-17.9492Q16.7773-17.9492 18.4131-17.4023Q20.0488-16.8555 21.4111-15.8594Q22.7734-14.8633 23.7695-13.501Q24.7656-12.1387 25.3174-10.5029Q25.8691-8.86719 25.8691-7.05078Q25.8789-5.24414 25.332-3.6084Q24.7852-1.97266 23.7842-0.610352Q22.7832 0.751953 21.4209 1.74805Q20.0586 2.74414 18.4229 3.2959Q16.7871 3.84766 14.9707 3.84766ZM9.19922-7.05078Q9.19922-6.66992 9.45801-6.4209Q9.7168-6.17188 10.1172-6.17188L14.0625-6.17188L14.0625-2.2168Q14.0625-1.81641 14.3115-1.55762Q14.5605-1.29883 14.9512-1.29883Q15.3516-1.29883 15.6104-1.55273Q15.8691-1.80664 15.8691-2.2168L15.8691-6.17188L19.8242-6.17188Q20.2246-6.17188 20.4785-6.4209Q20.7324-6.66992 20.7324-7.05078Q20.7324-7.46094 20.4785-7.71484Q20.2246-7.96875 19.8242-7.96875L15.8691-7.96875L15.8691-11.9141Q15.8691-12.3242 15.6104-12.583Q15.3516-12.8418 14.9512-12.8418Q14.5605-12.8418 14.3115-12.583Q14.0625-12.3242 14.0625-11.9141L14.0625-7.96875L10.1172-7.96875Q9.70703-7.96875 9.45312-7.71484Q9.19922-7.46094 9.19922-7.05078Z"/>
  </g>
  <text style="stroke:none;fill:black;font-family:sans-serif;font-size:13;font-weight:bold;" transform="matrix(1 0 0 1 263 1953)">Design Variations</text>
  <text style="stroke:none;fill:black;font-family:sans-serif;font-size:13;" transform="matrix(1 0 0 1 263 1971)">Symbols are supported in up to nine weights and three scales.</text>
  <text style="stroke:none;fill:black;font-family:sans-serif;font-size:13;" transform="matrix(1 0 0 1 263 1989)">For optimal layout with text and other symbols, vertically align</text>
  <text style="stroke:none;fill:black;font-family:sans-serif;font-size:13;" transform="matrix(1 0 0 1 263 2007)">symbols with the adjacent text.</text>
  <line style="fill:none;stroke:#00AEEF;stroke-width:0.5;opacity:1.0;" x1="776" x2="776" y1="1919" y2="1933"/>
  <g transform="matrix(1 0 0 1 776 1933)">
   <path d="M3.31055 0.15625Q3.70117 0.15625 3.91602-0.00976562Q4.13086-0.175781 4.26758-0.585938L5.52734-4.0332L11.2891-4.0332L12.5488-0.585938Q12.6855-0.175781 12.9004-0.00976562Q13.1152 0.15625 13.4961 0.15625Q13.8867 0.15625 14.1162-0.0585938Q14.3457-0.273438 14.3457-0.644531Q14.3457-0.869141 14.2383-1.17188L9.6582-13.3691Q9.48242-13.8184 9.17969-14.043Q8.87695-14.2676 8.4082-14.2676Q7.5-14.2676 7.17773-13.3789L2.59766-1.16211Q2.49023-0.859375 2.49023-0.634766Q2.49023-0.263672 2.70996-0.0537109Q2.92969 0.15625 3.31055 0.15625ZM6.00586-5.51758L8.37891-12.0898L8.42773-12.0898L10.8008-5.51758Z"/>
  </g>
  <line style="fill:none;stroke:#00AEEF;stroke-width:0.5;opacity:1.0;" x1="793.197" x2="793.197" y1="1919" y2="1933"/>
  <text style="stroke:none;fill:black;font-family:sans-serif;font-size:13;font-weight:bold;" transform="matrix(1 0 0 1 776 1953)">Margins</text>
  <text style="stroke:none;fill:black;font-family:sans-serif;font-size:13;" transform="matrix(1 0 0 1 776 1971)">Leading and trailing margins on the left and right side of each symbol</text>
  <text style="stroke:none;fill:black;font-family:sans-serif;font-size:13;" transform="matrix(1 0 0 1 776 1989)">can be adjusted by modifying the x-location of the margin guidelines.</text>
  <text style="stroke:none;fill:black;font-family:sans-serif;font-size:13;" transform="matrix(1 0 0 1 776 2007)">Modifications are automatically applied proportionally to all</text>
  <text style="stroke:none;fill:black;font-family:sans-serif;font-size:13;" transform="matrix(1 0 0 1 776 2025)">scales and weights.</text>
  <g transform="matrix(1 0 0 1 1289 1933)">
   <path d="M2.8418 1.86523L4.54102 3.57422Q5.18555 4.22852 5.90332 4.17969Q6.62109 4.13086 7.31445 3.35938L18.0078-8.42773L17.041-9.4043L6.42578 2.27539Q6.16211 2.57812 5.89355 2.61719Q5.625 2.65625 5.27344 2.30469L4.10156 1.14258Q3.75 0.791016 3.79395 0.522461Q3.83789 0.253906 4.14062-0.0195312L15.6152-10.8203L14.6387-11.7871L3.04688-0.898438Q2.30469-0.214844 2.25098 0.498047Q2.19727 1.21094 2.8418 1.86523ZM9.25781-16.3281Q8.94531-16.0254 8.90625-15.6348Q8.86719-15.2441 9.04297-14.9512Q9.21875-14.6777 9.55566-14.541Q9.89258-14.4043 10.3809-14.5215Q11.4746-14.7754 12.5977-14.7314Q13.7207-14.6875 14.7949-13.9844L14.209-12.5293Q13.9551-11.9043 14.0674-11.4404Q14.1797-10.9766 14.5801-10.5664L16.875-8.25195Q17.2363-7.88086 17.5781-7.82227Q17.9199-7.76367 18.3398-7.8418L19.4043-8.03711L20.0684-7.36328L20.0293-6.80664Q20-6.43555 20.1221-6.12305Q20.2441-5.81055 20.6055-5.44922L21.3672-4.70703Q21.7285-4.3457 22.1533-4.33105Q22.5781-4.31641 22.9297-4.66797L25.8398-7.58789Q26.1914-7.93945 26.1816-8.35449Q26.1719-8.76953 25.8105-9.13086L25.0391-9.89258Q24.6875-10.2539 24.3799-10.3857Q24.0723-10.5176 23.7109-10.4883L23.1348-10.4395L22.4902-11.0742L22.7344-12.1973Q22.832-12.6172 22.6953-12.9834Q22.5586-13.3496 22.1191-13.7891L19.9219-15.9766Q18.6719-17.2168 17.2607-17.8369Q15.8496-18.457 14.4189-18.4814Q12.9883-18.5059 11.665-17.959Q10.3418-17.4121 9.25781-16.3281ZM10.752-15.957Q11.6602-16.6211 12.7002-16.9043Q13.7402-17.1875 14.8047-17.085Q15.8691-16.9824 16.8701-16.5137Q17.8711-16.0449 18.7012-15.2051L21.1328-12.793Q21.3086-12.6172 21.3525-12.4512Q21.3965-12.2852 21.3379-12.0312L21.0156-10.5469L22.5195-9.0625L23.5059-9.12109Q23.6914-9.13086 23.7891-9.09668Q23.8867-9.0625 24.0332-8.91602L24.6094-8.33984L22.168-5.89844L21.5918-6.47461Q21.4453-6.62109 21.4062-6.71875Q21.3672-6.81641 21.377-7.01172L21.4453-7.98828L19.9512-9.47266L18.4277-9.21875Q18.1836-9.16992 18.042-9.2041Q17.9004-9.23828 17.7148-9.41406L15.7129-11.416Q15.5176-11.5918 15.4932-11.7529Q15.4688-11.9141 15.5859-12.1875L16.4648-14.2773Q15.293-15.3711 13.8281-15.791Q12.3633-16.2109 10.8398-15.7617Q10.7227-15.7324 10.6885-15.8057Q10.6543-15.8789 10.752-15.957Z"/>
  </g>
  <text style="stroke:none;fill:black;font-family:sans-serif;font-size:13;font-weight:bold;" transform="matrix(1 0 0 1 1289 1953)">Exporting</text>
  <text style="stroke:none;fill:black;font-family:sans-serif;font-size:13;" transform="matrix(1 0 0 1 1289 1971)">Symbols should be outlined when exporting to ensure the</text>
  <text style="stroke:none;fill:black;font-family:sans-serif;font-size:13;" transform="matrix(1 0 0 1 1289 1989)">design is preserved when submitting to Xcode.</text>
  <text id="template-version" style="stroke:none;fill:black;font-family:sans-serif;font-size:13;text-anchor:end;" transform="matrix(1 0 0 1 3036 1933)">Template v.3.0</text>
  <text style="stroke:none;fill:black;font-family:sans-serif;font-size:13;text-anchor:end;" transform="matrix(1 0 0 1 3036 1951)">Requires Xcode 13 or greater</text>
  <text id="descriptive-name" style="stroke:none;fill:black;font-family:sans-serif;font-size:13;text-anchor:end;" transform="matrix(1 0 0 1 3036 1969)">Generated from clear.fill</text>
  <text style="stroke:none;fill:black;font-family:sans-serif;font-size:13;text-anchor:end;" transform="matrix(1 0 0 1 3036 1987)">Typeset at 100 points</text>
  <text style="stroke:none;fill:black;font-family:sans-serif;font-size:13;" transform="matrix(1 0 0 1 263 726)">Small</text>
  <text style="stroke:none;fill:black;font-family:sans-serif;font-size:13;" transform="matrix(1 0 0 1 263 1156)">Medium</text>
  <text style="stroke:none;fill:black;font-family:sans-serif;font-size:13;" transform="matrix(1 0 0 1 263 1586)">Large</text>
 </g>
 <g id="Guides">
  <g id="H-reference" style="fill:#27AAE1;stroke:none;" transform="matrix(1 0 0 1 339 696)">
   <path d="M0.976562 0L3.66211 0L29.3457-67.1387L30.0293-67.1387L30.0293-70.459L28.125-70.459ZM11.6699-24.4629L46.9727-24.4629L46.2402-26.709L12.4512-26.709ZM55.127 0L57.7637 0L30.6152-70.459L29.4434-70.459L29.4434-67.1387Z"/>
  </g>
  <line id="Baseline-S" style="fill:none;stroke:#27AAE1;opacity:1;stroke-width:0.5;" x1="263" x2="3036" y1="696" y2="696"/>
  <line id="Capline-S" style="fill:none;stroke:#27AAE1;opacity:1;stroke-width:0.5;" x1="263" x2="3036" y1="625.541" y2="625.541"/>
  <g id="H-reference" style="fill:#27AAE1;stroke:none;" transform="matrix(1 0 0 1 339 1126)">
   <path d="M0.976562 0L3.66211 0L29.3457-67.1387L30.0293-67.1387L30.0293-70.459L28.125-70.459ZM11.6699-24.4629L46.9727-24.4629L46.2402-26.709L12.4512-26.709ZM55.127 0L57.7637 0L30.6152-70.459L29.4434-70.459L29.4434-67.1387Z"/>
  </g>
  <line id="Baseline-M" style="fill:none;stroke:#27AAE1;opacity:1;stroke-width:0.5;" x1="263" x2="3036" y1="1126" y2="1126"/>
  <line id="Capline-M" style="fill:none;stroke:#27AAE1;opacity:1;stroke-width:0.5;" x1="263" x2="3036" y1="1055.54" y2="1055.54"/>
  <g id="H-reference" style="fill:#27AAE1;stroke:none;" transform="matrix(1 0 0 1 339 1556)">
   <path d="M0.976562 0L3.66211 0L29.3457-67.1387L30.0293-67.1387L30.0293-70.459L28.125-70.459ZM11.6699-24.4629L46.9727-24.4629L46.2402-26.709L12.4512-26.709ZM55.127 0L57.7637 0L30.6152-70.459L29.4434-70.459L29.4434-67.1387Z"/>
  </g>
  <line id="Baseline-L" style="fill:none;stroke:#27AAE1;opacity:1;stroke-width:0.5;" x1="263" x2="3036" y1="1556" y2="1556"/>
  <line id="Capline-L" style="fill:none;stroke:#27AAE1;opacity:1;stroke-width:0.5;" x1="263" x2="3036" y1="1485.54" y2="1485.54"/>
  <line id="left-margin-Ultralight-S" style="fill:none;stroke:#00AEEF;stroke-width:0.5;opacity:1.0;" x1="516.352" x2="516.352" y1="600.785" y2="720.121"/>
  <line id="right-margin-Ultralight-S" style="fill:none;stroke:#00AEEF;stroke-width:0.5;opacity:1.0;" x1="603.07" x2="603.07" y1="600.785" y2="720.121"/>
  <line id="left-margin-Thin-S" style="fill:none;stroke:#00AEEF;stroke-width:0.5;opacity:1.0;" x1="812.623" x2="812.623" y1="600.785" y2="720.121"/>
  <line id="right-margin-Thin-S" style="fill:none;stroke:#00AEEF;stroke-width:0.5;opacity:1.0;" x1="900.221" x2="900.221" y1="600.785" y2="720.121"/>
  <line id="left-margin-Light-S" style="fill:none;stroke:#00AEEF;stroke-width:0.5;opacity:1.0;" x1="1108.46" x2="1108.46" y1="600.785" y2="720.121"/>
  <line id="right-margin-Light-S" style="fill:none;stroke:#00AEEF;stroke-width:0.5;opacity:1.0;" x1="1197.81" x2="1197.81" y1="600.785" y2="720.121"/>
  <line id="left-margin-Regular-S" style="fill:none;stroke:#00AEEF;stroke-width:0.5;opacity:1.0;" x1="1404.51" x2="1404.51" y1="600.785" y2="720.121"/>
  <line id="right-margin-Regular-S" style="fill:none;stroke:#00AEEF;stroke-width:0.5;opacity:1.0;" x1="1495.18" x2="1495.18" y1="600.785" y2="720.121"/>
  <line id="left-margin-Medium-S" style="fill:none;stroke:#00AEEF;stroke-width:0.5;opacity:1.0;" x1="1700.75" x2="1700.75" y1="600.785" y2="720.121"/>
  <line id="right-margin-Medium-S" style="fill:none;stroke:#00AEEF;stroke-width:0.5;opacity:1.0;" x1="1792.36" x2="1792.36" y1="600.785" y2="720.121"/>
  <line id="left-margin-Semibold-S" style="fill:none;stroke:#00AEEF;stroke-width:0.5;opacity:1.0;" x1="1997.12" x2="1997.12" y1="600.785" y2="720.121"/>
  <line id="right-margin-Semibold-S" style="fill:none;stroke:#00AEEF;stroke-width:0.5;opacity:1.0;" x1="2089.41" x2="2089.41" y1="600.785" y2="720.121"/>
  <line id="left-margin-Bold-S" style="fill:none;stroke:#00AEEF;stroke-width:0.5;opacity:1.0;" x1="2293.35" x2="2293.35" y1="600.785" y2="720.121"/>
  <line id="right-margin-Bold-S" style="fill:none;stroke:#00AEEF;stroke-width:0.5;opacity:1.0;" x1="2386.61" x2="2386.61" y1="600.785" y2="720.121"/>
  <line id="left-margin-Heavy-S" style="fill:none;stroke:#00AEEF;stroke-width:0.5;opacity:1.0;" x1="2589.4" x2="2589.4" y1="600.785" y2="720.121"/>
  <line id="right-margin-Heavy-S" style="fill:none;stroke:#00AEEF;stroke-width:0.5;opacity:1.0;" x1="2683.98" x2="2683.98" y1="600.785" y2="720.121"/>
  <line id="left-margin-Black-S" style="fill:none;stroke:#00AEEF;stroke-width:0.5;opacity:1.0;" x1="2885.5" x2="2885.5" y1="600.785" y2="720.121"/>
  <line id="right-margin-Black-S" style="fill:none;stroke:#00AEEF;stroke-width:0.5;opacity:1.0;" x1="2981.3" x2="2981.3" y1="600.785" y2="720.121"/>
  <line id="left-margin-Ultralight-M" style="fill:none;stroke:#00AEEF;stroke-width:0.5;opacity:1.0;" x1="504.535" x2="504.535" y1="1030.79" y2="1150.12"/>
  <line id="right-margin-Ultralight-M" style="fill:none;stroke:#00AEEF;stroke-width:0.5;opacity:1.0;" x1="614.887" x2="614.887" y1="1030.79" y2="1150.12"/>
  <line id="left-margin-Thin-M" style="fill:none;stroke:#00AEEF;stroke-width:0.5;opacity:1.0;" x1="800.758" x2="800.758" y1="1030.79" y2="1150.12"/>
  <line id="right-margin-Thin-M" style="fill:none;stroke:#00AEEF;stroke-width:0.5;opacity:1.0;" x1="912.086" x2="912.086" y1="1030.79" y2="1150.12"/>
  <line id="left-margin-Light-M" style="fill:none;stroke:#00AEEF;stroke-width:0.5;opacity:1.0;" x1="1096.47" x2="1096.47" y1="1030.79" y2="1150.12"/>
  <line id="right-margin-Light-M" style="fill:none;stroke:#00AEEF;stroke-width:0.5;opacity:1.0;" x1="1209.8" x2="1209.8" y1="1030.79" y2="1150.12"/>
  <line id="left-margin-Regular-M" style="fill:none;stroke:#00AEEF;stroke-width:0.5;opacity:1.0;" x1="1392.45" x2="1392.45" y1="1030.79" y2="1150.12"/>
  <line id="right-margin-Regular-M" style="fill:none;stroke:#00AEEF;stroke-width:0.5;opacity:1.0;" x1="1507.24" x2="1507.24" y1="1030.79" y2="1150.12"/>
  <line id="left-margin-Medium-M" style="fill:none;stroke:#00AEEF;stroke-width:0.5;opacity:1.0;" x1="1688.52" x2="1688.52" y1="1030.79" y2="1150.12"/>
  <line id="right-margin-Medium-M" style="fill:none;stroke:#00AEEF;stroke-width:0.5;opacity:1.0;" x1="1804.59" x2="1804.59" y1="1030.79" y2="1150.12"/>
  <line id="left-margin-Semibold-M" style="fill:none;stroke:#00AEEF;stroke-width:0.5;opacity:1.0;" x1="1984.77" x2="1984.77" y1="1030.79" y2="1150.12"/>
  <line id="right-margin-Semibold-M" style="fill:none;stroke:#00AEEF;stroke-width:0.5;opacity:1.0;" x1="2101.76" x2="2101.76" y1="1030.79" y2="1150.12"/>
  <line id="left-margin-Bold-M" style="fill:none;stroke:#00AEEF;stroke-width:0.5;opacity:1.0;" x1="2280.85" x2="2280.85" y1="1030.79" y2="1150.12"/>
  <line id="right-margin-Bold-M" style="fill:none;stroke:#00AEEF;stroke-width:0.5;opacity:1.0;" x1="2399.11" x2="2399.11" y1="1030.79" y2="1150.12"/>
  <line id="left-margin-Heavy-M" style="fill:none;stroke:#00AEEF;stroke-width:0.5;opacity:1.0;" x1="2576.65" x2="2576.65" y1="1030.79" y2="1150.12"/>
  <line id="right-margin-Heavy-M" style="fill:none;stroke:#00AEEF;stroke-width:0.5;opacity:1.0;" x1="2696.72" x2="2696.72" y1="1030.79" y2="1150.12"/>
  <line id="left-margin-Black-M" style="fill:none;stroke:#00AEEF;stroke-width:0.5;opacity:1.0;" x1="2872.54" x2="2872.54" y1="1030.79" y2="1150.12"/>
  <line id="right-margin-Black-M" style="fill:none;stroke:#00AEEF;stroke-width:0.5;opacity:1.0;" x1="2994.26" x2="2994.26" y1="1030.79" y2="1150.12"/>
  <line id="left-margin-Ultralight-L" style="fill:none;stroke:#00AEEF;stroke-width:0.5;opacity:1.0;" x1="488.739" x2="488.739" y1="1460.79" y2="1580.12"/>
  <line id="right-margin-Ultralight-L" style="fill:none;stroke:#00AEEF;stroke-width:0.5;opacity:1.0;" x1="630.683" x2="630.683" y1="1460.79" y2="1580.12"/>
  <line id="left-margin-Thin-L" style="fill:none;stroke:#00AEEF;stroke-width:0.5;opacity:1.0;" x1="784.889" x2="784.889" y1="1460.79" y2="1580.12"/>
  <line id="right-margin-Thin-L" style="fill:none;stroke:#00AEEF;stroke-width:0.5;opacity:1.0;" x1="927.955" x2="927.955" y1="1460.79" y2="1580.12"/>
  <line id="left-margin-Light-L" style="fill:none;stroke:#00AEEF;stroke-width:0.5;opacity:1.0;" x1="1080.5" x2="1080.5" y1="1460.79" y2="1580.12"/>
  <line id="right-margin-Light-L" style="fill:none;stroke:#00AEEF;stroke-width:0.5;opacity:1.0;" x1="1225.77" x2="1225.77" y1="1460.79" y2="1580.12"/>
  <line id="left-margin-Regular-L" style="fill:none;stroke:#00AEEF;stroke-width:0.5;opacity:1.0;" x1="1376.38" x2="1376.38" y1="1460.79" y2="1580.12"/>
  <line id="right-margin-Regular-L" style="fill:none;stroke:#00AEEF;stroke-width:0.5;opacity:1.0;" x1="1523.31" x2="1523.31" y1="1460.79" y2="1580.12"/>
  <line id="left-margin-Medium-L" style="fill:none;stroke:#00AEEF;stroke-width:0.5;opacity:1.0;" x1="1672.31" x2="1672.31" y1="1460.79" y2="1580.12"/>
  <line id="right-margin-Medium-L" style="fill:none;stroke:#00AEEF;stroke-width:0.5;opacity:1.0;" x1="1820.8" x2="1820.8" y1="1460.79" y2="1580.12"/>
  <line id="left-margin-Semibold-L" style="fill:none;stroke:#00AEEF;stroke-width:0.5;opacity:1.0;" x1="1968.44" x2="1968.44" y1="1460.79" y2="1580.12"/>
  <line id="right-margin-Semibold-L" style="fill:none;stroke:#00AEEF;stroke-width:0.5;opacity:1.0;" x1="2118.1" x2="2118.1" y1="1460.79" y2="1580.12"/>
  <line id="left-margin-Bold-L" style="fill:none;stroke:#00AEEF;stroke-width:0.5;opacity:1.0;" x1="2264.34" x2="2264.34" y1="1460.79" y2="1580.12"/>
  <line id="right-margin-Bold-L" style="fill:none;stroke:#00AEEF;stroke-width:0.5;opacity:1.0;" x1="2415.61" x2="2415.61" y1="1460.79" y2="1580.12"/>
  <line id="left-margin-Heavy-L" style="fill:none;stroke:#00AEEF;stroke-width:0.5;opacity:1.0;" x1="2559.93" x2="2559.93" y1="1460.79" y2="1580.12"/>
  <line id="right-margin-Heavy-L" style="fill:none;stroke:#00AEEF;stroke-width:0.5;opacity:1.0;" x1="2713.45" x2="2713.45" y1="1460.79" y2="1580.12"/>
  <line id="left-margin-Black-L" style="fill:none;stroke:#00AEEF;stroke-width:0.5;opacity:1.0;" x1="2855.62" x2="2855.62" y1="1460.79" y2="1580.12"/>
  <line id="right-margin-Black-L" style="fill:none;stroke:#00AEEF;stroke-width:0.5;opacity:1.0;" x1="3011.18" x2="3011.18" y1="1460.79" y2="1580.12"/>
 </g>
 <g id="Symbols">
  <g id="Black-L" transform="matrix(1 0 0 1 2855.62 1556)">
   <path class="multicolor-0:systemRedColor hierarchical-0:tertiary SFSymbolsPreviewFF3B30" d="M39.9902 26.5137L115.576 26.5137Q127.002 26.5137 133.252 20.3125Q139.502 14.1113 139.502 2.68555L139.502-73.0957Q139.502-84.4727 133.252-90.6738Q127.002-96.875 115.576-96.875L39.9902-96.875Q28.5645-96.875 22.3145-90.6738Q16.0645-84.4727 16.0645-73.0957L16.0645 2.68555Q16.0645 14.1113 22.3145 20.3125Q28.5645 26.5137 39.9902 26.5137Z"/>
   <path class="multicolor-1:white hierarchical-1:primary SFSymbolsPreviewFFFFFF" d="M59.3262-7.66602Q55.7129-7.66602 53.2471-10.1562Q50.7812-12.6465 50.7812-16.3574Q50.7812-19.7266 53.3691-22.2168L66.2109-35.1074L53.3691-48.0469Q50.7812-50.5371 50.7812-53.9062Q50.7812-57.6172 53.2471-60.083Q55.7129-62.5488 59.3262-62.5488Q63.1348-62.5488 65.6738-60.0586L78.418-47.3633L91.2109-60.0586Q93.75-62.5977 97.5586-62.5977Q101.172-62.5977 103.638-60.1074Q106.104-57.6172 106.104-53.9551Q106.104-50.5371 103.516-48.0469L90.7227-35.1074L103.516-22.2656Q106.104-19.7754 106.104-16.3574Q106.104-12.6465 103.613-10.1562Q101.123-7.66602 97.5098-7.66602Q93.6035-7.66602 91.1133-10.2051L78.418-22.8027L65.7715-10.2051Q63.2324-7.66602 59.3262-7.66602Z"/>
  </g>
  <g id="Heavy-L" transform="matrix(1 0 0 1 2559.93 1556)">
   <path class="multicolor-0:systemRedColor hierarchical-0:tertiary SFSymbolsPreviewFF3B30" d="M38.8184 25.4883L114.697 25.4883Q125.684 25.4883 131.567 19.6289Q137.451 13.7695 137.451 2.88086L137.451-73.2422Q137.451-84.1309 131.567-89.9902Q125.684-95.8496 114.697-95.8496L38.8184-95.8496Q27.8809-95.8496 21.9727-89.9902Q16.0645-84.1309 16.0645-73.2422L16.0645 2.88086Q16.0645 13.8184 21.9727 19.6533Q27.8809 25.4883 38.8184 25.4883Z"/>
   <path class="multicolor-1:white hierarchical-1:primary SFSymbolsPreviewFFFFFF" d="M57.666-8.10547Q54.4922-8.10547 52.2949-10.3027Q50.0977-12.5 50.0977-15.8203Q50.0977-18.7988 52.3926-21.0449L66.4551-35.1074L52.3926-49.2676Q50.0977-51.4648 50.0977-54.4922Q50.0977-57.7637 52.2949-59.9609Q54.4922-62.1582 57.666-62.1582Q60.9863-62.1582 63.2812-59.9121L77.2949-45.9473L91.3574-59.9121Q93.6035-62.207 96.9238-62.207Q100.098-62.207 102.295-59.9854Q104.492-57.7637 104.492-54.541Q104.492-51.5137 102.197-49.2676L88.1836-35.1074L102.197-21.0938Q104.492-18.8965 104.492-15.8203Q104.492-12.5 102.271-10.3027Q100.049-8.10547 96.875-8.10547Q93.4082-8.10547 91.2109-10.3516L77.2949-24.2188L63.3789-10.3516Q61.1328-8.10547 57.666-8.10547Z"/>
  </g>
  <g id="Bold-L" transform="matrix(1 0 0 1 2264.34 1556)">
   <path class="multicolor-0:systemRedColor hierarchical-0:tertiary SFSymbolsPreviewFF3B30" d="M37.5488 24.3652L113.721 24.3652Q124.17 24.3652 129.688 18.8965Q135.205 13.4277 135.205 3.07617L135.205-73.4375Q135.205-83.7891 129.688-89.2578Q124.17-94.7266 113.721-94.7266L37.5488-94.7266Q27.0996-94.7266 21.582-89.2578Q16.0645-83.7891 16.0645-73.4375L16.0645 3.07617Q16.0645 13.4766 21.582 18.9209Q27.0996 24.3652 37.5488 24.3652Z"/>
   <path class="multicolor-1:white hierarchical-1:primary SFSymbolsPreviewFFFFFF" d="M55.8594-8.59375Q53.0762-8.59375 51.1963-10.498Q49.3164-12.4023 49.3164-15.1855Q49.3164-17.7734 51.2695-19.7266L66.6992-35.1562L51.2695-50.6348Q49.3164-52.5391 49.3164-55.1758Q49.3164-57.959 51.1963-59.8145Q53.0762-61.6699 55.8594-61.6699Q58.6426-61.6699 60.5957-59.7656L75.9766-44.4336L91.4551-59.8145Q93.4082-61.7676 96.1914-61.7676Q98.9258-61.7676 100.83-59.8633Q102.734-57.959 102.734-55.2246Q102.734-52.5879 100.781-50.6836L85.3516-35.1562L100.732-19.7754Q102.686-17.8711 102.686-15.1855Q102.686-12.4023 100.781-10.498Q98.877-8.59375 96.1426-8.59375Q93.2129-8.59375 91.3086-10.5469L75.9766-25.8301L60.6934-10.5469Q58.7402-8.59375 55.8594-8.59375Z"/>
  </g>
  <g id="Semibold-L" transform="matrix(1 0 0 1 1968.44 1556)">
   <path class="multicolor-0:systemRedColor hierarchical-0:tertiary SFSymbolsPreviewFF3B30" d="M36.6211 23.584L112.988 23.584Q123.145 23.584 128.369 18.3838Q133.594 13.1836 133.594 3.17383L133.594-73.5352Q133.594-83.4961 128.369-88.6963Q123.145-93.8965 112.988-93.8965L36.6211-93.8965Q26.5625-93.8965 21.3135-88.7207Q16.0645-83.5449 16.0645-73.5352L16.0645 3.17383Q16.0645 13.2324 21.3135 18.4082Q26.5625 23.584 36.6211 23.584Z"/>
   <path class="multicolor-1:white hierarchical-1:primary SFSymbolsPreviewFFFFFF" d="M54.4922-8.88672Q52.0508-8.88672 50.3906-10.5713Q48.7305-12.2559 48.7305-14.7461Q48.7305-17.041 50.4395-18.7988L66.8457-35.1562L50.4395-51.5625Q48.7305-53.2715 48.7305-55.6152Q48.7305-58.0566 50.3906-59.6924Q52.0508-61.3281 54.4922-61.3281Q56.9336-61.3281 58.6426-59.668L75.0488-43.3105L91.5039-59.668Q93.2129-61.4258 95.6543-61.4258Q98.0469-61.4258 99.7314-59.7656Q101.416-58.1055 101.416-55.6641Q101.416-53.3203 99.707-51.6113L83.3008-35.1562L99.6582-18.8477Q101.367-17.1875 101.367-14.7461Q101.367-12.2559 99.6826-10.5713Q97.998-8.88672 95.5566-8.88672Q92.9688-8.88672 91.3086-10.6445L75.0488-26.9531L58.7891-10.6445Q57.0312-8.88672 54.4922-8.88672Z"/>
  </g>
  <g id="Medium-L" transform="matrix(1 0 0 1 1672.31 1556)">
   <path class="multicolor-0:systemRedColor hierarchical-0:tertiary SFSymbolsPreviewFF3B30" d="M35.9375 22.998L112.5 22.998Q122.363 22.998 127.393 17.9932Q132.422 12.9883 132.422 3.27148L132.422-73.6328Q132.422-83.3008 127.393-88.3057Q122.363-93.3105 112.5-93.3105L35.9375-93.3105Q26.1719-93.3105 21.1182-88.3301Q16.0645-83.3496 16.0645-73.6328L16.0645 3.27148Q16.0645 13.0371 21.1182 18.0176Q26.1719 22.998 35.9375 22.998Z"/>
   <path class="multicolor-1:white hierarchical-1:primary SFSymbolsPreviewFFFFFF" d="M53.5645-9.13086Q51.3672-9.13086 49.8535-10.6689Q48.3398-12.207 48.3398-14.4531Q48.3398-16.5039 49.9023-18.1152L66.9922-35.2051L49.9023-52.2949Q48.3398-53.8086 48.3398-55.957Q48.3398-58.1543 49.8535-59.6191Q51.3672-61.084 53.5645-61.084Q55.6641-61.084 57.2754-59.5703L74.3652-42.5293L91.5527-59.6191Q93.1641-61.1816 95.2637-61.1816Q97.4609-61.1816 98.9746-59.668Q100.488-58.1543 100.488-56.0547Q100.488-53.8574 98.9746-52.3438L81.8359-35.2051L98.9258-18.1641Q100.439-16.6504 100.439-14.4531Q100.439-12.207 98.9258-10.6689Q97.4121-9.13086 95.166-9.13086Q92.8711-9.13086 91.4062-10.7422L74.3652-27.7832L57.4219-10.7422Q55.8105-9.13086 53.5645-9.13086Z"/>
  </g>
  <g id="Regular-L" transform="matrix(1 0 0 1 1376.38 1556)">
   <path class="multicolor-0:systemRedColor hierarchical-0:tertiary SFSymbolsPreviewFF3B30" d="M35.0586 22.2168L111.816 22.2168Q121.338 22.2168 126.099 17.4805Q130.859 12.7441 130.859 3.41797L130.859-73.7305Q130.859-83.0566 126.099-87.793Q121.338-92.5293 111.816-92.5293L35.0586-92.5293Q25.6348-92.5293 20.8496-87.8174Q16.0645-83.1055 16.0645-73.7305L16.0645 3.41797Q16.0645 12.793 20.8496 17.5049Q25.6348 22.2168 35.0586 22.2168Z"/>
   <path class="multicolor-1:white hierarchical-1:primary SFSymbolsPreviewFFFFFF" d="M52.2949-9.47266Q50.3906-9.47266 49.0967-10.791Q47.8027-12.1094 47.8027-14.0137Q47.8027-15.8203 49.1211-17.1875L67.1387-35.2051L49.1211-53.2227Q47.8027-54.541 47.8027-56.3965Q47.8027-58.252 49.0967-59.5215Q50.3906-60.791 52.2949-60.791Q54.0527-60.791 55.4199-59.4727L73.4863-41.4551L91.6504-59.5215Q93.0176-60.8887 94.7754-60.8887Q96.6309-60.8887 97.9492-59.5947Q99.2676-58.3008 99.2676-56.4941Q99.2676-54.5898 97.9492-53.2715L79.8828-35.2051L97.9004-17.2363Q99.2188-15.9668 99.2188-14.0137Q99.2188-12.1094 97.9004-10.791Q96.582-9.47266 94.6777-9.47266Q92.7246-9.47266 91.4551-10.8398L73.4863-28.8574L55.5664-10.8398Q54.1992-9.47266 52.2949-9.47266Z"/>
  </g>
  <g id="Light-L" transform="matrix(1 0 0 1 1080.5 1556)">
   <path class="multicolor-0:systemRedColor hierarchical-0:tertiary SFSymbolsPreviewFF3B30" d="M34.0332 21.4355L111.182 21.4355Q120.117 21.4355 124.658 16.8945Q129.199 12.3535 129.199 3.56445L129.199-73.8281Q129.199-82.6172 124.658-87.1582Q120.117-91.6992 111.182-91.6992L34.0332-91.6992Q25.1465-91.6992 20.6055-87.207Q16.0645-82.7148 16.0645-73.8281L16.0645 3.56445Q16.0645 12.4023 20.6055 16.9189Q25.1465 21.4355 34.0332 21.4355Z"/>
   <path class="multicolor-1:white hierarchical-1:primary SFSymbolsPreviewFFFFFF" d="M51.416-10.4492Q49.9023-10.4492 48.9014-11.4502Q47.9004-12.4512 47.9004-13.916Q47.9004-15.3809 48.9746-16.4551L67.7246-35.2051L48.9746-53.9551Q47.9004-55.0293 47.9004-56.4941Q47.9004-57.9102 48.9014-58.8867Q49.9023-59.8633 51.416-59.8633Q52.7832-59.8633 53.9062-58.7402L72.6562-40.0879L91.4062-58.7891Q92.5293-59.9121 93.9453-59.9121Q95.4102-59.9121 96.4355-58.9111Q97.4609-57.9102 97.4609-56.543Q97.4609-55.0293 96.3867-53.9551L77.5879-35.2051L96.3379-16.5039Q97.4121-15.4297 97.4121-13.916Q97.4121-12.4512 96.3867-11.4502Q95.3613-10.4492 93.8965-10.4492Q92.334-10.4492 91.3086-11.5723L72.6562-30.2734L54.0527-11.5723Q52.8809-10.4492 51.416-10.4492Z"/>
  </g>
  <g id="Thin-L" transform="matrix(1 0 0 1 784.889 1556)">
   <path class="multicolor-0:systemRedColor hierarchical-0:tertiary SFSymbolsPreviewFF3B30" d="M32.666 20.3613L110.352 20.3613Q118.506 20.3613 122.754 16.0889Q127.002 11.8164 127.002 3.75977L127.002-73.9746Q127.002-82.0312 122.754-86.3037Q118.506-90.5762 110.352-90.5762L32.666-90.5762Q24.5117-90.5762 20.2881-86.377Q16.0645-82.1777 16.0645-73.9746L16.0645 3.75977Q16.0645 11.9141 20.2881 16.1377Q24.5117 20.3613 32.666 20.3613Z"/>
   <path class="multicolor-1:white hierarchical-1:primary SFSymbolsPreviewFFFFFF" d="M50.2441-11.7676Q49.3164-11.7676 48.6816-12.3535Q48.0469-12.9395 48.0469-13.8184Q48.0469-14.7461 48.7793-15.4785L68.457-35.2051L48.7793-54.8828Q48.0469-55.6152 48.0469-56.5918Q48.0469-57.4219 48.6816-58.0078Q49.3164-58.5938 50.2441-58.5938Q51.1719-58.5938 51.9531-57.7637L71.5332-38.2324L91.1133-57.8125Q91.9434-58.5938 92.8223-58.5938Q93.7988-58.5938 94.4336-58.0078Q95.0684-57.4219 95.0684-56.543Q95.0684-55.6152 94.3359-54.8828L74.6094-35.2051L94.3359-15.5273Q95.0195-14.7949 95.0195-13.8184Q95.0195-12.9395 94.3848-12.3535Q93.75-11.7676 92.8711-11.7676Q91.8945-11.7676 91.1133-12.5488L71.5332-32.1289L52.002-12.5488Q51.1719-11.7676 50.2441-11.7676Z"/>
  </g>
  <g id="Ultralight-L" transform="matrix(1 0 0 1 488.739 1556)">
   <path class="multicolor-0:systemRedColor hierarchical-0:tertiary SFSymbolsPreviewFF3B30" d="M31.9824 19.8242L109.961 19.8242Q117.725 19.8242 121.802 15.6738Q125.879 11.5234 125.879 3.85742L125.879-74.0723Q125.879-81.7383 121.802-85.8643Q117.725-89.9902 109.961-89.9902L31.9824-89.9902Q24.1699-89.9902 20.1172-85.9375Q16.0645-81.8848 16.0645-74.0723L16.0645 3.85742Q16.0645 11.6699 20.1172 15.7471Q24.1699 19.8242 31.9824 19.8242Z"/>
   <path class="multicolor-1:white hierarchical-1:primary SFSymbolsPreviewFFFFFF" d="M49.707-12.4023Q49.0234-12.4023 48.584-12.793Q48.1445-13.1836 48.1445-13.7695Q48.1445-14.4531 48.6816-14.9902L68.8965-35.2051L48.6816-55.3711Q48.1445-55.957 48.1445-56.6406Q48.1445-57.2266 48.584-57.5928Q49.0234-57.959 49.707-57.959Q50.3418-57.959 50.9766-57.2754L70.9961-37.3047L91.0156-57.2754Q91.6504-57.959 92.2852-57.959Q92.9688-57.959 93.4082-57.5684Q93.8477-57.1777 93.8477-56.5918Q93.8477-55.9082 93.3105-55.3711L73.0957-35.2051L93.3105-14.9902Q93.8477-14.4043 93.8477-13.7695Q93.8477-13.1836 93.4082-12.793Q92.9688-12.4023 92.334-12.4023Q91.6504-12.4023 91.0156-13.0859L70.9961-33.0566L51.0254-13.0859Q50.3418-12.4023 49.707-12.4023Z"/>
  </g>
  <g id="Black-M" transform="matrix(1 0 0 1 2872.54 1126)">
   <path class="multicolor-0:systemRedColor hierarchical-0:tertiary SFSymbolsPreviewFF3B30" d="M31.5918 13.2324L90.1367 13.2324Q99.1699 13.2324 104.224 8.17871Q109.277 3.125 109.277-5.9082L109.277-64.4531Q109.277-73.5352 104.224-78.5645Q99.1699-83.5938 90.1367-83.5938L31.5918-83.5938Q22.5586-83.5938 17.5049-78.5645Q12.4512-73.5352 12.4512-64.4531L12.4512-5.9082Q12.4512 3.125 17.5049 8.17871Q22.5586 13.2324 31.5918 13.2324Z"/>
   <path class="multicolor-1:white hierarchical-1:primary SFSymbolsPreviewFFFFFF" d="M47.1191-13.8184Q44.0918-13.8184 42.041-15.8936Q39.9902-17.9688 39.9902-21.0449Q39.9902-23.877 42.1387-25.9277L51.3184-35.1562L42.1387-44.3359Q39.9902-46.4355 39.9902-49.2676Q39.9902-52.3438 42.041-54.3945Q44.0918-56.4453 47.1191-56.4453Q50.3418-56.4453 52.4902-54.3457L61.4746-45.3613L70.5078-54.3457Q72.6074-56.4453 75.8789-56.4453Q78.9062-56.4453 80.957-54.3945Q83.0078-52.3438 83.0078-49.2676Q83.0078-46.4355 80.8105-44.3359L71.7285-35.1562L80.8105-25.9277Q83.0078-23.877 83.0078-21.0449Q83.0078-17.9688 80.957-15.8936Q78.9062-13.8184 75.8301-13.8184Q72.6074-13.8184 70.5078-15.9668L61.4746-24.8535L52.4902-15.9668Q50.3906-13.8184 47.1191-13.8184Z"/>
  </g>
  <g id="Heavy-M" transform="matrix(1 0 0 1 2576.65 1126)">
   <path class="multicolor-0:systemRedColor hierarchical-0:tertiary SFSymbolsPreviewFF3B30" d="M30.7129 12.4023L89.4043 12.4023Q98.0957 12.4023 102.856 7.66602Q107.617 2.92969 107.617-5.76172L107.617-64.5996Q107.617-73.291 102.856-78.0273Q98.0957-82.7637 89.4043-82.7637L30.7129-82.7637Q21.9727-82.7637 17.2119-78.0273Q12.4512-73.291 12.4512-64.5996L12.4512-5.76172Q12.4512 2.92969 17.2119 7.66602Q21.9727 12.4023 30.7129 12.4023Z"/>
   <path class="multicolor-1:white hierarchical-1:primary SFSymbolsPreviewFFFFFF" d="M45.7031-14.0137Q43.0176-14.0137 41.1621-15.8936Q39.3066-17.7734 39.3066-20.5078Q39.3066-23.0469 41.2109-24.9023L51.4648-35.1562L41.2109-45.3613Q39.3066-47.2656 39.3066-49.8047Q39.3066-52.5391 41.1621-54.3945Q43.0176-56.25 45.7031-56.25Q48.5352-56.25 50.4883-54.3457L60.5469-44.2871L70.7031-54.3945Q72.5586-56.25 75.4395-56.25Q78.1738-56.25 80.0049-54.4189Q81.8359-52.5879 81.8359-49.8535Q81.8359-47.2656 79.8828-45.3613L69.7266-35.1562L79.8828-24.9023Q81.8359-23.0957 81.8359-20.5078Q81.8359-17.7734 79.9805-15.8936Q78.125-14.0137 75.3906-14.0137Q72.5098-14.0137 70.6543-15.9668L60.5469-25.9277L50.4883-15.9668Q48.6328-14.0137 45.7031-14.0137Z"/>
  </g>
  <g id="Bold-M" transform="matrix(1 0 0 1 2280.85 1126)">
   <path class="multicolor-0:systemRedColor hierarchical-0:tertiary SFSymbolsPreviewFF3B30" d="M29.6875 11.5234L88.5742 11.5234Q96.9238 11.5234 101.367 7.10449Q105.811 2.68555 105.811-5.66406L105.811-64.7461Q105.811-73.0469 101.367-77.4658Q96.9238-81.8848 88.5742-81.8848L29.6875-81.8848Q21.3379-81.8848 16.8945-77.4658Q12.4512-73.0469 12.4512-64.7461L12.4512-5.66406Q12.4512 2.68555 16.8945 7.10449Q21.3379 11.5234 29.6875 11.5234Z"/>
   <path class="multicolor-1:white hierarchical-1:primary SFSymbolsPreviewFFFFFF" d="M44.0918-14.3066Q41.748-14.3066 40.1367-15.9424Q38.5254-17.5781 38.5254-19.9219Q38.5254-22.168 40.1855-23.7793L51.5625-35.2051L40.1855-46.5332Q38.5254-48.1934 38.5254-50.4395Q38.5254-52.832 40.1367-54.4189Q41.748-56.0059 44.0918-56.0059Q46.5332-56.0059 48.1934-54.3945L59.5215-43.1152L70.8984-54.4434Q72.5098-56.0547 74.9512-56.0547Q77.2949-56.0547 78.9062-54.4434Q80.5176-52.832 80.5176-50.4883Q80.5176-48.2422 78.8574-46.582L67.4805-35.2051L78.8086-23.8281Q80.5176-22.2656 80.5176-19.9219Q80.5176-17.5781 78.9062-15.9424Q77.2949-14.3066 74.9023-14.3066Q72.4121-14.3066 70.8008-15.9668L59.5215-27.1973L48.291-15.9668Q46.6309-14.3066 44.0918-14.3066Z"/>
  </g>
  <g id="Semibold-M" transform="matrix(1 0 0 1 1984.77 1126)">
   <path class="multicolor-0:systemRedColor hierarchical-0:tertiary SFSymbolsPreviewFF3B30" d="M29.0039 10.8887L87.9883 10.8887Q96.0938 10.8887 100.317 6.68945Q104.541 2.49023 104.541-5.51758L104.541-64.8438Q104.541-72.8516 100.317-77.0508Q96.0938-81.25 87.9883-81.25L29.0039-81.25Q20.8984-81.25 16.6748-77.0508Q12.4512-72.8516 12.4512-64.8438L12.4512-5.51758Q12.4512 2.49023 16.6748 6.68945Q20.8984 10.8887 29.0039 10.8887Z"/>
   <path class="multicolor-1:white hierarchical-1:primary SFSymbolsPreviewFFFFFF" d="M42.9199-14.4531Q40.8203-14.4531 39.3799-15.918Q37.9395-17.3828 37.9395-19.5312Q37.9395-21.5332 39.4043-22.998L51.6113-35.2051L39.4043-47.3145Q37.9395-48.8281 37.9395-50.8301Q37.9395-52.9785 39.3799-54.4189Q40.8203-55.8594 42.9199-55.8594Q45.0684-55.8594 46.582-54.3945L58.7402-42.2852L70.9473-54.4434Q72.4121-55.9082 74.5605-55.9082Q76.6602-55.9082 78.1006-54.4678Q79.541-53.0273 79.541-50.8789Q79.541-48.877 78.0762-47.3633L65.8691-35.2051L78.0273-23.0469Q79.541-21.6309 79.541-19.5312Q79.541-17.3828 78.0762-15.918Q76.6113-14.4531 74.4629-14.4531Q72.2656-14.4531 70.8008-15.918L58.7402-28.0273L46.6797-15.918Q45.166-14.4531 42.9199-14.4531Z"/>
  </g>
  <g id="Medium-M" transform="matrix(1 0 0 1 1688.52 1126)">
   <path class="multicolor-0:systemRedColor hierarchical-0:tertiary SFSymbolsPreviewFF3B30" d="M28.4668 10.4004L87.5977 10.4004Q95.5078 10.4004 99.5605 6.37207Q103.613 2.34375 103.613-5.46875L103.613-64.8926Q103.613-72.7539 99.5605-76.7578Q95.5078-80.7617 87.5977-80.7617L28.4668-80.7617Q20.5566-80.7617 16.5039-76.7578Q12.4512-72.7539 12.4512-64.8926L12.4512-5.46875Q12.4512 2.34375 16.5039 6.37207Q20.5566 10.4004 28.4668 10.4004Z"/>
   <path class="multicolor-1:white hierarchical-1:primary SFSymbolsPreviewFFFFFF" d="M42.1387-14.5996Q40.1855-14.5996 38.8672-15.9424Q37.5488-17.2852 37.5488-19.1895Q37.5488-21.0938 38.916-22.4121L51.6602-35.2051L38.916-47.9492Q37.5488-49.3164 37.5488-51.1719Q37.5488-53.125 38.8672-54.4189Q40.1855-55.7129 42.1387-55.7129Q43.9941-55.7129 45.4102-54.4434L58.2031-41.6992L71.0938-54.4434Q72.4121-55.8105 74.3164-55.8105Q76.2207-55.8105 77.5635-54.4678Q78.9062-53.125 78.9062-51.2207Q78.9062-49.3652 77.5391-47.998L64.7461-35.2051L77.4902-22.4609Q78.8574-21.1914 78.8574-19.1895Q78.8574-17.2852 77.5146-15.9424Q76.1719-14.5996 74.2188-14.5996Q72.2168-14.5996 70.8984-15.918L58.2031-28.6621L45.5078-15.918Q44.1406-14.5996 42.1387-14.5996Z"/>
  </g>
  <g id="Regular-M" transform="matrix(1 0 0 1 1392.45 1126)">
   <path class="multicolor-0:systemRedColor hierarchical-0:tertiary SFSymbolsPreviewFF3B30" d="M27.7832 9.76562L87.0117 9.76562Q94.6777 9.76562 98.5107 5.98145Q102.344 2.19727 102.344-5.37109L102.344-64.9902Q102.344-72.5586 98.5107-76.3428Q94.6777-80.127 87.0117-80.127L27.7832-80.127Q20.1172-80.127 16.2842-76.3428Q12.4512-72.5586 12.4512-64.9902L12.4512-5.37109Q12.4512 2.19727 16.2842 5.98145Q20.1172 9.76562 27.7832 9.76562Z"/>
   <path class="multicolor-1:white hierarchical-1:primary SFSymbolsPreviewFFFFFF" d="M41.0156-14.7461Q39.3555-14.7461 38.1836-15.9424Q37.0117-17.1387 37.0117-18.7988Q37.0117-20.459 38.1836-21.6309L51.7578-35.2051L38.1836-48.7305Q37.0117-49.9512 37.0117-51.5625Q37.0117-53.2715 38.1836-54.4189Q39.3555-55.5664 41.0156-55.5664Q42.627-55.5664 43.8477-54.4434L57.4707-40.8691L71.1914-54.4922Q72.3633-55.6641 73.9746-55.6641Q75.6348-55.6641 76.8066-54.4922Q77.9785-53.3203 77.9785-51.6602Q77.9785-50 76.8066-48.7793L63.1836-35.2051L76.7578-21.6797Q77.9297-20.6055 77.9297-18.7988Q77.9297-17.1387 76.7578-15.9424Q75.5859-14.7461 73.877-14.7461Q72.1191-14.7461 70.9961-15.918L57.4707-29.4922L43.9941-15.918Q42.7734-14.7461 41.0156-14.7461Z"/>
  </g>
  <g id="Light-M" transform="matrix(1 0 0 1 1096.47 1126)">
   <path class="multicolor-0:systemRedColor hierarchical-0:tertiary SFSymbolsPreviewFF3B30" d="M26.8555 9.0332L86.4746 9.0332Q93.6035 9.0332 97.2412 5.44434Q100.879 1.85547 100.879-5.22461L100.879-65.0879Q100.879-72.168 97.2412-75.7812Q93.6035-79.3945 86.4746-79.3945L26.8555-79.3945Q19.6777-79.3945 16.0645-75.8057Q12.4512-72.2168 12.4512-65.0879L12.4512-5.22461Q12.4512 1.85547 16.0645 5.44434Q19.6777 9.0332 26.8555 9.0332Z"/>
   <path class="multicolor-1:white hierarchical-1:primary SFSymbolsPreviewFFFFFF" d="M40.2344-15.625Q38.916-15.625 38.0127-16.5527Q37.1094-17.4805 37.1094-18.75Q37.1094-20.0684 38.0371-20.9961L52.2461-35.2051L38.0371-49.3652Q37.1094-50.3418 37.1094-51.6602Q37.1094-52.9297 38.0127-53.833Q38.916-54.7363 40.2344-54.7363Q41.5039-54.7363 42.5293-53.8086L56.7383-39.6484L70.9961-53.8086Q71.9238-54.7852 73.2422-54.7852Q74.5117-54.7852 75.4395-53.8818Q76.3672-52.9785 76.3672-51.709Q76.3672-50.3906 75.3906-49.4141L61.1816-35.2051L75.3906-21.0449Q76.3184-20.166 76.3184-18.75Q76.3184-17.4805 75.415-16.5527Q74.5117-15.625 73.1445-15.625Q71.7773-15.625 70.8496-16.6016L56.7383-30.7617L42.627-16.6016Q41.6016-15.625 40.2344-15.625Z"/>
  </g>
  <g id="Thin-M" transform="matrix(1 0 0 1 800.758 1126)">
   <path class="multicolor-0:systemRedColor hierarchical-0:tertiary SFSymbolsPreviewFF3B30" d="M25.5859 8.05664L85.6934 8.05664Q92.2363 8.05664 95.5566 4.71191Q98.877 1.36719 98.877-5.07812L98.877-65.2344Q98.877-71.6309 95.5566-75Q92.2363-78.3691 85.6934-78.3691L25.5859-78.3691Q19.1406-78.3691 15.7959-75.0488Q12.4512-71.7285 12.4512-65.2344L12.4512-5.07812Q12.4512 1.41602 15.7959 4.73633Q19.1406 8.05664 25.5859 8.05664Z"/>
   <path class="multicolor-1:white hierarchical-1:primary SFSymbolsPreviewFFFFFF" d="M39.1602-16.7969Q38.3789-16.7969 37.793-17.334Q37.207-17.8711 37.207-18.6523Q37.207-19.5312 37.8418-20.166L52.8809-35.2051L37.8418-50.2441Q37.207-50.8789 37.207-51.7578Q37.207-52.5391 37.793-53.0762Q38.3789-53.6133 39.1602-53.6133Q39.9902-53.6133 40.7227-52.9297L55.7129-37.9883L70.7031-52.9297Q71.3867-53.6133 72.2168-53.6133Q72.998-53.6133 73.584-53.0762Q74.1699-52.5391 74.1699-51.7578Q74.1699-50.9277 73.5352-50.2441L58.4473-35.2051L73.5352-20.166Q74.1699-19.5312 74.1699-18.6523Q74.1699-17.8711 73.584-17.334Q72.998-16.7969 72.168-16.7969Q71.3379-16.7969 70.6055-17.4805L55.7129-32.4219L40.7227-17.4805Q40.0391-16.7969 39.1602-16.7969Z"/>
  </g>
  <g id="Ultralight-M" transform="matrix(1 0 0 1 504.535 1126)">
   <path class="multicolor-0:systemRedColor hierarchical-0:tertiary SFSymbolsPreviewFF3B30" d="M24.9512 7.56836L85.3516 7.56836Q91.5039 7.56836 94.7021 4.3457Q97.9004 1.12305 97.9004-4.98047L97.9004-65.332Q97.9004-71.3867 94.7021-74.6338Q91.5039-77.8809 85.3516-77.8809L24.9512-77.8809Q18.8477-77.8809 15.6494-74.6826Q12.4512-71.4844 12.4512-65.332L12.4512-4.98047Q12.4512 1.2207 15.6494 4.39453Q18.8477 7.56836 24.9512 7.56836Z"/>
   <path class="multicolor-1:white hierarchical-1:primary SFSymbolsPreviewFFFFFF" d="M38.6719-17.3828Q38.0859-17.3828 37.6953-17.749Q37.3047-18.1152 37.3047-18.6035Q37.3047-19.2383 37.793-19.7266L53.2715-35.2051L37.793-50.6836Q37.3047-51.1719 37.3047-51.8066Q37.3047-52.2949 37.6953-52.6611Q38.0859-53.0273 38.6719-53.0273Q39.3066-53.0273 39.8438-52.4902L55.2246-37.1582L70.5566-52.4902Q71.0938-53.0273 71.7285-53.0273Q72.3145-53.0273 72.7051-52.6855Q73.0957-52.3438 73.0957-51.8066Q73.0957-51.1719 72.6074-50.6836L57.1289-35.2051L72.6562-19.7266Q73.0957-19.2383 73.0957-18.6035Q73.0957-18.1152 72.7051-17.749Q72.3145-17.3828 71.7285-17.3828Q71.1426-17.3828 70.5566-17.9199L55.2246-33.252L39.8438-17.9199Q39.3066-17.3828 38.6719-17.3828Z"/>
  </g>
  <g id="Black-S" transform="matrix(1 0 0 1 2885.5 696)">
   <path class="multicolor-0:systemRedColor hierarchical-0:tertiary SFSymbolsPreviewFF3B30" d="M25 2.92969L70.8008 2.92969Q77.9785 2.92969 82.0068-1.09863Q86.0352-5.12695 86.0352-12.3047L86.0352-58.1055Q86.0352-65.2832 82.0068-69.3115Q77.9785-73.3398 70.8008-73.3398L25-73.3398Q17.8223-73.3398 13.7939-69.3115Q9.76562-65.2832 9.76562-58.1055L9.76562-12.3047Q9.76562-5.12695 13.7939-1.09863Q17.8223 2.92969 25 2.92969Z"/>
   <path class="multicolor-1:white hierarchical-1:primary SFSymbolsPreviewFFFFFF" d="M37.3047-18.457Q34.8633-18.457 33.2031-20.1172Q31.543-21.7773 31.543-24.2676Q31.543-26.5625 33.3008-28.2227L40.1855-35.1562L33.3008-42.0898Q31.543-43.75 31.543-46.0449Q31.543-48.5352 33.2031-50.1953Q34.8633-51.8555 37.3047-51.8555Q39.9414-51.8555 41.6504-50.1465L48.3887-43.4082L55.1758-50.1465Q56.8848-51.8555 59.5215-51.8555Q61.9629-51.8555 63.623-50.1953Q65.2832-48.5352 65.2832-46.0449Q65.2832-43.75 63.5254-42.0898L56.6895-35.1562L63.5254-28.2227Q65.2832-26.5625 65.2832-24.2676Q65.2832-21.7773 63.623-20.1172Q61.9629-18.457 59.5215-18.457Q56.8848-18.457 55.1758-20.166L48.3887-26.8555L41.6504-20.166Q39.9414-18.457 37.3047-18.457Z"/>
  </g>
  <g id="Heavy-S" transform="matrix(1 0 0 1 2589.4 696)">
   <path class="multicolor-0:systemRedColor hierarchical-0:tertiary SFSymbolsPreviewFF3B30" d="M24.3652 2.34375L70.2637 2.34375Q77.1973 2.34375 81.0059-1.46484Q84.8145-5.27344 84.8145-12.207L84.8145-58.2031Q84.8145-65.1367 81.0059-68.9453Q77.1973-72.7539 70.2637-72.7539L24.3652-72.7539Q17.3828-72.7539 13.5742-68.9453Q9.76562-65.1367 9.76562-58.2031L9.76562-12.207Q9.76562-5.27344 13.5742-1.46484Q17.3828 2.34375 24.3652 2.34375Z"/>
   <path class="multicolor-1:white hierarchical-1:primary SFSymbolsPreviewFFFFFF" d="M36.1328-18.5059Q33.9355-18.5059 32.4219-20.0439Q30.9082-21.582 30.9082-23.8281Q30.9082-25.9277 32.4707-27.4414L40.1855-35.1562L32.4707-42.9199Q30.9082-44.3848 30.9082-46.4844Q30.9082-48.7793 32.4219-50.293Q33.9355-51.8066 36.1328-51.8066Q38.4766-51.8066 40.0391-50.2441L47.6562-42.6758L55.3223-50.2441Q56.8848-51.8066 59.2285-51.8066Q61.4258-51.8066 62.9395-50.293Q64.4531-48.7793 64.4531-46.5332Q64.4531-44.4336 62.8906-42.9199L55.2246-35.1562L62.8418-27.4414Q64.4531-25.9277 64.4531-23.8281Q64.4531-21.582 62.9395-20.0439Q61.4258-18.5059 59.1797-18.5059Q56.7871-18.5059 55.2734-20.0684L47.6562-27.6367L40.0879-20.0684Q38.5254-18.5059 36.1328-18.5059Z"/>
  </g>
  <g id="Bold-S" transform="matrix(1 0 0 1 2293.35 696)">
   <path class="multicolor-0:systemRedColor hierarchical-0:tertiary SFSymbolsPreviewFF3B30" d="M23.6328 1.66016L69.6289 1.66016Q76.3672 1.66016 79.9316-1.9043Q83.4961-5.46875 83.4961-12.1094L83.4961-58.3008Q83.4961-64.9902 79.9316-68.5303Q76.3672-72.0703 69.6289-72.0703L23.6328-72.0703Q16.9434-72.0703 13.3545-68.5303Q9.76562-64.9902 9.76562-58.3008L9.76562-12.1094Q9.76562-5.46875 13.3545-1.9043Q16.9434 1.66016 23.6328 1.66016Z"/>
   <path class="multicolor-1:white hierarchical-1:primary SFSymbolsPreviewFFFFFF" d="M34.9121-18.6035Q32.959-18.6035 31.5918-19.9707Q30.2246-21.3379 30.2246-23.3398Q30.2246-25.2441 31.6406-26.5625L40.2344-35.2051L31.6406-43.7988Q30.2246-45.166 30.2246-47.0215Q30.2246-49.0234 31.5918-50.3662Q32.959-51.709 34.9121-51.709Q36.9141-51.709 38.2812-50.3906L46.875-41.8457L55.5176-50.3906Q56.8848-51.7578 58.8867-51.7578Q60.8887-51.7578 62.2314-50.415Q63.5742-49.0723 63.5742-47.0703Q63.5742-45.166 62.1582-43.8477L53.5645-35.2051L62.1582-26.6113Q63.5742-25.293 63.5742-23.3398Q63.5742-21.3379 62.207-19.9707Q60.8398-18.6035 58.8379-18.6035Q56.7383-18.6035 55.4199-19.9707L46.875-28.5156L38.3789-19.9707Q37.0117-18.6035 34.9121-18.6035Z"/>
  </g>
  <g id="Semibold-S" transform="matrix(1 0 0 1 1997.12 696)">
   <path class="multicolor-0:systemRedColor hierarchical-0:tertiary SFSymbolsPreviewFF3B30" d="M23.0957 1.2207L69.1895 1.2207Q75.7324 1.2207 79.126-2.17285Q82.5195-5.56641 82.5195-12.0605L82.5195-58.3496Q82.5195-64.8438 79.126-68.2373Q75.7324-71.6309 69.1895-71.6309L23.0957-71.6309Q16.6016-71.6309 13.1836-68.2373Q9.76562-64.8438 9.76562-58.3496L9.76562-12.0605Q9.76562-5.56641 13.1836-2.17285Q16.6016 1.2207 23.0957 1.2207Z"/>
   <path class="multicolor-1:white hierarchical-1:primary SFSymbolsPreviewFFFFFF" d="M33.9844-18.6523Q32.2266-18.6523 30.9814-19.9219Q29.7363-21.1914 29.7363-22.998Q29.7363-24.707 31.0059-25.9766L40.2344-35.2051L31.0059-44.4336Q29.7363-45.6543 29.7363-47.3633Q29.7363-49.2188 30.9814-50.4395Q32.2266-51.6602 33.9844-51.6602Q35.791-51.6602 37.0605-50.4395L46.2891-41.2598L55.6152-50.4883Q56.8359-51.709 58.6426-51.709Q60.4492-51.709 61.6943-50.4639Q62.9395-49.2188 62.9395-47.4609Q62.9395-45.7031 61.6699-44.4336L52.4414-35.2051L61.6211-25.9766Q62.8906-24.8047 62.8906-22.998Q62.8906-21.1914 61.6455-19.9219Q60.4004-18.6523 58.5938-18.6523Q56.6895-18.6523 55.4688-19.9219L46.2891-29.1016L37.1582-19.9219Q35.8887-18.6523 33.9844-18.6523Z"/>
  </g>
  <g id="Medium-S" transform="matrix(1 0 0 1 1700.75 696)">
   <path class="multicolor-0:systemRedColor hierarchical-0:tertiary SFSymbolsPreviewFF3B30" d="M22.7051 0.830078L68.8965 0.830078Q75.293 0.830078 78.5645-2.41699Q81.8359-5.66406 81.8359-11.9629L81.8359-58.4473Q81.8359-64.7461 78.5645-67.9932Q75.293-71.2402 68.8965-71.2402L22.7051-71.2402Q16.3574-71.2402 13.0615-67.9932Q9.76562-64.7461 9.76562-58.4473L9.76562-11.9629Q9.76562-5.66406 13.0615-2.41699Q16.3574 0.830078 22.7051 0.830078Z"/>
   <path class="multicolor-1:white hierarchical-1:primary SFSymbolsPreviewFFFFFF" d="M33.3496-18.7012Q31.6895-18.7012 30.542-19.873Q29.3945-21.0449 29.3945-22.7539Q29.3945-24.3652 30.5664-25.4883L40.2344-35.2051L30.5664-44.873Q29.3945-46.0449 29.3945-47.6562Q29.3945-49.3164 30.542-50.4639Q31.6895-51.6113 33.3496-51.6113Q35.0098-51.6113 36.1328-50.4883L45.8984-40.8203L55.7129-50.5371Q56.8359-51.709 58.4961-51.709Q60.1562-51.709 61.3281-50.5371Q62.5-49.3652 62.5-47.7051Q62.5-46.0938 61.2793-44.9219L51.5625-35.2051L61.2793-25.5371Q62.4512-24.4629 62.4512-22.7539Q62.4512-21.0449 61.2793-19.873Q60.1074-18.7012 58.3984-18.7012Q56.6406-18.7012 55.5664-19.8242L45.8984-29.541L36.2793-19.8242Q35.1074-18.7012 33.3496-18.7012Z"/>
  </g>
  <g id="Regular-S" transform="matrix(1 0 0 1 1404.51 696)">
   <path class="multicolor-0:systemRedColor hierarchical-0:tertiary SFSymbolsPreviewFF3B30" d="M22.2168 0.390625L68.457 0.390625Q74.707 0.390625 77.8076-2.68555Q80.9082-5.76172 80.9082-11.9141L80.9082-58.4961Q80.9082-64.6484 77.8076-67.7246Q74.707-70.8008 68.457-70.8008L22.2168-70.8008Q16.0156-70.8008 12.8906-67.7246Q9.76562-64.6484 9.76562-58.4961L9.76562-11.9141Q9.76562-5.76172 12.8906-2.68555Q16.0156 0.390625 22.2168 0.390625Z"/>
   <path class="multicolor-1:white hierarchical-1:primary SFSymbolsPreviewFFFFFF" d="M32.4707-18.75Q31.0059-18.75 29.9561-19.8242Q28.9062-20.8984 28.9062-22.4121Q28.9062-23.877 29.9316-24.9023L40.2344-35.2051L29.9316-45.5078Q28.9062-46.5332 28.9062-47.998Q28.9062-49.5117 29.9561-50.5371Q31.0059-51.5625 32.4707-51.5625Q33.8867-51.5625 34.9121-50.5859L45.3125-40.2344L55.8105-50.6348Q56.8359-51.6602 58.252-51.6602Q59.7656-51.6602 60.8154-50.6104Q61.8652-49.5605 61.8652-48.0957Q61.8652-46.582 60.791-45.5566L50.4395-35.2051L60.7422-24.9512Q61.8164-23.9746 61.8164-22.4121Q61.8164-20.8984 60.7422-19.8242Q59.668-18.75 58.1543-18.75Q56.5918-18.75 55.6152-19.7754L45.3125-30.127L35.0586-19.7754Q34.0332-18.75 32.4707-18.75Z"/>
  </g>
  <g id="Light-S" transform="matrix(1 0 0 1 1108.46 696)">
   <path class="multicolor-0:systemRedColor hierarchical-0:tertiary SFSymbolsPreviewFF3B30" d="M21.3867-0.244141L67.9688-0.244141Q73.7793-0.244141 76.6846-3.17383Q79.5898-6.10352 79.5898-11.8164L79.5898-58.5938Q79.5898-64.3066 76.6846-67.2119Q73.7793-70.1172 67.9688-70.1172L21.3867-70.1172Q15.625-70.1172 12.6953-67.2119Q9.76562-64.3066 9.76562-58.5938L9.76562-11.8164Q9.76562-6.05469 12.6953-3.14941Q15.625-0.244141 21.3867-0.244141Z"/>
   <path class="multicolor-1:white hierarchical-1:primary SFSymbolsPreviewFFFFFF" d="M31.7871-19.5312Q30.6641-19.5312 29.834-20.3613Q29.0039-21.1914 29.0039-22.3633Q29.0039-23.4863 29.834-24.3164L40.7227-35.2051L29.834-46.0938Q29.0039-46.9238 29.0039-48.0469Q29.0039-49.2188 29.834-50.0244Q30.6641-50.8301 31.7871-50.8301Q32.9102-50.8301 33.7402-50L44.6777-39.1113L55.6641-50.0488Q56.4941-50.8789 57.6172-50.8789Q58.7891-50.8789 59.6191-50.0732Q60.4492-49.2676 60.4492-48.1445Q60.4492-46.9238 59.5703-46.0938L48.6816-35.2051L59.5215-24.3652Q60.4004-23.584 60.4004-22.3633Q60.4004-21.1914 59.5703-20.3613Q58.7402-19.5312 57.5195-19.5312Q56.2988-19.5312 55.5176-20.3613L44.6777-31.25L33.8379-20.3613Q33.0078-19.5312 31.7871-19.5312Z"/>
  </g>
  <g id="Thin-S" transform="matrix(1 0 0 1 812.623 696)">
   <path class="multicolor-0:systemRedColor hierarchical-0:tertiary SFSymbolsPreviewFF3B30" d="M20.3125-1.12305L67.2852-1.12305Q72.5098-1.12305 75.1709-3.80859Q77.832-6.49414 77.832-11.6211L77.832-58.6914Q77.832-63.8184 75.1709-66.5283Q72.5098-69.2383 67.2852-69.2383L20.3125-69.2383Q15.0879-69.2383 12.4268-66.5771Q9.76562-63.916 9.76562-58.6914L9.76562-11.6211Q9.76562-6.44531 12.4268-3.78418Q15.0879-1.12305 20.3125-1.12305Z"/>
   <path class="multicolor-1:white hierarchical-1:primary SFSymbolsPreviewFFFFFF" d="M30.8594-20.5566Q30.127-20.5566 29.6143-21.0449Q29.1016-21.5332 29.1016-22.2656Q29.1016-22.998 29.6875-23.584L41.3086-35.2051L29.6875-46.8262Q29.1016-47.4121 29.1016-48.1445Q29.1016-48.877 29.6143-49.3652Q30.127-49.8535 30.8594-49.8535Q31.5918-49.8535 32.1777-49.2676L43.7988-37.6465L55.4199-49.2676Q55.957-49.8535 56.7383-49.8535Q57.4707-49.8535 57.9834-49.3652Q58.4961-48.877 58.4961-48.1445Q58.4961-47.4121 57.9102-46.875L46.2891-35.2051L57.9102-23.584Q58.4961-23.0469 58.4961-22.2656Q58.4961-21.5332 57.959-21.0449Q57.4219-20.5566 56.6895-20.5566Q55.9082-20.5566 55.3711-21.1426L43.7988-32.7148L32.2266-21.1426Q31.6406-20.5566 30.8594-20.5566Z"/>
  </g>
  <g id="Ultralight-S" transform="matrix(1 0 0 1 516.352 696)">
   <path class="multicolor-0:systemRedColor hierarchical-0:tertiary SFSymbolsPreviewFF3B30" d="M19.7754-1.5625L66.9434-1.5625Q71.875-1.5625 74.4141-4.15039Q76.9531-6.73828 76.9531-11.5723L76.9531-58.7891Q76.9531-63.623 74.4141-66.1865Q71.875-68.75 66.9434-68.75L19.7754-68.75Q14.8438-68.75 12.3047-66.2109Q9.76562-63.6719 9.76562-58.7891L9.76562-11.5723Q9.76562-6.64062 12.3047-4.10156Q14.8438-1.5625 19.7754-1.5625Z"/>
   <path class="multicolor-1:white hierarchical-1:primary SFSymbolsPreviewFFFFFF" d="M30.4688-21.0449Q29.9316-21.0449 29.5654-21.3867Q29.1992-21.7285 29.1992-22.2168Q29.1992-22.7539 29.6387-23.1934L41.6504-35.2051L29.6387-47.2168Q29.1992-47.6562 29.1992-48.1934Q29.1992-48.6816 29.5654-48.999Q29.9316-49.3164 30.4688-49.3164Q30.957-49.3164 31.4453-48.877L43.3594-36.9141L55.3223-48.877Q55.7617-49.3652 56.2988-49.3652Q56.8359-49.3652 57.2021-49.0234Q57.5684-48.6816 57.5684-48.1934Q57.5684-47.6562 57.1289-47.2168L45.1172-35.2051L57.1289-23.1934Q57.5684-22.7539 57.5684-22.2168Q57.5684-21.7285 57.2021-21.3867Q56.8359-21.0449 56.2988-21.0449Q55.7617-21.0449 55.3223-21.5332L43.3594-33.4961L31.4453-21.5332Q30.957-21.0449 30.4688-21.0449Z"/>
  </g>
 </g>
</svg>
