<?xml version="1.0" encoding="UTF-8"?>
<!--Generator: Apple Native CoreSVG 175-->
<!DOCTYPE svg
PUBLIC "-//W3C//DTD SVG 1.1//EN"
       "http://www.w3.org/Graphics/SVG/1.1/DTD/svg11.dtd">
<svg version="1.1" xmlns="http://www.w3.org/2000/svg" xmlns:xlink="http://www.w3.org/1999/xlink" width="3300" height="2200">
 <!--glyph: "uni100174.medium", point size: 100.0, font version: "17.0d11e1", template writer version: "65.1"-->
 <style>.multicolor-0:systemBlueColor {fill:#007AFF;opacity:1.0}

.hierarchical-0:secondary {fill:#4D4D4D}
.hierarchical-1:primary {fill:#212121}

.SFSymbolsPreview007AFF {fill:#007AFF;opacity:1.0}
</style>
 <g id="Notes">
  <rect height="2200" id="artboard" style="fill:white;opacity:1" width="3300" x="0" y="0"/>
  <line style="fill:none;stroke:black;opacity:1;stroke-width:0.5;" x1="263" x2="3036" y1="292" y2="292"/>
  <text style="stroke:none;fill:black;font-family:sans-serif;font-size:13;font-weight:bold;" transform="matrix(1 0 0 1 263 322)">Weight/Scale Variations</text>
  <text style="stroke:none;fill:black;font-family:sans-serif;font-size:13;text-anchor:middle;" transform="matrix(1 0 0 1 559.711 322)">Ultralight</text>
  <text style="stroke:none;fill:black;font-family:sans-serif;font-size:13;text-anchor:middle;" transform="matrix(1 0 0 1 856.422 322)">Thin</text>
  <text style="stroke:none;fill:black;font-family:sans-serif;font-size:13;text-anchor:middle;" transform="matrix(1 0 0 1 1153.13 322)">Light</text>
  <text style="stroke:none;fill:black;font-family:sans-serif;font-size:13;text-anchor:middle;" transform="matrix(1 0 0 1 1449.84 322)">Regular</text>
  <text style="stroke:none;fill:black;font-family:sans-serif;font-size:13;text-anchor:middle;" transform="matrix(1 0 0 1 1746.56 322)">Medium</text>
  <text style="stroke:none;fill:black;font-family:sans-serif;font-size:13;text-anchor:middle;" transform="matrix(1 0 0 1 2043.27 322)">Semibold</text>
  <text style="stroke:none;fill:black;font-family:sans-serif;font-size:13;text-anchor:middle;" transform="matrix(1 0 0 1 2339.98 322)">Bold</text>
  <text style="stroke:none;fill:black;font-family:sans-serif;font-size:13;text-anchor:middle;" transform="matrix(1 0 0 1 2636.69 322)">Heavy</text>
  <text style="stroke:none;fill:black;font-family:sans-serif;font-size:13;text-anchor:middle;" transform="matrix(1 0 0 1 2933.4 322)">Black</text>
  <line style="fill:none;stroke:black;opacity:1;stroke-width:0.5;" x1="263" x2="3036" y1="1903" y2="1903"/>
  <g transform="matrix(1 0 0 1 263 1933)">
   <path d="M9.24805 0.830078Q10.8691 0.830078 12.2949 0.214844Q13.7207-0.400391 14.8096-1.49414Q15.8984-2.58789 16.5186-4.01367Q17.1387-5.43945 17.1387-7.05078Q17.1387-8.66211 16.5186-10.0879Q15.8984-11.5137 14.8047-12.6074Q13.7109-13.7012 12.2852-14.3164Q10.8594-14.9316 9.23828-14.9316Q7.62695-14.9316 6.20117-14.3164Q4.77539-13.7012 3.69141-12.6074Q2.60742-11.5137 1.9873-10.0879Q1.36719-8.66211 1.36719-7.05078Q1.36719-5.43945 1.9873-4.01367Q2.60742-2.58789 3.69629-1.49414Q4.78516-0.400391 6.21094 0.214844Q7.63672 0.830078 9.24805 0.830078ZM9.24805-0.654297Q7.91992-0.654297 6.7627-1.14746Q5.60547-1.64062 4.73145-2.51953Q3.85742-3.39844 3.36426-4.56055Q2.87109-5.72266 2.87109-7.05078Q2.87109-8.37891 3.35938-9.54102Q3.84766-10.7031 4.72168-11.582Q5.5957-12.4609 6.75293-12.9541Q7.91016-13.4473 9.23828-13.4473Q10.5762-13.4473 11.7334-12.9541Q12.8906-12.4609 13.7695-11.582Q14.6484-10.7031 15.1465-9.54102Q15.6445-8.37891 15.6445-7.05078Q15.6445-5.72266 15.1514-4.56055Q14.6582-3.39844 13.7842-2.51953Q12.9102-1.64062 11.748-1.14746Q10.5859-0.654297 9.24805-0.654297ZM5.6543-7.05078Q5.6543-6.72852 5.85938-6.52832Q6.06445-6.32812 6.40625-6.32812L8.51562-6.32812L8.51562-4.20898Q8.51562-3.88672 8.71094-3.67676Q8.90625-3.4668 9.23828-3.4668Q9.56055-3.4668 9.77051-3.67676Q9.98047-3.88672 9.98047-4.20898L9.98047-6.32812L12.0898-6.32812Q12.4219-6.32812 12.627-6.52832Q12.832-6.72852 12.832-7.05078Q12.832-7.38281 12.627-7.58789Q12.4219-7.79297 12.0898-7.79297L9.98047-7.79297L9.98047-9.90234Q9.98047-10.2344 9.77051-10.4443Q9.56055-10.6543 9.23828-10.6543Q8.90625-10.6543 8.71094-10.4443Q8.51562-10.2344 8.51562-9.90234L8.51562-7.79297L6.40625-7.79297Q6.06445-7.79297 5.85938-7.58789Q5.6543-7.38281 5.6543-7.05078Z"/>
  </g>
  <g transform="matrix(1 0 0 1 281.867 1933)">
   <path d="M11.709 2.91016Q13.75 2.91016 15.5518 2.12891Q17.3535 1.34766 18.7305-0.0292969Q20.1074-1.40625 20.8887-3.20801Q21.6699-5.00977 21.6699-7.05078Q21.6699-9.0918 20.8887-10.8936Q20.1074-12.6953 18.7305-14.0723Q17.3535-15.4492 15.5469-16.2305Q13.7402-17.0117 11.6992-17.0117Q9.6582-17.0117 7.85645-16.2305Q6.05469-15.4492 4.68262-14.0723Q3.31055-12.6953 2.5293-10.8936Q1.74805-9.0918 1.74805-7.05078Q1.74805-5.00977 2.5293-3.20801Q3.31055-1.40625 4.6875-0.0292969Q6.06445 1.34766 7.86621 2.12891Q9.66797 2.91016 11.709 2.91016ZM11.709 1.25Q9.98047 1.25 8.47656 0.605469Q6.97266-0.0390625 5.83496-1.17676Q4.69727-2.31445 4.05762-3.81836Q3.41797-5.32227 3.41797-7.05078Q3.41797-8.7793 4.05762-10.2832Q4.69727-11.7871 5.83008-12.9297Q6.96289-14.0723 8.4668-14.7119Q9.9707-15.3516 11.6992-15.3516Q13.4277-15.3516 14.9316-14.7119Q16.4355-14.0723 17.5781-12.9297Q18.7207-11.7871 19.3652-10.2832Q20.0098-8.7793 20.0098-7.05078Q20.0098-5.32227 19.3701-3.81836Q18.7305-2.31445 17.5928-1.17676Q16.4551-0.0390625 14.9463 0.605469Q13.4375 1.25 11.709 1.25ZM7.17773-7.05078Q7.17773-6.69922 7.41211-6.47461Q7.64648-6.25 8.01758-6.25L10.8887-6.25L10.8887-3.36914Q10.8887-2.99805 11.1133-2.76855Q11.3379-2.53906 11.6895-2.53906Q12.0605-2.53906 12.29-2.76855Q12.5195-2.99805 12.5195-3.36914L12.5195-6.25L15.4004-6.25Q15.7715-6.25 16.001-6.47461Q16.2305-6.69922 16.2305-7.05078Q16.2305-7.42188 16.001-7.65137Q15.7715-7.88086 15.4004-7.88086L12.5195-7.88086L12.5195-10.752Q12.5195-11.1328 12.29-11.3623Q12.0605-11.5918 11.6895-11.5918Q11.3379-11.5918 11.1133-11.3574Q10.8887-11.123 10.8887-10.752L10.8887-7.88086L8.01758-7.88086Q7.63672-7.88086 7.40723-7.65137Q7.17773-7.42188 7.17773-7.05078Z"/>
  </g>
  <g transform="matrix(1 0 0 1 305.646 1933)">
   <path d="M14.9707 5.66406Q17.0605 5.66406 18.96 5.01465Q20.8594 4.36523 22.4512 3.19336Q24.043 2.02148 25.2197 0.429688Q26.3965-1.16211 27.0459-3.06641Q27.6953-4.9707 27.6953-7.05078Q27.6953-9.14062 27.0459-11.04Q26.3965-12.9395 25.2197-14.5312Q24.043-16.123 22.4512-17.2998Q20.8594-18.4766 18.9551-19.126Q17.0508-19.7754 14.9609-19.7754Q12.8711-19.7754 10.9717-19.126Q9.07227-18.4766 7.48535-17.2998Q5.89844-16.123 4.72168-14.5312Q3.54492-12.9395 2.90039-11.04Q2.25586-9.14062 2.25586-7.05078Q2.25586-4.9707 2.90527-3.06641Q3.55469-1.16211 4.72656 0.429688Q5.89844 2.02148 7.49023 3.19336Q9.08203 4.36523 10.9814 5.01465Q12.8809 5.66406 14.9707 5.66406ZM14.9707 3.84766Q13.1641 3.84766 11.5283 3.2959Q9.89258 2.74414 8.53516 1.74805Q7.17773 0.751953 6.17676-0.610352Q5.17578-1.97266 4.62891-3.6084Q4.08203-5.24414 4.08203-7.05078Q4.08203-8.86719 4.62891-10.5029Q5.17578-12.1387 6.17188-13.501Q7.16797-14.8633 8.52539-15.8594Q9.88281-16.8555 11.5186-17.4023Q13.1543-17.9492 14.9609-17.9492Q16.7773-17.9492 18.4131-17.4023Q20.0488-16.8555 21.4111-15.8594Q22.7734-14.8633 23.7695-13.501Q24.7656-12.1387 25.3174-10.5029Q25.8691-8.86719 25.8691-7.05078Q25.8789-5.24414 25.332-3.6084Q24.7852-1.97266 23.7842-0.610352Q22.7832 0.751953 21.4209 1.74805Q20.0586 2.74414 18.4229 3.2959Q16.7871 3.84766 14.9707 3.84766ZM9.19922-7.05078Q9.19922-6.66992 9.45801-6.4209Q9.7168-6.17188 10.1172-6.17188L14.0625-6.17188L14.0625-2.2168Q14.0625-1.81641 14.3115-1.55762Q14.5605-1.29883 14.9512-1.29883Q15.3516-1.29883 15.6104-1.55273Q15.8691-1.80664 15.8691-2.2168L15.8691-6.17188L19.8242-6.17188Q20.2246-6.17188 20.4785-6.4209Q20.7324-6.66992 20.7324-7.05078Q20.7324-7.46094 20.4785-7.71484Q20.2246-7.96875 19.8242-7.96875L15.8691-7.96875L15.8691-11.9141Q15.8691-12.3242 15.6104-12.583Q15.3516-12.8418 14.9512-12.8418Q14.5605-12.8418 14.3115-12.583Q14.0625-12.3242 14.0625-11.9141L14.0625-7.96875L10.1172-7.96875Q9.70703-7.96875 9.45312-7.71484Q9.19922-7.46094 9.19922-7.05078Z"/>
  </g>
  <text style="stroke:none;fill:black;font-family:sans-serif;font-size:13;font-weight:bold;" transform="matrix(1 0 0 1 263 1953)">Design Variations</text>
  <text style="stroke:none;fill:black;font-family:sans-serif;font-size:13;" transform="matrix(1 0 0 1 263 1971)">Symbols are supported in up to nine weights and three scales.</text>
  <text style="stroke:none;fill:black;font-family:sans-serif;font-size:13;" transform="matrix(1 0 0 1 263 1989)">For optimal layout with text and other symbols, vertically align</text>
  <text style="stroke:none;fill:black;font-family:sans-serif;font-size:13;" transform="matrix(1 0 0 1 263 2007)">symbols with the adjacent text.</text>
  <line style="fill:none;stroke:#00AEEF;stroke-width:0.5;opacity:1.0;" x1="776" x2="776" y1="1919" y2="1933"/>
  <g transform="matrix(1 0 0 1 776 1933)">
   <path d="M3.31055 0.15625Q3.70117 0.15625 3.91602-0.00976562Q4.13086-0.175781 4.26758-0.585938L5.52734-4.0332L11.2891-4.0332L12.5488-0.585938Q12.6855-0.175781 12.9004-0.00976562Q13.1152 0.15625 13.4961 0.15625Q13.8867 0.15625 14.1162-0.0585938Q14.3457-0.273438 14.3457-0.644531Q14.3457-0.869141 14.2383-1.17188L9.6582-13.3691Q9.48242-13.8184 9.17969-14.043Q8.87695-14.2676 8.4082-14.2676Q7.5-14.2676 7.17773-13.3789L2.59766-1.16211Q2.49023-0.859375 2.49023-0.634766Q2.49023-0.263672 2.70996-0.0537109Q2.92969 0.15625 3.31055 0.15625ZM6.00586-5.51758L8.37891-12.0898L8.42773-12.0898L10.8008-5.51758Z"/>
  </g>
  <line style="fill:none;stroke:#00AEEF;stroke-width:0.5;opacity:1.0;" x1="793.197" x2="793.197" y1="1919" y2="1933"/>
  <text style="stroke:none;fill:black;font-family:sans-serif;font-size:13;font-weight:bold;" transform="matrix(1 0 0 1 776 1953)">Margins</text>
  <text style="stroke:none;fill:black;font-family:sans-serif;font-size:13;" transform="matrix(1 0 0 1 776 1971)">Leading and trailing margins on the left and right side of each symbol</text>
  <text style="stroke:none;fill:black;font-family:sans-serif;font-size:13;" transform="matrix(1 0 0 1 776 1989)">can be adjusted by modifying the x-location of the margin guidelines.</text>
  <text style="stroke:none;fill:black;font-family:sans-serif;font-size:13;" transform="matrix(1 0 0 1 776 2007)">Modifications are automatically applied proportionally to all</text>
  <text style="stroke:none;fill:black;font-family:sans-serif;font-size:13;" transform="matrix(1 0 0 1 776 2025)">scales and weights.</text>
  <g transform="matrix(1 0 0 1 1289 1933)">
   <path d="M2.8418 1.86523L4.54102 3.57422Q5.18555 4.22852 5.90332 4.17969Q6.62109 4.13086 7.31445 3.35938L18.0078-8.42773L17.041-9.4043L6.42578 2.27539Q6.16211 2.57812 5.89355 2.61719Q5.625 2.65625 5.27344 2.30469L4.10156 1.14258Q3.75 0.791016 3.79395 0.522461Q3.83789 0.253906 4.14062-0.0195312L15.6152-10.8203L14.6387-11.7871L3.04688-0.898438Q2.30469-0.214844 2.25098 0.498047Q2.19727 1.21094 2.8418 1.86523ZM9.25781-16.3281Q8.94531-16.0254 8.90625-15.6348Q8.86719-15.2441 9.04297-14.9512Q9.21875-14.6777 9.55566-14.541Q9.89258-14.4043 10.3809-14.5215Q11.4746-14.7754 12.5977-14.7314Q13.7207-14.6875 14.7949-13.9844L14.209-12.5293Q13.9551-11.9043 14.0674-11.4404Q14.1797-10.9766 14.5801-10.5664L16.875-8.25195Q17.2363-7.88086 17.5781-7.82227Q17.9199-7.76367 18.3398-7.8418L19.4043-8.03711L20.0684-7.36328L20.0293-6.80664Q20-6.43555 20.1221-6.12305Q20.2441-5.81055 20.6055-5.44922L21.3672-4.70703Q21.7285-4.3457 22.1533-4.33105Q22.5781-4.31641 22.9297-4.66797L25.8398-7.58789Q26.1914-7.93945 26.1816-8.35449Q26.1719-8.76953 25.8105-9.13086L25.0391-9.89258Q24.6875-10.2539 24.3799-10.3857Q24.0723-10.5176 23.7109-10.4883L23.1348-10.4395L22.4902-11.0742L22.7344-12.1973Q22.832-12.6172 22.6953-12.9834Q22.5586-13.3496 22.1191-13.7891L19.9219-15.9766Q18.6719-17.2168 17.2607-17.8369Q15.8496-18.457 14.4189-18.4814Q12.9883-18.5059 11.665-17.959Q10.3418-17.4121 9.25781-16.3281ZM10.752-15.957Q11.6602-16.6211 12.7002-16.9043Q13.7402-17.1875 14.8047-17.085Q15.8691-16.9824 16.8701-16.5137Q17.8711-16.0449 18.7012-15.2051L21.1328-12.793Q21.3086-12.6172 21.3525-12.4512Q21.3965-12.2852 21.3379-12.0312L21.0156-10.5469L22.5195-9.0625L23.5059-9.12109Q23.6914-9.13086 23.7891-9.09668Q23.8867-9.0625 24.0332-8.91602L24.6094-8.33984L22.168-5.89844L21.5918-6.47461Q21.4453-6.62109 21.4062-6.71875Q21.3672-6.81641 21.377-7.01172L21.4453-7.98828L19.9512-9.47266L18.4277-9.21875Q18.1836-9.16992 18.042-9.2041Q17.9004-9.23828 17.7148-9.41406L15.7129-11.416Q15.5176-11.5918 15.4932-11.7529Q15.4688-11.9141 15.5859-12.1875L16.4648-14.2773Q15.293-15.3711 13.8281-15.791Q12.3633-16.2109 10.8398-15.7617Q10.7227-15.7324 10.6885-15.8057Q10.6543-15.8789 10.752-15.957Z"/>
  </g>
  <text style="stroke:none;fill:black;font-family:sans-serif;font-size:13;font-weight:bold;" transform="matrix(1 0 0 1 1289 1953)">Exporting</text>
  <text style="stroke:none;fill:black;font-family:sans-serif;font-size:13;" transform="matrix(1 0 0 1 1289 1971)">Symbols should be outlined when exporting to ensure the</text>
  <text style="stroke:none;fill:black;font-family:sans-serif;font-size:13;" transform="matrix(1 0 0 1 1289 1989)">design is preserved when submitting to Xcode.</text>
  <text id="template-version" style="stroke:none;fill:black;font-family:sans-serif;font-size:13;text-anchor:end;" transform="matrix(1 0 0 1 3036 1933)">Template v.3.0</text>
  <text style="stroke:none;fill:black;font-family:sans-serif;font-size:13;text-anchor:end;" transform="matrix(1 0 0 1 3036 1951)">Requires Xcode 13 or greater</text>
  <text id="descriptive-name" style="stroke:none;fill:black;font-family:sans-serif;font-size:13;text-anchor:end;" transform="matrix(1 0 0 1 3036 1969)">Generated from info.circle</text>
  <text style="stroke:none;fill:black;font-family:sans-serif;font-size:13;text-anchor:end;" transform="matrix(1 0 0 1 3036 1987)">Typeset at 100 points</text>
  <text style="stroke:none;fill:black;font-family:sans-serif;font-size:13;" transform="matrix(1 0 0 1 263 726)">Small</text>
  <text style="stroke:none;fill:black;font-family:sans-serif;font-size:13;" transform="matrix(1 0 0 1 263 1156)">Medium</text>
  <text style="stroke:none;fill:black;font-family:sans-serif;font-size:13;" transform="matrix(1 0 0 1 263 1586)">Large</text>
 </g>
 <g id="Guides">
  <g id="H-reference" style="fill:#27AAE1;stroke:none;" transform="matrix(1 0 0 1 339 696)">
   <path d="M0.976562 0L3.66211 0L29.3457-67.1387L30.0293-67.1387L30.0293-70.459L28.125-70.459ZM11.6699-24.4629L46.9727-24.4629L46.2402-26.709L12.4512-26.709ZM55.127 0L57.7637 0L30.6152-70.459L29.4434-70.459L29.4434-67.1387Z"/>
  </g>
  <line id="Baseline-S" style="fill:none;stroke:#27AAE1;opacity:1;stroke-width:0.5;" x1="263" x2="3036" y1="696" y2="696"/>
  <line id="Capline-S" style="fill:none;stroke:#27AAE1;opacity:1;stroke-width:0.5;" x1="263" x2="3036" y1="625.541" y2="625.541"/>
  <g id="H-reference" style="fill:#27AAE1;stroke:none;" transform="matrix(1 0 0 1 339 1126)">
   <path d="M0.976562 0L3.66211 0L29.3457-67.1387L30.0293-67.1387L30.0293-70.459L28.125-70.459ZM11.6699-24.4629L46.9727-24.4629L46.2402-26.709L12.4512-26.709ZM55.127 0L57.7637 0L30.6152-70.459L29.4434-70.459L29.4434-67.1387Z"/>
  </g>
  <line id="Baseline-M" style="fill:none;stroke:#27AAE1;opacity:1;stroke-width:0.5;" x1="263" x2="3036" y1="1126" y2="1126"/>
  <line id="Capline-M" style="fill:none;stroke:#27AAE1;opacity:1;stroke-width:0.5;" x1="263" x2="3036" y1="1055.54" y2="1055.54"/>
  <g id="H-reference" style="fill:#27AAE1;stroke:none;" transform="matrix(1 0 0 1 339 1556)">
   <path d="M0.976562 0L3.66211 0L29.3457-67.1387L30.0293-67.1387L30.0293-70.459L28.125-70.459ZM11.6699-24.4629L46.9727-24.4629L46.2402-26.709L12.4512-26.709ZM55.127 0L57.7637 0L30.6152-70.459L29.4434-70.459L29.4434-67.1387Z"/>
  </g>
  <line id="Baseline-L" style="fill:none;stroke:#27AAE1;opacity:1;stroke-width:0.5;" x1="263" x2="3036" y1="1556" y2="1556"/>
  <line id="Capline-L" style="fill:none;stroke:#27AAE1;opacity:1;stroke-width:0.5;" x1="263" x2="3036" y1="1485.54" y2="1485.54"/>
  <line id="left-margin-Ultralight-S" style="fill:none;stroke:#00AEEF;stroke-width:0.5;opacity:1.0;" x1="515.644" x2="515.644" y1="600.785" y2="720.121"/>
  <line id="right-margin-Ultralight-S" style="fill:none;stroke:#00AEEF;stroke-width:0.5;opacity:1.0;" x1="603.778" x2="603.778" y1="600.785" y2="720.121"/>
  <line id="left-margin-Thin-S" style="fill:none;stroke:#00AEEF;stroke-width:0.5;opacity:1.0;" x1="811.867" x2="811.867" y1="600.785" y2="720.121"/>
  <line id="right-margin-Thin-S" style="fill:none;stroke:#00AEEF;stroke-width:0.5;opacity:1.0;" x1="900.978" x2="900.978" y1="600.785" y2="720.121"/>
  <line id="left-margin-Light-S" style="fill:none;stroke:#00AEEF;stroke-width:0.5;opacity:1.0;" x1="1107.6" x2="1107.6" y1="600.785" y2="720.121"/>
  <line id="right-margin-Light-S" style="fill:none;stroke:#00AEEF;stroke-width:0.5;opacity:1.0;" x1="1198.67" x2="1198.67" y1="600.785" y2="720.121"/>
  <line id="left-margin-Regular-S" style="fill:none;stroke:#00AEEF;stroke-width:0.5;opacity:1.0;" x1="1403.58" x2="1403.58" y1="600.785" y2="720.121"/>
  <line id="right-margin-Regular-S" style="fill:none;stroke:#00AEEF;stroke-width:0.5;opacity:1.0;" x1="1496.11" x2="1496.11" y1="600.785" y2="720.121"/>
  <line id="left-margin-Medium-S" style="fill:none;stroke:#00AEEF;stroke-width:0.5;opacity:1.0;" x1="1699.83" x2="1699.83" y1="600.785" y2="720.121"/>
  <line id="right-margin-Medium-S" style="fill:none;stroke:#00AEEF;stroke-width:0.5;opacity:1.0;" x1="1793.28" x2="1793.28" y1="600.785" y2="720.121"/>
  <line id="left-margin-Semibold-S" style="fill:none;stroke:#00AEEF;stroke-width:0.5;opacity:1.0;" x1="1996.2" x2="1996.2" y1="600.785" y2="720.121"/>
  <line id="right-margin-Semibold-S" style="fill:none;stroke:#00AEEF;stroke-width:0.5;opacity:1.0;" x1="2090.34" x2="2090.34" y1="600.785" y2="720.121"/>
  <line id="left-margin-Bold-S" style="fill:none;stroke:#00AEEF;stroke-width:0.5;opacity:1.0;" x1="2292.42" x2="2292.42" y1="600.785" y2="720.121"/>
  <line id="right-margin-Bold-S" style="fill:none;stroke:#00AEEF;stroke-width:0.5;opacity:1.0;" x1="2387.54" x2="2387.54" y1="600.785" y2="720.121"/>
  <line id="left-margin-Heavy-S" style="fill:none;stroke:#00AEEF;stroke-width:0.5;opacity:1.0;" x1="2588.47" x2="2588.47" y1="600.785" y2="720.121"/>
  <line id="right-margin-Heavy-S" style="fill:none;stroke:#00AEEF;stroke-width:0.5;opacity:1.0;" x1="2684.91" x2="2684.91" y1="600.785" y2="720.121"/>
  <line id="left-margin-Black-S" style="fill:none;stroke:#00AEEF;stroke-width:0.5;opacity:1.0;" x1="2884.57" x2="2884.57" y1="600.785" y2="720.121"/>
  <line id="right-margin-Black-S" style="fill:none;stroke:#00AEEF;stroke-width:0.5;opacity:1.0;" x1="2982.23" x2="2982.23" y1="600.785" y2="720.121"/>
  <line id="left-margin-Ultralight-M" style="fill:none;stroke:#00AEEF;stroke-width:0.5;opacity:1.0;" x1="503.632" x2="503.632" y1="1030.79" y2="1150.12"/>
  <line id="right-margin-Ultralight-M" style="fill:none;stroke:#00AEEF;stroke-width:0.5;opacity:1.0;" x1="615.79" x2="615.79" y1="1030.79" y2="1150.12"/>
  <line id="left-margin-Thin-M" style="fill:none;stroke:#00AEEF;stroke-width:0.5;opacity:1.0;" x1="799.782" x2="799.782" y1="1030.79" y2="1150.12"/>
  <line id="right-margin-Thin-M" style="fill:none;stroke:#00AEEF;stroke-width:0.5;opacity:1.0;" x1="913.063" x2="913.063" y1="1030.79" y2="1150.12"/>
  <line id="left-margin-Light-M" style="fill:none;stroke:#00AEEF;stroke-width:0.5;opacity:1.0;" x1="1095.42" x2="1095.42" y1="1030.79" y2="1150.12"/>
  <line id="right-margin-Light-M" style="fill:none;stroke:#00AEEF;stroke-width:0.5;opacity:1.0;" x1="1210.85" x2="1210.85" y1="1030.79" y2="1150.12"/>
  <line id="left-margin-Regular-M" style="fill:none;stroke:#00AEEF;stroke-width:0.5;opacity:1.0;" x1="1391.3" x2="1391.3" y1="1030.79" y2="1150.12"/>
  <line id="right-margin-Regular-M" style="fill:none;stroke:#00AEEF;stroke-width:0.5;opacity:1.0;" x1="1508.39" x2="1508.39" y1="1030.79" y2="1150.12"/>
  <line id="left-margin-Medium-M" style="fill:none;stroke:#00AEEF;stroke-width:0.5;opacity:1.0;" x1="1687.38" x2="1687.38" y1="1030.79" y2="1150.12"/>
  <line id="right-margin-Medium-M" style="fill:none;stroke:#00AEEF;stroke-width:0.5;opacity:1.0;" x1="1805.74" x2="1805.74" y1="1030.79" y2="1150.12"/>
  <line id="left-margin-Semibold-M" style="fill:none;stroke:#00AEEF;stroke-width:0.5;opacity:1.0;" x1="1983.6" x2="1983.6" y1="1030.79" y2="1150.12"/>
  <line id="right-margin-Semibold-M" style="fill:none;stroke:#00AEEF;stroke-width:0.5;opacity:1.0;" x1="2102.93" x2="2102.93" y1="1030.79" y2="1150.12"/>
  <line id="left-margin-Bold-M" style="fill:none;stroke:#00AEEF;stroke-width:0.5;opacity:1.0;" x1="2279.65" x2="2279.65" y1="1030.79" y2="1150.12"/>
  <line id="right-margin-Bold-M" style="fill:none;stroke:#00AEEF;stroke-width:0.5;opacity:1.0;" x1="2400.3" x2="2400.3" y1="1030.79" y2="1150.12"/>
  <line id="left-margin-Heavy-M" style="fill:none;stroke:#00AEEF;stroke-width:0.5;opacity:1.0;" x1="2575.43" x2="2575.43" y1="1030.79" y2="1150.12"/>
  <line id="right-margin-Heavy-M" style="fill:none;stroke:#00AEEF;stroke-width:0.5;opacity:1.0;" x1="2697.94" x2="2697.94" y1="1030.79" y2="1150.12"/>
  <line id="left-margin-Black-M" style="fill:none;stroke:#00AEEF;stroke-width:0.5;opacity:1.0;" x1="2871.32" x2="2871.32" y1="1030.79" y2="1150.12"/>
  <line id="right-margin-Black-M" style="fill:none;stroke:#00AEEF;stroke-width:0.5;opacity:1.0;" x1="2995.48" x2="2995.48" y1="1030.79" y2="1150.12"/>
  <line id="left-margin-Ultralight-L" style="fill:none;stroke:#00AEEF;stroke-width:0.5;opacity:1.0;" x1="487.592" x2="487.592" y1="1460.79" y2="1580.12"/>
  <line id="right-margin-Ultralight-L" style="fill:none;stroke:#00AEEF;stroke-width:0.5;opacity:1.0;" x1="631.83" x2="631.83" y1="1460.79" y2="1580.12"/>
  <line id="left-margin-Thin-L" style="fill:none;stroke:#00AEEF;stroke-width:0.5;opacity:1.0;" x1="783.693" x2="783.693" y1="1460.79" y2="1580.12"/>
  <line id="right-margin-Thin-L" style="fill:none;stroke:#00AEEF;stroke-width:0.5;opacity:1.0;" x1="929.152" x2="929.152" y1="1460.79" y2="1580.12"/>
  <line id="left-margin-Light-L" style="fill:none;stroke:#00AEEF;stroke-width:0.5;opacity:1.0;" x1="1079.18" x2="1079.18" y1="1460.79" y2="1580.12"/>
  <line id="right-margin-Light-L" style="fill:none;stroke:#00AEEF;stroke-width:0.5;opacity:1.0;" x1="1227.08" x2="1227.08" y1="1460.79" y2="1580.12"/>
  <line id="left-margin-Regular-L" style="fill:none;stroke:#00AEEF;stroke-width:0.5;opacity:1.0;" x1="1374.97" x2="1374.97" y1="1460.79" y2="1580.12"/>
  <line id="right-margin-Regular-L" style="fill:none;stroke:#00AEEF;stroke-width:0.5;opacity:1.0;" x1="1524.72" x2="1524.72" y1="1460.79" y2="1580.12"/>
  <line id="left-margin-Medium-L" style="fill:none;stroke:#00AEEF;stroke-width:0.5;opacity:1.0;" x1="1670.87" x2="1670.87" y1="1460.79" y2="1580.12"/>
  <line id="right-margin-Medium-L" style="fill:none;stroke:#00AEEF;stroke-width:0.5;opacity:1.0;" x1="1822.24" x2="1822.24" y1="1460.79" y2="1580.12"/>
  <line id="left-margin-Semibold-L" style="fill:none;stroke:#00AEEF;stroke-width:0.5;opacity:1.0;" x1="1966.97" x2="1966.97" y1="1460.79" y2="1580.12"/>
  <line id="right-margin-Semibold-L" style="fill:none;stroke:#00AEEF;stroke-width:0.5;opacity:1.0;" x1="2119.56" x2="2119.56" y1="1460.79" y2="1580.12"/>
  <line id="left-margin-Bold-L" style="fill:none;stroke:#00AEEF;stroke-width:0.5;opacity:1.0;" x1="2262.85" x2="2262.85" y1="1460.79" y2="1580.12"/>
  <line id="right-margin-Bold-L" style="fill:none;stroke:#00AEEF;stroke-width:0.5;opacity:1.0;" x1="2417.1" x2="2417.1" y1="1460.79" y2="1580.12"/>
  <line id="left-margin-Heavy-L" style="fill:none;stroke:#00AEEF;stroke-width:0.5;opacity:1.0;" x1="2558.39" x2="2558.39" y1="1460.79" y2="1580.12"/>
  <line id="right-margin-Heavy-L" style="fill:none;stroke:#00AEEF;stroke-width:0.5;opacity:1.0;" x1="2714.98" x2="2714.98" y1="1460.79" y2="1580.12"/>
  <line id="left-margin-Black-L" style="fill:none;stroke:#00AEEF;stroke-width:0.5;opacity:1.0;" x1="2854.05" x2="2854.05" y1="1460.79" y2="1580.12"/>
  <line id="right-margin-Black-L" style="fill:none;stroke:#00AEEF;stroke-width:0.5;opacity:1.0;" x1="3012.75" x2="3012.75" y1="1460.79" y2="1580.12"/>
 </g>
 <g id="Symbols">
  <g id="Black-L" transform="matrix(1 0 0 1 2854.05 1556)">
   <path class="multicolor-0:systemBlueColor hierarchical-0:secondary SFSymbolsPreview007AFF" d="M79.3457 32.8613Q90.5762 32.8613 100.757 29.3945Q110.938 25.9277 119.458 19.6777Q127.979 13.4277 134.229 4.90723Q140.479-3.61328 143.945-13.7939Q147.412-23.9746 147.412-35.2051Q147.412-46.4355 143.945-56.6162Q140.479-66.7969 134.204-75.3174Q127.93-83.8379 119.434-90.1123Q110.938-96.3867 100.732-99.8291Q90.5273-103.271 79.2969-103.271Q68.1152-103.271 57.9102-99.8291Q47.7051-96.3867 39.209-90.1123Q30.7129-83.8379 24.4385-75.3174Q18.1641-66.7969 14.7217-56.6162Q11.2793-46.4355 11.2793-35.2051Q11.2793-23.9746 14.7217-13.7939Q18.1641-3.61328 24.4385 4.90723Q30.7129 13.4277 39.2334 19.6777Q47.7539 25.9277 57.9346 29.3945Q68.1152 32.8613 79.3457 32.8613ZM79.3457 12.4023Q71.4355 12.4023 64.2822 10.0098Q57.1289 7.61719 51.1963 3.24707Q45.2637-1.12305 40.8936-7.08008Q36.5234-13.0371 34.1309-20.166Q31.7383-27.2949 31.7383-35.2051Q31.7383-43.1152 34.1309-50.2686Q36.5234-57.4219 40.8936-63.3545Q45.2637-69.2871 51.1963-73.6572Q57.1289-78.0273 64.2578-80.4199Q71.3867-82.8125 79.2969-82.8125Q87.207-82.8125 94.3604-80.4199Q101.514-78.0273 107.471-73.6572Q113.428-69.2871 117.798-63.3545Q122.168-57.4219 124.561-50.2686Q126.953-43.1152 126.953-35.2051Q126.953-27.2949 124.561-20.166Q122.168-13.0371 117.798-7.08008Q113.428-1.12305 107.495 3.24707Q101.562 7.61719 94.4092 10.0098Q87.2559 12.4023 79.3457 12.4023Z"/>
   <path class="multicolor-0:systemBlueColor hierarchical-1:primary SFSymbolsPreview007AFF" d="M67.9688-2.19727L93.1641-2.19727Q95.9961-2.19727 97.9248-3.97949Q99.8535-5.76172 99.8535-8.69141Q99.8535-11.377 97.9248-13.2568Q95.9961-15.1367 93.1641-15.1367L88.9648-15.1367L88.9648-37.1582Q88.9648-41.0156 87.085-43.3105Q85.2051-45.6055 81.5918-45.6055L69.2383-45.6055Q66.4551-45.6055 64.502-43.7256Q62.5488-41.8457 62.5488-39.1602Q62.5488-36.2305 64.502-34.4482Q66.4551-32.666 69.2383-32.666L74.2676-32.666L74.2676-15.1367L67.9688-15.1367Q65.1367-15.1367 63.208-13.2568Q61.2793-11.377 61.2793-8.69141Q61.2793-5.76172 63.208-3.97949Q65.1367-2.19727 67.9688-2.19727ZM79.4922-52.9785Q83.6914-52.9785 86.6455-55.9814Q89.5996-58.9844 89.5996-63.0371Q89.5996-67.3828 86.6455-70.3369Q83.6914-73.291 79.4922-73.291Q75.3418-73.291 72.3633-70.3369Q69.3848-67.3828 69.3848-63.0371Q69.3848-58.9844 72.3633-55.9814Q75.3418-52.9785 79.4922-52.9785Z"/>
  </g>
  <g id="Heavy-L" transform="matrix(1 0 0 1 2558.39 1556)">
   <path class="multicolor-0:systemBlueColor hierarchical-0:secondary SFSymbolsPreview007AFF" d="M78.2715 31.7871Q89.3555 31.7871 99.3652 28.3691Q109.375 24.9512 117.749 18.7988Q126.123 12.6465 132.3 4.24805Q138.477-4.15039 141.895-14.1602Q145.312-24.1699 145.312-35.2051Q145.312-46.2402 141.895-56.2744Q138.477-66.3086 132.3-74.6826Q126.123-83.0566 117.749-89.2578Q109.375-95.459 99.3408-98.8525Q89.3066-102.246 78.2227-102.246Q67.2363-102.246 57.2021-98.8525Q47.168-95.459 38.7939-89.2578Q30.4199-83.0566 24.2432-74.6826Q18.0664-66.3086 14.6729-56.2744Q11.2793-46.2402 11.2793-35.2051Q11.2793-24.1699 14.6729-14.1602Q18.0664-4.15039 24.2432 4.24805Q30.4199 12.6465 38.8184 18.7988Q47.2168 24.9512 57.2266 28.3691Q67.2363 31.7871 78.2715 31.7871ZM78.2715 14.0137Q70.1172 14.0137 62.7197 11.5479Q55.3223 9.08203 49.1943 4.56543Q43.0664 0.0488281 38.5498-6.12793Q34.0332-12.3047 31.543-19.6777Q29.0527-27.0508 29.0527-35.2051Q29.0527-43.4082 31.543-50.8057Q34.0332-58.2031 38.5254-64.3311Q43.0176-70.459 49.1699-74.9756Q55.3223-79.4922 62.6953-81.9824Q70.0684-84.4727 78.2227-84.4727Q86.4258-84.4727 93.8232-81.9824Q101.221-79.4922 107.373-74.9756Q113.525-70.459 118.042-64.3311Q122.559-58.2031 125.049-50.8057Q127.539-43.4082 127.539-35.2051Q127.539-27.0508 125.049-19.6777Q122.559-12.3047 118.042-6.12793Q113.525 0.0488281 107.397 4.56543Q101.27 9.08203 93.8721 11.5479Q86.4746 14.0137 78.2715 14.0137Z"/>
   <path class="multicolor-0:systemBlueColor hierarchical-1:primary SFSymbolsPreview007AFF" d="M66.9434-1.85547L92.2852-1.85547Q94.8242-1.85547 96.5576-3.4668Q98.291-5.07812 98.291-7.71484Q98.291-10.1562 96.5576-11.8408Q94.8242-13.5254 92.2852-13.5254L87.0117-13.5254L87.0117-38.4277Q87.0117-41.8945 85.3271-43.9453Q83.6426-45.9961 80.3711-45.9961L68.1152-45.9961Q65.625-45.9961 63.8428-44.3115Q62.0605-42.627 62.0605-40.1855Q62.0605-37.5488 63.8428-35.9375Q65.625-34.3262 68.1152-34.3262L73.7793-34.3262L73.7793-13.5254L66.9434-13.5254Q64.3555-13.5254 62.6221-11.8408Q60.8887-10.1562 60.8887-7.71484Q60.8887-5.07812 62.6221-3.4668Q64.3555-1.85547 66.9434-1.85547ZM78.2715-54.2969Q82.2266-54.2969 84.9854-57.0801Q87.7441-59.8633 87.7441-63.7207Q87.7441-67.7734 84.9854-70.5322Q82.2266-73.291 78.2715-73.291Q74.3652-73.291 71.582-70.5322Q68.7988-67.7734 68.7988-63.7207Q68.7988-59.8633 71.582-57.0801Q74.3652-54.2969 78.2715-54.2969Z"/>
  </g>
  <g id="Bold-L" transform="matrix(1 0 0 1 2262.85 1556)">
   <path class="multicolor-0:systemBlueColor hierarchical-0:secondary SFSymbolsPreview007AFF" d="M77.0996 30.6152Q87.9395 30.6152 97.7783 27.2461Q107.617 23.877 115.869 17.8223Q124.121 11.7676 130.176 3.51562Q136.23-4.73633 139.6-14.5752Q142.969-24.4141 142.969-35.2539Q142.969-46.0938 139.6-55.9326Q136.23-65.7715 130.151-73.999Q124.072-82.2266 115.845-88.3057Q107.617-94.3848 97.7539-97.7295Q87.8906-101.074 77.0508-101.074Q66.2598-101.074 56.3965-97.7295Q46.5332-94.3848 38.3301-88.3057Q30.127-82.2266 24.0479-73.999Q17.9688-65.7715 14.624-55.9326Q11.2793-46.0938 11.2793-35.2539Q11.2793-24.4141 14.624-14.5752Q17.9688-4.73633 24.0479 3.51562Q30.127 11.7676 38.3545 17.8223Q46.582 23.877 56.4209 27.2461Q66.2598 30.6152 77.0996 30.6152ZM77.0996 15.8203Q68.6523 15.8203 60.9863 13.2568Q53.3203 10.6934 46.9482 6.00586Q40.5762 1.31836 35.8887-5.07812Q31.2012-11.4746 28.6377-19.1162Q26.0742-26.7578 26.0742-35.2539Q26.0742-43.75 28.6377-51.416Q31.2012-59.082 35.8887-65.4541Q40.5762-71.8262 46.9238-76.4893Q53.2715-81.1523 60.9375-83.7158Q68.6035-86.2793 77.0508-86.2793Q85.5469-86.2793 93.2129-83.7158Q100.879-81.1523 107.275-76.4893Q113.672-71.8262 118.335-65.4541Q122.998-59.082 125.586-51.416Q128.174-43.75 128.174-35.2539Q128.174-26.7578 125.61-19.1162Q123.047-11.4746 118.359-5.07812Q113.672 1.31836 107.3 6.00586Q100.928 10.6934 93.2617 13.2568Q85.5957 15.8203 77.0996 15.8203Z"/>
   <path class="multicolor-0:systemBlueColor hierarchical-1:primary SFSymbolsPreview007AFF" d="M65.8203-1.46484L91.3086-1.46484Q93.5547-1.46484 95.0928-2.90527Q96.6309-4.3457 96.6309-6.64062Q96.6309-8.78906 95.0928-10.2783Q93.5547-11.7676 91.3086-11.7676L84.9121-11.7676L84.9121-39.8926Q84.9121-42.8711 83.4229-44.6777Q81.9336-46.4844 79.1016-46.4844L66.9434-46.4844Q64.6973-46.4844 63.1592-44.9951Q61.6211-43.5059 61.6211-41.3574Q61.6211-39.0625 63.1592-37.6221Q64.6973-36.1816 66.9434-36.1816L73.291-36.1816L73.291-11.7676L65.8203-11.7676Q63.5742-11.7676 62.0361-10.2783Q60.498-8.78906 60.498-6.64062Q60.498-4.3457 62.0361-2.90527Q63.5742-1.46484 65.8203-1.46484ZM76.9531-55.7617Q80.6152-55.7617 83.1787-58.3252Q85.7422-60.8887 85.7422-64.4531Q85.7422-68.2129 83.1787-70.752Q80.6152-73.291 76.9531-73.291Q73.3398-73.291 70.7764-70.752Q68.2129-68.2129 68.2129-64.4531Q68.2129-60.8887 70.7764-58.3252Q73.3398-55.7617 76.9531-55.7617Z"/>
  </g>
  <g id="Semibold-L" transform="matrix(1 0 0 1 1966.97 1556)">
   <path class="multicolor-0:systemBlueColor hierarchical-0:secondary SFSymbolsPreview007AFF" d="M76.2695 29.7852Q86.9629 29.7852 96.6797 26.4648Q106.396 23.1445 114.551 17.1631Q122.705 11.1816 128.687 3.02734Q134.668-5.12695 137.988-14.8438Q141.309-24.5605 141.309-35.2539Q141.309-45.9473 137.988-55.6641Q134.668-65.3809 128.662-73.5107Q122.656-81.6406 114.526-87.6465Q106.396-93.6523 96.6553-96.9727Q86.9141-100.293 76.2207-100.293Q65.5273-100.293 55.8105-96.9727Q46.0938-93.6523 37.9883-87.6465Q29.8828-81.6406 23.877-73.5107Q17.8711-65.3809 14.5752-55.6641Q11.2793-45.9473 11.2793-35.2539Q11.2793-24.5605 14.5996-14.8438Q17.9199-5.12695 23.9014 3.02734Q29.8828 11.1816 38.0127 17.1631Q46.1426 23.1445 55.8594 26.4648Q65.5762 29.7852 76.2695 29.7852ZM76.2695 17.041Q67.627 17.041 59.7656 14.4043Q51.9043 11.7676 45.3857 6.98242Q38.8672 2.19727 34.0576-4.3457Q29.248-10.8887 26.6357-18.7256Q24.0234-26.5625 24.0234-35.2539Q24.0234-43.9453 26.6357-51.8066Q29.248-59.668 34.0332-66.1865Q38.8184-72.7051 45.3369-77.4902Q51.8555-82.2754 59.7168-84.9121Q67.5781-87.5488 76.2207-87.5488Q84.9609-87.5488 92.7979-84.9121Q100.635-82.2754 107.178-77.4902Q113.721-72.7051 118.506-66.1865Q123.291-59.668 125.928-51.8066Q128.564-43.9453 128.564-35.2539Q128.613-26.5625 126.001-18.7256Q123.389-10.8887 118.579-4.3457Q113.77 2.19727 107.227 6.98242Q100.684 11.7676 92.8467 14.4043Q85.0098 17.041 76.2695 17.041Z"/>
   <path class="multicolor-0:systemBlueColor hierarchical-1:primary SFSymbolsPreview007AFF" d="M65.0391-1.26953L90.625-1.26953Q92.6758-1.26953 94.0674-2.56348Q95.459-3.85742 95.459-5.95703Q95.459-7.91016 94.0674-9.25293Q92.6758-10.5957 90.625-10.5957L83.3984-10.5957L83.3984-40.918Q83.3984-43.6035 82.0557-45.2393Q80.7129-46.875 78.1738-46.875L66.0645-46.875Q64.0625-46.875 62.6465-45.5078Q61.2305-44.1406 61.2305-42.1875Q61.2305-40.1367 62.6465-38.8184Q64.0625-37.5 66.0645-37.5L72.9004-37.5L72.9004-10.5957L65.0391-10.5957Q62.9883-10.5957 61.5967-9.25293Q60.2051-7.91016 60.2051-5.95703Q60.2051-3.85742 61.5967-2.56348Q62.9883-1.26953 65.0391-1.26953ZM76.0254-56.7871Q79.4922-56.7871 81.8848-59.2041Q84.2773-61.6211 84.2773-65.0391Q84.2773-68.5547 81.8848-70.9473Q79.4922-73.3398 76.0254-73.3398Q72.6074-73.3398 70.1904-70.9473Q67.7734-68.5547 67.7734-65.0391Q67.7734-61.6211 70.1904-59.2041Q72.6074-56.7871 76.0254-56.7871Z"/>
  </g>
  <g id="Medium-L" transform="matrix(1 0 0 1 1670.87 1556)">
   <path class="multicolor-0:systemBlueColor hierarchical-0:secondary SFSymbolsPreview007AFF" d="M75.6836 29.1504Q86.2305 29.1504 95.8496 25.8545Q105.469 22.5586 113.55 16.626Q121.631 10.6934 127.563 2.63672Q133.496-5.41992 136.792-15.0635Q140.088-24.707 140.088-35.2539Q140.088-45.8496 136.792-55.4688Q133.496-65.0879 127.539-73.1445Q121.582-81.2012 113.525-87.1582Q105.469-93.1152 95.8252-96.3867Q86.1816-99.6582 75.6348-99.6582Q65.0391-99.6582 55.4199-96.3867Q45.8008-93.1152 37.7441-87.1582Q29.6875-81.2012 23.7549-73.1445Q17.8223-65.0879 14.5508-55.4688Q11.2793-45.8496 11.2793-35.2539Q11.2793-24.707 14.5508-15.0635Q17.8223-5.41992 23.7549 2.63672Q29.6875 10.6934 37.7686 16.626Q45.8496 22.5586 55.4688 25.8545Q65.0879 29.1504 75.6836 29.1504ZM75.6836 18.0176Q66.8457 18.0176 58.8379 15.332Q50.8301 12.6465 44.2139 7.76367Q37.5977 2.88086 32.6904-3.78418Q27.7832-10.4492 25.1221-18.4326Q22.4609-26.416 22.4609-35.2539Q22.4609-44.1406 25.1221-52.124Q27.7832-60.1074 32.666-66.748Q37.5488-73.3887 44.165-78.2715Q50.7812-83.1543 58.7891-85.8154Q66.7969-88.4766 75.6348-88.4766Q84.4727-88.4766 92.4805-85.8154Q100.488-83.1543 107.129-78.2715Q113.77-73.3887 118.652-66.748Q123.535-60.1074 126.221-52.124Q128.906-44.1406 128.906-35.2539Q128.955-26.416 126.294-18.4326Q123.633-10.4492 118.726-3.78418Q113.818 2.88086 107.178 7.76367Q100.537 12.6465 92.5293 15.332Q84.5215 18.0176 75.6836 18.0176Z"/>
   <path class="multicolor-0:systemBlueColor hierarchical-1:primary SFSymbolsPreview007AFF" d="M64.4531-1.02539L90.1367-1.02539Q91.9922-1.02539 93.2861-2.24609Q94.5801-3.4668 94.5801-5.37109Q94.5801-7.17773 93.2861-8.42285Q91.9922-9.66797 90.1367-9.66797L82.2754-9.66797L82.2754-41.6504Q82.2754-44.0918 81.0547-45.6055Q79.834-47.1191 77.5391-47.1191L65.4297-47.1191Q63.5742-47.1191 62.2803-45.8496Q60.9863-44.5801 60.9863-42.8223Q60.9863-40.918 62.2803-39.6973Q63.5742-38.4766 65.4297-38.4766L72.6562-38.4766L72.6562-9.66797L64.4531-9.66797Q62.5977-9.66797 61.3037-8.42285Q60.0098-7.17773 60.0098-5.37109Q60.0098-3.4668 61.3037-2.24609Q62.5977-1.02539 64.4531-1.02539ZM75.3418-57.5684Q78.6621-57.5684 80.957-59.8633Q83.252-62.1582 83.252-65.4297Q83.252-68.75 80.957-71.0449Q78.6621-73.3398 75.3418-73.3398Q72.0703-73.3398 69.7754-71.0449Q67.4805-68.75 67.4805-65.4297Q67.4805-62.1582 69.7754-59.8633Q72.0703-57.5684 75.3418-57.5684Z"/>
  </g>
  <g id="Regular-L" transform="matrix(1 0 0 1 1374.97 1556)">
   <path class="multicolor-0:systemBlueColor hierarchical-0:secondary SFSymbolsPreview007AFF" d="M74.8535 28.3203Q85.3027 28.3203 94.7998 25.0732Q104.297 21.8262 112.256 15.9668Q120.215 10.1074 126.099 2.14844Q131.982-5.81055 135.229-15.332Q138.477-24.8535 138.477-35.2539Q138.477-45.7031 135.229-55.2002Q131.982-64.6973 126.099-72.6562Q120.215-80.6152 112.256-86.499Q104.297-92.3828 94.7754-95.6299Q85.2539-98.877 74.8047-98.877Q64.3555-98.877 54.8584-95.6299Q45.3613-92.3828 37.4268-86.499Q29.4922-80.6152 23.6084-72.6562Q17.7246-64.6973 14.502-55.2002Q11.2793-45.7031 11.2793-35.2539Q11.2793-24.8535 14.5264-15.332Q17.7734-5.81055 23.6328 2.14844Q29.4922 10.1074 37.4512 15.9668Q45.4102 21.8262 54.9072 25.0732Q64.4043 28.3203 74.8535 28.3203ZM74.8535 19.2383Q65.8203 19.2383 57.6416 16.4795Q49.4629 13.7207 42.6758 8.74023Q35.8887 3.75977 30.8838-3.05176Q25.8789-9.86328 23.1445-18.042Q20.4102-26.2207 20.4102-35.2539Q20.4102-44.3359 23.1445-52.5146Q25.8789-60.6934 30.8594-67.5049Q35.8398-74.3164 42.627-79.2969Q49.4141-84.2773 57.5928-87.0117Q65.7715-89.7461 74.8047-89.7461Q83.8867-89.7461 92.0654-87.0117Q100.244-84.2773 107.056-79.2969Q113.867-74.3164 118.848-67.5049Q123.828-60.6934 126.587-52.5146Q129.346-44.3359 129.346-35.2539Q129.395-26.2207 126.66-18.042Q123.926-9.86328 118.921-3.05176Q113.916 3.75977 107.104 8.74023Q100.293 13.7207 92.1143 16.4795Q83.9355 19.2383 74.8535 19.2383Z"/>
   <path class="multicolor-0:systemBlueColor hierarchical-1:primary SFSymbolsPreview007AFF" d="M63.6719-0.78125L89.4531-0.78125Q91.1133-0.78125 92.2607-1.87988Q93.4082-2.97852 93.4082-4.63867Q93.4082-6.25 92.2607-7.34863Q91.1133-8.44727 89.4531-8.44727L80.8105-8.44727L80.8105-42.627Q80.8105-44.7754 79.7363-46.0938Q78.6621-47.4121 76.6113-47.4121L64.5996-47.4121Q62.9395-47.4121 61.792-46.2891Q60.6445-45.166 60.6445-43.6035Q60.6445-41.9434 61.792-40.8447Q62.9395-39.7461 64.5996-39.7461L72.2656-39.7461L72.2656-8.44727L63.6719-8.44727Q62.0117-8.44727 60.8643-7.34863Q59.7168-6.25 59.7168-4.63867Q59.7168-2.97852 60.8643-1.87988Q62.0117-0.78125 63.6719-0.78125ZM74.4141-58.5449Q77.5391-58.5449 79.6875-60.6934Q81.8359-62.8418 81.8359-65.918Q81.8359-69.043 79.6875-71.1914Q77.5391-73.3398 74.4141-73.3398Q71.3379-73.3398 69.1895-71.1914Q67.041-69.043 67.041-65.918Q67.041-62.8418 69.1895-60.6934Q71.3379-58.5449 74.4141-58.5449Z"/>
  </g>
  <g id="Light-L" transform="matrix(1 0 0 1 1079.18 1556)">
   <path class="multicolor-0:systemBlueColor hierarchical-0:secondary SFSymbolsPreview007AFF" d="M73.9258 27.3926Q84.2285 27.3926 93.6035 24.1943Q102.979 20.9961 110.815 15.2344Q118.652 9.47266 124.438 1.63574Q130.225-6.20117 133.423-15.5762Q136.621-24.9512 136.621-35.2539Q136.621-45.5566 133.423-54.9316Q130.225-64.3066 124.438-72.1436Q118.652-79.9805 110.815-85.7666Q102.979-91.5527 93.6035-94.751Q84.2285-97.9492 73.877-97.9492Q63.5742-97.9492 54.2236-94.751Q44.873-91.5527 37.0361-85.7666Q29.1992-79.9805 23.4131-72.1436Q17.627-64.3066 14.4531-54.9316Q11.2793-45.5566 11.2793-35.2539Q11.2793-24.9512 14.4775-15.5762Q17.6758-6.20117 23.4375 1.63574Q29.1992 9.47266 37.0361 15.2344Q44.873 20.9961 54.248 24.1943Q63.623 27.3926 73.9258 27.3926ZM73.9258 20.5078Q64.6973 20.5078 56.3232 17.6758Q47.9492 14.8438 40.9912 9.74121Q34.0332 4.63867 28.9307-2.31934Q23.8281-9.27734 21.0205-17.6514Q18.2129-26.0254 18.2129-35.2539Q18.2129-44.5312 21.0205-52.8809Q23.8281-61.2305 28.9307-68.2129Q34.0332-75.1953 40.9912-80.2979Q47.9492-85.4004 56.2988-88.208Q64.6484-91.0156 73.877-91.0156Q83.1543-91.0156 91.5283-88.208Q99.9023-85.4004 106.86-80.2979Q113.818-75.1953 118.945-68.2129Q124.072-61.2305 126.88-52.8809Q129.688-44.5312 129.688-35.2539Q129.736-26.0254 126.929-17.6514Q124.121-9.27734 118.994-2.31934Q113.867 4.63867 106.909 9.74121Q99.9512 14.8438 91.5771 17.6758Q83.2031 20.5078 73.9258 20.5078Z"/>
   <path class="multicolor-0:systemBlueColor hierarchical-1:primary SFSymbolsPreview007AFF" d="M62.5488-1.07422L88.4277-1.07422Q89.7461-1.07422 90.625-1.95312Q91.5039-2.83203 91.5039-4.10156Q91.5039-5.37109 90.625-6.25Q89.7461-7.12891 88.4277-7.12891L78.7109-7.12891L78.7109-44.0918Q78.7109-45.7031 77.8809-46.7041Q77.0508-47.7051 75.4883-47.7051L63.2324-47.7051Q61.9141-47.7051 61.0107-46.8262Q60.1074-45.9473 60.1074-44.7266Q60.1074-43.4082 61.0107-42.5293Q61.9141-41.6504 63.2324-41.6504L72.168-41.6504L72.168-7.12891L62.5488-7.12891Q61.1816-7.12891 60.3027-6.25Q59.4238-5.37109 59.4238-4.10156Q59.4238-2.83203 60.3027-1.95312Q61.1816-1.07422 62.5488-1.07422ZM73.6328-59.7656Q76.2695-59.7656 78.1006-61.5479Q79.9316-63.3301 79.9316-65.9668Q79.9316-68.6035 78.1006-70.4346Q76.2695-72.2656 73.6328-72.2656Q71.0449-72.2656 69.2139-70.4346Q67.3828-68.6035 67.3828-65.9668Q67.3828-63.3301 69.2139-61.5479Q71.0449-59.7656 73.6328-59.7656Z"/>
  </g>
  <g id="Thin-L" transform="matrix(1 0 0 1 783.693 1556)">
   <path class="multicolor-0:systemBlueColor hierarchical-0:secondary SFSymbolsPreview007AFF" d="M72.7051 26.1719Q82.8613 26.1719 92.041 23.0469Q101.221 19.9219 108.911 14.2822Q116.602 8.64258 122.266 0.952148Q127.93-6.73828 131.055-15.9424Q134.18-25.1465 134.18-35.2539Q134.18-45.4102 131.055-54.5898Q127.93-63.7695 122.29-71.46Q116.65-79.1504 108.936-84.8145Q101.221-90.4785 92.0166-93.6035Q82.8125-96.7285 72.7051-96.7285Q62.5488-96.7285 53.3691-93.6035Q44.1895-90.4785 36.499-84.8145Q28.8086-79.1504 23.1689-71.46Q17.5293-63.7695 14.4043-54.5898Q11.2793-45.4102 11.2793-35.2539Q11.2793-25.1465 14.4043-15.9424Q17.5293-6.73828 23.1689 0.952148Q28.8086 8.64258 36.5234 14.2822Q44.2383 19.9219 53.418 23.0469Q62.5977 26.1719 72.7051 26.1719ZM72.7051 22.168Q63.2324 22.168 54.6143 19.2627Q45.9961 16.3574 38.8184 11.084Q31.6406 5.81055 26.3428-1.36719Q21.0449-8.54492 18.1641-17.1631Q15.2832-25.7812 15.2832-35.2539Q15.2832-44.7754 18.1641-53.3936Q21.0449-62.0117 26.3428-69.1895Q31.6406-76.3672 38.8184-81.6406Q45.9961-86.9141 54.5898-89.8193Q63.1836-92.7246 72.7051-92.7246Q82.2266-92.7246 90.8203-89.8193Q99.4141-86.9141 106.616-81.6406Q113.818-76.3672 119.092-69.1895Q124.365-62.0117 127.271-53.3936Q130.176-44.7754 130.176-35.2539Q130.176-25.7812 127.271-17.1631Q124.365-8.54492 119.092-1.36719Q113.818 5.81055 106.641 11.084Q99.4629 16.3574 90.8447 19.2627Q82.2266 22.168 72.7051 22.168Z"/>
   <path class="multicolor-0:systemBlueColor hierarchical-1:primary SFSymbolsPreview007AFF" d="M61.0352-1.41602L87.0605-1.41602Q87.9395-1.41602 88.4766-2.00195Q89.0137-2.58789 89.0137-3.36914Q89.0137-4.15039 88.4766-4.73633Q87.9395-5.32227 87.0605-5.32227L75.9766-5.32227L75.9766-46.0449Q75.9766-46.875 75.4395-47.4854Q74.9023-48.0957 73.9746-48.0957L61.4258-48.0957Q60.5469-48.0957 59.9854-47.5098Q59.4238-46.9238 59.4238-46.1426Q59.4238-45.3613 59.9854-44.7754Q60.5469-44.1895 61.4258-44.1895L72.0703-44.1895L72.0703-5.32227L61.0352-5.32227Q60.1562-5.32227 59.5947-4.73633Q59.0332-4.15039 59.0332-3.36914Q59.0332-2.58789 59.5947-2.00195Q60.1562-1.41602 61.0352-1.41602ZM72.6562-61.3281Q74.6094-61.3281 76.0254-62.6709Q77.4414-64.0137 77.4414-65.9668Q77.4414-67.9688 76.0254-69.3848Q74.6094-70.8008 72.6562-70.8008Q70.6543-70.8008 69.2383-69.3848Q67.8223-67.9688 67.8223-65.9668Q67.8223-64.0137 69.2383-62.6709Q70.6543-61.3281 72.6562-61.3281Z"/>
  </g>
  <g id="Ultralight-L" transform="matrix(1 0 0 1 487.592 1556)">
   <path class="multicolor-0:systemBlueColor hierarchical-0:secondary SFSymbolsPreview007AFF" d="M72.0703 25.5371Q82.1289 25.5371 91.2354 22.4609Q100.342 19.3848 107.935 13.7939Q115.527 8.20312 121.143 0.585938Q126.758-7.03125 129.858-16.1133Q132.959-25.1953 132.959-35.2539Q132.959-45.3125 129.858-54.4189Q126.758-63.5254 121.167-71.1182Q115.576-78.7109 107.959-84.3262Q100.342-89.9414 91.2354-93.0176Q82.1289-96.0938 72.0703-96.0938Q62.0605-96.0938 52.9541-93.0176Q43.8477-89.9414 36.2305-84.3262Q28.6133-78.7109 23.0225-71.1182Q17.4316-63.5254 14.3555-54.4189Q11.2793-45.3125 11.2793-35.2539Q11.2793-25.1953 14.3555-16.1133Q17.4316-7.03125 23.0225 0.585938Q28.6133 8.20312 36.2305 13.7939Q43.8477 19.3848 52.9541 22.4609Q62.0605 25.5371 72.0703 25.5371ZM72.0703 23.0469Q62.4512 23.0469 53.7109 20.0928Q44.9707 17.1387 37.6709 11.792Q30.3711 6.44531 25.0244-0.854492Q19.6777-8.1543 16.7236-16.8945Q13.7695-25.6348 13.7695-35.2539Q13.7695-44.9219 16.7236-53.6377Q19.6777-62.3535 25.0244-69.6533Q30.3711-76.9531 37.6953-82.3242Q45.0195-87.6953 53.7354-90.6494Q62.4512-93.6035 72.0703-93.6035Q81.7383-93.6035 90.4785-90.6494Q99.2188-87.6953 106.494-82.3242Q113.77-76.9531 119.141-69.6533Q124.512-62.3535 127.466-53.6377Q130.42-44.9219 130.42-35.2539Q130.371-25.6348 127.441-16.8945Q124.512-8.1543 119.141-0.854492Q113.77 6.44531 106.494 11.792Q99.2188 17.1387 90.4785 20.0928Q81.7383 23.0469 72.0703 23.0469Z"/>
   <path class="multicolor-0:systemBlueColor hierarchical-1:primary SFSymbolsPreview007AFF" d="M60.2539-1.61133L86.3281-1.61133Q87.0117-1.61133 87.3779-2.05078Q87.7441-2.49023 87.7441-3.02734Q87.7441-3.56445 87.3779-4.00391Q87.0117-4.44336 86.3281-4.44336L74.5605-4.44336L74.5605-47.0215Q74.5605-47.5098 74.1943-47.9248Q73.8281-48.3398 73.1934-48.3398L60.498-48.3398Q59.8145-48.3398 59.4482-47.9004Q59.082-47.4609 59.082-46.9238Q59.082-46.3379 59.4482-45.8984Q59.8145-45.459 60.498-45.459L72.0215-45.459L72.0215-4.44336L60.2539-4.44336Q59.5703-4.44336 59.2041-4.00391Q58.8379-3.56445 58.8379-3.02734Q58.8379-2.49023 59.2041-2.05078Q59.5703-1.61133 60.2539-1.61133ZM72.1191-62.1582Q73.7305-62.1582 74.9512-63.2568Q76.1719-64.3555 76.1719-66.0156Q76.1719-67.6758 74.9512-68.8721Q73.7305-70.0684 72.1191-70.0684Q70.459-70.0684 69.2627-68.8721Q68.0664-67.6758 68.0664-66.0156Q68.0664-64.3555 69.2627-63.2568Q70.459-62.1582 72.1191-62.1582Z"/>
  </g>
  <g id="Black-M" transform="matrix(1 0 0 1 2871.32 1126)">
   <path class="multicolor-0:systemBlueColor hierarchical-0:secondary SFSymbolsPreview007AFF" d="M62.0605 18.1152Q73.0957 18.1152 82.7637 13.9648Q92.4316 9.81445 99.7559 2.46582Q107.08-4.88281 111.255-14.5264Q115.43-24.1699 115.43-35.2051Q115.43-46.2402 111.255-55.8838Q107.08-65.5273 99.7559-72.876Q92.4316-80.2246 82.7637-84.375Q73.0957-88.5254 62.0605-88.5254Q51.0742-88.5254 41.4062-84.375Q31.7383-80.2246 24.3896-72.876Q17.041-65.5273 12.8906-55.8838Q8.74023-46.2402 8.74023-35.2051Q8.74023-24.1699 12.8906-14.5264Q17.041-4.88281 24.3896 2.46582Q31.7383 9.81445 41.4062 13.9648Q51.0742 18.1152 62.0605 18.1152ZM62.0605 0.732422Q54.6387 0.732422 48.1201-2.05078Q41.6016-4.83398 36.6455-9.76562Q31.6895-14.6973 28.9062-21.2158Q26.123-27.7344 26.123-35.2051Q26.123-42.6758 28.9062-49.1943Q31.6895-55.7129 36.6455-60.6445Q41.6016-65.5762 48.1201-68.3594Q54.6387-71.1426 62.0605-71.1426Q69.5312-71.1426 76.0498-68.3594Q82.5684-65.5762 87.5-60.6445Q92.4316-55.7129 95.2393-49.1943Q98.0469-42.6758 98.0469-35.2051Q98.0469-27.7344 95.2393-21.2158Q92.4316-14.6973 87.5-9.76562Q82.5684-4.83398 76.0498-2.05078Q69.5312 0.732422 62.0605 0.732422Z"/>
   <path class="multicolor-0:systemBlueColor hierarchical-1:primary SFSymbolsPreview007AFF" d="M53.125-9.96094L72.6074-9.96094Q74.9023-9.96094 76.4648-11.4258Q78.0273-12.8906 78.0273-15.2832Q78.0273-17.4805 76.4648-18.9941Q74.9023-20.5078 72.6074-20.5078L69.873-20.5078L69.873-36.084Q69.873-39.2578 68.3594-41.1133Q66.8457-42.9688 63.8672-42.9688L54.1504-42.9688Q51.8555-42.9688 50.2686-41.4551Q48.6816-39.9414 48.6816-37.7441Q48.6816-35.3516 50.2686-33.8867Q51.8555-32.4219 54.1504-32.4219L57.9102-32.4219L57.9102-20.5078L53.125-20.5078Q50.8301-20.5078 49.2676-18.9941Q47.7051-17.4805 47.7051-15.2832Q47.7051-12.8906 49.2676-11.4258Q50.8301-9.96094 53.125-9.96094ZM62.3535-48.2422Q65.6738-48.2422 68.0176-50.6348Q70.3613-53.0273 70.3613-56.2012Q70.3613-59.6191 68.0176-61.9873Q65.6738-64.3555 62.3535-64.3555Q59.1309-64.3555 56.7383-61.9873Q54.3457-59.6191 54.3457-56.2012Q54.3457-53.0273 56.7383-50.6348Q59.1309-48.2422 62.3535-48.2422Z"/>
  </g>
  <g id="Heavy-M" transform="matrix(1 0 0 1 2575.43 1126)">
   <path class="multicolor-0:systemBlueColor hierarchical-0:secondary SFSymbolsPreview007AFF" d="M61.2305 17.2852Q72.0703 17.2852 81.5918 13.1836Q91.1133 9.08203 98.3154 1.85547Q105.518-5.37109 109.644-14.8682Q113.77-24.3652 113.77-35.2051Q113.77-46.0449 109.644-55.542Q105.518-65.0391 98.3154-72.29Q91.1133-79.541 81.5918-83.6182Q72.0703-87.6953 61.2305-87.6953Q50.4395-87.6953 40.918-83.6182Q31.3965-79.541 24.1699-72.29Q16.9434-65.0391 12.8418-55.542Q8.74023-46.0449 8.74023-35.2051Q8.74023-24.3652 12.8418-14.8682Q16.9434-5.37109 24.1699 1.85547Q31.3965 9.08203 40.918 13.1836Q50.4395 17.2852 61.2305 17.2852ZM61.2305 2.05078Q53.5156 2.05078 46.7529-0.854492Q39.9902-3.75977 34.8633-8.8623Q29.7363-13.9648 26.8555-20.7275Q23.9746-27.4902 23.9746-35.2051Q23.9746-42.9688 26.8555-49.7314Q29.7363-56.4941 34.8633-61.5967Q39.9902-66.6992 46.7529-69.5801Q53.5156-72.4609 61.2305-72.4609Q68.9453-72.4609 75.708-69.5801Q82.4707-66.6992 87.5977-61.5967Q92.7246-56.4941 95.6299-49.7314Q98.5352-42.9688 98.5352-35.2051Q98.5352-27.4902 95.6299-20.7275Q92.7246-13.9648 87.6221-8.8623Q82.5195-3.75977 75.7568-0.854492Q68.9941 2.05078 61.2305 2.05078Z"/>
   <path class="multicolor-0:systemBlueColor hierarchical-1:primary SFSymbolsPreview007AFF" d="M52.3926-9.57031L71.9727-9.57031Q74.0723-9.57031 75.5127-10.9375Q76.9531-12.3047 76.9531-14.4531Q76.9531-16.5039 75.5127-17.8955Q74.0723-19.2871 71.9727-19.2871L68.457-19.2871L68.457-37.0117Q68.457-39.9414 67.0654-41.626Q65.6738-43.3105 62.9395-43.3105L53.3691-43.3105Q51.2695-43.3105 49.8047-41.9434Q48.3398-40.5762 48.3398-38.5254Q48.3398-36.377 49.8047-35.0098Q51.2695-33.6426 53.3691-33.6426L57.4707-33.6426L57.4707-19.2871L52.3926-19.2871Q50.293-19.2871 48.8525-17.8955Q47.4121-16.5039 47.4121-14.4531Q47.4121-12.3047 48.8525-10.9375Q50.293-9.57031 52.3926-9.57031ZM61.377-49.2676Q64.5508-49.2676 66.7725-51.5381Q68.9941-53.8086 68.9941-56.8359Q68.9941-60.1074 66.7725-62.3535Q64.5508-64.5996 61.377-64.5996Q58.252-64.5996 56.0059-62.3535Q53.7598-60.1074 53.7598-56.8359Q53.7598-53.8086 56.0059-51.5381Q58.252-49.2676 61.377-49.2676Z"/>
  </g>
  <g id="Bold-M" transform="matrix(1 0 0 1 2279.65 1126)">
   <path class="multicolor-0:systemBlueColor hierarchical-0:secondary SFSymbolsPreview007AFF" d="M60.3027 16.3574Q70.9473 16.3574 80.2734 12.3291Q89.5996 8.30078 96.7041 1.17188Q103.809-5.95703 107.861-15.2832Q111.914-24.6094 111.914-35.2539Q111.914-45.8496 107.861-55.1758Q103.809-64.502 96.7041-71.6309Q89.5996-78.7598 80.249-82.7881Q70.8984-86.8164 60.3027-86.8164Q49.707-86.8164 40.3564-82.7881Q31.0059-78.7598 23.9014-71.6309Q16.7969-64.502 12.7686-55.1758Q8.74023-45.8496 8.74023-35.2539Q8.74023-24.6094 12.7686-15.2832Q16.7969-5.95703 23.9258 1.17188Q31.0547 8.30078 40.3809 12.3291Q49.707 16.3574 60.3027 16.3574ZM60.3027 3.51562Q52.2949 3.51562 45.2637 0.488281Q38.2324-2.53906 32.9102-7.83691Q27.5879-13.1348 24.6094-20.166Q21.6309-27.1973 21.6309-35.2539Q21.6309-43.3105 24.6094-50.3174Q27.5879-57.3242 32.9102-62.6465Q38.2324-67.9688 45.2393-70.9717Q52.2461-73.9746 60.3027-73.9746Q68.3594-73.9746 75.3662-70.9717Q82.373-67.9688 87.6953-62.6465Q93.0176-57.3242 96.0449-50.3174Q99.0723-43.3105 99.0723-35.2539Q99.0723-27.1973 96.0693-20.166Q93.0664-13.1348 87.7441-7.83691Q82.4219-2.53906 75.3906 0.488281Q68.3594 3.51562 60.3027 3.51562Z"/>
   <path class="multicolor-0:systemBlueColor hierarchical-1:primary SFSymbolsPreview007AFF" d="M51.5625-9.17969L71.2402-9.17969Q73.1445-9.17969 74.4385-10.4004Q75.7324-11.6211 75.7324-13.5742Q75.7324-15.3809 74.4385-16.626Q73.1445-17.8711 71.2402-17.8711L66.8457-17.8711L66.8457-38.0859Q66.8457-40.6738 65.6006-42.2119Q64.3555-43.75 61.9629-43.75L52.4902-43.75Q50.5859-43.75 49.292-42.5049Q47.998-41.2598 47.998-39.4043Q47.998-37.5 49.292-36.2793Q50.5859-35.0586 52.4902-35.0586L56.9824-35.0586L56.9824-17.8711L51.5625-17.8711Q49.6582-17.8711 48.3643-16.626Q47.0703-15.3809 47.0703-13.5742Q47.0703-11.6211 48.3643-10.4004Q49.6582-9.17969 51.5625-9.17969ZM60.2539-50.4395Q63.2324-50.4395 65.332-52.5635Q67.4316-54.6875 67.4316-57.6172Q67.4316-60.6445 65.332-62.7686Q63.2324-64.8926 60.2539-64.8926Q57.3242-64.8926 55.2002-62.7686Q53.0762-60.6445 53.0762-57.6172Q53.0762-54.6875 55.2002-52.5635Q57.3242-50.4395 60.2539-50.4395Z"/>
  </g>
  <g id="Semibold-M" transform="matrix(1 0 0 1 1983.6 1126)">
   <path class="multicolor-0:systemBlueColor hierarchical-0:secondary SFSymbolsPreview007AFF" d="M59.668 15.6738Q70.1172 15.6738 79.3457 11.6943Q88.5742 7.71484 95.6055 0.683594Q102.637-6.34766 106.616-15.5518Q110.596-24.7559 110.596-35.2539Q110.596-45.7031 106.616-54.9072Q102.637-64.1113 95.6055-71.1426Q88.5742-78.1738 79.3457-82.1777Q70.1172-86.1816 59.6191-86.1816Q49.1699-86.1816 39.9658-82.1777Q30.7617-78.1738 23.7305-71.1426Q16.6992-64.1113 12.7197-54.9072Q8.74023-45.7031 8.74023-35.2539Q8.74023-24.7559 12.7197-15.5518Q16.6992-6.34766 23.7305 0.683594Q30.7617 7.71484 39.9902 11.6943Q49.2188 15.6738 59.668 15.6738ZM59.668 4.49219Q51.416 4.49219 44.2139 1.41602Q37.0117-1.66016 31.543-7.10449Q26.0742-12.5488 23.0225-19.751Q19.9707-26.9531 19.9707-35.2539Q19.9707-43.5059 23.0225-50.708Q26.0742-57.9102 31.5186-63.3789Q36.9629-68.8477 44.165-71.8994Q51.3672-74.9512 59.6191-74.9512Q67.9199-74.9512 75.1221-71.8994Q82.3242-68.8477 87.7686-63.3789Q93.2129-57.9102 96.3135-50.708Q99.4141-43.5059 99.4141-35.2539Q99.4141-26.9531 96.3379-19.751Q93.2617-12.5488 87.8174-7.10449Q82.373-1.66016 75.1465 1.41602Q67.9199 4.49219 59.668 4.49219Z"/>
   <path class="multicolor-0:systemBlueColor hierarchical-1:primary SFSymbolsPreview007AFF" d="M50.9766-8.93555L70.752-8.93555Q72.5098-8.93555 73.7061-10.083Q74.9023-11.2305 74.9023-12.9883Q74.9023-14.6484 73.7061-15.7959Q72.5098-16.9434 70.752-16.9434L65.7227-16.9434L65.7227-38.8672Q65.7227-41.2598 64.5752-42.6514Q63.4277-44.043 61.2305-44.043L51.8555-44.043Q50.0977-44.043 48.9014-42.8955Q47.7051-41.748 47.7051-40.0391Q47.7051-38.2812 48.9014-37.1582Q50.0977-36.0352 51.8555-36.0352L56.6406-36.0352L56.6406-16.9434L50.9766-16.9434Q49.2188-16.9434 48.0225-15.7959Q46.8262-14.6484 46.8262-12.9883Q46.8262-11.2305 48.0225-10.083Q49.2188-8.93555 50.9766-8.93555ZM59.4238-51.2695Q62.3535-51.2695 64.3311-53.2959Q66.3086-55.3223 66.3086-58.1543Q66.3086-61.084 64.3311-63.0859Q62.3535-65.0879 59.4238-65.0879Q56.6406-65.0879 54.6143-63.0859Q52.5879-61.084 52.5879-58.1543Q52.5879-55.3223 54.6143-53.2959Q56.6406-51.2695 59.4238-51.2695Z"/>
  </g>
  <g id="Medium-M" transform="matrix(1 0 0 1 1687.38 1126)">
   <path class="multicolor-0:systemBlueColor hierarchical-0:secondary SFSymbolsPreview007AFF" d="M59.1797 15.1855Q69.5312 15.1855 78.6621 11.2305Q87.793 7.27539 94.751 0.317383Q101.709-6.64062 105.664-15.7715Q109.619-24.9023 109.619-35.2539Q109.619-45.6055 105.664-54.7363Q101.709-63.8672 94.751-70.8252Q87.793-77.7832 78.6377-81.7383Q69.4824-85.6934 59.1309-85.6934Q48.7793-85.6934 39.6484-81.7383Q30.5176-77.7832 23.584-70.8252Q16.6504-63.8672 12.6953-54.7363Q8.74023-45.6055 8.74023-35.2539Q8.74023-24.9023 12.6953-15.7715Q16.6504-6.64062 23.6084 0.317383Q30.5664 7.27539 39.6973 11.2305Q48.8281 15.1855 59.1797 15.1855ZM59.1797 5.27344Q50.7324 5.27344 43.4082 2.12402Q36.084-1.02539 30.5176-6.5918Q24.9512-12.1582 21.8262-19.4824Q18.7012-26.8066 18.7012-35.2539Q18.7012-43.7012 21.8262-51.0254Q24.9512-58.3496 30.4932-63.916Q36.0352-69.4824 43.3838-72.6074Q50.7324-75.7324 59.1309-75.7324Q67.5781-75.7324 74.9023-72.6074Q82.2266-69.4824 87.8174-63.916Q93.4082-58.3496 96.5576-51.0254Q99.707-43.7012 99.707-35.2539Q99.707-26.8066 96.582-19.4824Q93.457-12.1582 87.8906-6.5918Q82.3242-1.02539 74.9756 2.12402Q67.627 5.27344 59.1797 5.27344Z"/>
   <path class="multicolor-0:systemBlueColor hierarchical-1:primary SFSymbolsPreview007AFF" d="M50.5859-8.74023L70.3613-8.74023Q72.0215-8.74023 73.1445-9.79004Q74.2676-10.8398 74.2676-12.5Q74.2676-14.0625 73.1445-15.1367Q72.0215-16.2109 70.3613-16.2109L64.9414-16.2109L64.9414-39.4043Q64.9414-41.6504 63.8672-42.9443Q62.793-44.2383 60.7422-44.2383L51.4648-44.2383Q49.8047-44.2383 48.6816-43.1641Q47.5586-42.0898 47.5586-40.5273Q47.5586-38.8672 48.6816-37.8174Q49.8047-36.7676 51.4648-36.7676L56.3965-36.7676L56.3965-16.2109L50.5859-16.2109Q48.9258-16.2109 47.8027-15.1367Q46.6797-14.0625 46.6797-12.5Q46.6797-10.8398 47.8027-9.79004Q48.9258-8.74023 50.5859-8.74023ZM58.8867-51.9043Q61.6699-51.9043 63.5986-53.8574Q65.5273-55.8105 65.5273-58.5449Q65.5273-61.3281 63.5986-63.2812Q61.6699-65.2344 58.8867-65.2344Q56.1523-65.2344 54.1992-63.2812Q52.2461-61.3281 52.2461-58.5449Q52.2461-55.8105 54.1992-53.8574Q56.1523-51.9043 58.8867-51.9043Z"/>
  </g>
  <g id="Regular-M" transform="matrix(1 0 0 1 1391.3 1126)">
   <path class="multicolor-0:systemBlueColor hierarchical-0:secondary SFSymbolsPreview007AFF" d="M58.5449 14.5508Q68.75 14.5508 77.7588 10.6445Q86.7676 6.73828 93.6523-0.146484Q100.537-7.03125 104.443-16.04Q108.35-25.0488 108.35-35.2539Q108.35-45.459 104.443-54.4678Q100.537-63.4766 93.6523-70.3613Q86.7676-77.2461 77.7344-81.1523Q68.7012-85.0586 58.4961-85.0586Q48.291-85.0586 39.2822-81.1523Q30.2734-77.2461 23.4131-70.3613Q16.5527-63.4766 12.6465-54.4678Q8.74023-45.459 8.74023-35.2539Q8.74023-25.0488 12.6465-16.04Q16.5527-7.03125 23.4375-0.146484Q30.3223 6.73828 39.3311 10.6445Q48.3398 14.5508 58.5449 14.5508ZM58.5449 6.25Q49.9023 6.25 42.3828 3.02734Q34.8633-0.195312 29.1748-5.88379Q23.4863-11.5723 20.2881-19.0918Q17.0898-26.6113 17.0898-35.2539Q17.0898-43.8965 20.2881-51.416Q23.4863-58.9355 29.1504-64.6484Q34.8145-70.3613 42.334-73.5596Q49.8535-76.7578 58.4961-76.7578Q67.1387-76.7578 74.6582-73.5596Q82.1777-70.3613 87.8906-64.6484Q93.6035-58.9355 96.8262-51.416Q100.049-43.8965 100.049-35.2539Q100.049-26.6113 96.8506-19.0918Q93.6523-11.5723 87.9639-5.88379Q82.2754-0.195312 74.7314 3.02734Q67.1875 6.25 58.5449 6.25Z"/>
   <path class="multicolor-0:systemBlueColor hierarchical-1:primary SFSymbolsPreview007AFF" d="M50-8.44727L69.873-8.44727Q71.3867-8.44727 72.4121-9.42383Q73.4375-10.4004 73.4375-11.8652Q73.4375-13.3301 72.4121-14.3066Q71.3867-15.2832 69.873-15.2832L63.8184-15.2832L63.8184-40.1367Q63.8184-42.1387 62.8418-43.335Q61.8652-44.5312 60.0098-44.5312L50.8301-44.5312Q49.3164-44.5312 48.291-43.5547Q47.2656-42.5781 47.2656-41.1133Q47.2656-39.6484 48.291-38.6719Q49.3164-37.6953 50.8301-37.6953L56.0547-37.6953L56.0547-15.2832L50-15.2832Q48.4863-15.2832 47.4609-14.3066Q46.4355-13.3301 46.4355-11.8652Q46.4355-10.4004 47.4609-9.42383Q48.4863-8.44727 50-8.44727ZM58.1055-52.6855Q60.791-52.6855 62.6221-54.541Q64.4531-56.3965 64.4531-59.0332Q64.4531-61.7188 62.6221-63.5742Q60.791-65.4297 58.1055-65.4297Q55.4688-65.4297 53.6133-63.5742Q51.7578-61.7188 51.7578-59.0332Q51.7578-56.3965 53.6133-54.541Q55.4688-52.6855 58.1055-52.6855Z"/>
  </g>
  <g id="Light-M" transform="matrix(1 0 0 1 1095.42 1126)">
   <path class="multicolor-0:systemBlueColor hierarchical-0:secondary SFSymbolsPreview007AFF" d="M57.7148 13.7207Q67.7734 13.7207 76.6357 9.8877Q85.498 6.05469 92.2607-0.708008Q99.0234-7.4707 102.856-16.333Q106.689-25.1953 106.689-35.2539Q106.689-45.3125 102.856-54.1748Q99.0234-63.0371 92.2607-69.7998Q85.498-76.5625 76.6113-80.3955Q67.7246-84.2285 57.666-84.2285Q47.6074-84.2285 38.7451-80.3955Q29.8828-76.5625 23.1445-69.7998Q16.4062-63.0371 12.5732-54.1748Q8.74023-45.3125 8.74023-35.2539Q8.74023-25.1953 12.5732-16.333Q16.4062-7.4707 23.1689-0.708008Q29.9316 6.05469 38.7939 9.8877Q47.6562 13.7207 57.7148 13.7207ZM57.7148 7.37305Q48.877 7.37305 41.1377 4.07715Q33.3984 0.78125 27.5391-5.07812Q21.6797-10.9375 18.3838-18.6768Q15.0879-26.416 15.0879-35.2539Q15.0879-44.0918 18.3838-51.8311Q21.6797-59.5703 27.5391-65.4541Q33.3984-71.3379 41.1133-74.6338Q48.8281-77.9297 57.666-77.9297Q66.5527-77.9297 74.2676-74.6338Q81.9824-71.3379 87.8662-65.4541Q93.75-59.5703 97.0703-51.8311Q100.391-44.0918 100.391-35.2539Q100.391-26.416 97.0703-18.6768Q93.75-10.9375 87.915-5.07812Q82.0801 0.78125 74.3408 4.07715Q66.6016 7.37305 57.7148 7.37305Z"/>
   <path class="multicolor-0:systemBlueColor hierarchical-1:primary SFSymbolsPreview007AFF" d="M48.9746-8.69141L68.9941-8.69141Q70.166-8.69141 70.9717-9.47266Q71.7773-10.2539 71.7773-11.377Q71.7773-12.5488 70.9717-13.3301Q70.166-14.1113 68.9941-14.1113L61.9629-14.1113L61.9629-41.4551Q61.9629-42.9688 61.2061-43.8965Q60.4492-44.8242 59.0332-44.8242L49.6094-44.8242Q48.4375-44.8242 47.6318-44.043Q46.8262-43.2617 46.8262-42.1387Q46.8262-40.9668 47.6318-40.1855Q48.4375-39.4043 49.6094-39.4043L56.0059-39.4043L56.0059-14.1113L48.9746-14.1113Q47.8027-14.1113 46.9971-13.3301Q46.1914-12.5488 46.1914-11.377Q46.1914-10.2539 46.9971-9.47266Q47.8027-8.69141 48.9746-8.69141ZM57.4219-53.7598Q59.668-53.7598 61.2305-55.2979Q62.793-56.8359 62.793-59.082Q62.793-61.3281 61.2305-62.8906Q59.668-64.4531 57.4219-64.4531Q55.2246-64.4531 53.6377-62.8906Q52.0508-61.3281 52.0508-59.082Q52.0508-56.8359 53.6377-55.2979Q55.2246-53.7598 57.4219-53.7598Z"/>
  </g>
  <g id="Thin-M" transform="matrix(1 0 0 1 799.782 1126)">
   <path class="multicolor-0:systemBlueColor hierarchical-0:secondary SFSymbolsPreview007AFF" d="M56.5918 12.5977Q66.5039 12.5977 75.1709 8.88672Q83.8379 5.17578 90.4297-1.44043Q97.0215-8.05664 100.781-16.7236Q104.541-25.3906 104.541-35.2539Q104.541-45.1172 100.781-53.7842Q97.0215-62.4512 90.4297-69.0674Q83.8379-75.6836 75.1709-79.3945Q66.5039-83.1055 56.5918-83.1055Q46.7285-83.1055 38.0615-79.3945Q29.3945-75.6836 22.8271-69.0674Q16.2598-62.4512 12.5-53.7842Q8.74023-45.1172 8.74023-35.2539Q8.74023-25.3906 12.4756-16.7236Q16.2109-8.05664 22.8027-1.44043Q29.3945 5.17578 38.0859 8.88672Q46.7773 12.5977 56.5918 12.5977ZM56.5918 8.88672Q47.4609 8.88672 39.4775 5.44434Q31.4941 2.00195 25.415-4.05273Q19.3359-10.1074 15.918-18.1152Q12.5-26.123 12.5-35.2539Q12.5-44.3848 15.918-52.3926Q19.3359-60.4004 25.415-66.4795Q31.4941-72.5586 39.4775-76.001Q47.4609-79.4434 56.5918-79.4434Q65.7715-79.4434 73.7549-76.001Q81.7383-72.5586 87.8174-66.4795Q93.8965-60.4004 97.3389-52.3926Q100.781-44.3848 100.781-35.2539Q100.781-26.123 97.3633-18.1152Q93.9453-10.1074 87.8662-4.05273Q81.7871 2.00195 73.7793 5.44434Q65.7715 8.88672 56.5918 8.88672Z"/>
   <path class="multicolor-0:systemBlueColor hierarchical-1:primary SFSymbolsPreview007AFF" d="M47.6074-8.93555L67.7734-8.93555Q68.5547-8.93555 69.043-9.47266Q69.5312-10.0098 69.5312-10.6934Q69.5312-11.4258 69.043-11.9385Q68.5547-12.4512 67.7734-12.4512L59.5215-12.4512L59.5215-43.1641Q59.5215-43.9941 59.0332-44.5557Q58.5449-45.1172 57.666-45.1172L47.998-45.1172Q47.2168-45.1172 46.7285-44.6045Q46.2402-44.0918 46.2402-43.3594Q46.2402-42.627 46.7285-42.1143Q47.2168-41.6016 47.998-41.6016L55.9082-41.6016L55.9082-12.4512L47.6074-12.4512Q46.8262-12.4512 46.3379-11.9385Q45.8496-11.4258 45.8496-10.6934Q45.8496-10.0098 46.3379-9.47266Q46.8262-8.93555 47.6074-8.93555ZM56.543-55.0781Q58.2031-55.0781 59.375-56.2256Q60.5469-57.373 60.5469-59.0332Q60.5469-60.6934 59.375-61.8896Q58.2031-63.0859 56.543-63.0859Q54.834-63.0859 53.6621-61.8896Q52.4902-60.6934 52.4902-59.0332Q52.4902-57.373 53.6621-56.2256Q54.834-55.0781 56.543-55.0781Z"/>
  </g>
  <g id="Ultralight-M" transform="matrix(1 0 0 1 503.632 1126)">
   <path class="multicolor-0:systemBlueColor hierarchical-0:secondary SFSymbolsPreview007AFF" d="M56.0547 12.0605Q65.8203 12.0605 74.3896 8.37402Q82.959 4.6875 89.4775-1.83105Q95.9961-8.34961 99.707-16.9189Q103.418-25.4883 103.418-35.2539Q103.418-45.0195 99.707-53.5889Q95.9961-62.1582 89.4775-68.6768Q82.959-75.1953 74.3896-78.8818Q65.8203-82.5684 56.0547-82.5684Q46.2891-82.5684 37.7197-78.8818Q29.1504-75.1953 22.6562-68.6768Q16.1621-62.1582 12.4512-53.5889Q8.74023-45.0195 8.74023-35.2539Q8.74023-25.4883 12.4268-16.9189Q16.1133-8.34961 22.6318-1.83105Q29.1504 4.6875 37.7197 8.37402Q46.2891 12.0605 56.0547 12.0605ZM56.0547 9.66797Q46.7773 9.66797 38.6475 6.17676Q30.5176 2.68555 24.3164-3.49121Q18.1152-9.66797 14.624-17.8223Q11.1328-25.9766 11.1328-35.2539Q11.1328-44.5312 14.624-52.6855Q18.1152-60.8398 24.3164-67.041Q30.5176-73.2422 38.6475-76.7334Q46.7773-80.2246 56.0547-80.2246Q65.3809-80.2246 73.5107-76.7334Q81.6406-73.2422 87.8174-67.041Q93.9941-60.8398 97.5098-52.6855Q101.025-44.5312 101.025-35.2539Q101.025-25.9766 97.5098-17.8223Q93.9941-9.66797 87.8174-3.49121Q81.6406 2.68555 73.5107 6.17676Q65.3809 9.66797 56.0547 9.66797Z"/>
   <path class="multicolor-0:systemBlueColor hierarchical-1:primary SFSymbolsPreview007AFF" d="M46.9727-9.13086L67.1875-9.13086Q67.7246-9.13086 68.0908-9.52148Q68.457-9.91211 68.457-10.3516Q68.457-10.8887 68.0908-11.2793Q67.7246-11.6699 67.1875-11.6699L58.252-11.6699L58.252-44.0918Q58.252-44.5312 57.9102-44.9219Q57.5684-45.3125 57.0312-45.3125L47.168-45.3125Q46.6309-45.3125 46.2891-44.9219Q45.9473-44.5312 45.9473-44.0918Q45.9473-43.5547 46.2891-43.1641Q46.6309-42.7734 47.168-42.7734L55.8594-42.7734L55.8594-11.6699L46.9727-11.6699Q46.3867-11.6699 46.0449-11.2793Q45.7031-10.8887 45.7031-10.3516Q45.7031-9.91211 46.0449-9.52148Q46.3867-9.13086 46.9727-9.13086ZM56.1035-55.8105Q57.4707-55.8105 58.4717-56.7627Q59.4727-57.7148 59.4727-59.082Q59.4727-60.4492 58.4717-61.4502Q57.4707-62.4512 56.1035-62.4512Q54.6875-62.4512 53.6865-61.4502Q52.6855-60.4492 52.6855-59.082Q52.6855-57.7148 53.6865-56.7627Q54.6875-55.8105 56.1035-55.8105Z"/>
  </g>
  <g id="Black-S" transform="matrix(1 0 0 1 2884.57 696)">
   <path class="multicolor-0:systemBlueColor hierarchical-0:secondary SFSymbolsPreview007AFF" d="M48.8281 6.78711Q57.5195 6.78711 65.1123 3.51562Q72.7051 0.244141 78.4912-5.54199Q84.2773-11.3281 87.5488-18.9209Q90.8203-26.5137 90.8203-35.2051Q90.8203-43.8965 87.5488-51.4893Q84.2773-59.082 78.4912-64.8682Q72.7051-70.6543 65.1123-73.9258Q57.5195-77.1973 48.8281-77.1973Q40.1367-77.1973 32.5439-73.9258Q24.9512-70.6543 19.165-64.8682Q13.3789-59.082 10.1074-51.4893Q6.83594-43.8965 6.83594-35.2051Q6.83594-26.5137 10.1074-18.9209Q13.3789-11.3281 19.165-5.54199Q24.9512 0.244141 32.5439 3.51562Q40.1367 6.78711 48.8281 6.78711ZM48.8281-7.37305Q43.0664-7.37305 38.0127-9.5459Q32.959-11.7188 29.1504-15.5273Q25.3418-19.3359 23.1689-24.3896Q20.9961-29.4434 20.9961-35.2051Q20.9961-40.9668 23.1689-46.0205Q25.3418-51.0742 29.1504-54.8828Q32.959-58.6914 38.0127-60.8643Q43.0664-63.0371 48.8281-63.0371Q54.5898-63.0371 59.6436-60.8643Q64.6973-58.6914 68.5059-54.8828Q72.3145-51.0742 74.4873-46.0205Q76.6602-40.9668 76.6602-35.2051Q76.6602-29.4434 74.4873-24.3896Q72.3145-19.3359 68.5059-15.5273Q64.6973-11.7188 59.6436-9.5459Q54.5898-7.37305 48.8281-7.37305Z"/>
   <path class="multicolor-0:systemBlueColor hierarchical-1:primary SFSymbolsPreview007AFF" d="M41.7969-15.5762L57.0312-15.5762Q58.8867-15.5762 60.1318-16.748Q61.377-17.9199 61.377-19.8242Q61.377-21.582 60.1318-22.8027Q58.8867-24.0234 57.0312-24.0234L55.0781-24.0234L55.0781-35.6934Q55.0781-38.2324 53.8574-39.7217Q52.6367-41.2109 50.2441-41.2109L42.5781-41.2109Q40.7715-41.2109 39.502-39.9902Q38.2324-38.7695 38.2324-37.0117Q38.2324-35.1074 39.502-33.9355Q40.7715-32.7637 42.5781-32.7637L45.5078-32.7637L45.5078-24.0234L41.7969-24.0234Q39.9902-24.0234 38.7207-22.8027Q37.4512-21.582 37.4512-19.8242Q37.4512-17.9199 38.7207-16.748Q39.9902-15.5762 41.7969-15.5762ZM49.1211-45.166Q51.709-45.166 53.5889-47.0459Q55.4688-48.9258 55.4688-51.4648Q55.4688-54.1992 53.5889-56.0547Q51.709-57.9102 49.1211-57.9102Q46.582-57.9102 44.6777-56.0547Q42.7734-54.1992 42.7734-51.4648Q42.7734-48.9258 44.6777-47.0459Q46.582-45.166 49.1211-45.166Z"/>
  </g>
  <g id="Heavy-S" transform="matrix(1 0 0 1 2588.47 696)">
   <path class="multicolor-0:systemBlueColor hierarchical-0:secondary SFSymbolsPreview007AFF" d="M48.1934 6.15234Q56.7871 6.15234 64.2578 2.92969Q71.7285-0.292969 77.4414-6.00586Q83.1543-11.7188 86.377-19.1895Q89.5996-26.6602 89.5996-35.2051Q89.5996-43.75 86.377-51.2451Q83.1543-58.7402 77.4414-64.4531Q71.7285-70.166 64.2334-73.3887Q56.7383-76.6113 48.1934-76.6113Q39.6484-76.6113 32.1777-73.3887Q24.707-70.166 18.9941-64.4531Q13.2812-58.7402 10.0586-51.2451Q6.83594-43.75 6.83594-35.2051Q6.83594-26.6602 10.0586-19.1895Q13.2812-11.7188 18.9941-6.00586Q24.707-0.292969 32.2021 2.92969Q39.6973 6.15234 48.1934 6.15234ZM48.1934-6.39648Q42.2363-6.39648 37.0117-8.64258Q31.7871-10.8887 27.8564-14.8438Q23.9258-18.7988 21.6797-24.0234Q19.4336-29.248 19.4336-35.2051Q19.4336-41.1621 21.6553-46.4111Q23.877-51.6602 27.832-55.5908Q31.7871-59.5215 37.0117-61.7676Q42.2363-64.0137 48.1934-64.0137Q54.1992-64.0137 59.4238-61.7676Q64.6484-59.5215 68.5791-55.5908Q72.5098-51.6602 74.7803-46.4111Q77.0508-41.1621 77.0508-35.2051Q77.0508-29.248 74.8047-24.0234Q72.5586-18.7988 68.6035-14.8438Q64.6484-10.8887 59.4238-8.64258Q54.1992-6.39648 48.1934-6.39648Z"/>
   <path class="multicolor-0:systemBlueColor hierarchical-1:primary SFSymbolsPreview007AFF" d="M41.2598-15.2344L56.5918-15.2344Q58.3008-15.2344 59.4727-16.333Q60.6445-17.4316 60.6445-19.1895Q60.6445-20.8496 59.4727-21.9727Q58.3008-23.0957 56.5918-23.0957L54.0527-23.0957L54.0527-36.3281Q54.0527-38.7207 52.9297-40.1123Q51.8066-41.5039 49.6094-41.5039L42.041-41.5039Q40.332-41.5039 39.1602-40.3564Q37.9883-39.209 37.9883-37.5488Q37.9883-35.791 39.1602-34.6924Q40.332-33.5938 42.041-33.5938L45.1172-33.5938L45.1172-23.0957L41.2598-23.0957Q39.5996-23.0957 38.4033-21.9727Q37.207-20.8496 37.207-19.1895Q37.207-17.4316 38.4033-16.333Q39.5996-15.2344 41.2598-15.2344ZM48.3398-45.8984Q50.8301-45.8984 52.6367-47.7295Q54.4434-49.5605 54.4434-52.0508Q54.4434-54.6387 52.6367-56.4453Q50.8301-58.252 48.3398-58.252Q45.8496-58.252 44.0186-56.4453Q42.1875-54.6387 42.1875-52.0508Q42.1875-49.5605 44.0186-47.7295Q45.8496-45.8984 48.3398-45.8984Z"/>
  </g>
  <g id="Bold-S" transform="matrix(1 0 0 1 2292.42 696)">
   <path class="multicolor-0:systemBlueColor hierarchical-0:secondary SFSymbolsPreview007AFF" d="M47.5586 5.46875Q55.957 5.46875 63.3057 2.29492Q70.6543-0.878906 76.2695-6.51855Q81.8848-12.1582 85.083-19.5068Q88.2812-26.8555 88.2812-35.2539Q88.2812-43.6035 85.083-50.9766Q81.8848-58.3496 76.2695-63.9648Q70.6543-69.5801 63.2812-72.7539Q55.9082-75.9277 47.5098-75.9277Q39.1602-75.9277 31.7871-72.7539Q24.4141-69.5801 18.8232-63.9648Q13.2324-58.3496 10.0342-50.9766Q6.83594-43.6035 6.83594-35.2539Q6.83594-26.8555 10.0342-19.5068Q13.2324-12.1582 18.8477-6.51855Q24.4629-0.878906 31.8115 2.29492Q39.1602 5.46875 47.5586 5.46875ZM47.5586-5.32227Q41.3574-5.32227 35.9375-7.6416Q30.5176-9.96094 26.416-14.0625Q22.3145-18.1641 19.9951-23.6084Q17.6758-29.0527 17.6758-35.2539Q17.6758-41.4551 19.9951-46.875Q22.3145-52.2949 26.3916-56.3965Q30.4688-60.498 35.8887-62.8174Q41.3086-65.1367 47.5098-65.1367Q53.7598-65.1367 59.1797-62.8174Q64.5996-60.498 68.7012-56.3965Q72.8027-52.2949 75.1221-46.875Q77.4414-41.4551 77.4414-35.2539Q77.4414-29.0527 75.1221-23.6084Q72.8027-18.1641 68.7256-14.0625Q64.6484-9.96094 59.2041-7.6416Q53.7598-5.32227 47.5586-5.32227Z"/>
   <path class="multicolor-0:systemBlueColor hierarchical-1:primary SFSymbolsPreview007AFF" d="M40.7227-14.8438L56.1035-14.8438Q57.7148-14.8438 58.7891-15.8691Q59.8633-16.8945 59.8633-18.5059Q59.8633-20.0195 58.7891-21.0693Q57.7148-22.1191 56.1035-22.1191L52.9785-22.1191L52.9785-37.0605Q52.9785-39.2578 51.9287-40.5273Q50.8789-41.7969 48.877-41.7969L41.5039-41.7969Q39.9414-41.7969 38.8428-40.7471Q37.7441-39.6973 37.7441-38.1836Q37.7441-36.5723 38.8428-35.5469Q39.9414-34.5215 41.5039-34.5215L44.7266-34.5215L44.7266-22.1191L40.7227-22.1191Q39.1602-22.1191 38.0615-21.0693Q36.9629-20.0195 36.9629-18.5059Q36.9629-16.8945 38.0615-15.8691Q39.1602-14.8438 40.7227-14.8438ZM47.5098-46.7773Q49.9512-46.7773 51.6602-48.5107Q53.3691-50.2441 53.3691-52.6855Q53.3691-55.1758 51.6602-56.9092Q49.9512-58.6426 47.5098-58.6426Q45.0684-58.6426 43.335-56.9092Q41.6016-55.1758 41.6016-52.6855Q41.6016-50.2441 43.335-48.5107Q45.0684-46.7773 47.5098-46.7773Z"/>
  </g>
  <g id="Semibold-S" transform="matrix(1 0 0 1 1996.2 696)">
   <path class="multicolor-0:systemBlueColor hierarchical-0:secondary SFSymbolsPreview007AFF" d="M47.0703 4.98047Q55.3711 4.98047 62.6465 1.85547Q69.9219-1.26953 75.4639-6.86035Q81.0059-12.4512 84.1553-19.7266Q87.3047-27.002 87.3047-35.2539Q87.3047-43.5059 84.1553-50.7812Q81.0059-58.0566 75.4395-63.623Q69.873-69.1895 62.5977-72.3389Q55.3223-75.4883 47.0215-75.4883Q38.7695-75.4883 31.4941-72.3389Q24.2188-69.1895 18.6768-63.623Q13.1348-58.0566 9.98535-50.7812Q6.83594-43.5059 6.83594-35.2539Q6.83594-27.002 9.98535-19.7266Q13.1348-12.4512 18.7012-6.86035Q24.2676-1.26953 31.543 1.85547Q38.8184 4.98047 47.0703 4.98047ZM47.0703-4.58984Q40.7227-4.58984 35.1562-6.95801Q29.5898-9.32617 25.3906-13.5254Q21.1914-17.7246 18.8232-23.291Q16.4551-28.8574 16.4551-35.2539Q16.4551-41.6016 18.8232-47.168Q21.1914-52.7344 25.3662-56.9336Q29.541-61.1328 35.1074-63.5254Q40.6738-65.918 47.0215-65.918Q53.418-65.918 58.9844-63.5254Q64.5508-61.1328 68.75-56.9336Q72.9492-52.7344 75.3418-47.168Q77.7344-41.6016 77.7344-35.2539Q77.7344-28.8574 75.3662-23.291Q72.998-17.7246 68.7988-13.5254Q64.5996-9.32617 59.0332-6.95801Q53.4668-4.58984 47.0703-4.58984Z"/>
   <path class="multicolor-0:systemBlueColor hierarchical-1:primary SFSymbolsPreview007AFF" d="M40.332-14.5996L55.7617-14.5996Q57.2266-14.5996 58.252-15.5518Q59.2773-16.5039 59.2773-17.9688Q59.2773-19.4336 58.252-20.4102Q57.2266-21.3867 55.7617-21.3867L52.1973-21.3867L52.1973-37.5488Q52.1973-39.5996 51.2207-40.7959Q50.2441-41.9922 48.3398-41.9922L41.0645-41.9922Q39.5996-41.9922 38.5498-41.0156Q37.5-40.0391 37.5-38.623Q37.5-37.1094 38.5498-36.1328Q39.5996-35.1562 41.0645-35.1562L44.4336-35.1562L44.4336-21.3867L40.332-21.3867Q38.8184-21.3867 37.793-20.4102Q36.7676-19.4336 36.7676-17.9688Q36.7676-16.5039 37.793-15.5518Q38.8184-14.5996 40.332-14.5996ZM46.875-47.3145Q49.2676-47.3145 50.9277-49.0234Q52.5879-50.7324 52.5879-53.0762Q52.5879-55.5176 50.9277-57.2021Q49.2676-58.8867 46.875-58.8867Q44.4824-58.8867 42.7979-57.2021Q41.1133-55.5176 41.1133-53.0762Q41.1133-50.7324 42.7979-49.0234Q44.4824-47.3145 46.875-47.3145Z"/>
  </g>
  <g id="Medium-S" transform="matrix(1 0 0 1 1699.83 696)">
   <path class="multicolor-0:systemBlueColor hierarchical-0:secondary SFSymbolsPreview007AFF" d="M46.7285 4.63867Q54.9316 4.63867 62.1338 1.51367Q69.3359-1.61133 74.8535-7.12891Q80.3711-12.6465 83.4961-19.8486Q86.6211-27.0508 86.6211-35.2539Q86.6211-43.4082 83.4961-50.6348Q80.3711-57.8613 74.8291-63.3789Q69.2871-68.8965 62.085-71.9971Q54.8828-75.0977 46.6797-75.0977Q38.4766-75.0977 31.2744-71.9971Q24.0723-68.8965 18.5791-63.3789Q13.0859-57.8613 9.96094-50.6348Q6.83594-43.4082 6.83594-35.2539Q6.83594-27.0508 9.96094-19.8486Q13.0859-12.6465 18.6035-7.12891Q24.1211-1.61133 31.3232 1.51367Q38.5254 4.63867 46.7285 4.63867ZM46.7285-4.00391Q40.2344-4.00391 34.5703-6.4209Q28.9062-8.83789 24.6338-13.1348Q20.3613-17.4316 17.9443-23.0957Q15.5273-28.7598 15.5273-35.2539Q15.5273-41.748 17.9199-47.4121Q20.3125-53.0762 24.585-57.373Q28.8574-61.6699 34.5215-64.0869Q40.1855-66.5039 46.6797-66.5039Q53.1738-66.5039 58.8379-64.0869Q64.502-61.6699 68.7988-57.373Q73.0957-53.0762 75.5127-47.4121Q77.9297-41.748 77.9297-35.2539Q77.9297-28.7598 75.5127-23.0957Q73.0957-17.4316 68.8477-13.1348Q64.5996-8.83789 58.9111-6.4209Q53.2227-4.00391 46.7285-4.00391Z"/>
   <path class="multicolor-0:systemBlueColor hierarchical-1:primary SFSymbolsPreview007AFF" d="M40.0391-14.3555L55.5176-14.3555Q56.9336-14.3555 57.9102-15.2832Q58.8867-16.2109 58.8867-17.627Q58.8867-18.9941 57.9102-19.9219Q56.9336-20.8496 55.5176-20.8496L51.6602-20.8496L51.6602-37.9395Q51.6602-39.8926 50.708-41.04Q49.7559-42.1875 47.998-42.1875L40.7715-42.1875Q39.4043-42.1875 38.4033-41.2354Q37.4023-40.2832 37.4023-38.916Q37.4023-37.5 38.4033-36.5723Q39.4043-35.6445 40.7715-35.6445L44.2383-35.6445L44.2383-20.8496L40.0391-20.8496Q38.6719-20.8496 37.6709-19.9219Q36.6699-18.9941 36.6699-17.627Q36.6699-16.2109 37.6709-15.2832Q38.6719-14.3555 40.0391-14.3555ZM46.4355-47.7539Q48.8281-47.7539 50.4395-49.4141Q52.0508-51.0742 52.0508-53.418Q52.0508-55.8105 50.4395-57.4707Q48.8281-59.1309 46.4355-59.1309Q44.1406-59.1309 42.4805-57.4707Q40.8203-55.8105 40.8203-53.418Q40.8203-51.0742 42.4805-49.4141Q44.1406-47.7539 46.4355-47.7539Z"/>
  </g>
  <g id="Regular-S" transform="matrix(1 0 0 1 1403.58 696)">
   <path class="multicolor-0:systemBlueColor hierarchical-0:secondary SFSymbolsPreview007AFF" d="M46.2402 4.15039Q54.3457 4.15039 61.4746 1.07422Q68.6035-2.00195 74.0479-7.4707Q79.4922-12.9395 82.5928-20.0684Q85.6934-27.1973 85.6934-35.2539Q85.6934-43.3105 82.5928-50.4395Q79.4922-57.5684 74.0234-63.0371Q68.5547-68.5059 61.4258-71.582Q54.2969-74.6582 46.1914-74.6582Q38.1348-74.6582 31.0059-71.582Q23.877-68.5059 18.457-63.0371Q13.0371-57.5684 9.93652-50.4395Q6.83594-43.3105 6.83594-35.2539Q6.83594-27.1973 9.93652-20.0684Q13.0371-12.9395 18.4814-7.4707Q23.9258-2.00195 31.0547 1.07422Q38.1836 4.15039 46.2402 4.15039ZM46.2402-3.27148Q39.5996-3.27148 33.8135-5.7373Q28.0273-8.20312 23.6572-12.5977Q19.2871-16.9922 16.8213-22.8027Q14.3555-28.6133 14.3555-35.2539Q14.3555-41.8945 16.7969-47.7051Q19.2383-53.5156 23.6084-57.9102Q27.9785-62.3047 33.7646-64.7705Q39.5508-67.2363 46.1914-67.2363Q52.8809-67.2363 58.667-64.7705Q64.4531-62.3047 68.8477-57.9102Q73.2422-53.5156 75.7324-47.7051Q78.2227-41.8945 78.2227-35.2539Q78.2227-28.6133 75.7568-22.8027Q73.291-16.9922 68.9209-12.5977Q64.5508-8.20312 58.7402-5.7373Q52.9297-3.27148 46.2402-3.27148Z"/>
   <path class="multicolor-0:systemBlueColor hierarchical-1:primary SFSymbolsPreview007AFF" d="M39.6484-14.1113L55.1758-14.1113Q56.4941-14.1113 57.3975-14.9658Q58.3008-15.8203 58.3008-17.1387Q58.3008-18.4082 57.3975-19.2871Q56.4941-20.166 55.1758-20.166L50.8789-20.166L50.8789-38.4277Q50.8789-40.2344 50-41.3086Q49.1211-42.3828 47.5098-42.3828L40.3809-42.3828Q39.0625-42.3828 38.1348-41.5039Q37.207-40.625 37.207-39.3555Q37.207-38.0371 38.1348-37.1582Q39.0625-36.2793 40.3809-36.2793L43.9453-36.2793L43.9453-20.166L39.6484-20.166Q38.3301-20.166 37.4023-19.2871Q36.4746-18.4082 36.4746-17.1387Q36.4746-15.8203 37.4023-14.9658Q38.3301-14.1113 39.6484-14.1113ZM45.8496-48.3398Q48.1445-48.3398 49.707-49.9512Q51.2695-51.5625 51.2695-53.8574Q51.2695-56.1523 49.707-57.7637Q48.1445-59.375 45.8496-59.375Q43.5547-59.375 41.9678-57.7637Q40.3809-56.1523 40.3809-53.8574Q40.3809-51.5625 41.9678-49.9512Q43.5547-48.3398 45.8496-48.3398Z"/>
  </g>
  <g id="Light-S" transform="matrix(1 0 0 1 1107.6 696)">
   <path class="multicolor-0:systemBlueColor hierarchical-0:secondary SFSymbolsPreview007AFF" d="M45.5078 3.41797Q53.4668 3.41797 60.4736 0.415039Q67.4805-2.58789 72.8271-7.95898Q78.1738-13.3301 81.2012-20.3125Q84.2285-27.2949 84.2285-35.2539Q84.2285-43.2129 81.2012-50.1953Q78.1738-57.1777 72.8027-62.5488Q67.4316-67.9199 60.4492-70.9229Q53.4668-73.9258 45.459-73.9258Q37.5488-73.9258 30.542-70.9229Q23.5352-67.9199 18.2129-62.5488Q12.8906-57.1777 9.86328-50.1953Q6.83594-43.2129 6.83594-35.2539Q6.83594-27.2949 9.86328-20.3125Q12.8906-13.3301 18.2373-7.95898Q23.584-2.58789 30.5908 0.415039Q37.5977 3.41797 45.5078 3.41797ZM45.5078-2.29492Q38.6719-2.29492 32.6904-4.83398Q26.709-7.37305 22.1924-11.9141Q17.6758-16.4551 15.1367-22.4365Q12.5977-28.418 12.5977-35.2539Q12.5977-42.0898 15.1367-48.0713Q17.6758-54.0527 22.1924-58.5938Q26.709-63.1348 32.666-65.6738Q38.623-68.2129 45.459-68.2129Q52.3438-68.2129 58.3252-65.6738Q64.3066-63.1348 68.8232-58.5938Q73.3398-54.0527 75.9277-48.0713Q78.5156-42.0898 78.5156-35.2539Q78.5156-28.418 75.9521-22.4365Q73.3887-16.4551 68.8721-11.9141Q64.3555-7.37305 58.374-4.83398Q52.3926-2.29492 45.5078-2.29492Z"/>
   <path class="multicolor-0:systemBlueColor hierarchical-1:primary SFSymbolsPreview007AFF" d="M38.7695-14.3066L54.3945-14.3066Q55.4688-14.3066 56.1523-15.0146Q56.8359-15.7227 56.8359-16.6992Q56.8359-17.7246 56.1523-18.4082Q55.4688-19.0918 54.3945-19.0918L49.2676-19.0918L49.2676-39.5996Q49.2676-40.9668 48.584-41.7969Q47.9004-42.627 46.6309-42.627L39.3555-42.627Q38.2812-42.627 37.5732-41.9189Q36.8652-41.2109 36.8652-40.2344Q36.8652-39.209 37.5732-38.501Q38.2812-37.793 39.3555-37.793L43.8965-37.793L43.8965-19.0918L38.7695-19.0918Q37.7441-19.0918 37.0117-18.4082Q36.2793-17.7246 36.2793-16.6992Q36.2793-15.7227 37.0117-15.0146Q37.7441-14.3066 38.7695-14.3066ZM45.2637-49.3164Q47.168-49.3164 48.4863-50.6348Q49.8047-51.9531 49.8047-53.9062Q49.8047-55.8105 48.4863-57.1533Q47.168-58.4961 45.2637-58.4961Q43.3594-58.4961 42.0166-57.1533Q40.6738-55.8105 40.6738-53.9062Q40.6738-51.9531 42.0166-50.6348Q43.3594-49.3164 45.2637-49.3164Z"/>
  </g>
  <g id="Thin-S" transform="matrix(1 0 0 1 811.867 696)">
   <path class="multicolor-0:systemBlueColor hierarchical-0:secondary SFSymbolsPreview007AFF" d="M44.5312 2.44141Q52.3438 2.44141 59.1553-0.488281Q65.9668-3.41797 71.1914-8.64258Q76.416-13.8672 79.3457-20.6787Q82.2754-27.4902 82.2754-35.2539Q82.2754-43.0176 79.3457-49.8291Q76.416-56.6406 71.1914-61.8652Q65.9668-67.0898 59.1553-70.0195Q52.3438-72.9492 44.5312-72.9492Q36.7676-72.9492 29.9316-70.0195Q23.0957-67.0898 17.9199-61.8652Q12.7441-56.6406 9.79004-49.8291Q6.83594-43.0176 6.83594-35.2539Q6.83594-27.4902 9.79004-20.6787Q12.7441-13.8672 17.9199-8.64258Q23.0957-3.41797 29.9316-0.488281Q36.7676 2.44141 44.5312 2.44141ZM44.5312-0.927734Q37.4512-0.927734 31.2256-3.58887Q25-6.25 20.2881-10.9619Q15.5762-15.6738 12.915-21.9238Q10.2539-28.1738 10.2539-35.2539Q10.2539-42.334 12.915-48.584Q15.5762-54.834 20.2881-59.5459Q25-64.2578 31.2256-66.9189Q37.4512-69.5801 44.5312-69.5801Q51.6602-69.5801 57.8857-66.9189Q64.1113-64.2578 68.8232-59.5459Q73.5352-54.834 76.1963-48.584Q78.8574-42.334 78.8574-35.2539Q78.8574-28.1738 76.1963-21.9238Q73.5352-15.6738 68.8232-10.9619Q64.1113-6.25 57.8857-3.58887Q51.6602-0.927734 44.5312-0.927734Z"/>
   <path class="multicolor-0:systemBlueColor hierarchical-1:primary SFSymbolsPreview007AFF" d="M37.5977-14.5508L53.3203-14.5508Q54.0527-14.5508 54.4678-15.0146Q54.8828-15.4785 54.8828-16.1133Q54.8828-16.748 54.4678-17.1875Q54.0527-17.627 53.3203-17.627L47.0703-17.627L47.0703-41.1133Q47.0703-41.8457 46.6309-42.3584Q46.1914-42.8711 45.459-42.8711L37.9395-42.8711Q37.207-42.8711 36.7676-42.4316Q36.3281-41.9922 36.3281-41.3574Q36.3281-40.6738 36.7676-40.2344Q37.207-39.7949 37.9395-39.7949L43.7988-39.7949L43.7988-17.627L37.5977-17.627Q36.9141-17.627 36.4502-17.1875Q35.9863-16.748 35.9863-16.1133Q35.9863-15.4785 36.4502-15.0146Q36.9141-14.5508 37.5977-14.5508ZM44.4336-50.4883Q45.8496-50.4883 46.8506-51.4648Q47.8516-52.4414 47.8516-53.8574Q47.8516-55.2734 46.8506-56.2988Q45.8496-57.3242 44.4336-57.3242Q43.0176-57.3242 42.041-56.2988Q41.0645-55.2734 41.0645-53.8574Q41.0645-52.4414 42.041-51.4648Q43.0176-50.4883 44.4336-50.4883Z"/>
  </g>
  <g id="Ultralight-S" transform="matrix(1 0 0 1 515.644 696)">
   <path class="multicolor-0:systemBlueColor hierarchical-0:secondary SFSymbolsPreview007AFF" d="M44.043 1.95312Q51.7578 1.95312 58.4717-0.927734Q65.1855-3.80859 70.3369-8.95996Q75.4883-14.1113 78.3936-20.8252Q81.2988-27.5391 81.2988-35.2539Q81.2988-42.9688 78.3936-49.6826Q75.4883-56.3965 70.3369-61.5479Q65.1855-66.6992 58.4717-69.5801Q51.7578-72.4609 44.043-72.4609Q36.377-72.4609 29.6387-69.5801Q22.9004-66.6992 17.7734-61.5479Q12.6465-56.3965 9.74121-49.6826Q6.83594-42.9688 6.83594-35.2539Q6.83594-27.5391 9.74121-20.8252Q12.6465-14.1113 17.7734-8.95996Q22.9004-3.80859 29.6387-0.927734Q36.377 1.95312 44.043 1.95312ZM44.043-0.292969Q36.8164-0.292969 30.4688-3.00293Q24.1211-5.71289 19.3115-10.5225Q14.502-15.332 11.7676-21.6797Q9.0332-28.0273 9.0332-35.2539Q9.0332-42.4805 11.7676-48.8281Q14.502-55.1758 19.3115-59.9854Q24.1211-64.7949 30.4688-67.5049Q36.8164-70.2148 44.043-70.2148Q51.2695-70.2148 57.6416-67.5049Q64.0137-64.7949 68.7988-59.9854Q73.584-55.1758 76.3184-48.8281Q79.0527-42.4805 79.0527-35.2539Q79.0527-28.0273 76.3428-21.6797Q73.6328-15.332 68.8232-10.5225Q64.0137-5.71289 57.666-3.00293Q51.3184-0.292969 44.043-0.292969Z"/>
   <path class="multicolor-0:systemBlueColor hierarchical-1:primary SFSymbolsPreview007AFF" d="M36.9629-14.6973L52.7832-14.6973Q53.3203-14.6973 53.6133-15.0635Q53.9062-15.4297 53.9062-15.8203Q53.9062-16.2598 53.6133-16.6016Q53.3203-16.9434 52.7832-16.9434L45.9961-16.9434L45.9961-41.9434Q45.9961-42.3828 45.6787-42.7246Q45.3613-43.0664 44.8242-43.0664L37.207-43.0664Q36.6699-43.0664 36.377-42.7246Q36.084-42.3828 36.084-41.9434Q36.084-41.5039 36.377-41.1621Q36.6699-40.8203 37.207-40.8203L43.75-40.8203L43.75-16.9434L36.9629-16.9434Q36.4746-16.9434 36.1572-16.6016Q35.8398-16.2598 35.8398-15.8203Q35.8398-15.4297 36.1572-15.0635Q36.4746-14.6973 36.9629-14.6973ZM44.043-51.1719Q45.2148-51.1719 46.0449-51.9531Q46.875-52.7344 46.875-53.9062Q46.875-55.0781 46.0449-55.9082Q45.2148-56.7383 44.043-56.7383Q42.8711-56.7383 42.0654-55.9082Q41.2598-55.0781 41.2598-53.9062Q41.2598-52.7344 42.0654-51.9531Q42.8711-51.1719 44.043-51.1719Z"/>
  </g>
 </g>
</svg>
