<?xml version="1.0" encoding="UTF-8"?>
<!--Generator: Apple Native CoreSVG 149-->
<!DOCTYPE svg
PUBLIC "-//W3C//DTD SVG 1.1//EN"
       "http://www.w3.org/Graphics/SVG/1.1/DTD/svg11.dtd">
<svg version="1.1" xmlns="http://www.w3.org/2000/svg" xmlns:xlink="http://www.w3.org/1999/xlink" width="3300" height="2200">
 <!--glyph: "uni10019D.medium", point size: 100.000000, font version: "Version 16.0d18e1", template writer version: "8"-->
 <g id="Notes">
  <rect height="2200" id="artboard" style="fill:white;opacity:1" width="3300" x="0" y="0"/>
  <line id="" style="fill:none;stroke:black;opacity:1;stroke-width:0.5;" x1="263" x2="3036" y1="292" y2="292"/>
  <text style="stroke:none;fill:black;font-family:-apple-system,&quot;SF Pro Display&quot;,&quot;SF Pro Text&quot;,Helvetica,sans-serif;font-weight:bold;" transform="matrix(1 0 0 1 263 322)">Weight/Scale Variations</text>
  <text style="stroke:none;fill:black;font-family:-apple-system,&quot;SF Pro Display&quot;,&quot;SF Pro Text&quot;,Helvetica,sans-serif;text-anchor:middle;" transform="matrix(1 0 0 1 559.711 322)">Ultralight</text>
  <text style="stroke:none;fill:black;font-family:-apple-system,&quot;SF Pro Display&quot;,&quot;SF Pro Text&quot;,Helvetica,sans-serif;text-anchor:middle;" transform="matrix(1 0 0 1 856.422 322)">Thin</text>
  <text style="stroke:none;fill:black;font-family:-apple-system,&quot;SF Pro Display&quot;,&quot;SF Pro Text&quot;,Helvetica,sans-serif;text-anchor:middle;" transform="matrix(1 0 0 1 1153.13 322)">Light</text>
  <text style="stroke:none;fill:black;font-family:-apple-system,&quot;SF Pro Display&quot;,&quot;SF Pro Text&quot;,Helvetica,sans-serif;text-anchor:middle;" transform="matrix(1 0 0 1 1449.84 322)">Regular</text>
  <text style="stroke:none;fill:black;font-family:-apple-system,&quot;SF Pro Display&quot;,&quot;SF Pro Text&quot;,Helvetica,sans-serif;text-anchor:middle;" transform="matrix(1 0 0 1 1746.56 322)">Medium</text>
  <text style="stroke:none;fill:black;font-family:-apple-system,&quot;SF Pro Display&quot;,&quot;SF Pro Text&quot;,Helvetica,sans-serif;text-anchor:middle;" transform="matrix(1 0 0 1 2043.27 322)">Semibold</text>
  <text style="stroke:none;fill:black;font-family:-apple-system,&quot;SF Pro Display&quot;,&quot;SF Pro Text&quot;,Helvetica,sans-serif;text-anchor:middle;" transform="matrix(1 0 0 1 2339.98 322)">Bold</text>
  <text style="stroke:none;fill:black;font-family:-apple-system,&quot;SF Pro Display&quot;,&quot;SF Pro Text&quot;,Helvetica,sans-serif;text-anchor:middle;" transform="matrix(1 0 0 1 2636.69 322)">Heavy</text>
  <text style="stroke:none;fill:black;font-family:-apple-system,&quot;SF Pro Display&quot;,&quot;SF Pro Text&quot;,Helvetica,sans-serif;text-anchor:middle;" transform="matrix(1 0 0 1 2933.4 322)">Black</text>
  <line id="" style="fill:none;stroke:black;opacity:1;stroke-width:0.5;" x1="263" x2="3036" y1="1903" y2="1903"/>
  <g id="" transform="matrix(1 0 0 1 263 1933)">
   <path d="M9.24805 0.830078C13.5547 0.830078 17.1387-2.74414 17.1387-7.05078C17.1387-11.3574 13.5449-14.9316 9.23828-14.9316C4.94141-14.9316 1.36719-11.3574 1.36719-7.05078C1.36719-2.74414 4.95117 0.830078 9.24805 0.830078ZM9.24805-0.654297C5.70312-0.654297 2.87109-3.49609 2.87109-7.05078C2.87109-10.6055 5.69336-13.4473 9.23828-13.4473C12.793-13.4473 15.6348-10.6055 15.6445-7.05078C15.6543-3.49609 12.8027-0.654297 9.24805-0.654297ZM6.39648-6.31836L8.50586-6.31836L8.50586-4.19922C8.50586-3.75977 8.79883-3.45703 9.22852-3.45703C9.67773-3.45703 9.9707-3.75977 9.9707-4.19922L9.9707-6.31836L12.0996-6.31836C12.5391-6.31836 12.8418-6.61133 12.8418-7.04102C12.8418-7.48047 12.5391-7.7832 12.0996-7.7832L9.9707-7.7832L9.9707-9.89258C9.9707-10.3418 9.67773-10.6445 9.22852-10.6445C8.79883-10.6445 8.50586-10.3418 8.50586-9.89258L8.50586-7.7832L6.39648-7.7832C5.94727-7.7832 5.64453-7.48047 5.64453-7.04102C5.64453-6.61133 5.94727-6.31836 6.39648-6.31836Z"/>
  </g>
  <g id="" transform="matrix(1 0 0 1 281.506 1933)">
   <path d="M11.709 2.91016C17.1582 2.91016 21.6699-1.61133 21.6699-7.05078C21.6699-12.5 17.1484-17.0117 11.6992-17.0117C6.25977-17.0117 1.74805-12.5 1.74805-7.05078C1.74805-1.61133 6.26953 2.91016 11.709 2.91016ZM11.709 1.25C7.09961 1.25 3.41797-2.44141 3.41797-7.05078C3.41797-11.6602 7.08984-15.3516 11.6992-15.3516C16.3086-15.3516 20-11.6602 20.0098-7.05078C20.0195-2.44141 16.3184 1.25 11.709 1.25ZM7.98828-6.23047L10.8789-6.23047L10.8789-3.32031C10.8789-2.83203 11.2109-2.5 11.6895-2.5C12.1777-2.5 12.5195-2.83203 12.5195-3.32031L12.5195-6.23047L15.4297-6.23047C15.918-6.23047 16.25-6.5625 16.25-7.04102C16.25-7.5293 15.918-7.87109 15.4297-7.87109L12.5195-7.87109L12.5195-10.7617C12.5195-11.2695 12.1777-11.6016 11.6895-11.6016C11.2109-11.6016 10.8789-11.2598 10.8789-10.7617L10.8789-7.87109L7.98828-7.87109C7.48047-7.87109 7.14844-7.5293 7.14844-7.04102C7.14844-6.5625 7.49023-6.23047 7.98828-6.23047Z"/>
  </g>
  <g id="" transform="matrix(1 0 0 1 304.924 1933)">
   <path d="M14.9707 5.66406C21.9336 5.66406 27.6953-0.0976562 27.6953-7.05078C27.6953-14.0137 21.9238-19.7754 14.9609-19.7754C8.00781-19.7754 2.25586-14.0137 2.25586-7.05078C2.25586-0.0976562 8.01758 5.66406 14.9707 5.66406ZM14.9707 3.84766C8.93555 3.84766 4.08203-1.01562 4.08203-7.05078C4.08203-13.0957 8.92578-17.9492 14.9609-17.9492C21.0059-17.9492 25.8594-13.0957 25.8691-7.05078C25.8789-1.01562 21.0156 3.84766 14.9707 3.84766ZM10.0586-6.14258L14.0625-6.14258L14.0625-2.12891C14.0625-1.5918 14.4336-1.2207 14.9512-1.2207C15.4883-1.2207 15.8594-1.5918 15.8594-2.12891L15.8594-6.14258L19.8828-6.14258C20.4102-6.14258 20.791-6.51367 20.791-7.03125C20.791-7.56836 20.4199-7.94922 19.8828-7.94922L15.8594-7.94922L15.8594-11.9531C15.8594-12.5098 15.4883-12.8809 14.9512-12.8809C14.4336-12.8809 14.0625-12.5 14.0625-11.9531L14.0625-7.94922L10.0586-7.94922C9.50195-7.94922 9.13086-7.56836 9.13086-7.03125C9.13086-6.51367 9.51172-6.14258 10.0586-6.14258Z"/>
  </g>
  <text style="stroke:none;fill:black;font-family:-apple-system,&quot;SF Pro Display&quot;,&quot;SF Pro Text&quot;,Helvetica,sans-serif;font-weight:bold;" transform="matrix(1 0 0 1 263 1953)">Design Variations</text>
  <text style="stroke:none;fill:black;font-family:-apple-system,&quot;SF Pro Display&quot;,&quot;SF Pro Text&quot;,Helvetica,sans-serif;" transform="matrix(1 0 0 1 263 1971)">Symbols are supported in up to nine weights and three scales.</text>
  <text style="stroke:none;fill:black;font-family:-apple-system,&quot;SF Pro Display&quot;,&quot;SF Pro Text&quot;,Helvetica,sans-serif;" transform="matrix(1 0 0 1 263 1989)">For optimal layout with text and other symbols, vertically align</text>
  <text style="stroke:none;fill:black;font-family:-apple-system,&quot;SF Pro Display&quot;,&quot;SF Pro Text&quot;,Helvetica,sans-serif;" transform="matrix(1 0 0 1 263 2007)">symbols with the adjacent text.</text>
  <line id="" style="fill:none;stroke:#00AEEF;stroke-width:0.5;opacity:1.0;" x1="776" x2="776" y1="1919" y2="1933"/>
  <g id="" transform="matrix(1 0 0 1 776 1933)">
   <path d="M3.31055 0.126953C3.82812 0.126953 4.08203-0.0683594 4.26758-0.605469L5.52734-4.0625L11.2891-4.0625L12.5488-0.605469C12.7344-0.0683594 12.9883 0.126953 13.4961 0.126953C14.0137 0.126953 14.3457-0.185547 14.3457-0.673828C14.3457-0.839844 14.3164-0.986328 14.2383-1.20117L9.6582-13.3887C9.43359-13.9941 9.0332-14.2871 8.4082-14.2871C7.80273-14.2871 7.39258-13.9941 7.17773-13.3984L2.59766-1.19141C2.51953-0.976562 2.49023-0.830078 2.49023-0.664062C2.49023-0.175781 2.80273 0.126953 3.31055 0.126953ZM6.00586-5.53711L8.37891-12.1094L8.42773-12.1094L10.8008-5.53711Z"/>
  </g>
  <line id="" style="fill:none;stroke:#00AEEF;stroke-width:0.5;opacity:1.0;" x1="792.836" x2="792.836" y1="1919" y2="1933"/>
  <text style="stroke:none;fill:black;font-family:-apple-system,&quot;SF Pro Display&quot;,&quot;SF Pro Text&quot;,Helvetica,sans-serif;font-weight:bold;" transform="matrix(1 0 0 1 776 1953)">Margins</text>
  <text style="stroke:none;fill:black;font-family:-apple-system,&quot;SF Pro Display&quot;,&quot;SF Pro Text&quot;,Helvetica,sans-serif;" transform="matrix(1 0 0 1 776 1971)">Leading and trailing margins on the left and right side of each symbol</text>
  <text style="stroke:none;fill:black;font-family:-apple-system,&quot;SF Pro Display&quot;,&quot;SF Pro Text&quot;,Helvetica,sans-serif;" transform="matrix(1 0 0 1 776 1989)">can be adjusted by modifying the x-location of the margin guidelines.</text>
  <text style="stroke:none;fill:black;font-family:-apple-system,&quot;SF Pro Display&quot;,&quot;SF Pro Text&quot;,Helvetica,sans-serif;" transform="matrix(1 0 0 1 776 2007)">Modifications are automatically applied proportionally to all</text>
  <text style="stroke:none;fill:black;font-family:-apple-system,&quot;SF Pro Display&quot;,&quot;SF Pro Text&quot;,Helvetica,sans-serif;" transform="matrix(1 0 0 1 776 2025)">scales and weights.</text>
  <g id="" transform="matrix(1 0 0 1 1289 1933)">
   <path d="M2.8418 1.86523L4.54102 3.57422C5.40039 4.44336 6.38672 4.38477 7.31445 3.35938L17.4902-7.85156C17.7539-7.76367 18.0273-7.7832 18.3398-7.8418L19.4043-8.03711L20.0684-7.36328L20.0293-6.80664C19.9902-6.30859 20.1172-5.92773 20.6055-5.44922L21.3672-4.70703C21.8457-4.22852 22.4609-4.19922 22.9297-4.66797L25.8398-7.58789C26.3086-8.05664 26.2891-8.65234 25.8105-9.13086L25.0391-9.89258C24.5605-10.3711 24.1895-10.5273 23.7109-10.4883L23.1348-10.4395L22.4902-11.0742L22.7344-12.1973C22.8613-12.7637 22.7051-13.2031 22.1191-13.7891L19.9219-15.9766C16.582-19.2969 12.1484-19.2188 9.25781-16.3281C8.83789-15.918 8.80859-15.3418 9.04297-14.9512C9.27734-14.5898 9.73633-14.3555 10.3809-14.5215C11.8457-14.8633 13.3691-14.9219 14.7949-13.9844L14.209-12.5293C14.0137-12.0508 13.9844-11.6504 14.1113-11.2891L3.04688-0.898438C2.06055 0.0195312 1.98242 0.996094 2.8418 1.86523ZM10.752-15.957C13.1836-17.7344 16.4746-17.4316 18.7012-15.2051L21.1328-12.793C21.3672-12.5586 21.4062-12.373 21.3379-12.0312L21.0156-10.5469L22.5195-9.0625L23.5059-9.12109C23.7598-9.13086 23.8379-9.11133 24.0332-8.91602L24.6094-8.33984L22.168-5.89844L21.5918-6.47461C21.3965-6.66992 21.3672-6.74805 21.377-7.01172L21.4453-7.98828L19.9512-9.47266L18.4277-9.21875C18.1055-9.15039 17.959-9.17969 17.7148-9.41406L15.7129-11.416C15.459-11.6504 15.4297-11.8164 15.5859-12.1875L16.4648-14.2773C14.9023-15.7324 12.8711-16.3574 10.8398-15.7617C10.6836-15.7227 10.625-15.8496 10.752-15.957ZM5.27344 2.30469L4.10156 1.14258C3.63281 0.683594 3.74023 0.341797 4.14062-0.0195312L14.9512-10.1953L16.416-8.71094L6.42578 2.27539C6.07422 2.67578 5.74219 2.77344 5.27344 2.30469Z"/>
  </g>
  <text style="stroke:none;fill:black;font-family:-apple-system,&quot;SF Pro Display&quot;,&quot;SF Pro Text&quot;,Helvetica,sans-serif;font-weight:bold;" transform="matrix(1 0 0 1 1289 1953)">Exporting</text>
  <text style="stroke:none;fill:black;font-family:-apple-system,&quot;SF Pro Display&quot;,&quot;SF Pro Text&quot;,Helvetica,sans-serif;" transform="matrix(1 0 0 1 1289 1971)">Symbols should be outlined when exporting to ensure the</text>
  <text style="stroke:none;fill:black;font-family:-apple-system,&quot;SF Pro Display&quot;,&quot;SF Pro Text&quot;,Helvetica,sans-serif;" transform="matrix(1 0 0 1 1289 1989)">design is preserved when submitting to Xcode.</text>
  <text id="template-version" style="stroke:none;fill:black;font-family:-apple-system,&quot;SF Pro Display&quot;,&quot;SF Pro Text&quot;,Helvetica,sans-serif;text-anchor:end;" transform="matrix(1 0 0 1 3036 1933)">Template v.2.0</text>
  <text style="stroke:none;fill:black;font-family:-apple-system,&quot;SF Pro Display&quot;,&quot;SF Pro Text&quot;,Helvetica,sans-serif;text-anchor:end;" transform="matrix(1 0 0 1 3036 1951)">Requires Xcode 12 or greater</text>
  <text style="stroke:none;fill:black;font-family:-apple-system,&quot;SF Pro Display&quot;,&quot;SF Pro Text&quot;,Helvetica,sans-serif;text-anchor:end;" transform="matrix(1 0 0 1 3036 1969)">Generated from shift</text>
  <text style="stroke:none;fill:black;font-family:-apple-system,&quot;SF Pro Display&quot;,&quot;SF Pro Text&quot;,Helvetica,sans-serif;text-anchor:end;" transform="matrix(1 0 0 1 3036 1987)">Typeset at 100 points</text>
  <text style="stroke:none;fill:black;font-family:-apple-system,&quot;SF Pro Display&quot;,&quot;SF Pro Text&quot;,Helvetica,sans-serif;" transform="matrix(1 0 0 1 263 726)">Small</text>
  <text style="stroke:none;fill:black;font-family:-apple-system,&quot;SF Pro Display&quot;,&quot;SF Pro Text&quot;,Helvetica,sans-serif;" transform="matrix(1 0 0 1 263 1156)">Medium</text>
  <text style="stroke:none;fill:black;font-family:-apple-system,&quot;SF Pro Display&quot;,&quot;SF Pro Text&quot;,Helvetica,sans-serif;" transform="matrix(1 0 0 1 263 1586)">Large</text>
 </g>
 <g id="Guides">
  <g id="H-reference" style="fill:#27AAE1;stroke:none;" transform="matrix(1 0 0 1 339 696)">
   <path d="M0.976562 0L3.66211 0L12.9883-24.4629L45.752-24.4629L55.127 0L57.7637 0L30.6152-70.459L28.125-70.459ZM29.3457-67.1387L29.4434-67.1387L44.873-26.709L13.8672-26.709Z"/>
  </g>
  <line id="Baseline-S" style="fill:none;stroke:#27AAE1;opacity:1;stroke-width:0.5;" x1="263" x2="3036" y1="696" y2="696"/>
  <line id="Capline-S" style="fill:none;stroke:#27AAE1;opacity:1;stroke-width:0.5;" x1="263" x2="3036" y1="625.541" y2="625.541"/>
  <g id="H-reference" style="fill:#27AAE1;stroke:none;" transform="matrix(1 0 0 1 339 1126)">
   <path d="M0.976562 0L3.66211 0L12.9883-24.4629L45.752-24.4629L55.127 0L57.7637 0L30.6152-70.459L28.125-70.459ZM29.3457-67.1387L29.4434-67.1387L44.873-26.709L13.8672-26.709Z"/>
  </g>
  <line id="Baseline-M" style="fill:none;stroke:#27AAE1;opacity:1;stroke-width:0.5;" x1="263" x2="3036" y1="1126" y2="1126"/>
  <line id="Capline-M" style="fill:none;stroke:#27AAE1;opacity:1;stroke-width:0.5;" x1="263" x2="3036" y1="1055.54" y2="1055.54"/>
  <g id="H-reference" style="fill:#27AAE1;stroke:none;" transform="matrix(1 0 0 1 339 1556)">
   <path d="M0.976562 0L3.66211 0L12.9883-24.4629L45.752-24.4629L55.127 0L57.7637 0L30.6152-70.459L28.125-70.459ZM29.3457-67.1387L29.4434-67.1387L44.873-26.709L13.8672-26.709Z"/>
  </g>
  <line id="Baseline-L" style="fill:none;stroke:#27AAE1;opacity:1;stroke-width:0.5;" x1="263" x2="3036" y1="1556" y2="1556"/>
  <line id="Capline-L" style="fill:none;stroke:#27AAE1;opacity:1;stroke-width:0.5;" x1="263" x2="3036" y1="1485.54" y2="1485.54"/>
  <line id="left-margin" style="fill:none;stroke:#00AEEF;stroke-width:0.5;opacity:1.0;" x1="1387.37" x2="1387.37" y1="1030.79" y2="1150.12"/>
  <line id="right-margin" style="fill:none;stroke:#00AEEF;stroke-width:0.5;opacity:1.0;" x1="1512.32" x2="1512.32" y1="1030.79" y2="1150.12"/>
 </g>
 <g id="Symbols">
  <g id="Black-L" transform="matrix(1 0 0 1 2848.32 1556)">
   <path d="M64.0137 26.7578L106.152 26.7578C117.041 26.7578 123.34 20.3125 123.34 9.57031L123.34-15.2344L145.215-15.2344C152.393-15.2344 157.275-19.3848 157.275-25.8301C157.275-29.8828 155.664-32.373 151.709-36.4258L94.873-94.1895C91.9434-97.1191 88.623-98.7305 85.0586-98.7305C81.543-98.7305 78.1738-97.1191 75.293-94.1895L18.457-36.4258C14.4043-32.2754 12.8906-29.9316 12.8906-25.8301C12.8906-19.3848 17.7246-15.2344 24.9023-15.2344L46.8262-15.2344L46.8262 9.57031C46.8262 20.3125 53.0762 26.7578 64.0137 26.7578ZM71.0938 5.81055C69.3848 5.81055 68.2617 4.6875 68.2617 2.92969L68.2617-30.8105C68.2617-32.2266 67.7246-32.8125 66.2109-32.8125L43.9453-32.8125C43.7012-32.8125 43.6035-32.9102 43.6035-33.1055C43.6035-33.2031 43.6035-33.3008 43.7988-33.4473L84.5703-74.4141C84.668-74.5605 84.9121-74.6094 85.0586-74.6094C85.2539-74.6094 85.498-74.5605 85.5957-74.4141L126.367-33.4473C126.514-33.3008 126.562-33.2031 126.562-33.1055C126.562-32.9102 126.465-32.8125 126.221-32.8125L103.906-32.8125C102.441-32.8125 101.904-32.2266 101.904-30.8105L101.904 2.92969C101.904 4.58984 100.684 5.81055 99.0723 5.81055Z"/>
  </g>
  <g id="Heavy-L" transform="matrix(1 0 0 1 2552.7 1556)">
   <path d="M63.1348 25.6836L104.834 25.6836C115.088 25.6836 120.947 19.6289 120.947 9.61914L120.947-16.2598L143.945-16.2598C150.537-16.2598 155.078-20.0684 155.078-26.0254C155.078-29.7363 153.564-32.1289 150-35.6934L93.2129-93.2129C90.3809-96.0449 87.3047-97.5098 83.9844-97.5098C80.6641-97.5098 77.5391-96.0449 74.7559-93.2129L17.9199-35.6934C14.3555-32.0312 12.8906-29.7852 12.8906-26.0254C12.8906-20.0684 17.4316-16.2598 24.0234-16.2598L47.0215-16.2598L47.0215 9.61914C47.0215 19.6289 52.8809 25.6836 63.1348 25.6836ZM68.7012 7.71484C66.7969 7.71484 65.5273 6.44531 65.5273 4.49219L65.5273-29.5898C65.5273-31.0547 64.9902-31.5918 63.4766-31.5918L39.502-31.5918C39.1602-31.5918 39.0137-31.7383 39.0137-31.9824C39.0137-32.1289 39.0625-32.2754 39.2578-32.4707L83.1543-76.416C83.3984-76.709 83.6914-76.8066 83.9844-76.8066C84.2773-76.8066 84.5703-76.709 84.8145-76.416L128.662-32.4707C128.906-32.2754 128.906-32.1289 128.906-31.9824C128.906-31.7383 128.76-31.5918 128.467-31.5918L104.443-31.5918C102.979-31.5918 102.441-31.0547 102.441-29.5898L102.441 4.49219C102.441 6.34766 101.074 7.71484 99.2676 7.71484Z"/>
  </g>
  <g id="Bold-L" transform="matrix(1 0 0 1 2257.24 1556)">
   <path d="M62.1094 24.5117L103.369 24.5117C112.891 24.5117 118.213 18.8477 118.213 9.66797L118.213-17.3828L142.529-17.3828C148.438-17.3828 152.588-20.8496 152.588-26.2207C152.588-29.5898 151.172-31.8359 148.145-34.9121L91.4062-92.041C88.623-94.8242 85.791-96.1914 82.7637-96.1914C79.6875-96.1914 76.8555-94.8242 74.1211-92.041L17.3828-34.9121C14.2578-31.7383 12.8906-29.5898 12.8906-26.2207C12.8906-20.8496 17.0898-17.3828 22.998-17.3828L47.2656-17.3828L47.2656 9.66797C47.2656 18.8477 52.6367 24.5117 62.1094 24.5117ZM66.0645 9.86328C63.916 9.86328 62.4512 8.39844 62.4512 6.25L62.4512-28.2227C62.4512-29.6875 61.9141-30.2246 60.4492-30.2246L34.5215-30.2246C34.1309-30.2246 33.8867-30.4199 33.8867-30.7129C33.8867-30.9082 33.9844-31.1035 34.2285-31.3477L81.543-78.6621C81.9824-79.1016 82.373-79.2969 82.7637-79.2969C83.1543-79.2969 83.4961-79.1016 83.9355-78.6621L131.25-31.3477C131.543-31.1035 131.592-30.9082 131.592-30.7129C131.592-30.4199 131.396-30.2246 130.957-30.2246L105.078-30.2246C103.564-30.2246 103.027-29.6875 103.027-28.2227L103.027 6.25C103.027 8.34961 101.514 9.86328 99.4629 9.86328Z"/>
  </g>
  <g id="Semibold-L" transform="matrix(1 0 0 1 1961.36 1556)">
   <path d="M61.4258 23.6816L102.393 23.6816C111.328 23.6816 116.357 18.3105 116.357 9.7168L116.357-18.1641L141.553-18.1641C146.973-18.1641 150.928-21.3867 150.928-26.3672C150.928-29.4922 149.512-31.6406 146.826-34.3262L90.1367-91.2598C87.4512-93.9941 84.8145-95.3125 81.8848-95.3125C79.0039-95.3125 76.3672-93.9941 73.6816-91.2598L16.9922-34.3262C14.209-31.543 12.8906-29.4922 12.8906-26.3672C12.8906-21.3867 16.8457-18.1641 22.2656-18.1641L47.4121-18.1641L47.4121 9.7168C47.4121 18.3105 52.4902 23.6816 61.4258 23.6816ZM64.209 11.3281C61.9141 11.3281 60.3516 9.76562 60.3516 7.4707L60.3516-27.2949C60.3516-28.7598 59.8145-29.2969 58.3496-29.2969L31.1035-29.2969C30.6152-29.2969 30.3711-29.541 30.3711-29.834C30.3711-30.0781 30.4688-30.3223 30.7617-30.6152L80.4688-80.2246C81.0059-80.8105 81.4453-80.957 81.8848-80.957C82.373-80.957 82.8125-80.8105 83.3496-80.2246L133.057-30.6152C133.35-30.3223 133.447-30.0781 133.447-29.834C133.447-29.541 133.203-29.2969 132.666-29.2969L105.469-29.2969C104.004-29.2969 103.467-28.7598 103.467-27.2949L103.467 7.4707C103.467 9.66797 101.807 11.3281 99.6094 11.3281Z"/>
  </g>
  <g id="Medium-L" transform="matrix(1 0 0 1 1665.28 1556)">
   <path d="M60.8887 23.0469L101.611 23.0469C110.205 23.0469 114.99 17.9199 114.99 9.7168L114.99-18.75L140.771-18.75C145.85-18.75 149.658-21.7773 149.658-26.5137C149.658-29.3945 148.291-31.4941 145.85-33.9355L89.1602-90.6738C86.5234-93.3594 84.0332-94.6289 81.25-94.6289C78.5156-94.6289 76.0254-93.3594 73.3398-90.6738L16.6992-33.9355C14.1602-31.3965 12.8906-29.3945 12.8906-26.5137C12.8906-21.7773 16.6504-18.75 21.7285-18.75L47.5586-18.75L47.5586 9.7168C47.5586 17.9199 52.3438 23.0469 60.8887 23.0469ZM62.8418 12.4512C60.4492 12.4512 58.7402 10.791 58.7402 8.34961L58.7402-26.6113C58.7402-28.0273 58.2031-28.6133 56.7383-28.6133L28.5156-28.6133C27.9785-28.6133 27.6855-28.8086 27.6855-29.1992C27.6855-29.4922 27.7832-29.6875 28.125-30.0293L79.6387-81.3965C80.2734-82.0312 80.7617-82.2754 81.25-82.2754C81.7871-82.2754 82.2266-82.0312 82.8613-81.3965L134.375-30.0293C134.717-29.6875 134.814-29.4922 134.814-29.1992C134.814-28.8086 134.57-28.6133 133.984-28.6133L105.762-28.6133C104.346-28.6133 103.76-28.0273 103.76-26.6113L103.76 8.34961C103.76 10.7422 102.051 12.4512 99.707 12.4512Z"/>
  </g>
  <g id="Regular-L" transform="matrix(1 0 0 1 1369.42 1556)">
   <path d="M60.2051 22.2168L100.635 22.2168C108.691 22.2168 113.135 17.4316 113.135 9.76562L113.135-19.5312L139.795-19.5312C144.434-19.5312 147.949-22.3145 147.949-26.6113C147.949-29.2969 146.631-31.2988 144.531-33.3984L87.9395-89.9414C85.3027-92.5293 83.0078-93.7012 80.4199-93.7012C77.832-93.7012 75.5371-92.5293 72.9492-89.9414L16.3086-33.3984C14.1113-31.1523 12.8906-29.2969 12.8906-26.6113C12.8906-22.3145 16.4551-19.5312 21.0449-19.5312L47.7051-19.5312L47.7051 9.76562C47.7051 17.4316 52.1973 22.2168 60.2051 22.2168ZM61.0352 13.8672C58.4473 13.8672 56.6895 12.1094 56.6895 9.57031L56.6895-25.6836C56.6895-27.1484 56.1035-27.6855 54.6875-27.6855L25.1465-27.6855C24.5117-27.6855 24.2188-27.9297 24.2188-28.3203C24.2188-28.6621 24.3164-28.9062 24.707-29.2969L78.5645-82.9102C79.3457-83.6914 79.834-83.9355 80.4199-83.9355C81.0059-83.9355 81.543-83.6914 82.2754-82.9102L136.133-29.2969C136.523-28.9062 136.621-28.6621 136.621-28.3203C136.621-27.9297 136.328-27.6855 135.693-27.6855L106.201-27.6855C104.736-27.6855 104.199-27.1484 104.199-25.6836L104.199 9.57031C104.199 12.0605 102.344 13.8672 99.8535 13.8672Z"/>
  </g>
  <g id="Light-L" transform="matrix(1 0 0 1 1073.01 1556)">
   <path d="M58.9355 21.4355L101.367 21.4355C108.35 21.4355 112.5 17.0898 112.5 10.3516L112.5-20.4102L140.576-20.4102C144.482-20.4102 147.363-22.7539 147.363-26.3672C147.363-28.6133 146.289-30.3223 144.434-32.1777L87.207-89.4043C84.4238-92.2852 82.373-93.1641 80.127-93.1641C77.8809-93.1641 75.8789-92.2852 73.0469-89.4043L15.8203-32.1777C13.916-30.2734 12.8906-28.6133 12.8906-26.3672C12.8906-22.7539 15.7715-20.4102 19.6777-20.4102L47.8027-20.4102L47.8027 10.3516C47.8027 17.0898 51.9043 21.4355 58.9355 21.4355ZM59.4238 14.9902C56.5918 14.9902 54.5898 13.0371 54.5898 10.2051L54.5898-24.8535C54.5898-26.2207 54.1016-26.709 52.7344-26.709L22.5586-26.709C21.7285-26.709 21.3379-27.002 21.3379-27.5391C21.3379-27.9785 21.4844-28.2715 21.9727-28.8086L77.5391-84.2773C78.6621-85.4492 79.3457-85.791 80.127-85.791C80.9082-85.791 81.5918-85.4492 82.7148-84.2773L138.281-28.8086C138.818-28.2715 138.916-27.9785 138.916-27.5391C138.916-27.002 138.525-26.709 137.695-26.709L107.52-26.709C106.201-26.709 105.664-26.2207 105.664-24.8535L105.664 10.2051C105.664 13.0371 103.662 14.9902 100.879 14.9902Z"/>
  </g>
  <g id="Thin-L" transform="matrix(1 0 0 1 776.686 1556)">
   <path d="M57.1777 20.3613L102.295 20.3613C107.91 20.3613 111.621 16.6504 111.621 11.084L111.621-21.5332L141.602-21.5332C144.58-21.5332 146.582-23.291 146.582-26.0254C146.582-27.6855 145.801-29.1016 144.336-30.5664L86.2305-88.7695C83.2031-91.8945 81.543-92.4805 79.7363-92.4805C77.9297-92.4805 76.3184-91.8945 73.2422-88.7695L15.1367-30.5664C13.6719-29.0527 12.8906-27.6855 12.8906-26.0254C12.8906-23.291 14.8926-21.5332 17.8711-21.5332L47.8516-21.5332L47.8516 11.084C47.8516 16.6504 51.5625 20.3613 57.1777 20.3613ZM57.2754 16.4551C54.1016 16.4551 51.8066 14.2578 51.8066 11.084L51.8066-23.7305C51.8066-25 51.416-25.3906 50.1465-25.3906L19.1895-25.3906C18.0664-25.3906 17.5293-25.7812 17.5293-26.5137C17.5293-27.0508 17.6758-27.4414 18.3594-28.125L76.2207-86.084C77.7832-87.7441 78.7109-88.1836 79.7363-88.1836C80.8105-88.1836 81.6895-87.7441 83.252-86.084L141.113-28.125C141.797-27.4414 141.943-27.0508 141.943-26.5137C141.943-25.7812 141.455-25.3906 140.283-25.3906L109.326-25.3906C108.105-25.3906 107.666-25 107.666-23.7305L107.666 11.084C107.666 14.2578 105.42 16.4551 102.197 16.4551Z"/>
  </g>
  <g id="Ultralight-L" transform="matrix(1 0 0 1 480.17 1556)">
   <path d="M56.2988 19.7754L102.783 19.7754C107.666 19.7754 111.182 16.4062 111.182 11.4746L111.182-22.1191L142.139-22.1191C144.629-22.1191 146.191-23.584 146.191-25.8789C146.191-27.2461 145.557-28.4668 144.287-29.7363L85.7422-88.4277C82.5684-91.6992 81.1035-92.0898 79.541-92.0898C77.9785-92.0898 76.5137-91.6992 73.3398-88.4277L14.7949-29.7363C13.5742-28.4668 12.8906-27.2461 12.8906-25.8789C12.8906-23.584 14.4531-22.1191 16.9434-22.1191L47.9004-22.1191L47.9004 11.4746C47.9004 16.4062 51.416 19.7754 56.2988 19.7754ZM56.2012 17.1875C52.7832 17.1875 50.3906 14.8926 50.3906 11.5234L50.3906-23.1934C50.3906-24.3652 50-24.7559 48.8281-24.7559L17.4316-24.7559C16.1621-24.7559 15.5762-25.1465 15.5762-26.0254C15.5762-26.6113 15.7227-27.002 16.5039-27.7832L75.5371-87.0117C77.3438-88.916 78.3691-89.4043 79.541-89.4043C80.7129-89.4043 81.7383-88.916 83.5449-87.0117L142.578-27.7832C143.359-27.002 143.506-26.6113 143.506-26.0254C143.506-25.1465 142.92-24.7559 141.65-24.7559L110.254-24.7559C109.082-24.7559 108.691-24.3652 108.691-23.1934L108.691 11.5234C108.691 14.8926 106.299 17.1875 102.881 17.1875Z"/>
  </g>
  <g id="Black-M" transform="matrix(1 0 0 1 2866.19 1126)">
   <path d="M50.0977 13.8184L84.375 13.8184C93.1641 13.8184 98.4375 8.54492 98.4375-0.292969L98.4375-18.8477L114.648-18.8477C120.654-18.8477 124.463-22.2168 124.463-27.5391C124.463-30.8594 123.291-32.8613 119.775-36.4746L75.293-82.0312C72.8516-84.4727 70.1172-85.7422 67.2363-85.7422C64.3555-85.7422 61.5723-84.4727 59.1309-82.0312L14.6484-36.4746C11.1328-32.8125 9.96094-30.957 9.96094-27.5391C9.96094-22.2168 13.7695-18.8477 19.7754-18.8477L35.9863-18.8477L35.9863-0.292969C35.9863 8.54492 41.2598 13.8184 50.0977 13.8184ZM57.373-5.37109C56.2012-5.37109 55.4199-6.20117 55.4199-7.42188L55.4199-33.0078C55.4199-34.0332 55.0293-34.4727 53.9062-34.4727L38.623-34.4727C38.4277-34.4727 38.3789-34.5215 38.3789-34.668C38.3789-34.7168 38.3789-34.7656 38.5254-34.9121L66.8457-63.623C66.8945-63.7207 67.0898-63.7695 67.2363-63.7695C67.334-63.7695 67.5293-63.7207 67.5781-63.623L95.9473-34.9121C96.0449-34.7656 96.0449-34.7168 96.0449-34.668C96.0449-34.5215 95.9961-34.4727 95.8008-34.4727L80.5176-34.4727C79.3945-34.4727 79.0039-34.0332 79.0039-33.0078L79.0039-7.42188C79.0039-6.25 78.1738-5.37109 77.0508-5.37109Z"/>
  </g>
  <g id="Heavy-M" transform="matrix(1 0 0 1 2570.6 1126)">
   <path d="M49.4629 12.8418L82.7637 12.8418C91.1133 12.8418 95.9961 7.91016 95.9961-0.390625L95.9961-19.7266L113.037-19.7266C118.604-19.7266 122.217-22.9004 122.217-27.832C122.217-30.9082 121.045-32.8613 117.969-35.9863L73.6816-81.0547C71.3867-83.3984 68.7988-84.5703 66.1133-84.5703C63.3789-84.5703 60.8398-83.3984 58.4961-81.0547L14.2578-35.9863C11.1328-32.7637 9.96094-30.957 9.96094-27.832C9.96094-22.9004 13.623-19.7266 19.1406-19.7266L36.2305-19.7266L36.2305-0.390625C36.2305 7.91016 41.1133 12.8418 49.4629 12.8418ZM55.2246-3.61328C53.9062-3.61328 52.9785-4.49219 52.9785-5.85938L52.9785-31.8848C52.9785-32.959 52.5879-33.3984 51.4648-33.3984L34.4727-33.3984C34.2285-33.3984 34.1309-33.4961 34.1309-33.6426C34.1309-33.7402 34.1309-33.8379 34.2773-33.9844L65.5762-65.4785C65.7227-65.625 65.918-65.6738 66.1133-65.6738C66.2598-65.6738 66.5039-65.625 66.6016-65.4785L97.9004-33.9844C98.0469-33.8379 98.0469-33.7402 98.0469-33.6426C98.0469-33.4961 97.9492-33.3984 97.7539-33.3984L80.7617-33.3984C79.5898-33.3984 79.1992-32.959 79.1992-31.8848L79.1992-5.85938C79.1992-4.54102 78.2715-3.61328 77.002-3.61328Z"/>
  </g>
  <g id="Bold-M" transform="matrix(1 0 0 1 2275.13 1126)">
   <path d="M48.7305 11.7676L80.957 11.7676C88.7695 11.7676 93.2129 7.12891 93.2129-0.488281L93.2129-20.7031L111.279-20.7031C116.26-20.7031 119.727-23.584 119.727-28.125C119.727-30.957 118.555-32.8125 115.918-35.498L71.9238-79.9805C69.7266-82.1289 67.3828-83.3008 64.8438-83.3008C62.3047-83.3008 59.9609-82.1289 57.7637-79.9805L13.7695-35.498C11.084-32.7148 9.96094-31.0059 9.96094-28.125C9.96094-23.584 13.4277-20.7031 18.4082-20.7031L36.4746-20.7031L36.4746-0.488281C36.4746 7.12891 40.918 11.7676 48.7305 11.7676ZM52.7832-1.61133C51.2695-1.61133 50.2441-2.63672 50.2441-4.15039L50.2441-30.6641C50.2441-31.7383 49.8535-32.2266 48.6816-32.2266L29.7852-32.2266C29.4922-32.2266 29.3945-32.3242 29.3945-32.5195C29.3945-32.6172 29.4434-32.7148 29.5898-32.9102L64.1602-67.5293C64.3555-67.7734 64.5996-67.8711 64.8438-67.8711C65.0879-67.8711 65.332-67.7734 65.5273-67.5293L100.098-32.9102C100.293-32.7148 100.293-32.6172 100.293-32.5195C100.293-32.3242 100.195-32.2266 99.9023-32.2266L81.0059-32.2266C79.834-32.2266 79.4434-31.7383 79.4434-30.6641L79.4434-4.15039C79.4434-2.68555 78.3691-1.61133 76.9043-1.61133Z"/>
  </g>
  <g id="Semibold-M" transform="matrix(1 0 0 1 1979.28 1126)">
   <path d="M48.2422 11.0352L79.7363 11.0352C87.1582 11.0352 91.3574 6.64062 91.3574-0.537109L91.3574-21.3867L110.01-21.3867C114.648-21.3867 118.018-24.1211 118.018-28.3691C118.018-30.957 116.846-32.7637 114.502-35.1074L70.6543-79.1992C68.6035-81.2988 66.4062-82.4219 63.9648-82.4219C61.5723-82.4219 59.375-81.2988 57.2754-79.1992L13.4766-35.1074C11.0352-32.666 9.96094-31.0059 9.96094-28.3691C9.96094-24.1211 13.2812-21.3867 17.9199-21.3867L36.6211-21.3867L36.6211-0.537109C36.6211 6.64062 40.7715 11.0352 48.2422 11.0352ZM51.123-0.195312C49.5117-0.195312 48.3887-1.31836 48.3887-2.97852L48.3887-29.7852C48.3887-30.9082 47.9492-31.3965 46.7773-31.3965L26.5625-31.3965C26.2695-31.3965 26.123-31.4941 26.123-31.6895C26.123-31.8359 26.1719-31.9824 26.3672-32.1777L63.1836-68.9453C63.4277-69.2383 63.7207-69.3359 63.9648-69.3359C64.2578-69.3359 64.502-69.2383 64.7949-68.9453L101.611-32.1777C101.807-31.9824 101.855-31.8359 101.855-31.6895C101.855-31.4941 101.709-31.3965 101.416-31.3965L81.2012-31.3965C80.0293-31.3965 79.5898-30.9082 79.5898-29.7852L79.5898-2.97852C79.5898-1.36719 78.418-0.195312 76.8555-0.195312Z"/>
  </g>
  <g id="Medium-M" transform="matrix(1 0 0 1 1683.23 1126)">
   <path d="M47.8516 10.498L78.7598 10.498C85.9863 10.498 89.8926 6.25 89.8926-0.634766L89.8926-21.875L109.082-21.875C113.428-21.875 116.699-24.4629 116.699-28.5156C116.699-31.0059 115.527-32.7148 113.428-34.8633L69.7266-78.6621C67.7246-80.6641 65.625-81.7383 63.3301-81.7383C61.0352-81.7383 58.8867-80.6641 56.9336-78.6621L13.2324-34.8633C11.0352-32.666 9.96094-31.0059 9.96094-28.5156C9.96094-24.4629 13.2324-21.875 17.5293-21.875L36.7676-21.875L36.7676-0.634766C36.7676 6.25 40.6738 10.498 47.8516 10.498ZM49.8535 0.830078C48.1445 0.830078 46.9238-0.341797 46.9238-2.05078L46.9238-29.1504C46.9238-30.2734 46.4844-30.7617 45.3125-30.7617L24.1211-30.7617C23.7793-30.7617 23.6328-30.9082 23.6328-31.1035C23.6328-31.2988 23.6816-31.4453 23.877-31.6406L62.4023-70.0195C62.7441-70.3613 63.0371-70.459 63.3301-70.459C63.623-70.459 63.916-70.3613 64.2578-70.0195L102.783-31.6406C102.979-31.4453 103.027-31.2988 103.027-31.1035C103.027-30.9082 102.881-30.7617 102.539-30.7617L81.2988-30.7617C80.1758-30.7617 79.6875-30.2734 79.6875-29.1504L79.6875-2.05078C79.6875-0.390625 78.4668 0.830078 76.8066 0.830078Z"/>
  </g>
  <g id="Regular-M" transform="matrix(1 0 0 1 1387.37 1126)">
   <path d="M47.4121 9.76562L77.5391 9.76562C84.375 9.76562 88.0371 5.76172 88.0371-0.683594L88.0371-22.5586L107.861-22.5586C111.865-22.5586 114.99-25 114.99-28.7109C114.99-31.0059 113.818-32.7148 112.061-34.4727L68.5059-77.8809C66.6016-79.7852 64.6484-80.8594 62.4512-80.8594C60.3027-80.8594 58.3008-79.7852 56.4453-77.8809L12.8906-34.4727C10.9863-32.6172 9.96094-31.0059 9.96094-28.7109C9.96094-25 13.0859-22.5586 17.041-22.5586L36.9141-22.5586L36.9141-0.683594C36.9141 5.76172 40.5762 9.76562 47.4121 9.76562ZM48.1934 2.19727C46.3379 2.19727 45.0684 0.927734 45.0684-0.878906L45.0684-28.2715C45.0684-29.4922 44.6289-29.9316 43.457-29.9316L20.8984-29.9316C20.5566-29.9316 20.3613-30.0781 20.3613-30.3223C20.3613-30.5176 20.459-30.6641 20.6543-30.9082L61.4258-71.4355C61.8164-71.8262 62.1582-71.9238 62.4512-71.9238C62.793-71.9238 63.1348-71.8262 63.4766-71.4355L104.248-30.9082C104.492-30.6641 104.541-30.5176 104.541-30.3223C104.541-30.0781 104.395-29.9316 104.004-29.9316L81.4941-29.9316C80.3223-29.9316 79.8828-29.4922 79.8828-28.2715L79.8828-0.878906C79.8828 0.878906 78.5645 2.19727 76.7578 2.19727Z"/>
  </g>
  <g id="Light-M" transform="matrix(1 0 0 1 1090.93 1126)">
   <path d="M46.2402 9.0332L78.1738 9.0332C84.082 9.0332 87.4512 5.46875 87.4512-0.195312L87.4512-23.3398L108.594-23.3398C111.914-23.3398 114.453-25.3418 114.453-28.4668C114.453-30.4199 113.525-31.8359 111.963-33.3984L67.8711-77.4414C65.7715-79.541 64.1113-80.3711 62.207-80.3711C60.3027-80.3711 58.5938-79.541 56.543-77.4414L12.4512-33.3984C10.8398-31.7871 9.96094-30.4199 9.96094-28.4668C9.96094-25.3418 12.5-23.3398 15.8203-23.3398L36.9629-23.3398L36.9629-0.195312C36.9629 5.46875 40.332 9.0332 46.2402 9.0332ZM46.7285 3.17383C44.6777 3.17383 43.2129 1.75781 43.2129-0.292969L43.2129-27.5391C43.2129-28.6621 42.8223-29.0527 41.6992-29.0527L18.6035-29.0527C18.0664-29.0527 17.7734-29.248 17.7734-29.6387C17.7734-29.9316 17.8711-30.127 18.2129-30.4688L60.5469-72.6562C61.2305-73.3887 61.6699-73.584 62.207-73.584C62.7441-73.584 63.1836-73.3887 63.8672-72.6562L106.201-30.4688C106.543-30.127 106.641-29.9316 106.641-29.6387C106.641-29.248 106.348-29.0527 105.811-29.0527L82.7148-29.0527C81.5918-29.0527 81.2012-28.6621 81.2012-27.5391L81.2012-0.292969C81.2012 1.75781 79.7363 3.17383 77.6855 3.17383Z"/>
  </g>
  <g id="Thin-M" transform="matrix(1 0 0 1 794.557 1126)">
   <path d="M44.6777 8.05664L79.0527 8.05664C83.6914 8.05664 86.6699 5.07812 86.6699 0.488281L86.6699-24.3652L109.473-24.3652C112.012-24.3652 113.77-25.8789 113.77-28.1738C113.77-29.5898 113.086-30.7617 111.865-31.9336L66.9922-76.8555C64.6973-79.248 63.3301-79.7363 61.8652-79.7363C60.3516-79.7363 59.0332-79.248 56.6895-76.8555L11.8652-31.9336C10.6445-30.7129 9.96094-29.5898 9.96094-28.1738C9.96094-25.8789 11.7188-24.3652 14.209-24.3652L37.0605-24.3652L37.0605 0.488281C37.0605 5.07812 40.0391 8.05664 44.6777 8.05664ZM44.8242 4.49219C42.4316 4.49219 40.7227 2.88086 40.7227 0.488281L40.7227-26.5625C40.7227-27.5391 40.3809-27.8809 39.4043-27.8809L15.5762-27.8809C14.7461-27.8809 14.3555-28.1738 14.3555-28.7109C14.3555-29.1016 14.502-29.3945 14.9902-29.8828L59.3262-74.2676C60.4492-75.4395 61.084-75.7324 61.8652-75.7324C62.5977-75.7324 63.2812-75.4395 64.4043-74.2676L108.74-29.8828C109.229-29.3945 109.326-29.1016 109.326-28.7109C109.326-28.1738 108.936-27.8809 108.154-27.8809L84.3262-27.8809C83.3008-27.8809 82.959-27.5391 82.959-26.5625L82.959 0.488281C82.959 2.83203 81.2988 4.49219 78.9062 4.49219Z"/>
  </g>
  <g id="Ultralight-M" transform="matrix(1 0 0 1 498.041 1126)">
   <path d="M43.8477 7.56836L79.4922 7.56836C83.4961 7.56836 86.2793 4.88281 86.2793 0.830078L86.2793-24.9023L109.961-24.9023C112.061-24.9023 113.379-26.123 113.379-28.0273C113.379-29.1992 112.842-30.1758 111.816-31.2012L66.6016-76.5625C64.1602-79.0527 62.9883-79.4434 61.6699-79.4434C60.4004-79.4434 59.2285-79.0527 56.7871-76.5625L11.5723-31.2012C10.498-30.1758 9.96094-29.1992 9.96094-28.0273C9.96094-26.123 11.2793-24.9023 13.3789-24.9023L37.0605-24.9023L37.0605 0.830078C37.0605 4.88281 39.8438 7.56836 43.8477 7.56836ZM43.8477 5.17578C41.2598 5.17578 39.4531 3.41797 39.4531 0.878906L39.4531-26.0742C39.4531-27.002 39.1602-27.2949 38.2324-27.2949L14.0137-27.2949C13.0859-27.2949 12.6465-27.5879 12.6465-28.2227C12.6465-28.6621 12.7441-29.0039 13.3301-29.541L58.6914-75.0977C60.0586-76.4648 60.791-76.8555 61.6699-76.8555C62.5488-76.8555 63.3301-76.4648 64.6484-75.0977L110.059-29.541C110.596-29.0039 110.742-28.6621 110.742-28.2227C110.742-27.5879 110.303-27.2949 109.326-27.2949L85.1074-27.2949C84.1797-27.2949 83.8867-27.002 83.8867-26.0742L83.8867 0.878906C83.8867 3.41797 82.0801 5.17578 79.4922 5.17578Z"/>
  </g>
  <g id="Black-S" transform="matrix(1 0 0 1 2880.81 696)">
   <path d="M39.209 3.125L65.9668 3.125C72.8516 3.125 76.9531-0.976562 76.9531-7.86133L76.9531-22.4609L89.6973-22.4609C94.3848-22.4609 97.3633-25.0977 97.3633-29.248C97.3633-31.8359 96.4355-33.3984 93.7012-36.1816L58.8867-71.8262C56.9824-73.7305 54.834-74.707 52.5879-74.707C50.3418-74.707 48.1934-73.7305 46.2891-71.8262L11.4746-36.1816C8.74023-33.3496 7.8125-31.8848 7.8125-29.248C7.8125-25.0977 10.791-22.4609 15.4785-22.4609L28.2227-22.4609L28.2227-7.86133C28.2227-0.976562 32.3242 3.125 39.209 3.125ZM44.8242-11.7188C43.8965-11.7188 43.2617-12.3535 43.2617-13.3301L43.2617-33.3984C43.2617-34.2285 42.9688-34.5703 42.0898-34.5703L29.9805-34.5703C29.834-34.5703 29.7852-34.6191 29.7852-34.7168C29.7852-34.7656 29.7852-34.8145 29.8828-34.9121L52.2949-57.6172C52.3438-57.666 52.4902-57.7148 52.5879-57.7148C52.6855-57.7148 52.832-57.666 52.8809-57.6172L75.293-34.9121C75.3906-34.8145 75.3906-34.7656 75.3906-34.7168C75.3906-34.6191 75.3418-34.5703 75.1953-34.5703L63.0859-34.5703C62.207-34.5703 61.9141-34.2285 61.9141-33.3984L61.9141-13.3301C61.9141-12.4023 61.2305-11.7188 60.3516-11.7188Z"/>
  </g>
  <g id="Heavy-S" transform="matrix(1 0 0 1 2584.93 696)">
   <path d="M38.8672 2.49023L64.6484 2.49023C71.2891 2.49023 75.1465-1.46484 75.1465-8.00781L75.1465-23.0469L88.3789-23.0469C92.7734-23.0469 95.7031-25.5371 95.7031-29.4922C95.7031-31.9336 94.7754-33.4473 92.334-35.9375L57.7148-71.1426C55.957-72.9004 53.9062-73.877 51.7578-73.877C49.6094-73.877 47.5586-72.9004 45.8008-71.1426L11.1816-35.9375C8.74023-33.3984 7.8125-31.9824 7.8125-29.4922C7.8125-25.5371 10.7422-23.0469 15.1367-23.0469L28.3691-23.0469L28.3691-8.00781C28.3691-1.46484 32.2266 2.49023 38.8672 2.49023ZM43.3105-10.4492C42.2852-10.4492 41.6016-11.1816 41.6016-12.207L41.6016-32.6172C41.6016-33.4961 41.3086-33.8379 40.3809-33.8379L27.0508-33.8379C26.9043-33.8379 26.8066-33.8867 26.8066-34.0332C26.8066-34.082 26.8555-34.1309 26.9531-34.2285L51.416-58.8867C51.5137-58.9355 51.6602-58.9844 51.7578-58.9844C51.8555-58.9844 52.0508-58.9355 52.0996-58.8867L76.5625-34.2285C76.709-34.1309 76.709-34.082 76.709-34.0332C76.709-33.8867 76.6113-33.8379 76.4648-33.8379L63.1348-33.8379C62.207-33.8379 61.9141-33.4961 61.9141-32.6172L61.9141-12.207C61.9141-11.2305 61.1816-10.4492 60.2051-10.4492Z"/>
  </g>
  <g id="Bold-S" transform="matrix(1 0 0 1 2289.15 696)">
   <path d="M38.4766 1.75781L63.2324 1.75781C69.5801 1.75781 73.0957-1.95312 73.0957-8.1543L73.0957-23.6816L86.9629-23.6816C91.0156-23.6816 93.8477-26.0742 93.8477-29.7363C93.8477-32.0312 92.8711-33.5449 90.7715-35.6934L56.4453-70.3613C54.7852-72.0215 52.8809-72.9492 50.8301-72.9492C48.7793-72.9492 46.875-72.0215 45.2148-70.3613L10.8887-35.6934C8.74023-33.4473 7.8125-32.0801 7.8125-29.7363C7.8125-26.0742 10.6934-23.6816 14.7461-23.6816L28.5645-23.6816L28.5645-8.1543C28.5645-1.95312 32.1289 1.75781 38.4766 1.75781ZM41.6504-9.0332C40.5273-9.0332 39.7461-9.81445 39.7461-10.9863L39.7461-31.7871C39.7461-32.666 39.4043-33.0566 38.4766-33.0566L23.7305-33.0566C23.584-33.0566 23.4863-33.1055 23.4863-33.2031C23.4863-33.3008 23.5352-33.3984 23.6328-33.4961L50.4395-60.3027C50.5371-60.4004 50.6836-60.4492 50.8301-60.4492C50.9766-60.4492 51.123-60.4004 51.2207-60.3027L78.0273-33.4961C78.125-33.3984 78.1738-33.3008 78.1738-33.2031C78.1738-33.1055 78.0762-33.0566 77.9297-33.0566L63.1836-33.0566C62.2559-33.0566 61.9141-32.666 61.9141-31.7871L61.9141-10.9863C61.9141-9.86328 61.084-9.0332 60.0098-9.0332Z"/>
  </g>
  <g id="Semibold-S" transform="matrix(1 0 0 1 1993.07 696)">
   <path d="M38.1836 1.26953L62.207 1.26953C68.3594 1.26953 71.6797-2.34375 71.6797-8.25195L71.6797-24.1211L85.9375-24.1211C89.7461-24.1211 92.5781-26.416 92.5781-29.9316C92.5781-32.0801 91.6016-33.5938 89.6973-35.498L55.5664-69.8242C54.0039-71.3867 52.1973-72.3145 50.1953-72.3145C48.1934-72.3145 46.3867-71.3867 44.8242-69.8242L10.6934-35.498C8.74023-33.4961 7.8125-32.1289 7.8125-29.9316C7.8125-26.416 10.6445-24.1211 14.4531-24.1211L28.7109-24.1211L28.7109-8.25195C28.7109-2.34375 32.0312 1.26953 38.1836 1.26953ZM40.4785-8.10547C39.3066-8.10547 38.4766-8.88672 38.4766-10.1074L38.4766-31.2012C38.4766-32.1289 38.1348-32.4707 37.1582-32.4707L21.4844-32.4707C21.2891-32.4707 21.2402-32.5684 21.2402-32.666C21.2402-32.7637 21.2402-32.8613 21.3867-32.959L49.7559-61.2793C49.9023-61.377 50.0488-61.4746 50.1953-61.4746C50.3418-61.4746 50.4883-61.377 50.6348-61.2793L79.0039-32.959C79.1504-32.8613 79.1504-32.7637 79.1504-32.666C79.1504-32.5684 79.1016-32.4707 78.9062-32.4707L63.2324-32.4707C62.2559-32.4707 61.9141-32.1289 61.9141-31.2012L61.9141-10.1074C61.9141-8.93555 61.0352-8.10547 59.9121-8.10547Z"/>
  </g>
  <g id="Medium-S" transform="matrix(1 0 0 1 1696.85 696)">
   <path d="M37.9883 0.878906L61.4258 0.878906C67.4316 0.878906 70.6543-2.63672 70.6543-8.30078L70.6543-24.4629L85.2051-24.4629C88.8184-24.4629 91.6016-26.6602 91.6016-30.0781C91.6016-32.1777 90.625-33.5938 88.8672-35.3516L54.8828-69.3848C53.418-70.8984 51.6602-71.8262 49.707-71.8262C47.8027-71.8262 46.0449-70.8984 44.5312-69.3848L10.5469-35.3516C8.74023-33.5449 7.8125-32.1777 7.8125-30.0781C7.8125-26.6602 10.5957-24.4629 14.2578-24.4629L28.8086-24.4629L28.8086-8.30078C28.8086-2.63672 31.9824 0.878906 37.9883 0.878906ZM39.5996-7.32422C38.3789-7.32422 37.5-8.20312 37.5-9.47266L37.5-30.7617C37.5-31.6895 37.1094-32.0801 36.1816-32.0801L19.7754-32.0801C19.5801-32.0801 19.4824-32.1289 19.4824-32.2754C19.4824-32.373 19.5312-32.4707 19.6289-32.5684L49.2676-62.0117C49.3652-62.1582 49.5605-62.207 49.707-62.207C49.8535-62.207 50.0488-62.1582 50.1465-62.0117L79.7852-32.5684C79.8828-32.4707 79.9316-32.373 79.9316-32.2754C79.9316-32.1289 79.834-32.0801 79.6875-32.0801L63.2324-32.0801C62.3047-32.0801 61.9141-31.6895 61.9141-30.7617L61.9141-9.47266C61.9141-8.25195 61.0352-7.32422 59.8145-7.32422Z"/>
  </g>
  <g id="Regular-S" transform="matrix(1 0 0 1 1400.77 696)">
   <path d="M37.6953 0.390625L60.4492 0.390625C66.2598 0.390625 69.2383-2.97852 69.2383-8.39844L69.2383-24.9023L84.1797-24.9023C87.5977-24.9023 90.332-27.002 90.332-30.2246C90.332-32.2266 89.3555-33.6426 87.8418-35.2051L54.0039-68.8965C52.5879-70.2637 50.9277-71.1914 49.0723-71.1914C47.2168-71.1914 45.5566-70.2637 44.1406-68.8965L10.3516-35.2051C8.69141-33.5449 7.8125-32.2266 7.8125-30.2246C7.8125-27.002 10.5469-24.9023 13.9648-24.9023L28.9062-24.9023L28.9062-8.39844C28.9062-2.97852 31.8848 0.390625 37.6953 0.390625ZM38.4277-6.39648C37.1582-6.39648 36.2305-7.27539 36.2305-8.59375L36.2305-30.1758C36.2305-31.1035 35.8398-31.4941 34.8633-31.4941L17.5293-31.4941C17.334-31.4941 17.2363-31.5918 17.2363-31.7383C17.2363-31.8359 17.2852-31.9336 17.3828-32.0801L48.584-62.9883C48.7305-63.1348 48.9258-63.1836 49.0723-63.1836C49.2676-63.1836 49.4141-63.1348 49.5605-62.9883L80.7617-32.0801C80.8594-31.9336 80.957-31.8359 80.957-31.7383C80.957-31.5918 80.8105-31.4941 80.6641-31.4941L63.2812-31.4941C62.3047-31.4941 61.9141-31.1035 61.9141-30.1758L61.9141-8.59375C61.9141-7.32422 60.9863-6.39648 59.7168-6.39648Z"/>
  </g>
  <g id="Light-S" transform="matrix(1 0 0 1 1104.28 696)">
   <path d="M36.6699-0.292969L61.0352-0.292969C66.0156-0.292969 68.75-3.22266 68.75-7.95898L68.75-25.6348L84.8145-25.6348C87.6465-25.6348 89.8926-27.3438 89.8926-30.0293C89.8926-31.6895 89.0625-32.9102 87.7441-34.2285L53.418-68.457C51.8555-70.0684 50.4395-70.8008 48.8281-70.8008C47.2656-70.8008 45.8008-70.0684 44.2383-68.457L9.91211-34.2285C8.54492-32.8613 7.8125-31.6895 7.8125-30.0293C7.8125-27.3438 10.0098-25.6348 12.8906-25.6348L28.9551-25.6348L28.9551-7.95898C28.9551-3.22266 31.6895-0.292969 36.6699-0.292969ZM37.1582-5.51758C35.6445-5.51758 34.5703-6.54297 34.5703-8.10547L34.5703-29.4922C34.5703-30.3711 34.2285-30.7129 33.3496-30.7129L15.4785-30.7129C15.1367-30.7129 14.9414-30.8594 14.9414-31.1035C14.9414-31.2988 14.9902-31.4453 15.2344-31.6406L47.8027-64.0625C48.1934-64.502 48.4863-64.6484 48.8281-64.6484C49.1699-64.6484 49.4629-64.502 49.9023-64.0625L82.4707-31.6406C82.666-31.4453 82.7637-31.2988 82.7637-31.1035C82.7637-30.8594 82.5684-30.7129 82.2266-30.7129L64.3555-30.7129C63.4766-30.7129 63.1348-30.3711 63.1348-29.4922L63.1348-8.10547C63.1348-6.5918 62.0117-5.51758 60.498-5.51758Z"/>
  </g>
  <g id="Thin-S" transform="matrix(1 0 0 1 807.887 696)">
   <path d="M35.3027-1.12305L61.7676-1.12305C65.6738-1.12305 68.0664-3.56445 68.0664-7.37305L68.0664-26.5137L85.5957-26.5137C87.7441-26.5137 89.2578-27.7832 89.2578-29.7852C89.2578-30.957 88.6719-31.9336 87.6465-32.959L52.6855-67.9688C50.9277-69.7754 49.8047-70.2148 48.5352-70.2148C47.2656-70.2148 46.1426-69.7754 44.3848-67.9688L9.42383-32.959C8.39844-31.8848 7.8125-30.957 7.8125-29.7852C7.8125-27.7832 9.32617-26.5137 11.4746-26.5137L29.0039-26.5137L29.0039-7.37305C29.0039-3.56445 31.4453-1.12305 35.3027-1.12305ZM35.498-4.3457C33.6914-4.3457 32.373-5.61523 32.373-7.42188L32.373-28.6133C32.373-29.4434 32.1289-29.6875 31.2988-29.6875L12.793-29.6875C12.207-29.6875 11.9141-29.9316 11.9141-30.3223C11.9141-30.5664 12.0117-30.8105 12.3535-31.1523L46.7285-65.4785C47.5098-66.3086 47.998-66.5527 48.5352-66.5527C49.0723-66.5527 49.5605-66.3086 50.3418-65.4785L84.7168-31.1523C85.0586-30.8105 85.1562-30.5664 85.1562-30.3223C85.1562-29.9316 84.8633-29.6875 84.2773-29.6875L65.7715-29.6875C64.9414-29.6875 64.6973-29.4434 64.6973-28.6133L64.6973-7.42188C64.6973-5.61523 63.3789-4.3457 61.5723-4.3457Z"/>
  </g>
  <g id="Ultralight-S" transform="matrix(1 0 0 1 511.347 696)">
   <path d="M34.5703-1.5625L62.1582-1.5625C65.4785-1.5625 67.7246-3.75977 67.7246-7.03125L67.7246-27.002L86.0352-27.002C87.793-27.002 88.916-28.0273 88.916-29.6387C88.916-30.6152 88.4766-31.3965 87.5977-32.2754L52.2949-67.6758C50.3906-69.6289 49.4629-69.9219 48.3887-69.9219C47.3145-69.9219 46.3379-69.6289 44.4824-67.6758L9.13086-32.2754C8.25195-31.3965 7.8125-30.6152 7.8125-29.6387C7.8125-28.0273 8.98438-27.002 10.6934-27.002L29.0527-27.002L29.0527-7.03125C29.0527-3.75977 31.2988-1.5625 34.5703-1.5625ZM34.6191-3.75977C32.666-3.75977 31.25-5.07812 31.25-7.08008L31.25-28.1738C31.25-28.9062 31.0059-29.1504 30.2734-29.1504L11.377-29.1504C10.6934-29.1504 10.3516-29.3945 10.3516-29.8828C10.3516-30.2246 10.4492-30.4688 10.8887-30.8594L46.1914-66.2598C47.168-67.2852 47.7051-67.5293 48.3887-67.5293C49.0234-67.5293 49.6094-67.2852 50.5859-66.2598L85.8887-30.8594C86.2793-30.4688 86.377-30.2246 86.377-29.8828C86.377-29.3945 86.0352-29.1504 85.3516-29.1504L66.5039-29.1504C65.7227-29.1504 65.4785-28.9062 65.4785-28.1738L65.4785-7.08008C65.4785-5.07812 64.1113-3.75977 62.1094-3.75977Z"/>
  </g>
 </g>
</svg>
