<?xml version="1.0" encoding="UTF-8"?>
<!--Generator: Apple Native CoreSVG 175-->
<!DOCTYPE svg
PUBLIC "-//W3C//DTD SVG 1.1//EN"
       "http://www.w3.org/Graphics/SVG/1.1/DTD/svg11.dtd">
<svg version="1.1" xmlns="http://www.w3.org/2000/svg" xmlns:xlink="http://www.w3.org/1999/xlink" width="3300" height="2200">
 <!--glyph: "uni10065A.medium", point size: 100.0, font version: "17.0d11e1", template writer version: "65.1"-->
 <g id="Notes">
  <rect height="2200" id="artboard" style="fill:white;opacity:1" width="3300" x="0" y="0"/>
  <line style="fill:none;stroke:black;opacity:1;stroke-width:0.5;" x1="263" x2="3036" y1="292" y2="292"/>
  <text style="stroke:none;fill:black;font-family:sans-serif;font-size:13;font-weight:bold;" transform="matrix(1 0 0 1 263 322)">Weight/Scale Variations</text>
  <text style="stroke:none;fill:black;font-family:sans-serif;font-size:13;text-anchor:middle;" transform="matrix(1 0 0 1 559.711 322)">Ultralight</text>
  <text style="stroke:none;fill:black;font-family:sans-serif;font-size:13;text-anchor:middle;" transform="matrix(1 0 0 1 856.422 322)">Thin</text>
  <text style="stroke:none;fill:black;font-family:sans-serif;font-size:13;text-anchor:middle;" transform="matrix(1 0 0 1 1153.13 322)">Light</text>
  <text style="stroke:none;fill:black;font-family:sans-serif;font-size:13;text-anchor:middle;" transform="matrix(1 0 0 1 1449.84 322)">Regular</text>
  <text style="stroke:none;fill:black;font-family:sans-serif;font-size:13;text-anchor:middle;" transform="matrix(1 0 0 1 1746.56 322)">Medium</text>
  <text style="stroke:none;fill:black;font-family:sans-serif;font-size:13;text-anchor:middle;" transform="matrix(1 0 0 1 2043.27 322)">Semibold</text>
  <text style="stroke:none;fill:black;font-family:sans-serif;font-size:13;text-anchor:middle;" transform="matrix(1 0 0 1 2339.98 322)">Bold</text>
  <text style="stroke:none;fill:black;font-family:sans-serif;font-size:13;text-anchor:middle;" transform="matrix(1 0 0 1 2636.69 322)">Heavy</text>
  <text style="stroke:none;fill:black;font-family:sans-serif;font-size:13;text-anchor:middle;" transform="matrix(1 0 0 1 2933.4 322)">Black</text>
  <line style="fill:none;stroke:black;opacity:1;stroke-width:0.5;" x1="263" x2="3036" y1="1903" y2="1903"/>
  <g transform="matrix(1 0 0 1 263 1933)">
   <path d="M9.24805 0.830078Q10.8691 0.830078 12.2949 0.214844Q13.7207-0.400391 14.8096-1.49414Q15.8984-2.58789 16.5186-4.01367Q17.1387-5.43945 17.1387-7.05078Q17.1387-8.66211 16.5186-10.0879Q15.8984-11.5137 14.8047-12.6074Q13.7109-13.7012 12.2852-14.3164Q10.8594-14.9316 9.23828-14.9316Q7.62695-14.9316 6.20117-14.3164Q4.77539-13.7012 3.69141-12.6074Q2.60742-11.5137 1.9873-10.0879Q1.36719-8.66211 1.36719-7.05078Q1.36719-5.43945 1.9873-4.01367Q2.60742-2.58789 3.69629-1.49414Q4.78516-0.400391 6.21094 0.214844Q7.63672 0.830078 9.24805 0.830078ZM9.24805-0.654297Q7.91992-0.654297 6.7627-1.14746Q5.60547-1.64062 4.73145-2.51953Q3.85742-3.39844 3.36426-4.56055Q2.87109-5.72266 2.87109-7.05078Q2.87109-8.37891 3.35938-9.54102Q3.84766-10.7031 4.72168-11.582Q5.5957-12.4609 6.75293-12.9541Q7.91016-13.4473 9.23828-13.4473Q10.5762-13.4473 11.7334-12.9541Q12.8906-12.4609 13.7695-11.582Q14.6484-10.7031 15.1465-9.54102Q15.6445-8.37891 15.6445-7.05078Q15.6445-5.72266 15.1514-4.56055Q14.6582-3.39844 13.7842-2.51953Q12.9102-1.64062 11.748-1.14746Q10.5859-0.654297 9.24805-0.654297ZM5.6543-7.05078Q5.6543-6.72852 5.85938-6.52832Q6.06445-6.32812 6.40625-6.32812L8.51562-6.32812L8.51562-4.20898Q8.51562-3.88672 8.71094-3.67676Q8.90625-3.4668 9.23828-3.4668Q9.56055-3.4668 9.77051-3.67676Q9.98047-3.88672 9.98047-4.20898L9.98047-6.32812L12.0898-6.32812Q12.4219-6.32812 12.627-6.52832Q12.832-6.72852 12.832-7.05078Q12.832-7.38281 12.627-7.58789Q12.4219-7.79297 12.0898-7.79297L9.98047-7.79297L9.98047-9.90234Q9.98047-10.2344 9.77051-10.4443Q9.56055-10.6543 9.23828-10.6543Q8.90625-10.6543 8.71094-10.4443Q8.51562-10.2344 8.51562-9.90234L8.51562-7.79297L6.40625-7.79297Q6.06445-7.79297 5.85938-7.58789Q5.6543-7.38281 5.6543-7.05078Z"/>
  </g>
  <g transform="matrix(1 0 0 1 281.867 1933)">
   <path d="M11.709 2.91016Q13.75 2.91016 15.5518 2.12891Q17.3535 1.34766 18.7305-0.0292969Q20.1074-1.40625 20.8887-3.20801Q21.6699-5.00977 21.6699-7.05078Q21.6699-9.0918 20.8887-10.8936Q20.1074-12.6953 18.7305-14.0723Q17.3535-15.4492 15.5469-16.2305Q13.7402-17.0117 11.6992-17.0117Q9.6582-17.0117 7.85645-16.2305Q6.05469-15.4492 4.68262-14.0723Q3.31055-12.6953 2.5293-10.8936Q1.74805-9.0918 1.74805-7.05078Q1.74805-5.00977 2.5293-3.20801Q3.31055-1.40625 4.6875-0.0292969Q6.06445 1.34766 7.86621 2.12891Q9.66797 2.91016 11.709 2.91016ZM11.709 1.25Q9.98047 1.25 8.47656 0.605469Q6.97266-0.0390625 5.83496-1.17676Q4.69727-2.31445 4.05762-3.81836Q3.41797-5.32227 3.41797-7.05078Q3.41797-8.7793 4.05762-10.2832Q4.69727-11.7871 5.83008-12.9297Q6.96289-14.0723 8.4668-14.7119Q9.9707-15.3516 11.6992-15.3516Q13.4277-15.3516 14.9316-14.7119Q16.4355-14.0723 17.5781-12.9297Q18.7207-11.7871 19.3652-10.2832Q20.0098-8.7793 20.0098-7.05078Q20.0098-5.32227 19.3701-3.81836Q18.7305-2.31445 17.5928-1.17676Q16.4551-0.0390625 14.9463 0.605469Q13.4375 1.25 11.709 1.25ZM7.17773-7.05078Q7.17773-6.69922 7.41211-6.47461Q7.64648-6.25 8.01758-6.25L10.8887-6.25L10.8887-3.36914Q10.8887-2.99805 11.1133-2.76855Q11.3379-2.53906 11.6895-2.53906Q12.0605-2.53906 12.29-2.76855Q12.5195-2.99805 12.5195-3.36914L12.5195-6.25L15.4004-6.25Q15.7715-6.25 16.001-6.47461Q16.2305-6.69922 16.2305-7.05078Q16.2305-7.42188 16.001-7.65137Q15.7715-7.88086 15.4004-7.88086L12.5195-7.88086L12.5195-10.752Q12.5195-11.1328 12.29-11.3623Q12.0605-11.5918 11.6895-11.5918Q11.3379-11.5918 11.1133-11.3574Q10.8887-11.123 10.8887-10.752L10.8887-7.88086L8.01758-7.88086Q7.63672-7.88086 7.40723-7.65137Q7.17773-7.42188 7.17773-7.05078Z"/>
  </g>
  <g transform="matrix(1 0 0 1 305.646 1933)">
   <path d="M14.9707 5.66406Q17.0605 5.66406 18.96 5.01465Q20.8594 4.36523 22.4512 3.19336Q24.043 2.02148 25.2197 0.429688Q26.3965-1.16211 27.0459-3.06641Q27.6953-4.9707 27.6953-7.05078Q27.6953-9.14062 27.0459-11.04Q26.3965-12.9395 25.2197-14.5312Q24.043-16.123 22.4512-17.2998Q20.8594-18.4766 18.9551-19.126Q17.0508-19.7754 14.9609-19.7754Q12.8711-19.7754 10.9717-19.126Q9.07227-18.4766 7.48535-17.2998Q5.89844-16.123 4.72168-14.5312Q3.54492-12.9395 2.90039-11.04Q2.25586-9.14062 2.25586-7.05078Q2.25586-4.9707 2.90527-3.06641Q3.55469-1.16211 4.72656 0.429688Q5.89844 2.02148 7.49023 3.19336Q9.08203 4.36523 10.9814 5.01465Q12.8809 5.66406 14.9707 5.66406ZM14.9707 3.84766Q13.1641 3.84766 11.5283 3.2959Q9.89258 2.74414 8.53516 1.74805Q7.17773 0.751953 6.17676-0.610352Q5.17578-1.97266 4.62891-3.6084Q4.08203-5.24414 4.08203-7.05078Q4.08203-8.86719 4.62891-10.5029Q5.17578-12.1387 6.17188-13.501Q7.16797-14.8633 8.52539-15.8594Q9.88281-16.8555 11.5186-17.4023Q13.1543-17.9492 14.9609-17.9492Q16.7773-17.9492 18.4131-17.4023Q20.0488-16.8555 21.4111-15.8594Q22.7734-14.8633 23.7695-13.501Q24.7656-12.1387 25.3174-10.5029Q25.8691-8.86719 25.8691-7.05078Q25.8789-5.24414 25.332-3.6084Q24.7852-1.97266 23.7842-0.610352Q22.7832 0.751953 21.4209 1.74805Q20.0586 2.74414 18.4229 3.2959Q16.7871 3.84766 14.9707 3.84766ZM9.19922-7.05078Q9.19922-6.66992 9.45801-6.4209Q9.7168-6.17188 10.1172-6.17188L14.0625-6.17188L14.0625-2.2168Q14.0625-1.81641 14.3115-1.55762Q14.5605-1.29883 14.9512-1.29883Q15.3516-1.29883 15.6104-1.55273Q15.8691-1.80664 15.8691-2.2168L15.8691-6.17188L19.8242-6.17188Q20.2246-6.17188 20.4785-6.4209Q20.7324-6.66992 20.7324-7.05078Q20.7324-7.46094 20.4785-7.71484Q20.2246-7.96875 19.8242-7.96875L15.8691-7.96875L15.8691-11.9141Q15.8691-12.3242 15.6104-12.583Q15.3516-12.8418 14.9512-12.8418Q14.5605-12.8418 14.3115-12.583Q14.0625-12.3242 14.0625-11.9141L14.0625-7.96875L10.1172-7.96875Q9.70703-7.96875 9.45312-7.71484Q9.19922-7.46094 9.19922-7.05078Z"/>
  </g>
  <text style="stroke:none;fill:black;font-family:sans-serif;font-size:13;font-weight:bold;" transform="matrix(1 0 0 1 263 1953)">Design Variations</text>
  <text style="stroke:none;fill:black;font-family:sans-serif;font-size:13;" transform="matrix(1 0 0 1 263 1971)">Symbols are supported in up to nine weights and three scales.</text>
  <text style="stroke:none;fill:black;font-family:sans-serif;font-size:13;" transform="matrix(1 0 0 1 263 1989)">For optimal layout with text and other symbols, vertically align</text>
  <text style="stroke:none;fill:black;font-family:sans-serif;font-size:13;" transform="matrix(1 0 0 1 263 2007)">symbols with the adjacent text.</text>
  <line style="fill:none;stroke:#00AEEF;stroke-width:0.5;opacity:1.0;" x1="776" x2="776" y1="1919" y2="1933"/>
  <g transform="matrix(1 0 0 1 776 1933)">
   <path d="M3.31055 0.15625Q3.70117 0.15625 3.91602-0.00976562Q4.13086-0.175781 4.26758-0.585938L5.52734-4.0332L11.2891-4.0332L12.5488-0.585938Q12.6855-0.175781 12.9004-0.00976562Q13.1152 0.15625 13.4961 0.15625Q13.8867 0.15625 14.1162-0.0585938Q14.3457-0.273438 14.3457-0.644531Q14.3457-0.869141 14.2383-1.17188L9.6582-13.3691Q9.48242-13.8184 9.17969-14.043Q8.87695-14.2676 8.4082-14.2676Q7.5-14.2676 7.17773-13.3789L2.59766-1.16211Q2.49023-0.859375 2.49023-0.634766Q2.49023-0.263672 2.70996-0.0537109Q2.92969 0.15625 3.31055 0.15625ZM6.00586-5.51758L8.37891-12.0898L8.42773-12.0898L10.8008-5.51758Z"/>
  </g>
  <line style="fill:none;stroke:#00AEEF;stroke-width:0.5;opacity:1.0;" x1="793.197" x2="793.197" y1="1919" y2="1933"/>
  <text style="stroke:none;fill:black;font-family:sans-serif;font-size:13;font-weight:bold;" transform="matrix(1 0 0 1 776 1953)">Margins</text>
  <text style="stroke:none;fill:black;font-family:sans-serif;font-size:13;" transform="matrix(1 0 0 1 776 1971)">Leading and trailing margins on the left and right side of each symbol</text>
  <text style="stroke:none;fill:black;font-family:sans-serif;font-size:13;" transform="matrix(1 0 0 1 776 1989)">can be adjusted by modifying the x-location of the margin guidelines.</text>
  <text style="stroke:none;fill:black;font-family:sans-serif;font-size:13;" transform="matrix(1 0 0 1 776 2007)">Modifications are automatically applied proportionally to all</text>
  <text style="stroke:none;fill:black;font-family:sans-serif;font-size:13;" transform="matrix(1 0 0 1 776 2025)">scales and weights.</text>
  <g transform="matrix(1 0 0 1 1289 1933)">
   <path d="M2.8418 1.86523L4.54102 3.57422Q5.18555 4.22852 5.90332 4.17969Q6.62109 4.13086 7.31445 3.35938L18.0078-8.42773L17.041-9.4043L6.42578 2.27539Q6.16211 2.57812 5.89355 2.61719Q5.625 2.65625 5.27344 2.30469L4.10156 1.14258Q3.75 0.791016 3.79395 0.522461Q3.83789 0.253906 4.14062-0.0195312L15.6152-10.8203L14.6387-11.7871L3.04688-0.898438Q2.30469-0.214844 2.25098 0.498047Q2.19727 1.21094 2.8418 1.86523ZM9.25781-16.3281Q8.94531-16.0254 8.90625-15.6348Q8.86719-15.2441 9.04297-14.9512Q9.21875-14.6777 9.55566-14.541Q9.89258-14.4043 10.3809-14.5215Q11.4746-14.7754 12.5977-14.7314Q13.7207-14.6875 14.7949-13.9844L14.209-12.5293Q13.9551-11.9043 14.0674-11.4404Q14.1797-10.9766 14.5801-10.5664L16.875-8.25195Q17.2363-7.88086 17.5781-7.82227Q17.9199-7.76367 18.3398-7.8418L19.4043-8.03711L20.0684-7.36328L20.0293-6.80664Q20-6.43555 20.1221-6.12305Q20.2441-5.81055 20.6055-5.44922L21.3672-4.70703Q21.7285-4.3457 22.1533-4.33105Q22.5781-4.31641 22.9297-4.66797L25.8398-7.58789Q26.1914-7.93945 26.1816-8.35449Q26.1719-8.76953 25.8105-9.13086L25.0391-9.89258Q24.6875-10.2539 24.3799-10.3857Q24.0723-10.5176 23.7109-10.4883L23.1348-10.4395L22.4902-11.0742L22.7344-12.1973Q22.832-12.6172 22.6953-12.9834Q22.5586-13.3496 22.1191-13.7891L19.9219-15.9766Q18.6719-17.2168 17.2607-17.8369Q15.8496-18.457 14.4189-18.4814Q12.9883-18.5059 11.665-17.959Q10.3418-17.4121 9.25781-16.3281ZM10.752-15.957Q11.6602-16.6211 12.7002-16.9043Q13.7402-17.1875 14.8047-17.085Q15.8691-16.9824 16.8701-16.5137Q17.8711-16.0449 18.7012-15.2051L21.1328-12.793Q21.3086-12.6172 21.3525-12.4512Q21.3965-12.2852 21.3379-12.0312L21.0156-10.5469L22.5195-9.0625L23.5059-9.12109Q23.6914-9.13086 23.7891-9.09668Q23.8867-9.0625 24.0332-8.91602L24.6094-8.33984L22.168-5.89844L21.5918-6.47461Q21.4453-6.62109 21.4062-6.71875Q21.3672-6.81641 21.377-7.01172L21.4453-7.98828L19.9512-9.47266L18.4277-9.21875Q18.1836-9.16992 18.042-9.2041Q17.9004-9.23828 17.7148-9.41406L15.7129-11.416Q15.5176-11.5918 15.4932-11.7529Q15.4688-11.9141 15.5859-12.1875L16.4648-14.2773Q15.293-15.3711 13.8281-15.791Q12.3633-16.2109 10.8398-15.7617Q10.7227-15.7324 10.6885-15.8057Q10.6543-15.8789 10.752-15.957Z"/>
  </g>
  <text style="stroke:none;fill:black;font-family:sans-serif;font-size:13;font-weight:bold;" transform="matrix(1 0 0 1 1289 1953)">Exporting</text>
  <text style="stroke:none;fill:black;font-family:sans-serif;font-size:13;" transform="matrix(1 0 0 1 1289 1971)">Symbols should be outlined when exporting to ensure the</text>
  <text style="stroke:none;fill:black;font-family:sans-serif;font-size:13;" transform="matrix(1 0 0 1 1289 1989)">design is preserved when submitting to Xcode.</text>
  <text id="template-version" style="stroke:none;fill:black;font-family:sans-serif;font-size:13;text-anchor:end;" transform="matrix(1 0 0 1 3036 1933)">Template v.3.0</text>
  <text style="stroke:none;fill:black;font-family:sans-serif;font-size:13;text-anchor:end;" transform="matrix(1 0 0 1 3036 1951)">Requires Xcode 13 or greater</text>
  <text id="descriptive-name" style="stroke:none;fill:black;font-family:sans-serif;font-size:13;text-anchor:end;" transform="matrix(1 0 0 1 3036 1969)">Generated from chevron.left.forwardslash.chevron.right</text>
  <text style="stroke:none;fill:black;font-family:sans-serif;font-size:13;text-anchor:end;" transform="matrix(1 0 0 1 3036 1987)">Typeset at 100 points</text>
  <text style="stroke:none;fill:black;font-family:sans-serif;font-size:13;" transform="matrix(1 0 0 1 263 726)">Small</text>
  <text style="stroke:none;fill:black;font-family:sans-serif;font-size:13;" transform="matrix(1 0 0 1 263 1156)">Medium</text>
  <text style="stroke:none;fill:black;font-family:sans-serif;font-size:13;" transform="matrix(1 0 0 1 263 1586)">Large</text>
 </g>
 <g id="Guides">
  <g id="H-reference" style="fill:#27AAE1;stroke:none;" transform="matrix(1 0 0 1 339 696)">
   <path d="M0.976562 0L3.66211 0L29.3457-67.1387L30.0293-67.1387L30.0293-70.459L28.125-70.459ZM11.6699-24.4629L46.9727-24.4629L46.2402-26.709L12.4512-26.709ZM55.127 0L57.7637 0L30.6152-70.459L29.4434-70.459L29.4434-67.1387Z"/>
  </g>
  <line id="Baseline-S" style="fill:none;stroke:#27AAE1;opacity:1;stroke-width:0.5;" x1="263" x2="3036" y1="696" y2="696"/>
  <line id="Capline-S" style="fill:none;stroke:#27AAE1;opacity:1;stroke-width:0.5;" x1="263" x2="3036" y1="625.541" y2="625.541"/>
  <g id="H-reference" style="fill:#27AAE1;stroke:none;" transform="matrix(1 0 0 1 339 1126)">
   <path d="M0.976562 0L3.66211 0L29.3457-67.1387L30.0293-67.1387L30.0293-70.459L28.125-70.459ZM11.6699-24.4629L46.9727-24.4629L46.2402-26.709L12.4512-26.709ZM55.127 0L57.7637 0L30.6152-70.459L29.4434-70.459L29.4434-67.1387Z"/>
  </g>
  <line id="Baseline-M" style="fill:none;stroke:#27AAE1;opacity:1;stroke-width:0.5;" x1="263" x2="3036" y1="1126" y2="1126"/>
  <line id="Capline-M" style="fill:none;stroke:#27AAE1;opacity:1;stroke-width:0.5;" x1="263" x2="3036" y1="1055.54" y2="1055.54"/>
  <g id="H-reference" style="fill:#27AAE1;stroke:none;" transform="matrix(1 0 0 1 339 1556)">
   <path d="M0.976562 0L3.66211 0L29.3457-67.1387L30.0293-67.1387L30.0293-70.459L28.125-70.459ZM11.6699-24.4629L46.9727-24.4629L46.2402-26.709L12.4512-26.709ZM55.127 0L57.7637 0L30.6152-70.459L29.4434-70.459L29.4434-67.1387Z"/>
  </g>
  <line id="Baseline-L" style="fill:none;stroke:#27AAE1;opacity:1;stroke-width:0.5;" x1="263" x2="3036" y1="1556" y2="1556"/>
  <line id="Capline-L" style="fill:none;stroke:#27AAE1;opacity:1;stroke-width:0.5;" x1="263" x2="3036" y1="1485.54" y2="1485.54"/>
  <line id="left-margin-Ultralight-S" style="fill:none;stroke:#00AEEF;stroke-width:0.5;opacity:1.0;" x1="500.361" x2="500.361" y1="600.785" y2="720.121"/>
  <line id="right-margin-Ultralight-S" style="fill:none;stroke:#00AEEF;stroke-width:0.5;opacity:1.0;" x1="619.062" x2="619.062" y1="600.785" y2="720.121"/>
  <line id="left-margin-Thin-S" style="fill:none;stroke:#00AEEF;stroke-width:0.5;opacity:1.0;" x1="795.949" x2="795.949" y1="600.785" y2="720.121"/>
  <line id="right-margin-Thin-S" style="fill:none;stroke:#00AEEF;stroke-width:0.5;opacity:1.0;" x1="916.896" x2="916.896" y1="600.785" y2="720.121"/>
  <line id="left-margin-Light-S" style="fill:none;stroke:#00AEEF;stroke-width:0.5;opacity:1.0;" x1="1090.49" x2="1090.49" y1="600.785" y2="720.121"/>
  <line id="right-margin-Light-S" style="fill:none;stroke:#00AEEF;stroke-width:0.5;opacity:1.0;" x1="1215.78" x2="1215.78" y1="600.785" y2="720.121"/>
  <line id="left-margin-Regular-S" style="fill:none;stroke:#00AEEF;stroke-width:0.5;opacity:1.0;" x1="1385.56" x2="1385.56" y1="600.785" y2="720.121"/>
  <line id="right-margin-Regular-S" style="fill:none;stroke:#00AEEF;stroke-width:0.5;opacity:1.0;" x1="1514.13" x2="1514.13" y1="600.785" y2="720.121"/>
  <line id="left-margin-Medium-S" style="fill:none;stroke:#00AEEF;stroke-width:0.5;opacity:1.0;" x1="1680.64" x2="1680.64" y1="600.785" y2="720.121"/>
  <line id="right-margin-Medium-S" style="fill:none;stroke:#00AEEF;stroke-width:0.5;opacity:1.0;" x1="1812.47" x2="1812.47" y1="600.785" y2="720.121"/>
  <line id="left-margin-Semibold-S" style="fill:none;stroke:#00AEEF;stroke-width:0.5;opacity:1.0;" x1="1976.08" x2="1976.08" y1="600.785" y2="720.121"/>
  <line id="right-margin-Semibold-S" style="fill:none;stroke:#00AEEF;stroke-width:0.5;opacity:1.0;" x1="2110.45" x2="2110.45" y1="600.785" y2="720.121"/>
  <line id="left-margin-Bold-S" style="fill:none;stroke:#00AEEF;stroke-width:0.5;opacity:1.0;" x1="2271.11" x2="2271.11" y1="600.785" y2="720.121"/>
  <line id="right-margin-Bold-S" style="fill:none;stroke:#00AEEF;stroke-width:0.5;opacity:1.0;" x1="2408.85" x2="2408.85" y1="600.785" y2="720.121"/>
  <line id="left-margin-Heavy-S" style="fill:none;stroke:#00AEEF;stroke-width:0.5;opacity:1.0;" x1="2565.42" x2="2565.42" y1="600.785" y2="720.121"/>
  <line id="right-margin-Heavy-S" style="fill:none;stroke:#00AEEF;stroke-width:0.5;opacity:1.0;" x1="2707.95" x2="2707.95" y1="600.785" y2="720.121"/>
  <line id="left-margin-Black-S" style="fill:none;stroke:#00AEEF;stroke-width:0.5;opacity:1.0;" x1="2859.96" x2="2859.96" y1="600.785" y2="720.121"/>
  <line id="right-margin-Black-S" style="fill:none;stroke:#00AEEF;stroke-width:0.5;opacity:1.0;" x1="3006.84" x2="3006.84" y1="600.785" y2="720.121"/>
  <line id="left-margin-Ultralight-M" style="fill:none;stroke:#00AEEF;stroke-width:0.5;opacity:1.0;" x1="484.394" x2="484.394" y1="1030.79" y2="1150.12"/>
  <line id="right-margin-Ultralight-M" style="fill:none;stroke:#00AEEF;stroke-width:0.5;opacity:1.0;" x1="635.028" x2="635.028" y1="1030.79" y2="1150.12"/>
  <line id="left-margin-Thin-M" style="fill:none;stroke:#00AEEF;stroke-width:0.5;opacity:1.0;" x1="779.835" x2="779.835" y1="1030.79" y2="1150.12"/>
  <line id="right-margin-Thin-M" style="fill:none;stroke:#00AEEF;stroke-width:0.5;opacity:1.0;" x1="933.009" x2="933.009" y1="1030.79" y2="1150.12"/>
  <line id="left-margin-Light-M" style="fill:none;stroke:#00AEEF;stroke-width:0.5;opacity:1.0;" x1="1074.11" x2="1074.11" y1="1030.79" y2="1150.12"/>
  <line id="right-margin-Light-M" style="fill:none;stroke:#00AEEF;stroke-width:0.5;opacity:1.0;" x1="1232.16" x2="1232.16" y1="1030.79" y2="1150.12"/>
  <line id="left-margin-Regular-M" style="fill:none;stroke:#00AEEF;stroke-width:0.5;opacity:1.0;" x1="1368.96" x2="1368.96" y1="1030.79" y2="1150.12"/>
  <line id="right-margin-Regular-M" style="fill:none;stroke:#00AEEF;stroke-width:0.5;opacity:1.0;" x1="1530.73" x2="1530.73" y1="1030.79" y2="1150.12"/>
  <line id="left-margin-Medium-M" style="fill:none;stroke:#00AEEF;stroke-width:0.5;opacity:1.0;" x1="1663.52" x2="1663.52" y1="1030.79" y2="1150.12"/>
  <line id="right-margin-Medium-M" style="fill:none;stroke:#00AEEF;stroke-width:0.5;opacity:1.0;" x1="1829.59" x2="1829.59" y1="1030.79" y2="1150.12"/>
  <line id="left-margin-Semibold-M" style="fill:none;stroke:#00AEEF;stroke-width:0.5;opacity:1.0;" x1="1958.6" x2="1958.6" y1="1030.79" y2="1150.12"/>
  <line id="right-margin-Semibold-M" style="fill:none;stroke:#00AEEF;stroke-width:0.5;opacity:1.0;" x1="2127.93" x2="2127.93" y1="1030.79" y2="1150.12"/>
  <line id="left-margin-Bold-M" style="fill:none;stroke:#00AEEF;stroke-width:0.5;opacity:1.0;" x1="2253.14" x2="2253.14" y1="1030.79" y2="1150.12"/>
  <line id="right-margin-Bold-M" style="fill:none;stroke:#00AEEF;stroke-width:0.5;opacity:1.0;" x1="2426.82" x2="2426.82" y1="1030.79" y2="1150.12"/>
  <line id="left-margin-Heavy-M" style="fill:none;stroke:#00AEEF;stroke-width:0.5;opacity:1.0;" x1="2546.72" x2="2546.72" y1="1030.79" y2="1150.12"/>
  <line id="right-margin-Heavy-M" style="fill:none;stroke:#00AEEF;stroke-width:0.5;opacity:1.0;" x1="2726.65" x2="2726.65" y1="1030.79" y2="1150.12"/>
  <line id="left-margin-Black-M" style="fill:none;stroke:#00AEEF;stroke-width:0.5;opacity:1.0;" x1="2840.63" x2="2840.63" y1="1030.79" y2="1150.12"/>
  <line id="right-margin-Black-M" style="fill:none;stroke:#00AEEF;stroke-width:0.5;opacity:1.0;" x1="3026.17" x2="3026.17" y1="1030.79" y2="1150.12"/>
  <line id="left-margin-Ultralight-L" style="fill:none;stroke:#00AEEF;stroke-width:0.5;opacity:1.0;" x1="463.056" x2="463.056" y1="1460.79" y2="1580.12"/>
  <line id="right-margin-Ultralight-L" style="fill:none;stroke:#00AEEF;stroke-width:0.5;opacity:1.0;" x1="656.366" x2="656.366" y1="1460.79" y2="1580.12"/>
  <line id="left-margin-Thin-L" style="fill:none;stroke:#00AEEF;stroke-width:0.5;opacity:1.0;" x1="758.375" x2="758.375" y1="1460.79" y2="1580.12"/>
  <line id="right-margin-Thin-L" style="fill:none;stroke:#00AEEF;stroke-width:0.5;opacity:1.0;" x1="954.469" x2="954.469" y1="1460.79" y2="1580.12"/>
  <line id="left-margin-Light-L" style="fill:none;stroke:#00AEEF;stroke-width:0.5;opacity:1.0;" x1="1052.35" x2="1052.35" y1="1460.79" y2="1580.12"/>
  <line id="right-margin-Light-L" style="fill:none;stroke:#00AEEF;stroke-width:0.5;opacity:1.0;" x1="1253.91" x2="1253.91" y1="1460.79" y2="1580.12"/>
  <line id="left-margin-Regular-L" style="fill:none;stroke:#00AEEF;stroke-width:0.5;opacity:1.0;" x1="1346.99" x2="1346.99" y1="1460.79" y2="1580.12"/>
  <line id="right-margin-Regular-L" style="fill:none;stroke:#00AEEF;stroke-width:0.5;opacity:1.0;" x1="1552.7" x2="1552.7" y1="1460.79" y2="1580.12"/>
  <line id="left-margin-Medium-L" style="fill:none;stroke:#00AEEF;stroke-width:0.5;opacity:1.0;" x1="1641.16" x2="1641.16" y1="1460.79" y2="1580.12"/>
  <line id="right-margin-Medium-L" style="fill:none;stroke:#00AEEF;stroke-width:0.5;opacity:1.0;" x1="1851.95" x2="1851.95" y1="1460.79" y2="1580.12"/>
  <line id="left-margin-Semibold-L" style="fill:none;stroke:#00AEEF;stroke-width:0.5;opacity:1.0;" x1="1935.94" x2="1935.94" y1="1460.79" y2="1580.12"/>
  <line id="right-margin-Semibold-L" style="fill:none;stroke:#00AEEF;stroke-width:0.5;opacity:1.0;" x1="2150.59" x2="2150.59" y1="1460.79" y2="1580.12"/>
  <line id="left-margin-Bold-L" style="fill:none;stroke:#00AEEF;stroke-width:0.5;opacity:1.0;" x1="2230.07" x2="2230.07" y1="1460.79" y2="1580.12"/>
  <line id="right-margin-Bold-L" style="fill:none;stroke:#00AEEF;stroke-width:0.5;opacity:1.0;" x1="2449.89" x2="2449.89" y1="1460.79" y2="1580.12"/>
  <line id="left-margin-Heavy-L" style="fill:none;stroke:#00AEEF;stroke-width:0.5;opacity:1.0;" x1="2523.07" x2="2523.07" y1="1460.79" y2="1580.12"/>
  <line id="right-margin-Heavy-L" style="fill:none;stroke:#00AEEF;stroke-width:0.5;opacity:1.0;" x1="2750.31" x2="2750.31" y1="1460.79" y2="1580.12"/>
  <line id="left-margin-Black-L" style="fill:none;stroke:#00AEEF;stroke-width:0.5;opacity:1.0;" x1="2816.46" x2="2816.46" y1="1460.79" y2="1580.12"/>
  <line id="right-margin-Black-L" style="fill:none;stroke:#00AEEF;stroke-width:0.5;opacity:1.0;" x1="3050.34" x2="3050.34" y1="1460.79" y2="1580.12"/>
 </g>
 <g id="Symbols">
  <g id="Black-L" transform="matrix(1 0 0 1 2816.46 1556)">
   <path d="M16.0645-35.2539Q16.0156-32.6172 17.2363-29.9072Q18.457-27.1973 20.8984-25L56.9336 7.51953Q61.2793 11.4258 66.5283 11.2305Q71.7773 11.0352 75.4883 6.88477Q79.248 2.68555 78.9551-2.56348Q78.6621-7.8125 74.3652-11.6699L48.2422-35.2539L74.3652-58.8379Q78.6621-62.7441 78.9551-67.9688Q79.248-73.1934 75.4883-77.3926Q71.7773-81.5918 66.5283-81.7627Q61.2793-81.9336 56.9336-78.0762L20.8984-45.5566Q18.457-43.3594 17.2363-40.6494Q16.0156-37.9395 16.0645-35.2539ZM98.4375 28.3691Q103.857 29.9316 108.423 27.3438Q112.988 24.7559 114.648 19.1895L144.336-82.4707Q145.947-87.9395 143.457-92.5293Q140.967-97.1191 135.547-98.6816Q130.176-100.244 125.635-97.7295Q121.094-95.2148 119.385-89.502L89.7949 11.9141Q88.1348 17.5293 90.5518 22.1436Q92.9688 26.7578 98.4375 28.3691ZM217.822-35.2539Q217.871-37.9395 216.65-40.6494Q215.43-43.3594 212.988-45.5566L176.953-78.0762Q172.607-81.9336 167.358-81.7627Q162.109-81.5918 158.398-77.3926Q154.639-73.1934 154.932-67.9688Q155.225-62.7441 159.521-58.8379L185.596-35.2539L159.521-11.6699Q155.225-7.8125 154.932-2.56348Q154.639 2.68555 158.398 6.88477Q162.109 11.0352 167.358 11.2305Q172.607 11.4258 176.953 7.51953L212.988-25Q215.43-27.1973 216.65-29.9072Q217.871-32.6172 217.822-35.2539Z"/>
  </g>
  <g id="Heavy-L" transform="matrix(1 0 0 1 2523.07 1556)">
   <path d="M16.0645-35.2539Q16.0156-33.0078 17.0654-30.6885Q18.1152-28.3691 20.2148-26.4648L57.8125 7.4707Q61.5234 10.8398 66.0156 10.6689Q70.5078 10.498 73.6816 6.98242Q76.8555 3.41797 76.5869-1.07422Q76.3184-5.56641 72.7051-8.83789L43.457-35.2539L72.7051-61.6699Q76.3184-64.9902 76.5869-69.458Q76.8555-73.9258 73.6816-77.4902Q70.5078-81.0547 66.0156-81.2012Q61.5234-81.3477 57.8125-78.0273L20.2148-44.0918Q18.1152-42.1875 17.0654-39.8682Q16.0156-37.5488 16.0645-35.2539ZM95.4102 27.3438Q100.049 28.6621 103.931 26.4404Q107.812 24.2188 109.277 19.4824L139.404-83.8867Q140.771-88.5254 138.672-92.4072Q136.572-96.2891 131.934-97.6562Q127.344-98.9746 123.486-96.8506Q119.629-94.7266 118.115-89.7949L88.0859 13.2812Q86.6699 18.0664 88.6963 22.0215Q90.7227 25.9766 95.4102 27.3438ZM211.182-35.2539Q211.23-37.5488 210.181-39.8682Q209.131-42.1875 207.031-44.0918L169.434-78.0273Q165.674-81.3477 161.206-81.2012Q156.738-81.0547 153.564-77.4902Q150.391-73.9258 150.635-69.458Q150.879-64.9902 154.59-61.6699L183.74-35.2539L154.59-8.83789Q150.879-5.56641 150.635-1.07422Q150.391 3.41797 153.564 6.98242Q156.738 10.498 161.206 10.6689Q165.674 10.8398 169.434 7.4707L207.031-26.4648Q209.131-28.3691 210.181-30.6885Q211.23-33.0078 211.182-35.2539Z"/>
  </g>
  <g id="Bold-L" transform="matrix(1 0 0 1 2230.07 1556)">
   <path d="M16.0645-35.2539Q16.0645-33.3984 16.8945-31.5186Q17.7246-29.6387 19.4336-28.125L58.8379 7.42188Q61.8652 10.1562 65.4785 10.0586Q69.0918 9.96094 71.6309 7.08008Q74.2188 4.19922 73.9746 0.561523Q73.7305-3.07617 70.8008-5.71289L38.1348-35.2539L70.8008-64.8438Q73.7305-67.4805 73.9746-71.1182Q74.2188-74.7559 71.6309-77.5879Q69.0918-80.4688 65.4785-80.5664Q61.8652-80.6641 58.8379-77.9785L19.4336-42.4316Q17.7246-40.918 16.8945-39.0381Q16.0645-37.1582 16.0645-35.2539ZM91.9922 26.1719Q95.8008 27.2461 98.9502 25.4395Q102.1 23.6328 103.223 19.7754L133.936-85.4492Q135.01-89.1602 133.325-92.2852Q131.641-95.4102 127.881-96.4844Q124.17-97.5586 121.069-95.874Q117.969-94.1895 116.748-90.0879L86.1816 14.7949Q85.0098 18.7012 86.5967 21.8994Q88.1836 25.0977 91.9922 26.1719ZM203.76-35.2539Q203.76-37.1582 202.93-39.0381Q202.1-40.918 200.391-42.4316L160.986-77.9785Q157.959-80.6641 154.346-80.5664Q150.732-80.4688 148.193-77.5879Q145.605-74.7559 145.85-71.1182Q146.094-67.4805 149.023-64.8438L181.689-35.2539L149.023-5.71289Q146.094-3.07617 145.85 0.561523Q145.605 4.19922 148.193 7.08008Q150.732 9.96094 154.346 10.0586Q157.959 10.1562 160.986 7.42188L200.391-28.125Q202.1-29.6387 202.93-31.5186Q203.76-33.3984 203.76-35.2539Z"/>
  </g>
  <g id="Semibold-L" transform="matrix(1 0 0 1 1935.94 1556)">
   <path d="M16.0645-35.2539Q16.0645-33.6914 16.7725-32.1045Q17.4805-30.5176 18.8477-29.248L59.5215 7.37305Q62.0605 9.7168 65.0879 9.61914Q68.1152 9.52148 70.2148 7.12891Q72.3633 4.73633 72.1436 1.70898Q71.9238-1.31836 69.4824-3.51562L34.4238-35.2539L69.4824-66.9922Q71.9238-69.1895 72.1436-72.2412Q72.3633-75.293 70.2148-77.6367Q68.1152-80.0781 65.0879-80.1514Q62.0605-80.2246 59.5215-77.9297L18.8477-41.2598Q17.4805-40.0391 16.7725-38.4521Q16.0645-36.8652 16.0645-35.2539ZM89.6484 25.3906Q92.8223 26.2207 95.459 24.7314Q98.0957 23.2422 99.0723 19.9707L130.127-86.5234Q131.006-89.5508 129.614-92.1631Q128.223-94.7754 125.098-95.6543Q121.973-96.5332 119.385-95.166Q116.797-93.7988 115.771-90.2832L84.8145 15.8203Q83.8867 19.0918 85.1562 21.7773Q86.4258 24.4629 89.6484 25.3906ZM198.584-35.2539Q198.633-36.8652 197.925-38.4521Q197.217-40.0391 195.801-41.2598L155.176-77.9297Q152.637-80.2246 149.609-80.1514Q146.582-80.0781 144.434-77.6367Q142.334-75.293 142.529-72.2412Q142.725-69.1895 145.215-66.9922L180.225-35.2539L145.215-3.51562Q142.725-1.31836 142.529 1.70898Q142.334 4.73633 144.434 7.12891Q146.582 9.52148 149.609 9.61914Q152.637 9.7168 155.176 7.37305L195.801-29.248Q197.217-30.5176 197.925-32.1045Q198.633-33.6914 198.584-35.2539Z"/>
  </g>
  <g id="Medium-L" transform="matrix(1 0 0 1 1641.16 1556)">
   <path d="M16.0645-35.2539Q16.0645-33.8867 16.6504-32.5439Q17.2363-31.2012 18.457-30.127L60.0098 7.37305Q62.207 9.32617 64.7949 9.27734Q67.3828 9.22852 69.1406 7.22656Q70.9473 5.17578 70.752 2.58789Q70.5566 0 68.5059-1.85547L31.6406-35.2539L68.5059-68.6523Q70.5566-70.5078 70.752-73.1201Q70.9473-75.7324 69.1406-77.7344Q67.3828-79.7363 64.7949-79.7852Q62.207-79.834 60.0098-77.9297L18.457-40.3809Q17.2363-39.3555 16.6504-38.0127Q16.0645-36.6699 16.0645-35.2539ZM87.8906 24.7559Q90.625 25.4883 92.8467 24.1943Q95.0684 22.9004 95.8984 20.166L127.295-87.3047Q128.027-89.8926 126.855-92.1143Q125.684-94.3359 122.998-95.0195Q120.264-95.8008 118.091-94.6533Q115.918-93.5059 115.039-90.4785L83.8379 16.6504Q83.0078 19.4336 84.0332 21.7041Q85.0586 23.9746 87.8906 24.7559ZM194.727-35.2539Q194.727-36.6699 194.116-38.0127Q193.506-39.3555 192.334-40.3809L150.781-77.9297Q148.584-79.834 146.021-79.7852Q143.457-79.7363 141.602-77.7344Q139.844-75.7324 140.015-73.1201Q140.186-70.5078 142.285-68.6523L179.15-35.2539L142.285-1.85547Q140.186 0 140.015 2.58789Q139.844 5.17578 141.602 7.22656Q143.457 9.22852 146.021 9.27734Q148.584 9.32617 150.781 7.37305L192.334-30.127Q193.506-31.2012 194.116-32.5439Q194.727-33.8867 194.727-35.2539Z"/>
  </g>
  <g id="Regular-L" transform="matrix(1 0 0 1 1346.99 1556)">
   <path d="M16.0645-35.2539Q16.0645-34.1797 16.5283-33.1299Q16.9922-32.0801 17.9199-31.25L60.6934 7.32422Q62.4023 8.88672 64.4043 8.8623Q66.4062 8.83789 67.7734 7.27539Q69.1406 5.71289 68.9697 3.71094Q68.7988 1.70898 67.2363 0.292969L27.9785-35.2539L67.2363-70.8008Q68.7988-72.2168 68.9697-74.2432Q69.1406-76.2695 67.7734-77.7832Q66.4062-79.3457 64.4043-79.3701Q62.4023-79.3945 60.6934-77.8809L17.9199-39.2578Q16.9922-38.4766 16.5283-37.4268Q16.0645-36.377 16.0645-35.2539ZM85.5469 23.9746Q87.6953 24.5117 89.4287 23.5107Q91.1621 22.5098 91.7969 20.3613L123.535-88.3789Q124.072-90.332 123.193-92.0166Q122.314-93.7012 120.215-94.2383Q118.115-94.8242 116.455-93.9697Q114.795-93.1152 114.062-90.6738L82.5195 17.6758Q81.8848 19.8242 82.6172 21.6064Q83.3496 23.3887 85.5469 23.9746ZM189.648-35.2539Q189.648-36.377 189.185-37.4268Q188.721-38.4766 187.793-39.2578L145.02-77.8809Q143.311-79.3945 141.333-79.3701Q139.355-79.3457 137.939-77.7832Q136.572-76.2695 136.743-74.2432Q136.914-72.2168 138.525-70.8008L177.734-35.2539L138.525 0.292969Q136.914 1.70898 136.743 3.71094Q136.572 5.71289 137.939 7.27539Q139.355 8.83789 141.333 8.8623Q143.311 8.88672 145.02 7.32422L187.793-31.25Q188.721-32.0801 189.185-33.1299Q189.648-34.1797 189.648-35.2539Z"/>
  </g>
  <g id="Light-L" transform="matrix(1 0 0 1 1052.35 1556)">
   <path d="M16.0645-35.2539Q16.0645-34.4727 16.4062-33.667Q16.748-32.8613 17.4316-32.2754L61.1816 7.17773Q62.4512 8.34961 63.9648 8.3252Q65.4785 8.30078 66.5039 7.12891Q67.4805 5.95703 67.3584 4.44336Q67.2363 2.92969 66.0645 1.9043L25.0488-35.2539L66.0645-72.4121Q67.2363-73.4863 67.3584-75Q67.4805-76.5137 66.5039-77.6367Q65.4785-78.8086 63.9648-78.833Q62.4512-78.8574 61.1816-77.7344L17.4316-38.2324Q16.748-37.6953 16.4062-36.8896Q16.0645-36.084 16.0645-35.2539ZM83.3984 23.6328Q85.0098 24.0234 86.3037 23.291Q87.5977 22.5586 88.0859 20.9473L120.264-89.4043Q120.703-90.8691 120.044-92.1387Q119.385-93.4082 117.822-93.8477Q116.26-94.2871 115.015-93.6523Q113.77-93.0176 113.184-91.2109L81.1035 18.9453Q80.6641 20.5078 81.2256 21.8506Q81.7871 23.1934 83.3984 23.6328ZM185.498-35.2539Q185.498-36.084 185.156-36.8896Q184.814-37.6953 184.131-38.2324L140.381-77.7344Q139.111-78.8574 137.622-78.833Q136.133-78.8086 135.107-77.6367Q134.082-76.5137 134.204-75Q134.326-73.4863 135.547-72.4121L176.562-35.2539L135.547 1.9043Q134.326 2.92969 134.204 4.44336Q134.082 5.95703 135.107 7.12891Q136.133 8.30078 137.622 8.3252Q139.111 8.34961 140.381 7.17773L184.131-32.2754Q184.814-32.8613 185.156-33.667Q185.498-34.4727 185.498-35.2539Z"/>
  </g>
  <g id="Thin-L" transform="matrix(1 0 0 1 758.375 1556)">
   <path d="M16.0645-35.2539Q16.0645-34.8145 16.2598-34.375Q16.4551-33.9355 16.7969-33.5938L61.8164 7.03125Q62.5 7.61719 63.3545 7.56836Q64.209 7.51953 64.7949 6.93359Q65.332 6.29883 65.2588 5.44434Q65.1855 4.58984 64.5508 4.05273L21.1426-35.2539L64.5508-74.6094Q65.1855-75.1465 65.2588-76.001Q65.332-76.8555 64.7949-77.4902Q64.209-78.0762 63.3545-78.125Q62.5-78.1738 61.8164-77.5391L16.7969-36.9141Q16.4551-36.6211 16.2598-36.1816Q16.0645-35.7422 16.0645-35.2539ZM80.5664 23.1445Q81.4453 23.3887 82.1777 22.9736Q82.9102 22.5586 83.1543 21.6797L115.967-90.8203Q116.211-91.6504 115.845-92.3584Q115.479-93.0664 114.648-93.3105Q113.77-93.5547 113.062-93.2129Q112.354-92.8711 112.061-91.8457L79.2969 20.6055Q79.0527 21.4355 79.3945 22.1924Q79.7363 22.9492 80.5664 23.1445ZM180.029-35.2539Q180.029-35.7422 179.834-36.1816Q179.639-36.6211 179.297-36.9141L134.277-77.5391Q133.594-78.1738 132.739-78.125Q131.885-78.0762 131.348-77.4902Q130.811-76.8555 130.884-76.001Q130.957-75.1465 131.543-74.6094L175-35.2539L131.543 4.05273Q130.957 4.58984 130.884 5.44434Q130.811 6.29883 131.348 6.93359Q131.885 7.51953 132.739 7.56836Q133.594 7.61719 134.277 7.03125L179.297-33.5938Q179.639-33.9355 179.834-34.375Q180.029-34.8145 180.029-35.2539Z"/>
  </g>
  <g id="Ultralight-L" transform="matrix(1 0 0 1 463.056 1556)">
   <path d="M16.0645-35.2539Q16.0645-35.0098 16.1865-34.7412Q16.3086-34.4727 16.4551-34.2773L62.1582 6.93359Q62.5488 7.27539 63.0615 7.22656Q63.5742 7.17773 63.916 6.83594Q64.209 6.49414 64.1602 5.95703Q64.1113 5.41992 63.7695 5.17578L19.1406-35.2539L63.7695-75.6836Q64.1113-75.9766 64.1602-76.4893Q64.209-77.002 63.916-77.3926Q63.5742-77.7344 63.0615-77.7588Q62.5488-77.7832 62.1582-77.4414L16.4551-36.2305Q16.3086-36.084 16.1865-35.8154Q16.0645-35.5469 16.0645-35.2539ZM79.1504 22.9492Q79.5898 23.0469 80.0293 22.8271Q80.4688 22.6074 80.6152 22.0703L113.77-91.5039Q113.916-91.9922 113.696-92.4316Q113.477-92.8711 112.988-93.0664Q112.5-93.2129 112.085-92.9932Q111.67-92.7734 111.475-92.2363L78.3203 21.4355Q78.2227 21.9238 78.4424 22.3633Q78.6621 22.8027 79.1504 22.9492ZM177.246-35.2539Q177.246-35.5469 177.124-35.8154Q177.002-36.084 176.855-36.2305L131.152-77.4414Q130.762-77.7832 130.249-77.7588Q129.736-77.7344 129.395-77.3926Q129.102-77.002 129.15-76.4893Q129.199-75.9766 129.541-75.6836L174.17-35.2539L129.541 5.17578Q129.199 5.41992 129.15 5.95703Q129.102 6.49414 129.395 6.83594Q129.736 7.17773 130.249 7.22656Q130.762 7.27539 131.152 6.93359L176.855-34.2773Q177.002-34.4727 177.124-34.7412Q177.246-35.0098 177.246-35.2539Z"/>
  </g>
  <g id="Black-M" transform="matrix(1 0 0 1 2840.63 1126)">
   <path d="M12.4512-35.2539Q12.4023-32.959 13.4521-30.6396Q14.502-28.3203 16.6016-26.3672L43.5059-2.09961Q47.2656 1.26953 51.8311 1.07422Q56.3965 0.878906 59.6191-2.73438Q62.8906-6.39648 62.6465-10.9375Q62.4023-15.4785 58.6426-18.8477L40.4785-35.2539L58.6426-51.6602Q62.4023-55.0781 62.6465-59.5947Q62.8906-64.1113 59.6191-67.7734Q56.3965-71.3867 51.8311-71.582Q47.2656-71.7773 43.5059-68.4082L16.6016-44.1406Q14.502-42.2363 13.4521-39.8926Q12.4023-37.5488 12.4512-35.2539ZM78.1738 14.7949Q82.8613 16.2109 86.8408 13.9648Q90.8203 11.7188 92.2363 6.88477L114.941-70.9961Q116.406-75.7812 114.233-79.7852Q112.061-83.7891 107.373-85.1562Q102.686-86.5234 98.7061-84.3018Q94.7266-82.0801 93.3105-77.2461L70.6055 0.585938Q69.1406 5.41992 71.3135 9.42383Q73.4863 13.4277 78.1738 14.7949ZM173.096-35.2539Q173.145-37.5488 172.07-39.8926Q170.996-42.2363 168.896-44.1406L142.041-68.4082Q138.281-71.7773 133.716-71.582Q129.15-71.3867 125.928-67.7734Q122.656-64.1113 122.9-59.5947Q123.145-55.0781 126.855-51.6602L145.068-35.2539L126.855-18.8477Q123.145-15.4785 122.9-10.9375Q122.656-6.39648 125.928-2.73438Q129.15 0.878906 133.716 1.07422Q138.281 1.26953 142.041-2.09961L168.896-26.3672Q170.996-28.3203 172.07-30.6396Q173.145-32.959 173.096-35.2539Z"/>
  </g>
  <g id="Heavy-M" transform="matrix(1 0 0 1 2546.72 1126)">
   <path d="M12.4512-35.2539Q12.4023-33.252 13.3057-31.25Q14.209-29.248 16.0156-27.5879L44.2871-2.09961Q47.5098 0.78125 51.4404 0.634766Q55.3711 0.488281 58.1055-2.58789Q60.9375-5.76172 60.6934-9.66797Q60.4492-13.5742 57.2266-16.4551L36.4258-35.2539L57.2266-54.0527Q60.4492-56.9824 60.6934-60.8643Q60.9375-64.7461 58.1055-67.9199Q55.3711-70.9961 51.4404-71.1426Q47.5098-71.2891 44.2871-68.4082L16.0156-42.9199Q14.209-41.2598 13.3057-39.2578Q12.4023-37.2559 12.4512-35.2539ZM75.6836 13.8672Q79.6875 15.0879 83.1055 13.1348Q86.5234 11.1816 87.7441 7.03125L110.84-72.1191Q112.061-76.2207 110.229-79.6387Q108.398-83.0566 104.346-84.2285Q100.293-85.4004 96.8994-83.5205Q93.5059-81.6406 92.2852-77.3926L69.2383 1.61133Q67.9688 5.81055 69.7754 9.25293Q71.582 12.6953 75.6836 13.8672ZM167.48-35.2539Q167.529-37.2559 166.602-39.2578Q165.674-41.2598 163.867-42.9199L135.645-68.4082Q132.422-71.2891 128.516-71.1426Q124.609-70.9961 121.826-67.9199Q118.994-64.7461 119.238-60.8643Q119.482-56.9824 122.656-54.0527L143.506-35.2539L122.656-16.4551Q119.482-13.5742 119.238-9.66797Q118.994-5.76172 121.826-2.58789Q124.609 0.488281 128.516 0.634766Q132.422 0.78125 135.645-2.09961L163.867-27.5879Q165.674-29.248 166.602-31.25Q167.529-33.252 167.48-35.2539Z"/>
  </g>
  <g id="Bold-M" transform="matrix(1 0 0 1 2253.14 1126)">
   <path d="M12.4512-35.2539Q12.4512-33.5938 13.1836-31.958Q13.916-30.3223 15.3809-29.0039L45.166-2.14844Q47.8027 0.292969 51.001 0.170898Q54.1992 0.0488281 56.4453-2.49023Q58.7402-5.0293 58.5205-8.22754Q58.3008-11.4258 55.7129-13.7695L31.9336-35.2539L55.7129-56.7871Q58.3008-59.1309 58.5205-62.3291Q58.7402-65.5273 56.4453-68.0664Q54.1992-70.5566 51.001-70.6787Q47.8027-70.8008 45.166-68.4082L15.3809-41.5527Q13.916-40.2344 13.1836-38.5742Q12.4512-36.9141 12.4512-35.2539ZM72.8516 12.8418Q76.1719 13.8184 78.9551 12.207Q81.7383 10.5957 82.7637 7.22656L106.25-73.4375Q107.275-76.709 105.786-79.4922Q104.297-82.2754 100.977-83.2031Q97.6562-84.1309 94.8975-82.6172Q92.1387-81.1035 91.1133-77.5879L67.6758 2.83203Q66.6504 6.25 68.0664 9.05762Q69.4824 11.8652 72.8516 12.8418ZM161.23-35.2539Q161.23-36.9141 160.498-38.5742Q159.766-40.2344 158.301-41.5527L128.564-68.4082Q125.879-70.8008 122.681-70.6787Q119.482-70.5566 117.236-68.0664Q114.941-65.5273 115.161-62.3291Q115.381-59.1309 117.969-56.7871L141.748-35.2539L117.969-13.7695Q115.381-11.4258 115.161-8.22754Q114.941-5.0293 117.236-2.49023Q119.482 0.0488281 122.681 0.170898Q125.879 0.292969 128.564-2.14844L158.301-29.0039Q159.766-30.3223 160.498-31.958Q161.23-33.5938 161.23-35.2539Z"/>
  </g>
  <g id="Semibold-M" transform="matrix(1 0 0 1 1958.6 1126)">
   <path d="M12.4512-35.2539Q12.4512-33.8379 13.0859-32.4463Q13.7207-31.0547 14.9414-29.9316L45.752-2.14844Q47.998-0.0976562 50.708-0.170898Q53.418-0.244141 55.2734-2.34375Q57.1777-4.54102 56.9824-7.22656Q56.7871-9.91211 54.5898-11.8652L28.8086-35.2539L54.5898-58.6426Q56.7871-60.5957 56.9824-63.3057Q57.1777-66.0156 55.2734-68.1641Q53.418-70.2637 50.708-70.3369Q47.998-70.4102 45.752-68.3594L14.9414-40.625Q13.7207-39.4531 13.0859-38.0615Q12.4512-36.6699 12.4512-35.2539ZM70.8984 12.1094Q73.7305 12.8906 76.0742 11.5479Q78.418 10.2051 79.2969 7.32422L103.076-74.3164Q103.906-77.002 102.661-79.3457Q101.416-81.6895 98.6328-82.4707Q95.8496-83.252 93.5303-82.0068Q91.2109-80.7617 90.332-77.6855L66.6016 3.61328Q65.7227 6.54297 66.8701 8.91113Q68.0176 11.2793 70.8984 12.1094ZM156.885-35.2539Q156.885-36.6699 156.274-38.0615Q155.664-39.4531 154.395-40.625L123.633-68.3594Q121.387-70.4102 118.677-70.3369Q115.967-70.2637 114.062-68.1641Q112.109-66.0156 112.305-63.3057Q112.5-60.5957 114.697-58.6426L140.527-35.2539L114.697-11.8652Q112.5-9.91211 112.305-7.22656Q112.109-4.54102 114.062-2.34375Q115.967-0.244141 118.677-0.170898Q121.387-0.0976562 123.633-2.14844L154.395-29.9316Q155.664-31.0547 156.274-32.4463Q156.885-33.8379 156.885-35.2539Z"/>
  </g>
  <g id="Medium-M" transform="matrix(1 0 0 1 1663.52 1126)">
   <path d="M12.4512-35.2539Q12.4512-33.9844 12.9883-32.7881Q13.5254-31.5918 14.5996-30.6641L46.1914-2.14844Q48.1445-0.390625 50.4639-0.439453Q52.7832-0.488281 54.3945-2.29492Q56.0547-4.15039 55.8594-6.46973Q55.6641-8.78906 53.8086-10.498L26.4648-35.2539L53.8086-60.0098Q55.6641-61.7188 55.8594-64.0625Q56.0547-66.4062 54.3945-68.2129Q52.7832-70.0195 50.4639-70.0684Q48.1445-70.1172 46.1914-68.3594L14.5996-39.8926Q13.5254-38.916 12.9883-37.7197Q12.4512-36.5234 12.4512-35.2539ZM69.4336 11.5723Q71.875 12.2559 73.9014 11.0596Q75.9277 9.86328 76.6602 7.42188L100.684-74.9512Q101.367-77.2461 100.317-79.248Q99.2676-81.25 96.8262-81.9336Q94.4336-82.6172 92.4561-81.543Q90.4785-80.4688 89.6973-77.7832L65.8203 4.24805Q65.0391 6.73828 65.9912 8.81348Q66.9434 10.8887 69.4336 11.5723ZM153.613-35.2539Q153.613-36.5234 153.076-37.7197Q152.539-38.916 151.465-39.8926L119.922-68.3594Q117.92-70.1172 115.601-70.0684Q113.281-70.0195 111.67-68.2129Q110.01-66.4062 110.181-64.0625Q110.352-61.7188 112.256-60.0098L139.6-35.2539L112.256-10.498Q110.352-8.78906 110.181-6.46973Q110.01-4.15039 111.67-2.29492Q113.281-0.488281 115.601-0.439453Q117.92-0.390625 119.922-2.14844L151.465-30.6641Q152.539-31.5918 153.076-32.7881Q153.613-33.9844 153.613-35.2539Z"/>
  </g>
  <g id="Regular-M" transform="matrix(1 0 0 1 1368.96 1126)">
   <path d="M12.4512-35.2539Q12.4512-34.2285 12.8906-33.2764Q13.3301-32.3242 14.1602-31.5918L46.7773-2.14844Q48.3398-0.732422 50.1709-0.756836Q52.002-0.78125 53.2715-2.19727Q54.541-3.66211 54.3701-5.49316Q54.1992-7.32422 52.7344-8.64258L23.3887-35.2539L52.7344-61.8652Q54.1992-63.1836 54.3701-65.0391Q54.541-66.8945 53.2715-68.3105Q52.002-69.7266 50.1709-69.751Q48.3398-69.7754 46.7773-68.3594L14.1602-38.9648Q13.3301-38.1836 12.8906-37.2314Q12.4512-36.2793 12.4512-35.2539ZM67.5293 10.8398Q69.4824 11.377 71.0693 10.4248Q72.6562 9.47266 73.2422 7.51953L97.5586-75.8301Q98.0957-77.5879 97.29-79.1504Q96.4844-80.7129 94.5312-81.2012Q92.627-81.7383 91.0889-80.9326Q89.5508-80.127 88.916-77.8809L64.7461 5.0293Q64.1602 7.03125 64.8193 8.66699Q65.4785 10.3027 67.5293 10.8398ZM149.316-35.2539Q149.316-36.2793 148.901-37.2314Q148.486-38.1836 147.656-38.9648L115.039-68.3594Q113.477-69.7754 111.646-69.751Q109.814-69.7266 108.545-68.3105Q107.227-66.8945 107.397-65.0391Q107.568-63.1836 109.033-61.8652L138.428-35.2539L109.033-8.64258Q107.568-7.32422 107.397-5.49316Q107.227-3.66211 108.545-2.19727Q109.814-0.78125 111.646-0.756836Q113.477-0.732422 115.039-2.14844L147.656-31.5918Q148.486-32.3242 148.901-33.2764Q149.316-34.2285 149.316-35.2539Z"/>
  </g>
  <g id="Light-M" transform="matrix(1 0 0 1 1074.11 1126)">
   <path d="M12.4512-35.2539Q12.4512-34.4727 12.793-33.7646Q13.1348-33.0566 13.7207-32.5195L47.2168-2.29492Q48.3887-1.2207 49.7803-1.24512Q51.1719-1.26953 52.0996-2.34375Q53.0762-3.41797 52.9297-4.80957Q52.7832-6.20117 51.709-7.17773L20.752-35.2539L51.709-63.3301Q52.7832-64.3066 52.9297-65.7227Q53.0762-67.1387 52.0996-68.1641Q51.1719-69.2383 49.7803-69.2627Q48.3887-69.2871 47.2168-68.2129L13.7207-38.0371Q13.1348-37.4512 12.793-36.7432Q12.4512-36.0352 12.4512-35.2539ZM65.625 10.498Q67.0898 10.9375 68.2861 10.2295Q69.4824 9.52148 69.9219 8.05664L94.6289-76.7578Q95.0684-78.125 94.458-79.2969Q93.8477-80.4688 92.3828-80.8594Q90.9668-81.25 89.7949-80.6396Q88.623-80.0293 88.1348-78.3691L63.4766 6.15234Q63.0371 7.66602 63.5498 8.88672Q64.0625 10.1074 65.625 10.498ZM145.605-35.2539Q145.605-36.0352 145.288-36.7432Q144.971-37.4512 144.385-38.0371L110.889-68.2129Q109.717-69.2871 108.325-69.2627Q106.934-69.2383 106.006-68.1641Q104.98-67.1387 105.127-65.7227Q105.273-64.3066 106.348-63.3301L137.354-35.2539L106.348-7.17773Q105.273-6.20117 105.127-4.80957Q104.98-3.41797 106.006-2.34375Q106.934-1.26953 108.325-1.24512Q109.717-1.2207 110.889-2.29492L144.385-32.5195Q144.971-33.0566 145.288-33.7646Q145.605-34.4727 145.605-35.2539Z"/>
  </g>
  <g id="Thin-M" transform="matrix(1 0 0 1 779.835 1126)">
   <path d="M12.4512-35.2539Q12.4512-34.8145 12.6465-34.4238Q12.8418-34.0332 13.1348-33.6914L47.7539-2.44141Q48.4375-1.85547 49.2432-1.87988Q50.0488-1.9043 50.5859-2.49023Q51.0742-3.125 51.0254-3.93066Q50.9766-4.73633 50.3418-5.27344L17.2363-35.2539L50.3418-65.2832Q50.9766-65.7715 51.0254-66.6016Q51.0742-67.4316 50.5859-68.0176Q50.0488-68.6035 49.2432-68.6279Q48.4375-68.6523 47.7539-68.0664L13.1348-36.8164Q12.8418-36.5234 12.6465-36.1084Q12.4512-35.6934 12.4512-35.2539ZM63.0859 10.1074Q63.916 10.3516 64.5996 9.93652Q65.2832 9.52148 65.5273 8.69141L90.8203-78.0273Q91.0156-78.7598 90.6738-79.4434Q90.332-80.127 89.502-80.3711Q88.7207-80.5664 88.0371-80.249Q87.3535-79.9316 87.1094-78.9551L61.8164 7.66602Q61.5723 8.49609 61.9141 9.17969Q62.2559 9.86328 63.0859 10.1074ZM140.723-35.2539Q140.723-35.6934 140.527-36.1084Q140.332-36.5234 140.039-36.8164L105.42-68.0664Q104.736-68.6523 103.931-68.6279Q103.125-68.6035 102.588-68.0176Q102.051-67.4316 102.124-66.6016Q102.197-65.7715 102.832-65.2832L135.986-35.2539L102.832-5.27344Q102.197-4.73633 102.124-3.93066Q102.051-3.125 102.588-2.49023Q103.125-1.9043 103.931-1.87988Q104.736-1.85547 105.42-2.44141L140.039-33.6914Q140.332-34.0332 140.527-34.4238Q140.723-34.8145 140.723-35.2539Z"/>
  </g>
  <g id="Ultralight-M" transform="matrix(1 0 0 1 484.394 1126)">
   <path d="M12.4512-35.2539Q12.4512-35.0098 12.5732-34.7656Q12.6953-34.5215 12.8418-34.3262L48.0469-2.53906Q48.4863-2.19727 48.9746-2.22168Q49.4629-2.24609 49.7559-2.58789Q50.0977-2.97852 50.0488-3.4668Q50-3.95508 49.6582-4.29688L15.4297-35.2539L49.6582-66.2598Q50-66.5527 50.0488-67.0654Q50.0977-67.5781 49.7559-67.9199Q49.4629-68.2617 48.9746-68.2861Q48.4863-68.3105 48.0469-67.9688L12.8418-36.1816Q12.6953-36.0352 12.5732-35.7666Q12.4512-35.498 12.4512-35.2539ZM61.7676 9.86328Q62.2559 10.0586 62.6953 9.81445Q63.1348 9.57031 63.2324 9.08203L88.8184-78.6621Q88.9648-79.1504 88.7451-79.5654Q88.5254-79.9805 88.0371-80.127Q87.5977-80.2246 87.1582-80.0293Q86.7188-79.834 86.5723-79.2969L60.9863 8.44727Q60.8398 8.88672 61.0596 9.32617Q61.2793 9.76562 61.7676 9.86328ZM138.184-35.2539Q138.184-35.498 138.062-35.7666Q137.939-36.0352 137.793-36.1816L102.588-67.9688Q102.197-68.3105 101.685-68.2861Q101.172-68.2617 100.879-67.9199Q100.537-67.5781 100.586-67.0654Q100.635-66.5527 100.977-66.2598L135.254-35.2539L100.977-4.29688Q100.635-3.95508 100.586-3.4668Q100.537-2.97852 100.879-2.58789Q101.172-2.24609 101.685-2.22168Q102.197-2.19727 102.588-2.53906L137.793-34.3262Q137.939-34.5215 138.062-34.7656Q138.184-35.0098 138.184-35.2539Z"/>
  </g>
  <g id="Black-S" transform="matrix(1 0 0 1 2859.96 696)">
   <path d="M9.76562-35.2539Q9.66797-31.2012 13.1836-27.9785L33.8867-9.27734Q36.9629-6.54297 40.6982-6.68945Q44.4336-6.83594 47.1191-9.81445Q49.8047-12.8418 49.6094-16.5527Q49.4141-20.2637 46.3379-23.0469L32.8125-35.2539L46.3379-47.4609Q49.4141-50.2441 49.6094-53.9795Q49.8047-57.7148 47.1191-60.6934Q44.4336-63.6719 40.6982-63.8184Q36.9629-63.9648 33.8867-61.2305L13.1836-42.5293Q9.66797-39.3066 9.76562-35.2539ZM61.9141 4.24805Q65.7715 5.37109 69.0186 3.54004Q72.2656 1.70898 73.4375-2.24609L91.1621-62.9395Q92.334-66.8945 90.5518-70.1904Q88.7695-73.4863 84.9121-74.6094Q81.0547-75.7324 77.8076-73.9014Q74.5605-72.0703 73.3887-68.1152L55.6641-7.42188Q54.4922-3.4668 56.2744-0.170898Q58.0566 3.125 61.9141 4.24805ZM137.109-35.2539Q137.207-39.3066 133.691-42.5293L112.988-61.2305Q109.912-63.9648 106.177-63.8184Q102.441-63.6719 99.7559-60.6934Q97.0703-57.7148 97.2656-53.9795Q97.4609-50.2441 100.537-47.4609L114.062-35.2539L100.537-23.0469Q97.4609-20.2637 97.2656-16.5527Q97.0703-12.8418 99.7559-9.81445Q102.441-6.83594 106.177-6.68945Q109.912-6.54297 112.988-9.27734L133.691-27.9785Q137.207-31.2012 137.109-35.2539Z"/>
  </g>
  <g id="Heavy-S" transform="matrix(1 0 0 1 2565.42 696)">
   <path d="M9.76562-35.2539Q9.66797-31.6895 12.7441-28.9062L34.4727-9.27734Q37.1582-6.88477 40.4053-7.00684Q43.6523-7.12891 45.9961-9.66797Q48.291-12.3047 48.1201-15.5273Q47.9492-18.75 45.2637-21.1914L29.6875-35.2539L45.2637-49.3164Q47.9492-51.7578 48.1201-55.0049Q48.291-58.252 45.9961-60.8398Q43.6523-63.3789 40.4053-63.501Q37.1582-63.623 34.4727-61.2305L12.7441-41.6016Q9.66797-38.8184 9.76562-35.2539ZM60.0098 3.4668Q63.3789 4.44336 66.1865 2.85645Q68.9941 1.26953 70.0195-2.19727L88.0371-63.8184Q89.0137-67.1875 87.4756-70.0439Q85.9375-72.9004 82.6172-73.877Q79.248-74.8047 76.4404-73.2422Q73.6328-71.6797 72.6074-68.1641L54.6387-6.64062Q53.6133-3.22266 55.127-0.366211Q56.6406 2.49023 60.0098 3.4668ZM132.764-35.2539Q132.861-38.8184 129.834-41.6016L108.057-61.2305Q105.371-63.623 102.148-63.501Q98.9258-63.3789 96.582-60.8398Q94.2383-58.252 94.4336-55.0049Q94.6289-51.7578 97.2656-49.3164L112.842-35.2539L97.2656-21.1914Q94.6289-18.75 94.4336-15.5273Q94.2383-12.3047 96.582-9.66797Q98.9258-7.12891 102.148-7.00684Q105.371-6.88477 108.057-9.27734L129.834-28.9062Q132.861-31.6895 132.764-35.2539Z"/>
  </g>
  <g id="Bold-S" transform="matrix(1 0 0 1 2271.11 696)">
   <path d="M9.76562-35.2539Q9.7168-32.2266 12.2559-29.9805L35.1562-9.27734Q37.4023-7.27539 40.1123-7.34863Q42.8223-7.42188 44.7266-9.57031Q46.6309-11.7188 46.46-14.4043Q46.2891-17.0898 44.0918-19.0918L26.2207-35.2539L44.0918-51.4648Q46.2891-53.418 46.46-56.1279Q46.6309-58.8379 44.7266-60.9863Q42.8223-63.0859 40.1123-63.1592Q37.4023-63.2324 35.1562-61.2793L12.2559-40.5762Q9.7168-38.2812 9.76562-35.2539ZM57.9102 2.63672Q60.6934 3.41797 63.0371 2.09961Q65.3809 0.78125 66.2109-2.09961L84.5215-64.7949Q85.3516-67.5293 84.082-69.873Q82.8125-72.2168 80.0293-73.0469Q77.2461-73.8281 74.9268-72.5586Q72.6074-71.2891 71.7285-68.2617L53.5156-5.81055Q52.6367-2.97852 53.833-0.561523Q55.0293 1.85547 57.9102 2.63672ZM127.979-35.2539Q128.027-38.2812 125.488-40.5762L102.588-61.2793Q100.342-63.2324 97.6562-63.1592Q94.9707-63.0859 93.0176-60.9863Q91.1133-58.8379 91.2842-56.1279Q91.4551-53.418 93.6523-51.4648L111.523-35.2539L93.6523-19.0918Q91.4551-17.0898 91.2842-14.4043Q91.1133-11.7188 93.0176-9.57031Q94.9707-7.42188 97.6562-7.34863Q100.342-7.27539 102.588-9.27734L125.488-29.9805Q128.027-32.2266 127.979-35.2539Z"/>
  </g>
  <g id="Semibold-S" transform="matrix(1 0 0 1 1976.08 696)">
   <path d="M9.76562-35.2539Q9.7168-32.6172 11.9141-30.6641L35.5957-9.22852Q37.5488-7.51953 39.8682-7.56836Q42.1875-7.61719 43.7988-9.42383Q45.459-11.3281 45.3125-13.623Q45.166-15.918 43.2617-17.627L23.8281-35.2539L43.2617-52.8809Q45.166-54.5898 45.3125-56.9092Q45.459-59.2285 43.7988-61.084Q42.1875-62.8906 39.8682-62.9395Q37.5488-62.9883 35.5957-61.2793L11.9141-39.8438Q9.7168-37.8906 9.76562-35.2539ZM56.3965 2.05078Q58.8379 2.68555 60.8643 1.53809Q62.8906 0.390625 63.5742-2.05078L82.0801-65.4297Q82.7637-67.7734 81.7139-69.7754Q80.6641-71.7773 78.2227-72.4609Q75.8301-73.0957 73.8525-72.0215Q71.875-70.9473 71.1426-68.3105L52.6855-5.22461Q51.9531-2.7832 52.9297-0.708008Q53.9062 1.36719 56.3965 2.05078ZM124.609-35.2539Q124.658-37.8906 122.51-39.8438L98.7793-61.2793Q96.8262-62.9883 94.5312-62.9395Q92.2363-62.8906 90.5762-61.084Q88.916-59.2285 89.0869-56.9092Q89.2578-54.5898 91.1133-52.8809L110.596-35.2539L91.1133-17.627Q89.2578-15.918 89.0869-13.623Q88.916-11.3281 90.5762-9.42383Q92.2363-7.61719 94.5312-7.56836Q96.8262-7.51953 98.7793-9.22852L122.51-30.6641Q124.658-32.6172 124.609-35.2539Z"/>
  </g>
  <g id="Medium-S" transform="matrix(1 0 0 1 1680.64 696)">
   <path d="M9.76562-35.2539Q9.76562-32.8613 11.6699-31.2012L35.9863-9.22852Q37.6953-7.76367 39.7217-7.78809Q41.748-7.8125 43.1641-9.375Q44.5801-10.9863 44.4336-13.0127Q44.2871-15.0391 42.6758-16.5039L22.0215-35.2539L42.6758-54.0039Q44.2871-55.4688 44.4336-57.4951Q44.5801-59.5215 43.1641-61.1328Q41.748-62.6953 39.7217-62.7197Q37.6953-62.7441 35.9863-61.2793L11.6699-39.3066Q9.76562-37.6465 9.76562-35.2539ZM55.3223 1.61133Q57.4219 2.14844 59.2041 1.14746Q60.9863 0.146484 61.5723-2.00195L80.2734-65.9668Q80.8594-67.9199 79.9316-69.6533Q79.0039-71.3867 76.8555-72.0215Q74.7559-72.5586 73.0469-71.6553Q71.3379-70.752 70.6543-68.3594L52.0996-4.78516Q51.4648-2.63672 52.2705-0.805664Q53.0762 1.02539 55.3223 1.61133ZM122.07-35.2539Q122.119-37.6465 120.215-39.3066L95.8984-61.2793Q94.1895-62.7441 92.1631-62.7197Q90.1367-62.6953 88.7207-61.1328Q87.2559-59.5215 87.4023-57.4951Q87.5488-55.4688 89.209-54.0039L109.912-35.2539L89.209-16.5039Q87.5488-15.0391 87.4023-13.0127Q87.2559-10.9863 88.7207-9.375Q90.1367-7.8125 92.1631-7.78809Q94.1895-7.76367 95.8984-9.22852L120.215-31.2012Q122.119-32.8613 122.07-35.2539Z"/>
  </g>
  <g id="Regular-S" transform="matrix(1 0 0 1 1385.56 696)">
   <path d="M9.76562-35.2539Q9.76562-33.252 11.3281-31.9336L36.4258-9.22852Q37.8418-8.00781 39.502-8.00781Q41.1621-8.00781 42.2852-9.27734Q43.457-10.5957 43.3105-12.2559Q43.1641-13.916 41.8457-15.0879L19.6289-35.2539L41.8457-55.4199Q43.1641-56.5918 43.3105-58.252Q43.457-59.9121 42.2852-61.2305Q41.1621-62.5 39.502-62.5Q37.8418-62.5 36.4258-61.2793L11.3281-38.5742Q9.76562-37.2559 9.76562-35.2539ZM53.8574 1.02539Q55.6152 1.46484 57.0557 0.634766Q58.4961-0.195312 58.9844-1.95312L77.8809-66.6016Q78.3203-68.1641 77.5879-69.5557Q76.8555-70.9473 75.0977-71.4355Q73.3887-71.875 72.0215-71.167Q70.6543-70.459 70.0684-68.4082L51.3184-4.19922Q50.7812-2.44141 51.3916-0.952148Q52.002 0.537109 53.8574 1.02539ZM118.799-35.2539Q118.799-37.2559 117.285-38.5742L92.1387-61.2793Q90.7227-62.5 89.0869-62.5Q87.4512-62.5 86.2793-61.2305Q85.1074-59.9121 85.2539-58.252Q85.4004-56.5918 86.7188-55.4199L108.984-35.2539L86.7188-15.0879Q85.4004-13.916 85.2539-12.2559Q85.1074-10.5957 86.2793-9.27734Q87.4512-8.00781 89.0869-8.00781Q90.7227-8.00781 92.1387-9.22852L117.285-31.9336Q118.799-33.252 118.799-35.2539Z"/>
  </g>
  <g id="Light-S" transform="matrix(1 0 0 1 1090.49 696)">
   <path d="M9.76562-35.2539Q9.76562-33.7402 10.9375-32.7148L36.8164-9.32617Q37.8906-8.44727 39.1602-8.44727Q40.4297-8.44727 41.2598-9.375Q42.1387-10.4004 42.041-11.6699Q41.9434-12.9395 40.918-13.8184L17.2852-35.2539L40.918-56.6895Q41.9434-57.5684 42.041-58.8379Q42.1387-60.1074 41.2598-61.1328Q40.4297-62.0605 39.1602-62.0605Q37.8906-62.0605 36.8164-61.1816L10.9375-37.793Q9.76562-36.7676 9.76562-35.2539ZM52.1484 0.732422Q53.4668 1.07422 54.5654 0.439453Q55.6641-0.195312 56.0547-1.51367L75.293-67.4316Q75.6348-68.6035 75.0732-69.6777Q74.5117-70.752 73.1934-71.0938Q71.9238-71.4355 70.874-70.8984Q69.8242-70.3613 69.3848-68.8477L50.1953-3.22266Q49.8047-1.9043 50.293-0.756836Q50.7812 0.390625 52.1484 0.732422ZM115.527-35.2539Q115.527-36.7676 114.355-37.793L88.4766-61.1816Q87.4023-62.0605 86.1572-62.0605Q84.9121-62.0605 84.0332-61.1328Q83.1543-60.1074 83.252-58.8379Q83.3496-57.5684 84.375-56.6895L108.057-35.2539L84.375-13.8184Q83.3496-12.9395 83.252-11.6699Q83.1543-10.4004 84.0332-9.375Q84.9121-8.44727 86.1572-8.44727Q87.4023-8.44727 88.4766-9.32617L114.355-32.7148Q115.527-33.7402 115.527-35.2539Z"/>
  </g>
  <g id="Thin-S" transform="matrix(1 0 0 1 795.949 696)">
   <path d="M9.76562-35.2539Q9.76562-34.4238 10.4004-33.7891L37.3535-9.52148Q37.9395-8.98438 38.6963-9.00879Q39.4531-9.0332 39.9414-9.57031Q40.3809-10.1562 40.332-10.8643Q40.2832-11.5723 39.7461-12.1094L14.1602-35.2539L39.7461-58.3984Q40.2832-58.9355 40.332-59.6436Q40.3809-60.3516 39.9414-60.9375Q39.4531-61.4746 38.6963-61.499Q37.9395-61.5234 37.3535-60.9863L10.4004-36.7188Q9.76562-36.084 9.76562-35.2539ZM49.9023 0.390625Q50.6348 0.585938 51.2939 0.219727Q51.9531-0.146484 52.1484-0.878906L71.875-68.5059Q72.0703-69.2383 71.7529-69.8486Q71.4355-70.459 70.6543-70.7031Q69.9219-70.8984 69.3115-70.5811Q68.7012-70.2637 68.457-69.3848L48.7305-1.9043Q48.5352-1.12305 48.8281-0.463867Q49.1211 0.195312 49.9023 0.390625ZM111.182-35.2539Q111.182-36.084 110.547-36.7188L83.6426-60.9863Q83.0078-61.5234 82.2754-61.499Q81.543-61.4746 81.0547-60.9375Q80.5176-60.3516 80.5908-59.6436Q80.6641-58.9355 81.25-58.3984L106.787-35.2539L81.25-12.1094Q80.6641-11.5723 80.5908-10.8643Q80.5176-10.1562 81.0547-9.57031Q81.543-9.0332 82.2754-9.00879Q83.0078-8.98438 83.6426-9.52148L110.547-33.7891Q111.182-34.4238 111.182-35.2539Z"/>
  </g>
  <g id="Ultralight-S" transform="matrix(1 0 0 1 500.361 696)">
   <path d="M9.76562-35.2539Q9.76562-34.7656 10.1562-34.3262L37.5977-9.57031Q37.9883-9.27734 38.4521-9.30176Q38.916-9.32617 39.2578-9.61914Q39.502-10.0098 39.4775-10.4736Q39.4531-10.9375 39.1113-11.2305L12.5977-35.2539L39.1113-59.2773Q39.4531-59.5703 39.4775-60.0342Q39.502-60.498 39.2578-60.8887Q38.916-61.1816 38.4521-61.2061Q37.9883-61.2305 37.5977-60.9375L10.1562-36.1816Q9.76562-35.7422 9.76562-35.2539ZM48.7793 0.195312Q49.2188 0.341797 49.6338 0.0976562Q50.0488-0.146484 50.1953-0.585938L70.1172-69.043Q70.2148-69.5312 70.0439-69.9219Q69.873-70.3125 69.3848-70.459Q68.9453-70.6055 68.5547-70.4102Q68.1641-70.2148 67.9688-69.6777L47.998-1.26953Q47.8516-0.78125 48.0713-0.341797Q48.291 0.0976562 48.7793 0.195312ZM108.936-35.2539Q108.936-35.7422 108.545-36.1816L81.1523-60.9375Q80.7129-61.2305 80.2734-61.2061Q79.834-61.1816 79.4922-60.8887Q79.1992-60.498 79.2236-60.0342Q79.248-59.5703 79.6387-59.2773L106.152-35.2539L79.6387-11.2305Q79.248-10.9375 79.2236-10.4736Q79.1992-10.0098 79.4922-9.61914Q79.834-9.32617 80.2734-9.30176Q80.7129-9.27734 81.1523-9.57031L108.545-34.3262Q108.936-34.7656 108.936-35.2539Z"/>
  </g>
 </g>
</svg>
