<?xml version="1.0" encoding="UTF-8"?>
<!--Generator: Apple Native CoreSVG 175-->
<!DOCTYPE svg
PUBLIC "-//W3C//DTD SVG 1.1//EN"
       "http://www.w3.org/Graphics/SVG/1.1/DTD/svg11.dtd">
<svg version="1.1" xmlns="http://www.w3.org/2000/svg" xmlns:xlink="http://www.w3.org/1999/xlink" width="3300" height="2200">
 <!--glyph: "uni100090.medium", point size: 100.0, font version: "17.0d11e1", template writer version: "65.1"-->
 <style>.hierarchical-0:secondary {fill:#4D4D4D}
.hierarchical-1:primary {fill:#212121}

.SFSymbolsPreview212121 {fill:#212121;opacity:1.0}
.SFSymbolsPreview4D4D4D {fill:#4D4D4D;opacity:1.0}
</style>
 <g id="Notes">
  <rect height="2200" id="artboard" style="fill:white;opacity:1" width="3300" x="0" y="0"/>
  <line style="fill:none;stroke:black;opacity:1;stroke-width:0.5;" x1="263" x2="3036" y1="292" y2="292"/>
  <text style="stroke:none;fill:black;font-family:sans-serif;font-size:13;font-weight:bold;" transform="matrix(1 0 0 1 263 322)">Weight/Scale Variations</text>
  <text style="stroke:none;fill:black;font-family:sans-serif;font-size:13;text-anchor:middle;" transform="matrix(1 0 0 1 559.711 322)">Ultralight</text>
  <text style="stroke:none;fill:black;font-family:sans-serif;font-size:13;text-anchor:middle;" transform="matrix(1 0 0 1 856.422 322)">Thin</text>
  <text style="stroke:none;fill:black;font-family:sans-serif;font-size:13;text-anchor:middle;" transform="matrix(1 0 0 1 1153.13 322)">Light</text>
  <text style="stroke:none;fill:black;font-family:sans-serif;font-size:13;text-anchor:middle;" transform="matrix(1 0 0 1 1449.84 322)">Regular</text>
  <text style="stroke:none;fill:black;font-family:sans-serif;font-size:13;text-anchor:middle;" transform="matrix(1 0 0 1 1746.56 322)">Medium</text>
  <text style="stroke:none;fill:black;font-family:sans-serif;font-size:13;text-anchor:middle;" transform="matrix(1 0 0 1 2043.27 322)">Semibold</text>
  <text style="stroke:none;fill:black;font-family:sans-serif;font-size:13;text-anchor:middle;" transform="matrix(1 0 0 1 2339.98 322)">Bold</text>
  <text style="stroke:none;fill:black;font-family:sans-serif;font-size:13;text-anchor:middle;" transform="matrix(1 0 0 1 2636.69 322)">Heavy</text>
  <text style="stroke:none;fill:black;font-family:sans-serif;font-size:13;text-anchor:middle;" transform="matrix(1 0 0 1 2933.4 322)">Black</text>
  <line style="fill:none;stroke:black;opacity:1;stroke-width:0.5;" x1="263" x2="3036" y1="1903" y2="1903"/>
  <g transform="matrix(1 0 0 1 263 1933)">
   <path d="M9.24805 0.830078Q10.8691 0.830078 12.2949 0.214844Q13.7207-0.400391 14.8096-1.49414Q15.8984-2.58789 16.5186-4.01367Q17.1387-5.43945 17.1387-7.05078Q17.1387-8.66211 16.5186-10.0879Q15.8984-11.5137 14.8047-12.6074Q13.7109-13.7012 12.2852-14.3164Q10.8594-14.9316 9.23828-14.9316Q7.62695-14.9316 6.20117-14.3164Q4.77539-13.7012 3.69141-12.6074Q2.60742-11.5137 1.9873-10.0879Q1.36719-8.66211 1.36719-7.05078Q1.36719-5.43945 1.9873-4.01367Q2.60742-2.58789 3.69629-1.49414Q4.78516-0.400391 6.21094 0.214844Q7.63672 0.830078 9.24805 0.830078ZM9.24805-0.654297Q7.91992-0.654297 6.7627-1.14746Q5.60547-1.64062 4.73145-2.51953Q3.85742-3.39844 3.36426-4.56055Q2.87109-5.72266 2.87109-7.05078Q2.87109-8.37891 3.35938-9.54102Q3.84766-10.7031 4.72168-11.582Q5.5957-12.4609 6.75293-12.9541Q7.91016-13.4473 9.23828-13.4473Q10.5762-13.4473 11.7334-12.9541Q12.8906-12.4609 13.7695-11.582Q14.6484-10.7031 15.1465-9.54102Q15.6445-8.37891 15.6445-7.05078Q15.6445-5.72266 15.1514-4.56055Q14.6582-3.39844 13.7842-2.51953Q12.9102-1.64062 11.748-1.14746Q10.5859-0.654297 9.24805-0.654297ZM5.6543-7.05078Q5.6543-6.72852 5.85938-6.52832Q6.06445-6.32812 6.40625-6.32812L8.51562-6.32812L8.51562-4.20898Q8.51562-3.88672 8.71094-3.67676Q8.90625-3.4668 9.23828-3.4668Q9.56055-3.4668 9.77051-3.67676Q9.98047-3.88672 9.98047-4.20898L9.98047-6.32812L12.0898-6.32812Q12.4219-6.32812 12.627-6.52832Q12.832-6.72852 12.832-7.05078Q12.832-7.38281 12.627-7.58789Q12.4219-7.79297 12.0898-7.79297L9.98047-7.79297L9.98047-9.90234Q9.98047-10.2344 9.77051-10.4443Q9.56055-10.6543 9.23828-10.6543Q8.90625-10.6543 8.71094-10.4443Q8.51562-10.2344 8.51562-9.90234L8.51562-7.79297L6.40625-7.79297Q6.06445-7.79297 5.85938-7.58789Q5.6543-7.38281 5.6543-7.05078Z"/>
  </g>
  <g transform="matrix(1 0 0 1 281.867 1933)">
   <path d="M11.709 2.91016Q13.75 2.91016 15.5518 2.12891Q17.3535 1.34766 18.7305-0.0292969Q20.1074-1.40625 20.8887-3.20801Q21.6699-5.00977 21.6699-7.05078Q21.6699-9.0918 20.8887-10.8936Q20.1074-12.6953 18.7305-14.0723Q17.3535-15.4492 15.5469-16.2305Q13.7402-17.0117 11.6992-17.0117Q9.6582-17.0117 7.85645-16.2305Q6.05469-15.4492 4.68262-14.0723Q3.31055-12.6953 2.5293-10.8936Q1.74805-9.0918 1.74805-7.05078Q1.74805-5.00977 2.5293-3.20801Q3.31055-1.40625 4.6875-0.0292969Q6.06445 1.34766 7.86621 2.12891Q9.66797 2.91016 11.709 2.91016ZM11.709 1.25Q9.98047 1.25 8.47656 0.605469Q6.97266-0.0390625 5.83496-1.17676Q4.69727-2.31445 4.05762-3.81836Q3.41797-5.32227 3.41797-7.05078Q3.41797-8.7793 4.05762-10.2832Q4.69727-11.7871 5.83008-12.9297Q6.96289-14.0723 8.4668-14.7119Q9.9707-15.3516 11.6992-15.3516Q13.4277-15.3516 14.9316-14.7119Q16.4355-14.0723 17.5781-12.9297Q18.7207-11.7871 19.3652-10.2832Q20.0098-8.7793 20.0098-7.05078Q20.0098-5.32227 19.3701-3.81836Q18.7305-2.31445 17.5928-1.17676Q16.4551-0.0390625 14.9463 0.605469Q13.4375 1.25 11.709 1.25ZM7.17773-7.05078Q7.17773-6.69922 7.41211-6.47461Q7.64648-6.25 8.01758-6.25L10.8887-6.25L10.8887-3.36914Q10.8887-2.99805 11.1133-2.76855Q11.3379-2.53906 11.6895-2.53906Q12.0605-2.53906 12.29-2.76855Q12.5195-2.99805 12.5195-3.36914L12.5195-6.25L15.4004-6.25Q15.7715-6.25 16.001-6.47461Q16.2305-6.69922 16.2305-7.05078Q16.2305-7.42188 16.001-7.65137Q15.7715-7.88086 15.4004-7.88086L12.5195-7.88086L12.5195-10.752Q12.5195-11.1328 12.29-11.3623Q12.0605-11.5918 11.6895-11.5918Q11.3379-11.5918 11.1133-11.3574Q10.8887-11.123 10.8887-10.752L10.8887-7.88086L8.01758-7.88086Q7.63672-7.88086 7.40723-7.65137Q7.17773-7.42188 7.17773-7.05078Z"/>
  </g>
  <g transform="matrix(1 0 0 1 305.646 1933)">
   <path d="M14.9707 5.66406Q17.0605 5.66406 18.96 5.01465Q20.8594 4.36523 22.4512 3.19336Q24.043 2.02148 25.2197 0.429688Q26.3965-1.16211 27.0459-3.06641Q27.6953-4.9707 27.6953-7.05078Q27.6953-9.14062 27.0459-11.04Q26.3965-12.9395 25.2197-14.5312Q24.043-16.123 22.4512-17.2998Q20.8594-18.4766 18.9551-19.126Q17.0508-19.7754 14.9609-19.7754Q12.8711-19.7754 10.9717-19.126Q9.07227-18.4766 7.48535-17.2998Q5.89844-16.123 4.72168-14.5312Q3.54492-12.9395 2.90039-11.04Q2.25586-9.14062 2.25586-7.05078Q2.25586-4.9707 2.90527-3.06641Q3.55469-1.16211 4.72656 0.429688Q5.89844 2.02148 7.49023 3.19336Q9.08203 4.36523 10.9814 5.01465Q12.8809 5.66406 14.9707 5.66406ZM14.9707 3.84766Q13.1641 3.84766 11.5283 3.2959Q9.89258 2.74414 8.53516 1.74805Q7.17773 0.751953 6.17676-0.610352Q5.17578-1.97266 4.62891-3.6084Q4.08203-5.24414 4.08203-7.05078Q4.08203-8.86719 4.62891-10.5029Q5.17578-12.1387 6.17188-13.501Q7.16797-14.8633 8.52539-15.8594Q9.88281-16.8555 11.5186-17.4023Q13.1543-17.9492 14.9609-17.9492Q16.7773-17.9492 18.4131-17.4023Q20.0488-16.8555 21.4111-15.8594Q22.7734-14.8633 23.7695-13.501Q24.7656-12.1387 25.3174-10.5029Q25.8691-8.86719 25.8691-7.05078Q25.8789-5.24414 25.332-3.6084Q24.7852-1.97266 23.7842-0.610352Q22.7832 0.751953 21.4209 1.74805Q20.0586 2.74414 18.4229 3.2959Q16.7871 3.84766 14.9707 3.84766ZM9.19922-7.05078Q9.19922-6.66992 9.45801-6.4209Q9.7168-6.17188 10.1172-6.17188L14.0625-6.17188L14.0625-2.2168Q14.0625-1.81641 14.3115-1.55762Q14.5605-1.29883 14.9512-1.29883Q15.3516-1.29883 15.6104-1.55273Q15.8691-1.80664 15.8691-2.2168L15.8691-6.17188L19.8242-6.17188Q20.2246-6.17188 20.4785-6.4209Q20.7324-6.66992 20.7324-7.05078Q20.7324-7.46094 20.4785-7.71484Q20.2246-7.96875 19.8242-7.96875L15.8691-7.96875L15.8691-11.9141Q15.8691-12.3242 15.6104-12.583Q15.3516-12.8418 14.9512-12.8418Q14.5605-12.8418 14.3115-12.583Q14.0625-12.3242 14.0625-11.9141L14.0625-7.96875L10.1172-7.96875Q9.70703-7.96875 9.45312-7.71484Q9.19922-7.46094 9.19922-7.05078Z"/>
  </g>
  <text style="stroke:none;fill:black;font-family:sans-serif;font-size:13;font-weight:bold;" transform="matrix(1 0 0 1 263 1953)">Design Variations</text>
  <text style="stroke:none;fill:black;font-family:sans-serif;font-size:13;" transform="matrix(1 0 0 1 263 1971)">Symbols are supported in up to nine weights and three scales.</text>
  <text style="stroke:none;fill:black;font-family:sans-serif;font-size:13;" transform="matrix(1 0 0 1 263 1989)">For optimal layout with text and other symbols, vertically align</text>
  <text style="stroke:none;fill:black;font-family:sans-serif;font-size:13;" transform="matrix(1 0 0 1 263 2007)">symbols with the adjacent text.</text>
  <line style="fill:none;stroke:#00AEEF;stroke-width:0.5;opacity:1.0;" x1="776" x2="776" y1="1919" y2="1933"/>
  <g transform="matrix(1 0 0 1 776 1933)">
   <path d="M3.31055 0.15625Q3.70117 0.15625 3.91602-0.00976562Q4.13086-0.175781 4.26758-0.585938L5.52734-4.0332L11.2891-4.0332L12.5488-0.585938Q12.6855-0.175781 12.9004-0.00976562Q13.1152 0.15625 13.4961 0.15625Q13.8867 0.15625 14.1162-0.0585938Q14.3457-0.273438 14.3457-0.644531Q14.3457-0.869141 14.2383-1.17188L9.6582-13.3691Q9.48242-13.8184 9.17969-14.043Q8.87695-14.2676 8.4082-14.2676Q7.5-14.2676 7.17773-13.3789L2.59766-1.16211Q2.49023-0.859375 2.49023-0.634766Q2.49023-0.263672 2.70996-0.0537109Q2.92969 0.15625 3.31055 0.15625ZM6.00586-5.51758L8.37891-12.0898L8.42773-12.0898L10.8008-5.51758Z"/>
  </g>
  <line style="fill:none;stroke:#00AEEF;stroke-width:0.5;opacity:1.0;" x1="793.197" x2="793.197" y1="1919" y2="1933"/>
  <text style="stroke:none;fill:black;font-family:sans-serif;font-size:13;font-weight:bold;" transform="matrix(1 0 0 1 776 1953)">Margins</text>
  <text style="stroke:none;fill:black;font-family:sans-serif;font-size:13;" transform="matrix(1 0 0 1 776 1971)">Leading and trailing margins on the left and right side of each symbol</text>
  <text style="stroke:none;fill:black;font-family:sans-serif;font-size:13;" transform="matrix(1 0 0 1 776 1989)">can be adjusted by modifying the x-location of the margin guidelines.</text>
  <text style="stroke:none;fill:black;font-family:sans-serif;font-size:13;" transform="matrix(1 0 0 1 776 2007)">Modifications are automatically applied proportionally to all</text>
  <text style="stroke:none;fill:black;font-family:sans-serif;font-size:13;" transform="matrix(1 0 0 1 776 2025)">scales and weights.</text>
  <g transform="matrix(1 0 0 1 1289 1933)">
   <path d="M2.8418 1.86523L4.54102 3.57422Q5.18555 4.22852 5.90332 4.17969Q6.62109 4.13086 7.31445 3.35938L18.0078-8.42773L17.041-9.4043L6.42578 2.27539Q6.16211 2.57812 5.89355 2.61719Q5.625 2.65625 5.27344 2.30469L4.10156 1.14258Q3.75 0.791016 3.79395 0.522461Q3.83789 0.253906 4.14062-0.0195312L15.6152-10.8203L14.6387-11.7871L3.04688-0.898438Q2.30469-0.214844 2.25098 0.498047Q2.19727 1.21094 2.8418 1.86523ZM9.25781-16.3281Q8.94531-16.0254 8.90625-15.6348Q8.86719-15.2441 9.04297-14.9512Q9.21875-14.6777 9.55566-14.541Q9.89258-14.4043 10.3809-14.5215Q11.4746-14.7754 12.5977-14.7314Q13.7207-14.6875 14.7949-13.9844L14.209-12.5293Q13.9551-11.9043 14.0674-11.4404Q14.1797-10.9766 14.5801-10.5664L16.875-8.25195Q17.2363-7.88086 17.5781-7.82227Q17.9199-7.76367 18.3398-7.8418L19.4043-8.03711L20.0684-7.36328L20.0293-6.80664Q20-6.43555 20.1221-6.12305Q20.2441-5.81055 20.6055-5.44922L21.3672-4.70703Q21.7285-4.3457 22.1533-4.33105Q22.5781-4.31641 22.9297-4.66797L25.8398-7.58789Q26.1914-7.93945 26.1816-8.35449Q26.1719-8.76953 25.8105-9.13086L25.0391-9.89258Q24.6875-10.2539 24.3799-10.3857Q24.0723-10.5176 23.7109-10.4883L23.1348-10.4395L22.4902-11.0742L22.7344-12.1973Q22.832-12.6172 22.6953-12.9834Q22.5586-13.3496 22.1191-13.7891L19.9219-15.9766Q18.6719-17.2168 17.2607-17.8369Q15.8496-18.457 14.4189-18.4814Q12.9883-18.5059 11.665-17.959Q10.3418-17.4121 9.25781-16.3281ZM10.752-15.957Q11.6602-16.6211 12.7002-16.9043Q13.7402-17.1875 14.8047-17.085Q15.8691-16.9824 16.8701-16.5137Q17.8711-16.0449 18.7012-15.2051L21.1328-12.793Q21.3086-12.6172 21.3525-12.4512Q21.3965-12.2852 21.3379-12.0312L21.0156-10.5469L22.5195-9.0625L23.5059-9.12109Q23.6914-9.13086 23.7891-9.09668Q23.8867-9.0625 24.0332-8.91602L24.6094-8.33984L22.168-5.89844L21.5918-6.47461Q21.4453-6.62109 21.4062-6.71875Q21.3672-6.81641 21.377-7.01172L21.4453-7.98828L19.9512-9.47266L18.4277-9.21875Q18.1836-9.16992 18.042-9.2041Q17.9004-9.23828 17.7148-9.41406L15.7129-11.416Q15.5176-11.5918 15.4932-11.7529Q15.4688-11.9141 15.5859-12.1875L16.4648-14.2773Q15.293-15.3711 13.8281-15.791Q12.3633-16.2109 10.8398-15.7617Q10.7227-15.7324 10.6885-15.8057Q10.6543-15.8789 10.752-15.957Z"/>
  </g>
  <text style="stroke:none;fill:black;font-family:sans-serif;font-size:13;font-weight:bold;" transform="matrix(1 0 0 1 1289 1953)">Exporting</text>
  <text style="stroke:none;fill:black;font-family:sans-serif;font-size:13;" transform="matrix(1 0 0 1 1289 1971)">Symbols should be outlined when exporting to ensure the</text>
  <text style="stroke:none;fill:black;font-family:sans-serif;font-size:13;" transform="matrix(1 0 0 1 1289 1989)">design is preserved when submitting to Xcode.</text>
  <text id="template-version" style="stroke:none;fill:black;font-family:sans-serif;font-size:13;text-anchor:end;" transform="matrix(1 0 0 1 3036 1933)">Template v.3.0</text>
  <text style="stroke:none;fill:black;font-family:sans-serif;font-size:13;text-anchor:end;" transform="matrix(1 0 0 1 3036 1951)">Requires Xcode 13 or greater</text>
  <text id="descriptive-name" style="stroke:none;fill:black;font-family:sans-serif;font-size:13;text-anchor:end;" transform="matrix(1 0 0 1 3036 1969)">Generated from arrow.uturn.right.circle</text>
  <text style="stroke:none;fill:black;font-family:sans-serif;font-size:13;text-anchor:end;" transform="matrix(1 0 0 1 3036 1987)">Typeset at 100 points</text>
  <text style="stroke:none;fill:black;font-family:sans-serif;font-size:13;" transform="matrix(1 0 0 1 263 726)">Small</text>
  <text style="stroke:none;fill:black;font-family:sans-serif;font-size:13;" transform="matrix(1 0 0 1 263 1156)">Medium</text>
  <text style="stroke:none;fill:black;font-family:sans-serif;font-size:13;" transform="matrix(1 0 0 1 263 1586)">Large</text>
 </g>
 <g id="Guides">
  <g id="H-reference" style="fill:#27AAE1;stroke:none;" transform="matrix(1 0 0 1 339 696)">
   <path d="M0.976562 0L3.66211 0L29.3457-67.1387L30.0293-67.1387L30.0293-70.459L28.125-70.459ZM11.6699-24.4629L46.9727-24.4629L46.2402-26.709L12.4512-26.709ZM55.127 0L57.7637 0L30.6152-70.459L29.4434-70.459L29.4434-67.1387Z"/>
  </g>
  <line id="Baseline-S" style="fill:none;stroke:#27AAE1;opacity:1;stroke-width:0.5;" x1="263" x2="3036" y1="696" y2="696"/>
  <line id="Capline-S" style="fill:none;stroke:#27AAE1;opacity:1;stroke-width:0.5;" x1="263" x2="3036" y1="625.541" y2="625.541"/>
  <g id="H-reference" style="fill:#27AAE1;stroke:none;" transform="matrix(1 0 0 1 339 1126)">
   <path d="M0.976562 0L3.66211 0L29.3457-67.1387L30.0293-67.1387L30.0293-70.459L28.125-70.459ZM11.6699-24.4629L46.9727-24.4629L46.2402-26.709L12.4512-26.709ZM55.127 0L57.7637 0L30.6152-70.459L29.4434-70.459L29.4434-67.1387Z"/>
  </g>
  <line id="Baseline-M" style="fill:none;stroke:#27AAE1;opacity:1;stroke-width:0.5;" x1="263" x2="3036" y1="1126" y2="1126"/>
  <line id="Capline-M" style="fill:none;stroke:#27AAE1;opacity:1;stroke-width:0.5;" x1="263" x2="3036" y1="1055.54" y2="1055.54"/>
  <g id="H-reference" style="fill:#27AAE1;stroke:none;" transform="matrix(1 0 0 1 339 1556)">
   <path d="M0.976562 0L3.66211 0L29.3457-67.1387L30.0293-67.1387L30.0293-70.459L28.125-70.459ZM11.6699-24.4629L46.9727-24.4629L46.2402-26.709L12.4512-26.709ZM55.127 0L57.7637 0L30.6152-70.459L29.4434-70.459L29.4434-67.1387Z"/>
  </g>
  <line id="Baseline-L" style="fill:none;stroke:#27AAE1;opacity:1;stroke-width:0.5;" x1="263" x2="3036" y1="1556" y2="1556"/>
  <line id="Capline-L" style="fill:none;stroke:#27AAE1;opacity:1;stroke-width:0.5;" x1="263" x2="3036" y1="1485.54" y2="1485.54"/>
  <line id="left-margin-Ultralight-S" style="fill:none;stroke:#00AEEF;stroke-width:0.5;opacity:1.0;" x1="515.644" x2="515.644" y1="600.785" y2="720.121"/>
  <line id="right-margin-Ultralight-S" style="fill:none;stroke:#00AEEF;stroke-width:0.5;opacity:1.0;" x1="603.778" x2="603.778" y1="600.785" y2="720.121"/>
  <line id="left-margin-Thin-S" style="fill:none;stroke:#00AEEF;stroke-width:0.5;opacity:1.0;" x1="811.867" x2="811.867" y1="600.785" y2="720.121"/>
  <line id="right-margin-Thin-S" style="fill:none;stroke:#00AEEF;stroke-width:0.5;opacity:1.0;" x1="900.978" x2="900.978" y1="600.785" y2="720.121"/>
  <line id="left-margin-Light-S" style="fill:none;stroke:#00AEEF;stroke-width:0.5;opacity:1.0;" x1="1107.6" x2="1107.6" y1="600.785" y2="720.121"/>
  <line id="right-margin-Light-S" style="fill:none;stroke:#00AEEF;stroke-width:0.5;opacity:1.0;" x1="1198.67" x2="1198.67" y1="600.785" y2="720.121"/>
  <line id="left-margin-Regular-S" style="fill:none;stroke:#00AEEF;stroke-width:0.5;opacity:1.0;" x1="1403.58" x2="1403.58" y1="600.785" y2="720.121"/>
  <line id="right-margin-Regular-S" style="fill:none;stroke:#00AEEF;stroke-width:0.5;opacity:1.0;" x1="1496.11" x2="1496.11" y1="600.785" y2="720.121"/>
  <line id="left-margin-Medium-S" style="fill:none;stroke:#00AEEF;stroke-width:0.5;opacity:1.0;" x1="1699.83" x2="1699.83" y1="600.785" y2="720.121"/>
  <line id="right-margin-Medium-S" style="fill:none;stroke:#00AEEF;stroke-width:0.5;opacity:1.0;" x1="1793.28" x2="1793.28" y1="600.785" y2="720.121"/>
  <line id="left-margin-Semibold-S" style="fill:none;stroke:#00AEEF;stroke-width:0.5;opacity:1.0;" x1="1996.2" x2="1996.2" y1="600.785" y2="720.121"/>
  <line id="right-margin-Semibold-S" style="fill:none;stroke:#00AEEF;stroke-width:0.5;opacity:1.0;" x1="2090.34" x2="2090.34" y1="600.785" y2="720.121"/>
  <line id="left-margin-Bold-S" style="fill:none;stroke:#00AEEF;stroke-width:0.5;opacity:1.0;" x1="2292.42" x2="2292.42" y1="600.785" y2="720.121"/>
  <line id="right-margin-Bold-S" style="fill:none;stroke:#00AEEF;stroke-width:0.5;opacity:1.0;" x1="2387.54" x2="2387.54" y1="600.785" y2="720.121"/>
  <line id="left-margin-Heavy-S" style="fill:none;stroke:#00AEEF;stroke-width:0.5;opacity:1.0;" x1="2588.47" x2="2588.47" y1="600.785" y2="720.121"/>
  <line id="right-margin-Heavy-S" style="fill:none;stroke:#00AEEF;stroke-width:0.5;opacity:1.0;" x1="2684.91" x2="2684.91" y1="600.785" y2="720.121"/>
  <line id="left-margin-Black-S" style="fill:none;stroke:#00AEEF;stroke-width:0.5;opacity:1.0;" x1="2884.57" x2="2884.57" y1="600.785" y2="720.121"/>
  <line id="right-margin-Black-S" style="fill:none;stroke:#00AEEF;stroke-width:0.5;opacity:1.0;" x1="2982.23" x2="2982.23" y1="600.785" y2="720.121"/>
  <line id="left-margin-Ultralight-M" style="fill:none;stroke:#00AEEF;stroke-width:0.5;opacity:1.0;" x1="503.632" x2="503.632" y1="1030.79" y2="1150.12"/>
  <line id="right-margin-Ultralight-M" style="fill:none;stroke:#00AEEF;stroke-width:0.5;opacity:1.0;" x1="615.79" x2="615.79" y1="1030.79" y2="1150.12"/>
  <line id="left-margin-Thin-M" style="fill:none;stroke:#00AEEF;stroke-width:0.5;opacity:1.0;" x1="799.782" x2="799.782" y1="1030.79" y2="1150.12"/>
  <line id="right-margin-Thin-M" style="fill:none;stroke:#00AEEF;stroke-width:0.5;opacity:1.0;" x1="913.063" x2="913.063" y1="1030.79" y2="1150.12"/>
  <line id="left-margin-Light-M" style="fill:none;stroke:#00AEEF;stroke-width:0.5;opacity:1.0;" x1="1095.42" x2="1095.42" y1="1030.79" y2="1150.12"/>
  <line id="right-margin-Light-M" style="fill:none;stroke:#00AEEF;stroke-width:0.5;opacity:1.0;" x1="1210.85" x2="1210.85" y1="1030.79" y2="1150.12"/>
  <line id="left-margin-Regular-M" style="fill:none;stroke:#00AEEF;stroke-width:0.5;opacity:1.0;" x1="1391.3" x2="1391.3" y1="1030.79" y2="1150.12"/>
  <line id="right-margin-Regular-M" style="fill:none;stroke:#00AEEF;stroke-width:0.5;opacity:1.0;" x1="1508.39" x2="1508.39" y1="1030.79" y2="1150.12"/>
  <line id="left-margin-Medium-M" style="fill:none;stroke:#00AEEF;stroke-width:0.5;opacity:1.0;" x1="1687.38" x2="1687.38" y1="1030.79" y2="1150.12"/>
  <line id="right-margin-Medium-M" style="fill:none;stroke:#00AEEF;stroke-width:0.5;opacity:1.0;" x1="1805.74" x2="1805.74" y1="1030.79" y2="1150.12"/>
  <line id="left-margin-Semibold-M" style="fill:none;stroke:#00AEEF;stroke-width:0.5;opacity:1.0;" x1="1983.6" x2="1983.6" y1="1030.79" y2="1150.12"/>
  <line id="right-margin-Semibold-M" style="fill:none;stroke:#00AEEF;stroke-width:0.5;opacity:1.0;" x1="2102.93" x2="2102.93" y1="1030.79" y2="1150.12"/>
  <line id="left-margin-Bold-M" style="fill:none;stroke:#00AEEF;stroke-width:0.5;opacity:1.0;" x1="2279.65" x2="2279.65" y1="1030.79" y2="1150.12"/>
  <line id="right-margin-Bold-M" style="fill:none;stroke:#00AEEF;stroke-width:0.5;opacity:1.0;" x1="2400.3" x2="2400.3" y1="1030.79" y2="1150.12"/>
  <line id="left-margin-Heavy-M" style="fill:none;stroke:#00AEEF;stroke-width:0.5;opacity:1.0;" x1="2575.43" x2="2575.43" y1="1030.79" y2="1150.12"/>
  <line id="right-margin-Heavy-M" style="fill:none;stroke:#00AEEF;stroke-width:0.5;opacity:1.0;" x1="2697.94" x2="2697.94" y1="1030.79" y2="1150.12"/>
  <line id="left-margin-Black-M" style="fill:none;stroke:#00AEEF;stroke-width:0.5;opacity:1.0;" x1="2871.32" x2="2871.32" y1="1030.79" y2="1150.12"/>
  <line id="right-margin-Black-M" style="fill:none;stroke:#00AEEF;stroke-width:0.5;opacity:1.0;" x1="2995.48" x2="2995.48" y1="1030.79" y2="1150.12"/>
  <line id="left-margin-Ultralight-L" style="fill:none;stroke:#00AEEF;stroke-width:0.5;opacity:1.0;" x1="487.592" x2="487.592" y1="1460.79" y2="1580.12"/>
  <line id="right-margin-Ultralight-L" style="fill:none;stroke:#00AEEF;stroke-width:0.5;opacity:1.0;" x1="631.83" x2="631.83" y1="1460.79" y2="1580.12"/>
  <line id="left-margin-Thin-L" style="fill:none;stroke:#00AEEF;stroke-width:0.5;opacity:1.0;" x1="783.693" x2="783.693" y1="1460.79" y2="1580.12"/>
  <line id="right-margin-Thin-L" style="fill:none;stroke:#00AEEF;stroke-width:0.5;opacity:1.0;" x1="929.152" x2="929.152" y1="1460.79" y2="1580.12"/>
  <line id="left-margin-Light-L" style="fill:none;stroke:#00AEEF;stroke-width:0.5;opacity:1.0;" x1="1079.18" x2="1079.18" y1="1460.79" y2="1580.12"/>
  <line id="right-margin-Light-L" style="fill:none;stroke:#00AEEF;stroke-width:0.5;opacity:1.0;" x1="1227.08" x2="1227.08" y1="1460.79" y2="1580.12"/>
  <line id="left-margin-Regular-L" style="fill:none;stroke:#00AEEF;stroke-width:0.5;opacity:1.0;" x1="1374.97" x2="1374.97" y1="1460.79" y2="1580.12"/>
  <line id="right-margin-Regular-L" style="fill:none;stroke:#00AEEF;stroke-width:0.5;opacity:1.0;" x1="1524.72" x2="1524.72" y1="1460.79" y2="1580.12"/>
  <line id="left-margin-Medium-L" style="fill:none;stroke:#00AEEF;stroke-width:0.5;opacity:1.0;" x1="1670.87" x2="1670.87" y1="1460.79" y2="1580.12"/>
  <line id="right-margin-Medium-L" style="fill:none;stroke:#00AEEF;stroke-width:0.5;opacity:1.0;" x1="1822.24" x2="1822.24" y1="1460.79" y2="1580.12"/>
  <line id="left-margin-Semibold-L" style="fill:none;stroke:#00AEEF;stroke-width:0.5;opacity:1.0;" x1="1966.97" x2="1966.97" y1="1460.79" y2="1580.12"/>
  <line id="right-margin-Semibold-L" style="fill:none;stroke:#00AEEF;stroke-width:0.5;opacity:1.0;" x1="2119.56" x2="2119.56" y1="1460.79" y2="1580.12"/>
  <line id="left-margin-Bold-L" style="fill:none;stroke:#00AEEF;stroke-width:0.5;opacity:1.0;" x1="2262.85" x2="2262.85" y1="1460.79" y2="1580.12"/>
  <line id="right-margin-Bold-L" style="fill:none;stroke:#00AEEF;stroke-width:0.5;opacity:1.0;" x1="2417.1" x2="2417.1" y1="1460.79" y2="1580.12"/>
  <line id="left-margin-Heavy-L" style="fill:none;stroke:#00AEEF;stroke-width:0.5;opacity:1.0;" x1="2558.39" x2="2558.39" y1="1460.79" y2="1580.12"/>
  <line id="right-margin-Heavy-L" style="fill:none;stroke:#00AEEF;stroke-width:0.5;opacity:1.0;" x1="2714.98" x2="2714.98" y1="1460.79" y2="1580.12"/>
  <line id="left-margin-Black-L" style="fill:none;stroke:#00AEEF;stroke-width:0.5;opacity:1.0;" x1="2854.05" x2="2854.05" y1="1460.79" y2="1580.12"/>
  <line id="right-margin-Black-L" style="fill:none;stroke:#00AEEF;stroke-width:0.5;opacity:1.0;" x1="3012.75" x2="3012.75" y1="1460.79" y2="1580.12"/>
 </g>
 <g id="Symbols">
  <g id="Black-L" transform="matrix(1 0 0 1 2854.05 1556)">
   <path class="hierarchical-0:secondary SFSymbolsPreview4D4D4D" d="M79.3457 32.8613Q90.5762 32.8613 100.757 29.3945Q110.938 25.9277 119.458 19.6777Q127.979 13.4277 134.229 4.90723Q140.479-3.61328 143.945-13.7939Q147.412-23.9746 147.412-35.2051Q147.412-46.4355 143.945-56.6162Q140.479-66.7969 134.204-75.3174Q127.93-83.8379 119.434-90.1123Q110.938-96.3867 100.732-99.8291Q90.5273-103.271 79.2969-103.271Q68.1152-103.271 57.9102-99.8291Q47.7051-96.3867 39.209-90.1123Q30.7129-83.8379 24.4385-75.3174Q18.1641-66.7969 14.7217-56.6162Q11.2793-46.4355 11.2793-35.2051Q11.2793-23.9746 14.7217-13.7939Q18.1641-3.61328 24.4385 4.90723Q30.7129 13.4277 39.2334 19.6777Q47.7539 25.9277 57.9346 29.3945Q68.1152 32.8613 79.3457 32.8613ZM79.3457 12.4023Q71.4355 12.4023 64.2822 10.0098Q57.1289 7.61719 51.1963 3.24707Q45.2637-1.12305 40.8936-7.08008Q36.5234-13.0371 34.1309-20.166Q31.7383-27.2949 31.7383-35.2051Q31.7383-43.1152 34.1309-50.2686Q36.5234-57.4219 40.8936-63.3545Q45.2637-69.2871 51.1963-73.6572Q57.1289-78.0273 64.2578-80.4199Q71.3867-82.8125 79.2969-82.8125Q87.207-82.8125 94.3604-80.4199Q101.514-78.0273 107.471-73.6572Q113.428-69.2871 117.798-63.3545Q122.168-57.4219 124.561-50.2686Q126.953-43.1152 126.953-35.2051Q126.953-27.2949 124.561-20.166Q122.168-13.0371 117.798-7.08008Q113.428-1.12305 107.495 3.24707Q101.562 7.61719 94.4092 10.0098Q87.2559 12.4023 79.3457 12.4023Z"/>
   <path class="hierarchical-1:primary SFSymbolsPreview212121" d="M46.4844-28.418Q46.4844-20.7031 49.7559-14.9902Q53.0273-9.27734 58.8379-6.10352Q64.6484-2.92969 72.2656-2.92969Q72.3633-2.92969 73.5596-2.92969Q74.7559-2.92969 76.3916-2.92969Q78.0273-2.92969 79.4434-2.92969Q80.8594-2.92969 81.3965-2.92969Q84.5703-2.92969 86.5479-4.71191Q88.5254-6.49414 88.5254-9.47266Q88.5254-12.4023 86.5234-14.0869Q84.5215-15.7715 81.3477-15.7715Q80.8594-15.7715 79.4434-15.7715Q78.0273-15.7715 76.3916-15.7715Q74.7559-15.7715 73.5596-15.7715Q72.3633-15.7715 72.2656-15.7715Q66.6016-15.7715 63.1104-19.2627Q59.6191-22.7539 59.6191-28.5645Q59.6191-32.5195 61.2549-35.3516Q62.8906-38.1836 65.7471-39.7461Q68.6035-41.3086 72.3633-41.3086L89.9902-41.3086L94.6289-41.748L91.0645-39.2578L85.0586-34.4238Q84.082-33.6426 83.6182-32.5928Q83.1543-31.543 83.1543-30.4688Q83.1543-28.0273 84.9854-26.2695Q86.8164-24.5117 89.1113-24.5117Q91.6016-24.5117 93.2129-26.123L110.205-43.3105Q112.012-45.1172 112.012-47.5586Q112.012-49.9512 110.205-51.9043L93.2617-69.043Q91.6504-70.752 89.2578-70.752Q86.9141-70.752 85.1074-68.9453Q83.3008-67.1387 83.3008-64.7949Q83.3008-62.3535 85.0586-60.7422L90.5762-55.8105L94.6289-52.9297L89.9902-53.3691L72.3633-53.3691Q64.7461-53.3691 58.9111-50.293Q53.0762-47.2168 49.7803-41.6016Q46.4844-35.9863 46.4844-28.418Z"/>
  </g>
  <g id="Heavy-L" transform="matrix(1 0 0 1 2558.39 1556)">
   <path class="hierarchical-0:secondary SFSymbolsPreview4D4D4D" d="M78.2715 31.7871Q89.3555 31.7871 99.3652 28.3691Q109.375 24.9512 117.749 18.7988Q126.123 12.6465 132.3 4.24805Q138.477-4.15039 141.895-14.1602Q145.312-24.1699 145.312-35.2051Q145.312-46.2402 141.895-56.2744Q138.477-66.3086 132.3-74.6826Q126.123-83.0566 117.749-89.2578Q109.375-95.459 99.3408-98.8525Q89.3066-102.246 78.2227-102.246Q67.2363-102.246 57.2021-98.8525Q47.168-95.459 38.7939-89.2578Q30.4199-83.0566 24.2432-74.6826Q18.0664-66.3086 14.6729-56.2744Q11.2793-46.2402 11.2793-35.2051Q11.2793-24.1699 14.6729-14.1602Q18.0664-4.15039 24.2432 4.24805Q30.4199 12.6465 38.8184 18.7988Q47.2168 24.9512 57.2266 28.3691Q67.2363 31.7871 78.2715 31.7871ZM78.2715 14.0137Q70.1172 14.0137 62.7197 11.5479Q55.3223 9.08203 49.1943 4.56543Q43.0664 0.0488281 38.5498-6.12793Q34.0332-12.3047 31.543-19.6777Q29.0527-27.0508 29.0527-35.2051Q29.0527-43.4082 31.543-50.8057Q34.0332-58.2031 38.5254-64.3311Q43.0176-70.459 49.1699-74.9756Q55.3223-79.4922 62.6953-81.9824Q70.0684-84.4727 78.2227-84.4727Q86.4258-84.4727 93.8232-81.9824Q101.221-79.4922 107.373-74.9756Q113.525-70.459 118.042-64.3311Q122.559-58.2031 125.049-50.8057Q127.539-43.4082 127.539-35.2051Q127.539-27.0508 125.049-19.6777Q122.559-12.3047 118.042-6.12793Q113.525 0.0488281 107.397 4.56543Q101.27 9.08203 93.8721 11.5479Q86.4746 14.0137 78.2715 14.0137Z"/>
   <path class="hierarchical-1:primary SFSymbolsPreview212121" d="M45.6543-28.2227Q45.6543-20.6055 48.9258-14.9902Q52.1973-9.375 57.959-6.25Q63.7207-3.125 71.2402-3.125Q71.4355-3.125 72.6807-3.125Q73.9258-3.125 75.5615-3.125Q77.1973-3.125 78.5645-3.125Q79.9316-3.125 80.3711-3.125Q83.2031-3.125 85.0098-4.73633Q86.8164-6.34766 86.8164-9.0332Q86.8164-11.7188 85.0098-13.2568Q83.2031-14.7949 80.3711-14.7949Q79.9805-14.7949 78.5889-14.7949Q77.1973-14.7949 75.5615-14.7949Q73.9258-14.7949 72.6807-14.7949Q71.4355-14.7949 71.2402-14.7949Q65.1855-14.7949 61.377-18.5059Q57.5684-22.2168 57.5684-28.418Q57.5684-32.6172 59.3506-35.5957Q61.1328-38.5742 64.209-40.21Q67.2852-41.8457 71.3379-41.8457L89.5508-41.8457L94.8242-42.2363L91.2598-39.6973L84.6191-33.9844Q83.6914-33.252 83.2764-32.2754Q82.8613-31.2988 82.8613-30.2734Q82.8613-28.0273 84.5215-26.416Q86.1816-24.8047 88.3301-24.8047Q90.625-24.8047 92.0898-26.3184L109.033-43.5059Q110.791-45.2148 110.791-47.5098Q110.791-49.8047 109.033-51.6602L92.1387-68.75Q90.6738-70.3613 88.4277-70.3613Q86.2305-70.3613 84.5947-68.7012Q82.959-67.041 82.959-64.8438Q82.959-62.5977 84.6191-61.084L90.6738-55.5176L94.8242-52.4902L89.5508-52.8809L71.3379-52.8809Q63.8184-52.8809 58.0078-49.8535Q52.1973-46.8262 48.9258-41.2842Q45.6543-35.7422 45.6543-28.2227Z"/>
  </g>
  <g id="Bold-L" transform="matrix(1 0 0 1 2262.85 1556)">
   <path class="hierarchical-0:secondary SFSymbolsPreview4D4D4D" d="M77.0996 30.6152Q87.9395 30.6152 97.7783 27.2461Q107.617 23.877 115.869 17.8223Q124.121 11.7676 130.176 3.51562Q136.23-4.73633 139.6-14.5752Q142.969-24.4141 142.969-35.2539Q142.969-46.0938 139.6-55.9326Q136.23-65.7715 130.151-73.999Q124.072-82.2266 115.845-88.3057Q107.617-94.3848 97.7539-97.7295Q87.8906-101.074 77.0508-101.074Q66.2598-101.074 56.3965-97.7295Q46.5332-94.3848 38.3301-88.3057Q30.127-82.2266 24.0479-73.999Q17.9688-65.7715 14.624-55.9326Q11.2793-46.0938 11.2793-35.2539Q11.2793-24.4141 14.624-14.5752Q17.9688-4.73633 24.0479 3.51562Q30.127 11.7676 38.3545 17.8223Q46.582 23.877 56.4209 27.2461Q66.2598 30.6152 77.0996 30.6152ZM77.0996 15.8203Q68.6523 15.8203 60.9863 13.2568Q53.3203 10.6934 46.9482 6.00586Q40.5762 1.31836 35.8887-5.07812Q31.2012-11.4746 28.6377-19.1162Q26.0742-26.7578 26.0742-35.2539Q26.0742-43.75 28.6377-51.416Q31.2012-59.082 35.8887-65.4541Q40.5762-71.8262 46.9238-76.4893Q53.2715-81.1523 60.9375-83.7158Q68.6035-86.2793 77.0508-86.2793Q85.5469-86.2793 93.2129-83.7158Q100.879-81.1523 107.275-76.4893Q113.672-71.8262 118.335-65.4541Q122.998-59.082 125.586-51.416Q128.174-43.75 128.174-35.2539Q128.174-26.7578 125.61-19.1162Q123.047-11.4746 118.359-5.07812Q113.672 1.31836 107.3 6.00586Q100.928 10.6934 93.2617 13.2568Q85.5957 15.8203 77.0996 15.8203Z"/>
   <path class="hierarchical-1:primary SFSymbolsPreview212121" d="M44.6777-28.0273Q44.6777-20.5078 47.9492-14.9902Q51.2207-9.47266 56.958-6.4209Q62.6953-3.36914 70.1172-3.36914Q70.3613-3.36914 71.6309-3.36914Q72.9004-3.36914 74.5361-3.36914Q76.1719-3.36914 77.5146-3.36914Q78.8574-3.36914 79.1992-3.36914Q81.6895-3.36914 83.252-4.76074Q84.8145-6.15234 84.8145-8.59375Q84.8145-10.9863 83.2275-12.3291Q81.6406-13.6719 79.1992-13.6719Q78.9062-13.6719 77.5635-13.6719Q76.2207-13.6719 74.585-13.6719Q72.9492-13.6719 71.6553-13.6719Q70.3613-13.6719 70.1172-13.6719Q63.5254-13.6719 59.375-17.627Q55.2246-21.582 55.2246-28.2715Q55.2246-32.7637 57.1533-35.9131Q59.082-39.0625 62.4512-40.7715Q65.8203-42.4805 70.1172-42.4805L89.0625-42.4805L95.0195-42.8223L91.5039-40.2344L84.0332-33.4961Q83.252-32.8125 82.8613-31.9092Q82.4707-31.0059 82.4707-30.0781Q82.4707-28.0273 83.9355-26.5869Q85.4004-25.1465 87.4023-25.1465Q89.4531-25.1465 90.8203-26.5137L107.715-43.7012Q109.375-45.3613 109.375-47.5098Q109.375-49.6582 107.715-51.3672L90.8691-68.457Q89.502-69.9219 87.5-69.9219Q85.4492-69.9219 84.0088-68.457Q82.5684-66.9922 82.5684-64.9414Q82.5684-62.8906 84.082-61.5234L90.7227-55.2246L95.0195-51.9531L89.0625-52.2949L70.1172-52.2949Q62.6953-52.2949 56.958-49.3164Q51.2207-46.3379 47.9492-40.8936Q44.6777-35.4492 44.6777-28.0273Z"/>
  </g>
  <g id="Semibold-L" transform="matrix(1 0 0 1 1966.97 1556)">
   <path class="hierarchical-0:secondary SFSymbolsPreview4D4D4D" d="M76.2695 29.7852Q86.9629 29.7852 96.6797 26.4648Q106.396 23.1445 114.551 17.1631Q122.705 11.1816 128.687 3.02734Q134.668-5.12695 137.988-14.8438Q141.309-24.5605 141.309-35.2539Q141.309-45.9473 137.988-55.6641Q134.668-65.3809 128.662-73.5107Q122.656-81.6406 114.526-87.6465Q106.396-93.6523 96.6553-96.9727Q86.9141-100.293 76.2207-100.293Q65.5273-100.293 55.8105-96.9727Q46.0938-93.6523 37.9883-87.6465Q29.8828-81.6406 23.877-73.5107Q17.8711-65.3809 14.5752-55.6641Q11.2793-45.9473 11.2793-35.2539Q11.2793-24.5605 14.5996-14.8438Q17.9199-5.12695 23.9014 3.02734Q29.8828 11.1816 38.0127 17.1631Q46.1426 23.1445 55.8594 26.4648Q65.5762 29.7852 76.2695 29.7852ZM76.2695 17.041Q67.627 17.041 59.7656 14.4043Q51.9043 11.7676 45.3857 6.98242Q38.8672 2.19727 34.0576-4.3457Q29.248-10.8887 26.6357-18.7256Q24.0234-26.5625 24.0234-35.2539Q24.0234-43.9453 26.6357-51.8066Q29.248-59.668 34.0332-66.1865Q38.8184-72.7051 45.3369-77.4902Q51.8555-82.2754 59.7168-84.9121Q67.5781-87.5488 76.2207-87.5488Q84.9609-87.5488 92.7979-84.9121Q100.635-82.2754 107.178-77.4902Q113.721-72.7051 118.506-66.1865Q123.291-59.668 125.928-51.8066Q128.564-43.9453 128.564-35.2539Q128.613-26.5625 126.001-18.7256Q123.389-10.8887 118.579-4.3457Q113.77 2.19727 107.227 6.98242Q100.684 11.7676 92.8467 14.4043Q85.0098 17.041 76.2695 17.041Z"/>
   <path class="hierarchical-1:primary SFSymbolsPreview212121" d="M44.043-27.8809Q44.043-20.5078 47.29-15.0391Q50.5371-9.57031 56.25-6.56738Q61.9629-3.56445 69.3359-3.56445Q69.6289-3.56445 70.9473-3.56445Q72.2656-3.56445 73.9014-3.56445Q75.5371-3.56445 76.8311-3.56445Q78.125-3.56445 78.3691-3.56445Q80.6152-3.56445 82.0557-4.80957Q83.4961-6.05469 83.4961-8.30078Q83.4961-10.498 82.0557-11.7188Q80.6152-12.9395 78.418-12.9395Q78.2227-12.9395 76.9043-12.9395Q75.5859-12.9395 73.9258-12.9395Q72.2656-12.9395 70.9473-12.9395Q69.6289-12.9395 69.3359-12.9395Q62.4512-12.9395 58.0566-17.0654Q53.6621-21.1914 53.6621-28.2227Q53.6621-32.8613 55.6885-36.1328Q57.7148-39.4043 61.2549-41.1621Q64.7949-42.9199 69.3359-42.9199L88.7695-42.9199L95.166-43.2129L91.6504-40.625L83.6914-33.2031Q82.959-32.5684 82.5928-31.7139Q82.2266-30.8594 82.2266-29.9805Q82.2266-28.0762 83.5693-26.7334Q84.9121-25.3906 86.7676-25.3906Q88.6719-25.3906 89.9902-26.709L106.836-43.8477Q108.447-45.459 108.447-47.5098Q108.447-49.6094 106.836-51.2207L90.0391-68.3105Q88.7207-69.6289 86.8652-69.6289Q84.9609-69.6289 83.6182-68.2861Q82.2754-66.9434 82.2754-65.0391Q82.2754-63.1348 83.7402-61.8164L90.8203-55.0293L95.166-51.6602L88.7695-51.9531L69.3359-51.9531Q61.9629-51.9531 56.25-48.999Q50.5371-46.0449 47.29-40.6738Q44.043-35.3027 44.043-27.8809Z"/>
  </g>
  <g id="Medium-L" transform="matrix(1 0 0 1 1670.87 1556)">
   <path class="hierarchical-0:secondary SFSymbolsPreview4D4D4D" d="M75.6836 29.1504Q86.2305 29.1504 95.8496 25.8545Q105.469 22.5586 113.55 16.626Q121.631 10.6934 127.563 2.63672Q133.496-5.41992 136.792-15.0635Q140.088-24.707 140.088-35.2539Q140.088-45.8496 136.792-55.4688Q133.496-65.0879 127.539-73.1445Q121.582-81.2012 113.525-87.1582Q105.469-93.1152 95.8252-96.3867Q86.1816-99.6582 75.6348-99.6582Q65.0391-99.6582 55.4199-96.3867Q45.8008-93.1152 37.7441-87.1582Q29.6875-81.2012 23.7549-73.1445Q17.8223-65.0879 14.5508-55.4688Q11.2793-45.8496 11.2793-35.2539Q11.2793-24.707 14.5508-15.0635Q17.8223-5.41992 23.7549 2.63672Q29.6875 10.6934 37.7686 16.626Q45.8496 22.5586 55.4688 25.8545Q65.0879 29.1504 75.6836 29.1504ZM75.6836 18.0176Q66.8457 18.0176 58.8379 15.332Q50.8301 12.6465 44.2139 7.76367Q37.5977 2.88086 32.6904-3.78418Q27.7832-10.4492 25.1221-18.4326Q22.4609-26.416 22.4609-35.2539Q22.4609-44.1406 25.1221-52.124Q27.7832-60.1074 32.666-66.748Q37.5488-73.3887 44.165-78.2715Q50.7812-83.1543 58.7891-85.8154Q66.7969-88.4766 75.6348-88.4766Q84.4727-88.4766 92.4805-85.8154Q100.488-83.1543 107.129-78.2715Q113.77-73.3887 118.652-66.748Q123.535-60.1074 126.221-52.124Q128.906-44.1406 128.906-35.2539Q128.955-26.416 126.294-18.4326Q123.633-10.4492 118.726-3.78418Q113.818 2.88086 107.178 7.76367Q100.537 12.6465 92.5293 15.332Q84.5215 18.0176 75.6836 18.0176Z"/>
   <path class="hierarchical-1:primary SFSymbolsPreview212121" d="M43.5059-27.7832Q43.5059-20.4102 46.7529-15.0146Q50-9.61914 55.6885-6.66504Q61.377-3.71094 68.7012-3.71094Q69.043-3.71094 70.3613-3.71094Q71.6797-3.71094 73.3154-3.71094Q74.9512-3.71094 76.2451-3.71094Q77.5391-3.71094 77.7344-3.71094Q79.7852-3.71094 81.1035-4.8584Q82.4219-6.00586 82.4219-8.05664Q82.4219-10.1074 81.1035-11.2305Q79.7852-12.3535 77.832-12.3535Q77.6367-12.3535 76.3428-12.3535Q75.0488-12.3535 73.3887-12.3535Q71.7285-12.3535 70.3857-12.3535Q69.043-12.3535 68.7012-12.3535Q61.5234-12.3535 56.958-16.626Q52.3926-20.8984 52.3926-28.125Q52.3926-32.9102 54.5166-36.2793Q56.6406-39.6484 60.3027-41.4551Q63.9648-43.2617 68.6523-43.2617L88.4766-43.2617L95.2637-43.5059L91.748-40.918L83.3496-32.959Q82.666-32.3242 82.3486-31.5186Q82.0312-30.7129 82.0312-29.8828Q82.0312-28.0762 83.252-26.8311Q84.4727-25.5859 86.2305-25.5859Q88.0859-25.5859 89.2578-26.8066L106.104-43.9453Q107.666-45.5078 107.666-47.5098Q107.666-49.5117 106.104-51.0742L89.3066-68.1152Q88.1348-69.3848 86.3281-69.3848Q84.4727-69.3848 83.252-68.1396Q82.0312-66.8945 82.0312-65.0879Q82.0312-63.2812 83.3984-62.0117L90.8203-54.834L95.2637-51.3672L88.4766-51.6602L68.6523-51.6602Q61.377-51.6602 55.6885-48.7305Q50-45.8008 46.7529-40.4785Q43.5059-35.1562 43.5059-27.7832Z"/>
  </g>
  <g id="Regular-L" transform="matrix(1 0 0 1 1374.97 1556)">
   <path class="hierarchical-0:secondary SFSymbolsPreview4D4D4D" d="M74.8535 28.3203Q85.3027 28.3203 94.7998 25.0732Q104.297 21.8262 112.256 15.9668Q120.215 10.1074 126.099 2.14844Q131.982-5.81055 135.229-15.332Q138.477-24.8535 138.477-35.2539Q138.477-45.7031 135.229-55.2002Q131.982-64.6973 126.099-72.6562Q120.215-80.6152 112.256-86.499Q104.297-92.3828 94.7754-95.6299Q85.2539-98.877 74.8047-98.877Q64.3555-98.877 54.8584-95.6299Q45.3613-92.3828 37.4268-86.499Q29.4922-80.6152 23.6084-72.6562Q17.7246-64.6973 14.502-55.2002Q11.2793-45.7031 11.2793-35.2539Q11.2793-24.8535 14.5264-15.332Q17.7734-5.81055 23.6328 2.14844Q29.4922 10.1074 37.4512 15.9668Q45.4102 21.8262 54.9072 25.0732Q64.4043 28.3203 74.8535 28.3203ZM74.8535 19.2383Q65.8203 19.2383 57.6416 16.4795Q49.4629 13.7207 42.6758 8.74023Q35.8887 3.75977 30.8838-3.05176Q25.8789-9.86328 23.1445-18.042Q20.4102-26.2207 20.4102-35.2539Q20.4102-44.3359 23.1445-52.5146Q25.8789-60.6934 30.8594-67.5049Q35.8398-74.3164 42.627-79.2969Q49.4141-84.2773 57.5928-87.0117Q65.7715-89.7461 74.8047-89.7461Q83.8867-89.7461 92.0654-87.0117Q100.244-84.2773 107.056-79.2969Q113.867-74.3164 118.848-67.5049Q123.828-60.6934 126.587-52.5146Q129.346-44.3359 129.346-35.2539Q129.395-26.2207 126.66-18.042Q123.926-9.86328 118.921-3.05176Q113.916 3.75977 107.104 8.74023Q100.293 13.7207 92.1143 16.4795Q83.9355 19.2383 74.8535 19.2383Z"/>
   <path class="hierarchical-1:primary SFSymbolsPreview212121" d="M42.8711-27.6367Q42.8711-20.3613 46.1182-15.0146Q49.3652-9.66797 55.0293-6.7627Q60.6934-3.85742 67.9199-3.85742Q68.3105-3.85742 69.6777-3.85742Q71.0449-3.85742 72.6807-3.85742Q74.3164-3.85742 75.5615-3.85742Q76.8066-3.85742 76.9531-3.85742Q78.7598-3.85742 79.9316-4.8584Q81.1035-5.85938 81.1035-7.71484Q81.1035-9.57031 79.9316-10.5957Q78.7598-11.6211 77.0508-11.6211Q76.9531-11.6211 75.6836-11.6211Q74.4141-11.6211 72.7539-11.6211Q71.0938-11.6211 69.7021-11.6211Q68.3105-11.6211 67.9199-11.6211Q60.4492-11.6211 55.6396-16.04Q50.8301-20.459 50.8301-28.0273Q50.8301-33.0078 53.0518-36.4746Q55.2734-39.9414 59.1309-41.7969Q62.9883-43.6523 67.8711-43.6523L88.1348-43.6523L95.4102-43.8965L91.8945-41.2598L83.0078-32.6172Q82.373-32.0312 82.0801-31.2744Q81.7871-30.5176 81.7871-29.7363Q81.7871-28.0762 82.8857-26.9287Q83.9844-25.7812 85.6445-25.7812Q87.3047-25.7812 88.4277-26.9531L105.225-44.0918Q106.738-45.6055 106.738-47.4609Q106.738-49.4141 105.225-50.8789L88.4766-67.9199Q87.3535-69.0918 85.6934-69.0918Q83.9844-69.0918 82.8857-67.9688Q81.7871-66.8457 81.7871-65.1367Q81.7871-63.4766 83.0566-62.3047L90.8691-54.6387L95.4102-51.0254L88.1348-51.2695L67.8711-51.2695Q60.6445-51.2695 54.9805-48.3887Q49.3164-45.5078 46.0938-40.2344Q42.8711-34.9609 42.8711-27.6367Z"/>
  </g>
  <g id="Light-L" transform="matrix(1 0 0 1 1079.18 1556)">
   <path class="hierarchical-0:secondary SFSymbolsPreview4D4D4D" d="M73.9258 27.3926Q84.2285 27.3926 93.6035 24.1943Q102.979 20.9961 110.815 15.2344Q118.652 9.47266 124.438 1.63574Q130.225-6.20117 133.423-15.5762Q136.621-24.9512 136.621-35.2539Q136.621-45.5566 133.423-54.9316Q130.225-64.3066 124.438-72.1436Q118.652-79.9805 110.815-85.7666Q102.979-91.5527 93.6035-94.751Q84.2285-97.9492 73.877-97.9492Q63.5742-97.9492 54.2236-94.751Q44.873-91.5527 37.0361-85.7666Q29.1992-79.9805 23.4131-72.1436Q17.627-64.3066 14.4531-54.9316Q11.2793-45.5566 11.2793-35.2539Q11.2793-24.9512 14.4775-15.5762Q17.6758-6.20117 23.4375 1.63574Q29.1992 9.47266 37.0361 15.2344Q44.873 20.9961 54.248 24.1943Q63.623 27.3926 73.9258 27.3926ZM73.9258 20.5078Q64.6973 20.5078 56.3232 17.6758Q47.9492 14.8438 40.9912 9.74121Q34.0332 4.63867 28.9307-2.31934Q23.8281-9.27734 21.0205-17.6514Q18.2129-26.0254 18.2129-35.2539Q18.2129-44.5312 21.0205-52.8809Q23.8281-61.2305 28.9307-68.2129Q34.0332-75.1953 40.9912-80.2979Q47.9492-85.4004 56.2988-88.208Q64.6484-91.0156 73.877-91.0156Q83.1543-91.0156 91.5283-88.208Q99.9023-85.4004 106.86-80.2979Q113.818-75.1953 118.945-68.2129Q124.072-61.2305 126.88-52.8809Q129.688-44.5312 129.688-35.2539Q129.736-26.0254 126.929-17.6514Q124.121-9.27734 118.994-2.31934Q113.867 4.63867 106.909 9.74121Q99.9512 14.8438 91.5771 17.6758Q83.2031 20.5078 73.9258 20.5078Z"/>
   <path class="hierarchical-1:primary SFSymbolsPreview212121" d="M42.8223-27.7832Q42.8223-20.8496 45.9229-15.7471Q49.0234-10.6445 54.4678-7.83691Q59.9121-5.0293 66.9922-5.0293Q67.5293-5.0293 68.9941-5.0293Q70.459-5.0293 72.1436-5.0293Q73.8281-5.0293 75.1221-5.0293Q76.416-5.0293 76.5625-5.0293Q77.9785-5.0293 78.8574-5.81055Q79.7363-6.5918 79.7363-8.05664Q79.7363-9.47266 78.8574-10.2783Q77.9785-11.084 76.6113-11.084Q76.5137-11.084 75.2197-11.084Q73.9258-11.084 72.1924-11.084Q70.459-11.084 68.9941-11.084Q67.5293-11.084 66.9922-11.084Q59.0332-11.084 54.0283-15.6738Q49.0234-20.2637 49.0234-27.9785Q49.0234-33.1543 51.3184-36.8164Q53.6133-40.4785 57.666-42.4561Q61.7188-44.4336 66.9434-44.4336L89.2578-44.4336L96.2402-44.6289L92.9199-42.0898L82.666-31.9824Q82.1289-31.4941 81.8848-30.9082Q81.6406-30.3223 81.6406-29.6875Q81.6406-28.3691 82.4951-27.4658Q83.3496-26.5625 84.668-26.5625Q85.9863-26.5625 86.9141-27.5391L103.662-44.6289Q104.883-45.8496 104.883-47.4121Q104.883-49.0234 103.662-50.2441L86.9141-67.2852Q85.9863-68.2129 84.668-68.2129Q83.3496-68.2129 82.4951-67.334Q81.6406-66.4551 81.6406-65.1367Q81.6406-63.8672 82.666-62.8418L92.2852-53.3691L96.2402-50.1953L89.2578-50.3906L66.9434-50.3906Q59.8633-50.3906 54.4189-47.6074Q48.9746-44.8242 45.8984-39.7705Q42.8223-34.7168 42.8223-27.7832Z"/>
  </g>
  <g id="Thin-L" transform="matrix(1 0 0 1 783.693 1556)">
   <path class="hierarchical-0:secondary SFSymbolsPreview4D4D4D" d="M72.7051 26.1719Q82.8613 26.1719 92.041 23.0469Q101.221 19.9219 108.911 14.2822Q116.602 8.64258 122.266 0.952148Q127.93-6.73828 131.055-15.9424Q134.18-25.1465 134.18-35.2539Q134.18-45.4102 131.055-54.5898Q127.93-63.7695 122.29-71.46Q116.65-79.1504 108.936-84.8145Q101.221-90.4785 92.0166-93.6035Q82.8125-96.7285 72.7051-96.7285Q62.5488-96.7285 53.3691-93.6035Q44.1895-90.4785 36.499-84.8145Q28.8086-79.1504 23.1689-71.46Q17.5293-63.7695 14.4043-54.5898Q11.2793-45.4102 11.2793-35.2539Q11.2793-25.1465 14.4043-15.9424Q17.5293-6.73828 23.1689 0.952148Q28.8086 8.64258 36.5234 14.2822Q44.2383 19.9219 53.418 23.0469Q62.5977 26.1719 72.7051 26.1719ZM72.7051 22.168Q63.2324 22.168 54.6143 19.2627Q45.9961 16.3574 38.8184 11.084Q31.6406 5.81055 26.3428-1.36719Q21.0449-8.54492 18.1641-17.1631Q15.2832-25.7812 15.2832-35.2539Q15.2832-44.7754 18.1641-53.3936Q21.0449-62.0117 26.3428-69.1895Q31.6406-76.3672 38.8184-81.6406Q45.9961-86.9141 54.5898-89.8193Q63.1836-92.7246 72.7051-92.7246Q82.2266-92.7246 90.8203-89.8193Q99.4141-86.9141 106.616-81.6406Q113.818-76.3672 119.092-69.1895Q124.365-62.0117 127.271-53.3936Q130.176-44.7754 130.176-35.2539Q130.176-25.7812 127.271-17.1631Q124.365-8.54492 119.092-1.36719Q113.818 5.81055 106.641 11.084Q99.4629 16.3574 90.8447 19.2627Q82.2266 22.168 72.7051 22.168Z"/>
   <path class="hierarchical-1:primary SFSymbolsPreview212121" d="M42.8223-27.9297Q42.8223-21.4844 45.7275-16.6748Q48.6328-11.8652 53.7842-9.2041Q58.9355-6.54297 65.8203-6.54297Q66.5039-6.54297 68.0908-6.54297Q69.6777-6.54297 71.4844-6.54297Q73.291-6.54297 74.6094-6.54297Q75.9277-6.54297 76.0742-6.54297Q76.9531-6.54297 77.4902-7.05566Q78.0273-7.56836 78.0273-8.44727Q78.0273-9.32617 77.4902-9.86328Q76.9531-10.4004 76.0742-10.4004Q75.9766-10.4004 74.6338-10.4004Q73.291-10.4004 71.5088-10.4004Q69.7266-10.4004 68.1152-10.4004Q66.5039-10.4004 65.8203-10.4004Q57.2266-10.4004 51.9531-15.1855Q46.6797-19.9707 46.6797-27.9297Q46.6797-33.3008 49.0723-37.207Q51.4648-41.1133 55.7861-43.2861Q60.1074-45.459 65.8203-45.459L90.7715-45.459L97.4121-45.6055L94.3848-43.1641L82.2754-31.1523Q81.8848-30.8105 81.665-30.4199Q81.4453-30.0293 81.4453-29.5898Q81.4453-28.7598 81.9824-28.1738Q82.5195-27.5879 83.4473-27.5879Q84.3262-27.5879 84.9121-28.2227L101.66-45.3125Q102.539-46.1914 102.539-47.3633Q102.539-48.5352 101.66-49.4141L84.9121-66.4551Q84.2773-67.0898 83.4473-67.0898Q82.5195-67.0898 81.9824-66.5283Q81.4453-65.9668 81.4453-65.0879Q81.4453-64.3555 82.2754-63.5742L94.2871-51.6602L97.4121-49.0723L90.7715-49.2676L65.8203-49.2676Q58.9355-49.2676 53.7598-46.6064Q48.584-43.9453 45.7031-39.1602Q42.8223-34.375 42.8223-27.9297Z"/>
  </g>
  <g id="Ultralight-L" transform="matrix(1 0 0 1 487.592 1556)">
   <path class="hierarchical-0:secondary SFSymbolsPreview4D4D4D" d="M72.0703 25.5371Q82.1289 25.5371 91.2354 22.4609Q100.342 19.3848 107.935 13.7939Q115.527 8.20312 121.143 0.585938Q126.758-7.03125 129.858-16.1133Q132.959-25.1953 132.959-35.2539Q132.959-45.3125 129.858-54.4189Q126.758-63.5254 121.167-71.1182Q115.576-78.7109 107.959-84.3262Q100.342-89.9414 91.2354-93.0176Q82.1289-96.0938 72.0703-96.0938Q62.0605-96.0938 52.9541-93.0176Q43.8477-89.9414 36.2305-84.3262Q28.6133-78.7109 23.0225-71.1182Q17.4316-63.5254 14.3555-54.4189Q11.2793-45.3125 11.2793-35.2539Q11.2793-25.1953 14.3555-16.1133Q17.4316-7.03125 23.0225 0.585938Q28.6133 8.20312 36.2305 13.7939Q43.8477 19.3848 52.9541 22.4609Q62.0605 25.5371 72.0703 25.5371ZM72.0703 23.0469Q62.4512 23.0469 53.7109 20.0928Q44.9707 17.1387 37.6709 11.792Q30.3711 6.44531 25.0244-0.854492Q19.6777-8.1543 16.7236-16.8945Q13.7695-25.6348 13.7695-35.2539Q13.7695-44.9219 16.7236-53.6377Q19.6777-62.3535 25.0244-69.6533Q30.3711-76.9531 37.6953-82.3242Q45.0195-87.6953 53.7354-90.6494Q62.4512-93.6035 72.0703-93.6035Q81.7383-93.6035 90.4785-90.6494Q99.2188-87.6953 106.494-82.3242Q113.77-76.9531 119.141-69.6533Q124.512-62.3535 127.466-53.6377Q130.42-44.9219 130.42-35.2539Q130.371-25.6348 127.441-16.8945Q124.512-8.1543 119.141-0.854492Q113.77 6.44531 106.494 11.792Q99.2188 17.1387 90.4785 20.0928Q81.7383 23.0469 72.0703 23.0469Z"/>
   <path class="hierarchical-1:primary SFSymbolsPreview212121" d="M42.7734-28.0273Q42.7734-21.8262 45.5566-17.1875Q48.3398-12.5488 53.3691-9.96094Q58.3984-7.37305 65.1367-7.37305Q65.9668-7.37305 67.627-7.37305Q69.2871-7.37305 71.1182-7.37305Q72.9492-7.37305 74.3164-7.37305Q75.6836-7.37305 75.8301-7.37305Q76.416-7.37305 76.7578-7.73926Q77.0996-8.10547 77.0996-8.69141Q77.0996-9.27734 76.7578-9.66797Q76.416-10.0586 75.7812-10.0586Q75.6836-10.0586 74.3164-10.0586Q72.9492-10.0586 71.1182-10.0586Q69.2871-10.0586 67.627-10.0586Q65.9668-10.0586 65.1367-10.0586Q56.25-10.0586 50.8301-14.9658Q45.4102-19.873 45.4102-27.9297Q45.4102-33.3984 47.8516-37.4512Q50.293-41.5039 54.7607-43.7744Q59.2285-46.0449 65.1855-46.0449L91.5039-46.0449L97.998-46.1426L95.0684-43.75L81.9824-30.7617Q81.7383-30.4688 81.543-30.2002Q81.3477-29.9316 81.3477-29.541Q81.3477-28.9551 81.7139-28.5645Q82.0801-28.1738 82.7637-28.1738Q83.3984-28.1738 83.8867-28.6621L100.586-45.7031Q101.27-46.3867 101.27-47.3145Q101.27-48.291 100.586-48.9746L83.8379-66.0645Q83.3496-66.5039 82.7148-66.5039Q82.0801-66.5039 81.7139-66.1133Q81.3477-65.7227 81.3477-65.0879Q81.3477-64.5996 81.9824-63.9648L95.2148-50.7812L97.998-48.5352L91.5039-48.6816L65.1855-48.6816Q58.3984-48.6816 53.3691-46.0938Q48.3398-43.5059 45.5566-38.8428Q42.7734-34.1797 42.7734-28.0273Z"/>
  </g>
  <g id="Black-M" transform="matrix(1 0 0 1 2871.32 1126)">
   <path class="hierarchical-0:secondary SFSymbolsPreview4D4D4D" d="M62.0605 18.1152Q73.0957 18.1152 82.7637 13.9648Q92.4316 9.81445 99.7559 2.46582Q107.08-4.88281 111.255-14.5264Q115.43-24.1699 115.43-35.2051Q115.43-46.2402 111.255-55.8838Q107.08-65.5273 99.7559-72.876Q92.4316-80.2246 82.7637-84.375Q73.0957-88.5254 62.0605-88.5254Q51.0742-88.5254 41.4062-84.375Q31.7383-80.2246 24.3896-72.876Q17.041-65.5273 12.8906-55.8838Q8.74023-46.2402 8.74023-35.2051Q8.74023-24.1699 12.8906-14.5264Q17.041-4.88281 24.3896 2.46582Q31.7383 9.81445 41.4062 13.9648Q51.0742 18.1152 62.0605 18.1152ZM62.0605 0.732422Q54.6387 0.732422 48.1201-2.05078Q41.6016-4.83398 36.6455-9.76562Q31.6895-14.6973 28.9062-21.2158Q26.123-27.7344 26.123-35.2051Q26.123-42.6758 28.9062-49.1943Q31.6895-55.7129 36.6455-60.6445Q41.6016-65.5762 48.1201-68.3594Q54.6387-71.1426 62.0605-71.1426Q69.5312-71.1426 76.0498-68.3594Q82.5684-65.5762 87.5-60.6445Q92.4316-55.7129 95.2393-49.1943Q98.0469-42.6758 98.0469-35.2051Q98.0469-27.7344 95.2393-21.2158Q92.4316-14.6973 87.5-9.76562Q82.5684-4.83398 76.0498-2.05078Q69.5312 0.732422 62.0605 0.732422Z"/>
   <path class="hierarchical-1:primary SFSymbolsPreview212121" d="M36.7676-30.127Q36.7676-24.2188 39.2578-19.7754Q41.748-15.332 46.2158-12.8662Q50.6836-10.4004 56.5918-10.4004Q56.6406-10.4004 58.2031-10.4004Q59.7656-10.4004 61.499-10.4004Q63.2324-10.4004 63.8672-10.4004Q66.4551-10.4004 68.0664-11.8652Q69.6777-13.3301 69.6777-15.7227Q69.6777-18.0664 68.042-19.4336Q66.4062-20.8008 63.8184-20.8008Q63.1836-20.8008 61.4746-20.8008Q59.7656-20.8008 58.2031-20.8008Q56.6406-20.8008 56.5918-20.8008Q52.4414-20.8008 49.9268-23.3887Q47.4121-25.9766 47.4121-30.1758Q47.4121-34.4727 49.9512-37.085Q52.4902-39.6973 56.6895-39.6973L70.5078-39.6973L73.4863-40.0879L70.8008-38.2324L66.2598-34.7656Q64.6973-33.5938 64.6973-31.6406Q64.6973-29.7363 66.1621-28.3203Q67.627-26.9043 69.4336-26.9043Q71.4355-26.9043 72.7051-28.2227L85.9375-41.5039Q87.3047-42.8711 87.3047-44.7754Q87.3047-46.6309 85.9375-48.0957L72.7539-61.4258Q71.4844-62.793 69.5801-62.793Q67.7734-62.793 66.3086-61.3525Q64.8438-59.9121 64.8438-58.0566Q64.8438-56.1523 66.2598-54.8828L70.6543-50.9766L73.4863-49.0723L70.5078-49.4141L56.6895-49.4141Q50.7812-49.4141 46.2891-46.9971Q41.7969-44.5801 39.2822-40.2588Q36.7676-35.9375 36.7676-30.127Z"/>
  </g>
  <g id="Heavy-M" transform="matrix(1 0 0 1 2575.43 1126)">
   <path class="hierarchical-0:secondary SFSymbolsPreview4D4D4D" d="M61.2305 17.2852Q72.0703 17.2852 81.5918 13.1836Q91.1133 9.08203 98.3154 1.85547Q105.518-5.37109 109.644-14.8682Q113.77-24.3652 113.77-35.2051Q113.77-46.0449 109.644-55.542Q105.518-65.0391 98.3154-72.29Q91.1133-79.541 81.5918-83.6182Q72.0703-87.6953 61.2305-87.6953Q50.4395-87.6953 40.918-83.6182Q31.3965-79.541 24.1699-72.29Q16.9434-65.0391 12.8418-55.542Q8.74023-46.0449 8.74023-35.2051Q8.74023-24.3652 12.8418-14.8682Q16.9434-5.37109 24.1699 1.85547Q31.3965 9.08203 40.918 13.1836Q50.4395 17.2852 61.2305 17.2852ZM61.2305 2.05078Q53.5156 2.05078 46.7529-0.854492Q39.9902-3.75977 34.8633-8.8623Q29.7363-13.9648 26.8555-20.7275Q23.9746-27.4902 23.9746-35.2051Q23.9746-42.9688 26.8555-49.7314Q29.7363-56.4941 34.8633-61.5967Q39.9902-66.6992 46.7529-69.5801Q53.5156-72.4609 61.2305-72.4609Q68.9453-72.4609 75.708-69.5801Q82.4707-66.6992 87.5977-61.5967Q92.7246-56.4941 95.6299-49.7314Q98.5352-42.9688 98.5352-35.2051Q98.5352-27.4902 95.6299-20.7275Q92.7246-13.9648 87.6221-8.8623Q82.5195-3.75977 75.7568-0.854492Q68.9941 2.05078 61.2305 2.05078Z"/>
   <path class="hierarchical-1:primary SFSymbolsPreview212121" d="M35.9375-29.9316Q35.9375-24.0234 38.4521-19.6289Q40.9668-15.2344 45.4346-12.793Q49.9023-10.3516 55.7617-10.3516Q55.9082-10.3516 57.4707-10.3516Q59.0332-10.3516 60.7178-10.3516Q62.4023-10.3516 62.9395-10.3516Q65.2832-10.3516 66.7725-11.6943Q68.2617-13.0371 68.2617-15.2344Q68.2617-17.4316 66.748-18.7012Q65.2344-19.9707 62.8906-19.9707Q62.4023-19.9707 60.7178-19.9707Q59.0332-19.9707 57.4707-19.9707Q55.9082-19.9707 55.7617-19.9707Q51.3184-19.9707 48.5352-22.7295Q45.752-25.4883 45.752-30.0293Q45.752-34.668 48.5596-37.3779Q51.3672-40.0879 55.8594-40.0879L69.8242-40.0879L73.4863-40.4297L70.752-38.5254L65.8203-34.4727Q64.4043-33.3496 64.4043-31.4941Q64.4043-29.6875 65.7715-28.3691Q67.1387-27.0508 68.8477-27.0508Q70.7031-27.0508 71.9238-28.2715L85.1074-41.5527Q86.4746-42.9199 86.4746-44.7754Q86.4746-46.582 85.1074-47.998L71.9727-61.2793Q70.752-62.5977 68.9453-62.5977Q67.2363-62.5977 65.8691-61.2549Q64.502-59.9121 64.502-58.1543Q64.502-56.3477 65.8691-55.127L70.4102-50.9766L73.4863-48.8281L69.8242-49.1211L55.8594-49.1211Q50-49.1211 45.5078-46.7285Q41.0156-44.3359 38.4766-40.0391Q35.9375-35.7422 35.9375-29.9316Z"/>
  </g>
  <g id="Bold-M" transform="matrix(1 0 0 1 2279.65 1126)">
   <path class="hierarchical-0:secondary SFSymbolsPreview4D4D4D" d="M60.3027 16.3574Q70.9473 16.3574 80.2734 12.3291Q89.5996 8.30078 96.7041 1.17188Q103.809-5.95703 107.861-15.2832Q111.914-24.6094 111.914-35.2539Q111.914-45.8496 107.861-55.1758Q103.809-64.502 96.7041-71.6309Q89.5996-78.7598 80.249-82.7881Q70.8984-86.8164 60.3027-86.8164Q49.707-86.8164 40.3564-82.7881Q31.0059-78.7598 23.9014-71.6309Q16.7969-64.502 12.7686-55.1758Q8.74023-45.8496 8.74023-35.2539Q8.74023-24.6094 12.7686-15.2832Q16.7969-5.95703 23.9258 1.17188Q31.0547 8.30078 40.3809 12.3291Q49.707 16.3574 60.3027 16.3574ZM60.3027 3.51562Q52.2949 3.51562 45.2637 0.488281Q38.2324-2.53906 32.9102-7.83691Q27.5879-13.1348 24.6094-20.166Q21.6309-27.1973 21.6309-35.2539Q21.6309-43.3105 24.6094-50.3174Q27.5879-57.3242 32.9102-62.6465Q38.2324-67.9688 45.2393-70.9717Q52.2461-73.9746 60.3027-73.9746Q68.3594-73.9746 75.3662-70.9717Q82.373-67.9688 87.6953-62.6465Q93.0176-57.3242 96.0449-50.3174Q99.0723-43.3105 99.0723-35.2539Q99.0723-27.1973 96.0693-20.166Q93.0664-13.1348 87.7441-7.83691Q82.4219-2.53906 75.3906 0.488281Q68.3594 3.51562 60.3027 3.51562Z"/>
   <path class="hierarchical-1:primary SFSymbolsPreview212121" d="M35.0098-29.6875Q35.0098-23.8281 37.5732-19.458Q40.1367-15.0879 44.6045-12.6953Q49.0723-10.3027 54.8828-10.3027Q55.0781-10.3027 56.6406-10.3027Q58.2031-10.3027 59.8389-10.3027Q61.4746-10.3027 61.8652-10.3027Q63.9648-10.3027 65.3076-11.499Q66.6504-12.6953 66.6504-14.7461Q66.6504-16.748 65.3076-17.8711Q63.9648-18.9941 61.9141-18.9941Q61.5234-18.9941 59.8877-18.9941Q58.252-18.9941 56.665-18.9941Q55.0781-18.9941 54.8828-18.9941Q50.0488-18.9941 46.9971-21.9727Q43.9453-24.9512 43.9453-29.9316Q43.9453-34.9121 47.0459-37.7197Q50.1465-40.5273 54.9316-40.5273L69.0918-40.5273L73.4863-40.8203L70.752-38.8184L65.3809-34.1797Q64.1113-33.1055 64.1113-31.3477Q64.1113-29.6387 65.332-28.418Q66.5527-27.1973 68.1641-27.1973Q69.9219-27.1973 71.0938-28.3691L84.1797-41.6504Q85.5469-42.9688 85.5469-44.7754Q85.5469-46.5332 84.1797-47.9004L71.1426-61.1816Q69.9707-62.4023 68.2617-62.4023Q66.6504-62.4023 65.4053-61.1572Q64.1602-59.9121 64.1602-58.252Q64.1602-56.543 65.4297-55.3711L70.166-50.9766L73.4863-48.5352L69.0918-48.7793L54.9316-48.7793Q49.1211-48.7793 44.6289-46.4355Q40.1367-44.0918 37.5732-39.8193Q35.0098-35.5469 35.0098-29.6875Z"/>
  </g>
  <g id="Semibold-M" transform="matrix(1 0 0 1 1983.6 1126)">
   <path class="hierarchical-0:secondary SFSymbolsPreview4D4D4D" d="M59.668 15.6738Q70.1172 15.6738 79.3457 11.6943Q88.5742 7.71484 95.6055 0.683594Q102.637-6.34766 106.616-15.5518Q110.596-24.7559 110.596-35.2539Q110.596-45.7031 106.616-54.9072Q102.637-64.1113 95.6055-71.1426Q88.5742-78.1738 79.3457-82.1777Q70.1172-86.1816 59.6191-86.1816Q49.1699-86.1816 39.9658-82.1777Q30.7617-78.1738 23.7305-71.1426Q16.6992-64.1113 12.7197-54.9072Q8.74023-45.7031 8.74023-35.2539Q8.74023-24.7559 12.7197-15.5518Q16.6992-6.34766 23.7305 0.683594Q30.7617 7.71484 39.9902 11.6943Q49.2188 15.6738 59.668 15.6738ZM59.668 4.49219Q51.416 4.49219 44.2139 1.41602Q37.0117-1.66016 31.543-7.10449Q26.0742-12.5488 23.0225-19.751Q19.9707-26.9531 19.9707-35.2539Q19.9707-43.5059 23.0225-50.708Q26.0742-57.9102 31.5186-63.3789Q36.9629-68.8477 44.165-71.8994Q51.3672-74.9512 59.6191-74.9512Q67.9199-74.9512 75.1221-71.8994Q82.3242-68.8477 87.7686-63.3789Q93.2129-57.9102 96.3135-50.708Q99.4141-43.5059 99.4141-35.2539Q99.4141-26.9531 96.3379-19.751Q93.2617-12.5488 87.8174-7.10449Q82.373-1.66016 75.1465 1.41602Q67.9199 4.49219 59.668 4.49219Z"/>
   <path class="hierarchical-1:primary SFSymbolsPreview212121" d="M34.3262-29.5898Q34.3262-23.6816 36.8896-19.3604Q39.4531-15.0391 43.9453-12.6709Q48.4375-10.3027 54.1992-10.3027Q54.4434-10.3027 56.0059-10.3027Q57.5684-10.3027 59.1797-10.3027Q60.791-10.3027 61.084-10.3027Q63.0371-10.3027 64.2822-11.4014Q65.5273-12.5 65.5273-14.4043Q65.5273-16.3086 64.2822-17.3584Q63.0371-18.4082 61.1328-18.4082Q60.8887-18.4082 59.2773-18.4082Q57.666-18.4082 56.0547-18.4082Q54.4434-18.4082 54.1992-18.4082Q49.1211-18.4082 45.874-21.5088Q42.627-24.6094 42.627-29.834Q42.627-35.1074 45.9229-37.9883Q49.2188-40.8691 54.1992-40.8691L68.5547-40.8691L73.4375-41.1133L70.6543-39.0625L65.0391-33.9844Q63.8184-32.959 63.8184-31.25Q63.8184-29.6387 64.9658-28.4912Q66.1133-27.3438 67.6758-27.3438Q69.3359-27.3438 70.4102-28.418L83.4961-41.748Q84.8145-43.0664 84.8145-44.7754Q84.8145-46.5332 83.4961-47.9004L70.459-61.084Q69.3848-62.2559 67.7246-62.2559Q66.1621-62.2559 65.0146-61.1084Q63.8672-59.9609 63.8672-58.3496Q63.8672-56.6895 65.0391-55.6152L69.9219-51.0254L73.4375-48.3398L68.5547-48.584L54.1992-48.584Q48.4375-48.584 43.9453-46.2646Q39.4531-43.9453 36.8896-39.6973Q34.3262-35.4492 34.3262-29.5898Z"/>
  </g>
  <g id="Medium-M" transform="matrix(1 0 0 1 1687.38 1126)">
   <path class="hierarchical-0:secondary SFSymbolsPreview4D4D4D" d="M59.1797 15.1855Q69.5312 15.1855 78.6621 11.2305Q87.793 7.27539 94.751 0.317383Q101.709-6.64062 105.664-15.7715Q109.619-24.9023 109.619-35.2539Q109.619-45.6055 105.664-54.7363Q101.709-63.8672 94.751-70.8252Q87.793-77.7832 78.6377-81.7383Q69.4824-85.6934 59.1309-85.6934Q48.7793-85.6934 39.6484-81.7383Q30.5176-77.7832 23.584-70.8252Q16.6504-63.8672 12.6953-54.7363Q8.74023-45.6055 8.74023-35.2539Q8.74023-24.9023 12.6953-15.7715Q16.6504-6.64062 23.6084 0.317383Q30.5664 7.27539 39.6973 11.2305Q48.8281 15.1855 59.1797 15.1855ZM59.1797 5.27344Q50.7324 5.27344 43.4082 2.12402Q36.084-1.02539 30.5176-6.5918Q24.9512-12.1582 21.8262-19.4824Q18.7012-26.8066 18.7012-35.2539Q18.7012-43.7012 21.8262-51.0254Q24.9512-58.3496 30.4932-63.916Q36.0352-69.4824 43.3838-72.6074Q50.7324-75.7324 59.1309-75.7324Q67.5781-75.7324 74.9023-72.6074Q82.2266-69.4824 87.8174-63.916Q93.4082-58.3496 96.5576-51.0254Q99.707-43.7012 99.707-35.2539Q99.707-26.8066 96.582-19.4824Q93.457-12.1582 87.8906-6.5918Q82.3242-1.02539 74.9756 2.12402Q67.627 5.27344 59.1797 5.27344Z"/>
   <path class="hierarchical-1:primary SFSymbolsPreview212121" d="M33.8379-29.4434Q33.8379-23.584 36.4258-19.2871Q39.0137-14.9902 43.5059-12.6465Q47.998-10.3027 53.7598-10.3027Q54.0039-10.3027 55.5908-10.3027Q57.1777-10.3027 58.7402-10.3027Q60.3027-10.3027 60.5469-10.3027Q62.3047-10.3027 63.4766-11.3037Q64.6484-12.3047 64.6484-14.1113Q64.6484-15.9668 63.501-16.9189Q62.3535-17.8711 60.5957-17.8711Q60.4004-17.8711 58.8135-17.8711Q57.2266-17.8711 55.6152-17.8711Q54.0039-17.8711 53.7598-17.8711Q48.4863-17.8711 45.0684-21.0938Q41.6504-24.3164 41.6504-29.7852Q41.6504-35.2051 45.0928-38.1348Q48.5352-41.0645 53.7109-41.0645L68.1152-41.0645L73.4375-41.3086L70.6543-39.2578L64.7949-33.7891Q63.6719-32.8125 63.6719-31.1523Q63.6719-29.5898 64.7461-28.4912Q65.8203-27.3926 67.2852-27.3926Q68.8965-27.3926 69.9707-28.4668L83.0078-41.7969Q84.3262-43.0664 84.3262-44.7754Q84.3262-46.5332 83.0078-47.8027L70.0195-61.0352Q68.9453-62.1582 67.3828-62.1582Q65.8691-62.1582 64.7705-61.0596Q63.6719-59.9609 63.6719-58.3984Q63.6719-56.7871 64.7949-55.7129L69.7754-51.0254L73.4375-48.1934L68.1152-48.4375L53.7109-48.4375Q47.9492-48.4375 43.457-46.1426Q38.9648-43.8477 36.4014-39.5996Q33.8379-35.3516 33.8379-29.4434Z"/>
  </g>
  <g id="Regular-M" transform="matrix(1 0 0 1 1391.3 1126)">
   <path class="hierarchical-0:secondary SFSymbolsPreview4D4D4D" d="M58.5449 14.5508Q68.75 14.5508 77.7588 10.6445Q86.7676 6.73828 93.6523-0.146484Q100.537-7.03125 104.443-16.04Q108.35-25.0488 108.35-35.2539Q108.35-45.459 104.443-54.4678Q100.537-63.4766 93.6523-70.3613Q86.7676-77.2461 77.7344-81.1523Q68.7012-85.0586 58.4961-85.0586Q48.291-85.0586 39.2822-81.1523Q30.2734-77.2461 23.4131-70.3613Q16.5527-63.4766 12.6465-54.4678Q8.74023-45.459 8.74023-35.2539Q8.74023-25.0488 12.6465-16.04Q16.5527-7.03125 23.4375-0.146484Q30.3223 6.73828 39.3311 10.6445Q48.3398 14.5508 58.5449 14.5508ZM58.5449 6.25Q49.9023 6.25 42.3828 3.02734Q34.8633-0.195312 29.1748-5.88379Q23.4863-11.5723 20.2881-19.0918Q17.0898-26.6113 17.0898-35.2539Q17.0898-43.8965 20.2881-51.416Q23.4863-58.9355 29.1504-64.6484Q34.8145-70.3613 42.334-73.5596Q49.8535-76.7578 58.4961-76.7578Q67.1387-76.7578 74.6582-73.5596Q82.1777-70.3613 87.8906-64.6484Q93.6035-58.9355 96.8262-51.416Q100.049-43.8965 100.049-35.2539Q100.049-26.6113 96.8506-19.0918Q93.6523-11.5723 87.9639-5.88379Q82.2754-0.195312 74.7314 3.02734Q67.1875 6.25 58.5449 6.25Z"/>
   <path class="hierarchical-1:primary SFSymbolsPreview212121" d="M33.2031-29.2969Q33.2031-23.4375 35.8154-19.165Q38.4277-14.8926 42.9199-12.5732Q47.4121-10.2539 53.125-10.2539Q53.418-10.2539 55.0049-10.2539Q56.5918-10.2539 58.1299-10.2539Q59.668-10.2539 59.8145-10.2539Q61.4258-10.2539 62.5-11.1572Q63.5742-12.0605 63.5742-13.7695Q63.5742-15.4785 62.5244-16.3574Q61.4746-17.2363 59.9121-17.2363Q59.8145-17.2363 58.252-17.2363Q56.6895-17.2363 55.0537-17.2363Q53.418-17.2363 53.125-17.2363Q47.6074-17.2363 43.9941-20.5811Q40.3809-23.9258 40.3809-29.6875Q40.3809-35.3516 44.043-38.3545Q47.7051-41.3574 53.0762-41.3574L67.627-41.3574L73.4375-41.5527L70.6055-39.4531L64.4531-33.5938Q63.4277-32.6172 63.4277-31.0547Q63.4277-29.541 64.4287-28.5156Q65.4297-27.4902 66.8457-27.4902Q68.3594-27.4902 69.3848-28.5156L82.373-41.8457Q83.6914-43.1152 83.6914-44.7754Q83.6914-46.4844 82.373-47.7539L69.4336-60.9375Q68.4082-62.0117 66.8945-62.0117Q65.4297-62.0117 64.4287-60.9863Q63.4277-59.9609 63.4277-58.4473Q63.4277-56.9336 64.502-55.9082L69.5801-51.0254L73.4375-47.998L67.627-48.1934L53.0762-48.1934Q47.3633-48.1934 42.8711-45.9229Q38.3789-43.6523 35.791-39.4287Q33.2031-35.2051 33.2031-29.2969Z"/>
  </g>
  <g id="Light-M" transform="matrix(1 0 0 1 1095.42 1126)">
   <path class="hierarchical-0:secondary SFSymbolsPreview4D4D4D" d="M57.7148 13.7207Q67.7734 13.7207 76.6357 9.8877Q85.498 6.05469 92.2607-0.708008Q99.0234-7.4707 102.856-16.333Q106.689-25.1953 106.689-35.2539Q106.689-45.3125 102.856-54.1748Q99.0234-63.0371 92.2607-69.7998Q85.498-76.5625 76.6113-80.3955Q67.7246-84.2285 57.666-84.2285Q47.6074-84.2285 38.7451-80.3955Q29.8828-76.5625 23.1445-69.7998Q16.4062-63.0371 12.5732-54.1748Q8.74023-45.3125 8.74023-35.2539Q8.74023-25.1953 12.5732-16.333Q16.4062-7.4707 23.1689-0.708008Q29.9316 6.05469 38.7939 9.8877Q47.6562 13.7207 57.7148 13.7207ZM57.7148 7.37305Q48.877 7.37305 41.1377 4.07715Q33.3984 0.78125 27.5391-5.07812Q21.6797-10.9375 18.3838-18.6768Q15.0879-26.416 15.0879-35.2539Q15.0879-44.0918 18.3838-51.8311Q21.6797-59.5703 27.5391-65.4541Q33.3984-71.3379 41.1133-74.6338Q48.8281-77.9297 57.666-77.9297Q66.5527-77.9297 74.2676-74.6338Q81.9824-71.3379 87.8662-65.4541Q93.75-59.5703 97.0703-51.8311Q100.391-44.0918 100.391-35.2539Q100.391-26.416 97.0703-18.6768Q93.75-10.9375 87.915-5.07812Q82.0801 0.78125 74.3408 4.07715Q66.6016 7.37305 57.7148 7.37305Z"/>
   <path class="hierarchical-1:primary SFSymbolsPreview212121" d="M33.2031-29.4434Q33.2031-23.877 35.6689-19.8242Q38.1348-15.7715 42.4561-13.5498Q46.7773-11.3281 52.3438-11.3281Q52.7832-11.3281 54.4678-11.3281Q56.1523-11.3281 57.7637-11.3281Q59.375-11.3281 59.4727-11.3281Q60.7422-11.3281 61.5723-12.0361Q62.4023-12.7441 62.4023-14.0625Q62.4023-15.3809 61.5967-16.0645Q60.791-16.748 59.5703-16.748Q59.4727-16.748 57.8613-16.748Q56.25-16.748 54.5166-16.748Q52.7832-16.748 52.3438-16.748Q46.3867-16.748 42.5781-20.2637Q38.7695-23.7793 38.7695-29.6875Q38.7695-35.5469 42.6025-38.7939Q46.4355-42.041 52.2949-42.041L68.6523-42.041L74.2188-42.2363L71.582-40.2344L64.209-33.0566Q63.3301-32.2266 63.3301-31.0059Q63.3301-29.834 64.1113-29.0283Q64.8926-28.2227 66.0156-28.2227Q67.1875-28.2227 68.0176-29.0527L81.0059-42.334Q82.0801-43.3594 82.0801-44.7266Q82.0801-46.1426 81.0059-47.2168L68.0664-60.4004Q67.2363-61.2305 66.0645-61.2305Q64.8926-61.2305 64.1113-60.4248Q63.3301-59.6191 63.3301-58.4473Q63.3301-57.2754 64.209-56.3965L70.8984-49.9023L74.2188-47.2656L68.6523-47.4121L52.2949-47.4121Q46.7285-47.4121 42.4316-45.2393Q38.1348-43.0664 35.6689-39.0137Q33.2031-34.9609 33.2031-29.4434Z"/>
  </g>
  <g id="Thin-M" transform="matrix(1 0 0 1 799.782 1126)">
   <path class="hierarchical-0:secondary SFSymbolsPreview4D4D4D" d="M56.5918 12.5977Q66.5039 12.5977 75.1709 8.88672Q83.8379 5.17578 90.4297-1.44043Q97.0215-8.05664 100.781-16.7236Q104.541-25.3906 104.541-35.2539Q104.541-45.1172 100.781-53.7842Q97.0215-62.4512 90.4297-69.0674Q83.8379-75.6836 75.1709-79.3945Q66.5039-83.1055 56.5918-83.1055Q46.7285-83.1055 38.0615-79.3945Q29.3945-75.6836 22.8271-69.0674Q16.2598-62.4512 12.5-53.7842Q8.74023-45.1172 8.74023-35.2539Q8.74023-25.3906 12.4756-16.7236Q16.2109-8.05664 22.8027-1.44043Q29.3945 5.17578 38.0859 8.88672Q46.7773 12.5977 56.5918 12.5977ZM56.5918 8.88672Q47.4609 8.88672 39.4775 5.44434Q31.4941 2.00195 25.415-4.05273Q19.3359-10.1074 15.918-18.1152Q12.5-26.123 12.5-35.2539Q12.5-44.3848 15.918-52.3926Q19.3359-60.4004 25.415-66.4795Q31.4941-72.5586 39.4775-76.001Q47.4609-79.4434 56.5918-79.4434Q65.7715-79.4434 73.7549-76.001Q81.7383-72.5586 87.8174-66.4795Q93.8965-60.4004 97.3389-52.3926Q100.781-44.3848 100.781-35.2539Q100.781-26.123 97.3633-18.1152Q93.9453-10.1074 87.8662-4.05273Q81.7871 2.00195 73.7793 5.44434Q65.7715 8.88672 56.5918 8.88672Z"/>
   <path class="hierarchical-1:primary SFSymbolsPreview212121" d="M33.1543-29.541Q33.1543-24.4141 35.4492-20.6299Q37.7441-16.8457 41.7969-14.7461Q45.8496-12.6465 51.2207-12.6465Q51.9043-12.6465 53.7354-12.6465Q55.5664-12.6465 57.251-12.6465Q58.9355-12.6465 59.0332-12.6465Q59.8145-12.6465 60.3271-13.1104Q60.8398-13.5742 60.8398-14.4043Q60.8398-15.2344 60.3271-15.6738Q59.8145-16.1133 59.0332-16.1133Q58.9355-16.1133 57.251-16.1133Q55.5664-16.1133 53.7354-16.1133Q51.9043-16.1133 51.2207-16.1133Q44.7266-16.1133 40.6738-19.7998Q36.6211-23.4863 36.6211-29.5898Q36.6211-35.6934 40.6738-39.3066Q44.7266-42.9199 51.2207-42.9199L69.9707-42.9199L75.1953-43.0664L72.8027-41.1621L63.8184-32.2266Q63.1348-31.5918 63.1348-30.8594Q63.1348-30.127 63.623-29.6143Q64.1113-29.1016 64.8926-29.1016Q65.625-29.1016 66.2109-29.6387L79.1992-42.8711Q79.9316-43.6523 79.9316-44.6289Q79.9316-45.6055 79.1992-46.3867L66.2109-59.6191Q65.6738-60.1562 64.8926-60.1562Q64.1113-60.1562 63.623-59.6436Q63.1348-59.1309 63.1348-58.3984Q63.1348-57.666 63.8184-57.0312L72.6074-48.291L75.1953-46.1914L69.9707-46.3379L51.2207-46.3379Q45.8496-46.3379 41.7969-44.2627Q37.7441-42.1875 35.4492-38.4033Q33.1543-34.6191 33.1543-29.541Z"/>
  </g>
  <g id="Ultralight-M" transform="matrix(1 0 0 1 503.632 1126)">
   <path class="hierarchical-0:secondary SFSymbolsPreview4D4D4D" d="M56.0547 12.0605Q65.8203 12.0605 74.3896 8.37402Q82.959 4.6875 89.4775-1.83105Q95.9961-8.34961 99.707-16.9189Q103.418-25.4883 103.418-35.2539Q103.418-45.0195 99.707-53.5889Q95.9961-62.1582 89.4775-68.6768Q82.959-75.1953 74.3896-78.8818Q65.8203-82.5684 56.0547-82.5684Q46.2891-82.5684 37.7197-78.8818Q29.1504-75.1953 22.6562-68.6768Q16.1621-62.1582 12.4512-53.5889Q8.74023-45.0195 8.74023-35.2539Q8.74023-25.4883 12.4268-16.9189Q16.1133-8.34961 22.6318-1.83105Q29.1504 4.6875 37.7197 8.37402Q46.2891 12.0605 56.0547 12.0605ZM56.0547 9.66797Q46.7773 9.66797 38.6475 6.17676Q30.5176 2.68555 24.3164-3.49121Q18.1152-9.66797 14.624-17.8223Q11.1328-25.9766 11.1328-35.2539Q11.1328-44.5312 14.624-52.6855Q18.1152-60.8398 24.3164-67.041Q30.5176-73.2422 38.6475-76.7334Q46.7773-80.2246 56.0547-80.2246Q65.3809-80.2246 73.5107-76.7334Q81.6406-73.2422 87.8174-67.041Q93.9941-60.8398 97.5098-52.6855Q101.025-44.5312 101.025-35.2539Q101.025-25.9766 97.5098-17.8223Q93.9941-9.66797 87.8174-3.49121Q81.6406 2.68555 73.5107 6.17676Q65.3809 9.66797 56.0547 9.66797Z"/>
   <path class="hierarchical-1:primary SFSymbolsPreview212121" d="M33.1543-29.6387Q33.1543-24.7559 35.3516-21.0938Q37.5488-17.4316 41.4795-15.4053Q45.4102-13.3789 50.6836-13.3789Q51.4648-13.3789 53.3691-13.3789Q55.2734-13.3789 56.9824-13.3789Q58.6914-13.3789 58.7891-13.3789Q59.3262-13.3789 59.668-13.7207Q60.0098-14.0625 60.0098-14.5996Q60.0098-15.1855 59.668-15.4785Q59.3262-15.7715 58.8379-15.7715Q58.6914-15.7715 56.9824-15.7715Q55.2734-15.7715 53.3691-15.7715Q51.4648-15.7715 50.6836-15.7715Q43.8965-15.7715 39.7217-19.5801Q35.5469-23.3887 35.5469-29.5898Q35.5469-35.8398 39.7217-39.624Q43.8965-43.4082 50.6836-43.4082L70.6543-43.4082L75.7324-43.5547L73.4863-41.6992L63.623-31.8848Q63.0371-31.3477 63.0371-30.8105Q63.0371-30.3223 63.4033-29.9561Q63.7695-29.5898 64.3555-29.5898Q64.8438-29.5898 65.2832-30.0293L78.2715-43.2129Q78.8574-43.8477 78.8574-44.6289Q78.8574-45.4102 78.2715-46.0449L65.2832-59.2773Q64.8438-59.668 64.3555-59.668Q63.7695-59.668 63.4033-59.3018Q63.0371-58.9355 63.0371-58.3984Q63.0371-57.959 63.623-57.373L73.4863-47.5586L75.7324-45.7031L70.6543-45.8496L50.6836-45.8496Q45.4102-45.8496 41.4795-43.8232Q37.5488-41.7969 35.3516-38.1348Q33.1543-34.4727 33.1543-29.6387Z"/>
  </g>
  <g id="Black-S" transform="matrix(1 0 0 1 2884.57 696)">
   <path class="hierarchical-0:secondary SFSymbolsPreview4D4D4D" d="M48.8281 6.78711Q57.5195 6.78711 65.1123 3.51562Q72.7051 0.244141 78.4912-5.54199Q84.2773-11.3281 87.5488-18.9209Q90.8203-26.5137 90.8203-35.2051Q90.8203-43.8965 87.5488-51.4893Q84.2773-59.082 78.4912-64.8682Q72.7051-70.6543 65.1123-73.9258Q57.5195-77.1973 48.8281-77.1973Q40.1367-77.1973 32.5439-73.9258Q24.9512-70.6543 19.165-64.8682Q13.3789-59.082 10.1074-51.4893Q6.83594-43.8965 6.83594-35.2051Q6.83594-26.5137 10.1074-18.9209Q13.3789-11.3281 19.165-5.54199Q24.9512 0.244141 32.5439 3.51562Q40.1367 6.78711 48.8281 6.78711ZM48.8281-7.37305Q43.0664-7.37305 38.0127-9.5459Q32.959-11.7188 29.1504-15.5273Q25.3418-19.3359 23.1689-24.3896Q20.9961-29.4434 20.9961-35.2051Q20.9961-40.9668 23.1689-46.0205Q25.3418-51.0742 29.1504-54.8828Q32.959-58.6914 38.0127-60.8643Q43.0664-63.0371 48.8281-63.0371Q54.5898-63.0371 59.6436-60.8643Q64.6973-58.6914 68.5059-54.8828Q72.3145-51.0742 74.4873-46.0205Q76.6602-40.9668 76.6602-35.2051Q76.6602-29.4434 74.4873-24.3896Q72.3145-19.3359 68.5059-15.5273Q64.6973-11.7188 59.6436-9.5459Q54.5898-7.37305 48.8281-7.37305Z"/>
   <path class="hierarchical-1:primary SFSymbolsPreview212121" d="M29.0527-31.2988Q29.0527-24.3652 33.3252-20.1172Q37.5977-15.8691 44.5312-15.8691Q44.5801-15.8691 45.8008-15.8691Q47.0215-15.8691 48.3887-15.8691Q49.7559-15.8691 50.293-15.8691Q52.3926-15.8691 53.6621-17.041Q54.9316-18.2129 54.9316-20.1172Q54.9316-21.9727 53.6377-23.0713Q52.3438-24.1699 50.2441-24.1699Q49.7559-24.1699 48.3887-24.1699Q47.0215-24.1699 45.8008-24.1699Q44.5801-24.1699 44.5312-24.1699Q41.3574-24.1699 39.4531-26.1475Q37.5488-28.125 37.5488-31.2988Q37.5488-34.6191 39.4775-36.6455Q41.4062-38.6719 44.6289-38.6719L55.5176-38.6719L57.6172-38.9648L55.5176-37.5488L52.002-34.9121Q50.7812-33.9844 50.7812-32.4707Q50.7812-30.957 51.9531-29.834Q53.125-28.7109 54.541-28.7109Q56.1035-28.7109 57.1289-29.7363L67.4805-40.1367Q68.5547-41.2109 68.5547-42.7246Q68.5547-44.1406 67.4805-45.3125L57.1289-55.7617Q56.1035-56.8359 54.6387-56.8359Q53.2227-56.8359 52.0508-55.6885Q50.8789-54.541 50.8789-53.0762Q50.8789-51.5625 52.002-50.5859L55.5176-47.5098L57.6172-46.0938L55.5176-46.3867L44.6289-46.3867Q37.6465-46.3867 33.3496-42.2363Q29.0527-38.0859 29.0527-31.2988Z"/>
  </g>
  <g id="Heavy-S" transform="matrix(1 0 0 1 2588.47 696)">
   <path class="hierarchical-0:secondary SFSymbolsPreview4D4D4D" d="M48.1934 6.15234Q56.7871 6.15234 64.2578 2.92969Q71.7285-0.292969 77.4414-6.00586Q83.1543-11.7188 86.377-19.1895Q89.5996-26.6602 89.5996-35.2051Q89.5996-43.75 86.377-51.2451Q83.1543-58.7402 77.4414-64.4531Q71.7285-70.166 64.2334-73.3887Q56.7383-76.6113 48.1934-76.6113Q39.6484-76.6113 32.1777-73.3887Q24.707-70.166 18.9941-64.4531Q13.2812-58.7402 10.0586-51.2451Q6.83594-43.75 6.83594-35.2051Q6.83594-26.6602 10.0586-19.1895Q13.2812-11.7188 18.9941-6.00586Q24.707-0.292969 32.2021 2.92969Q39.6973 6.15234 48.1934 6.15234ZM48.1934-6.39648Q42.2363-6.39648 37.0117-8.64258Q31.7871-10.8887 27.8564-14.8438Q23.9258-18.7988 21.6797-24.0234Q19.4336-29.248 19.4336-35.2051Q19.4336-41.1621 21.6553-46.4111Q23.877-51.6602 27.832-55.5908Q31.7871-59.5215 37.0117-61.7676Q42.2363-64.0137 48.1934-64.0137Q54.1992-64.0137 59.4238-61.7676Q64.6484-59.5215 68.5791-55.5908Q72.5098-51.6602 74.7803-46.4111Q77.0508-41.1621 77.0508-35.2051Q77.0508-29.248 74.8047-24.0234Q72.5586-18.7988 68.6035-14.8438Q64.6484-10.8887 59.4238-8.64258Q54.1992-6.39648 48.1934-6.39648Z"/>
   <path class="hierarchical-1:primary SFSymbolsPreview212121" d="M28.3203-31.1035Q28.3203-24.1211 32.666-19.8975Q37.0117-15.6738 43.8965-15.6738Q43.9941-15.6738 45.2148-15.6738Q46.4355-15.6738 47.7539-15.6738Q49.0723-15.6738 49.5117-15.6738Q51.4648-15.6738 52.6611-16.7725Q53.8574-17.8711 53.8574-19.6777Q53.8574-21.4355 52.6367-22.4609Q51.416-23.4863 49.5117-23.4863Q49.0723-23.4863 47.7539-23.4863Q46.4355-23.4863 45.2148-23.4863Q43.9941-23.4863 43.8965-23.4863Q40.5273-23.4863 38.4277-25.6104Q36.3281-27.7344 36.3281-31.2012Q36.3281-34.7656 38.4521-36.8408Q40.5762-38.916 43.9941-38.916L54.7852-38.916L57.5195-39.1602L55.3223-37.6953L51.6602-34.7168Q50.5371-33.8379 50.5371-32.373Q50.5371-30.8594 51.6357-29.7852Q52.7344-28.7109 54.1016-28.7109Q55.6152-28.7109 56.5918-29.7363L66.9434-40.1367Q68.0176-41.2109 68.0176-42.7246Q68.0176-44.1406 66.9434-45.3125L56.6406-55.7129Q55.6152-56.7871 54.1992-56.7871Q52.832-56.7871 51.709-55.6885Q50.5859-54.5898 50.5859-53.1738Q50.5859-51.6602 51.6602-50.7324L55.127-47.6562L57.5195-45.9473L54.7852-46.2402L43.9941-46.2402Q37.0605-46.2402 32.6904-42.1143Q28.3203-37.9883 28.3203-31.1035Z"/>
  </g>
  <g id="Bold-S" transform="matrix(1 0 0 1 2292.42 696)">
   <path class="hierarchical-0:secondary SFSymbolsPreview4D4D4D" d="M47.5586 5.46875Q55.957 5.46875 63.3057 2.29492Q70.6543-0.878906 76.2695-6.51855Q81.8848-12.1582 85.083-19.5068Q88.2812-26.8555 88.2812-35.2539Q88.2812-43.6035 85.083-50.9766Q81.8848-58.3496 76.2695-63.9648Q70.6543-69.5801 63.2812-72.7539Q55.9082-75.9277 47.5098-75.9277Q39.1602-75.9277 31.7871-72.7539Q24.4141-69.5801 18.8232-63.9648Q13.2324-58.3496 10.0342-50.9766Q6.83594-43.6035 6.83594-35.2539Q6.83594-26.8555 10.0342-19.5068Q13.2324-12.1582 18.8477-6.51855Q24.4629-0.878906 31.8115 2.29492Q39.1602 5.46875 47.5586 5.46875ZM47.5586-5.32227Q41.3574-5.32227 35.9375-7.6416Q30.5176-9.96094 26.416-14.0625Q22.3145-18.1641 19.9951-23.6084Q17.6758-29.0527 17.6758-35.2539Q17.6758-41.4551 19.9951-46.875Q22.3145-52.2949 26.3916-56.3965Q30.4688-60.498 35.8887-62.8174Q41.3086-65.1367 47.5098-65.1367Q53.7598-65.1367 59.1797-62.8174Q64.5996-60.498 68.7012-56.3965Q72.8027-52.2949 75.1221-46.875Q77.4414-41.4551 77.4414-35.2539Q77.4414-29.0527 75.1221-23.6084Q72.8027-18.1641 68.7256-14.0625Q64.6484-9.96094 59.2041-7.6416Q53.7598-5.32227 47.5586-5.32227Z"/>
   <path class="hierarchical-1:primary SFSymbolsPreview212121" d="M27.5391-30.9082Q27.5391-23.877 31.9824-19.7021Q36.4258-15.5273 43.2617-15.5273Q43.3594-15.5273 44.5801-15.5273Q45.8008-15.5273 47.0703-15.5273Q48.3398-15.5273 48.6816-15.5273Q50.4395-15.5273 51.5625-16.5039Q52.6855-17.4805 52.6855-19.1895Q52.6855-20.8984 51.5625-21.8262Q50.4395-22.7539 48.6816-22.7539Q48.3887-22.7539 47.1191-22.7539Q45.8496-22.7539 44.6045-22.7539Q43.3594-22.7539 43.2617-22.7539Q39.6484-22.7539 37.3291-25.0244Q35.0098-27.2949 35.0098-31.1035Q35.0098-34.9121 37.3535-37.0361Q39.6973-39.1602 43.3105-39.1602L54.0039-39.1602L57.4219-39.4043L55.1758-37.8418L51.3184-34.5703Q50.293-33.6914 50.293-32.2266Q50.293-30.8105 51.3184-29.7852Q52.3438-28.7598 53.6621-28.7598Q55.127-28.7598 56.1035-29.7363L66.3574-40.1367Q67.4805-41.2598 67.4805-42.7246Q67.4805-44.1895 66.3574-45.3125L56.1035-55.7129Q55.1758-56.6895 53.7598-56.6895Q52.3926-56.6895 51.3672-55.6641Q50.3418-54.6387 50.3418-53.2715Q50.3418-51.8066 51.3672-50.8789L54.6875-47.8516L57.4219-45.8496L54.0039-46.0449L43.3105-46.0449Q36.4258-46.0449 31.9824-41.9678Q27.5391-37.8906 27.5391-30.9082Z"/>
  </g>
  <g id="Semibold-S" transform="matrix(1 0 0 1 1996.2 696)">
   <path class="hierarchical-0:secondary SFSymbolsPreview4D4D4D" d="M47.0703 4.98047Q55.3711 4.98047 62.6465 1.85547Q69.9219-1.26953 75.4639-6.86035Q81.0059-12.4512 84.1553-19.7266Q87.3047-27.002 87.3047-35.2539Q87.3047-43.5059 84.1553-50.7812Q81.0059-58.0566 75.4395-63.623Q69.873-69.1895 62.5977-72.3389Q55.3223-75.4883 47.0215-75.4883Q38.7695-75.4883 31.4941-72.3389Q24.2188-69.1895 18.6768-63.623Q13.1348-58.0566 9.98535-50.7812Q6.83594-43.5059 6.83594-35.2539Q6.83594-27.002 9.98535-19.7266Q13.1348-12.4512 18.7012-6.86035Q24.2676-1.26953 31.543 1.85547Q38.8184 4.98047 47.0703 4.98047ZM47.0703-4.58984Q40.7227-4.58984 35.1562-6.95801Q29.5898-9.32617 25.3906-13.5254Q21.1914-17.7246 18.8232-23.291Q16.4551-28.8574 16.4551-35.2539Q16.4551-41.6016 18.8232-47.168Q21.1914-52.7344 25.3662-56.9336Q29.541-61.1328 35.1074-63.5254Q40.6738-65.918 47.0215-65.918Q53.418-65.918 58.9844-63.5254Q64.5508-61.1328 68.75-56.9336Q72.9492-52.7344 75.3418-47.168Q77.7344-41.6016 77.7344-35.2539Q77.7344-28.8574 75.3662-23.291Q72.998-17.7246 68.7988-13.5254Q64.5996-9.32617 59.0332-6.95801Q53.4668-4.58984 47.0703-4.58984Z"/>
   <path class="hierarchical-1:primary SFSymbolsPreview212121" d="M27.002-30.7617Q27.002-23.6816 31.4941-19.5312Q35.9863-15.3809 42.8223-15.3809Q42.9199-15.3809 44.1406-15.3809Q45.3613-15.3809 46.6064-15.3809Q47.8516-15.3809 48.0957-15.3809Q49.7559-15.3809 50.8057-16.3086Q51.8555-17.2363 51.8555-18.8477Q51.8555-20.459 50.7812-21.3379Q49.707-22.2168 48.1445-22.2168Q47.9004-22.2168 46.6553-22.2168Q45.4102-22.2168 44.165-22.2168Q42.9199-22.2168 42.8223-22.2168Q39.0137-22.2168 36.5479-24.6094Q34.082-27.002 34.082-31.0547Q34.082-35.0098 36.5967-37.1826Q39.1113-39.3555 42.8223-39.3555L53.4668-39.3555L57.3242-39.5508L55.0781-37.9395L51.0742-34.4238Q50.0977-33.5449 50.0977-32.1289Q50.0977-30.7129 51.0742-29.7363Q52.0508-28.7598 53.3691-28.7598Q54.7363-28.7598 55.7129-29.6875L65.9668-40.1367Q67.0898-41.2598 67.0898-42.7246Q67.0898-44.1895 65.9668-45.3125L55.7617-55.6641Q54.834-56.6406 53.418-56.6406Q52.0996-56.6406 51.123-55.6641Q50.1465-54.6875 50.1465-53.3203Q50.1465-51.9043 51.123-50.9766L54.3945-47.9492L57.3242-45.7031L53.4668-45.8984L42.8223-45.8984Q35.9863-45.8984 31.4941-41.8457Q27.002-37.793 27.002-30.7617Z"/>
  </g>
  <g id="Medium-S" transform="matrix(1 0 0 1 1699.83 696)">
   <path class="hierarchical-0:secondary SFSymbolsPreview4D4D4D" d="M46.7285 4.63867Q54.9316 4.63867 62.1338 1.51367Q69.3359-1.61133 74.8535-7.12891Q80.3711-12.6465 83.4961-19.8486Q86.6211-27.0508 86.6211-35.2539Q86.6211-43.4082 83.4961-50.6348Q80.3711-57.8613 74.8291-63.3789Q69.2871-68.8965 62.085-71.9971Q54.8828-75.0977 46.6797-75.0977Q38.4766-75.0977 31.2744-71.9971Q24.0723-68.8965 18.5791-63.3789Q13.0859-57.8613 9.96094-50.6348Q6.83594-43.4082 6.83594-35.2539Q6.83594-27.0508 9.96094-19.8486Q13.0859-12.6465 18.6035-7.12891Q24.1211-1.61133 31.3232 1.51367Q38.5254 4.63867 46.7285 4.63867ZM46.7285-4.00391Q40.2344-4.00391 34.5703-6.4209Q28.9062-8.83789 24.6338-13.1348Q20.3613-17.4316 17.9443-23.0957Q15.5273-28.7598 15.5273-35.2539Q15.5273-41.748 17.9199-47.4121Q20.3125-53.0762 24.585-57.373Q28.8574-61.6699 34.5215-64.0869Q40.1855-66.5039 46.6797-66.5039Q53.1738-66.5039 58.8379-64.0869Q64.502-61.6699 68.7988-57.373Q73.0957-53.0762 75.5127-47.4121Q77.9297-41.748 77.9297-35.2539Q77.9297-28.7598 75.5127-23.0957Q73.0957-17.4316 68.8477-13.1348Q64.5996-8.83789 58.9111-6.4209Q53.2227-4.00391 46.7285-4.00391Z"/>
   <path class="hierarchical-1:primary SFSymbolsPreview212121" d="M26.5625-30.6641Q26.5625-23.584 31.1035-19.4336Q35.6445-15.2832 42.4316-15.2832Q42.5781-15.2832 43.7988-15.2832Q45.0195-15.2832 46.2158-15.2832Q47.4121-15.2832 47.6074-15.2832Q49.1699-15.2832 50.1953-16.1377Q51.2207-16.9922 51.2207-18.6035Q51.2207-20.166 50.1953-20.9961Q49.1699-21.8262 47.6562-21.8262Q47.5098-21.8262 46.2891-21.8262Q45.0684-21.8262 43.8232-21.8262Q42.5781-21.8262 42.4316-21.8262Q38.5254-21.8262 35.9375-24.292Q33.3496-26.7578 33.3496-30.957Q33.3496-35.1074 35.9619-37.2803Q38.5742-39.4531 42.4805-39.4531L53.0273-39.4531L57.2266-39.6973L54.9316-38.0371L50.8789-34.3262Q49.9512-33.4473 49.9512-32.0801Q49.9512-30.6641 50.8789-29.7363Q51.8066-28.8086 53.0762-28.8086Q54.4434-28.8086 55.4199-29.6875L65.625-40.1367Q66.748-41.3086 66.748-42.7246Q66.748-44.1895 65.625-45.3125L55.4199-55.6641Q54.541-56.5918 53.1738-56.5918Q51.8555-56.5918 50.9033-55.6396Q49.9512-54.6875 49.9512-53.3691Q49.9512-51.9531 50.9277-51.0742L54.1504-48.0469L57.2266-45.6543L53.0273-45.8496L42.4805-45.8496Q35.5957-45.8496 31.0791-41.7969Q26.5625-37.7441 26.5625-30.6641Z"/>
  </g>
  <g id="Regular-S" transform="matrix(1 0 0 1 1403.58 696)">
   <path class="hierarchical-0:secondary SFSymbolsPreview4D4D4D" d="M46.2402 4.15039Q54.3457 4.15039 61.4746 1.07422Q68.6035-2.00195 74.0479-7.4707Q79.4922-12.9395 82.5928-20.0684Q85.6934-27.1973 85.6934-35.2539Q85.6934-43.3105 82.5928-50.4395Q79.4922-57.5684 74.0234-63.0371Q68.5547-68.5059 61.4258-71.582Q54.2969-74.6582 46.1914-74.6582Q38.1348-74.6582 31.0059-71.582Q23.877-68.5059 18.457-63.0371Q13.0371-57.5684 9.93652-50.4395Q6.83594-43.3105 6.83594-35.2539Q6.83594-27.1973 9.93652-20.0684Q13.0371-12.9395 18.4814-7.4707Q23.9258-2.00195 31.0547 1.07422Q38.1836 4.15039 46.2402 4.15039ZM46.2402-3.27148Q39.5996-3.27148 33.8135-5.7373Q28.0273-8.20312 23.6572-12.5977Q19.2871-16.9922 16.8213-22.8027Q14.3555-28.6133 14.3555-35.2539Q14.3555-41.8945 16.7969-47.7051Q19.2383-53.5156 23.6084-57.9102Q27.9785-62.3047 33.7646-64.7705Q39.5508-67.2363 46.1914-67.2363Q52.8809-67.2363 58.667-64.7705Q64.4531-62.3047 68.8477-57.9102Q73.2422-53.5156 75.7324-47.7051Q78.2227-41.8945 78.2227-35.2539Q78.2227-28.6133 75.7568-22.8027Q73.291-16.9922 68.9209-12.5977Q64.5508-8.20312 58.7402-5.7373Q52.9297-3.27148 46.2402-3.27148Z"/>
   <path class="hierarchical-1:primary SFSymbolsPreview212121" d="M26.0254-30.5176Q26.0254-23.3887 30.6152-19.2627Q35.2051-15.1367 41.9922-15.1367Q42.1387-15.1367 43.3594-15.1367Q44.5801-15.1367 45.752-15.1367Q46.9238-15.1367 47.0215-15.1367Q48.4863-15.1367 49.4385-15.9424Q50.3906-16.748 50.3906-18.2617Q50.3906-19.7754 49.4385-20.5566Q48.4863-21.3379 47.1191-21.3379Q47.0215-21.3379 45.8252-21.3379Q44.6289-21.3379 43.3838-21.3379Q42.1387-21.3379 41.9922-21.3379Q37.8906-21.3379 35.1562-23.9014Q32.4219-26.4648 32.4219-30.9082Q32.4219-35.2051 35.2051-37.4268Q37.9883-39.6484 41.9922-39.6484L52.4902-39.6484L57.1777-39.8438L54.834-38.1348L50.6348-34.1797Q49.7559-33.3496 49.7559-31.9824Q49.7559-30.6152 50.6348-29.7119Q51.5137-28.8086 52.7832-28.8086Q54.1016-28.8086 55.0293-29.6875L65.2344-40.1367Q66.3574-41.3086 66.3574-42.7246Q66.3574-44.1895 65.2344-45.3125L55.0781-55.6152Q54.1992-56.543 52.832-56.543Q51.5625-56.543 50.6592-55.6396Q49.7559-54.7363 49.7559-53.418Q49.7559-52.0508 50.6836-51.1719L53.8574-48.1445L57.1777-45.5566L52.4902-45.7031L41.9922-45.7031Q35.1562-45.7031 30.5908-41.6748Q26.0254-37.6465 26.0254-30.5176Z"/>
  </g>
  <g id="Light-S" transform="matrix(1 0 0 1 1107.6 696)">
   <path class="hierarchical-0:secondary SFSymbolsPreview4D4D4D" d="M45.5078 3.41797Q53.4668 3.41797 60.4736 0.415039Q67.4805-2.58789 72.8271-7.95898Q78.1738-13.3301 81.2012-20.3125Q84.2285-27.2949 84.2285-35.2539Q84.2285-43.2129 81.2012-50.1953Q78.1738-57.1777 72.8027-62.5488Q67.4316-67.9199 60.4492-70.9229Q53.4668-73.9258 45.459-73.9258Q37.5488-73.9258 30.542-70.9229Q23.5352-67.9199 18.2129-62.5488Q12.8906-57.1777 9.86328-50.1953Q6.83594-43.2129 6.83594-35.2539Q6.83594-27.2949 9.86328-20.3125Q12.8906-13.3301 18.2373-7.95898Q23.584-2.58789 30.5908 0.415039Q37.5977 3.41797 45.5078 3.41797ZM45.5078-2.29492Q38.6719-2.29492 32.6904-4.83398Q26.709-7.37305 22.1924-11.9141Q17.6758-16.4551 15.1367-22.4365Q12.5977-28.418 12.5977-35.2539Q12.5977-42.0898 15.1367-48.0713Q17.6758-54.0527 22.1924-58.5938Q26.709-63.1348 32.666-65.6738Q38.623-68.2129 45.459-68.2129Q52.3438-68.2129 58.3252-65.6738Q64.3066-63.1348 68.8232-58.5938Q73.3398-54.0527 75.9277-48.0713Q78.5156-42.0898 78.5156-35.2539Q78.5156-28.418 75.9521-22.4365Q73.3887-16.4551 68.8721-11.9141Q64.3555-7.37305 58.374-4.83398Q52.3926-2.29492 45.5078-2.29492Z"/>
   <path class="hierarchical-1:primary SFSymbolsPreview212121" d="M26.0254-30.6152Q26.0254-23.9258 30.3711-19.9951Q34.7168-16.0645 41.3086-16.0645Q41.6016-16.0645 42.8955-16.0645Q44.1895-16.0645 45.4102-16.0645Q46.6309-16.0645 46.7285-16.0645Q47.9004-16.0645 48.6328-16.6992Q49.3652-17.334 49.3652-18.5059Q49.3652-19.7266 48.6328-20.3369Q47.9004-20.9473 46.8262-20.9473Q46.7285-20.9473 45.4834-20.9473Q44.2383-20.9473 42.9199-20.9473Q41.6016-20.9473 41.3086-20.9473Q36.8164-20.9473 33.9111-23.6328Q31.0059-26.3184 31.0059-30.9082Q31.0059-35.3516 33.9355-37.8174Q36.8652-40.2832 41.3086-40.2832L53.418-40.2832L57.8613-40.4297L55.7129-38.8184L50.3906-33.6914Q49.6582-33.0078 49.6582-31.9336Q49.6582-30.8594 50.3418-30.1514Q51.0254-29.4434 52.0508-29.4434Q53.125-29.4434 53.8574-30.1758L64.0137-40.5762Q64.9414-41.5039 64.9414-42.6758Q64.9414-43.8965 64.0137-44.8242L53.8574-55.127Q53.1738-55.8594 52.0996-55.8594Q51.0742-55.8594 50.3662-55.1514Q49.6582-54.4434 49.6582-53.418Q49.6582-52.3438 50.4395-51.6113L55.0293-47.1191L57.8613-44.9219L53.418-45.0195L41.3086-45.0195Q34.668-45.0195 30.3467-41.1621Q26.0254-37.3047 26.0254-30.6152Z"/>
  </g>
  <g id="Thin-S" transform="matrix(1 0 0 1 811.867 696)">
   <path class="hierarchical-0:secondary SFSymbolsPreview4D4D4D" d="M44.5312 2.44141Q52.3438 2.44141 59.1553-0.488281Q65.9668-3.41797 71.1914-8.64258Q76.416-13.8672 79.3457-20.6787Q82.2754-27.4902 82.2754-35.2539Q82.2754-43.0176 79.3457-49.8291Q76.416-56.6406 71.1914-61.8652Q65.9668-67.0898 59.1553-70.0195Q52.3438-72.9492 44.5312-72.9492Q36.7676-72.9492 29.9316-70.0195Q23.0957-67.0898 17.9199-61.8652Q12.7441-56.6406 9.79004-49.8291Q6.83594-43.0176 6.83594-35.2539Q6.83594-27.4902 9.79004-20.6787Q12.7441-13.8672 17.9199-8.64258Q23.0957-3.41797 29.9316-0.488281Q36.7676 2.44141 44.5312 2.44141ZM44.5312-0.927734Q37.4512-0.927734 31.2256-3.58887Q25-6.25 20.2881-10.9619Q15.5762-15.6738 12.915-21.9238Q10.2539-28.1738 10.2539-35.2539Q10.2539-42.334 12.915-48.584Q15.5762-54.834 20.2881-59.5459Q25-64.2578 31.2256-66.9189Q37.4512-69.5801 44.5312-69.5801Q51.6602-69.5801 57.8857-66.9189Q64.1113-64.2578 68.8232-59.5459Q73.5352-54.834 76.1963-48.584Q78.8574-42.334 78.8574-35.2539Q78.8574-28.1738 76.1963-21.9238Q73.5352-15.6738 68.8232-10.9619Q64.1113-6.25 57.8857-3.58887Q51.6602-0.927734 44.5312-0.927734Z"/>
   <path class="hierarchical-1:primary SFSymbolsPreview212121" d="M25.9766-30.7129Q25.9766-24.6094 29.9805-20.9229Q33.9844-17.2363 40.332-17.2363Q40.7715-17.2363 42.2119-17.2363Q43.6523-17.2363 44.9463-17.2363Q46.2402-17.2363 46.3379-17.2363Q47.0215-17.2363 47.4854-17.6758Q47.9492-18.1152 47.9492-18.7988Q47.9492-19.5312 47.4854-19.9219Q47.0215-20.3125 46.3867-20.3125Q46.2891-20.3125 44.9707-20.3125Q43.6523-20.3125 42.2119-20.3125Q40.7715-20.3125 40.332-20.3125Q35.3516-20.3125 32.2266-23.1934Q29.1016-26.0742 29.1016-30.8105Q29.1016-35.5469 32.2266-38.3057Q35.3516-41.0645 40.332-41.0645L54.541-41.0645L58.7402-41.2109L56.7871-39.6484L50.0488-33.0078Q49.5117-32.4707 49.5117-31.8359Q49.5117-31.1035 49.9512-30.6641Q50.3906-30.2246 51.0254-30.2246Q51.709-30.2246 52.1973-30.7129L62.3535-41.1133Q63.0371-41.748 63.0371-42.5781Q63.0371-43.457 62.3535-44.0918L52.1973-54.4434Q51.7578-54.9316 51.0742-54.9316Q50.3906-54.9316 49.9512-54.4922Q49.5117-54.0527 49.5117-53.3691Q49.5117-52.6855 50.0488-52.1484L56.543-45.752L58.7402-43.9941L54.541-44.0918L40.332-44.0918Q33.9844-44.0918 29.9805-40.4541Q25.9766-36.8164 25.9766-30.7129Z"/>
  </g>
  <g id="Ultralight-S" transform="matrix(1 0 0 1 515.644 696)">
   <path class="hierarchical-0:secondary SFSymbolsPreview4D4D4D" d="M44.043 1.95312Q51.7578 1.95312 58.4717-0.927734Q65.1855-3.80859 70.3369-8.95996Q75.4883-14.1113 78.3936-20.8252Q81.2988-27.5391 81.2988-35.2539Q81.2988-42.9688 78.3936-49.6826Q75.4883-56.3965 70.3369-61.5479Q65.1855-66.6992 58.4717-69.5801Q51.7578-72.4609 44.043-72.4609Q36.377-72.4609 29.6387-69.5801Q22.9004-66.6992 17.7734-61.5479Q12.6465-56.3965 9.74121-49.6826Q6.83594-42.9688 6.83594-35.2539Q6.83594-27.5391 9.74121-20.8252Q12.6465-14.1113 17.7734-8.95996Q22.9004-3.80859 29.6387-0.927734Q36.377 1.95312 44.043 1.95312ZM44.043-0.292969Q36.8164-0.292969 30.4688-3.00293Q24.1211-5.71289 19.3115-10.5225Q14.502-15.332 11.7676-21.6797Q9.0332-28.0273 9.0332-35.2539Q9.0332-42.4805 11.7676-48.8281Q14.502-55.1758 19.3115-59.9854Q24.1211-64.7949 30.4688-67.5049Q36.8164-70.2148 44.043-70.2148Q51.2695-70.2148 57.6416-67.5049Q64.0137-64.7949 68.7988-59.9854Q73.584-55.1758 76.3184-48.8281Q79.0527-42.4805 79.0527-35.2539Q79.0527-28.0273 76.3428-21.6797Q73.6328-15.332 68.8232-10.5225Q64.0137-5.71289 57.666-3.00293Q51.3184-0.292969 44.043-0.292969Z"/>
   <path class="hierarchical-1:primary SFSymbolsPreview212121" d="M25.9766-30.8105Q25.9766-25 29.8096-21.46Q33.6426-17.9199 39.8438-17.9199Q40.4297-17.9199 41.9189-17.9199Q43.4082-17.9199 44.7266-17.9199Q46.0449-17.9199 46.1426-17.9199Q46.6309-17.9199 46.9482-18.2129Q47.2656-18.5059 47.2656-18.9941Q47.2656-19.5312 46.9482-19.7998Q46.6309-20.0684 46.1426-20.0684Q46.0449-20.0684 44.7266-20.0684Q43.4082-20.0684 41.9189-20.0684Q40.4297-20.0684 39.8438-20.0684Q34.6191-20.0684 31.3965-23.0225Q28.1738-25.9766 28.1738-30.8105Q28.1738-35.6445 31.3965-38.5742Q34.6191-41.5039 39.8438-41.5039L55.1758-41.5039L59.2285-41.6016L57.373-40.1367L49.9023-32.666Q49.4141-32.2266 49.4141-31.7871Q49.4141-31.2988 49.7314-30.9814Q50.0488-30.6641 50.5371-30.6641Q51.0742-30.6641 51.416-31.0547L61.5723-41.4062Q62.1094-41.8945 62.1094-42.5781Q62.1094-43.3105 61.5723-43.7988L51.416-54.1016Q51.0742-54.4922 50.5371-54.4922Q50.0488-54.4922 49.7314-54.1748Q49.4141-53.8574 49.4141-53.3691Q49.4141-52.9297 49.9023-52.4902L57.373-45.0684L59.2285-43.5547L55.1758-43.6523L39.8438-43.6523Q33.6426-43.6523 29.8096-40.1367Q25.9766-36.6211 25.9766-30.8105Z"/>
  </g>
 </g>
</svg>
