<?xml version="1.0" encoding="UTF-8"?>
<!--Generator: Apple Native CoreSVG 175-->
<!DOCTYPE svg
PUBLIC "-//W3C//DTD SVG 1.1//EN"
       "http://www.w3.org/Graphics/SVG/1.1/DTD/svg11.dtd">
<svg version="1.1" xmlns="http://www.w3.org/2000/svg" xmlns:xlink="http://www.w3.org/1999/xlink" width="3300" height="2200">
 <!--glyph: "uni101086.medium", point size: 100.0, font version: "17.0d11e1", template writer version: "65.1"-->
 <g id="Notes">
  <rect height="2200" id="artboard" style="fill:white;opacity:1" width="3300" x="0" y="0"/>
  <line style="fill:none;stroke:black;opacity:1;stroke-width:0.5;" x1="263" x2="3036" y1="292" y2="292"/>
  <text style="stroke:none;fill:black;font-family:sans-serif;font-size:13;font-weight:bold;" transform="matrix(1 0 0 1 263 322)">Weight/Scale Variations</text>
  <text style="stroke:none;fill:black;font-family:sans-serif;font-size:13;text-anchor:middle;" transform="matrix(1 0 0 1 559.711 322)">Ultralight</text>
  <text style="stroke:none;fill:black;font-family:sans-serif;font-size:13;text-anchor:middle;" transform="matrix(1 0 0 1 856.422 322)">Thin</text>
  <text style="stroke:none;fill:black;font-family:sans-serif;font-size:13;text-anchor:middle;" transform="matrix(1 0 0 1 1153.13 322)">Light</text>
  <text style="stroke:none;fill:black;font-family:sans-serif;font-size:13;text-anchor:middle;" transform="matrix(1 0 0 1 1449.84 322)">Regular</text>
  <text style="stroke:none;fill:black;font-family:sans-serif;font-size:13;text-anchor:middle;" transform="matrix(1 0 0 1 1746.56 322)">Medium</text>
  <text style="stroke:none;fill:black;font-family:sans-serif;font-size:13;text-anchor:middle;" transform="matrix(1 0 0 1 2043.27 322)">Semibold</text>
  <text style="stroke:none;fill:black;font-family:sans-serif;font-size:13;text-anchor:middle;" transform="matrix(1 0 0 1 2339.98 322)">Bold</text>
  <text style="stroke:none;fill:black;font-family:sans-serif;font-size:13;text-anchor:middle;" transform="matrix(1 0 0 1 2636.69 322)">Heavy</text>
  <text style="stroke:none;fill:black;font-family:sans-serif;font-size:13;text-anchor:middle;" transform="matrix(1 0 0 1 2933.4 322)">Black</text>
  <line style="fill:none;stroke:black;opacity:1;stroke-width:0.5;" x1="263" x2="3036" y1="1903" y2="1903"/>
  <g transform="matrix(1 0 0 1 263 1933)">
   <path d="M9.24805 0.830078Q10.8691 0.830078 12.2949 0.214844Q13.7207-0.400391 14.8096-1.49414Q15.8984-2.58789 16.5186-4.01367Q17.1387-5.43945 17.1387-7.05078Q17.1387-8.66211 16.5186-10.0879Q15.8984-11.5137 14.8047-12.6074Q13.7109-13.7012 12.2852-14.3164Q10.8594-14.9316 9.23828-14.9316Q7.62695-14.9316 6.20117-14.3164Q4.77539-13.7012 3.69141-12.6074Q2.60742-11.5137 1.9873-10.0879Q1.36719-8.66211 1.36719-7.05078Q1.36719-5.43945 1.9873-4.01367Q2.60742-2.58789 3.69629-1.49414Q4.78516-0.400391 6.21094 0.214844Q7.63672 0.830078 9.24805 0.830078ZM9.24805-0.654297Q7.91992-0.654297 6.7627-1.14746Q5.60547-1.64062 4.73145-2.51953Q3.85742-3.39844 3.36426-4.56055Q2.87109-5.72266 2.87109-7.05078Q2.87109-8.37891 3.35938-9.54102Q3.84766-10.7031 4.72168-11.582Q5.5957-12.4609 6.75293-12.9541Q7.91016-13.4473 9.23828-13.4473Q10.5762-13.4473 11.7334-12.9541Q12.8906-12.4609 13.7695-11.582Q14.6484-10.7031 15.1465-9.54102Q15.6445-8.37891 15.6445-7.05078Q15.6445-5.72266 15.1514-4.56055Q14.6582-3.39844 13.7842-2.51953Q12.9102-1.64062 11.748-1.14746Q10.5859-0.654297 9.24805-0.654297ZM5.6543-7.05078Q5.6543-6.72852 5.85938-6.52832Q6.06445-6.32812 6.40625-6.32812L8.51562-6.32812L8.51562-4.20898Q8.51562-3.88672 8.71094-3.67676Q8.90625-3.4668 9.23828-3.4668Q9.56055-3.4668 9.77051-3.67676Q9.98047-3.88672 9.98047-4.20898L9.98047-6.32812L12.0898-6.32812Q12.4219-6.32812 12.627-6.52832Q12.832-6.72852 12.832-7.05078Q12.832-7.38281 12.627-7.58789Q12.4219-7.79297 12.0898-7.79297L9.98047-7.79297L9.98047-9.90234Q9.98047-10.2344 9.77051-10.4443Q9.56055-10.6543 9.23828-10.6543Q8.90625-10.6543 8.71094-10.4443Q8.51562-10.2344 8.51562-9.90234L8.51562-7.79297L6.40625-7.79297Q6.06445-7.79297 5.85938-7.58789Q5.6543-7.38281 5.6543-7.05078Z"/>
  </g>
  <g transform="matrix(1 0 0 1 281.867 1933)">
   <path d="M11.709 2.91016Q13.75 2.91016 15.5518 2.12891Q17.3535 1.34766 18.7305-0.0292969Q20.1074-1.40625 20.8887-3.20801Q21.6699-5.00977 21.6699-7.05078Q21.6699-9.0918 20.8887-10.8936Q20.1074-12.6953 18.7305-14.0723Q17.3535-15.4492 15.5469-16.2305Q13.7402-17.0117 11.6992-17.0117Q9.6582-17.0117 7.85645-16.2305Q6.05469-15.4492 4.68262-14.0723Q3.31055-12.6953 2.5293-10.8936Q1.74805-9.0918 1.74805-7.05078Q1.74805-5.00977 2.5293-3.20801Q3.31055-1.40625 4.6875-0.0292969Q6.06445 1.34766 7.86621 2.12891Q9.66797 2.91016 11.709 2.91016ZM11.709 1.25Q9.98047 1.25 8.47656 0.605469Q6.97266-0.0390625 5.83496-1.17676Q4.69727-2.31445 4.05762-3.81836Q3.41797-5.32227 3.41797-7.05078Q3.41797-8.7793 4.05762-10.2832Q4.69727-11.7871 5.83008-12.9297Q6.96289-14.0723 8.4668-14.7119Q9.9707-15.3516 11.6992-15.3516Q13.4277-15.3516 14.9316-14.7119Q16.4355-14.0723 17.5781-12.9297Q18.7207-11.7871 19.3652-10.2832Q20.0098-8.7793 20.0098-7.05078Q20.0098-5.32227 19.3701-3.81836Q18.7305-2.31445 17.5928-1.17676Q16.4551-0.0390625 14.9463 0.605469Q13.4375 1.25 11.709 1.25ZM7.17773-7.05078Q7.17773-6.69922 7.41211-6.47461Q7.64648-6.25 8.01758-6.25L10.8887-6.25L10.8887-3.36914Q10.8887-2.99805 11.1133-2.76855Q11.3379-2.53906 11.6895-2.53906Q12.0605-2.53906 12.29-2.76855Q12.5195-2.99805 12.5195-3.36914L12.5195-6.25L15.4004-6.25Q15.7715-6.25 16.001-6.47461Q16.2305-6.69922 16.2305-7.05078Q16.2305-7.42188 16.001-7.65137Q15.7715-7.88086 15.4004-7.88086L12.5195-7.88086L12.5195-10.752Q12.5195-11.1328 12.29-11.3623Q12.0605-11.5918 11.6895-11.5918Q11.3379-11.5918 11.1133-11.3574Q10.8887-11.123 10.8887-10.752L10.8887-7.88086L8.01758-7.88086Q7.63672-7.88086 7.40723-7.65137Q7.17773-7.42188 7.17773-7.05078Z"/>
  </g>
  <g transform="matrix(1 0 0 1 305.646 1933)">
   <path d="M14.9707 5.66406Q17.0605 5.66406 18.96 5.01465Q20.8594 4.36523 22.4512 3.19336Q24.043 2.02148 25.2197 0.429688Q26.3965-1.16211 27.0459-3.06641Q27.6953-4.9707 27.6953-7.05078Q27.6953-9.14062 27.0459-11.04Q26.3965-12.9395 25.2197-14.5312Q24.043-16.123 22.4512-17.2998Q20.8594-18.4766 18.9551-19.126Q17.0508-19.7754 14.9609-19.7754Q12.8711-19.7754 10.9717-19.126Q9.07227-18.4766 7.48535-17.2998Q5.89844-16.123 4.72168-14.5312Q3.54492-12.9395 2.90039-11.04Q2.25586-9.14062 2.25586-7.05078Q2.25586-4.9707 2.90527-3.06641Q3.55469-1.16211 4.72656 0.429688Q5.89844 2.02148 7.49023 3.19336Q9.08203 4.36523 10.9814 5.01465Q12.8809 5.66406 14.9707 5.66406ZM14.9707 3.84766Q13.1641 3.84766 11.5283 3.2959Q9.89258 2.74414 8.53516 1.74805Q7.17773 0.751953 6.17676-0.610352Q5.17578-1.97266 4.62891-3.6084Q4.08203-5.24414 4.08203-7.05078Q4.08203-8.86719 4.62891-10.5029Q5.17578-12.1387 6.17188-13.501Q7.16797-14.8633 8.52539-15.8594Q9.88281-16.8555 11.5186-17.4023Q13.1543-17.9492 14.9609-17.9492Q16.7773-17.9492 18.4131-17.4023Q20.0488-16.8555 21.4111-15.8594Q22.7734-14.8633 23.7695-13.501Q24.7656-12.1387 25.3174-10.5029Q25.8691-8.86719 25.8691-7.05078Q25.8789-5.24414 25.332-3.6084Q24.7852-1.97266 23.7842-0.610352Q22.7832 0.751953 21.4209 1.74805Q20.0586 2.74414 18.4229 3.2959Q16.7871 3.84766 14.9707 3.84766ZM9.19922-7.05078Q9.19922-6.66992 9.45801-6.4209Q9.7168-6.17188 10.1172-6.17188L14.0625-6.17188L14.0625-2.2168Q14.0625-1.81641 14.3115-1.55762Q14.5605-1.29883 14.9512-1.29883Q15.3516-1.29883 15.6104-1.55273Q15.8691-1.80664 15.8691-2.2168L15.8691-6.17188L19.8242-6.17188Q20.2246-6.17188 20.4785-6.4209Q20.7324-6.66992 20.7324-7.05078Q20.7324-7.46094 20.4785-7.71484Q20.2246-7.96875 19.8242-7.96875L15.8691-7.96875L15.8691-11.9141Q15.8691-12.3242 15.6104-12.583Q15.3516-12.8418 14.9512-12.8418Q14.5605-12.8418 14.3115-12.583Q14.0625-12.3242 14.0625-11.9141L14.0625-7.96875L10.1172-7.96875Q9.70703-7.96875 9.45312-7.71484Q9.19922-7.46094 9.19922-7.05078Z"/>
  </g>
  <text style="stroke:none;fill:black;font-family:sans-serif;font-size:13;font-weight:bold;" transform="matrix(1 0 0 1 263 1953)">Design Variations</text>
  <text style="stroke:none;fill:black;font-family:sans-serif;font-size:13;" transform="matrix(1 0 0 1 263 1971)">Symbols are supported in up to nine weights and three scales.</text>
  <text style="stroke:none;fill:black;font-family:sans-serif;font-size:13;" transform="matrix(1 0 0 1 263 1989)">For optimal layout with text and other symbols, vertically align</text>
  <text style="stroke:none;fill:black;font-family:sans-serif;font-size:13;" transform="matrix(1 0 0 1 263 2007)">symbols with the adjacent text.</text>
  <line style="fill:none;stroke:#00AEEF;stroke-width:0.5;opacity:1.0;" x1="776" x2="776" y1="1919" y2="1933"/>
  <g transform="matrix(1 0 0 1 776 1933)">
   <path d="M3.31055 0.15625Q3.70117 0.15625 3.91602-0.00976562Q4.13086-0.175781 4.26758-0.585938L5.52734-4.0332L11.2891-4.0332L12.5488-0.585938Q12.6855-0.175781 12.9004-0.00976562Q13.1152 0.15625 13.4961 0.15625Q13.8867 0.15625 14.1162-0.0585938Q14.3457-0.273438 14.3457-0.644531Q14.3457-0.869141 14.2383-1.17188L9.6582-13.3691Q9.48242-13.8184 9.17969-14.043Q8.87695-14.2676 8.4082-14.2676Q7.5-14.2676 7.17773-13.3789L2.59766-1.16211Q2.49023-0.859375 2.49023-0.634766Q2.49023-0.263672 2.70996-0.0537109Q2.92969 0.15625 3.31055 0.15625ZM6.00586-5.51758L8.37891-12.0898L8.42773-12.0898L10.8008-5.51758Z"/>
  </g>
  <line style="fill:none;stroke:#00AEEF;stroke-width:0.5;opacity:1.0;" x1="793.197" x2="793.197" y1="1919" y2="1933"/>
  <text style="stroke:none;fill:black;font-family:sans-serif;font-size:13;font-weight:bold;" transform="matrix(1 0 0 1 776 1953)">Margins</text>
  <text style="stroke:none;fill:black;font-family:sans-serif;font-size:13;" transform="matrix(1 0 0 1 776 1971)">Leading and trailing margins on the left and right side of each symbol</text>
  <text style="stroke:none;fill:black;font-family:sans-serif;font-size:13;" transform="matrix(1 0 0 1 776 1989)">can be adjusted by modifying the x-location of the margin guidelines.</text>
  <text style="stroke:none;fill:black;font-family:sans-serif;font-size:13;" transform="matrix(1 0 0 1 776 2007)">Modifications are automatically applied proportionally to all</text>
  <text style="stroke:none;fill:black;font-family:sans-serif;font-size:13;" transform="matrix(1 0 0 1 776 2025)">scales and weights.</text>
  <g transform="matrix(1 0 0 1 1289 1933)">
   <path d="M2.8418 1.86523L4.54102 3.57422Q5.18555 4.22852 5.90332 4.17969Q6.62109 4.13086 7.31445 3.35938L18.0078-8.42773L17.041-9.4043L6.42578 2.27539Q6.16211 2.57812 5.89355 2.61719Q5.625 2.65625 5.27344 2.30469L4.10156 1.14258Q3.75 0.791016 3.79395 0.522461Q3.83789 0.253906 4.14062-0.0195312L15.6152-10.8203L14.6387-11.7871L3.04688-0.898438Q2.30469-0.214844 2.25098 0.498047Q2.19727 1.21094 2.8418 1.86523ZM9.25781-16.3281Q8.94531-16.0254 8.90625-15.6348Q8.86719-15.2441 9.04297-14.9512Q9.21875-14.6777 9.55566-14.541Q9.89258-14.4043 10.3809-14.5215Q11.4746-14.7754 12.5977-14.7314Q13.7207-14.6875 14.7949-13.9844L14.209-12.5293Q13.9551-11.9043 14.0674-11.4404Q14.1797-10.9766 14.5801-10.5664L16.875-8.25195Q17.2363-7.88086 17.5781-7.82227Q17.9199-7.76367 18.3398-7.8418L19.4043-8.03711L20.0684-7.36328L20.0293-6.80664Q20-6.43555 20.1221-6.12305Q20.2441-5.81055 20.6055-5.44922L21.3672-4.70703Q21.7285-4.3457 22.1533-4.33105Q22.5781-4.31641 22.9297-4.66797L25.8398-7.58789Q26.1914-7.93945 26.1816-8.35449Q26.1719-8.76953 25.8105-9.13086L25.0391-9.89258Q24.6875-10.2539 24.3799-10.3857Q24.0723-10.5176 23.7109-10.4883L23.1348-10.4395L22.4902-11.0742L22.7344-12.1973Q22.832-12.6172 22.6953-12.9834Q22.5586-13.3496 22.1191-13.7891L19.9219-15.9766Q18.6719-17.2168 17.2607-17.8369Q15.8496-18.457 14.4189-18.4814Q12.9883-18.5059 11.665-17.959Q10.3418-17.4121 9.25781-16.3281ZM10.752-15.957Q11.6602-16.6211 12.7002-16.9043Q13.7402-17.1875 14.8047-17.085Q15.8691-16.9824 16.8701-16.5137Q17.8711-16.0449 18.7012-15.2051L21.1328-12.793Q21.3086-12.6172 21.3525-12.4512Q21.3965-12.2852 21.3379-12.0312L21.0156-10.5469L22.5195-9.0625L23.5059-9.12109Q23.6914-9.13086 23.7891-9.09668Q23.8867-9.0625 24.0332-8.91602L24.6094-8.33984L22.168-5.89844L21.5918-6.47461Q21.4453-6.62109 21.4062-6.71875Q21.3672-6.81641 21.377-7.01172L21.4453-7.98828L19.9512-9.47266L18.4277-9.21875Q18.1836-9.16992 18.042-9.2041Q17.9004-9.23828 17.7148-9.41406L15.7129-11.416Q15.5176-11.5918 15.4932-11.7529Q15.4688-11.9141 15.5859-12.1875L16.4648-14.2773Q15.293-15.3711 13.8281-15.791Q12.3633-16.2109 10.8398-15.7617Q10.7227-15.7324 10.6885-15.8057Q10.6543-15.8789 10.752-15.957Z"/>
  </g>
  <text style="stroke:none;fill:black;font-family:sans-serif;font-size:13;font-weight:bold;" transform="matrix(1 0 0 1 1289 1953)">Exporting</text>
  <text style="stroke:none;fill:black;font-family:sans-serif;font-size:13;" transform="matrix(1 0 0 1 1289 1971)">Symbols should be outlined when exporting to ensure the</text>
  <text style="stroke:none;fill:black;font-family:sans-serif;font-size:13;" transform="matrix(1 0 0 1 1289 1989)">design is preserved when submitting to Xcode.</text>
  <text id="template-version" style="stroke:none;fill:black;font-family:sans-serif;font-size:13;text-anchor:end;" transform="matrix(1 0 0 1 3036 1933)">Template v.3.0</text>
  <text style="stroke:none;fill:black;font-family:sans-serif;font-size:13;text-anchor:end;" transform="matrix(1 0 0 1 3036 1951)">Requires Xcode 13 or greater</text>
  <text id="descriptive-name" style="stroke:none;fill:black;font-family:sans-serif;font-size:13;text-anchor:end;" transform="matrix(1 0 0 1 3036 1969)">Generated from return.left</text>
  <text style="stroke:none;fill:black;font-family:sans-serif;font-size:13;text-anchor:end;" transform="matrix(1 0 0 1 3036 1987)">Typeset at 100 points</text>
  <text style="stroke:none;fill:black;font-family:sans-serif;font-size:13;" transform="matrix(1 0 0 1 263 726)">Small</text>
  <text style="stroke:none;fill:black;font-family:sans-serif;font-size:13;" transform="matrix(1 0 0 1 263 1156)">Medium</text>
  <text style="stroke:none;fill:black;font-family:sans-serif;font-size:13;" transform="matrix(1 0 0 1 263 1586)">Large</text>
 </g>
 <g id="Guides">
  <g id="H-reference" style="fill:#27AAE1;stroke:none;" transform="matrix(1 0 0 1 339 696)">
   <path d="M0.976562 0L3.66211 0L29.3457-67.1387L30.0293-67.1387L30.0293-70.459L28.125-70.459ZM11.6699-24.4629L46.9727-24.4629L46.2402-26.709L12.4512-26.709ZM55.127 0L57.7637 0L30.6152-70.459L29.4434-70.459L29.4434-67.1387Z"/>
  </g>
  <line id="Baseline-S" style="fill:none;stroke:#27AAE1;opacity:1;stroke-width:0.5;" x1="263" x2="3036" y1="696" y2="696"/>
  <line id="Capline-S" style="fill:none;stroke:#27AAE1;opacity:1;stroke-width:0.5;" x1="263" x2="3036" y1="625.541" y2="625.541"/>
  <g id="H-reference" style="fill:#27AAE1;stroke:none;" transform="matrix(1 0 0 1 339 1126)">
   <path d="M0.976562 0L3.66211 0L29.3457-67.1387L30.0293-67.1387L30.0293-70.459L28.125-70.459ZM11.6699-24.4629L46.9727-24.4629L46.2402-26.709L12.4512-26.709ZM55.127 0L57.7637 0L30.6152-70.459L29.4434-70.459L29.4434-67.1387Z"/>
  </g>
  <line id="Baseline-M" style="fill:none;stroke:#27AAE1;opacity:1;stroke-width:0.5;" x1="263" x2="3036" y1="1126" y2="1126"/>
  <line id="Capline-M" style="fill:none;stroke:#27AAE1;opacity:1;stroke-width:0.5;" x1="263" x2="3036" y1="1055.54" y2="1055.54"/>
  <g id="H-reference" style="fill:#27AAE1;stroke:none;" transform="matrix(1 0 0 1 339 1556)">
   <path d="M0.976562 0L3.66211 0L29.3457-67.1387L30.0293-67.1387L30.0293-70.459L28.125-70.459ZM11.6699-24.4629L46.9727-24.4629L46.2402-26.709L12.4512-26.709ZM55.127 0L57.7637 0L30.6152-70.459L29.4434-70.459L29.4434-67.1387Z"/>
  </g>
  <line id="Baseline-L" style="fill:none;stroke:#27AAE1;opacity:1;stroke-width:0.5;" x1="263" x2="3036" y1="1556" y2="1556"/>
  <line id="Capline-L" style="fill:none;stroke:#27AAE1;opacity:1;stroke-width:0.5;" x1="263" x2="3036" y1="1485.54" y2="1485.54"/>
  <line id="left-margin-Ultralight-S" style="fill:none;stroke:#00AEEF;stroke-width:0.5;opacity:1.0;" x1="511.42" x2="511.42" y1="600.785" y2="720.121"/>
  <line id="right-margin-Ultralight-S" style="fill:none;stroke:#00AEEF;stroke-width:0.5;opacity:1.0;" x1="608.002" x2="608.002" y1="600.785" y2="720.121"/>
  <line id="left-margin-Thin-S" style="fill:none;stroke:#00AEEF;stroke-width:0.5;opacity:1.0;" x1="807.619" x2="807.619" y1="600.785" y2="720.121"/>
  <line id="right-margin-Thin-S" style="fill:none;stroke:#00AEEF;stroke-width:0.5;opacity:1.0;" x1="905.226" x2="905.226" y1="600.785" y2="720.121"/>
  <line id="left-margin-Light-S" style="fill:none;stroke:#00AEEF;stroke-width:0.5;opacity:1.0;" x1="1103.35" x2="1103.35" y1="600.785" y2="720.121"/>
  <line id="right-margin-Light-S" style="fill:none;stroke:#00AEEF;stroke-width:0.5;opacity:1.0;" x1="1202.91" x2="1202.91" y1="600.785" y2="720.121"/>
  <line id="left-margin-Regular-S" style="fill:none;stroke:#00AEEF;stroke-width:0.5;opacity:1.0;" x1="1399.31" x2="1399.31" y1="600.785" y2="720.121"/>
  <line id="right-margin-Regular-S" style="fill:none;stroke:#00AEEF;stroke-width:0.5;opacity:1.0;" x1="1500.38" x2="1500.38" y1="600.785" y2="720.121"/>
  <line id="left-margin-Medium-S" style="fill:none;stroke:#00AEEF;stroke-width:0.5;opacity:1.0;" x1="1694.9" x2="1694.9" y1="600.785" y2="720.121"/>
  <line id="right-margin-Medium-S" style="fill:none;stroke:#00AEEF;stroke-width:0.5;opacity:1.0;" x1="1798.22" x2="1798.22" y1="600.785" y2="720.121"/>
  <line id="left-margin-Semibold-S" style="fill:none;stroke:#00AEEF;stroke-width:0.5;opacity:1.0;" x1="1990.78" x2="1990.78" y1="600.785" y2="720.121"/>
  <line id="right-margin-Semibold-S" style="fill:none;stroke:#00AEEF;stroke-width:0.5;opacity:1.0;" x1="2095.76" x2="2095.76" y1="600.785" y2="720.121"/>
  <line id="left-margin-Bold-S" style="fill:none;stroke:#00AEEF;stroke-width:0.5;opacity:1.0;" x1="2286.34" x2="2286.34" y1="600.785" y2="720.121"/>
  <line id="right-margin-Bold-S" style="fill:none;stroke:#00AEEF;stroke-width:0.5;opacity:1.0;" x1="2393.62" x2="2393.62" y1="600.785" y2="720.121"/>
  <line id="left-margin-Heavy-S" style="fill:none;stroke:#00AEEF;stroke-width:0.5;opacity:1.0;" x1="2581.44" x2="2581.44" y1="600.785" y2="720.121"/>
  <line id="right-margin-Heavy-S" style="fill:none;stroke:#00AEEF;stroke-width:0.5;opacity:1.0;" x1="2691.94" x2="2691.94" y1="600.785" y2="720.121"/>
  <line id="left-margin-Black-S" style="fill:none;stroke:#00AEEF;stroke-width:0.5;opacity:1.0;" x1="2876.69" x2="2876.69" y1="600.785" y2="720.121"/>
  <line id="right-margin-Black-S" style="fill:none;stroke:#00AEEF;stroke-width:0.5;opacity:1.0;" x1="2990.11" x2="2990.11" y1="600.785" y2="720.121"/>
  <line id="left-margin-Ultralight-M" style="fill:none;stroke:#00AEEF;stroke-width:0.5;opacity:1.0;" x1="498.285" x2="498.285" y1="1030.79" y2="1150.12"/>
  <line id="right-margin-Ultralight-M" style="fill:none;stroke:#00AEEF;stroke-width:0.5;opacity:1.0;" x1="621.137" x2="621.137" y1="1030.79" y2="1150.12"/>
  <line id="left-margin-Thin-M" style="fill:none;stroke:#00AEEF;stroke-width:0.5;opacity:1.0;" x1="794.435" x2="794.435" y1="1030.79" y2="1150.12"/>
  <line id="right-margin-Thin-M" style="fill:none;stroke:#00AEEF;stroke-width:0.5;opacity:1.0;" x1="918.41" x2="918.41" y1="1030.79" y2="1150.12"/>
  <line id="left-margin-Light-M" style="fill:none;stroke:#00AEEF;stroke-width:0.5;opacity:1.0;" x1="1090.02" x2="1090.02" y1="1030.79" y2="1150.12"/>
  <line id="right-margin-Light-M" style="fill:none;stroke:#00AEEF;stroke-width:0.5;opacity:1.0;" x1="1216.24" x2="1216.24" y1="1030.79" y2="1150.12"/>
  <line id="left-margin-Regular-M" style="fill:none;stroke:#00AEEF;stroke-width:0.5;opacity:1.0;" x1="1385.88" x2="1385.88" y1="1030.79" y2="1150.12"/>
  <line id="right-margin-Regular-M" style="fill:none;stroke:#00AEEF;stroke-width:0.5;opacity:1.0;" x1="1513.81" x2="1513.81" y1="1030.79" y2="1150.12"/>
  <line id="left-margin-Medium-M" style="fill:none;stroke:#00AEEF;stroke-width:0.5;opacity:1.0;" x1="1681.2" x2="1681.2" y1="1030.79" y2="1150.12"/>
  <line id="right-margin-Medium-M" style="fill:none;stroke:#00AEEF;stroke-width:0.5;opacity:1.0;" x1="1811.91" x2="1811.91" y1="1030.79" y2="1150.12"/>
  <line id="left-margin-Semibold-M" style="fill:none;stroke:#00AEEF;stroke-width:0.5;opacity:1.0;" x1="1976.84" x2="1976.84" y1="1030.79" y2="1150.12"/>
  <line id="right-margin-Semibold-M" style="fill:none;stroke:#00AEEF;stroke-width:0.5;opacity:1.0;" x1="2109.7" x2="2109.7" y1="1030.79" y2="1150.12"/>
  <line id="left-margin-Bold-M" style="fill:none;stroke:#00AEEF;stroke-width:0.5;opacity:1.0;" x1="2272.13" x2="2272.13" y1="1030.79" y2="1150.12"/>
  <line id="right-margin-Bold-M" style="fill:none;stroke:#00AEEF;stroke-width:0.5;opacity:1.0;" x1="2407.82" x2="2407.82" y1="1030.79" y2="1150.12"/>
  <line id="left-margin-Heavy-M" style="fill:none;stroke:#00AEEF;stroke-width:0.5;opacity:1.0;" x1="2566.79" x2="2566.79" y1="1030.79" y2="1150.12"/>
  <line id="right-margin-Heavy-M" style="fill:none;stroke:#00AEEF;stroke-width:0.5;opacity:1.0;" x1="2706.59" x2="2706.59" y1="1030.79" y2="1150.12"/>
  <line id="left-margin-Black-M" style="fill:none;stroke:#00AEEF;stroke-width:0.5;opacity:1.0;" x1="2861.67" x2="2861.67" y1="1030.79" y2="1150.12"/>
  <line id="right-margin-Black-M" style="fill:none;stroke:#00AEEF;stroke-width:0.5;opacity:1.0;" x1="3005.13" x2="3005.13" y1="1030.79" y2="1150.12"/>
  <line id="left-margin-Ultralight-L" style="fill:none;stroke:#00AEEF;stroke-width:0.5;opacity:1.0;" x1="480.707" x2="480.707" y1="1460.79" y2="1580.12"/>
  <line id="right-margin-Ultralight-L" style="fill:none;stroke:#00AEEF;stroke-width:0.5;opacity:1.0;" x1="638.715" x2="638.715" y1="1460.79" y2="1580.12"/>
  <line id="left-margin-Thin-L" style="fill:none;stroke:#00AEEF;stroke-width:0.5;opacity:1.0;" x1="776.784" x2="776.784" y1="1460.79" y2="1580.12"/>
  <line id="right-margin-Thin-L" style="fill:none;stroke:#00AEEF;stroke-width:0.5;opacity:1.0;" x1="936.061" x2="936.061" y1="1460.79" y2="1580.12"/>
  <line id="left-margin-Light-L" style="fill:none;stroke:#00AEEF;stroke-width:0.5;opacity:1.0;" x1="1072.25" x2="1072.25" y1="1460.79" y2="1580.12"/>
  <line id="right-margin-Light-L" style="fill:none;stroke:#00AEEF;stroke-width:0.5;opacity:1.0;" x1="1234.02" x2="1234.02" y1="1460.79" y2="1580.12"/>
  <line id="left-margin-Regular-L" style="fill:none;stroke:#00AEEF;stroke-width:0.5;opacity:1.0;" x1="1368.01" x2="1368.01" y1="1460.79" y2="1580.12"/>
  <line id="right-margin-Regular-L" style="fill:none;stroke:#00AEEF;stroke-width:0.5;opacity:1.0;" x1="1531.68" x2="1531.68" y1="1460.79" y2="1580.12"/>
  <line id="left-margin-Medium-L" style="fill:none;stroke:#00AEEF;stroke-width:0.5;opacity:1.0;" x1="1663.13" x2="1663.13" y1="1460.79" y2="1580.12"/>
  <line id="right-margin-Medium-L" style="fill:none;stroke:#00AEEF;stroke-width:0.5;opacity:1.0;" x1="1829.98" x2="1829.98" y1="1460.79" y2="1580.12"/>
  <line id="left-margin-Semibold-L" style="fill:none;stroke:#00AEEF;stroke-width:0.5;opacity:1.0;" x1="1958.62" x2="1958.62" y1="1460.79" y2="1580.12"/>
  <line id="right-margin-Semibold-L" style="fill:none;stroke:#00AEEF;stroke-width:0.5;opacity:1.0;" x1="2127.91" x2="2127.91" y1="1460.79" y2="1580.12"/>
  <line id="left-margin-Bold-L" style="fill:none;stroke:#00AEEF;stroke-width:0.5;opacity:1.0;" x1="2253.72" x2="2253.72" y1="1460.79" y2="1580.12"/>
  <line id="right-margin-Bold-L" style="fill:none;stroke:#00AEEF;stroke-width:0.5;opacity:1.0;" x1="2426.23" x2="2426.23" y1="1460.79" y2="1580.12"/>
  <line id="left-margin-Heavy-L" style="fill:none;stroke:#00AEEF;stroke-width:0.5;opacity:1.0;" x1="2548.11" x2="2548.11" y1="1460.79" y2="1580.12"/>
  <line id="right-margin-Heavy-L" style="fill:none;stroke:#00AEEF;stroke-width:0.5;opacity:1.0;" x1="2725.26" x2="2725.26" y1="1460.79" y2="1580.12"/>
  <line id="left-margin-Black-L" style="fill:none;stroke:#00AEEF;stroke-width:0.5;opacity:1.0;" x1="2842.75" x2="2842.75" y1="1460.79" y2="1580.12"/>
  <line id="right-margin-Black-L" style="fill:none;stroke:#00AEEF;stroke-width:0.5;opacity:1.0;" x1="3024.05" x2="3024.05" y1="1460.79" y2="1580.12"/>
 </g>
 <g id="Symbols">
  <g id="Black-L" transform="matrix(1 0 0 1 2842.75 1556)">
   <path d="M60.8398 27.8809Q65.8203 27.8809 68.8477 24.7803Q71.875 21.6797 71.875 17.041Q71.875 14.3555 70.8008 12.4023Q69.7266 10.4492 68.1641 8.88672L58.8867-0.0976562L42.5293-13.1836L37.6953-6.98242L64.7949-5.71289L136.914-5.71289Q151.611-5.71289 158.423-12.3779Q165.234-19.043 165.234-34.0332L165.234-71.6309Q165.234-86.3281 158.423-93.1396Q151.611-99.9512 136.914-99.9512L103.613-99.9512Q98.6816-99.9512 95.3613-96.6064Q92.041-93.2617 92.041-88.5254Q92.041-83.7891 95.3613-80.4443Q98.6816-77.0996 103.613-77.0996L135.645-77.0996Q139.6-77.0996 141.284-75.415Q142.969-73.7305 142.969-69.7754L142.969-35.8887Q142.969-31.9336 141.284-30.249Q139.6-28.5645 135.645-28.5645L64.7949-28.5645L37.6953-27.2949L42.5293-21.0938L58.8867-34.1797L68.1641-43.1152Q69.7266-44.6777 70.8008-46.6309Q71.875-48.584 71.875-51.2695Q71.875-55.8594 68.8477-58.96Q65.8203-62.0605 60.8398-62.0605Q56.25-62.0605 52.6855-58.5449L19.3848-25.5371Q17.8223-24.0234 16.9434-21.7285Q16.0645-19.4336 16.0645-17.1387Q16.0645-14.8438 16.9434-12.5488Q17.8223-10.2539 19.3848-8.74023L52.6855 24.3164Q56.25 27.8809 60.8398 27.8809Z"/>
  </g>
  <g id="Heavy-L" transform="matrix(1 0 0 1 2548.11 1556)">
   <path d="M60.3027 25.7324Q64.5996 25.7324 67.2119 23.0469Q69.8242 20.3613 69.8242 16.3574Q69.8242 14.0625 68.9209 12.3779Q68.0176 10.6934 66.6992 9.32617L55.0293-2.00195L38.9648-15.1367L35.0586-9.86328L60.1074-8.74023L134.814-8.74023Q148.438-8.74023 154.761-14.9902Q161.084-21.2402 161.084-35.0586L161.084-72.6562Q161.084-86.3281 154.761-92.627Q148.438-98.9258 134.814-98.9258L100.537-98.9258Q96.2891-98.9258 93.4326-96.0449Q90.5762-93.1641 90.5762-89.0625Q90.5762-85.0098 93.4082-82.1289Q96.2402-79.248 100.537-79.248L133.838-79.248Q138.086-79.248 139.966-77.3682Q141.846-75.4883 141.846-71.2402L141.846-36.4746Q141.846-32.1777 139.966-30.2979Q138.086-28.418 133.838-28.418L60.1074-28.418L35.0586-27.2949L38.9648-21.9727L55.0293-35.1562L66.6992-46.4355Q68.0176-47.7539 68.9209-49.4385Q69.8242-51.123 69.8242-53.418Q69.8242-57.4219 67.2119-60.1074Q64.5996-62.793 60.3027-62.793Q56.2988-62.793 53.2227-59.7656L18.9941-25.8301Q17.5781-24.4629 16.8213-22.5098Q16.0645-20.5566 16.0645-18.5547Q16.0645-16.6016 16.8213-14.624Q17.5781-12.6465 18.9941-11.3281L53.2227 22.6562Q56.2988 25.7324 60.3027 25.7324Z"/>
  </g>
  <g id="Bold-L" transform="matrix(1 0 0 1 2253.72 1556)">
   <path d="M59.668 23.3398Q63.2324 23.3398 65.3809 21.1182Q67.5293 18.8965 67.5293 15.5762Q67.5293 13.7207 66.8457 12.3291Q66.1621 10.9375 65.0391 9.86328L50.7812-4.15039L35.0098-17.3828L32.1289-13.0859L54.834-12.1094L132.471-12.1094Q144.922-12.1094 150.684-17.8955Q156.445-23.6816 156.445-36.1816L156.445-73.8281Q156.445-86.2793 150.684-92.041Q144.922-97.8027 132.471-97.8027L97.168-97.8027Q93.6035-97.8027 91.2842-95.4346Q88.9648-93.0664 88.9648-89.6973Q88.9648-86.377 91.2598-84.0088Q93.5547-81.6406 97.1191-81.6406L131.836-81.6406Q136.426-81.6406 138.501-79.5654Q140.576-77.4902 140.576-72.9004L140.576-37.1094Q140.576-32.4707 138.477-30.3711Q136.377-28.2715 131.836-28.2715L54.834-28.2715L32.1289-27.2461L35.0098-22.998L50.7812-36.2305L65.0391-50.1465Q66.1621-51.2207 66.8457-52.6123Q67.5293-54.0039 67.5293-55.8594Q67.5293-59.1797 65.3809-61.4014Q63.2324-63.623 59.668-63.623Q56.3965-63.623 53.8574-61.1328L18.5059-26.123Q17.334-25 16.6992-23.4131Q16.0645-21.8262 16.0645-20.166Q16.0645-18.5547 16.6992-16.9434Q17.334-15.332 18.5059-14.209L53.8574 20.8008Q56.3965 23.3398 59.668 23.3398Z"/>
  </g>
  <g id="Semibold-L" transform="matrix(1 0 0 1 1958.62 1556)">
   <path d="M59.2285 21.6309Q62.2559 21.6309 64.1113 19.751Q65.9668 17.8711 65.9668 14.9902Q65.9668 13.4766 65.4053 12.3047Q64.8438 11.1328 63.916 10.2051L47.8027-5.61523L32.2266-18.8965L30.0781-15.2832L51.2207-14.4043L130.859-14.4043Q142.48-14.4043 147.852-19.873Q153.223-25.3418 153.223-36.9629L153.223-74.6094Q153.223-86.2793 147.852-91.626Q142.48-96.9727 130.859-96.9727L94.7754-96.9727Q91.6992-96.9727 89.7461-94.9707Q87.793-92.9688 87.793-90.1367Q87.793-87.3047 89.7461-85.2783Q91.6992-83.252 94.7754-83.252L130.469-83.252Q135.254-83.252 137.451-81.0303Q139.648-78.8086 139.648-74.0234L139.648-37.5488Q139.648-32.6172 137.427-30.3711Q135.205-28.125 130.469-28.125L51.2207-28.125L30.0781-27.2461L32.2266-23.6816L47.8027-36.9629L63.916-52.6855Q64.8438-53.6133 65.4053-54.7852Q65.9668-55.957 65.9668-57.5195Q65.9668-60.4004 64.1113-62.2803Q62.2559-64.1602 59.2285-64.1602Q56.3965-64.1602 54.2969-62.0605L18.1641-26.3184Q17.1387-25.3418 16.6016-23.999Q16.0645-22.6562 16.0645-21.2891Q16.0645-19.873 16.6016-18.5303Q17.1387-17.1875 18.1641-16.1621L54.2969 19.5312Q56.3965 21.6309 59.2285 21.6309Z"/>
  </g>
  <g id="Medium-L" transform="matrix(1 0 0 1 1663.13 1556)">
   <path d="M58.9355 20.4102Q61.5234 20.4102 63.1348 18.7744Q64.7461 17.1387 64.7461 14.5996Q64.7461 13.2812 64.2822 12.2559Q63.8184 11.2305 63.0371 10.4492L45.5566-6.68945L30.1758-20.0195L28.5156-16.9434L48.4375-16.1621L129.639-16.1621Q140.625-16.1621 145.703-21.3867Q150.781-26.6113 150.781-37.5488L150.781-75.2441Q150.781-86.2305 145.703-91.3086Q140.625-96.3867 129.639-96.3867L93.0176-96.3867Q90.332-96.3867 88.6475-94.6533Q86.9629-92.9199 86.9629-90.4297Q86.9629-87.9883 88.623-86.2549Q90.2832-84.5215 92.9688-84.5215L129.395-84.5215Q134.375-84.5215 136.694-82.1777Q139.014-79.834 139.014-74.9023L139.014-37.8906Q139.014-32.7637 136.67-30.3955Q134.326-28.0273 129.395-28.0273L48.4375-28.0273L28.5156-27.1973L30.1758-24.1699L45.5566-37.5L63.0371-54.6387Q63.8184-55.4199 64.2822-56.4453Q64.7461-57.4707 64.7461-58.7891Q64.7461-61.3281 63.1348-62.9639Q61.5234-64.5996 58.9355-64.5996Q56.4453-64.5996 54.5898-62.7441L17.9199-26.5137Q17.041-25.6348 16.5527-24.4873Q16.0645-23.3398 16.0645-22.1191Q16.0645-20.8984 16.5527-19.751Q17.041-18.6035 17.9199-17.6758L54.5898 18.5547Q56.4453 20.4102 58.9355 20.4102Z"/>
  </g>
  <g id="Regular-L" transform="matrix(1 0 0 1 1368.01 1556)">
   <path d="M58.4961 18.75Q60.5957 18.75 61.8896 17.4316Q63.1836 16.1133 63.1836 14.0625Q63.1836 13.0371 62.8662 12.2314Q62.5488 11.4258 61.9141 10.791L42.627-8.1543L27.4414-21.5332L26.5137-19.1406L44.873-18.457L128.027-18.457Q138.232-18.457 142.92-23.3643Q147.607-28.2715 147.607-38.3301L147.607-76.0254Q147.607-86.2305 142.92-90.918Q138.232-95.6055 128.027-95.6055L90.6738-95.6055Q88.4766-95.6055 87.1582-94.2139Q85.8398-92.8223 85.8398-90.8691Q85.8398-88.916 87.1338-87.5244Q88.4277-86.1328 90.625-86.1328L128.027-86.1328Q133.203-86.1328 135.669-83.667Q138.135-81.2012 138.135-76.0254L138.135-38.3301Q138.135-32.959 135.645-30.4443Q133.154-27.9297 128.027-27.9297L44.873-27.9297L26.5137-27.1973L27.4414-24.8535L42.627-38.2324L61.9141-57.1777Q62.5488-57.7637 62.8662-58.5938Q63.1836-59.4238 63.1836-60.4492Q63.1836-62.5 61.8896-63.8184Q60.5957-65.1367 58.4961-65.1367Q56.4941-65.1367 55.0293-63.6719L17.627-26.709Q16.8457-25.9766 16.4551-25.0732Q16.0645-24.1699 16.0645-23.1934Q16.0645-22.2168 16.4551-21.3135Q16.8457-20.4102 17.627-19.6289L55.0293 17.2852Q56.4941 18.75 58.4961 18.75Z"/>
  </g>
  <g id="Light-L" transform="matrix(1 0 0 1 1072.25 1556)">
   <path d="M57.7148 17.627Q59.2773 17.627 60.2539 16.626Q61.2305 15.625 61.2305 14.1602Q61.2305 13.3789 60.9863 12.7441Q60.7422 12.1094 60.3027 11.6211L39.502-8.93555L24.8535-22.4121L24.1699-20.752L40.8691-20.2637L127.832-20.2637Q136.914-20.2637 141.309-24.8535Q145.703-29.4434 145.703-38.6719L145.703-77.002Q145.703-86.084 141.309-90.5029Q136.914-94.9219 127.832-94.9219L87.5977-94.9219Q85.9863-94.9219 84.9854-93.8721Q83.9844-92.8223 83.9844-91.3574Q83.9844-89.8926 84.9365-88.8672Q85.8887-87.8418 87.5-87.8418L127.832-87.8418Q133.154-87.8418 135.913-85.1074Q138.672-82.373 138.672-77.002L138.672-38.6719Q138.672-32.959 135.889-30.1514Q133.105-27.3438 127.832-27.3438L40.8691-27.3438L24.1699-26.8066L24.8535-25.1953L39.502-38.6719L60.3027-59.2285Q60.7422-59.668 60.9863-60.3271Q61.2305-60.9863 61.2305-61.7188Q61.2305-63.2324 60.2539-64.2334Q59.2773-65.2344 57.7148-65.2344Q56.2012-65.2344 55.127-64.1602L17.2363-26.416Q16.6504-25.8789 16.3574-25.2197Q16.0645-24.5605 16.0645-23.7793Q16.0645-23.0469 16.3574-22.3877Q16.6504-21.7285 17.2363-21.1426L55.127 16.5527Q56.2012 17.627 57.7148 17.627Z"/>
  </g>
  <g id="Thin-L" transform="matrix(1 0 0 1 776.784 1556)">
   <path d="M56.6406 16.1621Q57.5195 16.1621 58.0811 15.6006Q58.6426 15.0391 58.6426 14.2578Q58.6426 13.7695 58.4961 13.3789Q58.3496 12.9883 58.1055 12.7441L35.3516-9.96094L21.3867-23.5352L21.0449-22.8516L35.6445-22.6562L127.539-22.6562Q135.156-22.6562 139.185-26.8066Q143.213-30.957 143.213-39.1113L143.213-78.2715Q143.213-85.9375 139.185-89.9658Q135.156-93.9941 127.539-93.9941L83.4961-93.9941Q82.6172-93.9941 82.0801-93.4326Q81.543-92.8711 81.543-92.041Q81.543-91.2109 82.0557-90.6494Q82.5684-90.0879 83.3984-90.0879L127.539-90.0879Q133.154-90.0879 136.23-86.9873Q139.307-83.8867 139.307-78.2715L139.307-39.1113Q139.307-32.959 136.206-29.7607Q133.105-26.5625 127.539-26.5625L35.6445-26.5625L21.0449-26.3184L21.3867-25.6836L35.3516-39.209L58.1055-61.9629Q58.3496-62.207 58.4961-62.5977Q58.6426-62.9883 58.6426-63.4277Q58.6426-64.2578 58.0811-64.8193Q57.5195-65.3809 56.6406-65.3809Q55.8105-65.3809 55.2246-64.7949L16.6992-26.0254Q16.4062-25.7324 16.2354-25.3906Q16.0645-25.0488 16.0645-24.6094Q16.0645-24.1699 16.2354-23.8281Q16.4062-23.4863 16.6992-23.1445L55.2246 15.5762Q55.8105 16.1621 56.6406 16.1621Z"/>
  </g>
  <g id="Ultralight-L" transform="matrix(1 0 0 1 480.707 1556)">
   <path d="M56.1035 15.4297Q56.6406 15.4297 56.9824 15.0635Q57.3242 14.6973 57.3242 14.3066Q57.3242 14.0137 57.2266 13.7451Q57.1289 13.4766 57.0312 13.3301L33.2031-10.498L19.6289-24.1211L19.4824-23.9746L32.9102-23.877L127.393-23.877Q134.229-23.877 138.086-27.832Q141.943-31.7871 141.943-39.3066L141.943-78.9551Q141.943-85.8398 138.086-89.6729Q134.229-93.5059 127.393-93.5059L81.3965-93.5059Q80.957-93.5059 80.6396-93.1885Q80.3223-92.8711 80.3223-92.3828Q80.3223-91.8457 80.5908-91.5283Q80.8594-91.2109 81.2988-91.2109L127.393-91.2109Q133.105-91.2109 136.401-87.9395Q139.697-84.668 139.697-78.9551L139.697-39.3066Q139.697-32.959 136.377-29.5654Q133.057-26.1719 127.393-26.1719L32.9102-26.1719L19.4824-26.0742L19.6289-25.8789L33.2031-39.502L57.0312-63.3301Q57.1289-63.4766 57.2266-63.7695Q57.3242-64.0625 57.3242-64.3066Q57.3242-64.7461 56.9824-65.1123Q56.6406-65.4785 56.1035-65.4785Q55.6152-65.4785 55.2734-65.1367L16.4062-25.8301Q16.2598-25.6348 16.1621-25.4639Q16.0645-25.293 16.0645-25Q16.0645-24.707 16.1621-24.5361Q16.2598-24.3652 16.4062-24.1699L55.2734 15.0391Q55.6152 15.4297 56.1035 15.4297Z"/>
  </g>
  <g id="Black-M" transform="matrix(1 0 0 1 2861.67 1126)">
   <path d="M47.3633 15.1367Q51.6113 15.1367 54.1992 12.4756Q56.7871 9.81445 56.7871 5.9082Q56.7871 3.56445 55.835 1.87988Q54.8828 0.195312 53.5156-1.12305L47.8516-6.64062L35.1074-16.748L30.6641-11.4258L52.8809-10.4004L107.861-10.4004Q119.775-10.4004 125.391-15.8203Q131.006-21.2402 131.006-33.5449L131.006-62.8906Q131.006-74.8047 125.391-80.4199Q119.775-86.0352 107.861-86.0352L81.8848-86.0352Q77.6855-86.0352 74.8047-83.1543Q71.9238-80.2734 71.9238-76.2207Q71.9238-72.1191 74.8047-69.2627Q77.6855-66.4062 81.8848-66.4062L106.592-66.4062Q109.473-66.4062 110.718-65.1611Q111.963-63.916 111.963-61.0352L111.963-35.3516Q111.963-32.4707 110.718-31.2256Q109.473-29.9805 106.592-29.9805L52.8809-29.9805L30.6641-28.9551L35.1074-23.6328L47.8516-33.7402L53.5156-39.209Q54.8828-40.5273 55.835-42.2119Q56.7871-43.8965 56.7871-46.2402Q56.7871-50.1465 54.1992-52.8076Q51.6113-55.4688 47.3633-55.4688Q43.4082-55.4688 40.3809-52.3926L15.2344-27.3926Q13.9648-26.123 13.208-24.1455Q12.4512-22.168 12.4512-20.2148Q12.4512-18.2129 13.208-16.2598Q13.9648-14.3066 15.2344-13.0371L40.3809 12.0605Q43.4082 15.1367 47.3633 15.1367Z"/>
  </g>
  <g id="Heavy-M" transform="matrix(1 0 0 1 2566.79 1126)">
   <path d="M46.9727 13.2812Q50.6836 13.2812 52.9541 10.9619Q55.2246 8.64258 55.2246 5.22461Q55.2246 3.17383 54.4189 1.7334Q53.6133 0.292969 52.4414-0.878906L44.7754-8.30078L32.1777-18.5059L28.6133-13.916L49.1211-12.9395L105.859-12.9395Q116.992-12.9395 122.168-18.0176Q127.344-23.0957 127.344-34.4727L127.344-63.7207Q127.344-74.8047 122.168-80.0049Q116.992-85.2051 105.859-85.2051L79.541-85.2051Q75.8789-85.2051 73.3887-82.6904Q70.8984-80.1758 70.8984-76.6602Q70.8984-73.0957 73.3887-70.6055Q75.8789-68.1152 79.541-68.1152L104.883-68.1152Q108.008-68.1152 109.375-66.748Q110.742-65.3809 110.742-62.2559L110.742-35.8398Q110.742-32.7148 109.375-31.3477Q108.008-29.9805 104.883-29.9805L49.1211-29.9805L28.6133-29.0039L32.1777-24.4141L44.7754-34.5703L52.4414-41.9922Q53.6133-43.1641 54.4189-44.6045Q55.2246-46.0449 55.2246-48.0957Q55.2246-51.5137 52.9541-53.833Q50.6836-56.1523 46.9727-56.1523Q43.5547-56.1523 40.918-53.4668L14.9414-27.7344Q13.7695-26.6113 13.1104-24.9023Q12.4512-23.1934 12.4512-21.4844Q12.4512-19.7266 13.1104-18.042Q13.7695-16.3574 14.9414-15.2344L40.918 10.5957Q43.5547 13.2812 46.9727 13.2812Z"/>
  </g>
  <g id="Bold-M" transform="matrix(1 0 0 1 2272.13 1126)">
   <path d="M46.582 11.1816Q49.6582 11.1816 51.5625 9.25293Q53.4668 7.32422 53.4668 4.44336Q53.4668 2.7832 52.832 1.58691Q52.1973 0.390625 51.2207-0.585938L41.3574-10.2051L28.9551-20.459L26.2695-16.6504L44.9707-15.8203L103.613-15.8203Q113.867-15.8203 118.555-20.5078Q123.242-25.1953 123.242-35.498L123.242-64.5996Q123.242-74.8535 118.555-79.541Q113.867-84.2285 103.613-84.2285L76.9531-84.2285Q73.877-84.2285 71.8262-82.1533Q69.7754-80.0781 69.7754-77.1484Q69.7754-74.2188 71.8018-72.1436Q73.8281-70.0684 76.9531-70.0684L102.979-70.0684Q106.348-70.0684 107.861-68.5791Q109.375-67.0898 109.375-63.6719L109.375-36.4258Q109.375-32.959 107.861-31.4453Q106.348-29.9316 102.979-29.9316L44.9707-29.9316L26.2695-29.1016L28.9551-25.3418L41.3574-35.5469L51.2207-45.1172Q52.1973-46.0938 52.832-47.29Q53.4668-48.4863 53.4668-50.1465Q53.4668-53.0273 51.5625-54.9805Q49.6582-56.9336 46.582-56.9336Q43.7012-56.9336 41.5039-54.6875L14.5996-28.125Q13.5742-27.1484 13.0127-25.7324Q12.4512-24.3164 12.4512-22.9004Q12.4512-21.4355 13.0127-20.0439Q13.5742-18.6523 14.5996-17.6758L41.5039 8.98438Q43.7012 11.1816 46.582 11.1816Z"/>
  </g>
  <g id="Semibold-M" transform="matrix(1 0 0 1 1976.84 1126)">
   <path d="M46.2402 9.76562Q48.9258 9.76562 50.5859 8.08105Q52.2461 6.39648 52.2461 3.85742Q52.2461 2.49023 51.709 1.46484Q51.1719 0.439453 50.3906-0.390625L38.9648-11.5234L26.6602-21.7773L24.6582-18.5547L42.041-17.7734L102.051-17.7734Q111.67-17.7734 116.04-22.1924Q120.41-26.6113 120.41-36.2305L120.41-65.2344Q120.41-74.8535 116.04-79.2236Q111.67-83.5938 102.051-83.5938L75.1465-83.5938Q72.4609-83.5938 70.7031-81.8115Q68.9453-80.0293 68.9453-77.4902Q68.9453-74.9512 70.6787-73.1689Q72.4121-71.3867 75.1465-71.3867L101.66-71.3867Q105.225-71.3867 106.812-69.7998Q108.398-68.2129 108.398-64.6484L108.398-36.7676Q108.398-33.1543 106.812-31.543Q105.225-29.9316 101.66-29.9316L42.041-29.9316L24.6582-29.1504L26.6602-25.9277L38.9648-36.1816L50.3906-47.2656Q51.1719-48.0957 51.709-49.1211Q52.2461-50.1465 52.2461-51.5625Q52.2461-54.0527 50.5859-55.7373Q48.9258-57.4219 46.2402-57.4219Q43.7988-57.4219 41.8945-55.5176L14.3555-28.3691Q13.4277-27.4902 12.9395-26.2939Q12.4512-25.0977 12.4512-23.8281Q12.4512-22.6074 12.9395-21.4111Q13.4277-20.2148 14.3555-19.3359L41.8945 7.86133Q43.7988 9.76562 46.2402 9.76562Z"/>
  </g>
  <g id="Medium-M" transform="matrix(1 0 0 1 1681.2 1126)">
   <path d="M46.0449 8.64258Q48.3887 8.64258 49.8535 7.17773Q51.3184 5.71289 51.3184 3.4668Q51.3184 2.29492 50.8789 1.3916Q50.4395 0.488281 49.7559-0.244141L37.1582-12.5L25-22.8027L23.4375-19.9707L39.8438-19.2383L100.879-19.2383Q110.059-19.2383 114.16-23.4863Q118.262-27.7344 118.262-36.7676L118.262-65.6738Q118.262-74.8535 114.16-78.9551Q110.059-83.0566 100.879-83.0566L73.7793-83.0566Q71.3867-83.0566 69.873-81.4941Q68.3594-79.9316 68.3594-77.7344Q68.3594-75.5371 69.8486-73.9746Q71.3379-72.4121 73.7793-72.4121L100.684-72.4121Q104.346-72.4121 106.006-70.752Q107.666-69.0918 107.666-65.3809L107.666-37.0605Q107.666-33.252 106.006-31.5674Q104.346-29.8828 100.684-29.8828L39.8438-29.8828L23.4375-29.1992L25-26.416L37.1582-36.6699L49.7559-48.877Q50.4395-49.6094 50.8789-50.5127Q51.3184-51.416 51.3184-52.6367Q51.3184-54.8828 49.8535-56.3477Q48.3887-57.8125 46.0449-57.8125Q43.8477-57.8125 42.2363-56.1523L14.1602-28.5645Q13.3301-27.7832 12.8906-26.7334Q12.4512-25.6836 12.4512-24.5605Q12.4512-23.4863 12.8906-22.4609Q13.3301-21.4355 14.1602-20.6055L42.2363 7.03125Q43.8477 8.64258 46.0449 8.64258Z"/>
  </g>
  <g id="Regular-M" transform="matrix(1 0 0 1 1385.88 1126)">
   <path d="M45.752 7.22656Q47.7051 7.22656 48.9014 6.03027Q50.0977 4.83398 50.0977 2.92969Q50.0977 2.00195 49.7803 1.26953Q49.4629 0.537109 48.9258-0.0488281L34.8145-13.7695L22.7539-24.1211L21.875-21.875L37.0117-21.1914L99.3652-21.1914Q107.91-21.1914 111.694-25.1709Q115.479-29.1504 115.479-37.4512L115.479-66.3086Q115.479-74.8535 111.694-78.6377Q107.91-82.4219 99.3652-82.4219L72.0215-82.4219Q70.0195-82.4219 68.7988-81.1523Q67.5781-79.8828 67.5781-78.0762Q67.5781-76.2695 68.7744-75Q69.9707-73.7305 72.0215-73.7305L99.3652-73.7305Q103.223-73.7305 104.98-71.9727Q106.738-70.2148 106.738-66.3086L106.738-37.4512Q106.738-33.4473 104.98-31.665Q103.223-29.8828 99.3652-29.8828L37.0117-29.8828L21.875-29.248L22.7539-27.002L34.8145-37.3047L48.9258-51.0254Q49.4629-51.6113 49.7803-52.3438Q50.0977-53.0762 50.0977-54.0527Q50.0977-55.9082 48.9014-57.1289Q47.7051-58.3496 45.752-58.3496Q43.9453-58.3496 42.627-56.9824L13.916-28.8086Q13.1836-28.125 12.8174-27.2949Q12.4512-26.4648 12.4512-25.5371Q12.4512-24.6582 12.8174-23.8281Q13.1836-22.998 13.916-22.2656L42.627 5.9082Q43.9453 7.22656 45.752 7.22656Z"/>
  </g>
  <g id="Light-M" transform="matrix(1 0 0 1 1090.02 1126)">
   <path d="M45.0195 6.25Q46.5332 6.25 47.4365 5.32227Q48.3398 4.39453 48.3398 3.02734Q48.3398 2.29492 48.0957 1.70898Q47.8516 1.12305 47.4609 0.683594L31.9824-14.502L20.4102-24.9023L19.7754-23.291L33.4473-22.8027L99.1699-22.8027Q106.738-22.8027 110.254-26.4893Q113.77-30.1758 113.77-37.7441L113.77-67.1875Q113.77-74.707 110.254-78.2471Q106.738-81.7871 99.1699-81.7871L69.2383-81.7871Q67.7734-81.7871 66.8457-80.835Q65.918-79.8828 65.918-78.5156Q65.918-77.1484 66.8213-76.1963Q67.7246-75.2441 69.2383-75.2441L99.1699-75.2441Q103.223-75.2441 105.225-73.2422Q107.227-71.2402 107.227-67.1875L107.227-37.7441Q107.227-33.4473 105.2-31.3965Q103.174-29.3457 99.1699-29.3457L33.4473-29.3457L19.7754-28.9062L20.4102-27.2949L31.9824-37.6953L47.4609-52.8809Q47.8516-53.3203 48.0957-53.9062Q48.3398-54.4922 48.3398-55.2246Q48.3398-56.5918 47.4365-57.5195Q46.5332-58.4473 45.0195-58.4473Q43.7012-58.4473 42.6758-57.4219L13.5742-28.5645Q12.9883-28.0273 12.7197-27.417Q12.4512-26.8066 12.4512-26.0742Q12.4512-25.3906 12.7197-24.7803Q12.9883-24.1699 13.5742-23.6328L42.6758 5.22461Q43.7012 6.25 45.0195 6.25Z"/>
  </g>
  <g id="Thin-M" transform="matrix(1 0 0 1 794.435 1126)">
   <path d="M44.0918 4.93164Q44.9707 4.93164 45.4834 4.39453Q45.9961 3.85742 45.9961 3.125Q45.9961 2.68555 45.874 2.31934Q45.752 1.95312 45.5078 1.70898L28.2715-15.4297L17.334-25.9277L16.9922-25.1953L28.7598-24.9512L98.9258-24.9512Q105.127-24.9512 108.325-28.2715Q111.523-31.5918 111.523-38.1348L111.523-68.3105Q111.523-74.5605 108.325-77.7588Q105.127-80.957 98.9258-80.957L65.5762-80.957Q64.7949-80.957 64.2578-80.4199Q63.7207-79.8828 63.7207-79.1016Q63.7207-78.3203 64.209-77.7832Q64.6973-77.2461 65.5762-77.2461L98.9258-77.2461Q103.174-77.2461 105.493-74.9268Q107.812-72.6074 107.812-68.3105L107.812-38.1348Q107.812-33.4473 105.493-31.0547Q103.174-28.6621 98.9258-28.6621L28.7598-28.6621L16.9922-28.418L17.334-27.6855L28.2715-38.1836L45.5078-55.3711Q45.752-55.5664 45.874-55.9326Q45.9961-56.2988 45.9961-56.7383Q45.9961-57.4707 45.4834-58.0078Q44.9707-58.5449 44.0918-58.5449Q43.3594-58.5449 42.7734-58.0078L13.0859-28.2227Q12.7441-27.9297 12.5977-27.5879Q12.4512-27.2461 12.4512-26.8066Q12.4512-26.416 12.5977-26.0742Q12.7441-25.7324 13.0859-25.4395L42.7734 4.3457Q43.3594 4.93164 44.0918 4.93164Z"/>
  </g>
  <g id="Ultralight-M" transform="matrix(1 0 0 1 498.285 1126)">
   <path d="M43.6035 4.29688Q44.1406 4.29688 44.4824 3.93066Q44.8242 3.56445 44.8242 3.17383Q44.8242 2.88086 44.7266 2.6123Q44.6289 2.34375 44.5312 2.19727L26.3672-15.918L15.7715-26.416L15.5762-26.1719L26.3184-26.0742L98.7793-26.0742Q104.346-26.0742 107.373-29.1748Q110.4-32.2754 110.4-38.3301L110.4-68.8965Q110.4-74.4629 107.373-77.4902Q104.346-80.5176 98.7793-80.5176L63.7207-80.5176Q63.2324-80.5176 62.915-80.2002Q62.5977-79.8828 62.5977-79.3945Q62.5977-78.9062 62.8906-78.5889Q63.1836-78.2715 63.6719-78.2715L98.7793-78.2715Q103.174-78.2715 105.664-75.7812Q108.154-73.291 108.154-68.8965L108.154-38.3301Q108.154-33.4473 105.64-30.8594Q103.125-28.2715 98.7793-28.2715L26.3184-28.2715L15.5762-28.2227L15.7715-27.9297L26.3672-38.4277L44.5312-56.5918Q44.6289-56.7383 44.7266-57.0068Q44.8242-57.2754 44.8242-57.5195Q44.8242-57.959 44.4824-58.3008Q44.1406-58.6426 43.6035-58.6426Q43.1641-58.6426 42.8223-58.3008L12.8418-28.0273Q12.6465-27.832 12.5488-27.6367Q12.4512-27.4414 12.4512-27.1484Q12.4512-26.9043 12.5488-26.7334Q12.6465-26.5625 12.8418-26.3672L42.8223 3.90625Q43.1641 4.29688 43.6035 4.29688Z"/>
  </g>
  <g id="Black-S" transform="matrix(1 0 0 1 2876.69 696)">
   <path d="M37.207 4.73633Q40.6738 4.73633 42.7734 2.56348Q44.873 0.390625 44.873-2.7832Q44.873-4.6875 44.0918-6.0791Q43.3105-7.4707 42.1875-8.54492L38.2812-12.3535L28.2715-20.2637L24.5605-15.918L42.3828-15.0879L85.1074-15.0879Q94.6289-15.0879 99.1455-19.4336Q103.662-23.7793 103.662-33.6426L103.662-56.6895Q103.662-66.2109 99.1455-70.7275Q94.6289-75.2441 85.1074-75.2441L64.6973-75.2441Q61.2793-75.2441 58.9355-72.9004Q56.5918-70.5566 56.5918-67.2363Q56.5918-63.916 58.9355-61.5723Q61.2793-59.2285 64.6973-59.2285L84.0332-59.2285Q86.2305-59.2285 87.1826-58.2764Q88.1348-57.3242 88.1348-55.127L88.1348-35.2051Q88.1348-33.0078 87.1826-32.0557Q86.2305-31.1035 84.0332-31.1035L42.3828-31.1035L24.5605-30.2734L28.2715-25.9277L38.2812-33.8379L42.1875-37.5977Q43.3105-38.7207 44.0918-40.0879Q44.873-41.4551 44.873-43.3594Q44.873-46.5332 42.7734-48.7061Q40.6738-50.8789 37.207-50.8789Q33.9844-50.8789 31.4941-48.3887L12.0117-28.9551Q9.76562-26.709 9.76562-23.0957Q9.76562-19.4824 12.0117-17.2363L31.4941 2.24609Q33.9844 4.73633 37.207 4.73633Z"/>
  </g>
  <g id="Heavy-S" transform="matrix(1 0 0 1 2581.44 696)">
   <path d="M36.9629 3.27148Q40.0391 3.27148 41.8945 1.34277Q43.75-0.585938 43.75-3.41797Q43.75-5.0293 43.0908-6.25Q42.4316-7.4707 41.4551-8.44727L36.0352-13.7207L26.0742-21.6309L23.0469-17.8223L39.6484-17.041L83.3984-17.041Q92.3828-17.041 96.5576-21.1426Q100.732-25.2441 100.732-34.375L100.732-57.2754Q100.732-66.2598 96.5576-70.4346Q92.3828-74.6094 83.3984-74.6094L63.0371-74.6094Q60.0098-74.6094 57.959-72.5342Q55.9082-70.459 55.9082-67.5293Q55.9082-64.6484 57.959-62.5732Q60.0098-60.498 63.0371-60.498L82.5684-60.498Q84.9609-60.498 85.9863-59.4727Q87.0117-58.4473 87.0117-56.1035L87.0117-35.5957Q87.0117-33.2031 85.9863-32.1777Q84.9609-31.1523 82.5684-31.1523L39.6484-31.1523L23.0469-30.3711L26.0742-26.5625L36.0352-34.5215L41.4551-39.7461Q42.4316-40.7227 43.0908-41.9189Q43.75-43.1152 43.75-44.7754Q43.75-47.6074 41.8945-49.5361Q40.0391-51.4648 36.9629-51.4648Q34.1309-51.4648 31.9336-49.2676L11.8164-29.2969Q9.76562-27.2949 9.76562-24.1211Q9.76562-20.9473 11.8164-18.9453L31.9336 1.07422Q34.1309 3.27148 36.9629 3.27148Z"/>
  </g>
  <g id="Bold-S" transform="matrix(1 0 0 1 2286.34 696)">
   <path d="M36.7188 1.66016Q39.3555 1.66016 40.918 0Q42.4805-1.66016 42.4805-4.10156Q42.4805-5.46875 41.9678-6.49414Q41.4551-7.51953 40.625-8.30078L33.4961-15.2344L23.6328-23.1934L21.3867-20.0195L36.5723-19.2871L81.543-19.2871Q89.8926-19.2871 93.7012-23.0957Q97.5098-26.9043 97.5098-35.2539L97.5098-57.959Q97.5098-66.3086 93.7012-70.0928Q89.8926-73.877 81.543-73.877L61.2305-73.877Q58.6426-73.877 56.9092-72.1436Q55.1758-70.4102 55.1758-67.9199Q55.1758-65.4297 56.9092-63.6963Q58.6426-61.9629 61.2305-61.9629L81.0059-61.9629Q83.5938-61.9629 84.6924-60.8398Q85.791-59.7168 85.791-57.1777L85.791-36.0352Q85.791-33.4473 84.6924-32.3242Q83.5938-31.2012 81.0059-31.2012L36.5723-31.2012L21.3867-30.5176L23.6328-27.2949L33.4961-35.2539L40.625-42.1875Q41.4551-43.0176 41.9678-44.0186Q42.4805-45.0195 42.4805-46.3867Q42.4805-48.8281 40.918-50.4639Q39.3555-52.0996 36.7188-52.0996Q34.2773-52.0996 32.4219-50.2441L11.5723-29.6387Q9.76562-27.9297 9.76562-25.2441Q9.76562-22.6074 11.5723-20.8496L32.4219-0.244141Q34.2773 1.66016 36.7188 1.66016Z"/>
  </g>
  <g id="Semibold-S" transform="matrix(1 0 0 1 1990.78 696)">
   <path d="M36.5234 0.488281Q38.8184 0.488281 40.21-0.952148Q41.6016-2.39258 41.6016-4.54102Q41.6016-5.71289 41.1621-6.61621Q40.7227-7.51953 40.0391-8.20312L31.7383-16.2598L21.9238-24.2676L20.2148-21.4844L34.4727-20.8008L80.2246-20.8008Q88.1348-20.8008 91.6748-24.4141Q95.2148-28.0273 95.2148-35.791L95.2148-58.3984Q95.2148-66.3086 91.6748-69.8486Q88.1348-73.3887 80.2246-73.3887L59.9609-73.3887Q57.666-73.3887 56.1523-71.8506Q54.6387-70.3125 54.6387-68.1152Q54.6387-65.9668 56.1523-64.4531Q57.666-62.9395 59.9609-62.9395L79.8828-62.9395Q82.6172-62.9395 83.7646-61.7676Q84.9121-60.5957 84.9121-57.9102L84.9121-36.3281Q84.9121-33.5938 83.7646-32.4219Q82.6172-31.25 79.8828-31.25L34.4727-31.25L20.2148-30.5664L21.9238-27.7832L31.7383-35.791L40.0391-43.8477Q40.7227-44.5312 41.1621-45.4102Q41.6016-46.2891 41.6016-47.5098Q41.6016-49.6582 40.21-51.0742Q38.8184-52.4902 36.5234-52.4902Q34.375-52.4902 32.7637-50.8789L11.377-29.8828Q9.76562-28.3203 9.76562-26.0254Q9.76562-23.7305 11.377-22.1191L32.7637-1.12305Q34.375 0.488281 36.5234 0.488281Z"/>
  </g>
  <g id="Medium-S" transform="matrix(1 0 0 1 1694.9 696)">
   <path d="M36.4258-0.341797Q38.4766-0.341797 39.7217-1.63574Q40.9668-2.92969 40.9668-4.88281Q40.9668-5.9082 40.6006-6.71387Q40.2344-7.51953 39.5996-8.1543L30.3711-17.041L20.6543-25.0488L19.3359-22.6074L32.8613-21.9238L79.1992-21.9238Q86.8164-21.9238 90.1855-25.3906Q93.5547-28.8574 93.5547-36.2305L93.5547-58.7402Q93.5547-66.3086 90.1855-69.6533Q86.8164-72.998 79.1992-72.998L59.0332-72.998Q56.9336-72.998 55.5908-71.6309Q54.248-70.2637 54.248-68.3105Q54.248-66.4062 55.5908-65.0391Q56.9336-63.6719 59.0332-63.6719L79.0039-63.6719Q81.8848-63.6719 83.0566-62.4512Q84.2285-61.2305 84.2285-58.4473L84.2285-36.5234Q84.2285-33.6914 83.0566-32.4707Q81.8848-31.25 79.0039-31.25L32.8613-31.25L19.3359-30.6152L20.6543-28.125L30.3711-36.1816L39.5996-45.0684Q40.2344-45.752 40.6006-46.5088Q40.9668-47.2656 40.9668-48.3398Q40.9668-50.293 39.7217-51.5625Q38.4766-52.832 36.4258-52.832Q34.4727-52.832 33.0078-51.416L11.2305-30.0781Q9.76562-28.6621 9.76562-26.6113Q9.76562-24.5605 11.2305-23.1445L33.0078-1.80664Q34.4727-0.341797 36.4258-0.341797Z"/>
  </g>
  <g id="Regular-S" transform="matrix(1 0 0 1 1399.31 696)">
   <path d="M36.2305-1.46484Q37.9883-1.46484 39.0381-2.56348Q40.0879-3.66211 40.0879-5.37109Q40.0879-6.20117 39.8193-6.86035Q39.5508-7.51953 39.0137-8.05664L28.6621-18.0664L18.9941-26.123L18.1641-24.0723L30.7617-23.4375L77.9297-23.4375Q85.1074-23.4375 88.208-26.709Q91.3086-29.9805 91.3086-36.8164L91.3086-59.1797Q91.3086-66.3574 88.208-69.4336Q85.1074-72.5098 77.9297-72.5098L57.7637-72.5098Q55.957-72.5098 54.8584-71.3623Q53.7598-70.2148 53.7598-68.5547Q53.7598-66.9434 54.8584-65.7959Q55.957-64.6484 57.7637-64.6484L77.9297-64.6484Q80.9082-64.6484 82.1533-63.3789Q83.3984-62.1094 83.3984-59.1797L83.3984-36.8164Q83.3984-33.8379 82.1533-32.5684Q80.9082-31.2988 77.9297-31.2988L30.7617-31.2988L18.1641-30.7129L18.9941-28.6133L28.6621-36.6699L39.0137-46.7285Q39.5508-47.2656 39.8193-47.9004Q40.0879-48.5352 40.0879-49.4141Q40.0879-51.123 39.0381-52.1973Q37.9883-53.2715 36.2305-53.2715Q34.5703-53.2715 33.3496-52.0508L11.084-30.3223Q9.76562-29.1016 9.76562-27.3926Q9.76562-25.6836 11.084-24.4141L33.3496-2.68555Q34.5703-1.46484 36.2305-1.46484Z"/>
  </g>
  <g id="Light-S" transform="matrix(1 0 0 1 1103.35 696)">
   <path d="M35.5957-2.34375Q36.9141-2.34375 37.7197-3.17383Q38.5254-4.00391 38.5254-5.32227Q38.5254-5.95703 38.3301-6.46973Q38.1348-6.98242 37.7441-7.37305L26.1719-18.7012L16.9434-26.8066L16.3086-25.3418L27.5879-24.8535L77.7832-24.8535Q84.0332-24.8535 86.9141-27.8809Q89.7949-30.9082 89.7949-37.0605L89.7949-59.9121Q89.7949-66.2598 86.9141-69.1162Q84.0332-71.9727 77.7832-71.9727L55.3223-71.9727Q53.9551-71.9727 53.125-71.0938Q52.2949-70.2148 52.2949-68.9453Q52.2949-67.7246 53.125-66.8701Q53.9551-66.0156 55.2734-66.0156L77.7832-66.0156Q80.8594-66.0156 82.3486-64.5264Q83.8379-63.0371 83.8379-59.9121L83.8379-37.0605Q83.8379-33.8379 82.3486-32.3242Q80.8594-30.8105 77.7832-30.8105L27.5879-30.8105L16.3086-30.4199L16.9434-28.9062L26.1719-37.0117L37.7441-48.3398Q38.1348-48.7793 38.3301-49.2676Q38.5254-49.7559 38.5254-50.4395Q38.5254-51.709 37.7197-52.5391Q36.9141-53.3691 35.5957-53.3691Q34.3262-53.3691 33.3984-52.4414L10.7422-30.0781Q9.76562-29.1504 9.76562-27.8809Q9.76562-26.5625 10.7422-25.6348L33.3984-3.27148Q34.3262-2.34375 35.5957-2.34375Z"/>
  </g>
  <g id="Thin-S" transform="matrix(1 0 0 1 807.619 696)">
   <path d="M34.7656-3.51562Q35.5469-3.51562 36.0352-4.00391Q36.5234-4.49219 36.5234-5.22461Q36.5234-5.61523 36.377-5.93262Q36.2305-6.25 36.0352-6.49414L22.8516-19.5312L14.1602-27.7344L13.8184-27.002L23.4375-26.7578L77.5391-26.7578Q82.666-26.7578 85.2539-29.4434Q87.8418-32.1289 87.8418-37.4023L87.8418-60.9375Q87.8418-66.0645 85.2539-68.6279Q82.666-71.1914 77.5391-71.1914L52.0508-71.1914Q51.3184-71.1914 50.8301-70.7031Q50.3418-70.2148 50.3418-69.4824Q50.3418-68.75 50.8057-68.2617Q51.2695-67.7734 52.0508-67.7734L77.5391-67.7734Q80.8594-67.7734 82.6172-66.0156Q84.375-64.2578 84.375-60.9375L84.375-37.4023Q84.375-33.8379 82.6172-32.0312Q80.8594-30.2246 77.5391-30.2246L23.4375-30.2246L13.8184-30.0293L14.1602-29.248L22.8516-37.4512L36.0352-50.5371Q36.2305-50.7324 36.377-51.0498Q36.5234-51.3672 36.5234-51.7578Q36.5234-52.4902 36.0352-52.9785Q35.5469-53.4668 34.7656-53.4668Q34.0332-53.4668 33.4961-52.9785L10.3516-29.7852Q9.76562-29.248 9.76562-28.5156Q9.76562-27.7344 10.3516-27.2461L33.4961-4.05273Q34.0332-3.51562 34.7656-3.51562Z"/>
  </g>
  <g id="Ultralight-S" transform="matrix(1 0 0 1 511.42 696)">
   <path d="M34.3262-4.10156Q34.8145-4.10156 35.1318-4.41895Q35.4492-4.73633 35.4492-5.17578Q35.4492-5.41992 35.376-5.66406Q35.3027-5.9082 35.1562-6.00586L21.1914-19.9707L12.793-28.2227L12.5977-27.8809L21.2891-27.7344L77.4414-27.7344Q81.9336-27.7344 84.375-30.249Q86.8164-32.7637 86.8164-37.5977L86.8164-61.4258Q86.8164-66.0156 84.375-68.4326Q81.9336-70.8496 77.4414-70.8496L50.3906-70.8496Q49.9512-70.8496 49.6582-70.5322Q49.3652-70.2148 49.3652-69.7754Q49.3652-69.2871 49.6338-68.9941Q49.9023-68.7012 50.3418-68.7012L77.4414-68.7012Q80.8105-68.7012 82.7393-66.7969Q84.668-64.8926 84.668-61.4258L84.668-37.5977Q84.668-33.8379 82.7393-31.8604Q80.8105-29.8828 77.4414-29.8828L21.2891-29.8828L12.5977-29.7852L12.793-29.4434L21.1914-37.6465L35.1562-51.6113Q35.3027-51.7578 35.376-51.9775Q35.4492-52.1973 35.4492-52.4414Q35.4492-52.8809 35.1318-53.2227Q34.8145-53.5645 34.3262-53.5645Q33.8867-53.5645 33.5449-53.2227L10.1074-29.6387Q9.76562-29.2969 9.76562-28.8574Q9.76562-28.3691 10.1074-28.0273L33.5449-4.44336Q33.8867-4.10156 34.3262-4.10156Z"/>
  </g>
 </g>
</svg>
