<?xml version="1.0" encoding="UTF-8"?>
<!--Generator: Apple Native CoreSVG 175-->
<!DOCTYPE svg
PUBLIC "-//W3C//DTD SVG 1.1//EN"
       "http://www.w3.org/Graphics/SVG/1.1/DTD/svg11.dtd">
<svg version="1.1" xmlns="http://www.w3.org/2000/svg" xmlns:xlink="http://www.w3.org/1999/xlink" width="3300" height="2200">
 <!--glyph: "uni100355.medium", point size: 100.0, font version: "17.0d11e1", template writer version: "65.1"-->
 <g id="Notes">
  <rect height="2200" id="artboard" style="fill:white;opacity:1" width="3300" x="0" y="0"/>
  <line style="fill:none;stroke:black;opacity:1;stroke-width:0.5;" x1="263" x2="3036" y1="292" y2="292"/>
  <text style="stroke:none;fill:black;font-family:sans-serif;font-size:13;font-weight:bold;" transform="matrix(1 0 0 1 263 322)">Weight/Scale Variations</text>
  <text style="stroke:none;fill:black;font-family:sans-serif;font-size:13;text-anchor:middle;" transform="matrix(1 0 0 1 559.711 322)">Ultralight</text>
  <text style="stroke:none;fill:black;font-family:sans-serif;font-size:13;text-anchor:middle;" transform="matrix(1 0 0 1 856.422 322)">Thin</text>
  <text style="stroke:none;fill:black;font-family:sans-serif;font-size:13;text-anchor:middle;" transform="matrix(1 0 0 1 1153.13 322)">Light</text>
  <text style="stroke:none;fill:black;font-family:sans-serif;font-size:13;text-anchor:middle;" transform="matrix(1 0 0 1 1449.84 322)">Regular</text>
  <text style="stroke:none;fill:black;font-family:sans-serif;font-size:13;text-anchor:middle;" transform="matrix(1 0 0 1 1746.56 322)">Medium</text>
  <text style="stroke:none;fill:black;font-family:sans-serif;font-size:13;text-anchor:middle;" transform="matrix(1 0 0 1 2043.27 322)">Semibold</text>
  <text style="stroke:none;fill:black;font-family:sans-serif;font-size:13;text-anchor:middle;" transform="matrix(1 0 0 1 2339.98 322)">Bold</text>
  <text style="stroke:none;fill:black;font-family:sans-serif;font-size:13;text-anchor:middle;" transform="matrix(1 0 0 1 2636.69 322)">Heavy</text>
  <text style="stroke:none;fill:black;font-family:sans-serif;font-size:13;text-anchor:middle;" transform="matrix(1 0 0 1 2933.4 322)">Black</text>
  <line style="fill:none;stroke:black;opacity:1;stroke-width:0.5;" x1="263" x2="3036" y1="1903" y2="1903"/>
  <g transform="matrix(1 0 0 1 263 1933)">
   <path d="M9.24805 0.830078Q10.8691 0.830078 12.2949 0.214844Q13.7207-0.400391 14.8096-1.49414Q15.8984-2.58789 16.5186-4.01367Q17.1387-5.43945 17.1387-7.05078Q17.1387-8.66211 16.5186-10.0879Q15.8984-11.5137 14.8047-12.6074Q13.7109-13.7012 12.2852-14.3164Q10.8594-14.9316 9.23828-14.9316Q7.62695-14.9316 6.20117-14.3164Q4.77539-13.7012 3.69141-12.6074Q2.60742-11.5137 1.9873-10.0879Q1.36719-8.66211 1.36719-7.05078Q1.36719-5.43945 1.9873-4.01367Q2.60742-2.58789 3.69629-1.49414Q4.78516-0.400391 6.21094 0.214844Q7.63672 0.830078 9.24805 0.830078ZM9.24805-0.654297Q7.91992-0.654297 6.7627-1.14746Q5.60547-1.64062 4.73145-2.51953Q3.85742-3.39844 3.36426-4.56055Q2.87109-5.72266 2.87109-7.05078Q2.87109-8.37891 3.35938-9.54102Q3.84766-10.7031 4.72168-11.582Q5.5957-12.4609 6.75293-12.9541Q7.91016-13.4473 9.23828-13.4473Q10.5762-13.4473 11.7334-12.9541Q12.8906-12.4609 13.7695-11.582Q14.6484-10.7031 15.1465-9.54102Q15.6445-8.37891 15.6445-7.05078Q15.6445-5.72266 15.1514-4.56055Q14.6582-3.39844 13.7842-2.51953Q12.9102-1.64062 11.748-1.14746Q10.5859-0.654297 9.24805-0.654297ZM5.6543-7.05078Q5.6543-6.72852 5.85938-6.52832Q6.06445-6.32812 6.40625-6.32812L8.51562-6.32812L8.51562-4.20898Q8.51562-3.88672 8.71094-3.67676Q8.90625-3.4668 9.23828-3.4668Q9.56055-3.4668 9.77051-3.67676Q9.98047-3.88672 9.98047-4.20898L9.98047-6.32812L12.0898-6.32812Q12.4219-6.32812 12.627-6.52832Q12.832-6.72852 12.832-7.05078Q12.832-7.38281 12.627-7.58789Q12.4219-7.79297 12.0898-7.79297L9.98047-7.79297L9.98047-9.90234Q9.98047-10.2344 9.77051-10.4443Q9.56055-10.6543 9.23828-10.6543Q8.90625-10.6543 8.71094-10.4443Q8.51562-10.2344 8.51562-9.90234L8.51562-7.79297L6.40625-7.79297Q6.06445-7.79297 5.85938-7.58789Q5.6543-7.38281 5.6543-7.05078Z"/>
  </g>
  <g transform="matrix(1 0 0 1 281.867 1933)">
   <path d="M11.709 2.91016Q13.75 2.91016 15.5518 2.12891Q17.3535 1.34766 18.7305-0.0292969Q20.1074-1.40625 20.8887-3.20801Q21.6699-5.00977 21.6699-7.05078Q21.6699-9.0918 20.8887-10.8936Q20.1074-12.6953 18.7305-14.0723Q17.3535-15.4492 15.5469-16.2305Q13.7402-17.0117 11.6992-17.0117Q9.6582-17.0117 7.85645-16.2305Q6.05469-15.4492 4.68262-14.0723Q3.31055-12.6953 2.5293-10.8936Q1.74805-9.0918 1.74805-7.05078Q1.74805-5.00977 2.5293-3.20801Q3.31055-1.40625 4.6875-0.0292969Q6.06445 1.34766 7.86621 2.12891Q9.66797 2.91016 11.709 2.91016ZM11.709 1.25Q9.98047 1.25 8.47656 0.605469Q6.97266-0.0390625 5.83496-1.17676Q4.69727-2.31445 4.05762-3.81836Q3.41797-5.32227 3.41797-7.05078Q3.41797-8.7793 4.05762-10.2832Q4.69727-11.7871 5.83008-12.9297Q6.96289-14.0723 8.4668-14.7119Q9.9707-15.3516 11.6992-15.3516Q13.4277-15.3516 14.9316-14.7119Q16.4355-14.0723 17.5781-12.9297Q18.7207-11.7871 19.3652-10.2832Q20.0098-8.7793 20.0098-7.05078Q20.0098-5.32227 19.3701-3.81836Q18.7305-2.31445 17.5928-1.17676Q16.4551-0.0390625 14.9463 0.605469Q13.4375 1.25 11.709 1.25ZM7.17773-7.05078Q7.17773-6.69922 7.41211-6.47461Q7.64648-6.25 8.01758-6.25L10.8887-6.25L10.8887-3.36914Q10.8887-2.99805 11.1133-2.76855Q11.3379-2.53906 11.6895-2.53906Q12.0605-2.53906 12.29-2.76855Q12.5195-2.99805 12.5195-3.36914L12.5195-6.25L15.4004-6.25Q15.7715-6.25 16.001-6.47461Q16.2305-6.69922 16.2305-7.05078Q16.2305-7.42188 16.001-7.65137Q15.7715-7.88086 15.4004-7.88086L12.5195-7.88086L12.5195-10.752Q12.5195-11.1328 12.29-11.3623Q12.0605-11.5918 11.6895-11.5918Q11.3379-11.5918 11.1133-11.3574Q10.8887-11.123 10.8887-10.752L10.8887-7.88086L8.01758-7.88086Q7.63672-7.88086 7.40723-7.65137Q7.17773-7.42188 7.17773-7.05078Z"/>
  </g>
  <g transform="matrix(1 0 0 1 305.646 1933)">
   <path d="M14.9707 5.66406Q17.0605 5.66406 18.96 5.01465Q20.8594 4.36523 22.4512 3.19336Q24.043 2.02148 25.2197 0.429688Q26.3965-1.16211 27.0459-3.06641Q27.6953-4.9707 27.6953-7.05078Q27.6953-9.14062 27.0459-11.04Q26.3965-12.9395 25.2197-14.5312Q24.043-16.123 22.4512-17.2998Q20.8594-18.4766 18.9551-19.126Q17.0508-19.7754 14.9609-19.7754Q12.8711-19.7754 10.9717-19.126Q9.07227-18.4766 7.48535-17.2998Q5.89844-16.123 4.72168-14.5312Q3.54492-12.9395 2.90039-11.04Q2.25586-9.14062 2.25586-7.05078Q2.25586-4.9707 2.90527-3.06641Q3.55469-1.16211 4.72656 0.429688Q5.89844 2.02148 7.49023 3.19336Q9.08203 4.36523 10.9814 5.01465Q12.8809 5.66406 14.9707 5.66406ZM14.9707 3.84766Q13.1641 3.84766 11.5283 3.2959Q9.89258 2.74414 8.53516 1.74805Q7.17773 0.751953 6.17676-0.610352Q5.17578-1.97266 4.62891-3.6084Q4.08203-5.24414 4.08203-7.05078Q4.08203-8.86719 4.62891-10.5029Q5.17578-12.1387 6.17188-13.501Q7.16797-14.8633 8.52539-15.8594Q9.88281-16.8555 11.5186-17.4023Q13.1543-17.9492 14.9609-17.9492Q16.7773-17.9492 18.4131-17.4023Q20.0488-16.8555 21.4111-15.8594Q22.7734-14.8633 23.7695-13.501Q24.7656-12.1387 25.3174-10.5029Q25.8691-8.86719 25.8691-7.05078Q25.8789-5.24414 25.332-3.6084Q24.7852-1.97266 23.7842-0.610352Q22.7832 0.751953 21.4209 1.74805Q20.0586 2.74414 18.4229 3.2959Q16.7871 3.84766 14.9707 3.84766ZM9.19922-7.05078Q9.19922-6.66992 9.45801-6.4209Q9.7168-6.17188 10.1172-6.17188L14.0625-6.17188L14.0625-2.2168Q14.0625-1.81641 14.3115-1.55762Q14.5605-1.29883 14.9512-1.29883Q15.3516-1.29883 15.6104-1.55273Q15.8691-1.80664 15.8691-2.2168L15.8691-6.17188L19.8242-6.17188Q20.2246-6.17188 20.4785-6.4209Q20.7324-6.66992 20.7324-7.05078Q20.7324-7.46094 20.4785-7.71484Q20.2246-7.96875 19.8242-7.96875L15.8691-7.96875L15.8691-11.9141Q15.8691-12.3242 15.6104-12.583Q15.3516-12.8418 14.9512-12.8418Q14.5605-12.8418 14.3115-12.583Q14.0625-12.3242 14.0625-11.9141L14.0625-7.96875L10.1172-7.96875Q9.70703-7.96875 9.45312-7.71484Q9.19922-7.46094 9.19922-7.05078Z"/>
  </g>
  <text style="stroke:none;fill:black;font-family:sans-serif;font-size:13;font-weight:bold;" transform="matrix(1 0 0 1 263 1953)">Design Variations</text>
  <text style="stroke:none;fill:black;font-family:sans-serif;font-size:13;" transform="matrix(1 0 0 1 263 1971)">Symbols are supported in up to nine weights and three scales.</text>
  <text style="stroke:none;fill:black;font-family:sans-serif;font-size:13;" transform="matrix(1 0 0 1 263 1989)">For optimal layout with text and other symbols, vertically align</text>
  <text style="stroke:none;fill:black;font-family:sans-serif;font-size:13;" transform="matrix(1 0 0 1 263 2007)">symbols with the adjacent text.</text>
  <line style="fill:none;stroke:#00AEEF;stroke-width:0.5;opacity:1.0;" x1="776" x2="776" y1="1919" y2="1933"/>
  <g transform="matrix(1 0 0 1 776 1933)">
   <path d="M3.31055 0.15625Q3.70117 0.15625 3.91602-0.00976562Q4.13086-0.175781 4.26758-0.585938L5.52734-4.0332L11.2891-4.0332L12.5488-0.585938Q12.6855-0.175781 12.9004-0.00976562Q13.1152 0.15625 13.4961 0.15625Q13.8867 0.15625 14.1162-0.0585938Q14.3457-0.273438 14.3457-0.644531Q14.3457-0.869141 14.2383-1.17188L9.6582-13.3691Q9.48242-13.8184 9.17969-14.043Q8.87695-14.2676 8.4082-14.2676Q7.5-14.2676 7.17773-13.3789L2.59766-1.16211Q2.49023-0.859375 2.49023-0.634766Q2.49023-0.263672 2.70996-0.0537109Q2.92969 0.15625 3.31055 0.15625ZM6.00586-5.51758L8.37891-12.0898L8.42773-12.0898L10.8008-5.51758Z"/>
  </g>
  <line style="fill:none;stroke:#00AEEF;stroke-width:0.5;opacity:1.0;" x1="793.197" x2="793.197" y1="1919" y2="1933"/>
  <text style="stroke:none;fill:black;font-family:sans-serif;font-size:13;font-weight:bold;" transform="matrix(1 0 0 1 776 1953)">Margins</text>
  <text style="stroke:none;fill:black;font-family:sans-serif;font-size:13;" transform="matrix(1 0 0 1 776 1971)">Leading and trailing margins on the left and right side of each symbol</text>
  <text style="stroke:none;fill:black;font-family:sans-serif;font-size:13;" transform="matrix(1 0 0 1 776 1989)">can be adjusted by modifying the x-location of the margin guidelines.</text>
  <text style="stroke:none;fill:black;font-family:sans-serif;font-size:13;" transform="matrix(1 0 0 1 776 2007)">Modifications are automatically applied proportionally to all</text>
  <text style="stroke:none;fill:black;font-family:sans-serif;font-size:13;" transform="matrix(1 0 0 1 776 2025)">scales and weights.</text>
  <g transform="matrix(1 0 0 1 1289 1933)">
   <path d="M2.8418 1.86523L4.54102 3.57422Q5.18555 4.22852 5.90332 4.17969Q6.62109 4.13086 7.31445 3.35938L18.0078-8.42773L17.041-9.4043L6.42578 2.27539Q6.16211 2.57812 5.89355 2.61719Q5.625 2.65625 5.27344 2.30469L4.10156 1.14258Q3.75 0.791016 3.79395 0.522461Q3.83789 0.253906 4.14062-0.0195312L15.6152-10.8203L14.6387-11.7871L3.04688-0.898438Q2.30469-0.214844 2.25098 0.498047Q2.19727 1.21094 2.8418 1.86523ZM9.25781-16.3281Q8.94531-16.0254 8.90625-15.6348Q8.86719-15.2441 9.04297-14.9512Q9.21875-14.6777 9.55566-14.541Q9.89258-14.4043 10.3809-14.5215Q11.4746-14.7754 12.5977-14.7314Q13.7207-14.6875 14.7949-13.9844L14.209-12.5293Q13.9551-11.9043 14.0674-11.4404Q14.1797-10.9766 14.5801-10.5664L16.875-8.25195Q17.2363-7.88086 17.5781-7.82227Q17.9199-7.76367 18.3398-7.8418L19.4043-8.03711L20.0684-7.36328L20.0293-6.80664Q20-6.43555 20.1221-6.12305Q20.2441-5.81055 20.6055-5.44922L21.3672-4.70703Q21.7285-4.3457 22.1533-4.33105Q22.5781-4.31641 22.9297-4.66797L25.8398-7.58789Q26.1914-7.93945 26.1816-8.35449Q26.1719-8.76953 25.8105-9.13086L25.0391-9.89258Q24.6875-10.2539 24.3799-10.3857Q24.0723-10.5176 23.7109-10.4883L23.1348-10.4395L22.4902-11.0742L22.7344-12.1973Q22.832-12.6172 22.6953-12.9834Q22.5586-13.3496 22.1191-13.7891L19.9219-15.9766Q18.6719-17.2168 17.2607-17.8369Q15.8496-18.457 14.4189-18.4814Q12.9883-18.5059 11.665-17.959Q10.3418-17.4121 9.25781-16.3281ZM10.752-15.957Q11.6602-16.6211 12.7002-16.9043Q13.7402-17.1875 14.8047-17.085Q15.8691-16.9824 16.8701-16.5137Q17.8711-16.0449 18.7012-15.2051L21.1328-12.793Q21.3086-12.6172 21.3525-12.4512Q21.3965-12.2852 21.3379-12.0312L21.0156-10.5469L22.5195-9.0625L23.5059-9.12109Q23.6914-9.13086 23.7891-9.09668Q23.8867-9.0625 24.0332-8.91602L24.6094-8.33984L22.168-5.89844L21.5918-6.47461Q21.4453-6.62109 21.4062-6.71875Q21.3672-6.81641 21.377-7.01172L21.4453-7.98828L19.9512-9.47266L18.4277-9.21875Q18.1836-9.16992 18.042-9.2041Q17.9004-9.23828 17.7148-9.41406L15.7129-11.416Q15.5176-11.5918 15.4932-11.7529Q15.4688-11.9141 15.5859-12.1875L16.4648-14.2773Q15.293-15.3711 13.8281-15.791Q12.3633-16.2109 10.8398-15.7617Q10.7227-15.7324 10.6885-15.8057Q10.6543-15.8789 10.752-15.957Z"/>
  </g>
  <text style="stroke:none;fill:black;font-family:sans-serif;font-size:13;font-weight:bold;" transform="matrix(1 0 0 1 1289 1953)">Exporting</text>
  <text style="stroke:none;fill:black;font-family:sans-serif;font-size:13;" transform="matrix(1 0 0 1 1289 1971)">Symbols should be outlined when exporting to ensure the</text>
  <text style="stroke:none;fill:black;font-family:sans-serif;font-size:13;" transform="matrix(1 0 0 1 1289 1989)">design is preserved when submitting to Xcode.</text>
  <text id="template-version" style="stroke:none;fill:black;font-family:sans-serif;font-size:13;text-anchor:end;" transform="matrix(1 0 0 1 3036 1933)">Template v.3.0</text>
  <text style="stroke:none;fill:black;font-family:sans-serif;font-size:13;text-anchor:end;" transform="matrix(1 0 0 1 3036 1951)">Requires Xcode 13 or greater</text>
  <text id="descriptive-name" style="stroke:none;fill:black;font-family:sans-serif;font-size:13;text-anchor:end;" transform="matrix(1 0 0 1 3036 1969)">Generated from envelope</text>
  <text style="stroke:none;fill:black;font-family:sans-serif;font-size:13;text-anchor:end;" transform="matrix(1 0 0 1 3036 1987)">Typeset at 100 points</text>
  <text style="stroke:none;fill:black;font-family:sans-serif;font-size:13;" transform="matrix(1 0 0 1 263 726)">Small</text>
  <text style="stroke:none;fill:black;font-family:sans-serif;font-size:13;" transform="matrix(1 0 0 1 263 1156)">Medium</text>
  <text style="stroke:none;fill:black;font-family:sans-serif;font-size:13;" transform="matrix(1 0 0 1 263 1586)">Large</text>
 </g>
 <g id="Guides">
  <g id="H-reference" style="fill:#27AAE1;stroke:none;" transform="matrix(1 0 0 1 339 696)">
   <path d="M0.976562 0L3.66211 0L29.3457-67.1387L30.0293-67.1387L30.0293-70.459L28.125-70.459ZM11.6699-24.4629L46.9727-24.4629L46.2402-26.709L12.4512-26.709ZM55.127 0L57.7637 0L30.6152-70.459L29.4434-70.459L29.4434-67.1387Z"/>
  </g>
  <line id="Baseline-S" style="fill:none;stroke:#27AAE1;opacity:1;stroke-width:0.5;" x1="263" x2="3036" y1="696" y2="696"/>
  <line id="Capline-S" style="fill:none;stroke:#27AAE1;opacity:1;stroke-width:0.5;" x1="263" x2="3036" y1="625.541" y2="625.541"/>
  <g id="H-reference" style="fill:#27AAE1;stroke:none;" transform="matrix(1 0 0 1 339 1126)">
   <path d="M0.976562 0L3.66211 0L29.3457-67.1387L30.0293-67.1387L30.0293-70.459L28.125-70.459ZM11.6699-24.4629L46.9727-24.4629L46.2402-26.709L12.4512-26.709ZM55.127 0L57.7637 0L30.6152-70.459L29.4434-70.459L29.4434-67.1387Z"/>
  </g>
  <line id="Baseline-M" style="fill:none;stroke:#27AAE1;opacity:1;stroke-width:0.5;" x1="263" x2="3036" y1="1126" y2="1126"/>
  <line id="Capline-M" style="fill:none;stroke:#27AAE1;opacity:1;stroke-width:0.5;" x1="263" x2="3036" y1="1055.54" y2="1055.54"/>
  <g id="H-reference" style="fill:#27AAE1;stroke:none;" transform="matrix(1 0 0 1 339 1556)">
   <path d="M0.976562 0L3.66211 0L29.3457-67.1387L30.0293-67.1387L30.0293-70.459L28.125-70.459ZM11.6699-24.4629L46.9727-24.4629L46.2402-26.709L12.4512-26.709ZM55.127 0L57.7637 0L30.6152-70.459L29.4434-70.459L29.4434-67.1387Z"/>
  </g>
  <line id="Baseline-L" style="fill:none;stroke:#27AAE1;opacity:1;stroke-width:0.5;" x1="263" x2="3036" y1="1556" y2="1556"/>
  <line id="Capline-L" style="fill:none;stroke:#27AAE1;opacity:1;stroke-width:0.5;" x1="263" x2="3036" y1="1485.54" y2="1485.54"/>
  <line id="left-margin-Ultralight-S" style="fill:none;stroke:#00AEEF;stroke-width:0.5;opacity:1.0;" x1="509.54" x2="509.54" y1="600.785" y2="720.121"/>
  <line id="right-margin-Ultralight-S" style="fill:none;stroke:#00AEEF;stroke-width:0.5;opacity:1.0;" x1="609.882" x2="609.882" y1="600.785" y2="720.121"/>
  <line id="left-margin-Thin-S" style="fill:none;stroke:#00AEEF;stroke-width:0.5;opacity:1.0;" x1="805.739" x2="805.739" y1="600.785" y2="720.121"/>
  <line id="right-margin-Thin-S" style="fill:none;stroke:#00AEEF;stroke-width:0.5;opacity:1.0;" x1="907.106" x2="907.106" y1="600.785" y2="720.121"/>
  <line id="left-margin-Light-S" style="fill:none;stroke:#00AEEF;stroke-width:0.5;opacity:1.0;" x1="1101.47" x2="1101.47" y1="600.785" y2="720.121"/>
  <line id="right-margin-Light-S" style="fill:none;stroke:#00AEEF;stroke-width:0.5;opacity:1.0;" x1="1204.79" x2="1204.79" y1="600.785" y2="720.121"/>
  <line id="left-margin-Regular-S" style="fill:none;stroke:#00AEEF;stroke-width:0.5;opacity:1.0;" x1="1397.43" x2="1397.43" y1="600.785" y2="720.121"/>
  <line id="right-margin-Regular-S" style="fill:none;stroke:#00AEEF;stroke-width:0.5;opacity:1.0;" x1="1502.26" x2="1502.26" y1="600.785" y2="720.121"/>
  <line id="left-margin-Medium-S" style="fill:none;stroke:#00AEEF;stroke-width:0.5;opacity:1.0;" x1="1693.48" x2="1693.48" y1="600.785" y2="720.121"/>
  <line id="right-margin-Medium-S" style="fill:none;stroke:#00AEEF;stroke-width:0.5;opacity:1.0;" x1="1799.63" x2="1799.63" y1="600.785" y2="720.121"/>
  <line id="left-margin-Semibold-S" style="fill:none;stroke:#00AEEF;stroke-width:0.5;opacity:1.0;" x1="1989.7" x2="1989.7" y1="600.785" y2="720.121"/>
  <line id="right-margin-Semibold-S" style="fill:none;stroke:#00AEEF;stroke-width:0.5;opacity:1.0;" x1="2096.83" x2="2096.83" y1="600.785" y2="720.121"/>
  <line id="left-margin-Bold-S" style="fill:none;stroke:#00AEEF;stroke-width:0.5;opacity:1.0;" x1="2285.73" x2="2285.73" y1="600.785" y2="720.121"/>
  <line id="right-margin-Bold-S" style="fill:none;stroke:#00AEEF;stroke-width:0.5;opacity:1.0;" x1="2394.23" x2="2394.23" y1="600.785" y2="720.121"/>
  <line id="left-margin-Heavy-S" style="fill:none;stroke:#00AEEF;stroke-width:0.5;opacity:1.0;" x1="2581.49" x2="2581.49" y1="600.785" y2="720.121"/>
  <line id="right-margin-Heavy-S" style="fill:none;stroke:#00AEEF;stroke-width:0.5;opacity:1.0;" x1="2691.89" x2="2691.89" y1="600.785" y2="720.121"/>
  <line id="left-margin-Black-S" style="fill:none;stroke:#00AEEF;stroke-width:0.5;opacity:1.0;" x1="2877.35" x2="2877.35" y1="600.785" y2="720.121"/>
  <line id="right-margin-Black-S" style="fill:none;stroke:#00AEEF;stroke-width:0.5;opacity:1.0;" x1="2989.45" x2="2989.45" y1="600.785" y2="720.121"/>
  <line id="left-margin-Ultralight-M" style="fill:none;stroke:#00AEEF;stroke-width:0.5;opacity:1.0;" x1="495.893" x2="495.893" y1="1030.79" y2="1150.12"/>
  <line id="right-margin-Ultralight-M" style="fill:none;stroke:#00AEEF;stroke-width:0.5;opacity:1.0;" x1="623.529" x2="623.529" y1="1030.79" y2="1150.12"/>
  <line id="left-margin-Thin-M" style="fill:none;stroke:#00AEEF;stroke-width:0.5;opacity:1.0;" x1="792.042" x2="792.042" y1="1030.79" y2="1150.12"/>
  <line id="right-margin-Thin-M" style="fill:none;stroke:#00AEEF;stroke-width:0.5;opacity:1.0;" x1="920.802" x2="920.802" y1="1030.79" y2="1150.12"/>
  <line id="left-margin-Light-M" style="fill:none;stroke:#00AEEF;stroke-width:0.5;opacity:1.0;" x1="1087.63" x2="1087.63" y1="1030.79" y2="1150.12"/>
  <line id="right-margin-Light-M" style="fill:none;stroke:#00AEEF;stroke-width:0.5;opacity:1.0;" x1="1218.64" x2="1218.64" y1="1030.79" y2="1150.12"/>
  <line id="left-margin-Regular-M" style="fill:none;stroke:#00AEEF;stroke-width:0.5;opacity:1.0;" x1="1383.49" x2="1383.49" y1="1030.79" y2="1150.12"/>
  <line id="right-margin-Regular-M" style="fill:none;stroke:#00AEEF;stroke-width:0.5;opacity:1.0;" x1="1516.2" x2="1516.2" y1="1030.79" y2="1150.12"/>
  <line id="left-margin-Medium-M" style="fill:none;stroke:#00AEEF;stroke-width:0.5;opacity:1.0;" x1="1679.34" x2="1679.34" y1="1030.79" y2="1150.12"/>
  <line id="right-margin-Medium-M" style="fill:none;stroke:#00AEEF;stroke-width:0.5;opacity:1.0;" x1="1813.77" x2="1813.77" y1="1030.79" y2="1150.12"/>
  <line id="left-margin-Semibold-M" style="fill:none;stroke:#00AEEF;stroke-width:0.5;opacity:1.0;" x1="1975.37" x2="1975.37" y1="1030.79" y2="1150.12"/>
  <line id="right-margin-Semibold-M" style="fill:none;stroke:#00AEEF;stroke-width:0.5;opacity:1.0;" x1="2111.16" x2="2111.16" y1="1030.79" y2="1150.12"/>
  <line id="left-margin-Bold-M" style="fill:none;stroke:#00AEEF;stroke-width:0.5;opacity:1.0;" x1="2271.2" x2="2271.2" y1="1030.79" y2="1150.12"/>
  <line id="right-margin-Bold-M" style="fill:none;stroke:#00AEEF;stroke-width:0.5;opacity:1.0;" x1="2408.75" x2="2408.75" y1="1030.79" y2="1150.12"/>
  <line id="left-margin-Heavy-M" style="fill:none;stroke:#00AEEF;stroke-width:0.5;opacity:1.0;" x1="2566.64" x2="2566.64" y1="1030.79" y2="1150.12"/>
  <line id="right-margin-Heavy-M" style="fill:none;stroke:#00AEEF;stroke-width:0.5;opacity:1.0;" x1="2706.73" x2="2706.73" y1="1030.79" y2="1150.12"/>
  <line id="left-margin-Black-M" style="fill:none;stroke:#00AEEF;stroke-width:0.5;opacity:1.0;" x1="2862.23" x2="2862.23" y1="1030.79" y2="1150.12"/>
  <line id="right-margin-Black-M" style="fill:none;stroke:#00AEEF;stroke-width:0.5;opacity:1.0;" x1="3004.57" x2="3004.57" y1="1030.79" y2="1150.12"/>
  <line id="left-margin-Ultralight-L" style="fill:none;stroke:#00AEEF;stroke-width:0.5;opacity:1.0;" x1="477.607" x2="477.607" y1="1460.79" y2="1580.12"/>
  <line id="right-margin-Ultralight-L" style="fill:none;stroke:#00AEEF;stroke-width:0.5;opacity:1.0;" x1="641.816" x2="641.816" y1="1460.79" y2="1580.12"/>
  <line id="left-margin-Thin-L" style="fill:none;stroke:#00AEEF;stroke-width:0.5;opacity:1.0;" x1="773.683" x2="773.683" y1="1460.79" y2="1580.12"/>
  <line id="right-margin-Thin-L" style="fill:none;stroke:#00AEEF;stroke-width:0.5;opacity:1.0;" x1="939.161" x2="939.161" y1="1460.79" y2="1580.12"/>
  <line id="left-margin-Light-L" style="fill:none;stroke:#00AEEF;stroke-width:0.5;opacity:1.0;" x1="1069.15" x2="1069.15" y1="1460.79" y2="1580.12"/>
  <line id="right-margin-Light-L" style="fill:none;stroke:#00AEEF;stroke-width:0.5;opacity:1.0;" x1="1237.12" x2="1237.12" y1="1460.79" y2="1580.12"/>
  <line id="left-margin-Regular-L" style="fill:none;stroke:#00AEEF;stroke-width:0.5;opacity:1.0;" x1="1364.91" x2="1364.91" y1="1460.79" y2="1580.12"/>
  <line id="right-margin-Regular-L" style="fill:none;stroke:#00AEEF;stroke-width:0.5;opacity:1.0;" x1="1534.78" x2="1534.78" y1="1460.79" y2="1580.12"/>
  <line id="left-margin-Medium-L" style="fill:none;stroke:#00AEEF;stroke-width:0.5;opacity:1.0;" x1="1660.57" x2="1660.57" y1="1460.79" y2="1580.12"/>
  <line id="right-margin-Medium-L" style="fill:none;stroke:#00AEEF;stroke-width:0.5;opacity:1.0;" x1="1832.54" x2="1832.54" y1="1460.79" y2="1580.12"/>
  <line id="left-margin-Semibold-L" style="fill:none;stroke:#00AEEF;stroke-width:0.5;opacity:1.0;" x1="1956.5" x2="1956.5" y1="1460.79" y2="1580.12"/>
  <line id="right-margin-Semibold-L" style="fill:none;stroke:#00AEEF;stroke-width:0.5;opacity:1.0;" x1="2130.03" x2="2130.03" y1="1460.79" y2="1580.12"/>
  <line id="left-margin-Bold-L" style="fill:none;stroke:#00AEEF;stroke-width:0.5;opacity:1.0;" x1="2252.14" x2="2252.14" y1="1460.79" y2="1580.12"/>
  <line id="right-margin-Bold-L" style="fill:none;stroke:#00AEEF;stroke-width:0.5;opacity:1.0;" x1="2427.82" x2="2427.82" y1="1460.79" y2="1580.12"/>
  <line id="left-margin-Heavy-L" style="fill:none;stroke:#00AEEF;stroke-width:0.5;opacity:1.0;" x1="2547.33" x2="2547.33" y1="1460.79" y2="1580.12"/>
  <line id="right-margin-Heavy-L" style="fill:none;stroke:#00AEEF;stroke-width:0.5;opacity:1.0;" x1="2726.04" x2="2726.04" y1="1460.79" y2="1580.12"/>
  <line id="left-margin-Black-L" style="fill:none;stroke:#00AEEF;stroke-width:0.5;opacity:1.0;" x1="2842.68" x2="2842.68" y1="1460.79" y2="1580.12"/>
  <line id="right-margin-Black-L" style="fill:none;stroke:#00AEEF;stroke-width:0.5;opacity:1.0;" x1="3024.12" x2="3024.12" y1="1460.79" y2="1580.12"/>
 </g>
 <g id="Symbols">
  <g id="Black-L" transform="matrix(1 0 0 1 2842.68 1556)">
   <path d="M39.9902 23.5352L142.139 23.5352Q153.076 23.5352 159.229 17.334Q165.381 11.1328 165.381-0.292969L165.381-70.1172Q165.381-81.4941 159.131-87.6953Q152.881-93.8965 141.455-93.8965L39.3066-93.8965Q28.3691-93.8965 22.2168-87.6953Q16.0645-81.4941 16.0645-70.1172L16.0645-0.292969Q16.0645 11.1328 22.3145 17.334Q28.5645 23.5352 39.9902 23.5352ZM41.1133 4.54102Q37.8906 4.54102 36.2549 3.00293Q34.6191 1.46484 34.6191-2.00195L34.6191-68.3594Q34.6191-71.875 36.2549-73.3887Q37.8906-74.9023 41.1133-74.9023L140.332-74.9023Q143.506-74.9023 145.166-73.3887Q146.826-71.875 146.826-68.3594L146.826-2.00195Q146.826 1.46484 145.166 3.00293Q143.506 4.54102 140.332 4.54102ZM90.7227-16.6992Q94.9219-16.6992 98.7549-18.4814Q102.588-20.2637 106.348-23.9746L155.371-72.2656L144.189-83.4961L96.5332-36.3281Q94.7266-34.5703 93.4326-33.8379Q92.1387-33.1055 90.7227-33.1055Q89.3066-33.1055 88.0127-33.8623Q86.7188-34.6191 84.9121-36.3281L37.1582-83.5938L25.9766-72.3633L75.0488-23.9746Q78.8086-20.2637 82.666-18.4814Q86.5234-16.6992 90.7227-16.6992ZM142.871 9.86328L154.102-1.31836L115.771-39.6484L104.541-28.418ZM27.3438-1.36719L38.5742 9.86328L76.8555-28.418L65.6738-39.6484Z"/>
  </g>
  <g id="Heavy-L" transform="matrix(1 0 0 1 2547.33 1556)">
   <path d="M38.8184 22.3145L140.771 22.3145Q151.074 22.3145 156.86 16.4795Q162.646 10.6445 162.646-0.292969L162.646-70.0684Q162.646-80.957 156.738-86.8164Q150.83-92.6758 139.893-92.6758L37.9395-92.6758Q27.6367-92.6758 21.8506-86.8408Q16.0645-81.0059 16.0645-70.0684L16.0645-0.292969Q16.0645 10.6445 21.9727 16.4795Q27.8809 22.3145 38.8184 22.3145ZM39.6484 5.85938Q35.9863 5.85938 34.082 4.05273Q32.1777 2.24609 32.1777-1.61133L32.1777-68.75Q32.1777-72.6562 34.082-74.4385Q35.9863-76.2207 39.6484-76.2207L139.062-76.2207Q142.676-76.2207 144.604-74.4385Q146.533-72.6562 146.533-68.75L146.533-1.61133Q146.533 2.24609 144.604 4.05273Q142.676 5.85938 139.062 5.85938ZM89.4043-17.2852Q93.3594-17.2852 97.0215-18.9697Q100.684-20.6543 104.297-24.2188L153.906-73.0469L144.043-82.959L95.6543-35.1074Q93.7988-33.3008 92.3584-32.5195Q90.918-31.7383 89.4043-31.7383Q87.8906-31.7383 86.4502-32.5439Q85.0098-33.3496 83.1543-35.1074L34.668-83.0566L24.7559-73.1445L74.4629-24.2188Q78.0762-20.6543 81.7627-18.9697Q85.4492-17.2852 89.4043-17.2852ZM142.871 10.0586L152.783 0.195312L113.672-38.7207L103.76-28.8086ZM26.0254 0.146484L35.8887 10.1074L75-28.8086L65.1367-38.7207Z"/>
  </g>
  <g id="Bold-L" transform="matrix(1 0 0 1 2252.14 1556)">
   <path d="M37.5488 20.9961L139.209 20.9961Q148.877 20.9961 154.248 15.5273Q159.619 10.0586 159.619-0.341797L159.619-70.0684Q159.619-80.4199 154.102-85.8887Q148.584-91.3574 138.135-91.3574L36.4746-91.3574Q26.8066-91.3574 21.4355-85.8887Q16.0645-80.4199 16.0645-70.0684L16.0645-0.341797Q16.0645 10.1074 21.582 15.5518Q27.0996 20.9961 37.5488 20.9961ZM37.9883 7.37305Q33.8379 7.37305 31.665 5.27344Q29.4922 3.17383 29.4922-1.2207L29.4922-69.1895Q29.4922-73.5352 31.665-75.6348Q33.8379-77.7344 37.9883-77.7344L137.695-77.7344Q141.797-77.7344 143.994-75.6348Q146.191-73.5352 146.191-69.1406L146.191-1.2207Q146.191 3.17383 143.994 5.27344Q141.797 7.37305 137.695 7.37305ZM87.9395-17.9199Q91.6016-17.9199 95.0684-19.4824Q98.5352-21.0449 102.002-24.4629L152.295-73.877L143.848-82.3242L94.6777-33.7891Q92.7734-31.8848 91.1621-31.0791Q89.5508-30.2734 87.9395-30.2734Q86.3281-30.2734 84.7168-31.1035Q83.1055-31.9336 81.2012-33.7891L31.8848-82.4707L23.4375-74.0234L73.8281-24.4629Q77.2949-21.0449 80.7861-19.4824Q84.2773-17.9199 87.9395-17.9199ZM142.871 10.3027L151.27 1.85547L111.328-37.6953L102.881-29.2969ZM24.5117 1.9043L32.9102 10.4004L72.9492-29.2969L64.5508-37.6953Z"/>
  </g>
  <g id="Semibold-L" transform="matrix(1 0 0 1 1956.5 1556)">
   <path d="M36.6211 20.0684L138.135 20.0684Q147.314 20.0684 152.393 14.8682Q157.471 9.66797 157.471-0.341797L157.471-70.0195Q157.471-79.9805 152.222-85.1807Q146.973-90.3809 136.914-90.3809L35.4004-90.3809Q26.2207-90.3809 21.1426-85.2051Q16.0645-80.0293 16.0645-70.0195L16.0645-0.341797Q16.0645 9.7168 21.3135 14.8926Q26.5625 20.0684 36.6211 20.0684ZM36.8652 8.39844Q32.3242 8.39844 29.9561 6.0791Q27.5879 3.75977 27.5879-0.927734L27.5879-69.4824Q27.5879-74.1211 29.9561-76.416Q32.3242-78.7109 36.8652-78.7109L136.719-78.7109Q141.162-78.7109 143.555-76.416Q145.947-74.1211 145.947-69.4336L145.947-0.878906Q145.947 3.75977 143.555 6.0791Q141.162 8.39844 136.719 8.39844ZM86.9141-18.3105Q90.3809-18.3105 93.7012-19.8242Q97.0215-21.3379 100.391-24.6582L151.123-74.4629L143.701-81.8848L93.9941-32.8613Q92.041-30.9082 90.332-30.0537Q88.623-29.1992 86.9141-29.1992Q85.2051-29.1992 83.4717-30.0781Q81.7383-30.957 79.834-32.8613L29.9316-82.0801L22.4609-74.6094L73.3887-24.6582Q76.7578-21.3379 80.1025-19.8242Q83.4473-18.3105 86.9141-18.3105ZM142.822 10.4492L150.244 3.02734L109.668-36.9629L102.246-29.5898ZM23.4863 3.07617L30.8594 10.5469L71.5332-29.5898L64.1113-36.9629Z"/>
  </g>
  <g id="Medium-L" transform="matrix(1 0 0 1 1660.57 1556)">
   <path d="M35.9375 19.3848L137.354 19.3848Q146.143 19.3848 151.025 14.3799Q155.908 9.375 155.908-0.341797L155.908-70.0195Q155.908-79.6875 150.854-84.6924Q145.801-89.6973 135.986-89.6973L34.6191-89.6973Q25.8301-89.6973 20.9473-84.7168Q16.0645-79.7363 16.0645-70.0195L16.0645-0.341797Q16.0645 9.42383 21.1182 14.4043Q26.1719 19.3848 35.9375 19.3848ZM35.9863 9.17969Q31.2012 9.17969 28.6865 6.71387Q26.1719 4.24805 26.1719-0.732422L26.1719-69.6777Q26.1719-74.5605 28.6865-77.0264Q31.2012-79.4922 35.9863-79.4922L135.986-79.4922Q140.674-79.4922 143.237-77.0264Q145.801-74.5605 145.801-69.6289L145.801-0.683594Q145.801 4.24805 143.237 6.71387Q140.674 9.17969 135.986 9.17969ZM86.1328-18.6523Q89.4531-18.6523 92.6758-20.0928Q95.8984-21.5332 99.1699-24.7559L150.293-74.9023L143.652-81.5918L93.5059-32.1777Q91.5039-30.1758 89.6973-29.2969Q87.8906-28.418 86.1328-28.418Q84.375-28.418 82.5684-29.3213Q80.7617-30.2246 78.8086-32.1777L28.4668-81.7383L21.7773-75.0977L73.0469-24.7559Q76.3184-21.5332 79.5898-20.0928Q82.8613-18.6523 86.1328-18.6523ZM142.822 10.5957L149.463 3.90625L108.447-36.4258L101.758-29.834ZM22.7051 3.95508L29.2969 10.6934L70.459-29.834L63.7695-36.4258Z"/>
  </g>
  <g id="Regular-L" transform="matrix(1 0 0 1 1364.91 1556)">
   <path d="M35.0586 18.457L136.279 18.457Q144.629 18.457 149.219 13.7207Q153.809 8.98438 153.809-0.341797L153.809-69.9707Q153.809-79.2969 149.023-84.0332Q144.238-88.7695 134.766-88.7695L33.5938-88.7695Q25.2441-88.7695 20.6543-84.0576Q16.0645-79.3457 16.0645-69.9707L16.0645-0.341797Q16.0645 9.0332 20.8496 13.7451Q25.6348 18.457 35.0586 18.457ZM34.8633 10.2051Q29.7363 10.2051 27.0264 7.51953Q24.3164 4.83398 24.3164-0.439453L24.3164-69.9707Q24.3164-75.1465 27.0264-77.832Q29.7363-80.5176 34.8633-80.5176L135.01-80.5176Q140.039-80.5176 142.798-77.832Q145.557-75.1465 145.557-69.9219L145.557-0.390625Q145.557 4.83398 142.798 7.51953Q140.039 10.2051 135.01 10.2051ZM85.1074-19.0918Q88.2324-19.0918 91.333-20.459Q94.4336-21.8262 97.6074-24.9512L149.17-75.4883L143.506-81.1523L92.8223-31.25Q90.7715-29.1992 88.8672-28.2959Q86.9629-27.3926 85.1074-27.3926Q83.3008-27.3926 81.3721-28.3203Q79.4434-29.248 77.4414-31.25L26.5625-81.3477L20.8496-75.6836L72.6074-24.9512Q75.7812-21.8262 78.9062-20.459Q82.0312-19.0918 85.1074-19.0918ZM142.822 10.7422L148.438 5.0293L106.836-35.7422L101.172-30.127ZM21.6797 5.12695L27.2461 10.8887L69.043-30.127L63.3789-35.7422Z"/>
  </g>
  <g id="Light-L" transform="matrix(1 0 0 1 1069.15 1556)">
   <path d="M34.0332 17.5293L134.863 17.5293Q143.066 17.5293 147.485 13.0127Q151.904 8.49609 151.904-0.292969L151.904-69.9707Q151.904-78.7598 147.363-83.3008Q142.822-87.8418 133.936-87.8418L33.1055-87.8418Q24.9023-87.8418 20.4834-83.3252Q16.0645-78.8086 16.0645-69.9707L16.0645-0.292969Q16.0645 8.54492 20.6055 13.0371Q25.1465 17.5293 34.0332 17.5293ZM33.9844 11.1816Q28.3203 11.1816 25.3906 8.25195Q22.4609 5.32227 22.4609-0.390625L22.4609-69.9219Q22.4609-75.5859 25.3906-78.5156Q28.3203-81.4453 33.9844-81.4453L134.033-81.4453Q139.502-81.4453 142.529-78.5156Q145.557-75.5859 145.557-69.873L145.557-0.390625Q145.557 5.32227 142.529 8.25195Q139.502 11.1816 134.033 11.1816ZM84.2773-20.0684Q87.1094-20.0684 90.0391-21.3135Q92.9688-22.5586 95.9473-25.4395L147.998-76.3672L143.604-80.8105L92.041-30.2246Q90.0391-28.2227 88.0615-27.3438Q86.084-26.4648 84.2773-26.4648Q82.5195-26.4648 80.5176-27.3682Q78.5156-28.2715 76.5137-30.2246L24.9023-80.9082L20.4102-76.4648L72.6562-25.4395Q75.6348-22.5586 78.5645-21.3135Q81.4941-20.0684 84.2773-20.0684ZM142.871 10.5469L147.217 6.00586L104.443-35.4004L100-31.0547ZM21.1426 6.25L25.4395 10.8398L68.5547-31.0547L64.1113-35.4004Z"/>
  </g>
  <g id="Thin-L" transform="matrix(1 0 0 1 773.683 1556)">
   <path d="M32.666 16.3574L133.008 16.3574Q141.016 16.3574 145.215 12.085Q149.414 7.8125 149.414-0.244141L149.414-70.0195Q149.414-78.0273 145.19-82.2998Q140.967-86.5723 132.812-86.5723L32.4707-86.5723Q24.4629-86.5723 20.2637-82.373Q16.0645-78.1738 16.0645-70.0195L16.0645-0.244141Q16.0645 7.91016 20.2881 12.1338Q24.5117 16.3574 32.666 16.3574ZM32.8125 12.5Q26.4648 12.5 23.2178 9.22852Q19.9707 5.95703 19.9707-0.390625L19.9707-69.873Q19.9707-76.2207 23.2178-79.4678Q26.4648-82.7148 32.8125-82.7148L132.666-82.7148Q138.818-82.7148 142.188-79.4678Q145.557-76.2207 145.557-69.873L145.557-0.390625Q145.557 5.95703 142.188 9.22852Q138.818 12.5 132.666 12.5ZM83.1543-21.3379Q85.5957-21.3379 88.2812-22.4121Q90.9668-23.4863 93.7012-26.123L146.484-77.4902L143.701-80.3223L91.0156-28.8574Q89.0625-26.8555 86.9873-26.0254Q84.9121-25.1953 83.1543-25.1953Q81.4941-25.1953 79.3701-26.0498Q77.2461-26.9043 75.3418-28.8574L22.7051-80.3711L19.8242-77.5391L72.6562-26.123Q75.3906-23.4863 78.1006-22.4121Q80.8105-21.3379 83.1543-21.3379ZM142.871 10.3027L145.557 7.32422L101.27-34.9609L98.4375-32.2754ZM20.459 7.71484L23.0469 10.7422L67.9688-32.2754L65.0879-34.9609Z"/>
  </g>
  <g id="Ultralight-L" transform="matrix(1 0 0 1 477.607 1556)">
   <path d="M31.9824 15.7227L132.08 15.7227Q139.941 15.7227 144.043 11.5967Q148.145 7.4707 148.145-0.195312L148.145-70.0195Q148.145-77.6855 144.092-81.8115Q140.039-85.9375 132.227-85.9375L32.1289-85.9375Q24.2676-85.9375 20.166-81.8604Q16.0645-77.7832 16.0645-70.0195L16.0645-0.195312Q16.0645 7.56836 20.1172 11.6455Q24.1699 15.7227 31.9824 15.7227ZM32.1777 13.1348Q25.5371 13.1348 22.1191 9.7168Q18.7012 6.29883 18.7012-0.341797L18.7012-69.8242Q18.7012-76.5137 22.1191-79.9316Q25.5371-83.3496 32.1777-83.3496L132.031-83.3496Q138.428-83.3496 141.992-79.9316Q145.557-76.5137 145.557-69.8242L145.557-0.390625Q145.557 6.29883 141.992 9.7168Q138.428 13.1348 132.031 13.1348ZM82.6172-22.0215Q84.8145-22.0215 87.4023-22.998Q89.9902-23.9746 92.5781-26.4648L145.703-78.0762L143.75-80.127L90.5273-28.1738Q88.5254-26.2207 86.4014-25.3906Q84.2773-24.5605 82.6172-24.5605Q80.957-24.5605 78.7842-25.415Q76.6113-26.2695 74.707-28.1738L21.582-80.0781L19.5312-78.0762L72.7051-26.4648Q75.293-23.9746 77.8564-22.998Q80.4199-22.0215 82.6172-22.0215ZM142.92 10.2051L144.727 7.95898L99.6094-34.7656L97.6074-32.9102ZM20.0684 8.44727L21.8262 10.6934L67.627-32.9102L65.625-34.7656Z"/>
  </g>
  <g id="Black-M" transform="matrix(1 0 0 1 2862.23 1126)">
   <path d="M31.5918 11.0352L110.84 11.0352Q119.824 11.0352 124.854 6.00586Q129.883 0.976562 129.883-8.10547L129.883-62.3047Q129.883-71.3379 124.829-76.3916Q119.775-81.4453 110.693-81.4453L31.4453-81.4453Q22.5098-81.4453 17.4805-76.3916Q12.4512-71.3379 12.4512-62.3047L12.4512-8.10547Q12.4512 0.976562 17.5049 6.00586Q22.5586 11.0352 31.5918 11.0352ZM32.8125-5.22461Q30.5664-5.22461 29.4189-6.25Q28.2715-7.27539 28.2715-9.81445L28.2715-60.5957Q28.2715-63.0859 29.4189-64.1357Q30.5664-65.1855 32.8125-65.1855L109.473-65.1855Q111.768-65.1855 112.915-64.1357Q114.062-63.0859 114.062-60.5957L114.062-9.81445Q114.062-7.27539 112.915-6.25Q111.768-5.22461 109.473-5.22461ZM71.1426-20.7031Q74.5117-20.7031 77.5879-22.1191Q80.6641-23.5352 83.5938-26.4648L121.24-63.5742L111.914-72.998L75.293-36.7676Q73.9746-35.4492 73.0469-34.9121Q72.1191-34.375 71.1426-34.375Q70.166-34.375 69.2627-34.9365Q68.3594-35.498 66.9922-36.7676L30.3711-72.998L21.0449-63.623L58.6426-26.4648Q61.6211-23.5352 64.6973-22.1191Q67.7734-20.7031 71.1426-20.7031ZM110.742-0.488281L120.117-9.91211L90.7227-39.3066L81.2988-29.9316ZM22.168-9.91211L31.5918-0.488281L60.9863-29.9316L51.6113-39.3066Z"/>
  </g>
  <g id="Heavy-M" transform="matrix(1 0 0 1 2566.64 1126)">
   <path d="M30.7129 10.0586L109.814 10.0586Q118.213 10.0586 122.925 5.32227Q127.637 0.585938 127.637-8.1543L127.637-62.2559Q127.637-70.9473 122.852-75.708Q118.066-80.4688 109.326-80.4688L30.2246-80.4688Q21.875-80.4688 17.1631-75.708Q12.4512-70.9473 12.4512-62.2559L12.4512-8.1543Q12.4512 0.585938 17.2119 5.32227Q21.9727 10.0586 30.7129 10.0586ZM31.543-4.15039Q28.9551-4.15039 27.6367-5.37109Q26.3184-6.5918 26.3184-9.42383L26.3184-60.9863Q26.3184-63.7695 27.6367-65.0146Q28.9551-66.2598 31.543-66.2598L108.447-66.2598Q111.084-66.2598 112.427-65.0146Q113.77-63.7695 113.77-60.9375L113.77-9.42383Q113.77-6.5918 112.427-5.37109Q111.084-4.15039 108.447-4.15039ZM70.0195-21.0449Q73.2422-21.0449 76.1719-22.3877Q79.1016-23.7305 81.9336-26.5625L120.068-64.1113L111.719-72.5586L74.6094-35.791Q73.1934-34.4238 72.1436-33.8379Q71.0938-33.252 70.0195-33.252Q68.9453-33.252 67.9199-33.8623Q66.8945-34.4727 65.4785-35.791L28.2715-72.6074L19.9707-64.209L58.1055-26.5625Q60.9863-23.7305 63.916-22.3877Q66.8457-21.0449 70.0195-21.0449ZM110.742-0.244141L119.092-8.69141L89.1602-38.4766L80.7617-30.127ZM20.9473-8.64258L29.3457-0.244141L59.2773-30.127L50.9277-38.4766Z"/>
  </g>
  <g id="Bold-M" transform="matrix(1 0 0 1 2271.2 1126)">
   <path d="M29.6875 8.98438L108.643 8.98438Q116.406 8.98438 120.752 4.56543Q125.098 0.146484 125.098-8.20312L125.098-62.2559Q125.098-70.5078 120.654-74.9268Q116.211-79.3457 107.812-79.3457L28.9062-79.3457Q21.1426-79.3457 16.7969-74.9268Q12.4512-70.5078 12.4512-62.2559L12.4512-8.20312Q12.4512 0.146484 16.8945 4.56543Q21.3379 8.98438 29.6875 8.98438ZM30.1758-2.92969Q27.1973-2.92969 25.6592-4.39453Q24.1211-5.85938 24.1211-9.0332L24.1211-61.377Q24.1211-64.502 25.6592-65.9912Q27.1973-67.4805 30.1758-67.4805L107.373-67.4805Q110.303-67.4805 111.865-65.9912Q113.428-64.502 113.428-61.377L113.428-9.0332Q113.428-5.85938 111.865-4.39453Q110.303-2.92969 107.373-2.92969ZM68.7988-21.4355Q71.7773-21.4355 74.5605-22.7051Q77.3438-23.9746 80.127-26.709L118.75-64.7461L111.572-72.0215L73.8281-34.7656Q72.3633-33.3008 71.1914-32.666Q70.0195-32.0312 68.7988-32.0312Q67.5781-32.0312 66.4062-32.6904Q65.2344-33.3496 63.7695-34.7656L25.9766-72.1191L18.75-64.8926L57.4707-26.709Q60.2539-23.9746 63.0371-22.7051Q65.8203-21.4355 68.7988-21.4355ZM110.742 0L117.969-7.27539L87.4512-37.5977L80.2246-30.3711ZM19.6289-7.27539L26.9043 0.0488281L57.4219-30.3711L50.1465-37.5977Z"/>
  </g>
  <g id="Semibold-M" transform="matrix(1 0 0 1 1975.37 1126)">
   <path d="M29.0039 8.20312L107.812 8.20312Q115.186 8.20312 119.263 4.02832Q123.34-0.146484 123.34-8.20312L123.34-62.207Q123.34-70.2148 119.116-74.3896Q114.893-78.5645 106.787-78.5645L27.9297-78.5645Q20.6055-78.5645 16.5283-74.3896Q12.4512-70.2148 12.4512-62.207L12.4512-8.20312Q12.4512-0.146484 16.6748 4.02832Q20.8984 8.20312 29.0039 8.20312ZM29.1992-2.05078Q25.9766-2.05078 24.2676-3.68652Q22.5586-5.32227 22.5586-8.74023L22.5586-61.6699Q22.5586-65.0391 24.2676-66.6748Q25.9766-68.3105 29.1992-68.3105L106.592-68.3105Q109.766-68.3105 111.475-66.6748Q113.184-65.0391 113.184-61.6211L113.184-8.69141Q113.184-5.32227 111.475-3.68652Q109.766-2.05078 106.592-2.05078ZM67.9688-21.6797Q70.8008-21.6797 73.4619-22.9004Q76.123-24.1211 78.8086-26.8066L117.822-65.1855L111.426-71.6797L73.291-33.9844Q71.7773-32.5195 70.5078-31.8604Q69.2383-31.2012 67.9688-31.2012Q66.6504-31.2012 65.3809-31.8848Q64.1113-32.5684 62.5977-33.9844L24.3652-71.7773L17.8711-65.332L57.0312-26.8066Q59.7168-24.1211 62.4023-22.9004Q65.0879-21.6797 67.9688-21.6797ZM110.693 0.195312L117.139-6.29883L86.2793-36.9629L79.7852-30.5176ZM18.7012-6.29883L25.1465 0.195312L56.1035-30.5176L49.6094-36.9629Z"/>
  </g>
  <g id="Medium-M" transform="matrix(1 0 0 1 1679.34 1126)">
   <path d="M28.4668 7.61719L107.178 7.61719Q114.209 7.61719 118.091 3.61328Q121.973-0.390625 121.973-8.20312L121.973-62.207Q121.973-69.9707 117.92-73.9746Q113.867-77.9785 105.957-77.9785L27.2461-77.9785Q20.2148-77.9785 16.333-73.9746Q12.4512-69.9707 12.4512-62.207L12.4512-8.20312Q12.4512-0.390625 16.5039 3.61328Q20.5566 7.61719 28.4668 7.61719ZM28.4668-1.41602Q25.0488-1.41602 23.2422-3.17383Q21.4355-4.93164 21.4355-8.54492L21.4355-61.8652Q21.4355-65.4297 23.2422-67.1875Q25.0488-68.9453 28.4668-68.9453L106.006-68.9453Q109.375-68.9453 111.206-67.1875Q113.037-65.4297 113.037-61.8164L113.037-8.49609Q113.037-4.93164 111.206-3.17383Q109.375-1.41602 106.006-1.41602ZM67.2852-21.9238Q70.0195-21.9238 72.6074-23.0957Q75.1953-24.2676 77.8809-26.8555L117.139-65.4785L111.328-71.3867L72.9004-33.4473Q71.3379-31.9336 69.9951-31.2256Q68.6523-30.5176 67.2852-30.5176Q65.918-30.5176 64.5752-31.25Q63.2324-31.9824 61.7188-33.4473L23.1445-71.5332L17.2363-65.6738L56.7383-26.8555Q59.3262-24.2676 61.9385-23.0957Q64.5508-21.9238 67.2852-21.9238ZM110.693 0.292969L116.553-5.56641L85.3516-36.4746L79.4922-30.6152ZM18.0176-5.56641L23.877 0.341797L55.0781-30.6152L49.2188-36.4746Z"/>
  </g>
  <g id="Regular-M" transform="matrix(1 0 0 1 1383.49 1126)">
   <path d="M27.7832 6.88477L106.396 6.88477Q112.988 6.88477 116.626 3.10059Q120.264-0.683594 120.264-8.25195L120.264-62.1582Q120.264-69.6777 116.431-73.4619Q112.598-77.2461 104.932-77.2461L26.3184-77.2461Q19.7266-77.2461 16.0889-73.4619Q12.4512-69.6777 12.4512-62.1582L12.4512-8.25195Q12.4512-0.683594 16.2842 3.10059Q20.1172 6.88477 27.7832 6.88477ZM27.4902-0.585938Q23.8281-0.585938 21.875-2.51465Q19.9219-4.44336 19.9219-8.25195L19.9219-62.1582Q19.9219-65.918 21.875-67.8467Q23.8281-69.7754 27.4902-69.7754L105.225-69.7754Q108.838-69.7754 110.815-67.8467Q112.793-65.918 112.793-62.1094L112.793-8.20312Q112.793-4.44336 110.815-2.51465Q108.838-0.585938 105.225-0.585938ZM66.4551-22.168Q69.043-22.168 71.5332-23.291Q74.0234-24.4141 76.6113-26.9531L116.26-65.918L111.182-71.0449L72.3633-32.7148Q70.752-31.1523 69.3115-30.4199Q67.8711-29.6875 66.4551-29.6875Q64.9902-29.6875 63.5498-30.4443Q62.1094-31.2012 60.5469-32.7148L21.5332-71.2402L16.4062-66.1133L56.2988-26.9531Q58.8379-24.4141 61.3525-23.291Q63.8672-22.168 66.4551-22.168ZM110.693 0.488281L115.771-4.63867L84.1797-35.8398L79.1016-30.7617ZM17.0898-4.58984L22.168 0.537109L53.8086-30.7617L48.6816-35.8398Z"/>
  </g>
  <g id="Light-M" transform="matrix(1 0 0 1 1087.63 1126)">
   <path d="M26.8555 6.10352L105.127 6.10352Q111.572 6.10352 115.063 2.49023Q118.555-1.12305 118.555-8.20312L118.555-62.1582Q118.555-69.1895 114.941-72.8027Q111.328-76.416 104.199-76.416L25.8789-76.416Q19.4336-76.416 15.9424-72.8271Q12.4512-69.2383 12.4512-62.1582L12.4512-8.20312Q12.4512-1.12305 16.0645 2.49023Q19.6777 6.10352 26.8555 6.10352ZM26.709 0.292969Q22.5586 0.292969 20.3857-1.85547Q18.2129-4.00391 18.2129-8.25195L18.2129-62.1094Q18.2129-66.3086 20.3857-68.457Q22.5586-70.6055 26.709-70.6055L104.346-70.6055Q108.35-70.6055 110.571-68.457Q112.793-66.3086 112.793-62.1094L112.793-8.20312Q112.793-4.00391 110.571-1.85547Q108.35 0.292969 104.346 0.292969ZM65.7227-23.0469Q68.0176-23.0469 70.3613-24.0479Q72.7051-25.0488 75.0977-27.3926L115.234-66.6992L111.23-70.7031L71.6797-31.7871Q70.0684-30.2246 68.5791-29.541Q67.0898-28.8574 65.7227-28.8574Q64.3066-28.8574 62.793-29.5654Q61.2793-30.2734 59.7168-31.7871L20.0195-70.8496L16.0156-66.8457L56.2988-27.3926Q58.6914-25.0488 61.0352-24.0479Q63.3789-23.0469 65.7227-23.0469ZM110.693 0.341797L114.648-3.71094L82.0312-35.5469L78.0273-31.5918ZM16.6016-3.61328L20.5566 0.488281L53.3691-31.5918L49.3652-35.5469Z"/>
  </g>
  <g id="Thin-M" transform="matrix(1 0 0 1 792.042 1126)">
   <path d="M25.5859 5.0293L103.467 5.0293Q109.766 5.0293 113.037 1.63574Q116.309-1.75781 116.309-8.10547L116.309-62.207Q116.309-68.5547 112.988-71.9238Q109.668-75.293 103.174-75.293L25.293-75.293Q19.043-75.293 15.7471-71.9482Q12.4512-68.6035 12.4512-62.207L12.4512-8.10547Q12.4512-1.66016 15.7959 1.68457Q19.1406 5.0293 25.5859 5.0293ZM25.6836 1.46484Q20.8984 1.46484 18.4326-0.976562Q15.9668-3.41797 15.9668-8.20312L15.9668-62.1094Q15.9668-66.8457 18.4326-69.2871Q20.8984-71.7285 25.6836-71.7285L103.174-71.7285Q107.764-71.7285 110.278-69.2871Q112.793-66.8457 112.793-62.0605L112.793-8.20312Q112.793-3.41797 110.278-0.976562Q107.764 1.46484 103.174 1.46484ZM64.6973-24.1699Q66.6504-24.1699 68.7988-25.0488Q70.9473-25.9277 73.0957-28.0273L113.867-67.7246L111.328-70.3125L70.8008-30.6152Q69.1895-29.0527 67.627-28.3936Q66.0645-27.7344 64.6973-27.7344Q63.3789-27.7344 61.7676-28.418Q60.1562-29.1016 58.6426-30.6152L18.0664-70.3125L15.4785-67.7734L56.3477-28.0273Q58.4961-25.9277 60.6445-25.0488Q62.793-24.1699 64.6973-24.1699ZM110.742 0.0976562L113.184-2.53906L79.1992-35.1562L76.6602-32.7148ZM16.0156-2.24609L18.3594 0.439453L52.7832-32.7148L50.2441-35.1562Z"/>
  </g>
  <g id="Ultralight-M" transform="matrix(1 0 0 1 495.893 1126)">
   <path d="M24.9512 4.49219L102.637 4.49219Q108.789 4.49219 111.987 1.2207Q115.186-2.05078 115.186-8.05664L115.186-62.207Q115.186-68.2129 111.987-71.4844Q108.789-74.7559 102.686-74.7559L25-74.7559Q18.8477-74.7559 15.6494-71.5332Q12.4512-68.3105 12.4512-62.207L12.4512-8.05664Q12.4512-1.95312 15.6494 1.26953Q18.8477 4.49219 24.9512 4.49219ZM25.1465 2.05078Q20.0684 2.05078 17.4561-0.537109Q14.8438-3.125 14.8438-8.20312L14.8438-62.0605Q14.8438-67.1387 17.4561-69.7266Q20.0684-72.3145 25.1465-72.3145L102.539-72.3145Q107.422-72.3145 110.107-69.7266Q112.793-67.1387 112.793-62.0605L112.793-8.20312Q112.793-3.125 110.107-0.537109Q107.422 2.05078 102.539 2.05078ZM64.209-24.7559Q65.9668-24.7559 67.9932-25.5615Q70.0195-26.3672 72.0703-28.3203L113.184-68.2617L111.377-70.0684L70.3125-29.9805Q68.75-28.418 67.1387-27.8076Q65.5273-27.1973 64.209-27.1973Q62.8906-27.1973 61.2305-27.832Q59.5703-28.4668 58.1055-29.9805L17.041-70.0684L15.2344-68.2617L56.3477-28.3203Q58.3984-26.3672 60.4248-25.5615Q62.4512-24.7559 64.209-24.7559ZM110.742 0L112.402-1.9043L77.7344-34.9121L75.9277-33.252ZM15.6738-1.61133L17.2852 0.390625L52.4902-33.252L50.6836-34.9121Z"/>
  </g>
  <g id="Black-S" transform="matrix(1 0 0 1 2877.35 696)">
   <path d="M25 1.26953L87.1094 1.26953Q94.2871 1.26953 98.3154-2.75879Q102.344-6.78711 102.344-13.9648L102.344-56.4453Q102.344-63.623 98.3154-67.6514Q94.2871-71.6797 87.1094-71.6797L25-71.6797Q17.8223-71.6797 13.7939-67.6514Q9.76562-63.623 9.76562-56.4453L9.76562-13.9648Q9.76562-6.78711 13.7939-2.75879Q17.8223 1.26953 25 1.26953ZM26.0742-12.0117Q24.3652-12.0117 23.5107-12.7686Q22.6562-13.5254 22.6562-15.4297L22.6562-54.9805Q22.6562-56.8848 23.5107-57.6416Q24.3652-58.3984 26.0742-58.3984L86.0352-58.3984Q87.7441-58.3984 88.5986-57.6416Q89.4531-56.8848 89.4531-54.9805L89.4531-15.4297Q89.4531-13.5254 88.5986-12.7686Q87.7441-12.0117 86.0352-12.0117ZM56.0547-23.7793Q58.7402-23.7793 61.1816-24.9268Q63.623-26.0742 65.918-28.3691L95.3125-57.3242L87.7441-64.9414L59.1797-36.6699Q58.1543-35.6934 57.4707-35.2783Q56.7871-34.8633 56.0547-34.8633Q55.3223-34.8633 54.6387-35.2783Q53.9551-35.6934 52.9297-36.6699L24.3652-64.9414L16.7969-57.3242L46.1426-28.3691Q48.4863-26.0742 50.9277-24.9268Q53.3691-23.7793 56.0547-23.7793ZM86.7676-8.10547L94.3848-15.7227L71.4355-38.6719L63.8184-31.0547ZM17.7246-15.7227L25.3418-8.10547L48.291-31.0547L40.6738-38.6719Z"/>
  </g>
  <g id="Heavy-S" transform="matrix(1 0 0 1 2581.49 696)">
   <path d="M24.3652 0.537109L86.377 0.537109Q93.0664 0.537109 96.8506-3.27148Q100.635-7.08008 100.635-14.0137L100.635-56.3965Q100.635-63.3301 96.8262-67.1387Q93.0176-70.9473 86.0352-70.9473L24.0234-70.9473Q17.2852-70.9473 13.5254-67.1387Q9.76562-63.3301 9.76562-56.3965L9.76562-14.0137Q9.76562-7.08008 13.5742-3.27148Q17.3828 0.537109 24.3652 0.537109ZM25.0977-11.1816Q23.1445-11.1816 22.168-12.085Q21.1914-12.9883 21.1914-15.1367L21.1914-55.3223Q21.1914-57.4219 22.168-58.3252Q23.1445-59.2285 25.0977-59.2285L85.3027-59.2285Q87.207-59.2285 88.208-58.3252Q89.209-57.4219 89.209-55.2734L89.209-15.0879Q89.209-12.9883 88.208-12.085Q87.207-11.1816 85.3027-11.1816ZM55.2246-23.9746Q57.7637-23.9746 60.1074-25.0732Q62.4512-26.1719 64.6973-28.418L94.4336-57.7148L87.5977-64.5996L58.6914-35.9863Q57.5684-34.9121 56.7871-34.4727Q56.0059-34.0332 55.2246-34.0332Q54.3457-34.0332 53.5645-34.4727Q52.7832-34.9121 51.709-35.9863L22.7539-64.6484L15.918-57.7148L45.6543-28.418Q47.9492-26.1719 50.293-25.0732Q52.6367-23.9746 55.2246-23.9746ZM86.7676-7.91016L93.6523-14.7461L70.4102-37.9883L63.5254-31.1035ZM16.748-14.7949L23.6328-7.91016L46.875-31.1035L39.9902-37.9883Z"/>
  </g>
  <g id="Bold-S" transform="matrix(1 0 0 1 2285.73 696)">
   <path d="M23.6328-0.292969L85.5469-0.292969Q91.748-0.292969 95.2393-3.83301Q98.7305-7.37305 98.7305-14.0625L98.7305-56.3965Q98.7305-63.0371 95.1416-66.5771Q91.5527-70.1172 84.8633-70.1172L22.9492-70.1172Q16.748-70.1172 13.2568-66.5771Q9.76562-63.0371 9.76562-56.3965L9.76562-14.0625Q9.76562-7.37305 13.3545-3.83301Q16.9434-0.292969 23.6328-0.292969ZM24.0234-10.2539Q21.8262-10.2539 20.7031-11.3525Q19.5801-12.4512 19.5801-14.7949L19.5801-55.6641Q19.5801-58.0078 20.7031-59.082Q21.8262-60.1562 24.0234-60.1562L84.4727-60.1562Q86.6211-60.1562 87.7686-59.082Q88.916-58.0078 88.916-55.6641L88.916-14.7461Q88.916-12.4512 87.7686-11.3525Q86.6211-10.2539 84.4727-10.2539ZM54.248-24.2188Q56.6895-24.2188 58.9111-25.2441Q61.1328-26.2695 63.3301-28.4668L93.457-58.1055L87.4023-64.209L58.1055-35.2051Q56.9824-34.082 56.0791-33.5938Q55.1758-33.1055 54.248-33.1055Q53.3203-33.1055 52.417-33.5938Q51.5137-34.082 50.3906-35.2051L20.9961-64.3066L14.9414-58.2031L45.1172-28.4668Q47.3633-26.2695 49.6094-25.2441Q51.8555-24.2188 54.248-24.2188ZM86.7676-7.66602L92.8223-13.7207L69.2383-37.2559L63.1836-31.2012ZM15.6738-13.7207L21.7773-7.66602L45.3613-31.2012L39.2578-37.2559Z"/>
  </g>
  <g id="Semibold-S" transform="matrix(1 0 0 1 1989.7 696)">
   <path d="M23.0957-0.878906L84.9609-0.878906Q90.8203-0.878906 94.0918-4.22363Q97.3633-7.56836 97.3633-14.0625L97.3633-56.3477Q97.3633-62.8418 93.9697-66.1865Q90.5762-69.5312 84.0332-69.5312L22.168-69.5312Q16.3086-69.5312 13.0371-66.1865Q9.76562-62.8418 9.76562-56.3477L9.76562-14.0625Q9.76562-7.56836 13.1836-4.22363Q16.6016-0.878906 23.0957-0.878906ZM23.2422-9.61914Q20.8984-9.61914 19.6533-10.8154Q18.4082-12.0117 18.4082-14.5508L18.4082-55.9082Q18.4082-58.3984 19.6533-59.5947Q20.8984-60.791 23.2422-60.791L83.8867-60.791Q86.2305-60.791 87.4756-59.5947Q88.7207-58.3984 88.7207-55.8594L88.7207-14.502Q88.7207-12.0117 87.4756-10.8154Q86.2305-9.61914 83.8867-9.61914ZM53.6133-24.3652Q55.9082-24.3652 58.0566-25.3418Q60.2051-26.3184 62.4023-28.4668L92.7734-58.3984L87.2559-63.916L57.7148-34.6191Q56.543-33.4961 55.5664-32.959Q54.5898-32.4219 53.6133-32.4219Q52.5391-32.4219 51.5869-32.959Q50.6348-33.4961 49.4141-34.6191L19.7266-64.0625L14.2578-58.5449L44.7266-28.4668Q46.9238-26.3184 49.0967-25.3418Q51.2695-24.3652 53.6133-24.3652ZM86.7188-7.4707L92.2363-12.9395L68.4082-36.7188L62.9395-31.25ZM14.9414-12.9883L20.459-7.4707L44.2383-31.25L38.7207-36.7188Z"/>
  </g>
  <g id="Medium-S" transform="matrix(1 0 0 1 1693.48 696)">
   <path d="M22.7051-1.26953L84.5703-1.26953Q90.1367-1.26953 93.2617-4.5166Q96.3867-7.76367 96.3867-14.0625L96.3867-56.3477Q96.3867-62.6465 93.0908-65.8936Q89.7949-69.1406 83.4473-69.1406L21.582-69.1406Q16.0156-69.1406 12.8906-65.8936Q9.76562-62.6465 9.76562-56.3477L9.76562-14.0625Q9.76562-7.76367 13.0615-4.5166Q16.3574-1.26953 22.7051-1.26953ZM22.6562-9.13086Q20.2148-9.13086 18.8965-10.4248Q17.5781-11.7188 17.5781-14.3555L17.5781-56.1035Q17.5781-58.6914 18.8965-59.9854Q20.2148-61.2793 22.6562-61.2793L83.4473-61.2793Q85.8887-61.2793 87.2314-59.9854Q88.5742-58.6914 88.5742-56.0547L88.5742-14.3066Q88.5742-11.7188 87.2314-10.4248Q85.8887-9.13086 83.4473-9.13086ZM53.0762-24.4629Q55.3223-24.4629 57.4219-25.4395Q59.5215-26.416 61.6699-28.4668L92.2852-58.5938L87.207-63.7207L57.4219-34.2285Q56.2012-33.0566 55.1758-32.4951Q54.1504-31.9336 53.0762-31.9336Q52.002-31.9336 50.9766-32.4951Q49.9512-33.0566 48.7305-34.2285L18.7988-63.8672L13.7695-58.7891L44.4824-28.4668Q46.582-26.416 48.7061-25.4395Q50.8301-24.4629 53.0762-24.4629ZM86.7188-7.32422L91.7969-12.4023L67.7734-36.3281L62.7441-31.2988ZM14.3555-12.4512L19.4336-7.32422L43.457-31.2988L38.3301-36.3281Z"/>
  </g>
  <g id="Regular-S" transform="matrix(1 0 0 1 1397.43 696)">
   <path d="M22.2168-1.85547L83.9844-1.85547Q89.209-1.85547 92.1387-4.90723Q95.0684-7.95898 95.0684-14.1113L95.0684-56.2988Q95.0684-62.4512 91.9434-65.5029Q88.8184-68.5547 82.6172-68.5547L20.8496-68.5547Q15.625-68.5547 12.6953-65.5029Q9.76562-62.4512 9.76562-56.2988L9.76562-14.1113Q9.76562-7.95898 12.8906-4.90723Q16.0156-1.85547 22.2168-1.85547ZM21.9238-8.49609Q19.2871-8.49609 17.8711-9.91211Q16.4551-11.3281 16.4551-14.1113L16.4551-56.3477Q16.4551-59.082 17.8711-60.498Q19.2871-61.9141 21.9238-61.9141L82.8613-61.9141Q85.498-61.9141 86.9385-60.498Q88.3789-59.082 88.3789-56.2988L88.3789-14.0625Q88.3789-11.3281 86.9385-9.91211Q85.498-8.49609 82.8613-8.49609ZM52.4414-24.6094Q54.5898-24.6094 56.6162-25.5371Q58.6426-26.4648 60.7422-28.5156L91.6016-58.8867L87.0605-63.4277L57.0312-33.6914Q55.7617-32.4707 54.6631-31.8848Q53.5645-31.2988 52.4414-31.2988Q51.2695-31.2988 50.1709-31.8848Q49.0723-32.4707 47.8027-33.6914L17.5781-63.623L13.0859-59.082L44.0918-28.5156Q46.1914-26.4648 48.2422-25.5371Q50.293-24.6094 52.4414-24.6094ZM86.7188-7.17773L91.2109-11.6699L66.9922-35.8398L62.5-31.3477ZM13.623-11.7188L18.1641-7.17773L42.3828-31.3477L37.8418-35.8398Z"/>
  </g>
  <g id="Light-S" transform="matrix(1 0 0 1 1101.47 696)">
   <path d="M21.3867-2.58789L82.8613-2.58789Q87.9883-2.58789 90.7715-5.46875Q93.5547-8.34961 93.5547-14.0625L93.5547-56.2988Q93.5547-62.0117 90.625-64.917Q87.6953-67.8223 81.9336-67.8223L20.459-67.8223Q15.3809-67.8223 12.5732-64.9414Q9.76562-62.0605 9.76562-56.2988L9.76562-14.0625Q9.76562-8.34961 12.6953-5.46875Q15.625-2.58789 21.3867-2.58789ZM21.2402-7.71484Q18.1641-7.71484 16.5527-9.32617Q14.9414-10.9375 14.9414-14.1113L14.9414-56.2988Q14.9414-59.4238 16.5527-61.0352Q18.1641-62.6465 21.2402-62.6465L82.0801-62.6465Q85.0586-62.6465 86.7188-61.0352Q88.3789-59.4238 88.3789-56.2988L88.3789-14.0625Q88.3789-10.9375 86.7188-9.32617Q85.0586-7.71484 82.0801-7.71484ZM51.7578-25.3418Q53.6621-25.3418 55.5664-26.1719Q57.4707-27.002 59.4238-28.9062L90.6738-59.5703L87.1094-63.1348L56.4453-32.9102Q55.1758-31.6895 54.0283-31.1279Q52.8809-30.5664 51.7578-30.5664Q50.6348-30.5664 49.4873-31.1279Q48.3398-31.6895 47.0703-32.9102L16.2598-63.2812L12.7441-59.7168L44.0918-28.9062Q46.0449-27.002 47.9492-26.1719Q49.8535-25.3418 51.7578-25.3418ZM86.7188-7.32422L90.2344-10.8887L65.0879-35.5957L61.5723-32.0801ZM13.1836-10.8398L16.748-7.22656L41.9922-32.0801L38.4277-35.5957Z"/>
  </g>
  <g id="Thin-S" transform="matrix(1 0 0 1 805.739 696)">
   <path d="M20.3125-3.51562L81.3965-3.51562Q86.3281-3.51562 88.9648-6.20117Q91.6016-8.88672 91.6016-14.0137L91.6016-56.3477Q91.6016-61.4746 88.916-64.1602Q86.2305-66.8457 81.0547-66.8457L19.9219-66.8457Q15.0391-66.8457 12.4023-64.1846Q9.76562-61.5234 9.76562-56.3477L9.76562-14.0137Q9.76562-8.83789 12.4268-6.17676Q15.0879-3.51562 20.3125-3.51562ZM20.3125-6.68945Q16.6992-6.68945 14.8438-8.54492Q12.9883-10.4004 12.9883-14.0625L12.9883-56.2988Q12.9883-59.9121 14.8438-61.7676Q16.6992-63.623 20.3125-63.623L81.0547-63.623Q84.5215-63.623 86.4502-61.7676Q88.3789-59.9121 88.3789-56.25L88.3789-14.0625Q88.3789-10.4004 86.4502-8.54492Q84.5215-6.68945 81.0547-6.68945ZM50.8789-26.3672Q52.4902-26.3672 54.1992-27.0752Q55.9082-27.7832 57.666-29.4434L89.502-60.498L87.207-62.793L55.6152-31.8359Q54.3945-30.6152 53.1738-30.1025Q51.9531-29.5898 50.8789-29.5898Q49.8047-29.5898 48.584-30.127Q47.3633-30.6641 46.1426-31.8359L14.502-62.8418L12.2559-60.5469L44.1406-29.4434Q45.8984-27.7832 47.6074-27.0752Q49.3164-26.3672 50.8789-26.3672ZM86.7676-7.4707L88.9648-9.86328L62.5488-35.2539L60.3027-33.0566ZM12.6465-9.66797L14.8438-7.27539L41.4551-33.0566L39.209-35.2539Z"/>
  </g>
  <g id="Ultralight-S" transform="matrix(1 0 0 1 509.54 696)">
   <path d="M19.7754-4.00391L80.6152-4.00391Q85.498-4.00391 88.0371-6.56738Q90.5762-9.13086 90.5762-13.9648L90.5762-56.3477Q90.5762-61.1816 88.0127-63.7451Q85.4492-66.3086 80.5664-66.3086L19.6777-66.3086Q14.8438-66.3086 12.3047-63.7695Q9.76562-61.2305 9.76562-56.3477L9.76562-13.9648Q9.76562-9.08203 12.3047-6.54297Q14.8438-4.00391 19.7754-4.00391ZM19.8242-6.20117Q15.918-6.20117 13.9404-8.17871Q11.9629-10.1562 11.9629-14.0625L11.9629-56.25Q11.9629-60.1562 13.9404-62.1582Q15.918-64.1602 19.8242-64.1602L80.5176-64.1602Q84.2285-64.1602 86.3037-62.1582Q88.3789-60.1562 88.3789-56.25L88.3789-14.0625Q88.3789-10.1562 86.3037-8.17871Q84.2285-6.20117 80.5176-6.20117ZM50.4395-26.8555Q51.8555-26.8555 53.4668-27.4902Q55.0781-28.125 56.7383-29.7363L88.8672-60.9863L87.2559-62.5977L55.2246-31.2988Q54.0039-30.0781 52.7344-29.5654Q51.4648-29.0527 50.4395-29.0527Q49.4141-29.0527 48.1201-29.5898Q46.8262-30.127 45.6543-31.2988L13.623-62.6465L12.0117-60.9863L44.1406-29.7363Q45.8008-28.125 47.4121-27.4902Q49.0234-26.8555 50.4395-26.8555ZM86.7676-7.56836L88.2812-9.32617L61.2793-35.0586L59.668-33.5449ZM12.3535-9.08203L13.8672-7.32422L41.2109-33.5449L39.5996-35.0586Z"/>
  </g>
 </g>
</svg>
