<?xml version="1.0" encoding="UTF-8"?>
<!--Generator: Apple Native CoreSVG 175-->
<!DOCTYPE svg
PUBLIC "-//W3C//DTD SVG 1.1//EN"
       "http://www.w3.org/Graphics/SVG/1.1/DTD/svg11.dtd">
<svg version="1.1" xmlns="http://www.w3.org/2000/svg" xmlns:xlink="http://www.w3.org/1999/xlink" width="3300" height="2200">
 <!--glyph: "uni10021F.medium", point size: 100.0, font version: "17.0d11e1", template writer version: "65.1"-->
 <g id="Notes">
  <rect height="2200" id="artboard" style="fill:white;opacity:1" width="3300" x="0" y="0"/>
  <line style="fill:none;stroke:black;opacity:1;stroke-width:0.5;" x1="263" x2="3036" y1="292" y2="292"/>
  <text style="stroke:none;fill:black;font-family:sans-serif;font-size:13;font-weight:bold;" transform="matrix(1 0 0 1 263 322)">Weight/Scale Variations</text>
  <text style="stroke:none;fill:black;font-family:sans-serif;font-size:13;text-anchor:middle;" transform="matrix(1 0 0 1 559.711 322)">Ultralight</text>
  <text style="stroke:none;fill:black;font-family:sans-serif;font-size:13;text-anchor:middle;" transform="matrix(1 0 0 1 856.422 322)">Thin</text>
  <text style="stroke:none;fill:black;font-family:sans-serif;font-size:13;text-anchor:middle;" transform="matrix(1 0 0 1 1153.13 322)">Light</text>
  <text style="stroke:none;fill:black;font-family:sans-serif;font-size:13;text-anchor:middle;" transform="matrix(1 0 0 1 1449.84 322)">Regular</text>
  <text style="stroke:none;fill:black;font-family:sans-serif;font-size:13;text-anchor:middle;" transform="matrix(1 0 0 1 1746.56 322)">Medium</text>
  <text style="stroke:none;fill:black;font-family:sans-serif;font-size:13;text-anchor:middle;" transform="matrix(1 0 0 1 2043.27 322)">Semibold</text>
  <text style="stroke:none;fill:black;font-family:sans-serif;font-size:13;text-anchor:middle;" transform="matrix(1 0 0 1 2339.98 322)">Bold</text>
  <text style="stroke:none;fill:black;font-family:sans-serif;font-size:13;text-anchor:middle;" transform="matrix(1 0 0 1 2636.69 322)">Heavy</text>
  <text style="stroke:none;fill:black;font-family:sans-serif;font-size:13;text-anchor:middle;" transform="matrix(1 0 0 1 2933.4 322)">Black</text>
  <line style="fill:none;stroke:black;opacity:1;stroke-width:0.5;" x1="263" x2="3036" y1="1903" y2="1903"/>
  <g transform="matrix(1 0 0 1 263 1933)">
   <path d="M9.24805 0.830078Q10.8691 0.830078 12.2949 0.214844Q13.7207-0.400391 14.8096-1.49414Q15.8984-2.58789 16.5186-4.01367Q17.1387-5.43945 17.1387-7.05078Q17.1387-8.66211 16.5186-10.0879Q15.8984-11.5137 14.8047-12.6074Q13.7109-13.7012 12.2852-14.3164Q10.8594-14.9316 9.23828-14.9316Q7.62695-14.9316 6.20117-14.3164Q4.77539-13.7012 3.69141-12.6074Q2.60742-11.5137 1.9873-10.0879Q1.36719-8.66211 1.36719-7.05078Q1.36719-5.43945 1.9873-4.01367Q2.60742-2.58789 3.69629-1.49414Q4.78516-0.400391 6.21094 0.214844Q7.63672 0.830078 9.24805 0.830078ZM9.24805-0.654297Q7.91992-0.654297 6.7627-1.14746Q5.60547-1.64062 4.73145-2.51953Q3.85742-3.39844 3.36426-4.56055Q2.87109-5.72266 2.87109-7.05078Q2.87109-8.37891 3.35938-9.54102Q3.84766-10.7031 4.72168-11.582Q5.5957-12.4609 6.75293-12.9541Q7.91016-13.4473 9.23828-13.4473Q10.5762-13.4473 11.7334-12.9541Q12.8906-12.4609 13.7695-11.582Q14.6484-10.7031 15.1465-9.54102Q15.6445-8.37891 15.6445-7.05078Q15.6445-5.72266 15.1514-4.56055Q14.6582-3.39844 13.7842-2.51953Q12.9102-1.64062 11.748-1.14746Q10.5859-0.654297 9.24805-0.654297ZM5.6543-7.05078Q5.6543-6.72852 5.85938-6.52832Q6.06445-6.32812 6.40625-6.32812L8.51562-6.32812L8.51562-4.20898Q8.51562-3.88672 8.71094-3.67676Q8.90625-3.4668 9.23828-3.4668Q9.56055-3.4668 9.77051-3.67676Q9.98047-3.88672 9.98047-4.20898L9.98047-6.32812L12.0898-6.32812Q12.4219-6.32812 12.627-6.52832Q12.832-6.72852 12.832-7.05078Q12.832-7.38281 12.627-7.58789Q12.4219-7.79297 12.0898-7.79297L9.98047-7.79297L9.98047-9.90234Q9.98047-10.2344 9.77051-10.4443Q9.56055-10.6543 9.23828-10.6543Q8.90625-10.6543 8.71094-10.4443Q8.51562-10.2344 8.51562-9.90234L8.51562-7.79297L6.40625-7.79297Q6.06445-7.79297 5.85938-7.58789Q5.6543-7.38281 5.6543-7.05078Z"/>
  </g>
  <g transform="matrix(1 0 0 1 281.867 1933)">
   <path d="M11.709 2.91016Q13.75 2.91016 15.5518 2.12891Q17.3535 1.34766 18.7305-0.0292969Q20.1074-1.40625 20.8887-3.20801Q21.6699-5.00977 21.6699-7.05078Q21.6699-9.0918 20.8887-10.8936Q20.1074-12.6953 18.7305-14.0723Q17.3535-15.4492 15.5469-16.2305Q13.7402-17.0117 11.6992-17.0117Q9.6582-17.0117 7.85645-16.2305Q6.05469-15.4492 4.68262-14.0723Q3.31055-12.6953 2.5293-10.8936Q1.74805-9.0918 1.74805-7.05078Q1.74805-5.00977 2.5293-3.20801Q3.31055-1.40625 4.6875-0.0292969Q6.06445 1.34766 7.86621 2.12891Q9.66797 2.91016 11.709 2.91016ZM11.709 1.25Q9.98047 1.25 8.47656 0.605469Q6.97266-0.0390625 5.83496-1.17676Q4.69727-2.31445 4.05762-3.81836Q3.41797-5.32227 3.41797-7.05078Q3.41797-8.7793 4.05762-10.2832Q4.69727-11.7871 5.83008-12.9297Q6.96289-14.0723 8.4668-14.7119Q9.9707-15.3516 11.6992-15.3516Q13.4277-15.3516 14.9316-14.7119Q16.4355-14.0723 17.5781-12.9297Q18.7207-11.7871 19.3652-10.2832Q20.0098-8.7793 20.0098-7.05078Q20.0098-5.32227 19.3701-3.81836Q18.7305-2.31445 17.5928-1.17676Q16.4551-0.0390625 14.9463 0.605469Q13.4375 1.25 11.709 1.25ZM7.17773-7.05078Q7.17773-6.69922 7.41211-6.47461Q7.64648-6.25 8.01758-6.25L10.8887-6.25L10.8887-3.36914Q10.8887-2.99805 11.1133-2.76855Q11.3379-2.53906 11.6895-2.53906Q12.0605-2.53906 12.29-2.76855Q12.5195-2.99805 12.5195-3.36914L12.5195-6.25L15.4004-6.25Q15.7715-6.25 16.001-6.47461Q16.2305-6.69922 16.2305-7.05078Q16.2305-7.42188 16.001-7.65137Q15.7715-7.88086 15.4004-7.88086L12.5195-7.88086L12.5195-10.752Q12.5195-11.1328 12.29-11.3623Q12.0605-11.5918 11.6895-11.5918Q11.3379-11.5918 11.1133-11.3574Q10.8887-11.123 10.8887-10.752L10.8887-7.88086L8.01758-7.88086Q7.63672-7.88086 7.40723-7.65137Q7.17773-7.42188 7.17773-7.05078Z"/>
  </g>
  <g transform="matrix(1 0 0 1 305.646 1933)">
   <path d="M14.9707 5.66406Q17.0605 5.66406 18.96 5.01465Q20.8594 4.36523 22.4512 3.19336Q24.043 2.02148 25.2197 0.429688Q26.3965-1.16211 27.0459-3.06641Q27.6953-4.9707 27.6953-7.05078Q27.6953-9.14062 27.0459-11.04Q26.3965-12.9395 25.2197-14.5312Q24.043-16.123 22.4512-17.2998Q20.8594-18.4766 18.9551-19.126Q17.0508-19.7754 14.9609-19.7754Q12.8711-19.7754 10.9717-19.126Q9.07227-18.4766 7.48535-17.2998Q5.89844-16.123 4.72168-14.5312Q3.54492-12.9395 2.90039-11.04Q2.25586-9.14062 2.25586-7.05078Q2.25586-4.9707 2.90527-3.06641Q3.55469-1.16211 4.72656 0.429688Q5.89844 2.02148 7.49023 3.19336Q9.08203 4.36523 10.9814 5.01465Q12.8809 5.66406 14.9707 5.66406ZM14.9707 3.84766Q13.1641 3.84766 11.5283 3.2959Q9.89258 2.74414 8.53516 1.74805Q7.17773 0.751953 6.17676-0.610352Q5.17578-1.97266 4.62891-3.6084Q4.08203-5.24414 4.08203-7.05078Q4.08203-8.86719 4.62891-10.5029Q5.17578-12.1387 6.17188-13.501Q7.16797-14.8633 8.52539-15.8594Q9.88281-16.8555 11.5186-17.4023Q13.1543-17.9492 14.9609-17.9492Q16.7773-17.9492 18.4131-17.4023Q20.0488-16.8555 21.4111-15.8594Q22.7734-14.8633 23.7695-13.501Q24.7656-12.1387 25.3174-10.5029Q25.8691-8.86719 25.8691-7.05078Q25.8789-5.24414 25.332-3.6084Q24.7852-1.97266 23.7842-0.610352Q22.7832 0.751953 21.4209 1.74805Q20.0586 2.74414 18.4229 3.2959Q16.7871 3.84766 14.9707 3.84766ZM9.19922-7.05078Q9.19922-6.66992 9.45801-6.4209Q9.7168-6.17188 10.1172-6.17188L14.0625-6.17188L14.0625-2.2168Q14.0625-1.81641 14.3115-1.55762Q14.5605-1.29883 14.9512-1.29883Q15.3516-1.29883 15.6104-1.55273Q15.8691-1.80664 15.8691-2.2168L15.8691-6.17188L19.8242-6.17188Q20.2246-6.17188 20.4785-6.4209Q20.7324-6.66992 20.7324-7.05078Q20.7324-7.46094 20.4785-7.71484Q20.2246-7.96875 19.8242-7.96875L15.8691-7.96875L15.8691-11.9141Q15.8691-12.3242 15.6104-12.583Q15.3516-12.8418 14.9512-12.8418Q14.5605-12.8418 14.3115-12.583Q14.0625-12.3242 14.0625-11.9141L14.0625-7.96875L10.1172-7.96875Q9.70703-7.96875 9.45312-7.71484Q9.19922-7.46094 9.19922-7.05078Z"/>
  </g>
  <text style="stroke:none;fill:black;font-family:sans-serif;font-size:13;font-weight:bold;" transform="matrix(1 0 0 1 263 1953)">Design Variations</text>
  <text style="stroke:none;fill:black;font-family:sans-serif;font-size:13;" transform="matrix(1 0 0 1 263 1971)">Symbols are supported in up to nine weights and three scales.</text>
  <text style="stroke:none;fill:black;font-family:sans-serif;font-size:13;" transform="matrix(1 0 0 1 263 1989)">For optimal layout with text and other symbols, vertically align</text>
  <text style="stroke:none;fill:black;font-family:sans-serif;font-size:13;" transform="matrix(1 0 0 1 263 2007)">symbols with the adjacent text.</text>
  <line style="fill:none;stroke:#00AEEF;stroke-width:0.5;opacity:1.0;" x1="776" x2="776" y1="1919" y2="1933"/>
  <g transform="matrix(1 0 0 1 776 1933)">
   <path d="M3.31055 0.15625Q3.70117 0.15625 3.91602-0.00976562Q4.13086-0.175781 4.26758-0.585938L5.52734-4.0332L11.2891-4.0332L12.5488-0.585938Q12.6855-0.175781 12.9004-0.00976562Q13.1152 0.15625 13.4961 0.15625Q13.8867 0.15625 14.1162-0.0585938Q14.3457-0.273438 14.3457-0.644531Q14.3457-0.869141 14.2383-1.17188L9.6582-13.3691Q9.48242-13.8184 9.17969-14.043Q8.87695-14.2676 8.4082-14.2676Q7.5-14.2676 7.17773-13.3789L2.59766-1.16211Q2.49023-0.859375 2.49023-0.634766Q2.49023-0.263672 2.70996-0.0537109Q2.92969 0.15625 3.31055 0.15625ZM6.00586-5.51758L8.37891-12.0898L8.42773-12.0898L10.8008-5.51758Z"/>
  </g>
  <line style="fill:none;stroke:#00AEEF;stroke-width:0.5;opacity:1.0;" x1="793.197" x2="793.197" y1="1919" y2="1933"/>
  <text style="stroke:none;fill:black;font-family:sans-serif;font-size:13;font-weight:bold;" transform="matrix(1 0 0 1 776 1953)">Margins</text>
  <text style="stroke:none;fill:black;font-family:sans-serif;font-size:13;" transform="matrix(1 0 0 1 776 1971)">Leading and trailing margins on the left and right side of each symbol</text>
  <text style="stroke:none;fill:black;font-family:sans-serif;font-size:13;" transform="matrix(1 0 0 1 776 1989)">can be adjusted by modifying the x-location of the margin guidelines.</text>
  <text style="stroke:none;fill:black;font-family:sans-serif;font-size:13;" transform="matrix(1 0 0 1 776 2007)">Modifications are automatically applied proportionally to all</text>
  <text style="stroke:none;fill:black;font-family:sans-serif;font-size:13;" transform="matrix(1 0 0 1 776 2025)">scales and weights.</text>
  <g transform="matrix(1 0 0 1 1289 1933)">
   <path d="M2.8418 1.86523L4.54102 3.57422Q5.18555 4.22852 5.90332 4.17969Q6.62109 4.13086 7.31445 3.35938L18.0078-8.42773L17.041-9.4043L6.42578 2.27539Q6.16211 2.57812 5.89355 2.61719Q5.625 2.65625 5.27344 2.30469L4.10156 1.14258Q3.75 0.791016 3.79395 0.522461Q3.83789 0.253906 4.14062-0.0195312L15.6152-10.8203L14.6387-11.7871L3.04688-0.898438Q2.30469-0.214844 2.25098 0.498047Q2.19727 1.21094 2.8418 1.86523ZM9.25781-16.3281Q8.94531-16.0254 8.90625-15.6348Q8.86719-15.2441 9.04297-14.9512Q9.21875-14.6777 9.55566-14.541Q9.89258-14.4043 10.3809-14.5215Q11.4746-14.7754 12.5977-14.7314Q13.7207-14.6875 14.7949-13.9844L14.209-12.5293Q13.9551-11.9043 14.0674-11.4404Q14.1797-10.9766 14.5801-10.5664L16.875-8.25195Q17.2363-7.88086 17.5781-7.82227Q17.9199-7.76367 18.3398-7.8418L19.4043-8.03711L20.0684-7.36328L20.0293-6.80664Q20-6.43555 20.1221-6.12305Q20.2441-5.81055 20.6055-5.44922L21.3672-4.70703Q21.7285-4.3457 22.1533-4.33105Q22.5781-4.31641 22.9297-4.66797L25.8398-7.58789Q26.1914-7.93945 26.1816-8.35449Q26.1719-8.76953 25.8105-9.13086L25.0391-9.89258Q24.6875-10.2539 24.3799-10.3857Q24.0723-10.5176 23.7109-10.4883L23.1348-10.4395L22.4902-11.0742L22.7344-12.1973Q22.832-12.6172 22.6953-12.9834Q22.5586-13.3496 22.1191-13.7891L19.9219-15.9766Q18.6719-17.2168 17.2607-17.8369Q15.8496-18.457 14.4189-18.4814Q12.9883-18.5059 11.665-17.959Q10.3418-17.4121 9.25781-16.3281ZM10.752-15.957Q11.6602-16.6211 12.7002-16.9043Q13.7402-17.1875 14.8047-17.085Q15.8691-16.9824 16.8701-16.5137Q17.8711-16.0449 18.7012-15.2051L21.1328-12.793Q21.3086-12.6172 21.3525-12.4512Q21.3965-12.2852 21.3379-12.0312L21.0156-10.5469L22.5195-9.0625L23.5059-9.12109Q23.6914-9.13086 23.7891-9.09668Q23.8867-9.0625 24.0332-8.91602L24.6094-8.33984L22.168-5.89844L21.5918-6.47461Q21.4453-6.62109 21.4062-6.71875Q21.3672-6.81641 21.377-7.01172L21.4453-7.98828L19.9512-9.47266L18.4277-9.21875Q18.1836-9.16992 18.042-9.2041Q17.9004-9.23828 17.7148-9.41406L15.7129-11.416Q15.5176-11.5918 15.4932-11.7529Q15.4688-11.9141 15.5859-12.1875L16.4648-14.2773Q15.293-15.3711 13.8281-15.791Q12.3633-16.2109 10.8398-15.7617Q10.7227-15.7324 10.6885-15.8057Q10.6543-15.8789 10.752-15.957Z"/>
  </g>
  <text style="stroke:none;fill:black;font-family:sans-serif;font-size:13;font-weight:bold;" transform="matrix(1 0 0 1 1289 1953)">Exporting</text>
  <text style="stroke:none;fill:black;font-family:sans-serif;font-size:13;" transform="matrix(1 0 0 1 1289 1971)">Symbols should be outlined when exporting to ensure the</text>
  <text style="stroke:none;fill:black;font-family:sans-serif;font-size:13;" transform="matrix(1 0 0 1 1289 1989)">design is preserved when submitting to Xcode.</text>
  <text id="template-version" style="stroke:none;fill:black;font-family:sans-serif;font-size:13;text-anchor:end;" transform="matrix(1 0 0 1 3036 1933)">Template v.3.0</text>
  <text style="stroke:none;fill:black;font-family:sans-serif;font-size:13;text-anchor:end;" transform="matrix(1 0 0 1 3036 1951)">Requires Xcode 13 or greater</text>
  <text id="descriptive-name" style="stroke:none;fill:black;font-family:sans-serif;font-size:13;text-anchor:end;" transform="matrix(1 0 0 1 3036 1969)">Generated from paperplane</text>
  <text style="stroke:none;fill:black;font-family:sans-serif;font-size:13;text-anchor:end;" transform="matrix(1 0 0 1 3036 1987)">Typeset at 100 points</text>
  <text style="stroke:none;fill:black;font-family:sans-serif;font-size:13;" transform="matrix(1 0 0 1 263 726)">Small</text>
  <text style="stroke:none;fill:black;font-family:sans-serif;font-size:13;" transform="matrix(1 0 0 1 263 1156)">Medium</text>
  <text style="stroke:none;fill:black;font-family:sans-serif;font-size:13;" transform="matrix(1 0 0 1 263 1586)">Large</text>
 </g>
 <g id="Guides">
  <g id="H-reference" style="fill:#27AAE1;stroke:none;" transform="matrix(1 0 0 1 339 696)">
   <path d="M0.976562 0L3.66211 0L29.3457-67.1387L30.0293-67.1387L30.0293-70.459L28.125-70.459ZM11.6699-24.4629L46.9727-24.4629L46.2402-26.709L12.4512-26.709ZM55.127 0L57.7637 0L30.6152-70.459L29.4434-70.459L29.4434-67.1387Z"/>
  </g>
  <line id="Baseline-S" style="fill:none;stroke:#27AAE1;opacity:1;stroke-width:0.5;" x1="263" x2="3036" y1="696" y2="696"/>
  <line id="Capline-S" style="fill:none;stroke:#27AAE1;opacity:1;stroke-width:0.5;" x1="263" x2="3036" y1="625.541" y2="625.541"/>
  <g id="H-reference" style="fill:#27AAE1;stroke:none;" transform="matrix(1 0 0 1 339 1126)">
   <path d="M0.976562 0L3.66211 0L29.3457-67.1387L30.0293-67.1387L30.0293-70.459L28.125-70.459ZM11.6699-24.4629L46.9727-24.4629L46.2402-26.709L12.4512-26.709ZM55.127 0L57.7637 0L30.6152-70.459L29.4434-70.459L29.4434-67.1387Z"/>
  </g>
  <line id="Baseline-M" style="fill:none;stroke:#27AAE1;opacity:1;stroke-width:0.5;" x1="263" x2="3036" y1="1126" y2="1126"/>
  <line id="Capline-M" style="fill:none;stroke:#27AAE1;opacity:1;stroke-width:0.5;" x1="263" x2="3036" y1="1055.54" y2="1055.54"/>
  <g id="H-reference" style="fill:#27AAE1;stroke:none;" transform="matrix(1 0 0 1 339 1556)">
   <path d="M0.976562 0L3.66211 0L29.3457-67.1387L30.0293-67.1387L30.0293-70.459L28.125-70.459ZM11.6699-24.4629L46.9727-24.4629L46.2402-26.709L12.4512-26.709ZM55.127 0L57.7637 0L30.6152-70.459L29.4434-70.459L29.4434-67.1387Z"/>
  </g>
  <line id="Baseline-L" style="fill:none;stroke:#27AAE1;opacity:1;stroke-width:0.5;" x1="263" x2="3036" y1="1556" y2="1556"/>
  <line id="Capline-L" style="fill:none;stroke:#27AAE1;opacity:1;stroke-width:0.5;" x1="263" x2="3036" y1="1485.54" y2="1485.54"/>
  <line id="left-margin-Ultralight-S" style="fill:none;stroke:#00AEEF;stroke-width:0.5;opacity:1.0;" x1="513.764" x2="513.764" y1="600.785" y2="720.121"/>
  <line id="right-margin-Ultralight-S" style="fill:none;stroke:#00AEEF;stroke-width:0.5;opacity:1.0;" x1="605.658" x2="605.658" y1="600.785" y2="720.121"/>
  <line id="left-margin-Thin-S" style="fill:none;stroke:#00AEEF;stroke-width:0.5;opacity:1.0;" x1="809.938" x2="809.938" y1="600.785" y2="720.121"/>
  <line id="right-margin-Thin-S" style="fill:none;stroke:#00AEEF;stroke-width:0.5;opacity:1.0;" x1="902.907" x2="902.907" y1="600.785" y2="720.121"/>
  <line id="left-margin-Light-S" style="fill:none;stroke:#00AEEF;stroke-width:0.5;opacity:1.0;" x1="1105.6" x2="1105.6" y1="600.785" y2="720.121"/>
  <line id="right-margin-Light-S" style="fill:none;stroke:#00AEEF;stroke-width:0.5;opacity:1.0;" x1="1200.67" x2="1200.67" y1="600.785" y2="720.121"/>
  <line id="left-margin-Regular-S" style="fill:none;stroke:#00AEEF;stroke-width:0.5;opacity:1.0;" x1="1401.53" x2="1401.53" y1="600.785" y2="720.121"/>
  <line id="right-margin-Regular-S" style="fill:none;stroke:#00AEEF;stroke-width:0.5;opacity:1.0;" x1="1498.16" x2="1498.16" y1="600.785" y2="720.121"/>
  <line id="left-margin-Medium-S" style="fill:none;stroke:#00AEEF;stroke-width:0.5;opacity:1.0;" x1="1697.87" x2="1697.87" y1="600.785" y2="720.121"/>
  <line id="right-margin-Medium-S" style="fill:none;stroke:#00AEEF;stroke-width:0.5;opacity:1.0;" x1="1795.24" x2="1795.24" y1="600.785" y2="720.121"/>
  <line id="left-margin-Semibold-S" style="fill:none;stroke:#00AEEF;stroke-width:0.5;opacity:1.0;" x1="1994.29" x2="1994.29" y1="600.785" y2="720.121"/>
  <line id="right-margin-Semibold-S" style="fill:none;stroke:#00AEEF;stroke-width:0.5;opacity:1.0;" x1="2092.24" x2="2092.24" y1="600.785" y2="720.121"/>
  <line id="left-margin-Bold-S" style="fill:none;stroke:#00AEEF;stroke-width:0.5;opacity:1.0;" x1="2290.64" x2="2290.64" y1="600.785" y2="720.121"/>
  <line id="right-margin-Bold-S" style="fill:none;stroke:#00AEEF;stroke-width:0.5;opacity:1.0;" x1="2389.32" x2="2389.32" y1="600.785" y2="720.121"/>
  <line id="left-margin-Heavy-S" style="fill:none;stroke:#00AEEF;stroke-width:0.5;opacity:1.0;" x1="2586.81" x2="2586.81" y1="600.785" y2="720.121"/>
  <line id="right-margin-Heavy-S" style="fill:none;stroke:#00AEEF;stroke-width:0.5;opacity:1.0;" x1="2686.57" x2="2686.57" y1="600.785" y2="720.121"/>
  <line id="left-margin-Black-S" style="fill:none;stroke:#00AEEF;stroke-width:0.5;opacity:1.0;" x1="2883.03" x2="2883.03" y1="600.785" y2="720.121"/>
  <line id="right-margin-Black-S" style="fill:none;stroke:#00AEEF;stroke-width:0.5;opacity:1.0;" x1="2983.77" x2="2983.77" y1="600.785" y2="720.121"/>
  <line id="left-margin-Ultralight-M" style="fill:none;stroke:#00AEEF;stroke-width:0.5;opacity:1.0;" x1="501.264" x2="501.264" y1="1030.79" y2="1150.12"/>
  <line id="right-margin-Ultralight-M" style="fill:none;stroke:#00AEEF;stroke-width:0.5;opacity:1.0;" x1="618.158" x2="618.158" y1="1030.79" y2="1150.12"/>
  <line id="left-margin-Thin-M" style="fill:none;stroke:#00AEEF;stroke-width:0.5;opacity:1.0;" x1="797.365" x2="797.365" y1="1030.79" y2="1150.12"/>
  <line id="right-margin-Thin-M" style="fill:none;stroke:#00AEEF;stroke-width:0.5;opacity:1.0;" x1="915.48" x2="915.48" y1="1030.79" y2="1150.12"/>
  <line id="left-margin-Light-M" style="fill:none;stroke:#00AEEF;stroke-width:0.5;opacity:1.0;" x1="1092.9" x2="1092.9" y1="1030.79" y2="1150.12"/>
  <line id="right-margin-Light-M" style="fill:none;stroke:#00AEEF;stroke-width:0.5;opacity:1.0;" x1="1213.36" x2="1213.36" y1="1030.79" y2="1150.12"/>
  <line id="left-margin-Regular-M" style="fill:none;stroke:#00AEEF;stroke-width:0.5;opacity:1.0;" x1="1388.71" x2="1388.71" y1="1030.79" y2="1150.12"/>
  <line id="right-margin-Regular-M" style="fill:none;stroke:#00AEEF;stroke-width:0.5;opacity:1.0;" x1="1510.98" x2="1510.98" y1="1030.79" y2="1150.12"/>
  <line id="left-margin-Medium-M" style="fill:none;stroke:#00AEEF;stroke-width:0.5;opacity:1.0;" x1="1684.89" x2="1684.89" y1="1030.79" y2="1150.12"/>
  <line id="right-margin-Medium-M" style="fill:none;stroke:#00AEEF;stroke-width:0.5;opacity:1.0;" x1="1808.23" x2="1808.23" y1="1030.79" y2="1150.12"/>
  <line id="left-margin-Semibold-M" style="fill:none;stroke:#00AEEF;stroke-width:0.5;opacity:1.0;" x1="1981.21" x2="1981.21" y1="1030.79" y2="1150.12"/>
  <line id="right-margin-Semibold-M" style="fill:none;stroke:#00AEEF;stroke-width:0.5;opacity:1.0;" x1="2105.33" x2="2105.33" y1="1030.79" y2="1150.12"/>
  <line id="left-margin-Bold-M" style="fill:none;stroke:#00AEEF;stroke-width:0.5;opacity:1.0;" x1="2277.36" x2="2277.36" y1="1030.79" y2="1150.12"/>
  <line id="right-margin-Bold-M" style="fill:none;stroke:#00AEEF;stroke-width:0.5;opacity:1.0;" x1="2402.6" x2="2402.6" y1="1030.79" y2="1150.12"/>
  <line id="left-margin-Heavy-M" style="fill:none;stroke:#00AEEF;stroke-width:0.5;opacity:1.0;" x1="2573.31" x2="2573.31" y1="1030.79" y2="1150.12"/>
  <line id="right-margin-Heavy-M" style="fill:none;stroke:#00AEEF;stroke-width:0.5;opacity:1.0;" x1="2700.07" x2="2700.07" y1="1030.79" y2="1150.12"/>
  <line id="left-margin-Black-M" style="fill:none;stroke:#00AEEF;stroke-width:0.5;opacity:1.0;" x1="2869.31" x2="2869.31" y1="1030.79" y2="1150.12"/>
  <line id="right-margin-Black-M" style="fill:none;stroke:#00AEEF;stroke-width:0.5;opacity:1.0;" x1="2997.49" x2="2997.49" y1="1030.79" y2="1150.12"/>
  <line id="left-margin-Ultralight-L" style="fill:none;stroke:#00AEEF;stroke-width:0.5;opacity:1.0;" x1="484.565" x2="484.565" y1="1460.79" y2="1580.12"/>
  <line id="right-margin-Ultralight-L" style="fill:none;stroke:#00AEEF;stroke-width:0.5;opacity:1.0;" x1="634.858" x2="634.858" y1="1460.79" y2="1580.12"/>
  <line id="left-margin-Thin-L" style="fill:none;stroke:#00AEEF;stroke-width:0.5;opacity:1.0;" x1="780.592" x2="780.592" y1="1460.79" y2="1580.12"/>
  <line id="right-margin-Thin-L" style="fill:none;stroke:#00AEEF;stroke-width:0.5;opacity:1.0;" x1="932.252" x2="932.252" y1="1460.79" y2="1580.12"/>
  <line id="left-margin-Light-L" style="fill:none;stroke:#00AEEF;stroke-width:0.5;opacity:1.0;" x1="1075.98" x2="1075.98" y1="1460.79" y2="1580.12"/>
  <line id="right-margin-Light-L" style="fill:none;stroke:#00AEEF;stroke-width:0.5;opacity:1.0;" x1="1230.28" x2="1230.28" y1="1460.79" y2="1580.12"/>
  <line id="left-margin-Regular-L" style="fill:none;stroke:#00AEEF;stroke-width:0.5;opacity:1.0;" x1="1371.7" x2="1371.7" y1="1460.79" y2="1580.12"/>
  <line id="right-margin-Regular-L" style="fill:none;stroke:#00AEEF;stroke-width:0.5;opacity:1.0;" x1="1527.99" x2="1527.99" y1="1460.79" y2="1580.12"/>
  <line id="left-margin-Medium-L" style="fill:none;stroke:#00AEEF;stroke-width:0.5;opacity:1.0;" x1="1667.7" x2="1667.7" y1="1460.79" y2="1580.12"/>
  <line id="right-margin-Medium-L" style="fill:none;stroke:#00AEEF;stroke-width:0.5;opacity:1.0;" x1="1825.41" x2="1825.41" y1="1460.79" y2="1580.12"/>
  <line id="left-margin-Semibold-L" style="fill:none;stroke:#00AEEF;stroke-width:0.5;opacity:1.0;" x1="1963.85" x2="1963.85" y1="1460.79" y2="1580.12"/>
  <line id="right-margin-Semibold-L" style="fill:none;stroke:#00AEEF;stroke-width:0.5;opacity:1.0;" x1="2122.69" x2="2122.69" y1="1460.79" y2="1580.12"/>
  <line id="left-margin-Bold-L" style="fill:none;stroke:#00AEEF;stroke-width:0.5;opacity:1.0;" x1="2259.85" x2="2259.85" y1="1460.79" y2="1580.12"/>
  <line id="right-margin-Bold-L" style="fill:none;stroke:#00AEEF;stroke-width:0.5;opacity:1.0;" x1="2420.1" x2="2420.1" y1="1460.79" y2="1580.12"/>
  <line id="left-margin-Heavy-L" style="fill:none;stroke:#00AEEF;stroke-width:0.5;opacity:1.0;" x1="2555.51" x2="2555.51" y1="1460.79" y2="1580.12"/>
  <line id="right-margin-Heavy-L" style="fill:none;stroke:#00AEEF;stroke-width:0.5;opacity:1.0;" x1="2717.87" x2="2717.87" y1="1460.79" y2="1580.12"/>
  <line id="left-margin-Black-L" style="fill:none;stroke:#00AEEF;stroke-width:0.5;opacity:1.0;" x1="2851.3" x2="2851.3" y1="1460.79" y2="1580.12"/>
  <line id="right-margin-Black-L" style="fill:none;stroke:#00AEEF;stroke-width:0.5;opacity:1.0;" x1="3015.5" x2="3015.5" y1="1460.79" y2="1580.12"/>
 </g>
 <g id="Symbols">
  <g id="Black-L" transform="matrix(1 0 0 1 2851.3 1556)">
   <path d="M91.6992 37.5977Q96.1914 37.5977 99.2676 34.7168Q102.344 31.8359 104.15 27.1484L146.582-84.0332Q147.363-85.9863 147.729-87.793Q148.096-89.5996 148.096-91.1621Q148.096-95.5566 145.459-98.1934Q142.822-100.83 138.428-100.83Q136.816-100.83 135.034-100.464Q133.252-100.098 131.299-99.3164L19.9219-56.7871Q15.4297-55.0781 12.5488-52.0264Q9.66797-48.9746 9.66797-44.4336Q9.66797-39.2578 12.9395-36.499Q16.2109-33.7402 21.2891-32.2266L66.3574-19.0918L79.3945 25.7324Q80.9082 30.9082 83.7158 34.2529Q86.5234 37.5977 91.6992 37.5977ZM72.6074-37.1582L46.6309-45.1172Q46.3379-45.2148 46.167-45.4102Q45.9961-45.6055 45.9961-45.8984Q45.9961-46.0938 46.1426-46.2891Q46.2891-46.4844 46.582-46.582L88.7695-63.4277Q93.8477-65.4785 99.1455-67.7979Q104.443-70.1172 111.23-73.1934Q108.301-70.8008 105.127-68.1641Q101.953-65.5273 98.9258-62.8418Q95.8984-60.1562 93.3105-57.6172ZM93.1641 1.2207Q92.8711 1.2207 92.7002 1.0498Q92.5293 0.878906 92.4805 0.585938L84.4238-25.3418L104.883-46.0449Q107.275-48.4863 110.034-51.5869Q112.793-54.6875 115.503-57.9102Q118.213-61.1328 120.459-64.0137Q117.383-57.2266 115.063-51.9043Q112.744-46.582 110.693-41.5039L93.8477 0.634766Q93.75 0.927734 93.5791 1.07422Q93.4082 1.2207 93.1641 1.2207Z"/>
  </g>
  <g id="Heavy-L" transform="matrix(1 0 0 1 2555.51 1556)">
   <path d="M90.7715 36.6699Q94.9219 36.6699 97.8027 33.9111Q100.684 31.1523 102.441 26.5625L144.727-84.082Q145.508-86.0352 145.874-87.793Q146.24-89.5508 146.24-91.1133Q146.24-95.1172 143.848-97.5098Q141.455-99.9023 137.451-99.9023Q135.889-99.9023 134.131-99.5117Q132.373-99.1211 130.42-98.3887L19.5312-56.0059Q15.1855-54.3457 12.4268-51.4893Q9.66797-48.6328 9.66797-44.4336Q9.66797-39.5508 12.793-37.0361Q15.918-34.5215 20.8008-33.0566L66.1621-19.8242L79.2969 25.2441Q80.7617 30.2734 83.3252 33.4717Q85.8887 36.6699 90.7715 36.6699ZM71.4844-35.5469L41.1133-44.8242Q40.625-44.9707 40.4053-45.1904Q40.1855-45.4102 40.1855-45.7031Q40.1855-45.9961 40.3564-46.2158Q40.5273-46.4355 41.0156-46.582L94.6289-67.5781Q99.2676-69.4336 104.028-71.5576Q108.789-73.6816 114.697-76.3672Q112.012-74.1699 109.106-71.7773Q106.201-69.3848 103.442-66.9434Q100.684-64.502 98.3887-62.2559ZM92.0898 6.15234Q91.748 6.15234 91.5527 5.93262Q91.3574 5.71289 91.2109 5.17578L81.8848-25.1465L108.594-52.0508Q110.742-54.248 113.232-57.0557Q115.723-59.8633 118.188-62.8174Q120.654-65.7715 122.705-68.4082Q120.068-62.5488 117.944-57.7393Q115.82-52.9297 113.916-48.291L92.9688 5.27344Q92.7734 5.76172 92.5781 5.95703Q92.3828 6.15234 92.0898 6.15234Z"/>
  </g>
  <g id="Bold-L" transform="matrix(1 0 0 1 2259.85 1556)">
   <path d="M89.7461 35.6445Q93.5547 35.6445 96.2158 33.0078Q98.877 30.3711 100.586 25.9277L142.627-84.1309Q143.408-86.084 143.774-87.8174Q144.141-89.5508 144.141-91.0156Q144.141-94.6289 142.041-96.7529Q139.941-98.877 136.328-98.877Q134.814-98.877 133.105-98.4863Q131.396-98.0957 129.443-97.3145L19.043-55.127Q14.9414-53.5645 12.3047-50.9277Q9.66797-48.291 9.66797-44.4336Q9.66797-39.9414 12.6221-37.6709Q15.5762-35.4004 20.2637-33.9844L65.918-20.6543L79.1992 24.707Q80.6152 29.541 82.9102 32.5928Q85.2051 35.6445 89.7461 35.6445ZM70.2637-33.7891L34.9609-44.4824Q34.2285-44.6777 33.96-44.9463Q33.6914-45.2148 33.6914-45.5566Q33.6914-45.8496 33.9111-46.1426Q34.1309-46.4355 34.7656-46.6309L101.172-72.2656Q105.322-73.877 109.521-75.7812Q113.721-77.6855 118.555-79.8828Q116.211-77.9785 113.599-75.8545Q110.986-73.7305 108.521-71.582Q106.055-69.4336 104.053-67.4316ZM90.8691 11.6699Q90.5273 11.6699 90.2832 11.377Q90.0391 11.084 89.8438 10.3516L79.0527-24.9512L112.744-58.7891Q114.648-60.6934 116.846-63.208Q119.043-65.7227 121.216-68.3594Q123.389-70.9961 125.244-73.291Q123.047-68.457 121.143-64.2334Q119.238-60.0098 117.578-55.8594L91.9434 10.498Q91.748 11.1328 91.4795 11.4014Q91.2109 11.6699 90.8691 11.6699Z"/>
  </g>
  <g id="Semibold-L" transform="matrix(1 0 0 1 1963.85 1556)">
   <path d="M89.0137 34.9121Q92.5781 34.9121 95.0928 32.373Q97.6074 29.834 99.2676 25.4883L141.211-84.1797Q141.943-86.084 142.334-87.793Q142.725-89.502 142.725-90.9668Q142.725-94.2383 140.796-96.1914Q138.867-98.1445 135.547-98.1445Q134.082-98.1445 132.373-97.7295Q130.664-97.3145 128.76-96.582L18.7012-54.541Q14.7461-53.0273 12.207-50.5127Q9.66797-47.998 9.66797-44.4336Q9.66797-40.1367 12.5-38.0615Q15.332-35.9863 19.873-34.5703L65.7715-21.1914L79.1016 24.3164Q80.4688 29.0039 82.5928 31.958Q84.7168 34.9121 89.0137 34.9121ZM69.4336-32.5195L30.6641-44.2383Q29.7852-44.4824 29.4922-44.751Q29.1992-45.0195 29.1992-45.4102Q29.1992-45.752 29.4434-46.0693Q29.6875-46.3867 30.4688-46.6309L105.664-75.4395Q109.473-76.9531 113.257-78.6865Q117.041-80.4199 121.191-82.3242Q119.043-80.6152 116.65-78.6621Q114.258-76.709 112.012-74.7314Q109.766-72.7539 107.959-70.9961ZM90.0391 15.4785Q89.6484 15.4785 89.3799 15.1367Q89.1113 14.7949 88.8672 13.916L77.0996-24.8047L115.625-63.3789Q117.285-65.0879 119.312-67.4072Q121.338-69.7266 123.315-72.1436Q125.293-74.5605 126.953-76.6602Q125.098-72.5586 123.34-68.7256Q121.582-64.8926 120.068-61.084L91.2598 14.1113Q90.9668 14.8438 90.6982 15.1611Q90.4297 15.4785 90.0391 15.4785Z"/>
  </g>
  <g id="Medium-L" transform="matrix(1 0 0 1 1667.7 1556)">
   <path d="M88.4766 34.375Q91.8457 34.375 94.2627 31.9092Q96.6797 29.4434 98.2422 25.1465L140.088-84.1797Q140.82-86.084 141.211-87.793Q141.602-89.502 141.602-90.918Q141.602-93.9941 139.819-95.8008Q138.037-97.6074 134.961-97.6074Q133.545-97.6074 131.86-97.1924Q130.176-96.7773 128.271-96.0449L18.457-54.0527Q14.6484-52.5879 12.1582-50.1953Q9.66797-47.8027 9.66797-44.4336Q9.66797-40.332 12.4268-38.3789Q15.1855-36.4258 19.6289-35.0586L65.625-21.6309L79.0527 24.0723Q80.3711 28.6133 82.373 31.4941Q84.375 34.375 88.4766 34.375ZM68.75-31.5918L27.4414-44.043Q26.416-44.3359 26.0986-44.6289Q25.7812-44.9219 25.7812-45.3125Q25.7812-45.7031 26.0742-46.0449Q26.3672-46.3867 27.1973-46.6797L109.082-77.8809Q112.646-79.248 116.138-80.8838Q119.629-82.5195 123.193-84.1797Q121.24-82.5684 118.994-80.7861Q116.748-79.0039 114.648-77.1729Q112.549-75.3418 110.938-73.7305ZM89.4043 18.3594Q88.9648 18.3594 88.6963 17.9932Q88.4277 17.627 88.1348 16.6016L75.6348-24.707L117.773-66.8945Q119.336-68.457 121.191-70.6055Q123.047-72.7539 124.878-75Q126.709-77.2461 128.271-79.248Q126.611-75.6348 124.976-72.1191Q123.34-68.6035 121.924-65.0391L90.7227 16.7969Q90.4297 17.6758 90.1123 18.0176Q89.7949 18.3594 89.4043 18.3594Z"/>
  </g>
  <g id="Regular-L" transform="matrix(1 0 0 1 1371.7 1556)">
   <path d="M87.793 33.6914Q90.8691 33.6914 93.1396 31.2988Q95.4102 28.9062 96.9727 24.707L138.672-84.2285Q139.404-86.1328 139.795-87.793Q140.186-89.4531 140.186-90.8691Q140.186-93.6523 138.599-95.2637Q137.012-96.875 134.229-96.875Q132.812-96.875 131.152-96.46Q129.492-96.0449 127.588-95.3125L18.1641-53.4668Q14.4531-52.0508 12.0605-49.8047Q9.66797-47.5586 9.66797-44.4336Q9.66797-40.5762 12.3047-38.7939Q14.9414-37.0117 19.2383-35.6934L65.4785-22.168L78.9551 23.6816Q80.2734 28.125 82.0801 30.9082Q83.8867 33.6914 87.793 33.6914ZM67.9199-30.3711L23.2422-43.7988Q22.0703-44.1406 21.7041-44.458Q21.3379-44.7754 21.3379-45.166Q21.3379-45.6055 21.6553-45.9717Q21.9727-46.3379 22.9492-46.6797L113.525-81.0547Q116.748-82.2754 119.849-83.7646Q122.949-85.2539 125.83-86.5723Q124.072-85.1562 122.046-83.5449Q120.02-81.9336 118.115-80.2979Q116.211-78.6621 114.795-77.2461ZM88.5742 22.1191Q88.1348 22.1191 87.8174 21.7041Q87.5 21.2891 87.1582 20.1172L73.6816-24.5605L120.605-71.4844Q121.973-72.8516 123.633-74.7803Q125.293-76.709 126.929-78.7598Q128.564-80.8105 129.98-82.5684Q128.662-79.6875 127.173-76.5625Q125.684-73.4375 124.414-70.2148L90.0391 20.3613Q89.6973 21.3379 89.3555 21.7285Q89.0137 22.1191 88.5742 22.1191Z"/>
  </g>
  <g id="Light-L" transform="matrix(1 0 0 1 1075.98 1556)">
   <path d="M86.8164 32.7148Q89.4531 32.7148 91.4307 30.7373Q93.4082 28.7598 94.7754 25.0488L137.012-85.4004Q137.598-86.9141 137.891-88.2568Q138.184-89.5996 138.184-90.7227Q138.184-93.1152 136.841-94.4824Q135.498-95.8496 133.105-95.8496Q131.982-95.8496 130.64-95.5322Q129.297-95.2148 127.783-94.6289L17.041-52.2949Q13.623-51.0254 11.6455-49.0723Q9.66797-47.1191 9.66797-44.4336Q9.66797-41.2109 11.8652-39.624Q14.0625-38.0371 18.0176-36.8164L65.3809-23.0469L79.1504 24.0723Q80.3223 28.125 81.9336 30.4199Q83.5449 32.7148 86.8164 32.7148ZM67.2363-29.3457L20.8984-43.0664Q19.1895-43.5547 18.6768-43.9453Q18.1641-44.3359 18.1641-44.873Q18.1641-45.5078 18.6279-45.9717Q19.0918-46.4355 20.459-46.9238L118.311-84.1309Q120.801-85.1074 123.169-86.2061Q125.537-87.3047 127.539-88.2324Q126.221-87.207 124.609-85.9131Q122.998-84.6191 121.46-83.3252Q119.922-82.0312 118.896-81.0059ZM87.3047 24.2676Q86.7188 24.2676 86.3037 23.7061Q85.8887 23.1445 85.4004 21.5332L71.6309-24.8535L123.389-76.5625Q124.365-77.4902 125.684-79.0527Q127.002-80.6152 128.296-82.251Q129.59-83.8867 130.664-85.2051Q129.736-83.1543 128.638-80.8105Q127.539-78.4668 126.562-75.9766L89.3066 21.9238Q88.8184 23.2422 88.3545 23.7549Q87.8906 24.2676 87.3047 24.2676Z"/>
  </g>
  <g id="Thin-L" transform="matrix(1 0 0 1 780.592 1556)">
   <path d="M85.498 31.3965Q87.6465 31.3965 89.1846 29.9561Q90.7227 28.5156 91.8945 25.4883L134.814-86.9629Q135.205-87.9883 135.376-88.8916Q135.547-89.7949 135.547-90.5762Q135.547-92.4805 134.546-93.4814Q133.545-94.4824 131.641-94.4824Q130.859-94.4824 129.956-94.3115Q129.053-94.1406 128.027-93.75L15.5273-50.7812Q12.5488-49.6582 11.1084-48.1201Q9.66797-46.582 9.66797-44.4336Q9.66797-42.0898 11.2793-40.7471Q12.8906-39.4043 16.4062-38.3301L65.1855-24.1699L79.3945 24.6094Q80.4199 28.0762 81.7627 29.7363Q83.1055 31.3965 85.498 31.3965ZM66.3574-27.9785L17.7734-42.041Q15.4297-42.7246 14.7217-43.2617Q14.0137-43.7988 14.0137-44.5312Q14.0137-45.3125 14.6729-45.9473Q15.332-46.582 17.0898-47.2656L124.658-88.2324Q126.123-88.8184 127.515-89.4287Q128.906-90.0391 129.785-90.4297Q129.102-89.9414 128.003-89.0869Q126.904-88.2324 125.854-87.3779Q124.805-86.5234 124.316-86.0352ZM85.6445 27.0996Q84.8633 27.0996 84.3262 26.3672Q83.7891 25.6348 83.1055 23.3398L68.9941-25.1953L127.1-83.252Q127.539-83.6914 128.394-84.7168Q129.248-85.7422 130.127-86.8408Q131.006-87.9395 131.543-88.6719Q131.201-87.793 130.591-86.4258Q129.98-85.0586 129.395-83.5938L88.3301 23.9258Q87.6465 25.7324 87.0361 26.416Q86.4258 27.0996 85.6445 27.0996Z"/>
  </g>
  <g id="Ultralight-L" transform="matrix(1 0 0 1 484.565 1556)">
   <path d="M84.8633 30.7617Q86.6699 30.7617 88.0127 29.5898Q89.3555 28.418 90.3809 25.6836L133.691-87.793Q133.984-88.5254 134.082-89.209Q134.18-89.8926 134.18-90.4785Q134.18-92.0898 133.35-92.9443Q132.52-93.7988 130.859-93.7988Q130.322-93.7988 129.639-93.7012Q128.955-93.6035 128.174-93.2617L14.7461-50Q12.0117-48.9746 10.8398-47.6318Q9.66797-46.2891 9.66797-44.4336Q9.66797-42.5293 10.9619-41.3086Q12.2559-40.0879 15.625-39.1113L65.1367-24.7559L79.4922 24.8535Q80.4688 28.0762 81.6895 29.4189Q82.9102 30.7617 84.8633 30.7617ZM65.8691-27.2949L16.2109-41.5527Q13.4766-42.334 12.6709-42.9199Q11.8652-43.5059 11.8652-44.3359Q11.8652-45.2637 12.6221-45.9717Q13.3789-46.6797 15.4297-47.4121L127.93-90.332Q128.857-90.7227 129.761-91.0645Q130.664-91.4062 130.908-91.5527Q130.566-91.3086 129.736-90.6738Q128.906-90.0391 128.101-89.4043Q127.295-88.7695 127.1-88.5742ZM84.7656 28.5645Q83.9355 28.5645 83.3252 27.7344Q82.7148 26.9043 81.9336 24.3164L67.5781-25.3906L129.004-86.7188Q129.199-86.8164 129.785-87.5977Q130.371-88.3789 131.03-89.209Q131.689-90.0391 132.031-90.4297Q131.934-90.1367 131.567-89.3066Q131.201-88.4766 130.811-87.5L87.793 25Q87.0605 27.002 86.3525 27.7832Q85.6445 28.5645 84.7656 28.5645Z"/>
  </g>
  <g id="Black-M" transform="matrix(1 0 0 1 2869.31 1126)">
   <path d="M71.5332 21.6797Q75.1465 21.6797 77.5879 19.4824Q80.0293 17.2852 81.3965 13.7207L114.648-73.4375Q115.186-74.8535 115.454-76.1475Q115.723-77.4414 115.723-78.5645Q115.723-82.1777 113.525-84.3506Q111.328-86.5234 107.715-86.5234Q106.543-86.5234 105.249-86.2793Q103.955-86.0352 102.588-85.498L15.4297-52.1973Q11.8652-50.8789 9.66797-48.4375Q7.4707-45.9961 7.4707-42.3828Q7.4707-38.3301 9.98535-36.0352Q12.5-33.7402 16.5039-32.6172L51.5625-22.3633L61.7188 12.5488Q62.8418 16.5527 65.1611 19.1162Q67.4805 21.6797 71.5332 21.6797ZM56.9824-37.7441L40.0879-42.9199Q39.8438-42.9688 39.7217-43.1396Q39.5996-43.3105 39.5996-43.5059Q39.5996-43.7012 39.6973-43.8721Q39.7949-44.043 39.9902-44.0918L65.3809-54.5898Q69.4336-56.25 73.7549-58.0811Q78.0762-59.9121 83.8379-62.5Q80.2734-59.668 76.3916-56.3232Q72.5098-52.9785 69.3848-49.9023ZM72.7051-10.4492Q72.4609-10.4492 72.3389-10.5957Q72.2168-10.7422 72.1191-10.9375L66.8945-27.7832L79.1016-40.1855Q81.9336-43.1641 85.4492-47.2168Q88.9648-51.2695 91.6992-54.6875Q89.0625-48.9258 87.2314-44.6045Q85.4004-40.2832 83.7402-36.2305L73.2422-10.8887Q73.1934-10.6934 73.0469-10.5713Q72.9004-10.4492 72.7051-10.4492Z"/>
  </g>
  <g id="Heavy-M" transform="matrix(1 0 0 1 2573.31 1126)">
   <path d="M70.8496 20.9961Q74.2188 20.9961 76.5381 18.8232Q78.8574 16.6504 80.2246 13.0859L113.184-73.2422Q113.721-74.707 114.014-76.0498Q114.307-77.3926 114.307-78.5156Q114.307-81.8359 112.305-83.8379Q110.303-85.8398 106.982-85.8398Q105.811-85.8398 104.468-85.5469Q103.125-85.2539 101.66-84.7168L15.2832-51.6602Q11.8164-50.3906 9.64355-48.0713Q7.4707-45.752 7.4707-42.3828Q7.4707-38.4766 9.93652-36.377Q12.4023-34.2773 16.3086-33.1543L51.3672-22.9004L61.5723 12.0117Q62.6953 15.918 64.8193 18.457Q66.9434 20.9961 70.8496 20.9961ZM56.0547-36.377L35.2051-42.7734Q34.8633-42.8711 34.7168-43.042Q34.5703-43.2129 34.5703-43.4082Q34.5703-43.6035 34.6924-43.7988Q34.8145-43.9941 35.1074-44.0918L70.0684-58.0078Q73.877-59.5215 77.832-61.2305Q81.7871-62.9395 86.8164-65.2344Q83.5449-62.5977 79.9316-59.5215Q76.3184-56.4453 73.4375-53.6133ZM71.9238-6.10352Q71.6797-6.10352 71.5332-6.27441Q71.3867-6.44531 71.2891-6.73828L64.8438-27.5391L82.1289-44.9707Q84.7656-47.7051 87.9883-51.4648Q91.2109-55.2246 93.75-58.3984Q91.4062-53.3691 89.6973-49.3896Q87.9883-45.4102 86.4258-41.6016L72.5098-6.68945Q72.4609-6.39648 72.29-6.25Q72.1191-6.10352 71.9238-6.10352Z"/>
  </g>
  <g id="Bold-M" transform="matrix(1 0 0 1 2277.36 1126)">
   <path d="M70.0684 20.2148Q73.1934 20.2148 75.3662 18.0664Q77.5391 15.918 78.9062 12.4023L111.523-72.998Q112.109-74.5605 112.427-75.9277Q112.744-77.2949 112.744-78.5156Q112.744-81.4941 110.962-83.2764Q109.18-85.0586 106.201-85.0586Q104.98-85.0586 103.589-84.7412Q102.197-84.4238 100.684-83.8379L15.0879-51.123Q11.7676-49.8535 9.61914-47.6807Q7.4707-45.5078 7.4707-42.3828Q7.4707-38.6719 9.8877-36.792Q12.3047-34.9121 16.0645-33.7891L51.2207-23.4863L61.4258 11.377Q62.5 15.2344 64.4287 17.7246Q66.3574 20.2148 70.0684 20.2148ZM55.0293-34.9121L29.7363-42.627Q29.2969-42.7246 29.126-42.9199Q28.9551-43.1152 28.9551-43.3105Q28.9551-43.5547 29.1016-43.75Q29.248-43.9453 29.6387-44.043L75.3418-61.8164Q78.8086-63.1836 82.373-64.7705Q85.9375-66.3574 90.1855-68.3105Q87.207-65.918 83.8867-63.1104Q80.5664-60.3027 78.0273-57.7637ZM71.0449-1.2207Q70.8008-1.2207 70.6543-1.44043Q70.5078-1.66016 70.3613-2.05078L62.5977-27.2949L85.498-50.293Q87.8906-52.7832 90.7959-56.2012Q93.7012-59.6191 96.0449-62.5977Q94.0918-58.3008 92.4805-54.7363Q90.8691-51.1719 89.502-47.6562L71.7285-1.95312Q71.6309-1.61133 71.46-1.41602Q71.2891-1.2207 71.0449-1.2207Z"/>
  </g>
  <g id="Semibold-M" transform="matrix(1 0 0 1 1981.21 1126)">
   <path d="M69.5312 19.6777Q72.4609 19.6777 74.5361 17.5537Q76.6113 15.4297 77.9785 11.8652L110.4-72.8027Q110.986-74.4141 111.328-75.8301Q111.67-77.2461 111.67-78.4668Q111.67-81.25 110.034-82.8613Q108.398-84.4727 105.615-84.4727Q104.395-84.4727 102.979-84.1553Q101.562-83.8379 99.9512-83.252L14.9414-50.6836Q11.7188-49.4629 9.59473-47.3877Q7.4707-45.3125 7.4707-42.3828Q7.4707-38.8184 9.83887-37.0605Q12.207-35.3027 15.8691-34.2285L51.0742-23.877L61.2793 10.9375Q62.3535 14.6973 64.1357 17.1875Q65.918 19.6777 69.5312 19.6777ZM54.2969-33.8379L25.9277-42.5293Q25.4395-42.627 25.2686-42.8223Q25.0977-43.0176 25.0977-43.2617Q25.0977-43.457 25.2441-43.6768Q25.3906-43.8965 25.8301-44.043L78.9551-64.4043Q82.2266-65.7227 85.5225-67.2119Q88.8184-68.7012 92.4805-70.4102Q89.6973-68.1641 86.5967-65.5762Q83.4961-62.9883 81.1523-60.6445ZM70.459 2.14844Q70.166 2.14844 70.0195 1.9043Q69.873 1.66016 69.6777 1.2207L60.9863-27.0996L87.793-53.9551Q90.0391-56.2988 92.7246-59.4727Q95.4102-62.6465 97.6074-65.4297Q95.8984-61.7188 94.3848-58.3984Q92.8711-55.0781 91.5527-51.7578L71.1914 1.31836Q71.0449 1.70898 70.8496 1.92871Q70.6543 2.14844 70.459 2.14844Z"/>
  </g>
  <g id="Medium-M" transform="matrix(1 0 0 1 1684.89 1126)">
   <path d="M69.1406 19.2871Q71.9238 19.2871 73.9258 17.1631Q75.9277 15.0391 77.2949 11.5234L109.521-72.6562Q110.156-74.3164 110.498-75.7568Q110.84-77.1973 110.84-78.4668Q110.84-81.0547 109.326-82.5684Q107.812-84.082 105.176-84.082Q104.004-84.082 102.539-83.7402Q101.074-83.3984 99.4141-82.7637L14.8926-50.3906Q11.7188-49.2188 9.59473-47.2168Q7.4707-45.2148 7.4707-42.3828Q7.4707-38.8672 9.81445-37.2559Q12.1582-35.6445 15.7227-34.5215L50.9766-24.2188L61.1816 10.6445Q62.3047 14.3555 63.9404 16.8213Q65.5762 19.2871 69.1406 19.2871ZM53.7598-33.0566L23.0469-42.4316Q22.5586-42.5781 22.3389-42.7734Q22.1191-42.9688 22.1191-43.1641Q22.1191-43.4082 22.3145-43.6279Q22.5098-43.8477 22.9492-43.9941L81.6895-66.4062Q84.8145-67.627 87.8906-69.043Q90.9668-70.459 94.2383-71.9727Q91.6016-69.873 88.6719-67.4316Q85.7422-64.9902 83.4961-62.793ZM69.9707 4.6875Q69.6777 4.6875 69.5312 4.44336Q69.3848 4.19922 69.1895 3.66211L59.8145-27.002L89.5508-56.7383Q91.6992-58.9355 94.1895-61.9385Q96.6797-64.9414 98.7793-67.627Q97.2656-64.3066 95.8252-61.2061Q94.3848-58.1055 93.1641-54.9316L70.752 3.75977Q70.6055 4.24805 70.4102 4.46777Q70.2148 4.6875 69.9707 4.6875Z"/>
  </g>
  <g id="Regular-M" transform="matrix(1 0 0 1 1388.71 1126)">
   <path d="M68.6035 18.75Q71.2402 18.75 73.1445 16.6504Q75.0488 14.5508 76.416 11.0352L108.398-72.5098Q109.033-74.2188 109.399-75.6836Q109.766-77.1484 109.766-78.418Q109.766-80.8105 108.398-82.1777Q107.031-83.5449 104.639-83.5449Q103.418-83.5449 101.929-83.1787Q100.439-82.8125 98.7305-82.1777L14.7461-50Q11.6699-48.8281 9.57031-46.9238Q7.4707-45.0195 7.4707-42.3828Q7.4707-39.0137 9.76562-37.5244Q12.0605-36.0352 15.5762-34.9609L50.8301-24.6094L61.084 10.2051Q62.1582 13.8672 63.6719 16.3086Q65.1855 18.75 68.6035 18.75ZM53.0273-32.0312L19.3359-42.334Q18.75-42.4805 18.5303-42.6758Q18.3105-42.8711 18.3105-43.1152Q18.3105-43.3594 18.5059-43.5791Q18.7012-43.7988 19.2383-43.9941L85.2539-68.9941Q88.1836-70.1172 90.9912-71.46Q93.7988-72.8027 96.5332-74.0723Q94.0918-72.1191 91.3574-69.873Q88.623-67.627 86.6211-65.625ZM69.3848 8.00781Q69.0918 8.00781 68.9209 7.73926Q68.75 7.4707 68.5547 6.88477L58.252-26.8066L91.8457-60.4004Q93.8477-62.4023 96.1182-65.1855Q98.3887-67.9688 100.342-70.459Q99.0723-67.6758 97.7051-64.8438Q96.3379-62.0117 95.2148-59.0332L70.2148 6.98242Q70.0195 7.51953 69.8242 7.76367Q69.6289 8.00781 69.3848 8.00781Z"/>
  </g>
  <g id="Light-M" transform="matrix(1 0 0 1 1092.9 1126)">
   <path d="M67.7246 17.8711Q69.9707 17.8711 71.6064 16.1377Q73.2422 14.4043 74.4629 11.3281L106.934-73.584Q107.422-74.9512 107.69-76.123Q107.959-77.2949 107.959-78.3203Q107.959-80.3223 106.812-81.4697Q105.664-82.6172 103.662-82.6172Q102.686-82.6172 101.489-82.3486Q100.293-82.0801 98.9258-81.5918L13.7207-48.9746Q10.9375-47.9004 9.2041-46.2646Q7.4707-44.6289 7.4707-42.3828Q7.4707-39.5996 9.375-38.2812Q11.2793-36.9629 14.502-35.9863L50.7324-25.3906L61.2305 10.5469Q62.207 13.8672 63.5498 15.8691Q64.8926 17.8711 67.7246 17.8711ZM52.4414-31.1035L17.2363-41.6504Q16.1621-41.9434 15.8203-42.2119Q15.4785-42.4805 15.4785-42.8711Q15.4785-43.2617 15.7959-43.5791Q16.1133-43.8965 16.9922-44.1895L89.5508-71.7773Q91.7969-72.6074 93.9453-73.6328Q96.0938-74.6582 98.0469-75.5371Q96.2402-74.1211 93.9941-72.29Q91.748-70.459 90.2832-69.043ZM68.2129 9.91211Q67.8223 9.91211 67.5781 9.5459Q67.334 9.17969 66.9922 8.10547L56.4453-27.0508L94.3848-64.9414Q95.8008-66.4062 97.6562-68.6768Q99.5117-70.9473 100.977-72.8027Q100.049-70.8008 99.0234-68.6523Q97.998-66.5039 97.1191-64.209L69.5312 8.34961Q69.2383 9.22852 68.9209 9.57031Q68.6035 9.91211 68.2129 9.91211Z"/>
  </g>
  <g id="Thin-M" transform="matrix(1 0 0 1 797.365 1126)">
   <path d="M66.5527 16.6992Q68.3105 16.6992 69.6045 15.4541Q70.8984 14.209 71.8262 11.7188L104.932-74.9512Q105.322-75.9277 105.469-76.6846Q105.615-77.4414 105.615-78.125Q105.615-79.7363 104.761-80.5908Q103.906-81.4453 102.295-81.4453Q101.66-81.4453 100.879-81.2744Q100.098-81.1035 99.1699-80.7617L12.3535-47.6074Q9.96094-46.7285 8.71582-45.4346Q7.4707-44.1406 7.4707-42.3828Q7.4707-40.3809 8.8623-39.2822Q10.2539-38.1836 13.0859-37.3047L50.5371-26.416L61.4746 11.0352Q62.3047 13.8672 63.4033 15.2832Q64.502 16.6992 66.5527 16.6992ZM51.6113-29.9316L14.4531-40.7715Q12.793-41.2109 12.2559-41.6016Q11.7188-41.9922 11.7188-42.5293Q11.7188-43.0664 12.207-43.5303Q12.6953-43.9941 14.0137-44.4824L95.2148-75.4395Q96.582-75.9766 97.876-76.5625Q99.1699-77.1484 100.098-77.5391Q99.1211-76.8066 97.5098-75.5127Q95.8984-74.2188 95.166-73.5352ZM66.6992 12.4512Q66.1621 12.4512 65.7959 11.9385Q65.4297 11.4258 64.9414 9.76562L54.0527-27.3926L97.7051-70.9961Q98.3887-71.6797 99.6826-73.2666Q100.977-74.8535 101.807-75.8789Q101.367-74.9512 100.757-73.6816Q100.146-72.4121 99.6582-71.0449L68.6523 10.2051Q68.2129 11.4746 67.749 11.9629Q67.2852 12.4512 66.6992 12.4512Z"/>
  </g>
  <g id="Ultralight-M" transform="matrix(1 0 0 1 501.264 1126)">
   <path d="M65.9668 16.1133Q67.4805 16.1133 68.5791 15.1123Q69.6777 14.1113 70.5078 11.9629L103.955-75.6836Q104.199-76.416 104.297-76.9775Q104.395-77.5391 104.395-78.0762Q104.395-79.3945 103.687-80.1025Q102.979-80.8105 101.66-80.8105Q101.172-80.8105 100.586-80.7129Q100-80.6152 99.2676-80.3711L11.6699-46.9238Q9.47266-46.0938 8.47168-44.9951Q7.4707-43.8965 7.4707-42.3828Q7.4707-40.7715 8.59375-39.7949Q9.7168-38.8184 12.3535-37.9883L50.4883-26.9531L61.5723 11.2305Q62.3535 13.8672 63.3301 14.9902Q64.3066 16.1133 65.9668 16.1133ZM51.2207-29.2969L13.0371-40.2832Q11.0352-40.8691 10.4248-41.3086Q9.81445-41.748 9.81445-42.334Q9.81445-43.0176 10.376-43.5547Q10.9375-44.0918 12.4512-44.6289L98.1445-77.2949Q99.0234-77.6367 99.8779-78.0029Q100.732-78.3691 101.123-78.5156Q100.586-78.1738 99.3164-77.1729Q98.0469-76.1719 97.6562-75.8301ZM65.918 13.7695Q65.332 13.7695 64.8926 13.1592Q64.4531 12.5488 63.8672 10.5957L52.7832-27.5391L99.4141-74.0723Q99.707-74.4141 100.708-75.6348Q101.709-76.8555 102.197-77.4414Q102.002-77.0996 101.636-76.2695Q101.27-75.4395 100.928-74.5605L68.2129 11.1328Q67.6758 12.6465 67.1387 13.208Q66.6016 13.7695 65.918 13.7695Z"/>
  </g>
  <g id="Black-S" transform="matrix(1 0 0 1 2883.03 696)">
   <path d="M56.2012 9.52148Q59.082 9.52148 61.0107 7.8125Q62.9395 6.10352 64.0137 3.32031L90.1855-65.2832Q90.5762-66.3574 90.7715-67.334Q90.9668-68.3105 90.9668-69.1895Q90.9668-72.0703 89.209-73.8281Q87.4512-75.5859 84.5703-75.5859Q83.6426-75.5859 82.666-75.3906Q81.6895-75.1953 80.6641-74.8047L12.0605-48.6328Q9.27734-47.5586 7.56836-45.6299Q5.85938-43.7012 5.85938-40.8203Q5.85938-37.6465 7.83691-35.8154Q9.81445-33.9844 12.9395-33.0566L40.4297-25.0488L48.3887 2.39258Q49.3164 5.51758 51.1719 7.51953Q53.0273 9.52148 56.2012 9.52148ZM44.873-37.5488L32.7637-41.2598Q32.5684-41.3086 32.4707-41.4307Q32.373-41.5527 32.373-41.748Q32.373-42.0898 32.7148-42.1875L50.0488-49.5117Q53.2715-50.8301 56.7139-52.2949Q60.1562-53.7598 64.8438-55.8594Q62.0117-53.6133 58.9355-50.9277Q55.8594-48.2422 53.3203-45.8008ZM57.1289-17.041Q56.9336-17.041 56.8359-17.1387Q56.7383-17.2363 56.6895-17.4316L52.9297-29.4922L61.1816-37.9395Q63.4766-40.2832 66.2842-43.5303Q69.0918-46.7773 71.2402-49.4629Q69.1406-44.7754 67.6758-41.333Q66.2109-37.8906 64.8926-34.668L57.5684-17.3828Q57.4707-17.041 57.1289-17.041Z"/>
  </g>
  <g id="Heavy-S" transform="matrix(1 0 0 1 2586.81 696)">
   <path d="M55.7129 9.0332Q58.4473 9.0332 60.3027 7.2998Q62.1582 5.56641 63.2812 2.73438L89.1113-64.9414Q89.5508-66.1621 89.7705-67.2119Q89.9902-68.2617 89.9902-69.1895Q89.9902-71.875 88.3789-73.4863Q86.7676-75.0977 84.082-75.0977Q83.1055-75.0977 82.0557-74.8779Q81.0059-74.6582 79.8828-74.2188L12.0605-48.3398Q9.32617-47.2656 7.59277-45.4102Q5.85938-43.5547 5.85938-40.8203Q5.85938-37.6953 7.83691-36.0107Q9.81445-34.3262 12.8906-33.3984L40.2832-25.3906L48.2422 1.85547Q49.1699 4.98047 50.8789 7.00684Q52.5879 9.0332 55.7129 9.0332ZM44.1406-36.5234L28.8574-41.2109Q28.6621-41.3086 28.5645-41.4062Q28.4668-41.5039 28.4668-41.6992Q28.4668-42.041 28.8086-42.1387L53.5156-52.0508Q56.5918-53.3203 59.8145-54.7119Q63.0371-56.1035 67.2363-58.0078Q64.5508-55.8594 61.6211-53.3447Q58.6914-50.8301 56.3477-48.5352ZM56.5918-13.5742Q56.3965-13.5742 56.2988-13.6719Q56.2012-13.7695 56.1523-13.9648L51.416-29.248L63.4277-41.4551Q65.625-43.6523 68.2373-46.7041Q70.8496-49.7559 72.9004-52.3438Q71.0449-48.1445 69.6289-44.9219Q68.2129-41.6992 66.9434-38.623L57.0312-13.9648Q56.9336-13.5742 56.5918-13.5742Z"/>
  </g>
  <g id="Bold-S" transform="matrix(1 0 0 1 2290.64 696)">
   <path d="M55.1758 8.49609Q57.7637 8.49609 59.5459 6.73828Q61.3281 4.98047 62.4512 2.09961L87.9395-64.5996Q88.4277-65.918 88.6719-67.041Q88.916-68.1641 88.916-69.1895Q88.916-71.6309 87.4512-73.0957Q85.9863-74.5605 83.5449-74.5605Q82.5195-74.5605 81.3721-74.3164Q80.2246-74.0723 79.0039-73.584L12.0605-47.998Q9.375-46.9727 7.61719-45.1904Q5.85938-43.4082 5.85938-40.8203Q5.85938-37.793 7.83691-36.2549Q9.81445-34.7168 12.8418-33.7891L40.1855-25.7812L48.0957 1.31836Q49.0234 4.39453 50.5859 6.44531Q52.1484 8.49609 55.1758 8.49609ZM43.3594-35.3516L24.4629-41.2109Q24.2676-41.2598 24.1699-41.3818Q24.0723-41.5039 24.0723-41.6504Q24.0723-41.9922 24.4629-42.0898L57.4219-54.9316Q60.3027-56.1035 63.2812-57.4463Q66.2598-58.7891 69.873-60.4004Q67.3828-58.3984 64.6484-56.0791Q61.9141-53.7598 59.7168-51.6113ZM56.0059-9.66797Q55.8594-9.66797 55.7617-9.79004Q55.6641-9.91211 55.5664-10.1562L49.707-29.0039L65.9668-45.3613Q68.0176-47.4609 70.4346-50.293Q72.8516-53.125 74.8047-55.5664Q73.1445-51.9531 71.8018-48.9746Q70.459-45.9961 69.2871-43.0176L56.4453-10.1074Q56.2988-9.66797 56.0059-9.66797Z"/>
  </g>
  <g id="Semibold-S" transform="matrix(1 0 0 1 1994.29 696)">
   <path d="M54.7852 8.10547Q57.2266 8.10547 58.96 6.34766Q60.6934 4.58984 61.8652 1.66016L87.1094-64.3555Q87.5977-65.7227 87.8906-66.9189Q88.1836-68.1152 88.1836-69.1406Q88.1836-71.4355 86.792-72.8027Q85.4004-74.1699 83.1543-74.1699Q82.0801-74.1699 80.8838-73.9014Q79.6875-73.6328 78.3691-73.0957L12.0605-47.7539Q9.42383-46.7285 7.6416-45.0195Q5.85938-43.3105 5.85938-40.8203Q5.85938-37.793 7.83691-36.377Q9.81445-34.9609 12.793-34.0332L40.0391-26.0254L47.998 0.878906Q48.877 4.00391 50.3418 6.05469Q51.8066 8.10547 54.7852 8.10547ZM42.8223-34.5703L21.4355-41.1621Q21.1914-41.2598 21.0938-41.3574Q20.9961-41.4551 20.9961-41.6016Q20.9961-41.9434 21.4355-42.041L60.0586-56.8848Q62.8418-58.0078 65.6738-59.3018Q68.5059-60.5957 71.6797-62.0605Q69.2871-60.1074 66.6748-57.9102Q64.0625-55.7129 62.0605-53.7109ZM55.6152-6.98242Q55.4199-6.98242 55.3223-7.10449Q55.2246-7.22656 55.1758-7.4707L48.5352-28.8086L67.7246-48.0469Q69.6777-50.0488 71.9238-52.7344Q74.1699-55.4199 76.0742-57.8125Q74.6094-54.5898 73.291-51.7578Q71.9727-48.9258 70.8984-46.0449L56.0547-7.4707Q55.8594-6.98242 55.6152-6.98242Z"/>
  </g>
  <g id="Medium-S" transform="matrix(1 0 0 1 1697.87 696)">
   <path d="M54.541 7.86133Q56.8848 7.86133 58.5693 6.05469Q60.2539 4.24805 61.4258 1.31836L86.4746-64.1602Q87.0117-65.5762 87.3047-66.8213Q87.5977-68.0664 87.5977-69.1406Q87.5977-71.2891 86.3037-72.6074Q85.0098-73.9258 82.8613-73.9258Q81.7383-73.9258 80.5176-73.6084Q79.2969-73.291 77.8809-72.7539L12.0605-47.5586Q9.42383-46.5332 7.6416-44.873Q5.85938-43.2129 5.85938-40.8203Q5.85938-37.8418 7.83691-36.499Q9.81445-35.1562 12.793-34.2773L39.9902-26.2695L47.9004 0.585938Q48.7793 3.66211 50.1709 5.76172Q51.5625 7.86133 54.541 7.86133ZM42.3828-33.9355L19.1406-41.1621Q18.8965-41.2109 18.7988-41.333Q18.7012-41.4551 18.7012-41.5527Q18.7012-41.8945 19.1406-42.041L62.1094-58.3984Q64.7949-59.4238 67.4805-60.6934Q70.166-61.9629 73.0957-63.3301Q70.8008-61.4258 68.2861-59.3506Q65.7715-57.2754 63.8184-55.3223ZM55.2734-4.93164Q55.127-4.93164 55.0293-5.07812Q54.9316-5.22461 54.834-5.46875L47.6562-28.7109L69.043-50.0488Q70.9473-52.002 73.0713-54.5654Q75.1953-57.1289 77.0508-59.4727Q75.6836-56.543 74.4141-53.833Q73.1445-51.123 72.1191-48.3398L55.7129-5.46875Q55.5664-4.93164 55.2734-4.93164Z"/>
  </g>
  <g id="Regular-S" transform="matrix(1 0 0 1 1401.53 696)">
   <path d="M54.1504 7.4707Q56.3965 7.4707 58.0322 5.66406Q59.668 3.85742 60.8398 0.878906L85.6445-63.916Q86.2305-65.4297 86.5479-66.7236Q86.8652-68.0176 86.8652-69.1406Q86.8652-71.1426 85.6689-72.3389Q84.4727-73.5352 82.4707-73.5352Q81.3477-73.5352 80.0537-73.2178Q78.7598-72.9004 77.2949-72.3145L12.0605-47.3145Q9.47266-46.3379 7.66602-44.7266Q5.85938-43.1152 5.85938-40.8203Q5.85938-37.8906 7.83691-36.6455Q9.81445-35.4004 12.7441-34.5215L39.8926-26.5137L47.8027 0.195312Q48.6816 3.27148 49.9512 5.37109Q51.2207 7.4707 54.1504 7.4707ZM41.8457-33.1543L16.1621-41.1133Q15.918-41.2109 15.8203-41.3086Q15.7227-41.4062 15.7227-41.5039Q15.7227-41.8457 16.1621-41.9922L64.7461-60.3516Q67.334-61.3281 69.8486-62.5488Q72.3633-63.7695 74.9023-64.9414Q72.7051-63.1348 70.3125-61.1816Q67.9199-59.2285 66.1133-57.4219ZM54.8828-2.29492Q54.7363-2.29492 54.6387-2.44141Q54.541-2.58789 54.4434-2.83203L46.4844-28.5156L70.752-52.7344Q72.5586-54.5898 74.5605-57.0068Q76.5625-59.4238 78.3203-61.6699Q77.1484-59.1309 75.9033-56.5918Q74.6582-54.0527 73.6816-51.3672L55.3223-2.83203Q55.127-2.29492 54.8828-2.29492Z"/>
  </g>
  <g id="Light-S" transform="matrix(1 0 0 1 1105.6 696)">
   <path d="M53.3691 6.68945Q55.2734 6.68945 56.665 5.2002Q58.0566 3.71094 59.082 1.12305L84.3262-64.8438Q84.8145-66.0645 85.0586-67.0898Q85.3027-68.1152 85.3027-69.043Q85.3027-70.752 84.3018-71.7529Q83.3008-72.7539 81.5918-72.7539Q80.7129-72.7539 79.6631-72.5098Q78.6133-72.2656 77.4414-71.7773L11.1328-46.3867Q8.83789-45.5078 7.34863-44.1406Q5.85938-42.7734 5.85938-40.8203Q5.85938-38.4277 7.49512-37.3291Q9.13086-36.2305 11.7676-35.4004L39.7949-27.1973L47.9492 0.488281Q48.7305 3.27148 49.8535 4.98047Q50.9766 6.68945 53.3691 6.68945ZM41.3086-32.373L14.3066-40.5273Q13.6719-40.7227 13.4521-40.8936Q13.2324-41.0645 13.2324-41.3086Q13.2324-41.8457 14.1602-42.1875L68.5059-62.793Q70.5566-63.5742 72.4854-64.4775Q74.4141-65.3809 76.2695-66.2598Q74.6094-64.9414 72.6562-63.3545Q70.7031-61.7676 69.3848-60.4004ZM53.9062-0.585938Q53.6133-0.585938 53.4424-0.830078Q53.2715-1.07422 53.0762-1.70898L44.873-28.7109L72.998-56.7871Q74.3164-58.1055 75.9277-60.083Q77.5391-62.0605 78.8574-63.7207Q78.0273-61.9141 77.0752-59.9609Q76.123-58.0078 75.3418-55.957L54.7363-1.61133Q54.3457-0.585938 53.9062-0.585938Z"/>
  </g>
  <g id="Thin-S" transform="matrix(1 0 0 1 809.938 696)">
   <path d="M52.3438 5.66406Q53.8086 5.66406 54.8828 4.61426Q55.957 3.56445 56.7383 1.46484L82.5684-66.1133Q82.9102-66.8945 83.0566-67.6025Q83.2031-68.3105 83.2031-68.8965Q83.2031-70.2148 82.4707-70.9473Q81.7383-71.6797 80.4199-71.6797Q79.834-71.6797 79.1504-71.5332Q78.4668-71.3867 77.6367-71.0449L9.96094-45.2148Q8.00781-44.4336 6.93359-43.3594Q5.85938-42.2852 5.85938-40.8203Q5.85938-39.0625 7.03125-38.1836Q8.20312-37.3047 10.5469-36.5723L39.6484-28.125L48.0957 0.878906Q48.7793 3.22266 49.707 4.44336Q50.6348 5.66406 52.3438 5.66406ZM40.5762-31.2988L11.8164-39.6973Q10.6445-40.0391 10.2539-40.332Q9.86328-40.625 9.86328-41.0156Q9.86328-41.7969 11.5234-42.4316L73.5352-66.0645Q74.8047-66.5039 75.9521-67.041Q77.0996-67.5781 78.0273-68.0176Q77.1484-67.2852 75.7568-66.1865Q74.3652-65.0879 73.6816-64.4043ZM52.5391 1.66016Q52.1484 1.66016 51.8799 1.26953Q51.6113 0.878906 51.2207-0.244141L42.7734-29.0039L75.9277-62.1094Q76.6113-62.793 77.71-64.1602Q78.8086-65.5273 79.5898-66.5039Q79.1504-65.5762 78.6133-64.4287Q78.0762-63.2812 77.5879-62.0117L53.9551 0Q53.3203 1.66016 52.5391 1.66016Z"/>
  </g>
  <g id="Ultralight-S" transform="matrix(1 0 0 1 513.764 696)">
   <path d="M51.8555 5.17578Q53.0762 5.17578 53.9795 4.32129Q54.8828 3.4668 55.5664 1.66016L81.6895-66.748Q81.9336-67.334 82.0312-67.8467Q82.1289-68.3594 82.1289-68.7988Q82.1289-69.9219 81.5186-70.5322Q80.9082-71.1426 79.834-71.1426Q79.3945-71.1426 78.8818-71.0449Q78.3691-70.9473 77.7344-70.7031L9.32617-44.5801Q7.56836-43.8965 6.71387-42.9932Q5.85938-42.0898 5.85938-40.8203Q5.85938-39.4531 6.78711-38.6475Q7.71484-37.8418 9.86328-37.207L39.5508-28.6133L48.1934 1.12305Q48.8281 3.22266 49.6338 4.19922Q50.4395 5.17578 51.8555 5.17578ZM40.2344-30.7617L10.5957-39.3066Q9.13086-39.6973 8.66699-40.0635Q8.20312-40.4297 8.20312-40.8691Q8.20312-41.7969 10.1562-42.5293L76.0742-67.7246Q76.9531-68.0176 77.7344-68.335Q78.5156-68.6523 78.9551-68.8965Q78.418-68.5059 77.3193-67.6514Q76.2207-66.7969 75.8789-66.4062ZM51.9043 2.7832Q51.416 2.7832 51.0742 2.34375Q50.7324 1.9043 50.293 0.488281L41.6992-29.1504L77.4414-64.8438Q77.7832-65.1855 78.6377-66.2598Q79.4922-67.334 79.9316-67.8711Q79.7363-67.4316 79.3945-66.6992Q79.0527-65.9668 78.7109-65.1367L53.5645 0.830078Q52.832 2.7832 51.9043 2.7832Z"/>
  </g>
 </g>
</svg>
