<?xml version="1.0" encoding="UTF-8"?>
<!--Generator: Apple Native CoreSVG 175-->
<!DOCTYPE svg
PUBLIC "-//W3C//DTD SVG 1.1//EN"
       "http://www.w3.org/Graphics/SVG/1.1/DTD/svg11.dtd">
<svg version="1.1" xmlns="http://www.w3.org/2000/svg" xmlns:xlink="http://www.w3.org/1999/xlink" width="3300" height="2200">
 <!--glyph: "uni10091E.medium", point size: 100.0, font version: "17.0d11e1", template writer version: "65.1"-->
 <g id="Notes">
  <rect height="2200" id="artboard" style="fill:white;opacity:1" width="3300" x="0" y="0"/>
  <line style="fill:none;stroke:black;opacity:1;stroke-width:0.5;" x1="263" x2="3036" y1="292" y2="292"/>
  <text style="stroke:none;fill:black;font-family:sans-serif;font-size:13;font-weight:bold;" transform="matrix(1 0 0 1 263 322)">Weight/Scale Variations</text>
  <text style="stroke:none;fill:black;font-family:sans-serif;font-size:13;text-anchor:middle;" transform="matrix(1 0 0 1 559.711 322)">Ultralight</text>
  <text style="stroke:none;fill:black;font-family:sans-serif;font-size:13;text-anchor:middle;" transform="matrix(1 0 0 1 856.422 322)">Thin</text>
  <text style="stroke:none;fill:black;font-family:sans-serif;font-size:13;text-anchor:middle;" transform="matrix(1 0 0 1 1153.13 322)">Light</text>
  <text style="stroke:none;fill:black;font-family:sans-serif;font-size:13;text-anchor:middle;" transform="matrix(1 0 0 1 1449.84 322)">Regular</text>
  <text style="stroke:none;fill:black;font-family:sans-serif;font-size:13;text-anchor:middle;" transform="matrix(1 0 0 1 1746.56 322)">Medium</text>
  <text style="stroke:none;fill:black;font-family:sans-serif;font-size:13;text-anchor:middle;" transform="matrix(1 0 0 1 2043.27 322)">Semibold</text>
  <text style="stroke:none;fill:black;font-family:sans-serif;font-size:13;text-anchor:middle;" transform="matrix(1 0 0 1 2339.98 322)">Bold</text>
  <text style="stroke:none;fill:black;font-family:sans-serif;font-size:13;text-anchor:middle;" transform="matrix(1 0 0 1 2636.69 322)">Heavy</text>
  <text style="stroke:none;fill:black;font-family:sans-serif;font-size:13;text-anchor:middle;" transform="matrix(1 0 0 1 2933.4 322)">Black</text>
  <line style="fill:none;stroke:black;opacity:1;stroke-width:0.5;" x1="263" x2="3036" y1="1903" y2="1903"/>
  <g transform="matrix(1 0 0 1 263 1933)">
   <path d="M9.24805 0.830078Q10.8691 0.830078 12.2949 0.214844Q13.7207-0.400391 14.8096-1.49414Q15.8984-2.58789 16.5186-4.01367Q17.1387-5.43945 17.1387-7.05078Q17.1387-8.66211 16.5186-10.0879Q15.8984-11.5137 14.8047-12.6074Q13.7109-13.7012 12.2852-14.3164Q10.8594-14.9316 9.23828-14.9316Q7.62695-14.9316 6.20117-14.3164Q4.77539-13.7012 3.69141-12.6074Q2.60742-11.5137 1.9873-10.0879Q1.36719-8.66211 1.36719-7.05078Q1.36719-5.43945 1.9873-4.01367Q2.60742-2.58789 3.69629-1.49414Q4.78516-0.400391 6.21094 0.214844Q7.63672 0.830078 9.24805 0.830078ZM9.24805-0.654297Q7.91992-0.654297 6.7627-1.14746Q5.60547-1.64062 4.73145-2.51953Q3.85742-3.39844 3.36426-4.56055Q2.87109-5.72266 2.87109-7.05078Q2.87109-8.37891 3.35938-9.54102Q3.84766-10.7031 4.72168-11.582Q5.5957-12.4609 6.75293-12.9541Q7.91016-13.4473 9.23828-13.4473Q10.5762-13.4473 11.7334-12.9541Q12.8906-12.4609 13.7695-11.582Q14.6484-10.7031 15.1465-9.54102Q15.6445-8.37891 15.6445-7.05078Q15.6445-5.72266 15.1514-4.56055Q14.6582-3.39844 13.7842-2.51953Q12.9102-1.64062 11.748-1.14746Q10.5859-0.654297 9.24805-0.654297ZM5.6543-7.05078Q5.6543-6.72852 5.85938-6.52832Q6.06445-6.32812 6.40625-6.32812L8.51562-6.32812L8.51562-4.20898Q8.51562-3.88672 8.71094-3.67676Q8.90625-3.4668 9.23828-3.4668Q9.56055-3.4668 9.77051-3.67676Q9.98047-3.88672 9.98047-4.20898L9.98047-6.32812L12.0898-6.32812Q12.4219-6.32812 12.627-6.52832Q12.832-6.72852 12.832-7.05078Q12.832-7.38281 12.627-7.58789Q12.4219-7.79297 12.0898-7.79297L9.98047-7.79297L9.98047-9.90234Q9.98047-10.2344 9.77051-10.4443Q9.56055-10.6543 9.23828-10.6543Q8.90625-10.6543 8.71094-10.4443Q8.51562-10.2344 8.51562-9.90234L8.51562-7.79297L6.40625-7.79297Q6.06445-7.79297 5.85938-7.58789Q5.6543-7.38281 5.6543-7.05078Z"/>
  </g>
  <g transform="matrix(1 0 0 1 281.867 1933)">
   <path d="M11.709 2.91016Q13.75 2.91016 15.5518 2.12891Q17.3535 1.34766 18.7305-0.0292969Q20.1074-1.40625 20.8887-3.20801Q21.6699-5.00977 21.6699-7.05078Q21.6699-9.0918 20.8887-10.8936Q20.1074-12.6953 18.7305-14.0723Q17.3535-15.4492 15.5469-16.2305Q13.7402-17.0117 11.6992-17.0117Q9.6582-17.0117 7.85645-16.2305Q6.05469-15.4492 4.68262-14.0723Q3.31055-12.6953 2.5293-10.8936Q1.74805-9.0918 1.74805-7.05078Q1.74805-5.00977 2.5293-3.20801Q3.31055-1.40625 4.6875-0.0292969Q6.06445 1.34766 7.86621 2.12891Q9.66797 2.91016 11.709 2.91016ZM11.709 1.25Q9.98047 1.25 8.47656 0.605469Q6.97266-0.0390625 5.83496-1.17676Q4.69727-2.31445 4.05762-3.81836Q3.41797-5.32227 3.41797-7.05078Q3.41797-8.7793 4.05762-10.2832Q4.69727-11.7871 5.83008-12.9297Q6.96289-14.0723 8.4668-14.7119Q9.9707-15.3516 11.6992-15.3516Q13.4277-15.3516 14.9316-14.7119Q16.4355-14.0723 17.5781-12.9297Q18.7207-11.7871 19.3652-10.2832Q20.0098-8.7793 20.0098-7.05078Q20.0098-5.32227 19.3701-3.81836Q18.7305-2.31445 17.5928-1.17676Q16.4551-0.0390625 14.9463 0.605469Q13.4375 1.25 11.709 1.25ZM7.17773-7.05078Q7.17773-6.69922 7.41211-6.47461Q7.64648-6.25 8.01758-6.25L10.8887-6.25L10.8887-3.36914Q10.8887-2.99805 11.1133-2.76855Q11.3379-2.53906 11.6895-2.53906Q12.0605-2.53906 12.29-2.76855Q12.5195-2.99805 12.5195-3.36914L12.5195-6.25L15.4004-6.25Q15.7715-6.25 16.001-6.47461Q16.2305-6.69922 16.2305-7.05078Q16.2305-7.42188 16.001-7.65137Q15.7715-7.88086 15.4004-7.88086L12.5195-7.88086L12.5195-10.752Q12.5195-11.1328 12.29-11.3623Q12.0605-11.5918 11.6895-11.5918Q11.3379-11.5918 11.1133-11.3574Q10.8887-11.123 10.8887-10.752L10.8887-7.88086L8.01758-7.88086Q7.63672-7.88086 7.40723-7.65137Q7.17773-7.42188 7.17773-7.05078Z"/>
  </g>
  <g transform="matrix(1 0 0 1 305.646 1933)">
   <path d="M14.9707 5.66406Q17.0605 5.66406 18.96 5.01465Q20.8594 4.36523 22.4512 3.19336Q24.043 2.02148 25.2197 0.429688Q26.3965-1.16211 27.0459-3.06641Q27.6953-4.9707 27.6953-7.05078Q27.6953-9.14062 27.0459-11.04Q26.3965-12.9395 25.2197-14.5312Q24.043-16.123 22.4512-17.2998Q20.8594-18.4766 18.9551-19.126Q17.0508-19.7754 14.9609-19.7754Q12.8711-19.7754 10.9717-19.126Q9.07227-18.4766 7.48535-17.2998Q5.89844-16.123 4.72168-14.5312Q3.54492-12.9395 2.90039-11.04Q2.25586-9.14062 2.25586-7.05078Q2.25586-4.9707 2.90527-3.06641Q3.55469-1.16211 4.72656 0.429688Q5.89844 2.02148 7.49023 3.19336Q9.08203 4.36523 10.9814 5.01465Q12.8809 5.66406 14.9707 5.66406ZM14.9707 3.84766Q13.1641 3.84766 11.5283 3.2959Q9.89258 2.74414 8.53516 1.74805Q7.17773 0.751953 6.17676-0.610352Q5.17578-1.97266 4.62891-3.6084Q4.08203-5.24414 4.08203-7.05078Q4.08203-8.86719 4.62891-10.5029Q5.17578-12.1387 6.17188-13.501Q7.16797-14.8633 8.52539-15.8594Q9.88281-16.8555 11.5186-17.4023Q13.1543-17.9492 14.9609-17.9492Q16.7773-17.9492 18.4131-17.4023Q20.0488-16.8555 21.4111-15.8594Q22.7734-14.8633 23.7695-13.501Q24.7656-12.1387 25.3174-10.5029Q25.8691-8.86719 25.8691-7.05078Q25.8789-5.24414 25.332-3.6084Q24.7852-1.97266 23.7842-0.610352Q22.7832 0.751953 21.4209 1.74805Q20.0586 2.74414 18.4229 3.2959Q16.7871 3.84766 14.9707 3.84766ZM9.19922-7.05078Q9.19922-6.66992 9.45801-6.4209Q9.7168-6.17188 10.1172-6.17188L14.0625-6.17188L14.0625-2.2168Q14.0625-1.81641 14.3115-1.55762Q14.5605-1.29883 14.9512-1.29883Q15.3516-1.29883 15.6104-1.55273Q15.8691-1.80664 15.8691-2.2168L15.8691-6.17188L19.8242-6.17188Q20.2246-6.17188 20.4785-6.4209Q20.7324-6.66992 20.7324-7.05078Q20.7324-7.46094 20.4785-7.71484Q20.2246-7.96875 19.8242-7.96875L15.8691-7.96875L15.8691-11.9141Q15.8691-12.3242 15.6104-12.583Q15.3516-12.8418 14.9512-12.8418Q14.5605-12.8418 14.3115-12.583Q14.0625-12.3242 14.0625-11.9141L14.0625-7.96875L10.1172-7.96875Q9.70703-7.96875 9.45312-7.71484Q9.19922-7.46094 9.19922-7.05078Z"/>
  </g>
  <text style="stroke:none;fill:black;font-family:sans-serif;font-size:13;font-weight:bold;" transform="matrix(1 0 0 1 263 1953)">Design Variations</text>
  <text style="stroke:none;fill:black;font-family:sans-serif;font-size:13;" transform="matrix(1 0 0 1 263 1971)">Symbols are supported in up to nine weights and three scales.</text>
  <text style="stroke:none;fill:black;font-family:sans-serif;font-size:13;" transform="matrix(1 0 0 1 263 1989)">For optimal layout with text and other symbols, vertically align</text>
  <text style="stroke:none;fill:black;font-family:sans-serif;font-size:13;" transform="matrix(1 0 0 1 263 2007)">symbols with the adjacent text.</text>
  <line style="fill:none;stroke:#00AEEF;stroke-width:0.5;opacity:1.0;" x1="776" x2="776" y1="1919" y2="1933"/>
  <g transform="matrix(1 0 0 1 776 1933)">
   <path d="M3.31055 0.15625Q3.70117 0.15625 3.91602-0.00976562Q4.13086-0.175781 4.26758-0.585938L5.52734-4.0332L11.2891-4.0332L12.5488-0.585938Q12.6855-0.175781 12.9004-0.00976562Q13.1152 0.15625 13.4961 0.15625Q13.8867 0.15625 14.1162-0.0585938Q14.3457-0.273438 14.3457-0.644531Q14.3457-0.869141 14.2383-1.17188L9.6582-13.3691Q9.48242-13.8184 9.17969-14.043Q8.87695-14.2676 8.4082-14.2676Q7.5-14.2676 7.17773-13.3789L2.59766-1.16211Q2.49023-0.859375 2.49023-0.634766Q2.49023-0.263672 2.70996-0.0537109Q2.92969 0.15625 3.31055 0.15625ZM6.00586-5.51758L8.37891-12.0898L8.42773-12.0898L10.8008-5.51758Z"/>
  </g>
  <line style="fill:none;stroke:#00AEEF;stroke-width:0.5;opacity:1.0;" x1="793.197" x2="793.197" y1="1919" y2="1933"/>
  <text style="stroke:none;fill:black;font-family:sans-serif;font-size:13;font-weight:bold;" transform="matrix(1 0 0 1 776 1953)">Margins</text>
  <text style="stroke:none;fill:black;font-family:sans-serif;font-size:13;" transform="matrix(1 0 0 1 776 1971)">Leading and trailing margins on the left and right side of each symbol</text>
  <text style="stroke:none;fill:black;font-family:sans-serif;font-size:13;" transform="matrix(1 0 0 1 776 1989)">can be adjusted by modifying the x-location of the margin guidelines.</text>
  <text style="stroke:none;fill:black;font-family:sans-serif;font-size:13;" transform="matrix(1 0 0 1 776 2007)">Modifications are automatically applied proportionally to all</text>
  <text style="stroke:none;fill:black;font-family:sans-serif;font-size:13;" transform="matrix(1 0 0 1 776 2025)">scales and weights.</text>
  <g transform="matrix(1 0 0 1 1289 1933)">
   <path d="M2.8418 1.86523L4.54102 3.57422Q5.18555 4.22852 5.90332 4.17969Q6.62109 4.13086 7.31445 3.35938L18.0078-8.42773L17.041-9.4043L6.42578 2.27539Q6.16211 2.57812 5.89355 2.61719Q5.625 2.65625 5.27344 2.30469L4.10156 1.14258Q3.75 0.791016 3.79395 0.522461Q3.83789 0.253906 4.14062-0.0195312L15.6152-10.8203L14.6387-11.7871L3.04688-0.898438Q2.30469-0.214844 2.25098 0.498047Q2.19727 1.21094 2.8418 1.86523ZM9.25781-16.3281Q8.94531-16.0254 8.90625-15.6348Q8.86719-15.2441 9.04297-14.9512Q9.21875-14.6777 9.55566-14.541Q9.89258-14.4043 10.3809-14.5215Q11.4746-14.7754 12.5977-14.7314Q13.7207-14.6875 14.7949-13.9844L14.209-12.5293Q13.9551-11.9043 14.0674-11.4404Q14.1797-10.9766 14.5801-10.5664L16.875-8.25195Q17.2363-7.88086 17.5781-7.82227Q17.9199-7.76367 18.3398-7.8418L19.4043-8.03711L20.0684-7.36328L20.0293-6.80664Q20-6.43555 20.1221-6.12305Q20.2441-5.81055 20.6055-5.44922L21.3672-4.70703Q21.7285-4.3457 22.1533-4.33105Q22.5781-4.31641 22.9297-4.66797L25.8398-7.58789Q26.1914-7.93945 26.1816-8.35449Q26.1719-8.76953 25.8105-9.13086L25.0391-9.89258Q24.6875-10.2539 24.3799-10.3857Q24.0723-10.5176 23.7109-10.4883L23.1348-10.4395L22.4902-11.0742L22.7344-12.1973Q22.832-12.6172 22.6953-12.9834Q22.5586-13.3496 22.1191-13.7891L19.9219-15.9766Q18.6719-17.2168 17.2607-17.8369Q15.8496-18.457 14.4189-18.4814Q12.9883-18.5059 11.665-17.959Q10.3418-17.4121 9.25781-16.3281ZM10.752-15.957Q11.6602-16.6211 12.7002-16.9043Q13.7402-17.1875 14.8047-17.085Q15.8691-16.9824 16.8701-16.5137Q17.8711-16.0449 18.7012-15.2051L21.1328-12.793Q21.3086-12.6172 21.3525-12.4512Q21.3965-12.2852 21.3379-12.0312L21.0156-10.5469L22.5195-9.0625L23.5059-9.12109Q23.6914-9.13086 23.7891-9.09668Q23.8867-9.0625 24.0332-8.91602L24.6094-8.33984L22.168-5.89844L21.5918-6.47461Q21.4453-6.62109 21.4062-6.71875Q21.3672-6.81641 21.377-7.01172L21.4453-7.98828L19.9512-9.47266L18.4277-9.21875Q18.1836-9.16992 18.042-9.2041Q17.9004-9.23828 17.7148-9.41406L15.7129-11.416Q15.5176-11.5918 15.4932-11.7529Q15.4688-11.9141 15.5859-12.1875L16.4648-14.2773Q15.293-15.3711 13.8281-15.791Q12.3633-16.2109 10.8398-15.7617Q10.7227-15.7324 10.6885-15.8057Q10.6543-15.8789 10.752-15.957Z"/>
  </g>
  <text style="stroke:none;fill:black;font-family:sans-serif;font-size:13;font-weight:bold;" transform="matrix(1 0 0 1 1289 1953)">Exporting</text>
  <text style="stroke:none;fill:black;font-family:sans-serif;font-size:13;" transform="matrix(1 0 0 1 1289 1971)">Symbols should be outlined when exporting to ensure the</text>
  <text style="stroke:none;fill:black;font-family:sans-serif;font-size:13;" transform="matrix(1 0 0 1 1289 1989)">design is preserved when submitting to Xcode.</text>
  <text id="template-version" style="stroke:none;fill:black;font-family:sans-serif;font-size:13;text-anchor:end;" transform="matrix(1 0 0 1 3036 1933)">Template v.3.0</text>
  <text style="stroke:none;fill:black;font-family:sans-serif;font-size:13;text-anchor:end;" transform="matrix(1 0 0 1 3036 1951)">Requires Xcode 13 or greater</text>
  <text id="descriptive-name" style="stroke:none;fill:black;font-family:sans-serif;font-size:13;text-anchor:end;" transform="matrix(1 0 0 1 3036 1969)">Generated from book.closed</text>
  <text style="stroke:none;fill:black;font-family:sans-serif;font-size:13;text-anchor:end;" transform="matrix(1 0 0 1 3036 1987)">Typeset at 100 points</text>
  <text style="stroke:none;fill:black;font-family:sans-serif;font-size:13;" transform="matrix(1 0 0 1 263 726)">Small</text>
  <text style="stroke:none;fill:black;font-family:sans-serif;font-size:13;" transform="matrix(1 0 0 1 263 1156)">Medium</text>
  <text style="stroke:none;fill:black;font-family:sans-serif;font-size:13;" transform="matrix(1 0 0 1 263 1586)">Large</text>
 </g>
 <g id="Guides">
  <g id="H-reference" style="fill:#27AAE1;stroke:none;" transform="matrix(1 0 0 1 339 696)">
   <path d="M0.976562 0L3.66211 0L29.3457-67.1387L30.0293-67.1387L30.0293-70.459L28.125-70.459ZM11.6699-24.4629L46.9727-24.4629L46.2402-26.709L12.4512-26.709ZM55.127 0L57.7637 0L30.6152-70.459L29.4434-70.459L29.4434-67.1387Z"/>
  </g>
  <line id="Baseline-S" style="fill:none;stroke:#27AAE1;opacity:1;stroke-width:0.5;" x1="263" x2="3036" y1="696" y2="696"/>
  <line id="Capline-S" style="fill:none;stroke:#27AAE1;opacity:1;stroke-width:0.5;" x1="263" x2="3036" y1="625.541" y2="625.541"/>
  <g id="H-reference" style="fill:#27AAE1;stroke:none;" transform="matrix(1 0 0 1 339 1126)">
   <path d="M0.976562 0L3.66211 0L29.3457-67.1387L30.0293-67.1387L30.0293-70.459L28.125-70.459ZM11.6699-24.4629L46.9727-24.4629L46.2402-26.709L12.4512-26.709ZM55.127 0L57.7637 0L30.6152-70.459L29.4434-70.459L29.4434-67.1387Z"/>
  </g>
  <line id="Baseline-M" style="fill:none;stroke:#27AAE1;opacity:1;stroke-width:0.5;" x1="263" x2="3036" y1="1126" y2="1126"/>
  <line id="Capline-M" style="fill:none;stroke:#27AAE1;opacity:1;stroke-width:0.5;" x1="263" x2="3036" y1="1055.54" y2="1055.54"/>
  <g id="H-reference" style="fill:#27AAE1;stroke:none;" transform="matrix(1 0 0 1 339 1556)">
   <path d="M0.976562 0L3.66211 0L29.3457-67.1387L30.0293-67.1387L30.0293-70.459L28.125-70.459ZM11.6699-24.4629L46.9727-24.4629L46.2402-26.709L12.4512-26.709ZM55.127 0L57.7637 0L30.6152-70.459L29.4434-70.459L29.4434-67.1387Z"/>
  </g>
  <line id="Baseline-L" style="fill:none;stroke:#27AAE1;opacity:1;stroke-width:0.5;" x1="263" x2="3036" y1="1556" y2="1556"/>
  <line id="Capline-L" style="fill:none;stroke:#27AAE1;opacity:1;stroke-width:0.5;" x1="263" x2="3036" y1="1485.54" y2="1485.54"/>
  <line id="left-margin-Ultralight-S" style="fill:none;stroke:#00AEEF;stroke-width:0.5;opacity:1.0;" x1="519.281" x2="519.281" y1="600.785" y2="720.121"/>
  <line id="right-margin-Ultralight-S" style="fill:none;stroke:#00AEEF;stroke-width:0.5;opacity:1.0;" x1="600.141" x2="600.141" y1="600.785" y2="720.121"/>
  <line id="left-margin-Thin-S" style="fill:none;stroke:#00AEEF;stroke-width:0.5;opacity:1.0;" x1="815.577" x2="815.577" y1="600.785" y2="720.121"/>
  <line id="right-margin-Thin-S" style="fill:none;stroke:#00AEEF;stroke-width:0.5;opacity:1.0;" x1="897.267" x2="897.267" y1="600.785" y2="720.121"/>
  <line id="left-margin-Light-S" style="fill:none;stroke:#00AEEF;stroke-width:0.5;opacity:1.0;" x1="1111.46" x2="1111.46" y1="600.785" y2="720.121"/>
  <line id="right-margin-Light-S" style="fill:none;stroke:#00AEEF;stroke-width:0.5;opacity:1.0;" x1="1194.81" x2="1194.81" y1="600.785" y2="720.121"/>
  <line id="left-margin-Regular-S" style="fill:none;stroke:#00AEEF;stroke-width:0.5;opacity:1.0;" x1="1407.56" x2="1407.56" y1="600.785" y2="720.121"/>
  <line id="right-margin-Regular-S" style="fill:none;stroke:#00AEEF;stroke-width:0.5;opacity:1.0;" x1="1492.13" x2="1492.13" y1="600.785" y2="720.121"/>
  <line id="left-margin-Medium-S" style="fill:none;stroke:#00AEEF;stroke-width:0.5;opacity:1.0;" x1="1703.64" x2="1703.64" y1="600.785" y2="720.121"/>
  <line id="right-margin-Medium-S" style="fill:none;stroke:#00AEEF;stroke-width:0.5;opacity:1.0;" x1="1789.48" x2="1789.48" y1="600.785" y2="720.121"/>
  <line id="left-margin-Semibold-S" style="fill:none;stroke:#00AEEF;stroke-width:0.5;opacity:1.0;" x1="1999.88" x2="1999.88" y1="600.785" y2="720.121"/>
  <line id="right-margin-Semibold-S" style="fill:none;stroke:#00AEEF;stroke-width:0.5;opacity:1.0;" x1="2086.65" x2="2086.65" y1="600.785" y2="720.121"/>
  <line id="left-margin-Bold-S" style="fill:none;stroke:#00AEEF;stroke-width:0.5;opacity:1.0;" x1="2295.93" x2="2295.93" y1="600.785" y2="720.121"/>
  <line id="right-margin-Bold-S" style="fill:none;stroke:#00AEEF;stroke-width:0.5;opacity:1.0;" x1="2384.02" x2="2384.02" y1="600.785" y2="720.121"/>
  <line id="left-margin-Heavy-S" style="fill:none;stroke:#00AEEF;stroke-width:0.5;opacity:1.0;" x1="2591.74" x2="2591.74" y1="600.785" y2="720.121"/>
  <line id="right-margin-Heavy-S" style="fill:none;stroke:#00AEEF;stroke-width:0.5;opacity:1.0;" x1="2681.64" x2="2681.64" y1="600.785" y2="720.121"/>
  <line id="left-margin-Black-S" style="fill:none;stroke:#00AEEF;stroke-width:0.5;opacity:1.0;" x1="2887.62" x2="2887.62" y1="600.785" y2="720.121"/>
  <line id="right-margin-Black-S" style="fill:none;stroke:#00AEEF;stroke-width:0.5;opacity:1.0;" x1="2979.18" x2="2979.18" y1="600.785" y2="720.121"/>
  <line id="left-margin-Ultralight-M" style="fill:none;stroke:#00AEEF;stroke-width:0.5;opacity:1.0;" x1="508.295" x2="508.295" y1="1030.79" y2="1150.12"/>
  <line id="right-margin-Ultralight-M" style="fill:none;stroke:#00AEEF;stroke-width:0.5;opacity:1.0;" x1="611.127" x2="611.127" y1="1030.79" y2="1150.12"/>
  <line id="left-margin-Thin-M" style="fill:none;stroke:#00AEEF;stroke-width:0.5;opacity:1.0;" x1="804.518" x2="804.518" y1="1030.79" y2="1150.12"/>
  <line id="right-margin-Thin-M" style="fill:none;stroke:#00AEEF;stroke-width:0.5;opacity:1.0;" x1="908.327" x2="908.327" y1="1030.79" y2="1150.12"/>
  <line id="left-margin-Light-M" style="fill:none;stroke:#00AEEF;stroke-width:0.5;opacity:1.0;" x1="1100.33" x2="1100.33" y1="1030.79" y2="1150.12"/>
  <line id="right-margin-Light-M" style="fill:none;stroke:#00AEEF;stroke-width:0.5;opacity:1.0;" x1="1205.94" x2="1205.94" y1="1030.79" y2="1150.12"/>
  <line id="left-margin-Regular-M" style="fill:none;stroke:#00AEEF;stroke-width:0.5;opacity:1.0;" x1="1396.33" x2="1396.33" y1="1030.79" y2="1150.12"/>
  <line id="right-margin-Regular-M" style="fill:none;stroke:#00AEEF;stroke-width:0.5;opacity:1.0;" x1="1503.36" x2="1503.36" y1="1030.79" y2="1150.12"/>
  <line id="left-margin-Medium-M" style="fill:none;stroke:#00AEEF;stroke-width:0.5;opacity:1.0;" x1="1692.23" x2="1692.23" y1="1030.79" y2="1150.12"/>
  <line id="right-margin-Medium-M" style="fill:none;stroke:#00AEEF;stroke-width:0.5;opacity:1.0;" x1="1800.88" x2="1800.88" y1="1030.79" y2="1150.12"/>
  <line id="left-margin-Semibold-M" style="fill:none;stroke:#00AEEF;stroke-width:0.5;opacity:1.0;" x1="1988.31" x2="1988.31" y1="1030.79" y2="1150.12"/>
  <line id="right-margin-Semibold-M" style="fill:none;stroke:#00AEEF;stroke-width:0.5;opacity:1.0;" x1="2098.22" x2="2098.22" y1="1030.79" y2="1150.12"/>
  <line id="left-margin-Bold-M" style="fill:none;stroke:#00AEEF;stroke-width:0.5;opacity:1.0;" x1="2284.19" x2="2284.19" y1="1030.79" y2="1150.12"/>
  <line id="right-margin-Bold-M" style="fill:none;stroke:#00AEEF;stroke-width:0.5;opacity:1.0;" x1="2395.76" x2="2395.76" y1="1030.79" y2="1150.12"/>
  <line id="left-margin-Heavy-M" style="fill:none;stroke:#00AEEF;stroke-width:0.5;opacity:1.0;" x1="2579.71" x2="2579.71" y1="1030.79" y2="1150.12"/>
  <line id="right-margin-Heavy-M" style="fill:none;stroke:#00AEEF;stroke-width:0.5;opacity:1.0;" x1="2693.67" x2="2693.67" y1="1030.79" y2="1150.12"/>
  <line id="left-margin-Black-M" style="fill:none;stroke:#00AEEF;stroke-width:0.5;opacity:1.0;" x1="2875.34" x2="2875.34" y1="1030.79" y2="1150.12"/>
  <line id="right-margin-Black-M" style="fill:none;stroke:#00AEEF;stroke-width:0.5;opacity:1.0;" x1="2991.46" x2="2991.46" y1="1030.79" y2="1150.12"/>
  <line id="left-margin-Ultralight-L" style="fill:none;stroke:#00AEEF;stroke-width:0.5;opacity:1.0;" x1="493.573" x2="493.573" y1="1460.79" y2="1580.12"/>
  <line id="right-margin-Ultralight-L" style="fill:none;stroke:#00AEEF;stroke-width:0.5;opacity:1.0;" x1="625.849" x2="625.849" y1="1460.79" y2="1580.12"/>
  <line id="left-margin-Thin-L" style="fill:none;stroke:#00AEEF;stroke-width:0.5;opacity:1.0;" x1="789.747" x2="789.747" y1="1460.79" y2="1580.12"/>
  <line id="right-margin-Thin-L" style="fill:none;stroke:#00AEEF;stroke-width:0.5;opacity:1.0;" x1="923.097" x2="923.097" y1="1460.79" y2="1580.12"/>
  <line id="left-margin-Light-L" style="fill:none;stroke:#00AEEF;stroke-width:0.5;opacity:1.0;" x1="1085.43" x2="1085.43" y1="1460.79" y2="1580.12"/>
  <line id="right-margin-Light-L" style="fill:none;stroke:#00AEEF;stroke-width:0.5;opacity:1.0;" x1="1220.83" x2="1220.83" y1="1460.79" y2="1580.12"/>
  <line id="left-margin-Regular-L" style="fill:none;stroke:#00AEEF;stroke-width:0.5;opacity:1.0;" x1="1381.36" x2="1381.36" y1="1460.79" y2="1580.12"/>
  <line id="right-margin-Regular-L" style="fill:none;stroke:#00AEEF;stroke-width:0.5;opacity:1.0;" x1="1518.33" x2="1518.33" y1="1460.79" y2="1580.12"/>
  <line id="left-margin-Medium-L" style="fill:none;stroke:#00AEEF;stroke-width:0.5;opacity:1.0;" x1="1677.1" x2="1677.1" y1="1460.79" y2="1580.12"/>
  <line id="right-margin-Medium-L" style="fill:none;stroke:#00AEEF;stroke-width:0.5;opacity:1.0;" x1="1816.01" x2="1816.01" y1="1460.79" y2="1580.12"/>
  <line id="left-margin-Semibold-L" style="fill:none;stroke:#00AEEF;stroke-width:0.5;opacity:1.0;" x1="1973.08" x2="1973.08" y1="1460.79" y2="1580.12"/>
  <line id="right-margin-Semibold-L" style="fill:none;stroke:#00AEEF;stroke-width:0.5;opacity:1.0;" x1="2113.46" x2="2113.46" y1="1460.79" y2="1580.12"/>
  <line id="left-margin-Bold-L" style="fill:none;stroke:#00AEEF;stroke-width:0.5;opacity:1.0;" x1="2268.81" x2="2268.81" y1="1460.79" y2="1580.12"/>
  <line id="right-margin-Bold-L" style="fill:none;stroke:#00AEEF;stroke-width:0.5;opacity:1.0;" x1="2411.14" x2="2411.14" y1="1460.79" y2="1580.12"/>
  <line id="left-margin-Heavy-L" style="fill:none;stroke:#00AEEF;stroke-width:0.5;opacity:1.0;" x1="2564.11" x2="2564.11" y1="1460.79" y2="1580.12"/>
  <line id="right-margin-Heavy-L" style="fill:none;stroke:#00AEEF;stroke-width:0.5;opacity:1.0;" x1="2709.27" x2="2709.27" y1="1460.79" y2="1580.12"/>
  <line id="left-margin-Black-L" style="fill:none;stroke:#00AEEF;stroke-width:0.5;opacity:1.0;" x1="2859.55" x2="2859.55" y1="1460.79" y2="1580.12"/>
  <line id="right-margin-Black-L" style="fill:none;stroke:#00AEEF;stroke-width:0.5;opacity:1.0;" x1="3007.25" x2="3007.25" y1="1460.79" y2="1580.12"/>
 </g>
 <g id="Symbols">
  <g id="Black-L" transform="matrix(1 0 0 1 2859.55 1556)">
   <path d="M39.8926 35.2539L122.949 35.2539Q126.807 35.2539 129.224 32.8369Q131.641 30.4199 131.641 26.5625Q131.641 22.8516 129.517 20.7275Q127.393 18.6035 124.609 16.7969Q122.021 15.2344 120.557 12.4756Q119.092 9.7168 118.945 6.39648Q118.799 3.07617 120.166-0.12207Q121.533-3.32031 124.609-5.71289Q128.711-8.78906 130.078-11.6943Q131.445-14.5996 131.445-19.6289L131.445-81.7383Q131.445-93.1641 125.244-99.3896Q119.043-105.615 107.617-105.615L39.8926-105.615Q28.4668-105.615 22.2656-99.3896Q16.0645-93.1641 16.0645-81.7383L16.0645 11.3281Q16.0645 22.7539 22.2656 29.0039Q28.4668 35.2539 39.8926 35.2539ZM36.3281-19.9219L36.3281-79.0039Q36.3281-82.1777 37.8174-83.7891Q39.3066-85.4004 42.7246-85.4004L104.785-85.4004Q108.203-85.4004 109.717-83.7891Q111.23-82.1777 111.23-79.0039L111.23-23.1445Q111.23-20.8008 108.691-20.8008L43.4082-20.8008Q41.5039-20.8008 39.7217-20.5566Q37.9395-20.3125 36.3281-19.9219ZM44.9707 17.9199Q39.1602 17.9199 36.3525 14.7461Q33.5449 11.5723 33.5449 7.17773Q33.5449 2.92969 36.4746-0.292969Q39.4043-3.51562 45.166-3.51562L102.441-3.51562Q102.686-3.51562 102.93-3.51562Q103.174-3.51562 103.418-3.51562Q100.977 1.61133 100.879 7.2998Q100.781 12.9883 103.076 17.9199ZM43.5547-13.4277L54.9316-13.4277L54.9316-90.7715L43.5547-90.7715Z"/>
  </g>
  <g id="Heavy-L" transform="matrix(1 0 0 1 2564.11 1556)">
   <path d="M38.623 34.5215L121.436 34.5215Q124.805 34.5215 126.953 32.373Q129.102 30.2246 129.102 26.8555Q129.102 23.6816 127.295 21.8018Q125.488 19.9219 123.047 18.4082Q120.312 16.8945 118.774 14.1846Q117.236 11.4746 117.017 8.20312Q116.797 4.93164 118.14 1.70898Q119.482-1.51367 122.559-4.10156Q126.074-6.88477 127.515-9.74121Q128.955-12.5977 128.955-17.5293L128.955-82.1289Q128.955-93.1152 123.096-98.999Q117.236-104.883 106.299-104.883L38.7207-104.883Q27.7832-104.883 21.9238-98.999Q16.0645-93.1152 16.0645-82.1289L16.0645 11.8652Q16.0645 22.7539 21.8994 28.6377Q27.7344 34.5215 38.623 34.5215ZM33.5938-15.625L33.5938-80.0293Q33.5938-83.6426 35.3516-85.5225Q37.1094-87.4023 40.9668-87.4023L104.053-87.4023Q107.91-87.4023 109.692-85.5225Q111.475-83.6426 111.475-80.0293L111.475-20.5078Q111.475-17.041 107.861-17.041L41.5039-17.041Q39.2578-17.041 37.2803-16.6748Q35.3027-16.3086 33.5938-15.625ZM42.627 19.2383Q37.0117 19.2383 34.2285 16.1865Q31.4453 13.1348 31.4453 8.69141Q31.4453 4.39453 34.375 1.29395Q37.3047-1.80664 42.8711-1.80664L102.1-1.80664Q102.49-1.80664 102.881-1.83105Q103.271-1.85547 103.613-1.85547Q101.123 3.27148 101.172 8.8623Q101.221 14.4531 103.711 19.2383ZM40.8691-10.3027L51.2695-10.3027L51.2695-92.041L40.8691-92.041Z"/>
  </g>
  <g id="Bold-L" transform="matrix(1 0 0 1 2268.81 1556)">
   <path d="M37.2559 33.6914L119.775 33.6914Q122.607 33.6914 124.438 31.8604Q126.27 30.0293 126.27 27.1484Q126.27 24.6094 124.805 22.998Q123.34 21.3867 121.289 20.2148Q118.457 18.75 116.797 16.1133Q115.137 13.4766 114.868 10.2539Q114.6 7.03125 115.894 3.75977Q117.188 0.488281 120.215-2.29492Q123.193-4.78516 124.683-7.59277Q126.172-10.4004 126.172-15.2344L126.172-82.6172Q126.172-93.0176 120.728-98.5352Q115.283-104.053 104.883-104.053L37.4023-104.053Q27.002-104.053 21.5332-98.5596Q16.0645-93.0664 16.0645-82.6172L16.0645 12.5Q16.0645 22.7539 21.5088 28.2227Q26.9531 33.6914 37.2559 33.6914ZM30.5176-10.8398L30.5176-81.1523Q30.5176-85.3027 32.6172-87.4512Q34.7168-89.5996 39.0137-89.5996L103.223-89.5996Q107.568-89.5996 109.668-87.4512Q111.768-85.3027 111.768-81.1523L111.768-17.5293Q111.768-12.8418 106.885-12.8418L39.4043-12.8418Q36.7676-12.8418 34.5703-12.3291Q32.373-11.8164 30.5176-10.8398ZM39.9902 20.7031Q34.6191 20.7031 31.8848 17.7979Q29.1504 14.8926 29.1504 10.3516Q29.1504 6.00586 32.0557 3.07617Q34.9609 0.146484 40.332 0.146484L101.758 0.146484Q102.344 0.146484 102.856 0.0976562Q103.369 0.0488281 103.857-0.0488281Q101.318 5.17578 101.514 10.6689Q101.709 16.1621 104.443 20.7031ZM37.9395-6.83594L47.2168-6.83594L47.2168-93.457L37.9395-93.457Z"/>
  </g>
  <g id="Semibold-L" transform="matrix(1 0 0 1 1973.08 1556)">
   <path d="M36.2793 33.1055L118.604 33.1055Q121.094 33.1055 122.705 31.4697Q124.316 29.834 124.316 27.3438Q124.316 25.2441 123.071 23.8037Q121.826 22.3633 120.068 21.4355Q117.139 20.0195 115.43 17.4072Q113.721 14.7949 113.403 11.6211Q113.086 8.44727 114.355 5.15137Q115.625 1.85547 118.604-1.07422Q121.143-3.27148 122.705-6.0791Q124.268-8.88672 124.268-13.623L124.268-82.9102Q124.268-92.9688 119.067-98.2178Q113.867-103.467 103.857-103.467L36.4746-103.467Q26.416-103.467 21.2402-98.2422Q16.0645-93.0176 16.0645-82.9102L16.0645 12.8906Q16.0645 22.7539 21.2402 27.9297Q26.416 33.1055 36.2793 33.1055ZM28.418-7.51953L28.418-81.8848Q28.418-86.4258 30.7129-88.7695Q33.0078-91.1133 37.6465-91.1133L102.637-91.1133Q107.324-91.1133 109.619-88.7695Q111.914-86.4258 111.914-81.8848L111.914-15.4785Q111.914-9.91211 106.25-9.91211L37.9395-9.91211Q35.0586-9.91211 32.7148-9.30176Q30.3711-8.69141 28.418-7.51953ZM38.1836 21.6797Q32.9102 21.6797 30.2246 18.8965Q27.5391 16.1133 27.5391 11.5234Q27.5391 7.12891 30.4443 4.29688Q33.3496 1.46484 38.5254 1.46484L101.465 1.46484Q102.197 1.46484 102.808 1.41602Q103.418 1.36719 104.004 1.2207Q101.465 6.44531 101.733 11.8652Q102.002 17.2852 104.932 21.6797ZM35.8398-4.44336L44.3848-4.44336L44.3848-94.3848L35.8398-94.3848Z"/>
  </g>
  <g id="Medium-L" transform="matrix(1 0 0 1 1677.1 1556)">
   <path d="M35.5469 32.666L117.725 32.666Q119.922 32.666 121.387 31.2012Q122.852 29.7363 122.852 27.5391Q122.852 25.7324 121.777 24.4385Q120.703 23.1445 119.141 22.4121Q116.113 20.9473 114.355 18.3838Q112.598 15.8203 112.256 12.6709Q111.914 9.52148 113.159 6.20117Q114.404 2.88086 117.383-0.0976562Q119.629-2.19727 121.216-4.95605Q122.803-7.71484 122.803-12.4023L122.803-83.1543Q122.803-92.9199 117.822-97.9736Q112.842-103.027 103.076-103.027L35.791-103.027Q26.0254-103.027 21.0449-97.998Q16.0645-92.9688 16.0645-83.1543L16.0645 13.2324Q16.0645 22.7539 21.0205 27.71Q25.9766 32.666 35.5469 32.666ZM26.8066-4.98047L26.8066-82.4707Q26.8066-87.2559 29.2725-89.7705Q31.7383-92.2852 36.6211-92.2852L102.197-92.2852Q107.129-92.2852 109.595-89.7705Q112.061-87.2559 112.061-82.4707L112.061-13.916Q112.061-7.71484 105.713-7.71484L36.8652-7.71484Q33.7402-7.71484 31.2744-7.03125Q28.8086-6.34766 26.8066-4.98047ZM36.8164 22.4609Q31.6895 22.4609 29.0039 19.751Q26.3184 17.041 26.3184 12.4023Q26.3184 7.95898 29.2236 5.22461Q32.1289 2.49023 37.207 2.49023L101.27 2.49023Q102.1 2.49023 102.783 2.41699Q103.467 2.34375 104.102 2.14844Q101.514 7.42188 101.88 12.793Q102.246 18.1641 105.322 22.4609ZM34.3262-2.63672L42.2363-2.63672L42.2363-95.1172L34.3262-95.1172Z"/>
  </g>
  <g id="Regular-L" transform="matrix(1 0 0 1 1381.36 1556)">
   <path d="M34.5703 32.0801L116.602 32.0801Q118.408 32.0801 119.653 30.835Q120.898 29.5898 120.898 27.7344Q120.898 26.3672 120.068 25.2441Q119.238 24.1211 117.969 23.6328Q114.844 22.2168 113.013 19.7021Q111.182 17.1875 110.791 14.0625Q110.4 10.9375 111.621 7.59277Q112.842 4.24805 115.82 1.12305Q117.627-0.732422 119.263-3.4668Q120.898-6.20117 120.898-10.791L120.898-83.4473Q120.898-92.8711 116.187-97.6562Q111.475-102.441 102.1-102.441L34.8633-102.441Q25.4883-102.441 20.7764-97.6807Q16.0645-92.9199 16.0645-83.4473L16.0645 13.623Q16.0645 22.7539 20.752 27.417Q25.4395 32.0801 34.5703 32.0801ZM24.707-1.70898L24.707-83.252Q24.707-88.3789 27.3926-91.0889Q30.0781-93.7988 35.3027-93.7988L101.611-93.7988Q106.885-93.7988 109.57-91.0889Q112.256-88.3789 112.256-83.252L112.256-11.9141Q112.256-4.83398 105.078-4.83398L35.4004-4.83398Q32.0312-4.83398 29.4189-4.05273Q26.8066-3.27148 24.707-1.70898ZM35.0098 23.4375Q30.0293 23.4375 27.3682 20.8252Q24.707 18.2129 24.707 13.5254Q24.707 9.08203 27.6123 6.44531Q30.5176 3.80859 35.4492 3.80859L101.025 3.80859Q101.953 3.80859 102.734 3.71094Q103.516 3.61328 104.248 3.41797Q101.66 8.69141 102.124 13.9893Q102.588 19.2871 105.811 23.4375ZM32.2754-0.244141L39.4531-0.244141L39.4531-96.0938L32.2754-96.0938Z"/>
  </g>
  <g id="Light-L" transform="matrix(1 0 0 1 1085.43 1556)">
   <path d="M33.3984 31.7383L116.064 31.7383Q117.48 31.7383 118.408 30.8105Q119.336 29.8828 119.336 28.4668Q119.336 27.4414 118.75 26.5869Q118.164 25.7324 117.236 25.3418Q113.916 23.584 111.938 20.8496Q109.961 18.1152 109.521 14.7949Q109.082 11.4746 110.278 7.9834Q111.475 4.49219 114.551 1.17188Q116.406-0.830078 117.871-3.66211Q119.336-6.49414 119.336-10.8887L119.336-84.1309Q119.336-92.9688 114.844-97.5342Q110.352-102.1 101.514-102.1L33.8867-102.1Q25.0488-102.1 20.5566-97.5586Q16.0645-93.0176 16.0645-84.1309L16.0645 14.7461Q16.0645 23.0469 20.5078 27.3926Q24.9512 31.7383 33.3984 31.7383ZM22.6562 1.61133L22.6562-83.9355Q22.6562-89.5508 25.5859-92.5049Q28.5156-95.459 34.2285-95.459L101.123-95.459Q106.885-95.459 109.814-92.5049Q112.744-89.5508 112.744-83.9355L112.744-11.6699Q112.744-2.29492 103.32-2.29492L33.9355-2.29492Q30.1758-2.29492 27.4658-1.31836Q24.7559-0.341797 22.6562 1.61133ZM33.7402 25.1465Q28.4668 25.1465 25.5615 22.3877Q22.6562 19.6289 22.6562 14.5996Q22.6562 9.86328 25.708 7.10449Q28.7598 4.3457 34.0332 4.3457L100.83 4.3457Q102.148 4.3457 103.247 4.1748Q104.346 4.00391 105.371 3.71094Q102.246 9.47266 103.003 15.21Q103.76 20.9473 107.861 25.1465ZM30.4199 1.17188L36.1328 1.17188L36.1328-97.5098L30.4199-97.5098Z"/>
  </g>
  <g id="Thin-L" transform="matrix(1 0 0 1 789.747 1556)">
   <path d="M31.8848 31.3477L115.43 31.3477Q116.26 31.3477 116.772 30.8105Q117.285 30.2734 117.285 29.3945Q117.285 28.8086 116.992 28.3203Q116.699 27.832 116.211 27.5879Q112.646 25.3906 110.498 22.3389Q108.35 19.2871 107.837 15.7715Q107.324 12.2559 108.521 8.54492Q109.717 4.83398 112.891 1.2207Q114.795-0.927734 116.04-3.90625Q117.285-6.88477 117.285-11.0352L117.285-85.0098Q117.285-93.1152 113.086-97.3633Q108.887-101.611 100.732-101.611L32.666-101.611Q24.5117-101.611 20.2881-97.3633Q16.0645-93.1152 16.0645-85.0098L16.0645 16.2109Q16.0645 23.3887 20.2148 27.3682Q24.3652 31.3477 31.8848 31.3477ZM20.0195 5.95703L20.0195-84.8145Q20.0195-91.1621 23.2666-94.4092Q26.5137-97.6562 32.8613-97.6562L100.537-97.6562Q106.836-97.6562 110.107-94.4092Q113.379-91.1621 113.379-84.8145L113.379-11.3281Q113.379 1.07422 100.977 1.07422L32.0312 1.07422Q27.6855 1.07422 24.8779 2.31934Q22.0703 3.56445 20.0195 5.95703ZM32.0801 27.3926Q26.3672 27.3926 23.1934 24.4141Q20.0195 21.4355 20.0195 16.0645Q20.0195 10.8887 23.2178 7.93457Q26.416 4.98047 32.1289 4.98047L100.586 4.98047Q102.393 4.98047 103.931 4.76074Q105.469 4.54102 106.836 4.10156Q103.076 10.498 104.175 16.7969Q105.273 23.0957 110.547 27.3926ZM27.9785 3.07617L31.7383 3.07617L31.7383-99.3652L27.9785-99.3652Z"/>
  </g>
  <g id="Ultralight-L" transform="matrix(1 0 0 1 493.573 1556)">
   <path d="M31.1035 31.1035L115.039 31.1035Q115.625 31.1035 115.918 30.8105Q116.211 30.5176 116.211 29.8828Q116.211 29.541 116.089 29.248Q115.967 28.9551 115.723 28.7109Q112.012 26.3184 109.79 23.1201Q107.568 19.9219 106.982 16.2598Q106.396 12.5977 107.593 8.78906Q108.789 4.98047 112.012 1.26953Q113.965-1.02539 115.088-4.07715Q116.211-7.12891 116.211-11.1328L116.211-85.4492Q116.211-93.2129 112.158-97.29Q108.105-101.367 100.342-101.367L31.9824-101.367Q24.2188-101.367 20.1416-97.29Q16.0645-93.2129 16.0645-85.4492L16.0645 16.9922Q16.0645 23.584 20.0439 27.3438Q24.0234 31.1035 31.1035 31.1035ZM18.6035 8.20312L18.6035-85.2539Q18.6035-91.9434 22.0215-95.3613Q25.4395-98.7793 32.1289-98.7793L100.195-98.7793Q106.836-98.7793 110.278-95.3613Q113.721-91.9434 113.721-85.2539L113.721-11.1328Q113.721 2.7832 99.7559 2.7832L31.0547 2.7832Q26.4648 2.7832 23.5596 4.15039Q20.6543 5.51758 18.6035 8.20312ZM31.25 28.5645Q25.293 28.5645 21.9482 25.4883Q18.6035 22.4121 18.6035 16.7969Q18.6035 11.377 21.9238 8.37402Q25.2441 5.37109 31.2012 5.37109L100.439 5.37109Q102.49 5.37109 104.248 5.10254Q106.006 4.83398 107.617 4.3457Q103.467 11.0352 104.761 17.627Q106.055 24.2188 111.963 28.5645ZM26.7578 4.00391L29.4434 4.00391L29.4434-100.293L26.7578-100.293Z"/>
  </g>
  <g id="Black-M" transform="matrix(1 0 0 1 2875.34 1126)">
   <path d="M31.5918 19.9219L96.3867 19.9219Q99.6582 19.9219 101.66 17.9199Q103.662 15.918 103.662 12.6465Q103.662 9.47266 101.831 7.69043Q100 5.9082 97.6562 4.29688Q95.0195 2.49023 93.9697-0.854492Q92.9199-4.19922 93.8232-7.76367Q94.7266-11.3281 97.9004-13.7207Q101.611-16.4062 102.539-18.7256Q103.467-21.0449 103.467-24.9512L103.467-71.1426Q103.467-80.2246 98.4375-85.2783Q93.4082-90.332 84.3262-90.332L31.5918-90.332Q22.5098-90.332 17.4805-85.2783Q12.4512-80.2246 12.4512-71.1426L12.4512 0.732422Q12.4512 9.81445 17.4805 14.8682Q22.5098 19.9219 31.5918 19.9219ZM29.7852-25.8789L29.7852-68.5059Q29.7852-70.752 30.8105-71.8506Q31.8359-72.9492 34.2773-72.9492L81.6895-72.9492Q84.082-72.9492 85.1074-71.8506Q86.1328-70.752 86.1328-68.5059L86.1328-28.0762Q86.1328-26.416 84.375-26.416L34.7656-26.416Q33.4961-26.416 32.2266-26.2695Q30.957-26.123 29.7852-25.8789ZM36.4258 5.41992Q31.6895 5.41992 29.3945 2.7832Q27.0996 0.146484 27.0996-3.27148Q27.0996-6.64062 29.4189-9.27734Q31.7383-11.9141 36.4746-11.9141L79.5898-11.9141Q80.127-11.9141 80.3711-11.9141Q78.3203-7.8125 78.2227-3.19824Q78.125 1.41602 80.0293 5.41992ZM35.4004-20.5078L44.5801-20.5078L44.5801-77.6367L35.4004-77.6367Z"/>
  </g>
  <g id="Heavy-M" transform="matrix(1 0 0 1 2579.71 1126)">
   <path d="M30.6152 19.2383L95.0195 19.2383Q97.9004 19.2383 99.707 17.4561Q101.514 15.6738 101.514 12.793Q101.514 10.0586 99.9268 8.44727Q98.3398 6.83594 96.2891 5.51758Q93.5547 3.85742 92.4316 0.634766Q91.3086-2.58789 92.1631-6.10352Q93.0176-9.61914 96.1426-12.1582Q99.3164-14.5508 100.342-16.7969Q101.367-19.043 101.367-22.9004L101.367-71.3867Q101.367-80.127 96.6309-84.9121Q91.8945-89.6973 83.1543-89.6973L30.6641-89.6973Q21.9238-89.6973 17.1875-84.9121Q12.4512-80.127 12.4512-71.3867L12.4512 1.02539Q12.4512 9.76562 17.1875 14.502Q21.9238 19.2383 30.6152 19.2383ZM27.5391-22.4121L27.5391-69.3359Q27.5391-71.9238 28.7842-73.2422Q30.0293-74.5605 32.7637-74.5605L81.0547-74.5605Q83.7891-74.5605 85.0342-73.2422Q86.2793-71.9238 86.2793-69.3359L86.2793-25.5371Q86.2793-23.291 83.9355-23.291L33.252-23.291Q31.6895-23.291 30.249-23.0469Q28.8086-22.8027 27.5391-22.4121ZM34.4238 6.29883Q29.9316 6.29883 27.71 3.83301Q25.4883 1.36719 25.4883-2.05078Q25.4883-5.37109 27.7832-7.86133Q30.0781-10.3516 34.5703-10.3516L79.2969-10.3516Q79.9316-10.3516 80.3223-10.4004Q78.3203-6.34766 78.3203-1.92871Q78.3203 2.49023 80.2246 6.29883ZM33.2031-17.7734L41.6992-17.7734L41.6992-78.5645L33.2031-78.5645Z"/>
  </g>
  <g id="Bold-M" transform="matrix(1 0 0 1 2284.19 1126)">
   <path d="M29.541 18.5059L93.5547 18.5059Q95.9961 18.5059 97.5586 16.9434Q99.1211 15.3809 99.1211 12.9395Q99.1211 10.6934 97.8271 9.27734Q96.5332 7.86133 94.7754 6.88477Q91.8945 5.37109 90.6982 2.29492Q89.502-0.78125 90.3076-4.22363Q91.1133-7.66602 94.1895-10.4004Q96.7285-12.4512 97.876-14.624Q99.0234-16.7969 99.0234-20.6055L99.0234-71.6797Q99.0234-80.0293 94.6289-84.4971Q90.2344-88.9648 81.8848-88.9648L29.5898-88.9648Q21.2891-88.9648 16.8701-84.5215Q12.4512-80.0781 12.4512-71.6797L12.4512 1.36719Q12.4512 9.66797 16.8457 14.0869Q21.2402 18.5059 29.541 18.5059ZM25.0488-18.5059L25.0488-70.3125Q25.0488-73.2422 26.5381-74.7803Q28.0273-76.3184 31.1035-76.3184L80.3711-76.3184Q83.4961-76.3184 84.9609-74.7803Q86.4258-73.2422 86.4258-70.3125L86.4258-22.7051Q86.4258-19.7754 83.4473-19.7754L31.543-19.7754Q29.6875-19.7754 28.0762-19.458Q26.4648-19.1406 25.0488-18.5059ZM32.1777 7.32422Q27.9297 7.32422 25.8301 5.05371Q23.7305 2.7832 23.7305-0.683594Q23.7305-4.00391 25.9766-6.29883Q28.2227-8.59375 32.4219-8.59375L79.0039-8.59375Q79.7363-8.59375 80.2734-8.69141Q78.3691-4.73633 78.4424-0.488281Q78.5156 3.75977 80.4199 7.32422ZM30.7617-14.7461L38.5254-14.7461L38.5254-79.6387L30.7617-79.6387Z"/>
  </g>
  <g id="Semibold-M" transform="matrix(1 0 0 1 1988.31 1126)">
   <path d="M28.7598 17.9688L92.4805 17.9688Q94.6289 17.9688 96.0449 16.5527Q97.4609 15.1367 97.4609 13.0371Q97.4609 11.1328 96.3379 9.86328Q95.2148 8.59375 93.7012 7.8125Q90.7715 6.39648 89.5264 3.44238Q88.2812 0.488281 89.0137-2.92969Q89.7461-6.34766 92.8223-9.17969Q94.9707-10.9863 96.1914-13.1104Q97.4121-15.2344 97.4121-18.9941L97.4121-71.875Q97.4121-79.9805 93.2373-84.2041Q89.0625-88.4277 81.0059-88.4277L28.8574-88.4277Q20.8008-88.4277 16.626-84.2041Q12.4512-79.9805 12.4512-71.875L12.4512 1.61133Q12.4512 9.61914 16.626 13.7939Q20.8008 17.9688 28.7598 17.9688ZM23.3398-15.8203L23.3398-70.9473Q23.3398-74.1699 24.9756-75.8545Q26.6113-77.5391 29.9316-77.5391L79.8828-77.5391Q83.252-77.5391 84.8877-75.8545Q86.5234-74.1699 86.5234-70.9473L86.5234-20.7031Q86.5234-17.334 83.0566-17.334L30.3223-17.334Q28.3203-17.334 26.5625-16.9434Q24.8047-16.5527 23.3398-15.8203ZM30.6152 8.00781Q26.5625 8.00781 24.5117 5.88379Q22.4609 3.75977 22.4609 0.292969Q22.4609-3.02734 24.6826-5.2002Q26.9043-7.37305 30.9082-7.37305L78.8086-7.37305Q79.5898-7.37305 80.2246-7.4707Q78.3691-3.56445 78.4912 0.512695Q78.6133 4.58984 80.5664 8.00781ZM29.0527-12.5977L36.3281-12.5977L36.3281-80.3223L29.0527-80.3223Z"/>
  </g>
  <g id="Medium-M" transform="matrix(1 0 0 1 1692.23 1126)">
   <path d="M28.1738 17.5781L91.6992 17.5781Q93.6035 17.5781 94.8975 16.2842Q96.1914 14.9902 96.1914 13.0859Q96.1914 11.4746 95.2393 10.3027Q94.2871 9.13086 92.8711 8.49609Q89.8926 7.17773 88.5986 4.32129Q87.3047 1.46484 88.0371-1.92871Q88.7695-5.32227 91.7969-8.25195Q93.6035-9.86328 94.8975-11.9629Q96.1914-14.0625 96.1914-17.7734L96.1914-72.0215Q96.1914-79.8828 92.1875-83.96Q88.1836-88.0371 80.3223-88.0371L28.3203-88.0371Q20.459-88.0371 16.4551-83.9844Q12.4512-79.9316 12.4512-72.0215L12.4512 1.75781Q12.4512 9.57031 16.4307 13.5742Q20.4102 17.5781 28.1738 17.5781ZM22.0215-13.7695L22.0215-71.4355Q22.0215-74.8535 23.7793-76.6602Q25.5371-78.4668 29.0527-78.4668L79.541-78.4668Q83.0566-78.4668 84.8389-76.6602Q86.6211-74.8535 86.6211-71.4355L86.6211-19.2383Q86.6211-15.5273 82.8125-15.5273L29.4434-15.5273Q27.2461-15.5273 25.3906-15.0879Q23.5352-14.6484 22.0215-13.7695ZM29.3945 8.54492Q25.5371 8.54492 23.5352 6.51855Q21.5332 4.49219 21.5332 1.02539Q21.5332-2.29492 23.7305-4.37012Q25.9277-6.44531 29.7852-6.44531L78.6133-6.44531Q79.4922-6.44531 80.1758-6.5918Q78.418-2.73438 78.5645 1.24512Q78.7109 5.22461 80.6641 8.54492ZM27.7344-11.0352L34.668-11.0352L34.668-80.8594L27.7344-80.8594Z"/>
  </g>
  <g id="Regular-M" transform="matrix(1 0 0 1 1396.33 1126)">
   <path d="M27.4414 17.0898L90.6738 17.0898Q92.2852 17.0898 93.4326 15.9424Q94.5801 14.7949 94.5801 13.1836Q94.5801 11.9141 93.7988 10.8643Q93.0176 9.81445 91.8457 9.42383Q88.7695 8.20312 87.4268 5.44434Q86.084 2.68555 86.7676-0.65918Q87.4512-4.00391 90.4785-7.08008Q91.8457-8.44727 93.2129-10.498Q94.5801-12.5488 94.5801-16.2109L94.5801-72.2168Q94.5801-79.834 90.7959-83.6914Q87.0117-87.5488 79.4434-87.5488L27.5879-87.5488Q20.0195-87.5488 16.2354-83.7158Q12.4512-79.8828 12.4512-72.2168L12.4512 2.00195Q12.4512 9.52148 16.2109 13.3057Q19.9707 17.0898 27.4414 17.0898ZM20.3125-11.1328L20.3125-72.0703Q20.3125-75.7324 22.2412-77.71Q24.1699-79.6875 27.9297-79.6875L79.0527-79.6875Q82.8613-79.6875 84.79-77.71Q86.7188-75.7324 86.7188-72.0703L86.7188-17.2852Q86.7188-13.1348 82.4707-13.1348L28.2715-13.1348Q25.8789-13.1348 23.9014-12.6221Q21.9238-12.1094 20.3125-11.1328ZM27.8809 9.22852Q24.1699 9.22852 22.2412 7.32422Q20.3125 5.41992 20.3125 1.95312Q20.3125-1.31836 22.4854-3.2959Q24.6582-5.27344 28.3203-5.27344L78.418-5.27344Q79.3457-5.27344 80.127-5.41992Q78.418-1.61133 78.6377 2.22168Q78.8574 6.05469 80.8105 9.22852ZM26.0742-8.93555L32.4707-8.93555L32.4707-81.5918L26.0742-81.5918Z"/>
  </g>
  <g id="Light-M" transform="matrix(1 0 0 1 1100.33 1126)">
   <path d="M26.416 16.7969L90.1855 16.7969Q91.4551 16.7969 92.3096 15.9424Q93.1641 15.0879 93.1641 13.8184Q93.1641 12.8906 92.6025 12.085Q92.041 11.2793 91.1621 10.9375Q87.8906 9.32617 86.4014 6.32324Q84.9121 3.32031 85.5713-0.195312Q86.2305-3.71094 89.3555-7.03125Q90.7227-8.54492 91.9434-10.6934Q93.1641-12.8418 93.1641-16.3086L93.1641-72.8027Q93.1641-79.9316 89.5996-83.5693Q86.0352-87.207 78.9062-87.207L26.709-87.207Q19.6289-87.207 16.04-83.5938Q12.4512-79.9805 12.4512-72.8027L12.4512 2.97852Q12.4512 9.76562 16.0156 13.2812Q19.5801 16.7969 26.416 16.7969ZM18.5059-8.1543L18.5059-72.6562Q18.5059-76.8066 20.6543-78.9795Q22.8027-81.1523 27.002-81.1523L78.6133-81.1523Q82.8613-81.1523 85.0098-78.9795Q87.1582-76.8066 87.1582-72.6562L87.1582-17.041Q87.1582-10.8398 80.8594-10.8398L26.9531-10.8398Q24.2188-10.8398 22.1436-10.1562Q20.0684-9.47266 18.5059-8.1543ZM26.7578 10.791Q22.7539 10.791 20.6299 8.71582Q18.5059 6.64062 18.5059 2.92969Q18.5059-0.634766 20.8008-2.70996Q23.0957-4.78516 27.0508-4.78516L78.2227-4.78516Q79.834-4.78516 81.1523-5.17578Q78.9551-0.927734 79.4189 3.2959Q79.8828 7.51953 82.666 10.791ZM24.4141-7.66602L29.4922-7.66602L29.4922-82.8613L24.4141-82.8613Z"/>
  </g>
  <g id="Thin-M" transform="matrix(1 0 0 1 804.518 1126)">
   <path d="M25.0488 16.4551L89.5996 16.4551Q90.3809 16.4551 90.8691 15.9668Q91.3574 15.4785 91.3574 14.6484Q91.3574 14.1113 91.04 13.6475Q90.7227 13.1836 90.2832 12.9883Q86.7188 10.791 85.0586 7.49512Q83.3984 4.19922 84.0088 0.415039Q84.6191-3.36914 87.8418-6.98242Q89.2578-8.64258 90.3076-10.9131Q91.3574-13.1836 91.3574-16.4551L91.3574-73.584Q91.3574-80.0781 88.0127-83.4229Q84.668-86.7676 78.2227-86.7676L25.5859-86.7676Q19.0918-86.7676 15.7715-83.4229Q12.4512-80.0781 12.4512-73.584L12.4512 4.3457Q12.4512 10.1074 15.7471 13.2812Q19.043 16.4551 25.0488 16.4551ZM16.1133-4.24805L16.1133-73.4863Q16.1133-78.2227 18.5303-80.6885Q20.9473-83.1543 25.7324-83.1543L78.0273-83.1543Q82.8125-83.1543 85.2539-80.6885Q87.6953-78.2227 87.6953-73.4863L87.6953-16.748Q87.6953-7.8125 78.7598-7.8125L25.2441-7.8125Q22.0215-7.8125 19.8486-6.90918Q17.6758-6.00586 16.1133-4.24805ZM25.2441 12.793Q20.8984 12.793 18.5059 10.5469Q16.1133 8.30078 16.1133 4.19922Q16.1133 0.244141 18.5547-1.97754Q20.9961-4.19922 25.3418-4.19922L77.9785-4.19922Q80.4688-4.19922 82.4707-4.83398Q79.6875 0 80.4688 4.76074Q81.25 9.52148 85.1074 12.793ZM22.2168-5.95703L25.5371-5.95703L25.5371-84.5215L22.2168-84.5215Z"/>
  </g>
  <g id="Ultralight-M" transform="matrix(1 0 0 1 508.295 1126)">
   <path d="M24.3652 16.2598L89.2578 16.2598Q89.8438 16.2598 90.1123 15.9668Q90.3809 15.6738 90.3809 15.0879Q90.3809 14.7949 90.2344 14.4775Q90.0879 14.1602 89.7949 14.0137Q86.084 11.5723 84.3262 8.10547Q82.5684 4.63867 83.1787 0.732422Q83.7891-3.17383 87.0605-6.93359Q88.5254-8.74023 89.4531-11.0596Q90.3809-13.3789 90.3809-16.5527L90.3809-73.9746Q90.3809-80.1758 87.207-83.374Q84.0332-86.5723 77.832-86.5723L25-86.5723Q18.8477-86.5723 15.6494-83.374Q12.4512-80.1758 12.4512-73.9746L12.4512 4.98047Q12.4512 10.3027 15.6006 13.2812Q18.75 16.2598 24.3652 16.2598ZM14.8438-2.24609L14.8438-73.877Q14.8438-78.9551 17.4316-81.543Q20.0195-84.1309 25.0977-84.1309L77.7344-84.1309Q82.8125-84.1309 85.4004-81.543Q87.9883-78.9551 87.9883-73.877L87.9883-16.6016Q87.9883-6.29883 77.6855-6.29883L24.3652-6.29883Q20.8984-6.29883 18.6523-5.27344Q16.4062-4.24805 14.8438-2.24609ZM24.4629 13.8672Q19.9707 13.8672 17.4072 11.499Q14.8438 9.13086 14.8438 4.88281Q14.8438 0.732422 17.3828-1.5625Q19.9219-3.85742 24.4629-3.85742L77.8809-3.85742Q80.8105-3.85742 83.1543-4.63867Q80.0293 0.488281 80.9814 5.49316Q81.9336 10.498 86.3281 13.8672ZM21.0938-5.07812L23.5352-5.07812L23.5352-85.3516L21.0938-85.3516Z"/>
  </g>
  <g id="Black-S" transform="matrix(1 0 0 1 2887.62 696)">
   <path d="M25 8.1543L75.9277 8.1543Q78.5645 8.1543 80.1758 6.54297Q81.7871 4.93164 81.7871 2.29492Q81.7871-0.341797 80.2979-1.75781Q78.8086-3.17383 76.9043-4.54102Q74.8535-6.00586 74.0479-8.69141Q73.2422-11.377 73.9502-14.209Q74.6582-17.041 77.1973-18.8477Q80.2246-21.0449 80.9326-22.9004Q81.6406-24.7559 81.6406-27.832L81.6406-63.3301Q81.6406-70.5078 77.6123-74.5361Q73.584-78.5645 66.4062-78.5645L25-78.5645Q17.8223-78.5645 13.7939-74.5361Q9.76562-70.5078 9.76562-63.3301L9.76562-7.08008Q9.76562 0.0976562 13.7939 4.12598Q17.8223 8.1543 25 8.1543ZM23.9258-28.8086L23.9258-61.084Q23.9258-62.793 24.6826-63.5986Q25.4395-64.4043 27.2461-64.4043L64.1602-64.4043Q66.0156-64.4043 66.748-63.5986Q67.4805-62.793 67.4805-61.084L67.4805-30.3711Q67.4805-29.1504 66.1621-29.1504L27.6367-29.1504Q26.709-29.1504 25.7568-29.0527Q24.8047-28.9551 23.9258-28.8086ZM29.1016-3.56445Q25.293-3.56445 23.4619-5.68848Q21.6309-7.8125 21.6309-10.498Q21.6309-13.1836 23.4619-15.3076Q25.293-17.4316 29.1016-17.4316L62.4512-17.4316Q62.5977-17.4316 62.7441-17.4316Q62.8906-17.4316 63.0371-17.4316Q61.377-14.1602 61.3037-10.4492Q61.2305-6.73828 62.7441-3.56445ZM28.3203-24.4629L35.6445-24.4629L35.6445-68.2617L28.3203-68.2617Z"/>
  </g>
  <g id="Heavy-S" transform="matrix(1 0 0 1 2591.74 696)">
   <path d="M24.3164 7.61719L74.8535 7.61719Q77.1973 7.61719 78.6621 6.15234Q80.127 4.6875 80.127 2.29492Q80.127 0.0488281 78.833-1.26953Q77.5391-2.58789 75.8301-3.71094Q73.7305-4.98047 72.876-7.51953Q72.0215-10.0586 72.6807-12.8174Q73.3398-15.5762 75.8301-17.5293Q78.418-19.4336 79.2236-21.2158Q80.0293-22.998 80.0293-26.0254L80.0293-63.4766Q80.0293-70.4102 76.2207-74.2188Q72.4121-78.0273 65.4785-78.0273L24.3164-78.0273Q17.3828-78.0273 13.5742-74.2188Q9.76562-70.4102 9.76562-63.4766L9.76562-6.93359Q9.76562 0 13.5742 3.80859Q17.3828 7.61719 24.3164 7.61719ZM22.2656-26.2207L22.2656-61.7188Q22.2656-63.6719 23.1689-64.624Q24.0723-65.5762 26.0742-65.5762L63.6719-65.5762Q65.7715-65.5762 66.6504-64.624Q67.5293-63.6719 67.5293-61.7188L67.5293-28.2227Q67.5293-26.7578 65.9668-26.7578L26.5137-26.7578Q25.3906-26.7578 24.292-26.6113Q23.1934-26.4648 22.2656-26.2207ZM27.4902-2.97852Q23.9746-2.97852 22.2412-4.95605Q20.5078-6.93359 20.5078-9.57031Q20.5078-12.207 22.29-14.1846Q24.0723-16.1621 27.6367-16.1621L62.2559-16.1621Q62.4023-16.1621 62.5488-16.1621Q62.6953-16.1621 62.8418-16.1621Q61.3281-12.9883 61.2793-9.49707Q61.2305-6.00586 62.6953-2.97852ZM26.6602-22.2656L33.5938-22.2656L33.5938-68.8965L26.6602-68.8965Z"/>
  </g>
  <g id="Bold-S" transform="matrix(1 0 0 1 2295.93 696)">
   <path d="M23.5352 7.03125L73.6328 7.03125Q75.6348 7.03125 76.9775 5.71289Q78.3203 4.39453 78.3203 2.34375Q78.3203 0.439453 77.1973-0.732422Q76.0742-1.9043 74.6094-2.7832Q72.4609-3.90625 71.5576-6.27441Q70.6543-8.64258 71.2891-11.3281Q71.9238-14.0137 74.3164-16.0156Q76.3672-17.627 77.2949-19.3359Q78.2227-21.0449 78.2227-24.0723L78.2227-63.623Q78.2227-70.3125 74.6826-73.9014Q71.1426-77.4902 64.4531-77.4902L23.5352-77.4902Q16.8457-77.4902 13.3057-73.9258Q9.76562-70.3613 9.76562-63.623L9.76562-6.83594Q9.76562-0.0976562 13.3057 3.4668Q16.8457 7.03125 23.5352 7.03125ZM20.3613-23.3398L20.3613-62.4512Q20.3613-64.6484 21.46-65.7715Q22.5586-66.8945 24.8047-66.8945L63.1836-66.8945Q65.4785-66.8945 66.5527-65.7715Q67.627-64.6484 67.627-62.4512L67.627-25.8301Q67.627-24.1211 65.7715-24.1211L25.2441-24.1211Q23.9258-24.1211 22.6807-23.9014Q21.4355-23.6816 20.3613-23.3398ZM25.7324-2.34375Q22.4609-2.34375 20.8496-4.12598Q19.2383-5.9082 19.2383-8.54492Q19.2383-11.1328 20.9717-12.9395Q22.7051-14.7461 25.9766-14.7461L62.0117-14.7461Q62.207-14.7461 62.3535-14.7461Q62.5-14.7461 62.6953-14.7461Q61.2793-11.7188 61.2793-8.44727Q61.2793-5.17578 62.5977-2.34375ZM24.8047-19.873L31.2988-19.873L31.2988-69.6289L24.8047-69.6289Z"/>
  </g>
  <g id="Semibold-S" transform="matrix(1 0 0 1 1999.88 696)">
   <path d="M22.9492 6.64062L72.7539 6.64062Q74.5605 6.64062 75.7812 5.41992Q77.002 4.19922 77.002 2.34375Q77.002 0.732422 76.0498-0.366211Q75.0977-1.46484 73.7793-2.09961Q71.5332-3.125 70.6055-5.37109Q69.6777-7.61719 70.2881-10.2539Q70.8984-12.8906 73.291-14.9902Q74.9512-16.4062 75.9766-18.042Q77.002-19.6777 77.002-22.6562L77.002-63.7207Q77.002-70.2637 73.6084-73.6572Q70.2148-77.0508 63.7207-77.0508L22.9492-77.0508Q16.5039-77.0508 13.1348-73.6572Q9.76562-70.2637 9.76562-63.7207L9.76562-6.68945Q9.76562-0.146484 13.1348 3.24707Q16.5039 6.64062 22.9492 6.64062ZM19.043-21.3379L19.043-62.9395Q19.043-65.2832 20.2637-66.5283Q21.4844-67.7734 23.9258-67.7734L62.793-67.7734Q65.2344-67.7734 66.4307-66.5283Q67.627-65.2832 67.627-62.9395L67.627-24.1699Q67.627-22.2656 65.625-22.2656L24.3164-22.2656Q22.9004-22.2656 21.5576-22.0215Q20.2148-21.7773 19.043-21.3379ZM24.5117-1.9043Q21.4355-1.9043 19.873-3.56445Q18.3105-5.22461 18.3105-7.8125Q18.3105-10.3516 20.0195-12.0361Q21.7285-13.7207 24.8047-13.7207L61.8164-13.7207Q62.0117-13.7207 62.1826-13.7207Q62.3535-13.7207 62.5488-13.7207Q61.2305-10.791 61.2549-7.69043Q61.2793-4.58984 62.5488-1.9043ZM23.4863-18.1641L29.6875-18.1641L29.6875-70.1172L23.4863-70.1172Z"/>
  </g>
  <g id="Medium-S" transform="matrix(1 0 0 1 1703.64 696)">
   <path d="M22.5586 6.29883L72.1191 6.29883Q73.7793 6.29883 74.9268 5.17578Q76.0742 4.05273 76.0742 2.39258Q76.0742 0.927734 75.1953-0.0732422Q74.3164-1.07422 73.1445-1.61133Q70.8984-2.53906 69.9219-4.6875Q68.9453-6.83594 69.5312-9.42383Q70.1172-12.0117 72.4609-14.209Q73.877-15.4297 74.9512-17.041Q76.0254-18.6523 76.0254-21.6309L76.0254-63.8184Q76.0254-70.166 72.7783-73.4619Q69.5312-76.7578 63.1836-76.7578L22.5586-76.7578Q16.2109-76.7578 12.9883-73.4863Q9.76562-70.2148 9.76562-63.8184L9.76562-6.64062Q9.76562-0.244141 12.9883 3.02734Q16.2109 6.29883 22.5586 6.29883ZM18.0664-19.7754L18.0664-63.3301Q18.0664-65.8203 19.3604-67.1387Q20.6543-68.457 23.2422-68.457L62.5-68.457Q65.0879-68.457 66.3818-67.1387Q67.6758-65.8203 67.6758-63.3301L67.6758-22.9004Q67.6758-20.8496 65.5273-20.8496L23.6816-20.8496Q22.1191-20.8496 20.7031-20.5811Q19.2871-20.3125 18.0664-19.7754ZM23.584-1.5625Q20.6543-1.5625 19.165-3.125Q17.6758-4.6875 17.6758-7.27539Q17.6758-9.76562 19.3359-11.377Q20.9961-12.9883 23.9258-12.9883L61.6699-12.9883Q61.9141-12.9883 62.085-12.9883Q62.2559-12.9883 62.4512-12.9883Q61.2305-10.1074 61.2549-7.15332Q61.2793-4.19922 62.5-1.5625ZM22.5098-16.8945L28.4668-16.8945L28.4668-70.459L22.5098-70.459Z"/>
  </g>
  <g id="Regular-S" transform="matrix(1 0 0 1 1407.56 696)">
   <path d="M22.0215 5.9082L71.2891 5.9082Q72.7051 5.9082 73.7549 4.88281Q74.8047 3.85742 74.8047 2.39258Q74.8047 1.2207 74.0723 0.292969Q73.3398-0.634766 72.3145-0.976562Q70.0195-1.75781 69.0186-3.80859Q68.0176-5.85938 68.5791-8.39844Q69.1406-10.9375 71.4355-13.1836Q72.5098-14.209 73.6572-15.7715Q74.8047-17.334 74.8047-20.2637L74.8047-63.916Q74.8047-70.1172 71.7285-73.2422Q68.6523-76.3672 62.5-76.3672L22.0215-76.3672Q15.8691-76.3672 12.8174-73.2666Q9.76562-70.166 9.76562-63.916L9.76562-6.54297Q9.76562-0.292969 12.8174 2.80762Q15.8691 5.9082 22.0215 5.9082ZM16.7969-17.8223L16.7969-63.8184Q16.7969-66.4551 18.2129-67.8955Q19.6289-69.3359 22.3633-69.3359L62.1582-69.3359Q64.8926-69.3359 66.3086-67.8955Q67.7246-66.4551 67.7246-63.8184L67.7246-21.2891Q67.7246-19.043 65.3809-19.043L22.8027-19.043Q21.0938-19.043 19.5801-18.7256Q18.0664-18.4082 16.7969-17.8223ZM22.3633-1.12305Q19.6289-1.12305 18.2129-2.56348Q16.7969-4.00391 16.7969-6.5918Q16.7969-9.0332 18.4326-10.5225Q20.0684-12.0117 22.8027-12.0117L61.5234-12.0117Q61.7676-12.0117 61.9385-12.0117Q62.1094-12.0117 62.3047-12.0117Q61.1816-9.22852 61.2305-6.4209Q61.2793-3.61328 62.4512-1.12305ZM21.2402-15.2344L26.9043-15.2344L26.9043-70.9473L21.2402-70.9473Z"/>
  </g>
  <g id="Light-S" transform="matrix(1 0 0 1 1111.46 696)">
   <path d="M21.0938 5.66406L70.8496 5.66406Q71.9727 5.66406 72.7783 4.88281Q73.584 4.10156 73.584 2.92969Q73.584 2.05078 73.0225 1.34277Q72.4609 0.634766 71.7285 0.390625Q69.2383-0.78125 68.1152-3.02734Q66.9922-5.27344 67.5293-7.9834Q68.0664-10.6934 70.459-13.1348Q71.5332-14.3066 72.5586-15.9424Q73.584-17.5781 73.584-20.3613L73.584-64.4531Q73.584-70.2148 70.6787-73.1445Q67.7734-76.0742 62.0117-76.0742L21.2891-76.0742Q15.5273-76.0742 12.6465-73.1689Q9.76562-70.2637 9.76562-64.4531L9.76562-5.66406Q9.76562-0.0488281 12.6465 2.80762Q15.5273 5.66406 21.0938 5.66406ZM15.1855-15.1855L15.1855-64.3555Q15.1855-67.3828 16.7969-69.0186Q18.4082-70.6543 21.5332-70.6543L61.7676-70.6543Q64.8926-70.6543 66.5039-69.0186Q68.1152-67.3828 68.1152-64.3555L68.1152-21.0938Q68.1152-16.9922 63.9648-16.9922L21.6309-16.9922Q19.6289-16.9922 18.042-16.5283Q16.4551-16.0645 15.1855-15.1855ZM21.3867 0.244141Q18.3594 0.244141 16.7725-1.31836Q15.1855-2.88086 15.1855-5.71289Q15.1855-8.39844 16.9189-9.98535Q18.6523-11.5723 21.6797-11.5723L61.377-11.5723Q61.9141-11.5723 62.3535-11.6211Q62.793-11.6699 63.1836-11.7676Q61.6699-8.59375 61.9385-5.44434Q62.207-2.29492 64.0625 0.244141ZM19.7754-14.1113L24.2676-14.1113L24.2676-72.0703L19.7754-72.0703Z"/>
  </g>
  <g id="Thin-S" transform="matrix(1 0 0 1 815.577 696)">
   <path d="M19.9219 5.32227L70.3125 5.32227Q70.9961 5.32227 71.46 4.88281Q71.9238 4.44336 71.9238 3.71094Q71.9238 3.17383 71.6309 2.75879Q71.3379 2.34375 70.8984 2.14844Q68.1641 0.585938 66.8945-1.95312Q65.625-4.49219 66.1133-7.42188Q66.6016-10.3516 69.0918-13.1348Q70.2637-14.4043 71.0938-16.1621Q71.9238-17.9199 71.9238-20.459L71.9238-65.1367Q71.9238-70.3125 69.2627-72.998Q66.6016-75.6836 61.4258-75.6836L20.2637-75.6836Q15.0879-75.6836 12.4268-73.0225Q9.76562-70.3613 9.76562-65.1367L9.76562-4.49219Q9.76562 0.244141 12.4023 2.7832Q15.0391 5.32227 19.9219 5.32227ZM13.0859-11.7188L13.0859-65.0391Q13.0859-68.6523 14.9414-70.5322Q16.7969-72.4121 20.4102-72.4121L61.2305-72.4121Q64.8926-72.4121 66.7725-70.5322Q68.6523-68.6523 68.6523-65.0391L68.6523-20.8496Q68.6523-14.3555 62.1094-14.3555L20.1172-14.3555Q17.627-14.3555 15.9668-13.6719Q14.3066-12.9883 13.0859-11.7188ZM20.0684 2.05078Q16.6992 2.05078 14.8926 0.317383Q13.0859-1.41602 13.0859-4.58984Q13.0859-7.56836 14.9658-9.30176Q16.8457-11.0352 20.166-11.0352L61.1816-11.0352Q62.0605-11.0352 62.8662-11.1572Q63.6719-11.2793 64.3555-11.4746Q62.3047-7.76367 62.8662-4.15039Q63.4277-0.537109 66.2109 2.05078ZM17.8223-12.5977L20.752-12.5977L20.752-73.5352L17.8223-73.5352Z"/>
  </g>
  <g id="Ultralight-S" transform="matrix(1 0 0 1 519.281 696)">
   <path d="M19.2871 5.17578L70.0195 5.17578Q70.5078 5.17578 70.8008 4.88281Q71.0938 4.58984 71.0938 4.05273Q71.0938 3.75977 70.9229 3.49121Q70.752 3.22266 70.5078 3.07617Q67.627 1.2207 66.2842-1.44043Q64.9414-4.10156 65.4053-7.12891Q65.8691-10.1562 68.457-13.0859Q69.5801-14.4531 70.3369-16.2598Q71.0938-18.0664 71.0938-20.5566L71.0938-65.5273Q71.0938-70.4102 68.5547-72.9492Q66.0156-75.4883 61.084-75.4883L19.7754-75.4883Q14.8926-75.4883 12.3291-72.9492Q9.76562-70.4102 9.76562-65.5273L9.76562-3.90625Q9.76562 0.390625 12.2803 2.7832Q14.7949 5.17578 19.2871 5.17578ZM11.9629-9.91211L11.9629-65.4297Q11.9629-69.2871 13.9648-71.2891Q15.9668-73.291 19.873-73.291L60.9863-73.291Q64.8926-73.291 66.8945-71.2891Q68.8965-69.2871 68.8965-65.4297L68.8965-20.7031Q68.8965-12.9395 61.1816-12.9395L19.2871-12.9395Q16.6504-12.9395 14.917-12.1826Q13.1836-11.4258 11.9629-9.91211ZM19.4336 2.97852Q15.8691 2.97852 13.916 1.14746Q11.9629-0.683594 11.9629-4.00391Q11.9629-7.17773 13.916-8.95996Q15.8691-10.7422 19.3848-10.7422L61.084-10.7422Q62.1582-10.7422 63.1348-10.8887Q64.1113-11.0352 64.9902-11.3281Q62.6465-7.37305 63.3545-3.51562Q64.0625 0.341797 67.334 2.97852ZM16.8457-11.8164L18.9453-11.8164L18.9453-74.3164L16.8457-74.3164Z"/>
  </g>
 </g>
</svg>
